<svg width="246" height="159" viewBox="0 0 246 159" fill="none" xmlns="http://www.w3.org/2000/svg">
<rect width="246" height="159" rx="15" fill="#F68C64"/>
<path d="M45.4583 86.01H38.9583L37.9703 89H32.6143L39.2963 70.67H45.1723L51.8283 89H46.4463L45.4583 86.01ZM44.1843 82.11L42.2083 76.182L40.2583 82.11H44.1843ZM58.5852 76.988C59.1572 76.156 59.8505 75.4973 60.6652 75.012C61.4799 74.5267 62.3552 74.284 63.2912 74.284V79.718H61.8612C60.7519 79.718 59.9285 79.9347 59.3912 80.368C58.8539 80.8013 58.5852 81.5553 58.5852 82.63V89H53.4892V74.414H58.5852V76.988ZM70.2141 76.988C70.7861 76.156 71.4794 75.4973 72.2941 75.012C73.1088 74.5267 73.9841 74.284 74.9201 74.284V79.718H73.4901C72.3808 79.718 71.5574 79.9347 71.0201 80.368C70.4828 80.8013 70.2141 81.5553 70.2141 82.63V89H65.1181V74.414H70.2141V76.988ZM83.533 89.182C82.077 89.182 80.7683 88.8787 79.607 88.272C78.463 87.6653 77.5617 86.7987 76.903 85.672C76.2443 84.5453 75.915 83.2193 75.915 81.694C75.915 80.186 76.2443 78.8687 76.903 77.742C77.579 76.6153 78.489 75.7487 79.633 75.142C80.7943 74.5353 82.103 74.232 83.559 74.232C85.015 74.232 86.315 74.5353 87.459 75.142C88.6203 75.7487 89.5303 76.6153 90.189 77.742C90.865 78.8687 91.203 80.186 91.203 81.694C91.203 83.202 90.865 84.528 90.189 85.672C89.5303 86.7987 88.6203 87.6653 87.459 88.272C86.2977 88.8787 84.989 89.182 83.533 89.182ZM83.533 84.762C84.2437 84.762 84.833 84.502 85.301 83.982C85.7863 83.4447 86.029 82.682 86.029 81.694C86.029 80.706 85.7863 79.952 85.301 79.432C84.833 78.912 84.2523 78.652 83.559 78.652C82.8657 78.652 82.285 78.912 81.817 79.432C81.349 79.952 81.115 80.706 81.115 81.694C81.115 82.6993 81.3403 83.462 81.791 83.982C82.2417 84.502 82.8223 84.762 83.533 84.762ZM98.1123 84.762H104.326V89H92.4963V84.97L98.2943 78.652H92.5483V74.414H104.118V78.444L98.1123 84.762ZM119.309 78.652H117.021V89H111.899V78.652H110.313V74.414H111.899V74.284C111.899 72.412 112.445 70.982 113.537 69.994C114.646 68.9887 116.232 68.486 118.295 68.486C118.711 68.486 119.031 68.4947 119.257 68.512V72.854C119.118 72.8367 118.927 72.828 118.685 72.828C118.13 72.828 117.723 72.958 117.463 73.218C117.203 73.4607 117.055 73.8593 117.021 74.414H119.309V78.652ZM135.066 81.538C135.066 81.9367 135.04 82.3353 134.988 82.734H125.342C125.394 83.5313 125.61 84.1293 125.992 84.528C126.39 84.9093 126.893 85.1 127.5 85.1C128.349 85.1 128.956 84.7187 129.32 83.956H134.754C134.528 84.9613 134.086 85.8627 133.428 86.66C132.786 87.44 131.972 88.0553 130.984 88.506C129.996 88.9567 128.904 89.182 127.708 89.182C126.269 89.182 124.986 88.8787 123.86 88.272C122.75 87.6653 121.875 86.7987 121.234 85.672C120.61 84.5453 120.298 83.2193 120.298 81.694C120.298 80.1687 120.61 78.8513 121.234 77.742C121.858 76.6153 122.724 75.7487 123.834 75.142C124.96 74.5353 126.252 74.232 127.708 74.232C129.146 74.232 130.42 74.5267 131.53 75.116C132.639 75.7053 133.506 76.5547 134.13 77.664C134.754 78.756 135.066 80.0473 135.066 81.538ZM129.866 80.264C129.866 79.64 129.658 79.1547 129.242 78.808C128.826 78.444 128.306 78.262 127.682 78.262C127.058 78.262 126.546 78.4353 126.148 78.782C125.749 79.1113 125.489 79.6053 125.368 80.264H129.866ZM143.365 89.182C142.048 89.182 140.869 88.9653 139.829 88.532C138.807 88.0813 137.992 87.4747 137.385 86.712C136.796 85.932 136.467 85.0567 136.397 84.086H141.337C141.407 84.554 141.623 84.918 141.987 85.178C142.351 85.438 142.802 85.568 143.339 85.568C143.755 85.568 144.085 85.4813 144.327 85.308C144.57 85.1347 144.691 84.9093 144.691 84.632C144.691 84.268 144.492 83.9993 144.093 83.826C143.695 83.6527 143.036 83.462 142.117 83.254C141.077 83.046 140.211 82.812 139.517 82.552C138.824 82.292 138.217 81.8673 137.697 81.278C137.195 80.6887 136.943 79.8913 136.943 78.886C136.943 78.0193 137.177 77.2393 137.645 76.546C138.113 75.8353 138.798 75.272 139.699 74.856C140.618 74.44 141.719 74.232 143.001 74.232C144.908 74.232 146.407 74.7 147.499 75.636C148.591 76.572 149.224 77.8027 149.397 79.328H144.795C144.709 78.86 144.501 78.5047 144.171 78.262C143.859 78.002 143.435 77.872 142.897 77.872C142.481 77.872 142.161 77.95 141.935 78.106C141.727 78.262 141.623 78.4787 141.623 78.756C141.623 79.1027 141.823 79.3713 142.221 79.562C142.62 79.7353 143.261 79.9173 144.145 80.108C145.203 80.3333 146.078 80.5847 146.771 80.862C147.482 81.1393 148.097 81.59 148.617 82.214C149.155 82.8207 149.423 83.6527 149.423 84.71C149.423 85.5593 149.172 86.322 148.669 86.998C148.184 87.674 147.482 88.2113 146.563 88.61C145.662 88.9913 144.596 89.182 143.365 89.182ZM160.535 84.658V89H158.325C154.598 89 152.735 87.154 152.735 83.462V78.652H150.941V74.414H152.735V70.878H157.857V74.414H160.509V78.652H157.857V83.54C157.857 83.9387 157.943 84.2247 158.117 84.398C158.307 84.5713 158.619 84.658 159.053 84.658H160.535ZM176.808 81.538C176.808 81.9367 176.782 82.3353 176.73 82.734H167.084C167.136 83.5313 167.353 84.1293 167.734 84.528C168.133 84.9093 168.635 85.1 169.242 85.1C170.091 85.1 170.698 84.7187 171.062 83.956H176.496C176.271 84.9613 175.829 85.8627 175.17 86.66C174.529 87.44 173.714 88.0553 172.726 88.506C171.738 88.9567 170.646 89.182 169.45 89.182C168.011 89.182 166.729 88.8787 165.602 88.272C164.493 87.6653 163.617 86.7987 162.976 85.672C162.352 84.5453 162.04 83.2193 162.04 81.694C162.04 80.1687 162.352 78.8513 162.976 77.742C163.6 76.6153 164.467 75.7487 165.576 75.142C166.703 74.5353 167.994 74.232 169.45 74.232C170.889 74.232 172.163 74.5267 173.272 75.116C174.381 75.7053 175.248 76.5547 175.872 77.664C176.496 78.756 176.808 80.0473 176.808 81.538ZM171.608 80.264C171.608 79.64 171.4 79.1547 170.984 78.808C170.568 78.444 170.048 78.262 169.424 78.262C168.8 78.262 168.289 78.4353 167.89 78.782C167.491 79.1113 167.231 79.6053 167.11 80.264H171.608ZM181.468 73.062C180.566 73.062 179.838 72.8193 179.284 72.334C178.746 71.8313 178.478 71.2073 178.478 70.462C178.478 69.6993 178.746 69.0667 179.284 68.564C179.838 68.0613 180.566 67.81 181.468 67.81C182.352 67.81 183.062 68.0613 183.6 68.564C184.154 69.0667 184.432 69.6993 184.432 70.462C184.432 71.2073 184.154 71.8313 183.6 72.334C183.062 72.8193 182.352 73.062 181.468 73.062ZM183.99 74.414V89H178.894V74.414H183.99ZM191.988 76.988C192.56 76.156 193.253 75.4973 194.068 75.012C194.882 74.5267 195.758 74.284 196.694 74.284V79.718H195.264C194.154 79.718 193.331 79.9347 192.794 80.368C192.256 80.8013 191.988 81.5553 191.988 82.63V89H186.892V74.414H191.988V76.988ZM205.306 89.182C203.85 89.182 202.542 88.8787 201.38 88.272C200.236 87.6653 199.335 86.7987 198.676 85.672C198.018 84.5453 197.688 83.2193 197.688 81.694C197.688 80.186 198.018 78.8687 198.676 77.742C199.352 76.6153 200.262 75.7487 201.406 75.142C202.568 74.5353 203.876 74.232 205.332 74.232C206.788 74.232 208.088 74.5353 209.232 75.142C210.394 75.7487 211.304 76.6153 211.962 77.742C212.638 78.8687 212.976 80.186 212.976 81.694C212.976 83.202 212.638 84.528 211.962 85.672C211.304 86.7987 210.394 87.6653 209.232 88.272C208.071 88.8787 206.762 89.182 205.306 89.182ZM205.306 84.762C206.017 84.762 206.606 84.502 207.074 83.982C207.56 83.4447 207.802 82.682 207.802 81.694C207.802 80.706 207.56 79.952 207.074 79.432C206.606 78.912 206.026 78.652 205.332 78.652C204.639 78.652 204.058 78.912 203.59 79.432C203.122 79.952 202.888 80.706 202.888 81.694C202.888 82.6993 203.114 83.462 203.564 83.982C204.015 84.502 204.596 84.762 205.306 84.762Z" fill="#FFEBEB"/>
</svg>
