<svg width="246" height="159" viewBox="0 0 246 159" fill="none" xmlns="http://www.w3.org/2000/svg">
<rect width="246" height="159" rx="15" fill="#F68C64"/>
<path d="M70.3071 54.78C70.3071 55.8893 70.0471 56.9033 69.5271 57.822C69.0245 58.7233 68.2531 59.4513 67.2131 60.006C66.1905 60.5433 64.9338 60.812 63.4431 60.812H60.9211V67H55.8251V48.67H63.4431C64.9165 48.67 66.1645 48.93 67.1871 49.45C68.2271 49.97 69.0071 50.6893 69.5271 51.608C70.0471 52.5267 70.3071 53.584 70.3071 54.78ZM62.9491 56.756C64.3878 56.756 65.1071 56.0973 65.1071 54.78C65.1071 53.4453 64.3878 52.778 62.9491 52.778H60.9211V56.756H62.9491ZM86.2904 59.538C86.2904 59.9367 86.2644 60.3353 86.2124 60.734H76.5664C76.6184 61.5313 76.8351 62.1293 77.2164 62.528C77.6151 62.9093 78.1178 63.1 78.7244 63.1C79.5738 63.1 80.1804 62.7187 80.5444 61.956H85.9784C85.7531 62.9613 85.3111 63.8627 84.6524 64.66C84.0111 65.44 83.1964 66.0553 82.2084 66.506C81.2204 66.9567 80.1284 67.182 78.9324 67.182C77.4938 67.182 76.2111 66.8787 75.0844 66.272C73.9751 65.6653 73.0998 64.7987 72.4584 63.672C71.8344 62.5453 71.5224 61.2193 71.5224 59.694C71.5224 58.1687 71.8344 56.8513 72.4584 55.742C73.0824 54.6153 73.9491 53.7487 75.0584 53.142C76.1851 52.5353 77.4764 52.232 78.9324 52.232C80.3711 52.232 81.6451 52.5267 82.7544 53.116C83.8638 53.7053 84.7304 54.5547 85.3544 55.664C85.9784 56.756 86.2904 58.0473 86.2904 59.538ZM81.0904 58.264C81.0904 57.64 80.8824 57.1547 80.4664 56.808C80.0504 56.444 79.5304 56.262 78.9064 56.262C78.2824 56.262 77.7711 56.4353 77.3724 56.782C76.9738 57.1113 76.7138 57.6053 76.5924 58.264H81.0904ZM96.9819 62.658V67H94.7719C91.0453 67 89.1819 65.154 89.1819 61.462V56.652H87.3879V52.414H89.1819V48.878H94.3039V52.414H96.9559V56.652H94.3039V61.54C94.3039 61.9387 94.3906 62.2247 94.5639 62.398C94.7546 62.5713 95.0666 62.658 95.4999 62.658H96.9819ZM101.893 51.062C100.992 51.062 100.264 50.8193 99.7093 50.334C99.1719 49.8313 98.9033 49.2073 98.9033 48.462C98.9033 47.6993 99.1719 47.0667 99.7093 46.564C100.264 46.0613 100.992 45.81 101.893 45.81C102.777 45.81 103.488 46.0613 104.025 46.564C104.58 47.0667 104.857 47.6993 104.857 48.462C104.857 49.2073 104.58 49.8313 104.025 50.334C103.488 50.8193 102.777 51.062 101.893 51.062ZM104.415 52.414V67H99.3193V52.414H104.415ZM113.531 67.182C112.214 67.182 111.035 66.9653 109.995 66.532C108.973 66.0813 108.158 65.4747 107.551 64.712C106.962 63.932 106.633 63.0567 106.563 62.086H111.503C111.573 62.554 111.789 62.918 112.153 63.178C112.517 63.438 112.968 63.568 113.505 63.568C113.921 63.568 114.251 63.4813 114.493 63.308C114.736 63.1347 114.857 62.9093 114.857 62.632C114.857 62.268 114.658 61.9993 114.259 61.826C113.861 61.6527 113.202 61.462 112.283 61.254C111.243 61.046 110.377 60.812 109.683 60.552C108.99 60.292 108.383 59.8673 107.863 59.278C107.361 58.6887 107.109 57.8913 107.109 56.886C107.109 56.0193 107.343 55.2393 107.811 54.546C108.279 53.8353 108.964 53.272 109.865 52.856C110.784 52.44 111.885 52.232 113.167 52.232C115.074 52.232 116.573 52.7 117.665 53.636C118.757 54.572 119.39 55.8027 119.563 57.328H114.961C114.875 56.86 114.667 56.5047 114.337 56.262C114.025 56.002 113.601 55.872 113.063 55.872C112.647 55.872 112.327 55.95 112.101 56.106C111.893 56.262 111.789 56.4787 111.789 56.756C111.789 57.1027 111.989 57.3713 112.387 57.562C112.786 57.7353 113.427 57.9173 114.311 58.108C115.369 58.3333 116.244 58.5847 116.937 58.862C117.648 59.1393 118.263 59.59 118.783 60.214C119.321 60.8207 119.589 61.6527 119.589 62.71C119.589 63.5593 119.338 64.322 118.835 64.998C118.35 65.674 117.648 66.2113 116.729 66.61C115.828 66.9913 114.762 67.182 113.531 67.182ZM121.263 59.694C121.263 58.186 121.575 56.8687 122.199 55.742C122.823 54.6153 123.689 53.7487 124.799 53.142C125.925 52.5353 127.208 52.232 128.647 52.232C130.501 52.232 132.061 52.7433 133.327 53.766C134.592 54.7713 135.407 56.184 135.771 58.004H130.363C130.051 57.0507 129.444 56.574 128.543 56.574C127.901 56.574 127.39 56.8427 127.009 57.38C126.645 57.9 126.463 58.6713 126.463 59.694C126.463 60.7167 126.645 61.4967 127.009 62.034C127.39 62.5713 127.901 62.84 128.543 62.84C129.461 62.84 130.068 62.3633 130.363 61.41H135.771C135.407 63.2127 134.592 64.6253 133.327 65.648C132.061 66.6707 130.501 67.182 128.647 67.182C127.208 67.182 125.925 66.8787 124.799 66.272C123.689 65.6653 122.823 64.7987 122.199 63.672C121.575 62.5453 121.263 61.2193 121.263 59.694ZM144.674 67.182C143.218 67.182 141.909 66.8787 140.748 66.272C139.604 65.6653 138.702 64.7987 138.044 63.672C137.385 62.5453 137.056 61.2193 137.056 59.694C137.056 58.186 137.385 56.8687 138.044 55.742C138.72 54.6153 139.63 53.7487 140.774 53.142C141.935 52.5353 143.244 52.232 144.7 52.232C146.156 52.232 147.456 52.5353 148.6 53.142C149.761 53.7487 150.671 54.6153 151.33 55.742C152.006 56.8687 152.344 58.186 152.344 59.694C152.344 61.202 152.006 62.528 151.33 63.672C150.671 64.7987 149.761 65.6653 148.6 66.272C147.438 66.8787 146.13 67.182 144.674 67.182ZM144.674 62.762C145.384 62.762 145.974 62.502 146.442 61.982C146.927 61.4447 147.17 60.682 147.17 59.694C147.17 58.706 146.927 57.952 146.442 57.432C145.974 56.912 145.393 56.652 144.7 56.652C144.006 56.652 143.426 56.912 142.958 57.432C142.49 57.952 142.256 58.706 142.256 59.694C142.256 60.6993 142.481 61.462 142.932 61.982C143.382 62.502 143.963 62.762 144.674 62.762ZM158.562 59.694C158.562 58.186 158.83 56.8687 159.368 55.742C159.922 54.6153 160.676 53.7487 161.63 53.142C162.583 52.5353 163.64 52.232 164.801 52.232C165.738 52.232 166.57 52.4313 167.298 52.83C168.043 53.2113 168.624 53.74 169.04 54.416V47.76H174.162V67H169.04V64.972C168.641 65.648 168.078 66.1853 167.35 66.584C166.622 66.9827 165.764 67.182 164.776 67.182C163.614 67.182 162.557 66.8787 161.604 66.272C160.668 65.6653 159.922 64.7987 159.368 63.672C158.83 62.528 158.562 61.202 158.562 59.694ZM169.066 59.694C169.066 58.758 168.806 58.0213 168.286 57.484C167.783 56.9467 167.159 56.678 166.414 56.678C165.651 56.678 165.018 56.9467 164.516 57.484C164.013 58.004 163.762 58.7407 163.762 59.694C163.762 60.63 164.013 61.3753 164.516 61.93C165.018 62.4673 165.651 62.736 166.414 62.736C167.159 62.736 167.783 62.4673 168.286 61.93C168.806 61.3927 169.066 60.6473 169.066 59.694ZM191.001 59.538C191.001 59.9367 190.975 60.3353 190.923 60.734H181.277C181.329 61.5313 181.546 62.1293 181.927 62.528C182.326 62.9093 182.829 63.1 183.435 63.1C184.285 63.1 184.891 62.7187 185.255 61.956H190.689C190.464 62.9613 190.022 63.8627 189.363 64.66C188.722 65.44 187.907 66.0553 186.919 66.506C185.931 66.9567 184.839 67.182 183.643 67.182C182.205 67.182 180.922 66.8787 179.795 66.272C178.686 65.6653 177.811 64.7987 177.169 63.672C176.545 62.5453 176.233 61.2193 176.233 59.694C176.233 58.1687 176.545 56.8513 177.169 55.742C177.793 54.6153 178.66 53.7487 179.769 53.142C180.896 52.5353 182.187 52.232 183.643 52.232C185.082 52.232 186.356 52.5267 187.465 53.116C188.575 53.7053 189.441 54.5547 190.065 55.664C190.689 56.756 191.001 58.0473 191.001 59.538ZM185.801 58.264C185.801 57.64 185.593 57.1547 185.177 56.808C184.761 56.444 184.241 56.262 183.617 56.262C182.993 56.262 182.482 56.4353 182.083 56.782C181.685 57.1113 181.425 57.6053 181.303 58.264H185.801ZM91.3017 98.694C91.3017 97.186 91.6137 95.8687 92.2377 94.742C92.8617 93.6153 93.7284 92.7487 94.8377 92.142C95.9644 91.5353 97.2471 91.232 98.6857 91.232C100.54 91.232 102.1 91.7433 103.366 92.766C104.631 93.7713 105.446 95.184 105.81 97.004H100.402C100.09 96.0507 99.4831 95.574 98.5817 95.574C97.9404 95.574 97.4291 95.8427 97.0477 96.38C96.6837 96.9 96.5017 97.6713 96.5017 98.694C96.5017 99.7167 96.6837 100.497 97.0477 101.034C97.4291 101.571 97.9404 101.84 98.5817 101.84C99.5004 101.84 100.107 101.363 100.402 100.41H105.81C105.446 102.213 104.631 103.625 103.366 104.648C102.1 105.671 100.54 106.182 98.6857 106.182C97.2471 106.182 95.9644 105.879 94.8377 105.272C93.7284 104.665 92.8617 103.799 92.2377 102.672C91.6137 101.545 91.3017 100.219 91.3017 98.694ZM114.713 106.182C113.257 106.182 111.948 105.879 110.787 105.272C109.643 104.665 108.741 103.799 108.083 102.672C107.424 101.545 107.095 100.219 107.095 98.694C107.095 97.186 107.424 95.8687 108.083 94.742C108.759 93.6153 109.669 92.7487 110.813 92.142C111.974 91.5353 113.283 91.232 114.739 91.232C116.195 91.232 117.495 91.5353 118.639 92.142C119.8 92.7487 120.71 93.6153 121.369 94.742C122.045 95.8687 122.383 97.186 122.383 98.694C122.383 100.202 122.045 101.528 121.369 102.672C120.71 103.799 119.8 104.665 118.639 105.272C117.477 105.879 116.169 106.182 114.713 106.182ZM114.713 101.762C115.423 101.762 116.013 101.502 116.481 100.982C116.966 100.445 117.209 99.682 117.209 98.694C117.209 97.706 116.966 96.952 116.481 96.432C116.013 95.912 115.432 95.652 114.739 95.652C114.045 95.652 113.465 95.912 112.997 96.432C112.529 96.952 112.295 97.706 112.295 98.694C112.295 99.6993 112.52 100.462 112.971 100.982C113.421 101.502 114.002 101.762 114.713 101.762ZM123.624 98.694C123.624 97.186 123.936 95.8687 124.56 94.742C125.184 93.6153 126.051 92.7487 127.16 92.142C128.287 91.5353 129.569 91.232 131.008 91.232C132.863 91.232 134.423 91.7433 135.688 92.766C136.953 93.7713 137.768 95.184 138.132 97.004H132.724C132.412 96.0507 131.805 95.574 130.904 95.574C130.263 95.574 129.751 95.8427 129.37 96.38C129.006 96.9 128.824 97.6713 128.824 98.694C128.824 99.7167 129.006 100.497 129.37 101.034C129.751 101.571 130.263 101.84 130.904 101.84C131.823 101.84 132.429 101.363 132.724 100.41H138.132C137.768 102.213 136.953 103.625 135.688 104.648C134.423 105.671 132.863 106.182 131.008 106.182C129.569 106.182 128.287 105.879 127.16 105.272C126.051 104.665 125.184 103.799 124.56 102.672C123.936 101.545 123.624 100.219 123.624 98.694ZM147.035 106.182C145.579 106.182 144.27 105.879 143.109 105.272C141.965 104.665 141.064 103.799 140.405 102.672C139.746 101.545 139.417 100.219 139.417 98.694C139.417 97.186 139.746 95.8687 140.405 94.742C141.081 93.6153 141.991 92.7487 143.135 92.142C144.296 91.5353 145.605 91.232 147.061 91.232C148.517 91.232 149.817 91.5353 150.961 92.142C152.122 92.7487 153.032 93.6153 153.691 94.742C154.367 95.8687 154.705 97.186 154.705 98.694C154.705 100.202 154.367 101.528 153.691 102.672C153.032 103.799 152.122 104.665 150.961 105.272C149.8 105.879 148.491 106.182 147.035 106.182ZM147.035 101.762C147.746 101.762 148.335 101.502 148.803 100.982C149.288 100.445 149.531 99.682 149.531 98.694C149.531 97.706 149.288 96.952 148.803 96.432C148.335 95.912 147.754 95.652 147.061 95.652C146.368 95.652 145.787 95.912 145.319 96.432C144.851 96.952 144.617 97.706 144.617 98.694C144.617 99.6993 144.842 100.462 145.293 100.982C145.744 101.502 146.324 101.762 147.035 101.762Z" fill="#FFEBEB"/>
</svg>
