<svg width="246" height="159" viewBox="0 0 246 159" fill="none" xmlns="http://www.w3.org/2000/svg">
<rect width="246" height="159" rx="15" fill="#F68C64"/>
<path d="M60.7458 56.702C60.4512 56.2167 60.0438 55.844 59.5238 55.584C59.0212 55.324 58.4232 55.194 57.7298 55.194C56.4472 55.194 55.4332 55.61 54.6878 56.442C53.9598 57.274 53.5958 58.392 53.5958 59.796C53.5958 61.3733 53.9858 62.578 54.7658 63.41C55.5632 64.2247 56.7158 64.632 58.2238 64.632C60.0092 64.632 61.2832 63.826 62.0458 62.214H56.9238V58.548H66.4398V63.488C66.0412 64.4587 65.4518 65.3687 64.6718 66.218C63.9092 67.0673 62.9385 67.7693 61.7598 68.324C60.5812 68.8613 59.2378 69.13 57.7298 69.13C55.8925 69.13 54.2632 68.74 52.8418 67.96C51.4378 67.1627 50.3458 66.062 49.5658 64.658C48.8032 63.2367 48.4218 61.616 48.4218 59.796C48.4218 57.9933 48.8032 56.39 49.5658 54.986C50.3458 53.5647 51.4378 52.464 52.8418 51.684C54.2458 50.8867 55.8665 50.488 57.7038 50.488C60.0092 50.488 61.9158 51.0427 63.4238 52.152C64.9318 53.2613 65.8678 54.778 66.2318 56.702H60.7458ZM83.6476 54.414V69H78.5256V66.92C78.0922 67.5787 77.4942 68.116 76.7316 68.532C75.9689 68.9307 75.0936 69.13 74.1056 69.13C72.4069 69.13 71.0636 68.5753 70.0756 67.466C69.1049 66.3393 68.6196 64.814 68.6196 62.89V54.414H73.6896V62.24C73.6896 63.072 73.9062 63.7307 74.3396 64.216C74.7902 64.684 75.3796 64.918 76.1076 64.918C76.8529 64.918 77.4422 64.684 77.8756 64.216C78.3089 63.7307 78.5256 63.072 78.5256 62.24V54.414H83.6476ZM89.1218 53.062C88.2205 53.062 87.4925 52.8193 86.9378 52.334C86.4005 51.8313 86.1318 51.2073 86.1318 50.462C86.1318 49.6993 86.4005 49.0667 86.9378 48.564C87.4925 48.0613 88.2205 47.81 89.1218 47.81C90.0058 47.81 90.7165 48.0613 91.2538 48.564C91.8085 49.0667 92.0858 49.6993 92.0858 50.462C92.0858 51.2073 91.8085 51.8313 91.2538 52.334C90.7165 52.8193 90.0058 53.062 89.1218 53.062ZM91.6438 54.414V69H86.5478V54.414H91.6438ZM100.76 69.182C99.4425 69.182 98.2638 68.9653 97.2238 68.532C96.2012 68.0813 95.3865 67.4747 94.7798 66.712C94.1905 65.932 93.8612 65.0567 93.7918 64.086H98.7318C98.8012 64.554 99.0178 64.918 99.3818 65.178C99.7458 65.438 100.197 65.568 100.734 65.568C101.15 65.568 101.479 65.4813 101.722 65.308C101.965 65.1347 102.086 64.9093 102.086 64.632C102.086 64.268 101.887 63.9993 101.488 63.826C101.089 63.6527 100.431 63.462 99.5118 63.254C98.4718 63.046 97.6052 62.812 96.9118 62.552C96.2185 62.292 95.6118 61.8673 95.0918 61.278C94.5892 60.6887 94.3378 59.8913 94.3378 58.886C94.3378 58.0193 94.5718 57.2393 95.0398 56.546C95.5078 55.8353 96.1925 55.272 97.0938 54.856C98.0125 54.44 99.1132 54.232 100.396 54.232C102.303 54.232 103.802 54.7 104.894 55.636C105.986 56.572 106.619 57.8027 106.792 59.328H102.19C102.103 58.86 101.895 58.5047 101.566 58.262C101.254 58.002 100.829 57.872 100.292 57.872C99.8758 57.872 99.5552 57.95 99.3298 58.106C99.1218 58.262 99.0178 58.4787 99.0178 58.756C99.0178 59.1027 99.2172 59.3713 99.6158 59.562C100.015 59.7353 100.656 59.9173 101.54 60.108C102.597 60.3333 103.473 60.5847 104.166 60.862C104.877 61.1393 105.492 61.59 106.012 62.214C106.549 62.8207 106.818 63.6527 106.818 64.71C106.818 65.5593 106.567 66.322 106.064 66.998C105.579 67.674 104.877 68.2113 103.958 68.61C103.057 68.9913 101.991 69.182 100.76 69.182ZM108.491 61.694C108.491 60.186 108.76 58.8687 109.297 57.742C109.852 56.6153 110.597 55.7487 111.533 55.142C112.487 54.5353 113.544 54.232 114.705 54.232C115.711 54.232 116.577 54.4313 117.305 54.83C118.033 55.2287 118.597 55.766 118.995 56.442V54.414H124.091V69H118.995V66.972C118.597 67.648 118.025 68.1853 117.279 68.584C116.551 68.9827 115.693 69.182 114.705 69.182C113.544 69.182 112.487 68.8787 111.533 68.272C110.597 67.6653 109.852 66.7987 109.297 65.672C108.76 64.528 108.491 63.202 108.491 61.694ZM118.995 61.694C118.995 60.758 118.735 60.0213 118.215 59.484C117.713 58.9467 117.089 58.678 116.343 58.678C115.581 58.678 114.948 58.9467 114.445 59.484C113.943 60.004 113.691 60.7407 113.691 61.694C113.691 62.63 113.943 63.3753 114.445 63.93C114.948 64.4673 115.581 64.736 116.343 64.736C117.089 64.736 117.713 64.4673 118.215 63.93C118.735 63.3927 118.995 62.6473 118.995 61.694ZM126.163 61.694C126.163 60.186 126.432 58.8687 126.969 57.742C127.524 56.6153 128.278 55.7487 129.231 55.142C130.184 54.5353 131.242 54.232 132.403 54.232C133.339 54.232 134.171 54.4313 134.899 54.83C135.644 55.2113 136.225 55.74 136.641 56.416V49.76H141.763V69H136.641V66.972C136.242 67.648 135.679 68.1853 134.951 68.584C134.223 68.9827 133.365 69.182 132.377 69.182C131.216 69.182 130.158 68.8787 129.205 68.272C128.269 67.6653 127.524 66.7987 126.969 65.672C126.432 64.528 126.163 63.202 126.163 61.694ZM136.667 61.694C136.667 60.758 136.407 60.0213 135.887 59.484C135.384 58.9467 134.76 58.678 134.015 58.678C133.252 58.678 132.62 58.9467 132.117 59.484C131.614 60.004 131.363 60.7407 131.363 61.694C131.363 62.63 131.614 63.3753 132.117 63.93C132.62 64.4673 133.252 64.736 134.015 64.736C134.76 64.736 135.384 64.4673 135.887 63.93C136.407 63.3927 136.667 62.6473 136.667 61.694ZM151.453 69.182C149.997 69.182 148.688 68.8787 147.527 68.272C146.383 67.6653 145.482 66.7987 144.823 65.672C144.164 64.5453 143.835 63.2193 143.835 61.694C143.835 60.186 144.164 58.8687 144.823 57.742C145.499 56.6153 146.409 55.7487 147.553 55.142C148.714 54.5353 150.023 54.232 151.479 54.232C152.935 54.232 154.235 54.5353 155.379 55.142C156.54 55.7487 157.45 56.6153 158.109 57.742C158.785 58.8687 159.123 60.186 159.123 61.694C159.123 63.202 158.785 64.528 158.109 65.672C157.45 66.7987 156.54 67.6653 155.379 68.272C154.218 68.8787 152.909 69.182 151.453 69.182ZM151.453 64.762C152.164 64.762 152.753 64.502 153.221 63.982C153.706 63.4447 153.949 62.682 153.949 61.694C153.949 60.706 153.706 59.952 153.221 59.432C152.753 58.912 152.172 58.652 151.479 58.652C150.786 58.652 150.205 58.912 149.737 59.432C149.269 59.952 149.035 60.706 149.035 61.694C149.035 62.6993 149.26 63.462 149.711 63.982C150.162 64.502 150.742 64.762 151.453 64.762ZM165.341 61.694C165.341 60.186 165.609 58.8687 166.147 57.742C166.701 56.6153 167.455 55.7487 168.409 55.142C169.362 54.5353 170.419 54.232 171.581 54.232C172.517 54.232 173.349 54.4313 174.077 54.83C174.822 55.2113 175.403 55.74 175.819 56.416V49.76H180.941V69H175.819V66.972C175.42 67.648 174.857 68.1853 174.129 68.584C173.401 68.9827 172.543 69.182 171.555 69.182C170.393 69.182 169.336 68.8787 168.383 68.272C167.447 67.6653 166.701 66.7987 166.147 65.672C165.609 64.528 165.341 63.202 165.341 61.694ZM175.845 61.694C175.845 60.758 175.585 60.0213 175.065 59.484C174.562 58.9467 173.938 58.678 173.193 58.678C172.43 58.678 171.797 58.9467 171.295 59.484C170.792 60.004 170.541 60.7407 170.541 61.694C170.541 62.63 170.792 63.3753 171.295 63.93C171.797 64.4673 172.43 64.736 173.193 64.736C173.938 64.736 174.562 64.4673 175.065 63.93C175.585 63.3927 175.845 62.6473 175.845 61.694ZM197.781 61.538C197.781 61.9367 197.755 62.3353 197.703 62.734H188.057C188.109 63.5313 188.325 64.1293 188.707 64.528C189.105 64.9093 189.608 65.1 190.215 65.1C191.064 65.1 191.671 64.7187 192.035 63.956H197.469C197.243 64.9613 196.801 65.8627 196.143 66.66C195.501 67.44 194.687 68.0553 193.699 68.506C192.711 68.9567 191.619 69.182 190.423 69.182C188.984 69.182 187.701 68.8787 186.575 68.272C185.465 67.6653 184.59 66.7987 183.949 65.672C183.325 64.5453 183.013 63.2193 183.013 61.694C183.013 60.1687 183.325 58.8513 183.949 57.742C184.573 56.6153 185.439 55.7487 186.549 55.142C187.675 54.5353 188.967 54.232 190.423 54.232C191.861 54.232 193.135 54.5267 194.245 55.116C195.354 55.7053 196.221 56.5547 196.845 57.664C197.469 58.756 197.781 60.0473 197.781 61.538ZM192.581 60.264C192.581 59.64 192.373 59.1547 191.957 58.808C191.541 58.444 191.021 58.262 190.397 58.262C189.773 58.262 189.261 58.4353 188.863 58.782C188.464 59.1113 188.204 59.6053 188.083 60.264H192.581ZM84.1543 100.694C84.1543 99.186 84.4663 97.8687 85.0903 96.742C85.7143 95.6153 86.5809 94.7487 87.6903 94.142C88.8169 93.5353 90.0996 93.232 91.5383 93.232C93.3929 93.232 94.9529 93.7433 96.2183 94.766C97.4836 95.7713 98.2983 97.184 98.6623 99.004H93.2543C92.9423 98.0507 92.3356 97.574 91.4343 97.574C90.7929 97.574 90.2816 97.8427 89.9003 98.38C89.5363 98.9 89.3543 99.6713 89.3543 100.694C89.3543 101.717 89.5363 102.497 89.9003 103.034C90.2816 103.571 90.7929 103.84 91.4343 103.84C92.3529 103.84 92.9596 103.363 93.2543 102.41H98.6623C98.2983 104.213 97.4836 105.625 96.2183 106.648C94.9529 107.671 93.3929 108.182 91.5383 108.182C90.0996 108.182 88.8169 107.879 87.6903 107.272C86.5809 106.665 85.7143 105.799 85.0903 104.672C84.4663 103.545 84.1543 102.219 84.1543 100.694ZM99.9472 100.694C99.9472 99.186 100.216 97.8687 100.753 96.742C101.308 95.6153 102.053 94.7487 102.989 94.142C103.943 93.5353 105 93.232 106.161 93.232C107.167 93.232 108.033 93.4313 108.761 93.83C109.489 94.2287 110.053 94.766 110.451 95.442V93.414H115.547V108H110.451V105.972C110.053 106.648 109.481 107.185 108.735 107.584C108.007 107.983 107.149 108.182 106.161 108.182C105 108.182 103.943 107.879 102.989 107.272C102.053 106.665 101.308 105.799 100.753 104.672C100.216 103.528 99.9472 102.202 99.9472 100.694ZM110.451 100.694C110.451 99.758 110.191 99.0213 109.671 98.484C109.169 97.9467 108.545 97.678 107.799 97.678C107.037 97.678 106.404 97.9467 105.901 98.484C105.399 99.004 105.147 99.7407 105.147 100.694C105.147 101.63 105.399 102.375 105.901 102.93C106.404 103.467 107.037 103.736 107.799 103.736C108.545 103.736 109.169 103.467 109.671 102.93C110.191 102.393 110.451 101.647 110.451 100.694ZM123.547 95.988C124.119 95.156 124.812 94.4973 125.627 94.012C126.442 93.5267 127.317 93.284 128.253 93.284V98.718H126.823C125.714 98.718 124.89 98.9347 124.353 99.368C123.816 99.8013 123.547 100.555 123.547 101.63V108H118.451V93.414H123.547V95.988ZM139.622 93.284C141.303 93.284 142.638 93.8473 143.626 94.974C144.614 96.0833 145.108 97.5913 145.108 99.498V108H140.012V100.174C140.012 99.342 139.795 98.692 139.362 98.224C138.929 97.7387 138.348 97.496 137.62 97.496C136.857 97.496 136.259 97.7387 135.826 98.224C135.393 98.692 135.176 99.342 135.176 100.174V108H130.08V93.414H135.176V95.494C135.627 94.8353 136.233 94.3067 136.996 93.908C137.759 93.492 138.634 93.284 139.622 93.284ZM161.84 100.538C161.84 100.937 161.814 101.335 161.762 101.734H152.116C152.168 102.531 152.385 103.129 152.766 103.528C153.165 103.909 153.668 104.1 154.274 104.1C155.124 104.1 155.73 103.719 156.094 102.956H161.528C161.303 103.961 160.861 104.863 160.202 105.66C159.561 106.44 158.746 107.055 157.758 107.506C156.77 107.957 155.678 108.182 154.482 108.182C153.044 108.182 151.761 107.879 150.634 107.272C149.525 106.665 148.65 105.799 148.008 104.672C147.384 103.545 147.072 102.219 147.072 100.694C147.072 99.1687 147.384 97.8513 148.008 96.742C148.632 95.6153 149.499 94.7487 150.608 94.142C151.735 93.5353 153.026 93.232 154.482 93.232C155.921 93.232 157.195 93.5267 158.304 94.116C159.414 94.7053 160.28 95.5547 160.904 96.664C161.528 97.756 161.84 99.0473 161.84 100.538ZM156.64 99.264C156.64 98.64 156.432 98.1547 156.016 97.808C155.6 97.444 155.08 97.262 154.456 97.262C153.832 97.262 153.321 97.4353 152.922 97.782C152.524 98.1113 152.264 98.6053 152.142 99.264H156.64Z" fill="#FFEBEB"/>
</svg>
