<svg width="246" height="159" viewBox="0 0 246 159" fill="none" xmlns="http://www.w3.org/2000/svg">
<rect width="246" height="159" rx="15" fill="#F68C64"/>
<path d="M70.8027 51.182C68.6707 51.182 66.92 50.6793 65.5507 49.674C64.1813 48.6513 63.4447 47.1953 63.3407 45.306H68.7747C68.8267 45.9473 69.0173 46.4153 69.3467 46.71C69.676 47.0047 70.1007 47.152 70.6207 47.152C71.0887 47.152 71.47 47.0393 71.7647 46.814C72.0767 46.5713 72.2327 46.242 72.2327 45.826C72.2327 45.2887 71.9813 44.8727 71.4787 44.578C70.976 44.2833 70.1613 43.954 69.0347 43.59C67.8387 43.1913 66.868 42.81 66.1227 42.446C65.3947 42.0647 64.7533 41.5187 64.1987 40.808C63.6613 40.08 63.3927 39.1353 63.3927 37.974C63.3927 36.7953 63.6873 35.79 64.2767 34.958C64.866 34.1087 65.6807 33.4673 66.7207 33.034C67.7607 32.6007 68.9393 32.384 70.2567 32.384C72.3887 32.384 74.0873 32.8867 75.3527 33.892C76.6353 34.88 77.32 36.2753 77.4067 38.078H71.8687C71.8513 37.5233 71.678 37.1073 71.3487 36.83C71.0367 36.5527 70.6293 36.414 70.1267 36.414C69.7453 36.414 69.4333 36.5267 69.1907 36.752C68.948 36.9773 68.8267 37.298 68.8267 37.714C68.8267 38.0607 68.9567 38.364 69.2167 38.624C69.494 38.8667 69.832 39.0833 70.2307 39.274C70.6293 39.4473 71.2187 39.6727 71.9987 39.95C73.16 40.3487 74.1133 40.7473 74.8587 41.146C75.6213 41.5273 76.2713 42.0733 76.8087 42.784C77.3633 43.4773 77.6407 44.3613 77.6407 45.436C77.6407 46.528 77.3633 47.5073 76.8087 48.374C76.2713 49.2407 75.4827 49.9253 74.4427 50.428C73.42 50.9307 72.2067 51.182 70.8027 51.182ZM88.6157 46.658V51H86.4057C82.679 51 80.8157 49.154 80.8157 45.462V40.652H79.0217V36.414H80.8157V32.878H85.9377V36.414H88.5897V40.652H85.9377V45.54C85.9377 45.9387 86.0244 46.2247 86.1977 46.398C86.3884 46.5713 86.7004 46.658 87.1337 46.658H88.6157ZM93.5271 35.062C92.6257 35.062 91.8977 34.8193 91.3431 34.334C90.8057 33.8313 90.5371 33.2073 90.5371 32.462C90.5371 31.6993 90.8057 31.0667 91.3431 30.564C91.8977 30.0613 92.6257 29.81 93.5271 29.81C94.4111 29.81 95.1217 30.0613 95.6591 30.564C96.2137 31.0667 96.4911 31.6993 96.4911 32.462C96.4911 33.2073 96.2137 33.8313 95.6591 34.334C95.1217 34.8193 94.4111 35.062 93.5271 35.062ZM96.0491 36.414V51H90.9531V36.414H96.0491ZM98.1191 43.694C98.1191 42.186 98.4311 40.8687 99.0551 39.742C99.6791 38.6153 100.546 37.7487 101.655 37.142C102.782 36.5353 104.064 36.232 105.503 36.232C107.358 36.232 108.918 36.7433 110.183 37.766C111.448 38.7713 112.263 40.184 112.627 42.004H107.219C106.907 41.0507 106.3 40.574 105.399 40.574C104.758 40.574 104.246 40.8427 103.865 41.38C103.501 41.9 103.319 42.6713 103.319 43.694C103.319 44.7167 103.501 45.4967 103.865 46.034C104.246 46.5713 104.758 46.84 105.399 46.84C106.318 46.84 106.924 46.3633 107.219 45.41H112.627C112.263 47.2127 111.448 48.6253 110.183 49.648C108.918 50.6707 107.358 51.182 105.503 51.182C104.064 51.182 102.782 50.8787 101.655 50.272C100.546 49.6653 99.6791 48.7987 99.0551 47.672C98.4311 46.5453 98.1191 45.2193 98.1191 43.694ZM123.87 51L119.84 45.02V51H114.744V31.76H119.84V42.134L123.87 36.414H129.98L124.234 43.746L130.084 51H123.87ZM137.792 51.182C136.475 51.182 135.296 50.9653 134.256 50.532C133.233 50.0813 132.419 49.4747 131.812 48.712C131.223 47.932 130.893 47.0567 130.824 46.086H135.764C135.833 46.554 136.05 46.918 136.414 47.178C136.778 47.438 137.229 47.568 137.766 47.568C138.182 47.568 138.511 47.4813 138.754 47.308C138.997 47.1347 139.118 46.9093 139.118 46.632C139.118 46.268 138.919 45.9993 138.52 45.826C138.121 45.6527 137.463 45.462 136.544 45.254C135.504 45.046 134.637 44.812 133.944 44.552C133.251 44.292 132.644 43.8673 132.124 43.278C131.621 42.6887 131.37 41.8913 131.37 40.886C131.37 40.0193 131.604 39.2393 132.072 38.546C132.54 37.8353 133.225 37.272 134.126 36.856C135.045 36.44 136.145 36.232 137.428 36.232C139.335 36.232 140.834 36.7 141.926 37.636C143.018 38.572 143.651 39.8027 143.824 41.328H139.222C139.135 40.86 138.927 40.5047 138.598 40.262C138.286 40.002 137.861 39.872 137.324 39.872C136.908 39.872 136.587 39.95 136.362 40.106C136.154 40.262 136.05 40.4787 136.05 40.756C136.05 41.1027 136.249 41.3713 136.648 41.562C137.047 41.7353 137.688 41.9173 138.572 42.108C139.629 42.3333 140.505 42.5847 141.198 42.862C141.909 43.1393 142.524 43.59 143.044 44.214C143.581 44.8207 143.85 45.6527 143.85 46.71C143.85 47.5593 143.599 48.322 143.096 48.998C142.611 49.674 141.909 50.2113 140.99 50.61C140.089 50.9913 139.023 51.182 137.792 51.182ZM150.5 43.694C150.5 42.186 150.769 40.8687 151.306 39.742C151.861 38.6153 152.615 37.7487 153.568 37.142C154.521 36.5353 155.579 36.232 156.74 36.232C157.676 36.232 158.508 36.4313 159.236 36.83C159.981 37.2113 160.562 37.74 160.978 38.416V31.76H166.1V51H160.978V48.972C160.579 49.648 160.016 50.1853 159.288 50.584C158.56 50.9827 157.702 51.182 156.714 51.182C155.553 51.182 154.495 50.8787 153.542 50.272C152.606 49.6653 151.861 48.7987 151.306 47.672C150.769 46.528 150.5 45.202 150.5 43.694ZM161.004 43.694C161.004 42.758 160.744 42.0213 160.224 41.484C159.721 40.9467 159.097 40.678 158.352 40.678C157.589 40.678 156.957 40.9467 156.454 41.484C155.951 42.004 155.7 42.7407 155.7 43.694C155.7 44.63 155.951 45.3753 156.454 45.93C156.957 46.4673 157.589 46.736 158.352 46.736C159.097 46.736 159.721 46.4673 160.224 45.93C160.744 45.3927 161.004 44.6473 161.004 43.694ZM182.94 43.538C182.94 43.9367 182.914 44.3353 182.862 44.734H173.216C173.268 45.5313 173.485 46.1293 173.866 46.528C174.265 46.9093 174.767 47.1 175.374 47.1C176.223 47.1 176.83 46.7187 177.194 45.956H182.628C182.403 46.9613 181.961 47.8627 181.302 48.66C180.661 49.44 179.846 50.0553 178.858 50.506C177.87 50.9567 176.778 51.182 175.582 51.182C174.143 51.182 172.861 50.8787 171.734 50.272C170.625 49.6653 169.749 48.7987 169.108 47.672C168.484 46.5453 168.172 45.2193 168.172 43.694C168.172 42.1687 168.484 40.8513 169.108 39.742C169.732 38.6153 170.599 37.7487 171.708 37.142C172.835 36.5353 174.126 36.232 175.582 36.232C177.021 36.232 178.295 36.5267 179.404 37.116C180.513 37.7053 181.38 38.5547 182.004 39.664C182.628 40.756 182.94 42.0473 182.94 43.538ZM177.74 42.264C177.74 41.64 177.532 41.1547 177.116 40.808C176.7 40.444 176.18 40.262 175.556 40.262C174.932 40.262 174.421 40.4353 174.022 40.782C173.623 41.1113 173.363 41.6053 173.242 42.264H177.74ZM76.3223 79.652H74.0343V90H68.9123V79.652H67.3263V75.414H68.9123V75.284C68.9123 73.412 69.4583 71.982 70.5503 70.994C71.6596 69.9887 73.2456 69.486 75.3083 69.486C75.7243 69.486 76.0449 69.4947 76.2703 69.512V73.854C76.1316 73.8367 75.9409 73.828 75.6983 73.828C75.1436 73.828 74.7363 73.958 74.4763 74.218C74.2163 74.4607 74.0689 74.8593 74.0343 75.414H76.3223V79.652ZM83.2395 77.988C83.8115 77.156 84.5048 76.4973 85.3195 76.012C86.1342 75.5267 87.0095 75.284 87.9455 75.284V80.718H86.5155C85.4062 80.718 84.5828 80.9347 84.0455 81.368C83.5082 81.8013 83.2395 82.5553 83.2395 83.63V90H78.1435V75.414H83.2395V77.988ZM88.9404 82.694C88.9404 81.186 89.2091 79.8687 89.7464 78.742C90.3011 77.6153 91.0464 76.7487 91.9824 76.142C92.9357 75.5353 93.9931 75.232 95.1544 75.232C96.1597 75.232 97.0264 75.4313 97.7544 75.83C98.4824 76.2287 99.0457 76.766 99.4444 77.442V75.414H104.54V90H99.4444V87.972C99.0457 88.648 98.4737 89.1853 97.7284 89.584C97.0004 89.9827 96.1424 90.182 95.1544 90.182C93.9931 90.182 92.9357 89.8787 91.9824 89.272C91.0464 88.6653 90.3011 87.7987 89.7464 86.672C89.2091 85.528 88.9404 84.202 88.9404 82.694ZM99.4444 82.694C99.4444 81.758 99.1844 81.0213 98.6644 80.484C98.1617 79.9467 97.5377 79.678 96.7924 79.678C96.0297 79.678 95.3971 79.9467 94.8944 80.484C94.3917 81.004 94.1404 81.7407 94.1404 82.694C94.1404 83.63 94.3917 84.3753 94.8944 84.93C95.3971 85.4673 96.0297 85.736 96.7924 85.736C97.5377 85.736 98.1617 85.4673 98.6644 84.93C99.1844 84.3927 99.4444 83.6473 99.4444 82.694ZM116.986 75.284C118.668 75.284 120.002 75.8473 120.99 76.974C121.978 78.0833 122.472 79.5913 122.472 81.498V90H117.376V82.174C117.376 81.342 117.16 80.692 116.726 80.224C116.293 79.7387 115.712 79.496 114.984 79.496C114.222 79.496 113.624 79.7387 113.19 80.224C112.757 80.692 112.54 81.342 112.54 82.174V90H107.444V75.414H112.54V77.494C112.991 76.8353 113.598 76.3067 114.36 75.908C115.123 75.492 115.998 75.284 116.986 75.284ZM130.651 75.232C131.639 75.232 132.497 75.4313 133.225 75.83C133.97 76.2287 134.542 76.766 134.941 77.442V75.414H140.037V89.844C140.037 91.2133 139.777 92.444 139.257 93.536C138.737 94.6453 137.922 95.5293 136.812 96.188C135.721 96.8467 134.334 97.176 132.653 97.176C130.399 97.176 128.597 96.6473 127.244 95.59C125.893 94.5327 125.121 93.094 124.931 91.274H129.949C130.053 91.742 130.313 92.106 130.729 92.366C131.145 92.626 131.682 92.756 132.341 92.756C134.074 92.756 134.941 91.7853 134.941 89.844V87.972C134.542 88.648 133.97 89.1853 133.225 89.584C132.497 89.9827 131.639 90.182 130.651 90.182C129.489 90.182 128.432 89.8787 127.479 89.272C126.543 88.6653 125.797 87.7987 125.243 86.672C124.705 85.528 124.437 84.202 124.437 82.694C124.437 81.186 124.705 79.8687 125.243 78.742C125.797 77.6153 126.543 76.7487 127.479 76.142C128.432 75.5353 129.489 75.232 130.651 75.232ZM134.941 82.694C134.941 81.758 134.681 81.0213 134.161 80.484C133.658 79.9467 133.034 79.678 132.289 79.678C131.526 79.678 130.893 79.9467 130.391 80.484C129.888 81.004 129.637 81.7407 129.637 82.694C129.637 83.63 129.888 84.3753 130.391 84.93C130.893 85.4673 131.526 85.736 132.289 85.736C133.034 85.736 133.658 85.4673 134.161 84.93C134.681 84.3927 134.941 83.6473 134.941 82.694ZM149.726 90.182C148.27 90.182 146.962 89.8787 145.8 89.272C144.656 88.6653 143.755 87.7987 143.096 86.672C142.438 85.5453 142.108 84.2193 142.108 82.694C142.108 81.186 142.438 79.8687 143.096 78.742C143.772 77.6153 144.682 76.7487 145.826 76.142C146.988 75.5353 148.296 75.232 149.752 75.232C151.208 75.232 152.508 75.5353 153.652 76.142C154.814 76.7487 155.724 77.6153 156.382 78.742C157.058 79.8687 157.396 81.186 157.396 82.694C157.396 84.202 157.058 85.528 156.382 86.672C155.724 87.7987 154.814 88.6653 153.652 89.272C152.491 89.8787 151.182 90.182 149.726 90.182ZM149.726 85.762C150.437 85.762 151.026 85.502 151.494 84.982C151.98 84.4447 152.222 83.682 152.222 82.694C152.222 81.706 151.98 80.952 151.494 80.432C151.026 79.912 150.446 79.652 149.752 79.652C149.059 79.652 148.478 79.912 148.01 80.432C147.542 80.952 147.308 81.706 147.308 82.694C147.308 83.6993 147.534 84.462 147.984 84.982C148.435 85.502 149.016 85.762 149.726 85.762ZM178.382 82.538C178.382 82.9367 178.356 83.3353 178.304 83.734H168.658C168.71 84.5313 168.927 85.1293 169.308 85.528C169.707 85.9093 170.21 86.1 170.816 86.1C171.666 86.1 172.272 85.7187 172.636 84.956H178.07C177.845 85.9613 177.403 86.8627 176.744 87.66C176.103 88.44 175.288 89.0553 174.3 89.506C173.312 89.9567 172.22 90.182 171.024 90.182C169.586 90.182 168.303 89.8787 167.176 89.272C166.067 88.6653 165.192 87.7987 164.55 86.672C163.926 85.5453 163.614 84.2193 163.614 82.694C163.614 81.1687 163.926 79.8513 164.55 78.742C165.174 77.6153 166.041 76.7487 167.15 76.142C168.277 75.5353 169.568 75.232 171.024 75.232C172.463 75.232 173.737 75.5267 174.846 76.116C175.956 76.7053 176.822 77.5547 177.446 78.664C178.07 79.756 178.382 81.0473 178.382 82.538ZM173.182 81.264C173.182 80.64 172.974 80.1547 172.558 79.808C172.142 79.444 171.622 79.262 170.998 79.262C170.374 79.262 169.863 79.4353 169.464 79.782C169.066 80.1113 168.806 80.6053 168.684 81.264H173.182ZM47.7688 116.442C48.1675 115.749 48.7308 115.211 49.4588 114.83C50.1868 114.431 51.0448 114.232 52.0328 114.232C53.1941 114.232 54.2428 114.535 55.1788 115.142C56.1321 115.749 56.8775 116.615 57.4148 117.742C57.9695 118.869 58.2468 120.186 58.2468 121.694C58.2468 123.202 57.9695 124.528 57.4148 125.672C56.8775 126.799 56.1321 127.665 55.1788 128.272C54.2428 128.879 53.1941 129.182 52.0328 129.182C51.0448 129.182 50.1868 128.991 49.4588 128.61C48.7308 128.211 48.1675 127.665 47.7688 126.972V129H42.6728V109.76H47.7688V116.442ZM53.0728 121.694C53.0728 120.741 52.8128 120.004 52.2928 119.484C51.7901 118.947 51.1661 118.678 50.4208 118.678C49.6755 118.678 49.0428 118.947 48.5228 119.484C48.0201 120.021 47.7688 120.758 47.7688 121.694C47.7688 122.647 48.0201 123.393 48.5228 123.93C49.0428 124.467 49.6755 124.736 50.4208 124.736C51.1661 124.736 51.7901 124.467 52.2928 123.93C52.8128 123.375 53.0728 122.63 53.0728 121.694ZM59.5127 121.694C59.5127 120.186 59.7813 118.869 60.3187 117.742C60.8733 116.615 61.6187 115.749 62.5547 115.142C63.508 114.535 64.5653 114.232 65.7267 114.232C66.732 114.232 67.5987 114.431 68.3267 114.83C69.0547 115.229 69.618 115.766 70.0167 116.442V114.414H75.1127V129H70.0167V126.972C69.618 127.648 69.046 128.185 68.3007 128.584C67.5727 128.983 66.7147 129.182 65.7267 129.182C64.5653 129.182 63.508 128.879 62.5547 128.272C61.6187 127.665 60.8733 126.799 60.3187 125.672C59.7813 124.528 59.5127 123.202 59.5127 121.694ZM70.0167 121.694C70.0167 120.758 69.7567 120.021 69.2367 119.484C68.734 118.947 68.11 118.678 67.3647 118.678C66.602 118.678 65.9693 118.947 65.4667 119.484C64.964 120.004 64.7127 120.741 64.7127 121.694C64.7127 122.63 64.964 123.375 65.4667 123.93C65.9693 124.467 66.602 124.736 67.3647 124.736C68.11 124.736 68.734 124.467 69.2367 123.93C69.7567 123.393 70.0167 122.647 70.0167 121.694ZM86.6225 124.658V129H84.4125C80.6859 129 78.8225 127.154 78.8225 123.462V118.652H77.0285V114.414H78.8225V110.878H83.9445V114.414H86.5965V118.652H83.9445V123.54C83.9445 123.939 84.0312 124.225 84.2045 124.398C84.3952 124.571 84.7072 124.658 85.1405 124.658H86.6225ZM88.1279 121.694C88.1279 120.186 88.3966 118.869 88.9339 117.742C89.4886 116.615 90.2339 115.749 91.1699 115.142C92.1232 114.535 93.1806 114.232 94.3419 114.232C95.3472 114.232 96.2139 114.431 96.9419 114.83C97.6699 115.229 98.2332 115.766 98.6319 116.442V114.414H103.728V129H98.6319V126.972C98.2332 127.648 97.6612 128.185 96.9159 128.584C96.1879 128.983 95.3299 129.182 94.3419 129.182C93.1806 129.182 92.1232 128.879 91.1699 128.272C90.2339 127.665 89.4886 126.799 88.9339 125.672C88.3966 124.528 88.1279 123.202 88.1279 121.694ZM98.6319 121.694C98.6319 120.758 98.3719 120.021 97.8519 119.484C97.3492 118.947 96.7252 118.678 95.9799 118.678C95.2172 118.678 94.5846 118.947 94.0819 119.484C93.5792 120.004 93.3279 120.741 93.3279 121.694C93.3279 122.63 93.5792 123.375 94.0819 123.93C94.5846 124.467 95.2172 124.736 95.9799 124.736C96.7252 124.736 97.3492 124.467 97.8519 123.93C98.3719 123.393 98.6319 122.647 98.6319 121.694ZM115.238 124.658V129H113.028C109.301 129 107.438 127.154 107.438 123.462V118.652H105.644V114.414H107.438V110.878H112.56V114.414H115.212V118.652H112.56V123.54C112.56 123.939 112.646 124.225 112.82 124.398C113.01 124.571 113.322 124.658 113.756 124.658H115.238ZM116.743 121.694C116.743 120.186 117.012 118.869 117.549 117.742C118.104 116.615 118.849 115.749 119.785 115.142C120.738 114.535 121.796 114.232 122.957 114.232C123.962 114.232 124.829 114.431 125.557 114.83C126.285 115.229 126.848 115.766 127.247 116.442V114.414H132.343V129H127.247V126.972C126.848 127.648 126.276 128.185 125.531 128.584C124.803 128.983 123.945 129.182 122.957 129.182C121.796 129.182 120.738 128.879 119.785 128.272C118.849 127.665 118.104 126.799 117.549 125.672C117.012 124.528 116.743 123.202 116.743 121.694ZM127.247 121.694C127.247 120.758 126.987 120.021 126.467 119.484C125.964 118.947 125.34 118.678 124.595 118.678C123.832 118.678 123.2 118.947 122.697 119.484C122.194 120.004 121.943 120.741 121.943 121.694C121.943 122.63 122.194 123.375 122.697 123.93C123.2 124.467 123.832 124.736 124.595 124.736C125.34 124.736 125.964 124.467 126.467 123.93C126.987 123.393 127.247 122.647 127.247 121.694ZM139.392 121.694C139.392 120.186 139.66 118.869 140.198 117.742C140.752 116.615 141.506 115.749 142.46 115.142C143.413 114.535 144.47 114.232 145.632 114.232C146.568 114.232 147.4 114.431 148.128 114.83C148.873 115.211 149.454 115.74 149.87 116.416V109.76H154.992V129H149.87V126.972C149.471 127.648 148.908 128.185 148.18 128.584C147.452 128.983 146.594 129.182 145.606 129.182C144.444 129.182 143.387 128.879 142.434 128.272C141.498 127.665 140.752 126.799 140.198 125.672C139.66 124.528 139.392 123.202 139.392 121.694ZM149.896 121.694C149.896 120.758 149.636 120.021 149.116 119.484C148.613 118.947 147.989 118.678 147.244 118.678C146.481 118.678 145.848 118.947 145.346 119.484C144.843 120.004 144.592 120.741 144.592 121.694C144.592 122.63 144.843 123.375 145.346 123.93C145.848 124.467 146.481 124.736 147.244 124.736C147.989 124.736 148.613 124.467 149.116 123.93C149.636 123.393 149.896 122.647 149.896 121.694ZM164.681 129.182C163.225 129.182 161.917 128.879 160.755 128.272C159.611 127.665 158.71 126.799 158.051 125.672C157.393 124.545 157.063 123.219 157.063 121.694C157.063 120.186 157.393 118.869 158.051 117.742C158.727 116.615 159.637 115.749 160.781 115.142C161.943 114.535 163.251 114.232 164.707 114.232C166.163 114.232 167.463 114.535 168.607 115.142C169.769 115.749 170.679 116.615 171.337 117.742C172.013 118.869 172.351 120.186 172.351 121.694C172.351 123.202 172.013 124.528 171.337 125.672C170.679 126.799 169.769 127.665 168.607 128.272C167.446 128.879 166.137 129.182 164.681 129.182ZM164.681 124.762C165.392 124.762 165.981 124.502 166.449 123.982C166.935 123.445 167.177 122.682 167.177 121.694C167.177 120.706 166.935 119.952 166.449 119.432C165.981 118.912 165.401 118.652 164.707 118.652C164.014 118.652 163.433 118.912 162.965 119.432C162.497 119.952 162.263 120.706 162.263 121.694C162.263 122.699 162.489 123.462 162.939 123.982C163.39 124.502 163.971 124.762 164.681 124.762ZM173.593 121.694C173.593 120.186 173.905 118.869 174.529 117.742C175.153 116.615 176.019 115.749 177.129 115.142C178.255 114.535 179.538 114.232 180.977 114.232C182.831 114.232 184.391 114.743 185.657 115.766C186.922 116.771 187.737 118.184 188.101 120.004H182.693C182.381 119.051 181.774 118.574 180.873 118.574C180.231 118.574 179.72 118.843 179.339 119.38C178.975 119.9 178.793 120.671 178.793 121.694C178.793 122.717 178.975 123.497 179.339 124.034C179.72 124.571 180.231 124.84 180.873 124.84C181.791 124.84 182.398 124.363 182.693 123.41H188.101C187.737 125.213 186.922 126.625 185.657 127.648C184.391 128.671 182.831 129.182 180.977 129.182C179.538 129.182 178.255 128.879 177.129 128.272C176.019 127.665 175.153 126.799 174.529 125.672C173.905 124.545 173.593 123.219 173.593 121.694ZM204.154 121.538C204.154 121.937 204.128 122.335 204.076 122.734H194.43C194.482 123.531 194.698 124.129 195.08 124.528C195.478 124.909 195.981 125.1 196.588 125.1C197.437 125.1 198.044 124.719 198.408 123.956H203.842C203.616 124.961 203.174 125.863 202.516 126.66C201.874 127.44 201.06 128.055 200.072 128.506C199.084 128.957 197.992 129.182 196.796 129.182C195.357 129.182 194.074 128.879 192.948 128.272C191.838 127.665 190.963 126.799 190.322 125.672C189.698 124.545 189.386 123.219 189.386 121.694C189.386 120.169 189.698 118.851 190.322 117.742C190.946 116.615 191.812 115.749 192.922 115.142C194.048 114.535 195.34 114.232 196.796 114.232C198.234 114.232 199.508 114.527 200.618 115.116C201.727 115.705 202.594 116.555 203.218 117.664C203.842 118.756 204.154 120.047 204.154 121.538ZM198.954 120.264C198.954 119.64 198.746 119.155 198.33 118.808C197.914 118.444 197.394 118.262 196.77 118.262C196.146 118.262 195.634 118.435 195.236 118.782C194.837 119.111 194.577 119.605 194.456 120.264H198.954Z" fill="#FFEBEB"/>
</svg>
