<svg width="246" height="159" viewBox="0 0 246 159" fill="none" xmlns="http://www.w3.org/2000/svg">
<rect width="246" height="159" rx="15" fill="#F68C64"/>
<path d="M62.8152 59.588C63.8898 59.8307 64.7392 60.368 65.3632 61.2C66.0045 62.0147 66.3252 62.9507 66.3252 64.008C66.3252 65.568 65.7878 66.79 64.7132 67.674C63.6385 68.558 62.1305 69 60.1892 69H51.1152V50.67H59.9032C61.7752 50.67 63.2398 51.086 64.2972 51.918C65.3718 52.75 65.9092 53.92 65.9092 55.428C65.9092 56.5027 65.6232 57.404 65.0512 58.132C64.4965 58.8427 63.7512 59.328 62.8152 59.588ZM56.2112 57.95H58.7852C60.0678 57.95 60.7092 57.4213 60.7092 56.364C60.7092 55.272 60.0678 54.726 58.7852 54.726H56.2112V57.95ZM59.1752 64.892C60.4578 64.892 61.0992 64.3547 61.0992 63.28C61.0992 62.7253 60.9258 62.3007 60.5792 62.006C60.2498 61.7113 59.7732 61.564 59.1492 61.564H56.2112V64.892H59.1752ZM71.1325 53.062C70.2312 53.062 69.5032 52.8193 68.9485 52.334C68.4112 51.8313 68.1425 51.2073 68.1425 50.462C68.1425 49.6993 68.4112 49.0667 68.9485 48.564C69.5032 48.0613 70.2312 47.81 71.1325 47.81C72.0165 47.81 72.7272 48.0613 73.2645 48.564C73.8192 49.0667 74.0965 49.6993 74.0965 50.462C74.0965 51.2073 73.8192 51.8313 73.2645 52.334C72.7272 52.8193 72.0165 53.062 71.1325 53.062ZM73.6545 54.414V69H68.5585V54.414H73.6545ZM82.7706 69.182C81.4533 69.182 80.2746 68.9653 79.2346 68.532C78.2119 68.0813 77.3973 67.4747 76.7906 66.712C76.2013 65.932 75.8719 65.0567 75.8026 64.086H80.7426C80.8119 64.554 81.0286 64.918 81.3926 65.178C81.7566 65.438 82.2073 65.568 82.7446 65.568C83.1606 65.568 83.4899 65.4813 83.7326 65.308C83.9753 65.1347 84.0966 64.9093 84.0966 64.632C84.0966 64.268 83.8973 63.9993 83.4986 63.826C83.0999 63.6527 82.4413 63.462 81.5226 63.254C80.4826 63.046 79.6159 62.812 78.9226 62.552C78.2293 62.292 77.6226 61.8673 77.1026 61.278C76.5999 60.6887 76.3486 59.8913 76.3486 58.886C76.3486 58.0193 76.5826 57.2393 77.0506 56.546C77.5186 55.8353 78.2033 55.272 79.1046 54.856C80.0233 54.44 81.1239 54.232 82.4066 54.232C84.3133 54.232 85.8126 54.7 86.9046 55.636C87.9966 56.572 88.6293 57.8027 88.8026 59.328H84.2006C84.1139 58.86 83.9059 58.5047 83.5766 58.262C83.2646 58.002 82.8399 57.872 82.3026 57.872C81.8866 57.872 81.5659 57.95 81.3406 58.106C81.1326 58.262 81.0286 58.4787 81.0286 58.756C81.0286 59.1027 81.2279 59.3713 81.6266 59.562C82.0253 59.7353 82.6666 59.9173 83.5506 60.108C84.6079 60.3333 85.4833 60.5847 86.1766 60.862C86.8873 61.1393 87.5026 61.59 88.0226 62.214C88.5599 62.8207 88.8286 63.6527 88.8286 64.71C88.8286 65.5593 88.5773 66.322 88.0746 66.998C87.5893 67.674 86.8873 68.2113 85.9686 68.61C85.0673 68.9913 84.0013 69.182 82.7706 69.182ZM90.5019 61.694C90.5019 60.186 90.8139 58.8687 91.4379 57.742C92.0619 56.6153 92.9286 55.7487 94.0379 55.142C95.1646 54.5353 96.4473 54.232 97.8859 54.232C99.7406 54.232 101.301 54.7433 102.566 55.766C103.831 56.7713 104.646 58.184 105.01 60.004H99.6019C99.2899 59.0507 98.6833 58.574 97.7819 58.574C97.1406 58.574 96.6293 58.8427 96.2479 59.38C95.8839 59.9 95.7019 60.6713 95.7019 61.694C95.7019 62.7167 95.8839 63.4967 96.2479 64.034C96.6293 64.5713 97.1406 64.84 97.7819 64.84C98.7006 64.84 99.3073 64.3633 99.6019 63.41H105.01C104.646 65.2127 103.831 66.6253 102.566 67.648C101.301 68.6707 99.7406 69.182 97.8859 69.182C96.4473 69.182 95.1646 68.8787 94.0379 68.272C92.9286 67.6653 92.0619 66.7987 91.4379 65.672C90.8139 64.5453 90.5019 63.2193 90.5019 61.694ZM113.913 69.182C112.457 69.182 111.148 68.8787 109.987 68.272C108.843 67.6653 107.942 66.7987 107.283 65.672C106.624 64.5453 106.295 63.2193 106.295 61.694C106.295 60.186 106.624 58.8687 107.283 57.742C107.959 56.6153 108.869 55.7487 110.013 55.142C111.174 54.5353 112.483 54.232 113.939 54.232C115.395 54.232 116.695 54.5353 117.839 55.142C119 55.7487 119.91 56.6153 120.569 57.742C121.245 58.8687 121.583 60.186 121.583 61.694C121.583 63.202 121.245 64.528 120.569 65.672C119.91 66.7987 119 67.6653 117.839 68.272C116.678 68.8787 115.369 69.182 113.913 69.182ZM113.913 64.762C114.624 64.762 115.213 64.502 115.681 63.982C116.166 63.4447 116.409 62.682 116.409 61.694C116.409 60.706 116.166 59.952 115.681 59.432C115.213 58.912 114.632 58.652 113.939 58.652C113.246 58.652 112.665 58.912 112.197 59.432C111.729 59.952 111.495 60.706 111.495 61.694C111.495 62.6993 111.72 63.462 112.171 63.982C112.622 64.502 113.202 64.762 113.913 64.762ZM126.23 53.062C125.329 53.062 124.601 52.8193 124.046 52.334C123.509 51.8313 123.24 51.2073 123.24 50.462C123.24 49.6993 123.509 49.0667 124.046 48.564C124.601 48.0613 125.329 47.81 126.23 47.81C127.114 47.81 127.825 48.0613 128.362 48.564C128.917 49.0667 129.194 49.6993 129.194 50.462C129.194 51.2073 128.917 51.8313 128.362 52.334C127.825 52.8193 127.114 53.062 126.23 53.062ZM128.752 54.414V69H123.656V54.414H128.752ZM140.26 64.658V69H138.05C134.324 69 132.46 67.154 132.46 63.462V58.652H130.666V54.414H132.46V50.878H137.582V54.414H140.234V58.652H137.582V63.54C137.582 63.9387 137.669 64.2247 137.842 64.398C138.033 64.5713 138.345 64.658 138.778 64.658H140.26ZM149.384 69.182C147.928 69.182 146.619 68.8787 145.458 68.272C144.314 67.6653 143.412 66.7987 142.754 65.672C142.095 64.5453 141.766 63.2193 141.766 61.694C141.766 60.186 142.095 58.8687 142.754 57.742C143.43 56.6153 144.34 55.7487 145.484 55.142C146.645 54.5353 147.954 54.232 149.41 54.232C150.866 54.232 152.166 54.5353 153.31 55.142C154.471 55.7487 155.381 56.6153 156.04 57.742C156.716 58.8687 157.054 60.186 157.054 61.694C157.054 63.202 156.716 64.528 156.04 65.672C155.381 66.7987 154.471 67.6653 153.31 68.272C152.148 68.8787 150.84 69.182 149.384 69.182ZM149.384 64.762C150.094 64.762 150.684 64.502 151.152 63.982C151.637 63.4447 151.88 62.682 151.88 61.694C151.88 60.706 151.637 59.952 151.152 59.432C150.684 58.912 150.103 58.652 149.41 58.652C148.716 58.652 148.136 58.912 147.668 59.432C147.2 59.952 146.966 60.706 146.966 61.694C146.966 62.6993 147.191 63.462 147.642 63.982C148.092 64.502 148.673 64.762 149.384 64.762ZM163.271 61.694C163.271 60.186 163.54 58.8687 164.077 57.742C164.632 56.6153 165.386 55.7487 166.339 55.142C167.293 54.5353 168.35 54.232 169.511 54.232C170.447 54.232 171.279 54.4313 172.007 54.83C172.753 55.2113 173.333 55.74 173.749 56.416V49.76H178.871V69H173.749V66.972C173.351 67.648 172.787 68.1853 172.059 68.584C171.331 68.9827 170.473 69.182 169.485 69.182C168.324 69.182 167.267 68.8787 166.313 68.272C165.377 67.6653 164.632 66.7987 164.077 65.672C163.54 64.528 163.271 63.202 163.271 61.694ZM173.775 61.694C173.775 60.758 173.515 60.0213 172.995 59.484C172.493 58.9467 171.869 58.678 171.123 58.678C170.361 58.678 169.728 58.9467 169.225 59.484C168.723 60.004 168.471 60.7407 168.471 61.694C168.471 62.63 168.723 63.3753 169.225 63.93C169.728 64.4673 170.361 64.736 171.123 64.736C171.869 64.736 172.493 64.4673 172.995 63.93C173.515 63.3927 173.775 62.6473 173.775 61.694ZM195.711 61.538C195.711 61.9367 195.685 62.3353 195.633 62.734H185.987C186.039 63.5313 186.256 64.1293 186.637 64.528C187.036 64.9093 187.539 65.1 188.145 65.1C188.995 65.1 189.601 64.7187 189.965 63.956H195.399C195.174 64.9613 194.732 65.8627 194.073 66.66C193.432 67.44 192.617 68.0553 191.629 68.506C190.641 68.9567 189.549 69.182 188.353 69.182C186.915 69.182 185.632 68.8787 184.505 68.272C183.396 67.6653 182.521 66.7987 181.879 65.672C181.255 64.5453 180.943 63.2193 180.943 61.694C180.943 60.1687 181.255 58.8513 181.879 57.742C182.503 56.6153 183.37 55.7487 184.479 55.142C185.606 54.5353 186.897 54.232 188.353 54.232C189.792 54.232 191.066 54.5267 192.175 55.116C193.285 55.7053 194.151 56.5547 194.775 57.664C195.399 58.756 195.711 60.0473 195.711 61.538ZM190.511 60.264C190.511 59.64 190.303 59.1547 189.887 58.808C189.471 58.444 188.951 58.262 188.327 58.262C187.703 58.262 187.192 58.4353 186.793 58.782C186.395 59.1113 186.135 59.6053 186.013 60.264H190.511ZM79.4698 108.182C78.1525 108.182 76.9738 107.965 75.9338 107.532C74.9111 107.081 74.0965 106.475 73.4898 105.712C72.9005 104.932 72.5711 104.057 72.5018 103.086H77.4418C77.5111 103.554 77.7278 103.918 78.0918 104.178C78.4558 104.438 78.9065 104.568 79.4438 104.568C79.8598 104.568 80.1891 104.481 80.4318 104.308C80.6745 104.135 80.7958 103.909 80.7958 103.632C80.7958 103.268 80.5965 102.999 80.1978 102.826C79.7991 102.653 79.1405 102.462 78.2218 102.254C77.1818 102.046 76.3151 101.812 75.6218 101.552C74.9285 101.292 74.3218 100.867 73.8018 100.278C73.2991 99.6887 73.0478 98.8913 73.0478 97.886C73.0478 97.0193 73.2818 96.2393 73.7498 95.546C74.2178 94.8353 74.9025 94.272 75.8038 93.856C76.7225 93.44 77.8231 93.232 79.1058 93.232C81.0125 93.232 82.5118 93.7 83.6038 94.636C84.6958 95.572 85.3285 96.8027 85.5018 98.328H80.8998C80.8131 97.86 80.6051 97.5047 80.2758 97.262C79.9638 97.002 79.5391 96.872 79.0018 96.872C78.5858 96.872 78.2651 96.95 78.0398 97.106C77.8318 97.262 77.7278 97.4787 77.7278 97.756C77.7278 98.1027 77.9271 98.3713 78.3258 98.562C78.7245 98.7353 79.3658 98.9173 80.2498 99.108C81.3071 99.3333 82.1825 99.5847 82.8758 99.862C83.5865 100.139 84.2018 100.59 84.7218 101.214C85.2591 101.821 85.5278 102.653 85.5278 103.71C85.5278 104.559 85.2765 105.322 84.7738 105.998C84.2885 106.674 83.5865 107.211 82.6678 107.61C81.7665 107.991 80.7005 108.182 79.4698 108.182ZM87.2011 100.694C87.2011 99.186 87.4698 97.8687 88.0071 96.742C88.5618 95.6153 89.3071 94.7487 90.2431 94.142C91.1965 93.5353 92.2538 93.232 93.4151 93.232C94.4205 93.232 95.2871 93.4313 96.0151 93.83C96.7431 94.2287 97.3065 94.766 97.7051 95.442V93.414H102.801V108H97.7051V105.972C97.3065 106.648 96.7345 107.185 95.9891 107.584C95.2611 107.983 94.4031 108.182 93.4151 108.182C92.2538 108.182 91.1965 107.879 90.2431 107.272C89.3071 106.665 88.5618 105.799 88.0071 104.672C87.4698 103.528 87.2011 102.202 87.2011 100.694ZM97.7051 100.694C97.7051 99.758 97.4451 99.0213 96.9251 98.484C96.4225 97.9467 95.7985 97.678 95.0531 97.678C94.2905 97.678 93.6578 97.9467 93.1551 98.484C92.6525 99.004 92.4011 99.7407 92.4011 100.694C92.4011 101.63 92.6525 102.375 93.1551 102.93C93.6578 103.467 94.2905 103.736 95.0531 103.736C95.7985 103.736 96.4225 103.467 96.9251 102.93C97.4451 102.393 97.7051 101.647 97.7051 100.694ZM110.801 88.76V108H105.705V88.76H110.801ZM132.761 93.284C134.598 93.284 136.037 93.8387 137.077 94.948C138.134 96.0573 138.663 97.574 138.663 99.498V108H133.567V100.174C133.567 99.394 133.35 98.7873 132.917 98.354C132.484 97.9207 131.894 97.704 131.149 97.704C130.404 97.704 129.814 97.9207 129.381 98.354C128.948 98.7873 128.731 99.394 128.731 100.174V108H123.635V100.174C123.635 99.394 123.418 98.7873 122.985 98.354C122.569 97.9207 121.988 97.704 121.243 97.704C120.48 97.704 119.882 97.9207 119.449 98.354C119.016 98.7873 118.799 99.394 118.799 100.174V108H113.703V93.414H118.799V95.338C119.25 94.714 119.83 94.22 120.541 93.856C121.269 93.4747 122.101 93.284 123.037 93.284C124.112 93.284 125.065 93.518 125.897 93.986C126.746 94.454 127.414 95.1127 127.899 95.962C128.419 95.1647 129.104 94.5233 129.953 94.038C130.802 93.5353 131.738 93.284 132.761 93.284ZM140.623 100.694C140.623 99.186 140.892 97.8687 141.429 96.742C141.984 95.6153 142.729 94.7487 143.665 94.142C144.618 93.5353 145.676 93.232 146.837 93.232C147.842 93.232 148.709 93.4313 149.437 93.83C150.165 94.2287 150.728 94.766 151.127 95.442V93.414H156.223V108H151.127V105.972C150.728 106.648 150.156 107.185 149.411 107.584C148.683 107.983 147.825 108.182 146.837 108.182C145.676 108.182 144.618 107.879 143.665 107.272C142.729 106.665 141.984 105.799 141.429 104.672C140.892 103.528 140.623 102.202 140.623 100.694ZM151.127 100.694C151.127 99.758 150.867 99.0213 150.347 98.484C149.844 97.9467 149.22 97.678 148.475 97.678C147.712 97.678 147.08 97.9467 146.577 98.484C146.074 99.004 145.823 99.7407 145.823 100.694C145.823 101.63 146.074 102.375 146.577 102.93C147.08 103.467 147.712 103.736 148.475 103.736C149.22 103.736 149.844 103.467 150.347 102.93C150.867 102.393 151.127 101.647 151.127 100.694ZM143.301 92.322C143.786 89.4967 145.086 88.084 147.201 88.084C147.6 88.084 147.955 88.1447 148.267 88.266C148.596 88.3873 148.969 88.5607 149.385 88.786C149.68 88.942 149.931 89.0633 150.139 89.15C150.347 89.2367 150.555 89.28 150.763 89.28C151.404 89.28 151.786 88.8813 151.907 88.084H154.481C154.238 89.5573 153.779 90.632 153.103 91.308C152.444 91.9667 151.604 92.296 150.581 92.296C150.2 92.296 149.853 92.244 149.541 92.14C149.229 92.0187 148.848 91.8453 148.397 91.62C148.102 91.464 147.851 91.3427 147.643 91.256C147.435 91.1693 147.227 91.126 147.019 91.126C146.395 91.126 146.005 91.5247 145.849 92.322H143.301ZM165.913 108.182C164.457 108.182 163.148 107.879 161.987 107.272C160.843 106.665 159.942 105.799 159.283 104.672C158.624 103.545 158.295 102.219 158.295 100.694C158.295 99.186 158.624 97.8687 159.283 96.742C159.959 95.6153 160.869 94.7487 162.013 94.142C163.174 93.5353 164.483 93.232 165.939 93.232C167.395 93.232 168.695 93.5353 169.839 94.142C171 94.7487 171.91 95.6153 172.569 96.742C173.245 97.8687 173.583 99.186 173.583 100.694C173.583 102.202 173.245 103.528 172.569 104.672C171.91 105.799 171 106.665 169.839 107.272C168.678 107.879 167.369 108.182 165.913 108.182ZM165.913 103.762C166.624 103.762 167.213 103.502 167.681 102.982C168.166 102.445 168.409 101.682 168.409 100.694C168.409 99.706 168.166 98.952 167.681 98.432C167.213 97.912 166.632 97.652 165.939 97.652C165.246 97.652 164.665 97.912 164.197 98.432C163.729 98.952 163.495 99.706 163.495 100.694C163.495 101.699 163.72 102.462 164.171 102.982C164.622 103.502 165.202 103.762 165.913 103.762Z" fill="#FFEBEB"/>
</svg>
