<svg width="246" height="159" viewBox="0 0 246 159" fill="none" xmlns="http://www.w3.org/2000/svg">
<rect width="246" height="159" rx="15" fill="#F68C64"/>
<path d="M70.3071 56.78C70.3071 57.8893 70.0471 58.9033 69.5271 59.822C69.0245 60.7233 68.2531 61.4513 67.2131 62.006C66.1905 62.5433 64.9338 62.812 63.4431 62.812H60.9211V69H55.8251V50.67H63.4431C64.9165 50.67 66.1645 50.93 67.1871 51.45C68.2271 51.97 69.0071 52.6893 69.5271 53.608C70.0471 54.5267 70.3071 55.584 70.3071 56.78ZM62.9491 58.756C64.3878 58.756 65.1071 58.0973 65.1071 56.78C65.1071 55.4453 64.3878 54.778 62.9491 54.778H60.9211V58.756H62.9491ZM86.2904 61.538C86.2904 61.9367 86.2644 62.3353 86.2124 62.734H76.5664C76.6184 63.5313 76.8351 64.1293 77.2164 64.528C77.6151 64.9093 78.1178 65.1 78.7244 65.1C79.5738 65.1 80.1804 64.7187 80.5444 63.956H85.9784C85.7531 64.9613 85.3111 65.8627 84.6524 66.66C84.0111 67.44 83.1964 68.0553 82.2084 68.506C81.2204 68.9567 80.1284 69.182 78.9324 69.182C77.4938 69.182 76.2111 68.8787 75.0844 68.272C73.9751 67.6653 73.0998 66.7987 72.4584 65.672C71.8344 64.5453 71.5224 63.2193 71.5224 61.694C71.5224 60.1687 71.8344 58.8513 72.4584 57.742C73.0824 56.6153 73.9491 55.7487 75.0584 55.142C76.1851 54.5353 77.4764 54.232 78.9324 54.232C80.3711 54.232 81.6451 54.5267 82.7544 55.116C83.8638 55.7053 84.7304 56.5547 85.3544 57.664C85.9784 58.756 86.2904 60.0473 86.2904 61.538ZM81.0904 60.264C81.0904 59.64 80.8824 59.1547 80.4664 58.808C80.0504 58.444 79.5304 58.262 78.9064 58.262C78.2824 58.262 77.7711 58.4353 77.3724 58.782C76.9738 59.1113 76.7138 59.6053 76.5924 60.264H81.0904ZM96.9819 64.658V69H94.7719C91.0453 69 89.1819 67.154 89.1819 63.462V58.652H87.3879V54.414H89.1819V50.878H94.3039V54.414H96.9559V58.652H94.3039V63.54C94.3039 63.9387 94.3906 64.2247 94.5639 64.398C94.7546 64.5713 95.0666 64.658 95.4999 64.658H96.9819ZM101.893 53.062C100.992 53.062 100.264 52.8193 99.7093 52.334C99.1719 51.8313 98.9033 51.2073 98.9033 50.462C98.9033 49.6993 99.1719 49.0667 99.7093 48.564C100.264 48.0613 100.992 47.81 101.893 47.81C102.777 47.81 103.488 48.0613 104.025 48.564C104.58 49.0667 104.857 49.6993 104.857 50.462C104.857 51.2073 104.58 51.8313 104.025 52.334C103.488 52.8193 102.777 53.062 101.893 53.062ZM104.415 54.414V69H99.3193V54.414H104.415ZM113.531 69.182C112.214 69.182 111.035 68.9653 109.995 68.532C108.973 68.0813 108.158 67.4747 107.551 66.712C106.962 65.932 106.633 65.0567 106.563 64.086H111.503C111.573 64.554 111.789 64.918 112.153 65.178C112.517 65.438 112.968 65.568 113.505 65.568C113.921 65.568 114.251 65.4813 114.493 65.308C114.736 65.1347 114.857 64.9093 114.857 64.632C114.857 64.268 114.658 63.9993 114.259 63.826C113.861 63.6527 113.202 63.462 112.283 63.254C111.243 63.046 110.377 62.812 109.683 62.552C108.99 62.292 108.383 61.8673 107.863 61.278C107.361 60.6887 107.109 59.8913 107.109 58.886C107.109 58.0193 107.343 57.2393 107.811 56.546C108.279 55.8353 108.964 55.272 109.865 54.856C110.784 54.44 111.885 54.232 113.167 54.232C115.074 54.232 116.573 54.7 117.665 55.636C118.757 56.572 119.39 57.8027 119.563 59.328H114.961C114.875 58.86 114.667 58.5047 114.337 58.262C114.025 58.002 113.601 57.872 113.063 57.872C112.647 57.872 112.327 57.95 112.101 58.106C111.893 58.262 111.789 58.4787 111.789 58.756C111.789 59.1027 111.989 59.3713 112.387 59.562C112.786 59.7353 113.427 59.9173 114.311 60.108C115.369 60.3333 116.244 60.5847 116.937 60.862C117.648 61.1393 118.263 61.59 118.783 62.214C119.321 62.8207 119.589 63.6527 119.589 64.71C119.589 65.5593 119.338 66.322 118.835 66.998C118.35 67.674 117.648 68.2113 116.729 68.61C115.828 68.9913 114.762 69.182 113.531 69.182ZM121.263 61.694C121.263 60.186 121.575 58.8687 122.199 57.742C122.823 56.6153 123.689 55.7487 124.799 55.142C125.925 54.5353 127.208 54.232 128.647 54.232C130.501 54.232 132.061 54.7433 133.327 55.766C134.592 56.7713 135.407 58.184 135.771 60.004H130.363C130.051 59.0507 129.444 58.574 128.543 58.574C127.901 58.574 127.39 58.8427 127.009 59.38C126.645 59.9 126.463 60.6713 126.463 61.694C126.463 62.7167 126.645 63.4967 127.009 64.034C127.39 64.5713 127.901 64.84 128.543 64.84C129.461 64.84 130.068 64.3633 130.363 63.41H135.771C135.407 65.2127 134.592 66.6253 133.327 67.648C132.061 68.6707 130.501 69.182 128.647 69.182C127.208 69.182 125.925 68.8787 124.799 68.272C123.689 67.6653 122.823 66.7987 122.199 65.672C121.575 64.5453 121.263 63.2193 121.263 61.694ZM144.674 69.182C143.218 69.182 141.909 68.8787 140.748 68.272C139.604 67.6653 138.702 66.7987 138.044 65.672C137.385 64.5453 137.056 63.2193 137.056 61.694C137.056 60.186 137.385 58.8687 138.044 57.742C138.72 56.6153 139.63 55.7487 140.774 55.142C141.935 54.5353 143.244 54.232 144.7 54.232C146.156 54.232 147.456 54.5353 148.6 55.142C149.761 55.7487 150.671 56.6153 151.33 57.742C152.006 58.8687 152.344 60.186 152.344 61.694C152.344 63.202 152.006 64.528 151.33 65.672C150.671 66.7987 149.761 67.6653 148.6 68.272C147.438 68.8787 146.13 69.182 144.674 69.182ZM144.674 64.762C145.384 64.762 145.974 64.502 146.442 63.982C146.927 63.4447 147.17 62.682 147.17 61.694C147.17 60.706 146.927 59.952 146.442 59.432C145.974 58.912 145.393 58.652 144.7 58.652C144.006 58.652 143.426 58.912 142.958 59.432C142.49 59.952 142.256 60.706 142.256 61.694C142.256 62.6993 142.481 63.462 142.932 63.982C143.382 64.502 143.963 64.762 144.674 64.762ZM158.562 61.694C158.562 60.186 158.83 58.8687 159.368 57.742C159.922 56.6153 160.676 55.7487 161.63 55.142C162.583 54.5353 163.64 54.232 164.801 54.232C165.738 54.232 166.57 54.4313 167.298 54.83C168.043 55.2113 168.624 55.74 169.04 56.416V49.76H174.162V69H169.04V66.972C168.641 67.648 168.078 68.1853 167.35 68.584C166.622 68.9827 165.764 69.182 164.776 69.182C163.614 69.182 162.557 68.8787 161.604 68.272C160.668 67.6653 159.922 66.7987 159.368 65.672C158.83 64.528 158.562 63.202 158.562 61.694ZM169.066 61.694C169.066 60.758 168.806 60.0213 168.286 59.484C167.783 58.9467 167.159 58.678 166.414 58.678C165.651 58.678 165.018 58.9467 164.516 59.484C164.013 60.004 163.762 60.7407 163.762 61.694C163.762 62.63 164.013 63.3753 164.516 63.93C165.018 64.4673 165.651 64.736 166.414 64.736C167.159 64.736 167.783 64.4673 168.286 63.93C168.806 63.3927 169.066 62.6473 169.066 61.694ZM191.001 61.538C191.001 61.9367 190.975 62.3353 190.923 62.734H181.277C181.329 63.5313 181.546 64.1293 181.927 64.528C182.326 64.9093 182.829 65.1 183.435 65.1C184.285 65.1 184.891 64.7187 185.255 63.956H190.689C190.464 64.9613 190.022 65.8627 189.363 66.66C188.722 67.44 187.907 68.0553 186.919 68.506C185.931 68.9567 184.839 69.182 183.643 69.182C182.205 69.182 180.922 68.8787 179.795 68.272C178.686 67.6653 177.811 66.7987 177.169 65.672C176.545 64.5453 176.233 63.2193 176.233 61.694C176.233 60.1687 176.545 58.8513 177.169 57.742C177.793 56.6153 178.66 55.7487 179.769 55.142C180.896 54.5353 182.187 54.232 183.643 54.232C185.082 54.232 186.356 54.5267 187.465 55.116C188.575 55.7053 189.441 56.5547 190.065 57.664C190.689 58.756 191.001 60.0473 191.001 61.538ZM185.801 60.264C185.801 59.64 185.593 59.1547 185.177 58.808C184.761 58.444 184.241 58.262 183.617 58.262C182.993 58.262 182.482 58.4353 182.083 58.782C181.685 59.1113 181.425 59.6053 181.303 60.264H185.801ZM80.7103 93.284C82.5476 93.284 83.9863 93.8387 85.0263 94.948C86.0836 96.0573 86.6123 97.574 86.6123 99.498V108H81.5163V100.174C81.5163 99.394 81.2996 98.7873 80.8663 98.354C80.433 97.9207 79.8436 97.704 79.0983 97.704C78.353 97.704 77.7636 97.9207 77.3303 98.354C76.897 98.7873 76.6803 99.394 76.6803 100.174V108H71.5843V100.174C71.5843 99.394 71.3676 98.7873 70.9343 98.354C70.5183 97.9207 69.9376 97.704 69.1923 97.704C68.4296 97.704 67.8316 97.9207 67.3983 98.354C66.965 98.7873 66.7483 99.394 66.7483 100.174V108H61.6523V93.414H66.7483V95.338C67.199 94.714 67.7796 94.22 68.4903 93.856C69.2183 93.4747 70.0503 93.284 70.9863 93.284C72.061 93.284 73.0143 93.518 73.8463 93.986C74.6956 94.454 75.363 95.1127 75.8483 95.962C76.3683 95.1647 77.053 94.5233 77.9023 94.038C78.7516 93.5353 79.6876 93.284 80.7103 93.284ZM96.1902 108.182C94.7342 108.182 93.4256 107.879 92.2642 107.272C91.1202 106.665 90.2189 105.799 89.5602 104.672C88.9016 103.545 88.5722 102.219 88.5722 100.694C88.5722 99.186 88.9016 97.8687 89.5602 96.742C90.2362 95.6153 91.1462 94.7487 92.2902 94.142C93.4516 93.5353 94.7602 93.232 96.2162 93.232C97.6722 93.232 98.9722 93.5353 100.116 94.142C101.278 94.7487 102.188 95.6153 102.846 96.742C103.522 97.8687 103.86 99.186 103.86 100.694C103.86 102.202 103.522 103.528 102.846 104.672C102.188 105.799 101.278 106.665 100.116 107.272C98.9549 107.879 97.6462 108.182 96.1902 108.182ZM96.1902 103.762C96.9009 103.762 97.4902 103.502 97.9582 102.982C98.4436 102.445 98.6862 101.682 98.6862 100.694C98.6862 99.706 98.4436 98.952 97.9582 98.432C97.4902 97.912 96.9096 97.652 96.2162 97.652C95.5229 97.652 94.9422 97.912 94.4742 98.432C94.0062 98.952 93.7722 99.706 93.7722 100.694C93.7722 101.699 93.9976 102.462 94.4482 102.982C94.8989 103.502 95.4796 103.762 96.1902 103.762ZM111.03 95.988C111.602 95.156 112.295 94.4973 113.11 94.012C113.924 93.5267 114.8 93.284 115.736 93.284V98.718H114.306C113.196 98.718 112.373 98.9347 111.836 99.368C111.298 99.8013 111.03 100.555 111.03 101.63V108H105.934V93.414H111.03V95.988ZM116.73 100.694C116.73 99.186 116.999 97.8687 117.536 96.742C118.091 95.6153 118.836 94.7487 119.772 94.142C120.726 93.5353 121.783 93.232 122.944 93.232C123.95 93.232 124.816 93.4313 125.544 93.83C126.272 94.2287 126.836 94.766 127.234 95.442V93.414H132.33V108H127.234V105.972C126.836 106.648 126.264 107.185 125.518 107.584C124.79 107.983 123.932 108.182 122.944 108.182C121.783 108.182 120.726 107.879 119.772 107.272C118.836 106.665 118.091 105.799 117.536 104.672C116.999 103.528 116.73 102.202 116.73 100.694ZM127.234 100.694C127.234 99.758 126.974 99.0213 126.454 98.484C125.952 97.9467 125.328 97.678 124.582 97.678C123.82 97.678 123.187 97.9467 122.684 98.484C122.182 99.004 121.93 99.7407 121.93 100.694C121.93 101.63 122.182 102.375 122.684 102.93C123.187 103.467 123.82 103.736 124.582 103.736C125.328 103.736 125.952 103.467 126.454 102.93C126.974 102.393 127.234 101.647 127.234 100.694ZM144.776 93.284C146.458 93.284 147.792 93.8473 148.78 94.974C149.768 96.0833 150.262 97.5913 150.262 99.498V108H145.166V100.174C145.166 99.342 144.95 98.692 144.516 98.224C144.083 97.7387 143.502 97.496 142.774 97.496C142.012 97.496 141.414 97.7387 140.98 98.224C140.547 98.692 140.33 99.342 140.33 100.174V108H135.234V93.414H140.33V95.494C140.781 94.8353 141.388 94.3067 142.15 93.908C142.913 93.492 143.788 93.284 144.776 93.284ZM158.441 93.232C159.429 93.232 160.287 93.4313 161.015 93.83C161.76 94.2287 162.332 94.766 162.731 95.442V93.414H167.827V107.844C167.827 109.213 167.567 110.444 167.047 111.536C166.527 112.645 165.712 113.529 164.603 114.188C163.511 114.847 162.124 115.176 160.443 115.176C158.189 115.176 156.387 114.647 155.035 113.59C153.683 112.533 152.911 111.094 152.721 109.274H157.739C157.843 109.742 158.103 110.106 158.519 110.366C158.935 110.626 159.472 110.756 160.131 110.756C161.864 110.756 162.731 109.785 162.731 107.844V105.972C162.332 106.648 161.76 107.185 161.015 107.584C160.287 107.983 159.429 108.182 158.441 108.182C157.279 108.182 156.222 107.879 155.269 107.272C154.333 106.665 153.587 105.799 153.033 104.672C152.495 103.528 152.227 102.202 152.227 100.694C152.227 99.186 152.495 97.8687 153.033 96.742C153.587 95.6153 154.333 94.7487 155.269 94.142C156.222 93.5353 157.279 93.232 158.441 93.232ZM162.731 100.694C162.731 99.758 162.471 99.0213 161.951 98.484C161.448 97.9467 160.824 97.678 160.079 97.678C159.316 97.678 158.683 97.9467 158.181 98.484C157.678 99.004 157.427 99.7407 157.427 100.694C157.427 101.63 157.678 102.375 158.181 102.93C158.683 103.467 159.316 103.736 160.079 103.736C160.824 103.736 161.448 103.467 161.951 102.93C162.471 102.393 162.731 101.647 162.731 100.694ZM177.516 108.182C176.06 108.182 174.752 107.879 173.59 107.272C172.446 106.665 171.545 105.799 170.886 104.672C170.228 103.545 169.898 102.219 169.898 100.694C169.898 99.186 170.228 97.8687 170.886 96.742C171.562 95.6153 172.472 94.7487 173.616 94.142C174.778 93.5353 176.086 93.232 177.542 93.232C178.998 93.232 180.298 93.5353 181.442 94.142C182.604 94.7487 183.514 95.6153 184.172 96.742C184.848 97.8687 185.186 99.186 185.186 100.694C185.186 102.202 184.848 103.528 184.172 104.672C183.514 105.799 182.604 106.665 181.442 107.272C180.281 107.879 178.972 108.182 177.516 108.182ZM177.516 103.762C178.227 103.762 178.816 103.502 179.284 102.982C179.77 102.445 180.012 101.682 180.012 100.694C180.012 99.706 179.77 98.952 179.284 98.432C178.816 97.912 178.236 97.652 177.542 97.652C176.849 97.652 176.268 97.912 175.8 98.432C175.332 98.952 175.098 99.706 175.098 100.694C175.098 101.699 175.324 102.462 175.774 102.982C176.225 103.502 176.806 103.762 177.516 103.762Z" fill="#FFEBEB"/>
</svg>
