<svg width="246" height="159" viewBox="0 0 246 159" fill="none" xmlns="http://www.w3.org/2000/svg">
<rect width="246" height="159" rx="15" fill="#F68C64"/>
<path d="M59.9609 69.182C57.8289 69.182 56.0782 68.6793 54.7089 67.674C53.3395 66.6513 52.6029 65.1953 52.4989 63.306H57.9329C57.9849 63.9473 58.1755 64.4153 58.5049 64.71C58.8342 65.0047 59.2589 65.152 59.7789 65.152C60.2469 65.152 60.6282 65.0393 60.9229 64.814C61.2349 64.5713 61.3909 64.242 61.3909 63.826C61.3909 63.2887 61.1395 62.8727 60.6369 62.578C60.1342 62.2833 59.3195 61.954 58.1929 61.59C56.9969 61.1913 56.0262 60.81 55.2809 60.446C54.5529 60.0647 53.9115 59.5187 53.3569 58.808C52.8195 58.08 52.5509 57.1353 52.5509 55.974C52.5509 54.7953 52.8455 53.79 53.4349 52.958C54.0242 52.1087 54.8389 51.4673 55.8789 51.034C56.9189 50.6007 58.0975 50.384 59.4149 50.384C61.5469 50.384 63.2455 50.8867 64.5109 51.892C65.7935 52.88 66.4782 54.2753 66.5649 56.078H61.0269C61.0095 55.5233 60.8362 55.1073 60.5069 54.83C60.1949 54.5527 59.7875 54.414 59.2849 54.414C58.9035 54.414 58.5915 54.5267 58.3489 54.752C58.1062 54.9773 57.9849 55.298 57.9849 55.714C57.9849 56.0607 58.1149 56.364 58.3749 56.624C58.6522 56.8667 58.9902 57.0833 59.3889 57.274C59.7875 57.4473 60.3769 57.6727 61.1569 57.95C62.3182 58.3487 63.2715 58.7473 64.0169 59.146C64.7795 59.5273 65.4295 60.0733 65.9669 60.784C66.5215 61.4773 66.7989 62.3613 66.7989 63.436C66.7989 64.528 66.5215 65.5073 65.9669 66.374C65.4295 67.2407 64.6409 67.9253 63.6009 68.428C62.5782 68.9307 61.3649 69.182 59.9609 69.182ZM75.9539 69.182C74.4979 69.182 73.1892 68.8787 72.0279 68.272C70.8839 67.6653 69.9826 66.7987 69.3239 65.672C68.6652 64.5453 68.3359 63.2193 68.3359 61.694C68.3359 60.186 68.6652 58.8687 69.3239 57.742C69.9999 56.6153 70.9099 55.7487 72.0539 55.142C73.2152 54.5353 74.5239 54.232 75.9799 54.232C77.4359 54.232 78.7359 54.5353 79.8799 55.142C81.0412 55.7487 81.9512 56.6153 82.6099 57.742C83.2859 58.8687 83.6239 60.186 83.6239 61.694C83.6239 63.202 83.2859 64.528 82.6099 65.672C81.9512 66.7987 81.0412 67.6653 79.8799 68.272C78.7186 68.8787 77.4099 69.182 75.9539 69.182ZM75.9539 64.762C76.6646 64.762 77.2539 64.502 77.7219 63.982C78.2072 63.4447 78.4499 62.682 78.4499 61.694C78.4499 60.706 78.2072 59.952 77.7219 59.432C77.2539 58.912 76.6732 58.652 75.9799 58.652C75.2866 58.652 74.7059 58.912 74.2379 59.432C73.7699 59.952 73.5359 60.706 73.5359 61.694C73.5359 62.6993 73.7612 63.462 74.2119 63.982C74.6626 64.502 75.2432 64.762 75.9539 64.762ZM90.7932 56.988C91.3652 56.156 92.0585 55.4973 92.8732 55.012C93.6879 54.5267 94.5632 54.284 95.4992 54.284V59.718H94.0692C92.9599 59.718 92.1365 59.9347 91.5992 60.368C91.0619 60.8013 90.7932 61.5553 90.7932 62.63V69H85.6972V54.414H90.7932V56.988ZM104.32 64.19L107.05 54.414H112.484L107.466 69H101.122L96.1041 54.414H101.538L104.32 64.19ZM128.147 61.538C128.147 61.9367 128.121 62.3353 128.069 62.734H118.423C118.475 63.5313 118.692 64.1293 119.073 64.528C119.472 64.9093 119.974 65.1 120.581 65.1C121.43 65.1 122.037 64.7187 122.401 63.956H127.835C127.61 64.9613 127.168 65.8627 126.509 66.66C125.868 67.44 125.053 68.0553 124.065 68.506C123.077 68.9567 121.985 69.182 120.789 69.182C119.35 69.182 118.068 68.8787 116.941 68.272C115.832 67.6653 114.956 66.7987 114.315 65.672C113.691 64.5453 113.379 63.2193 113.379 61.694C113.379 60.1687 113.691 58.8513 114.315 57.742C114.939 56.6153 115.806 55.7487 116.915 55.142C118.042 54.5353 119.333 54.232 120.789 54.232C122.228 54.232 123.502 54.5267 124.611 55.116C125.72 55.7053 126.587 56.5547 127.211 57.664C127.835 58.756 128.147 60.0473 128.147 61.538ZM122.947 60.264C122.947 59.64 122.739 59.1547 122.323 58.808C121.907 58.444 121.387 58.262 120.763 58.262C120.139 58.262 119.628 58.4353 119.229 58.782C118.83 59.1113 118.57 59.6053 118.449 60.264H122.947ZM138.838 64.658V69H136.628C132.902 69 131.038 67.154 131.038 63.462V58.652H129.244V54.414H131.038V50.878H136.16V54.414H138.812V58.652H136.16V63.54C136.16 63.9387 136.247 64.2247 136.42 64.398C136.611 64.5713 136.923 64.658 137.356 64.658H138.838ZM155.112 61.538C155.112 61.9367 155.086 62.3353 155.034 62.734H145.388C145.44 63.5313 145.656 64.1293 146.038 64.528C146.436 64.9093 146.939 65.1 147.546 65.1C148.395 65.1 149.002 64.7187 149.366 63.956H154.8C154.574 64.9613 154.132 65.8627 153.474 66.66C152.832 67.44 152.018 68.0553 151.03 68.506C150.042 68.9567 148.95 69.182 147.754 69.182C146.315 69.182 145.032 68.8787 143.906 68.272C142.796 67.6653 141.921 66.7987 141.28 65.672C140.656 64.5453 140.344 63.2193 140.344 61.694C140.344 60.1687 140.656 58.8513 141.28 57.742C141.904 56.6153 142.77 55.7487 143.88 55.142C145.006 54.5353 146.298 54.232 147.754 54.232C149.192 54.232 150.466 54.5267 151.576 55.116C152.685 55.7053 153.552 56.5547 154.176 57.664C154.8 58.756 155.112 60.0473 155.112 61.538ZM149.912 60.264C149.912 59.64 149.704 59.1547 149.288 58.808C148.872 58.444 148.352 58.262 147.728 58.262C147.104 58.262 146.592 58.4353 146.194 58.782C145.795 59.1113 145.535 59.6053 145.414 60.264H149.912ZM161.342 61.694C161.342 60.186 161.61 58.8687 162.148 57.742C162.702 56.6153 163.456 55.7487 164.41 55.142C165.363 54.5353 166.42 54.232 167.582 54.232C168.518 54.232 169.35 54.4313 170.078 54.83C170.823 55.2113 171.404 55.74 171.82 56.416V49.76H176.942V69H171.82V66.972C171.421 67.648 170.858 68.1853 170.13 68.584C169.402 68.9827 168.544 69.182 167.556 69.182C166.394 69.182 165.337 68.8787 164.384 68.272C163.448 67.6653 162.702 66.7987 162.148 65.672C161.61 64.528 161.342 63.202 161.342 61.694ZM171.846 61.694C171.846 60.758 171.586 60.0213 171.066 59.484C170.563 58.9467 169.939 58.678 169.194 58.678C168.431 58.678 167.798 58.9467 167.296 59.484C166.793 60.004 166.542 60.7407 166.542 61.694C166.542 62.63 166.793 63.3753 167.296 63.93C167.798 64.4673 168.431 64.736 169.194 64.736C169.939 64.736 170.563 64.4673 171.066 63.93C171.586 63.3927 171.846 62.6473 171.846 61.694ZM193.782 61.538C193.782 61.9367 193.756 62.3353 193.704 62.734H184.058C184.11 63.5313 184.326 64.1293 184.708 64.528C185.106 64.9093 185.609 65.1 186.216 65.1C187.065 65.1 187.672 64.7187 188.036 63.956H193.47C193.244 64.9613 192.802 65.8627 192.144 66.66C191.502 67.44 190.688 68.0553 189.7 68.506C188.712 68.9567 187.62 69.182 186.424 69.182C184.985 69.182 183.702 68.8787 182.576 68.272C181.466 67.6653 180.591 66.7987 179.95 65.672C179.326 64.5453 179.014 63.2193 179.014 61.694C179.014 60.1687 179.326 58.8513 179.95 57.742C180.574 56.6153 181.44 55.7487 182.55 55.142C183.676 54.5353 184.968 54.232 186.424 54.232C187.862 54.232 189.136 54.5267 190.246 55.116C191.355 55.7053 192.222 56.5547 192.846 57.664C193.47 58.756 193.782 60.0473 193.782 61.538ZM188.582 60.264C188.582 59.64 188.374 59.1547 187.958 58.808C187.542 58.444 187.022 58.262 186.398 58.262C185.774 58.262 185.262 58.4353 184.864 58.782C184.465 59.1113 184.205 59.6053 184.084 60.264H188.582ZM80.7103 93.284C82.5476 93.284 83.9863 93.8387 85.0263 94.948C86.0836 96.0573 86.6123 97.574 86.6123 99.498V108H81.5163V100.174C81.5163 99.394 81.2996 98.7873 80.8663 98.354C80.433 97.9207 79.8436 97.704 79.0983 97.704C78.353 97.704 77.7636 97.9207 77.3303 98.354C76.897 98.7873 76.6803 99.394 76.6803 100.174V108H71.5843V100.174C71.5843 99.394 71.3676 98.7873 70.9343 98.354C70.5183 97.9207 69.9376 97.704 69.1923 97.704C68.4296 97.704 67.8316 97.9207 67.3983 98.354C66.965 98.7873 66.7483 99.394 66.7483 100.174V108H61.6523V93.414H66.7483V95.338C67.199 94.714 67.7796 94.22 68.4903 93.856C69.2183 93.4747 70.0503 93.284 70.9863 93.284C72.061 93.284 73.0143 93.518 73.8463 93.986C74.6956 94.454 75.363 95.1127 75.8483 95.962C76.3683 95.1647 77.053 94.5233 77.9023 94.038C78.7516 93.5353 79.6876 93.284 80.7103 93.284ZM96.1902 108.182C94.7342 108.182 93.4256 107.879 92.2642 107.272C91.1202 106.665 90.2189 105.799 89.5602 104.672C88.9016 103.545 88.5722 102.219 88.5722 100.694C88.5722 99.186 88.9016 97.8687 89.5602 96.742C90.2362 95.6153 91.1462 94.7487 92.2902 94.142C93.4516 93.5353 94.7602 93.232 96.2162 93.232C97.6722 93.232 98.9722 93.5353 100.116 94.142C101.278 94.7487 102.188 95.6153 102.846 96.742C103.522 97.8687 103.86 99.186 103.86 100.694C103.86 102.202 103.522 103.528 102.846 104.672C102.188 105.799 101.278 106.665 100.116 107.272C98.9549 107.879 97.6462 108.182 96.1902 108.182ZM96.1902 103.762C96.9009 103.762 97.4902 103.502 97.9582 102.982C98.4436 102.445 98.6862 101.682 98.6862 100.694C98.6862 99.706 98.4436 98.952 97.9582 98.432C97.4902 97.912 96.9096 97.652 96.2162 97.652C95.5229 97.652 94.9422 97.912 94.4742 98.432C94.0062 98.952 93.7722 99.706 93.7722 100.694C93.7722 101.699 93.9976 102.462 94.4482 102.982C94.8989 103.502 95.4796 103.762 96.1902 103.762ZM111.03 95.988C111.602 95.156 112.295 94.4973 113.11 94.012C113.924 93.5267 114.8 93.284 115.736 93.284V98.718H114.306C113.196 98.718 112.373 98.9347 111.836 99.368C111.298 99.8013 111.03 100.555 111.03 101.63V108H105.934V93.414H111.03V95.988ZM116.73 100.694C116.73 99.186 116.999 97.8687 117.536 96.742C118.091 95.6153 118.836 94.7487 119.772 94.142C120.726 93.5353 121.783 93.232 122.944 93.232C123.95 93.232 124.816 93.4313 125.544 93.83C126.272 94.2287 126.836 94.766 127.234 95.442V93.414H132.33V108H127.234V105.972C126.836 106.648 126.264 107.185 125.518 107.584C124.79 107.983 123.932 108.182 122.944 108.182C121.783 108.182 120.726 107.879 119.772 107.272C118.836 106.665 118.091 105.799 117.536 104.672C116.999 103.528 116.73 102.202 116.73 100.694ZM127.234 100.694C127.234 99.758 126.974 99.0213 126.454 98.484C125.952 97.9467 125.328 97.678 124.582 97.678C123.82 97.678 123.187 97.9467 122.684 98.484C122.182 99.004 121.93 99.7407 121.93 100.694C121.93 101.63 122.182 102.375 122.684 102.93C123.187 103.467 123.82 103.736 124.582 103.736C125.328 103.736 125.952 103.467 126.454 102.93C126.974 102.393 127.234 101.647 127.234 100.694ZM144.776 93.284C146.458 93.284 147.792 93.8473 148.78 94.974C149.768 96.0833 150.262 97.5913 150.262 99.498V108H145.166V100.174C145.166 99.342 144.95 98.692 144.516 98.224C144.083 97.7387 143.502 97.496 142.774 97.496C142.012 97.496 141.414 97.7387 140.98 98.224C140.547 98.692 140.33 99.342 140.33 100.174V108H135.234V93.414H140.33V95.494C140.781 94.8353 141.388 94.3067 142.15 93.908C142.913 93.492 143.788 93.284 144.776 93.284ZM158.441 93.232C159.429 93.232 160.287 93.4313 161.015 93.83C161.76 94.2287 162.332 94.766 162.731 95.442V93.414H167.827V107.844C167.827 109.213 167.567 110.444 167.047 111.536C166.527 112.645 165.712 113.529 164.603 114.188C163.511 114.847 162.124 115.176 160.443 115.176C158.189 115.176 156.387 114.647 155.035 113.59C153.683 112.533 152.911 111.094 152.721 109.274H157.739C157.843 109.742 158.103 110.106 158.519 110.366C158.935 110.626 159.472 110.756 160.131 110.756C161.864 110.756 162.731 109.785 162.731 107.844V105.972C162.332 106.648 161.76 107.185 161.015 107.584C160.287 107.983 159.429 108.182 158.441 108.182C157.279 108.182 156.222 107.879 155.269 107.272C154.333 106.665 153.587 105.799 153.033 104.672C152.495 103.528 152.227 102.202 152.227 100.694C152.227 99.186 152.495 97.8687 153.033 96.742C153.587 95.6153 154.333 94.7487 155.269 94.142C156.222 93.5353 157.279 93.232 158.441 93.232ZM162.731 100.694C162.731 99.758 162.471 99.0213 161.951 98.484C161.448 97.9467 160.824 97.678 160.079 97.678C159.316 97.678 158.683 97.9467 158.181 98.484C157.678 99.004 157.427 99.7407 157.427 100.694C157.427 101.63 157.678 102.375 158.181 102.93C158.683 103.467 159.316 103.736 160.079 103.736C160.824 103.736 161.448 103.467 161.951 102.93C162.471 102.393 162.731 101.647 162.731 100.694ZM177.516 108.182C176.06 108.182 174.752 107.879 173.59 107.272C172.446 106.665 171.545 105.799 170.886 104.672C170.228 103.545 169.898 102.219 169.898 100.694C169.898 99.186 170.228 97.8687 170.886 96.742C171.562 95.6153 172.472 94.7487 173.616 94.142C174.778 93.5353 176.086 93.232 177.542 93.232C178.998 93.232 180.298 93.5353 181.442 94.142C182.604 94.7487 183.514 95.6153 184.172 96.742C184.848 97.8687 185.186 99.186 185.186 100.694C185.186 102.202 184.848 103.528 184.172 104.672C183.514 105.799 182.604 106.665 181.442 107.272C180.281 107.879 178.972 108.182 177.516 108.182ZM177.516 103.762C178.227 103.762 178.816 103.502 179.284 102.982C179.77 102.445 180.012 101.682 180.012 100.694C180.012 99.706 179.77 98.952 179.284 98.432C178.816 97.912 178.236 97.652 177.542 97.652C176.849 97.652 176.268 97.912 175.8 98.432C175.332 98.952 175.098 99.706 175.098 100.694C175.098 101.699 175.324 102.462 175.774 102.982C176.225 103.502 176.806 103.762 177.516 103.762Z" fill="#FFEBEB"/>
</svg>
