<svg width="227" height="201" viewBox="0 0 227 201" fill="none" xmlns="http://www.w3.org/2000/svg">
<g clip-path="url(#clip0_269_21)">
<path d="M152.508 141.278C151.782 172.548 140.208 188.685 117.742 185.107C105.142 183.102 97.4632 182.312 86.1585 177.867C69.4358 171.284 55.9909 162.524 40.5757 147.518C24.5533 131.92 29.043 107.921 46.0135 96.8612C46.0135 96.8612 76.0505 76.1557 103.615 82.162C151.272 92.5253 152.489 141.291 152.489 141.291L152.508 141.278Z" fill="#4D382E"/>
<path d="M105.38 62.5025C117.709 64.7577 129.634 56.035 132.014 43.0198C134.395 30.0046 126.33 17.6255 114.002 15.3703C101.673 13.1151 89.7482 21.8378 87.3675 34.853C84.9868 47.8682 93.0513 60.2473 105.38 62.5025Z" fill="#4D382E"/>
<path d="M163.096 89.2186C176.208 91.617 188.646 83.673 190.877 71.4751C193.108 59.2773 184.288 47.4447 171.176 45.0463C158.064 42.6479 145.627 50.5919 143.395 62.7898C141.164 74.9876 149.984 86.8202 163.096 89.2186Z" fill="#4D382E"/>
<path d="M40.3926 78.3608C53.6199 80.7804 66.3135 71.9676 68.7447 58.677C71.1758 45.3864 62.4238 32.6509 49.1965 30.2313C35.9692 27.8118 23.2755 36.6245 20.8444 49.9151C18.4133 63.2057 27.1653 75.9413 40.3926 78.3608Z" fill="#4D382E"/>
<path d="M188.512 144.19C201.116 146.495 213.055 138.959 215.177 127.356C217.3 115.753 208.802 104.478 196.198 102.173C183.593 99.8671 171.654 107.404 169.532 119.006C167.41 130.609 175.907 141.884 188.512 144.19Z" fill="#4D382E"/>
</g>
<defs>
<clipPath id="clip0_269_21">
<rect width="205.095" height="166.588" fill="white" transform="translate(29.9749) rotate(10.366)"/>
</clipPath>
</defs>
</svg>
