<svg width="390" height="74" viewBox="0 0 390 74" fill="none" xmlns="http://www.w3.org/2000/svg">
<path d="M33.052 73L19.912 49.15H16.222V73H0.831953V9.82H26.662C31.642 9.82 35.872 10.69 39.352 12.43C42.892 14.17 45.532 16.57 47.272 19.63C49.012 22.63 49.882 25.99 49.882 29.71C49.882 33.91 48.682 37.66 46.282 40.96C43.942 44.26 40.462 46.6 35.842 47.98L50.422 73H33.052ZM16.222 38.26H25.762C28.582 38.26 30.682 37.57 32.062 36.19C33.502 34.81 34.222 32.86 34.222 30.34C34.222 27.94 33.502 26.05 32.062 24.67C30.682 23.29 28.582 22.6 25.762 22.6H16.222V38.26ZM106.883 47.08C106.883 48.52 106.793 50.02 106.613 51.58H71.7829C72.0229 54.7 73.0129 57.1 74.7529 58.78C76.5529 60.4 78.7429 61.21 81.3229 61.21C85.1629 61.21 87.8329 59.59 89.3329 56.35H105.713C104.873 59.65 103.343 62.62 101.123 65.26C98.9629 67.9 96.2329 69.97 92.9329 71.47C89.6329 72.97 85.9429 73.72 81.8629 73.72C76.9429 73.72 72.5629 72.67 68.7229 70.57C64.8829 68.47 61.8829 65.47 59.7229 61.57C57.5629 57.67 56.4829 53.11 56.4829 47.89C56.4829 42.67 57.5329 38.11 59.6329 34.21C61.7929 30.31 64.7929 27.31 68.6329 25.21C72.4729 23.11 76.8829 22.06 81.8629 22.06C86.7229 22.06 91.0429 23.08 94.8229 25.12C98.6029 27.16 101.543 30.07 103.643 33.85C105.803 37.63 106.883 42.04 106.883 47.08ZM91.1329 43.03C91.1329 40.39 90.2329 38.29 88.4329 36.73C86.6329 35.17 84.3829 34.39 81.6829 34.39C79.1029 34.39 76.9129 35.14 75.1129 36.64C73.3729 38.14 72.2929 40.27 71.8729 43.03H91.1329ZM111.942 47.89C111.942 42.67 112.992 38.11 115.092 34.21C117.252 30.31 120.222 27.31 124.002 25.21C127.842 23.11 132.222 22.06 137.142 22.06C143.442 22.06 148.692 23.71 152.892 27.01C157.152 30.31 159.942 34.96 161.262 40.96H144.882C143.502 37.12 140.832 35.2 136.872 35.2C134.052 35.2 131.802 36.31 130.122 38.53C128.442 40.69 127.602 43.81 127.602 47.89C127.602 51.97 128.442 55.12 130.122 57.34C131.802 59.5 134.052 60.58 136.872 60.58C140.832 60.58 143.502 58.66 144.882 54.82H161.262C159.942 60.7 157.152 65.32 152.892 68.68C148.632 72.04 143.382 73.72 137.142 73.72C132.222 73.72 127.842 72.67 124.002 70.57C120.222 68.47 117.252 65.47 115.092 61.57C112.992 57.67 111.942 53.11 111.942 47.89ZM216.834 47.08C216.834 48.52 216.744 50.02 216.564 51.58H181.734C181.974 54.7 182.964 57.1 184.704 58.78C186.504 60.4 188.694 61.21 191.274 61.21C195.114 61.21 197.784 59.59 199.284 56.35H215.664C214.824 59.65 213.294 62.62 211.074 65.26C208.914 67.9 206.184 69.97 202.884 71.47C199.584 72.97 195.894 73.72 191.814 73.72C186.894 73.72 182.514 72.67 178.674 70.57C174.834 68.47 171.834 65.47 169.674 61.57C167.514 57.67 166.434 53.11 166.434 47.89C166.434 42.67 167.484 38.11 169.584 34.21C171.744 30.31 174.744 27.31 178.584 25.21C182.424 23.11 186.834 22.06 191.814 22.06C196.674 22.06 200.994 23.08 204.774 25.12C208.554 27.16 211.494 30.07 213.594 33.85C215.754 37.63 216.834 42.04 216.834 47.08ZM201.084 43.03C201.084 40.39 200.184 38.29 198.384 36.73C196.584 35.17 194.334 34.39 191.634 34.39C189.054 34.39 186.864 35.14 185.064 36.64C183.324 38.14 182.244 40.27 181.824 43.03H201.084ZM232.693 17.56C229.993 17.56 227.773 16.78 226.033 15.22C224.353 13.6 223.513 11.62 223.513 9.28C223.513 6.88 224.353 4.9 226.033 3.34C227.773 1.72 229.993 0.909995 232.693 0.909995C235.333 0.909995 237.493 1.72 239.173 3.34C240.913 4.9 241.783 6.88 241.783 9.28C241.783 11.62 240.913 13.6 239.173 15.22C237.493 16.78 235.333 17.56 232.693 17.56ZM240.343 22.78V73H224.953V22.78H240.343ZM279.486 59.95V73H271.656C266.076 73 261.726 71.65 258.606 68.95C255.486 66.19 253.926 61.72 253.926 55.54V35.56H247.806V22.78H253.926V10.54H269.316V22.78H279.396V35.56H269.316V55.72C269.316 57.22 269.676 58.3 270.396 58.96C271.116 59.62 272.316 59.95 273.996 59.95H279.486ZM284.999 47.8C284.999 42.64 285.959 38.11 287.879 34.21C289.859 30.31 292.529 27.31 295.889 25.21C299.249 23.11 302.999 22.06 307.139 22.06C310.679 22.06 313.769 22.78 316.409 24.22C319.109 25.66 321.179 27.55 322.619 29.89V22.78H338.009V73H322.619V65.89C321.119 68.23 319.019 70.12 316.319 71.56C313.679 73 310.589 73.72 307.049 73.72C302.969 73.72 299.249 72.67 295.889 70.57C292.529 68.41 289.859 65.38 287.879 61.48C285.959 57.52 284.999 52.96 284.999 47.8ZM322.619 47.89C322.619 44.05 321.539 41.02 319.379 38.8C317.279 36.58 314.699 35.47 311.639 35.47C308.579 35.47 305.969 36.58 303.809 38.8C301.709 40.96 300.659 43.96 300.659 47.8C300.659 51.64 301.709 54.7 303.809 56.98C305.969 59.2 308.579 60.31 311.639 60.31C314.699 60.31 317.279 59.2 319.379 56.98C321.539 54.76 322.619 51.73 322.619 47.89ZM369.573 73.72C365.193 73.72 361.293 72.97 357.873 71.47C354.453 69.97 351.753 67.93 349.773 65.35C347.793 62.71 346.683 59.77 346.443 56.53H361.653C361.833 58.27 362.643 59.68 364.083 60.76C365.523 61.84 367.293 62.38 369.393 62.38C371.313 62.38 372.783 62.02 373.803 61.3C374.883 60.52 375.423 59.53 375.423 58.33C375.423 56.89 374.673 55.84 373.173 55.18C371.673 54.46 369.243 53.68 365.883 52.84C362.283 52 359.283 51.13 356.883 50.23C354.483 49.27 352.413 47.8 350.673 45.82C348.933 43.78 348.063 41.05 348.063 37.63C348.063 34.75 348.843 32.14 350.403 29.8C352.023 27.4 354.363 25.51 357.423 24.13C360.543 22.75 364.233 22.06 368.493 22.06C374.793 22.06 379.743 23.62 383.343 26.74C387.003 29.86 389.103 34 389.643 39.16H375.423C375.183 37.42 374.403 36.04 373.083 35.02C371.823 34 370.143 33.49 368.043 33.49C366.243 33.49 364.863 33.85 363.903 34.57C362.943 35.23 362.463 36.16 362.463 37.36C362.463 38.8 363.213 39.88 364.713 40.6C366.273 41.32 368.673 42.04 371.913 42.76C375.633 43.72 378.663 44.68 381.003 45.64C383.343 46.54 385.383 48.04 387.123 50.14C388.923 52.18 389.853 54.94 389.913 58.42C389.913 61.36 389.073 64 387.393 66.34C385.773 68.62 383.403 70.42 380.283 71.74C377.223 73.06 373.653 73.72 369.573 73.72Z" fill="#EF835A"/>
</svg>
