<svg width="154" height="48" viewBox="0 0 154 48" fill="none" xmlns="http://www.w3.org/2000/svg">
<path d="M14.4691 29.88L18.3411 17.144H24.1651L17.8291 35H11.0771L4.74113 17.144H10.5971L14.4691 29.88ZM43.3004 25.784C43.3004 26.296 43.2684 26.8293 43.2044 27.384H30.8204C30.9057 28.4933 31.2577 29.3467 31.8764 29.944C32.5164 30.52 33.295 30.808 34.2124 30.808C35.5777 30.808 36.527 30.232 37.0604 29.08H42.8844C42.5857 30.2533 42.0417 31.3093 41.2524 32.248C40.4844 33.1867 39.5137 33.9227 38.3404 34.456C37.167 34.9893 35.855 35.256 34.4044 35.256C32.655 35.256 31.0977 34.8827 29.7324 34.136C28.367 33.3893 27.3004 32.3227 26.5324 30.936C25.7644 29.5493 25.3804 27.928 25.3804 26.072C25.3804 24.216 25.7537 22.5947 26.5004 21.208C27.2684 19.8213 28.335 18.7547 29.7004 18.008C31.0657 17.2613 32.6337 16.888 34.4044 16.888C36.1324 16.888 37.6684 17.2507 39.0124 17.976C40.3564 18.7013 41.4017 19.736 42.1484 21.08C42.9164 22.424 43.3004 23.992 43.3004 25.784ZM37.7004 24.344C37.7004 23.4053 37.3804 22.6587 36.7404 22.104C36.1004 21.5493 35.3004 21.272 34.3404 21.272C33.423 21.272 32.6444 21.5387 32.0044 22.072C31.3857 22.6053 31.0017 23.3627 30.8524 24.344H37.7004ZM51.6591 20.12C52.2991 19.1387 53.0991 18.3707 54.0591 17.816C55.0191 17.24 56.0858 16.952 57.2591 16.952V22.744H55.7551C54.3898 22.744 53.3658 23.0427 52.6831 23.64C52.0005 24.216 51.6591 25.24 51.6591 26.712V35H46.1871V17.144H51.6591V20.12ZM89.4399 16.952C91.6585 16.952 93.4185 17.624 94.7199 18.968C96.0425 20.312 96.7039 22.1787 96.7039 24.568V35H91.2639V25.304C91.2639 24.152 90.9545 23.2667 90.3359 22.648C89.7385 22.008 88.9065 21.688 87.8399 21.688C86.7732 21.688 85.9305 22.008 85.3119 22.648C84.7145 23.2667 84.4159 24.152 84.4159 25.304V35H78.9759V25.304C78.9759 24.152 78.6665 23.2667 78.0479 22.648C77.4505 22.008 76.6185 21.688 75.5519 21.688C74.4852 21.688 73.6425 22.008 73.0239 22.648C72.4265 23.2667 72.1279 24.152 72.1279 25.304V35H66.6559V17.144H72.1279V19.384C72.6825 18.6373 73.4079 18.0507 74.3039 17.624C75.1999 17.176 76.2132 16.952 77.3439 16.952C78.6879 16.952 79.8825 17.24 80.9279 17.816C81.9945 18.392 82.8265 19.2133 83.4239 20.28C84.0425 19.2987 84.8852 18.4987 85.9519 17.88C87.0185 17.2613 88.1812 16.952 89.4399 16.952ZM99.4429 26.04C99.4429 24.2053 99.7842 22.5947 100.467 21.208C101.171 19.8213 102.12 18.7547 103.315 18.008C104.51 17.2613 105.843 16.888 107.315 16.888C108.574 16.888 109.672 17.144 110.611 17.656C111.571 18.168 112.307 18.84 112.819 19.672V17.144H118.291V35H112.819V32.472C112.286 33.304 111.539 33.976 110.579 34.488C109.64 35 108.542 35.256 107.283 35.256C105.832 35.256 104.51 34.8827 103.315 34.136C102.12 33.368 101.171 32.2907 100.467 30.904C99.7842 29.496 99.4429 27.8747 99.4429 26.04ZM112.819 26.072C112.819 24.7067 112.435 23.6293 111.667 22.84C110.92 22.0507 110.003 21.656 108.915 21.656C107.827 21.656 106.899 22.0507 106.131 22.84C105.384 23.608 105.011 24.6747 105.011 26.04C105.011 27.4053 105.384 28.4933 106.131 29.304C106.899 30.0933 107.827 30.488 108.915 30.488C110.003 30.488 110.92 30.0933 111.667 29.304C112.435 28.5147 112.819 27.4373 112.819 26.072ZM125.002 15.288C124.042 15.288 123.252 15.0107 122.634 14.456C122.036 13.88 121.738 13.176 121.738 12.344C121.738 11.4907 122.036 10.7867 122.634 10.232C123.252 9.656 124.042 9.368 125.002 9.368C125.94 9.368 126.708 9.656 127.306 10.232C127.924 10.7867 128.234 11.4907 128.234 12.344C128.234 13.176 127.924 13.88 127.306 14.456C126.708 15.0107 125.94 15.288 125.002 15.288ZM127.722 17.144V35H122.25V17.144H127.722ZM138.951 35.256C137.394 35.256 136.007 34.9893 134.791 34.456C133.575 33.9227 132.615 33.1973 131.911 32.28C131.207 31.3413 130.812 30.296 130.727 29.144H136.135C136.199 29.7627 136.487 30.264 136.999 30.648C137.511 31.032 138.14 31.224 138.887 31.224C139.57 31.224 140.092 31.096 140.455 30.84C140.839 30.5627 141.031 30.2107 141.031 29.784C141.031 29.272 140.764 28.8987 140.231 28.664C139.698 28.408 138.834 28.1307 137.639 27.832C136.359 27.5333 135.292 27.224 134.439 26.904C133.586 26.5627 132.85 26.04 132.231 25.336C131.612 24.6107 131.303 23.64 131.303 22.424C131.303 21.4 131.58 20.472 132.135 19.64C132.711 18.7867 133.543 18.1147 134.631 17.624C135.74 17.1333 137.052 16.888 138.567 16.888C140.807 16.888 142.567 17.4427 143.847 18.552C145.148 19.6613 145.895 21.1333 146.087 22.968H141.031C140.946 22.3493 140.668 21.8587 140.199 21.496C139.751 21.1333 139.154 20.952 138.407 20.952C137.767 20.952 137.276 21.08 136.935 21.336C136.594 21.5707 136.423 21.9013 136.423 22.328C136.423 22.84 136.69 23.224 137.223 23.48C137.778 23.736 138.631 23.992 139.783 24.248C141.106 24.5893 142.183 24.9307 143.015 25.272C143.847 25.592 144.572 26.1253 145.191 26.872C145.831 27.5973 146.162 28.5787 146.183 29.816C146.183 30.8613 145.884 31.8 145.287 32.632C144.711 33.4427 143.868 34.0827 142.759 34.552C141.671 35.0213 140.402 35.256 138.951 35.256Z" fill="#F68C64"/>
<path d="M0 43H153.5" stroke="#F68C64" stroke-width="3"/>
</svg>
