<svg width="247" height="234" viewBox="0 0 247 234" fill="none" xmlns="http://www.w3.org/2000/svg">
<g clip-path="url(#clip0_77_22)">
<path d="M0 146.298C0 158.405 8.09865 171.201 18.6097 176.113C18.6097 176.156 18.6097 176.242 18.6097 176.285C16.8435 194.036 18.1789 206.832 39.6317 216.698C49.8843 221.438 63.1954 220.748 72.2418 215.535C78.3158 226.565 90.2053 233.2 108.083 233.2C135.265 233.2 165.678 202.222 166.066 179.215L246.535 123.851L248 -21L99.8117 53.4935C91.713 52.2871 82.2359 51.9855 72.1556 51.9855C42.7764 51.9855 22.2282 68.53 18.9543 88.306C17.5327 96.7506 17.3604 107.349 19.902 116.699C9.04637 121.74 0 134.364 0 146.341V146.298Z" fill="#4D382E"/>
<path d="M80.1803 109.446C69.5986 120.029 71.6034 139.193 84.658 152.25C97.7127 165.306 116.874 167.312 127.455 156.728C138.037 146.145 136.032 126.981 122.978 113.924C109.923 100.867 90.762 98.8624 80.1803 109.446Z" fill="#EFDBDB"/>
<path d="M110.797 177.664C103.802 177.664 98.1317 183.566 98.1317 190.848C98.1317 198.129 103.802 204.032 110.797 204.032C117.791 204.032 123.462 198.129 123.462 190.848C123.462 183.566 117.791 177.664 110.797 177.664Z" fill="#EFDBDB"/>
<path d="M65.737 161.895C58.3617 161.895 52.3828 168.106 52.3828 175.768C52.3828 183.43 58.3617 189.641 65.737 189.641C73.1123 189.641 79.0912 183.43 79.0912 175.768C79.0912 168.106 73.1123 161.895 65.737 161.895Z" fill="#EFDBDB"/>
<path d="M43.6811 128.116C36.0917 128.116 29.9392 134.096 29.9392 141.473C29.9392 148.849 36.0917 154.829 43.6811 154.829C51.2705 154.829 57.423 148.849 57.423 141.473C57.423 134.096 51.2705 128.116 43.6811 128.116Z" fill="#EFDBDB"/>
<path d="M57.2507 81.5417C49.0426 81.5417 42.3887 87.8301 42.3887 95.5873C42.3887 103.344 49.0426 109.633 57.2507 109.633C65.4587 109.633 72.1125 103.344 72.1125 95.5873C72.1125 87.8301 65.4587 81.5417 57.2507 81.5417Z" fill="#EFDBDB"/>
</g>
<defs>
<clipPath id="clip0_77_22">
<rect width="248" height="254.2" fill="white" transform="translate(248 233.2) rotate(-180)"/>
</clipPath>
</defs>
</svg>
