<svg width="429" height="311" viewBox="0 0 429 311" fill="none" xmlns="http://www.w3.org/2000/svg">
<path d="M-113.362 75.637C154.959 -32.416 375.982 40.2195 402.607 98.4763C429.231 156.733 422.955 166.985 410.68 210.015C367.175 362.519 68.6357 150.267 -100.956 247.046C-270.547 343.826 -381.683 183.69 -113.362 75.637Z" fill="#8CCDD0"/>
<path d="M93.4023 105.82C100.062 105.82 105.882 107.14 110.862 109.78C115.842 112.42 119.682 116.14 122.382 120.94C125.142 125.68 126.522 131.17 126.522 137.41C126.522 143.59 125.142 149.08 122.382 153.88C119.682 158.68 115.812 162.4 110.772 165.04C105.792 167.68 100.002 169 93.4023 169H69.7323V105.82H93.4023ZM92.4123 155.68C98.2323 155.68 102.762 154.09 106.002 150.91C109.242 147.73 110.862 143.23 110.862 137.41C110.862 131.59 109.242 127.06 106.002 123.82C102.762 120.58 98.2323 118.96 92.4123 118.96H85.1223V155.68H92.4123ZM142.863 113.56C140.163 113.56 137.943 112.78 136.203 111.22C134.523 109.6 133.683 107.62 133.683 105.28C133.683 102.88 134.523 100.9 136.203 99.3399C137.943 97.7199 140.163 96.9099 142.863 96.9099C145.503 96.9099 147.663 97.7199 149.343 99.3399C151.083 100.9 151.953 102.88 151.953 105.28C151.953 107.62 151.083 109.6 149.343 111.22C147.663 112.78 145.503 113.56 142.863 113.56ZM150.513 118.78V169H135.123V118.78H150.513ZM158.606 143.89C158.606 138.67 159.656 134.11 161.756 130.21C163.916 126.31 166.886 123.31 170.666 121.21C174.506 119.11 178.886 118.06 183.806 118.06C190.106 118.06 195.356 119.71 199.556 123.01C203.816 126.31 206.606 130.96 207.926 136.96H191.546C190.166 133.12 187.496 131.2 183.536 131.2C180.716 131.2 178.466 132.31 176.786 134.53C175.106 136.69 174.266 139.81 174.266 143.89C174.266 147.97 175.106 151.12 176.786 153.34C178.466 155.5 180.716 156.58 183.536 156.58C187.496 156.58 190.166 154.66 191.546 150.82H207.926C206.606 156.7 203.816 161.32 199.556 164.68C195.296 168.04 190.046 169.72 183.806 169.72C178.886 169.72 174.506 168.67 170.666 166.57C166.886 164.47 163.916 161.47 161.756 157.57C159.656 153.67 158.606 149.11 158.606 143.89ZM213.098 143.8C213.098 138.64 214.058 134.11 215.978 130.21C217.958 126.31 220.628 123.31 223.988 121.21C227.348 119.11 231.098 118.06 235.238 118.06C238.778 118.06 241.868 118.78 244.508 120.22C247.208 121.66 249.278 123.55 250.718 125.89V118.78H266.108V169H250.718V161.89C249.218 164.23 247.118 166.12 244.418 167.56C241.778 169 238.688 169.72 235.148 169.72C231.068 169.72 227.348 168.67 223.988 166.57C220.628 164.41 217.958 161.38 215.978 157.48C214.058 153.52 213.098 148.96 213.098 143.8ZM250.718 143.89C250.718 140.05 249.638 137.02 247.478 134.8C245.378 132.58 242.798 131.47 239.738 131.47C236.678 131.47 234.068 132.58 231.908 134.8C229.808 136.96 228.758 139.96 228.758 143.8C228.758 147.64 229.808 150.7 231.908 152.98C234.068 155.2 236.678 156.31 239.738 156.31C242.798 156.31 245.378 155.2 247.478 152.98C249.638 150.76 250.718 147.73 250.718 143.89ZM297.672 169.72C293.292 169.72 289.392 168.97 285.972 167.47C282.552 165.97 279.852 163.93 277.872 161.35C275.892 158.71 274.782 155.77 274.542 152.53H289.752C289.932 154.27 290.742 155.68 292.182 156.76C293.622 157.84 295.392 158.38 297.492 158.38C299.412 158.38 300.882 158.02 301.902 157.3C302.982 156.52 303.522 155.53 303.522 154.33C303.522 152.89 302.772 151.84 301.272 151.18C299.772 150.46 297.342 149.68 293.982 148.84C290.382 148 287.382 147.13 284.982 146.23C282.582 145.27 280.512 143.8 278.772 141.82C277.032 139.78 276.162 137.05 276.162 133.63C276.162 130.75 276.942 128.14 278.502 125.8C280.122 123.4 282.462 121.51 285.522 120.13C288.642 118.75 292.332 118.06 296.592 118.06C302.892 118.06 307.842 119.62 311.442 122.74C315.102 125.86 317.202 130 317.742 135.16H303.522C303.282 133.42 302.502 132.04 301.182 131.02C299.922 130 298.242 129.49 296.142 129.49C294.342 129.49 292.962 129.85 292.002 130.57C291.042 131.23 290.562 132.16 290.562 133.36C290.562 134.8 291.312 135.88 292.812 136.6C294.372 137.32 296.772 138.04 300.012 138.76C303.732 139.72 306.762 140.68 309.102 141.64C311.442 142.54 313.482 144.04 315.222 146.14C317.022 148.18 317.952 150.94 318.012 154.42C318.012 157.36 317.172 160 315.492 162.34C313.872 164.62 311.502 166.42 308.382 167.74C305.322 169.06 301.752 169.72 297.672 169.72Z" fill="#FFEBEB"/>
</svg>
