<svg width="235" height="277" viewBox="0 0 235 277" fill="none" xmlns="http://www.w3.org/2000/svg">
<g clip-path="url(#clip0_246_9)">
<path d="M8.26012 110.031C7.10935 97.9886 13.955 84.4901 23.9515 78.6047C23.9474 78.5618 23.9392 78.4761 23.9351 78.4333C20.4897 60.9448 20.6028 48.0896 41.0205 36.2349C50.7761 30.5455 64.0924 29.965 73.5932 34.29C78.5913 22.7411 89.7962 15.0104 107.593 13.3098C134.651 10.724 167.871 38.6442 170.444 61.4922L255.811 108.907L271.037 252.848L116.44 192.847C108.493 194.818 99.0876 196.019 89.0531 196.978C59.8071 199.773 37.7795 185.271 32.6407 165.912C30.4229 157.647 29.2439 147.121 30.8853 137.58C19.5998 133.598 9.39451 121.902 8.25603 109.988L8.26012 110.031Z" fill="#4D382E"/>
<path d="M91.5797 139.06C80.0401 129.54 80.2142 110.287 91.9686 96.0577C103.723 81.8286 122.607 78.0115 134.146 87.532C145.686 97.0524 145.512 116.305 133.757 130.534C122.003 144.763 103.119 148.581 91.5797 139.06Z" fill="#EFDBDB"/>
<path d="M115.573 68.2925C108.61 68.9579 102.404 63.626 101.712 56.3835C101.02 49.1409 106.104 42.7302 113.067 42.0649C120.03 41.3995 126.235 46.7314 126.927 53.9739C127.619 61.2165 122.536 67.6271 115.573 68.2925Z" fill="#EFDBDB"/>
<path d="M72.2165 88.264C64.8747 88.9656 58.3325 83.3561 57.6042 75.7348C56.876 68.1136 62.2373 61.3666 69.5792 60.665C76.921 59.9634 83.4632 65.5729 84.1915 73.1942C84.9198 80.8154 79.5584 87.5624 72.2165 88.264Z" fill="#EFDBDB"/>
<path d="M53.4713 123.961C45.9163 124.683 39.2234 119.32 38.5222 111.983C37.8211 104.646 43.3772 98.1124 50.9323 97.3905C58.4873 96.6685 65.1802 102.031 65.8813 109.368C66.5825 116.706 61.0263 123.239 53.4713 123.961Z" fill="#EFDBDB"/>
<path d="M71.4064 168.997C63.2356 169.778 56.0141 164.156 55.2768 156.44C54.5395 148.724 60.5655 141.836 68.7363 141.055C76.907 140.274 84.1285 145.896 84.8658 153.612C85.6031 161.328 79.5772 168.216 71.4064 168.997Z" fill="#EFDBDB"/>
</g>
<defs>
<clipPath id="clip0_246_9">
<rect width="248" height="254" fill="white" transform="matrix(-0.995465 0.095126 0.095126 0.995465 246.875 0)"/>
</clipPath>
</defs>
</svg>
