<svg width="342" height="196" viewBox="0 0 342 196" fill="none" xmlns="http://www.w3.org/2000/svg">
<rect width="342" height="196" rx="20" fill="#8CCDD0"/>
<path d="M85.2781 52.24C83.3981 51.24 82.4581 49.67 82.4581 47.53C82.4581 46.45 82.7381 45.47 83.2981 44.59C83.8581 43.69 84.7081 42.98 85.8481 42.46C86.9881 41.92 88.3881 41.65 90.0481 41.65C91.7081 41.65 93.0981 41.92 94.2181 42.46C95.3581 42.98 96.2081 43.69 96.7681 44.59C97.3281 45.47 97.6081 46.45 97.6081 47.53C97.6081 48.61 97.3481 49.55 96.8281 50.35C96.3281 51.15 95.6481 51.78 94.7881 52.24C95.8681 52.76 96.6981 53.48 97.2781 54.4C97.8581 55.3 98.1481 56.36 98.1481 57.58C98.1481 59 97.7881 60.23 97.0681 61.27C96.3481 62.29 95.3681 63.07 94.1281 63.61C92.9081 64.15 91.5481 64.42 90.0481 64.42C88.5481 64.42 87.1781 64.15 85.9381 63.61C84.7181 63.07 83.7481 62.29 83.0281 61.27C82.3081 60.23 81.9481 59 81.9481 57.58C81.9481 56.34 82.2381 55.27 82.8181 54.37C83.3981 53.45 84.2181 52.74 85.2781 52.24ZM92.6281 48.31C92.6281 47.49 92.3881 46.86 91.9081 46.42C91.4481 45.96 90.8281 45.73 90.0481 45.73C89.2681 45.73 88.6381 45.96 88.1581 46.42C87.6981 46.88 87.4681 47.52 87.4681 48.34C87.4681 49.12 87.7081 49.74 88.1881 50.2C88.6681 50.64 89.2881 50.86 90.0481 50.86C90.8081 50.86 91.4281 50.63 91.9081 50.17C92.3881 49.71 92.6281 49.09 92.6281 48.31ZM90.0481 54.46C89.1081 54.46 88.3481 54.72 87.7681 55.24C87.1881 55.74 86.8981 56.44 86.8981 57.34C86.8981 58.18 87.1781 58.87 87.7381 59.41C88.3181 59.95 89.0881 60.22 90.0481 60.22C91.0081 60.22 91.7581 59.95 92.2981 59.41C92.8581 58.87 93.1381 58.18 93.1381 57.34C93.1381 56.46 92.8481 55.76 92.2681 55.24C91.7081 54.72 90.9681 54.46 90.0481 54.46ZM106.979 55.6C106.979 53.88 107.299 52.37 107.939 51.07C108.599 49.77 109.489 48.77 110.609 48.07C111.729 47.37 112.979 47.02 114.359 47.02C115.539 47.02 116.569 47.26 117.449 47.74C118.349 48.22 119.039 48.85 119.519 49.63V47.26H124.649V64H119.519V61.63C119.019 62.41 118.319 63.04 117.419 63.52C116.539 64 115.509 64.24 114.329 64.24C112.969 64.24 111.729 63.89 110.609 63.19C109.489 62.47 108.599 61.46 107.939 60.16C107.299 58.84 106.979 57.32 106.979 55.6ZM119.519 55.63C119.519 54.35 119.159 53.34 118.439 52.6C117.739 51.86 116.879 51.49 115.859 51.49C114.839 51.49 113.969 51.86 113.249 52.6C112.549 53.32 112.199 54.32 112.199 55.6C112.199 56.88 112.549 57.9 113.249 58.66C113.969 59.4 114.839 59.77 115.859 59.77C116.879 59.77 117.739 59.4 118.439 58.66C119.159 57.92 119.519 56.91 119.519 55.63ZM133.49 41.8V64H128.36V41.8H133.49ZM139.788 45.52C138.888 45.52 138.148 45.26 137.568 44.74C137.008 44.2 136.728 43.54 136.728 42.76C136.728 41.96 137.008 41.3 137.568 40.78C138.148 40.24 138.888 39.97 139.788 39.97C140.668 39.97 141.388 40.24 141.948 40.78C142.528 41.3 142.818 41.96 142.818 42.76C142.818 43.54 142.528 44.2 141.948 44.74C141.388 45.26 140.668 45.52 139.788 45.52ZM142.338 47.26V64H137.208V47.26H142.338ZM167.415 47.08C169.495 47.08 171.145 47.71 172.365 48.97C173.605 50.23 174.225 51.98 174.225 54.22V64H169.125V54.91C169.125 53.83 168.835 53 168.255 52.42C167.695 51.82 166.915 51.52 165.915 51.52C164.915 51.52 164.125 51.82 163.545 52.42C162.985 53 162.705 53.83 162.705 54.91V64H157.605V54.91C157.605 53.83 157.315 53 156.735 52.42C156.175 51.82 155.395 51.52 154.395 51.52C153.395 51.52 152.605 51.82 152.025 52.42C151.465 53 151.185 53.83 151.185 54.91V64H146.055V47.26H151.185V49.36C151.705 48.66 152.385 48.11 153.225 47.71C154.065 47.29 155.015 47.08 156.075 47.08C157.335 47.08 158.455 47.35 159.435 47.89C160.435 48.43 161.215 49.2 161.775 50.2C162.355 49.28 163.145 48.53 164.145 47.95C165.145 47.37 166.235 47.08 167.415 47.08ZM193.593 55.36C193.593 55.84 193.563 56.34 193.503 56.86H181.893C181.973 57.9 182.303 58.7 182.883 59.26C183.483 59.8 184.213 60.07 185.073 60.07C186.353 60.07 187.243 59.53 187.743 58.45H193.203C192.923 59.55 192.413 60.54 191.673 61.42C190.953 62.3 190.043 62.99 188.943 63.49C187.843 63.99 186.613 64.24 185.253 64.24C183.613 64.24 182.153 63.89 180.873 63.19C179.593 62.49 178.593 61.49 177.873 60.19C177.153 58.89 176.793 57.37 176.793 55.63C176.793 53.89 177.143 52.37 177.843 51.07C178.563 49.77 179.563 48.77 180.843 48.07C182.123 47.37 183.593 47.02 185.253 47.02C186.873 47.02 188.313 47.36 189.573 48.04C190.833 48.72 191.813 49.69 192.513 50.95C193.233 52.21 193.593 53.68 193.593 55.36ZM188.343 54.01C188.343 53.13 188.043 52.43 187.443 51.91C186.843 51.39 186.093 51.13 185.193 51.13C184.333 51.13 183.603 51.38 183.003 51.88C182.423 52.38 182.063 53.09 181.923 54.01H188.343ZM206.499 47.08C208.459 47.08 210.019 47.72 211.179 49C212.359 50.26 212.949 52 212.949 54.22V64H207.849V54.91C207.849 53.79 207.559 52.92 206.979 52.3C206.399 51.68 205.619 51.37 204.639 51.37C203.659 51.37 202.879 51.68 202.299 52.3C201.719 52.92 201.429 53.79 201.429 54.91V64H196.299V47.26H201.429V49.48C201.949 48.74 202.649 48.16 203.529 47.74C204.409 47.3 205.399 47.08 206.499 47.08ZM225.844 59.65V64H223.234C221.374 64 219.924 63.55 218.884 62.65C217.844 61.73 217.324 60.24 217.324 58.18V51.52H215.284V47.26H217.324V43.18H222.454V47.26H225.814V51.52H222.454V58.24C222.454 58.74 222.574 59.1 222.814 59.32C223.054 59.54 223.454 59.65 224.014 59.65H225.844ZM236.322 64.24C234.682 64.24 233.202 63.89 231.882 63.19C230.582 62.49 229.552 61.49 228.792 60.19C228.052 58.89 227.682 57.37 227.682 55.63C227.682 53.91 228.062 52.4 228.822 51.1C229.582 49.78 230.622 48.77 231.942 48.07C233.262 47.37 234.742 47.02 236.382 47.02C238.022 47.02 239.502 47.37 240.822 48.07C242.142 48.77 243.182 49.78 243.942 51.1C244.702 52.4 245.082 53.91 245.082 55.63C245.082 57.35 244.692 58.87 243.912 60.19C243.152 61.49 242.102 62.49 240.762 63.19C239.442 63.89 237.962 64.24 236.322 64.24ZM236.322 59.8C237.302 59.8 238.132 59.44 238.812 58.72C239.512 58 239.862 56.97 239.862 55.63C239.862 54.29 239.522 53.26 238.842 52.54C238.182 51.82 237.362 51.46 236.382 51.46C235.382 51.46 234.552 51.82 233.892 52.54C233.232 53.24 232.902 54.27 232.902 55.63C232.902 56.97 233.222 58 233.862 58.72C234.522 59.44 235.342 59.8 236.322 59.8ZM254.613 64.24C253.153 64.24 251.853 63.99 250.713 63.49C249.573 62.99 248.673 62.31 248.013 61.45C247.353 60.57 246.983 59.59 246.903 58.51H251.973C252.033 59.09 252.303 59.56 252.783 59.92C253.263 60.28 253.853 60.46 254.553 60.46C255.193 60.46 255.683 60.34 256.023 60.1C256.383 59.84 256.563 59.51 256.563 59.11C256.563 58.63 256.313 58.28 255.813 58.06C255.313 57.82 254.503 57.56 253.383 57.28C252.183 57 251.183 56.71 250.383 56.41C249.583 56.09 248.893 55.6 248.313 54.94C247.733 54.26 247.443 53.35 247.443 52.21C247.443 51.25 247.703 50.38 248.223 49.6C248.763 48.8 249.543 48.17 250.563 47.71C251.603 47.25 252.833 47.02 254.253 47.02C256.353 47.02 258.003 47.54 259.203 48.58C260.423 49.62 261.123 51 261.303 52.72H256.563C256.483 52.14 256.223 51.68 255.783 51.34C255.363 51 254.803 50.83 254.103 50.83C253.503 50.83 253.043 50.95 252.723 51.19C252.403 51.41 252.243 51.72 252.243 52.12C252.243 52.6 252.493 52.96 252.993 53.2C253.513 53.44 254.313 53.68 255.393 53.92C256.633 54.24 257.643 54.56 258.423 54.88C259.203 55.18 259.883 55.68 260.463 56.38C261.063 57.06 261.373 57.98 261.393 59.14C261.393 60.12 261.113 61 260.553 61.78C260.013 62.54 259.223 63.14 258.183 63.58C257.163 64.02 255.973 64.24 254.613 64.24ZM65.0818 94.63C65.5818 93.85 66.2718 93.22 67.1518 92.74C68.0318 92.26 69.0618 92.02 70.2418 92.02C71.6218 92.02 72.8718 92.37 73.9918 93.07C75.1118 93.77 75.9918 94.77 76.6318 96.07C77.2918 97.37 77.6218 98.88 77.6218 100.6C77.6218 102.32 77.2918 103.84 76.6318 105.16C75.9918 106.46 75.1118 107.47 73.9918 108.19C72.8718 108.89 71.6218 109.24 70.2418 109.24C69.0818 109.24 68.0518 109 67.1518 108.52C66.2718 108.04 65.5818 107.42 65.0818 106.66V116.98H59.9518V92.26H65.0818V94.63ZM72.4018 100.6C72.4018 99.32 72.0418 98.32 71.3218 97.6C70.6218 96.86 69.7518 96.49 68.7118 96.49C67.6918 96.49 66.8218 96.86 66.1018 97.6C65.4018 98.34 65.0518 99.35 65.0518 100.63C65.0518 101.91 65.4018 102.92 66.1018 103.66C66.8218 104.4 67.6918 104.77 68.7118 104.77C69.7318 104.77 70.6018 104.4 71.3218 103.66C72.0418 102.9 72.4018 101.88 72.4018 100.6ZM85.4431 95.05C86.0431 94.13 86.7931 93.41 87.6931 92.89C88.5931 92.35 89.5931 92.08 90.6931 92.08V97.51H89.2831C88.0031 97.51 87.0431 97.79 86.4031 98.35C85.7631 98.89 85.4431 99.85 85.4431 101.23V109H80.3131V92.26H85.4431V95.05ZM100.765 109.24C99.1252 109.24 97.6452 108.89 96.3252 108.19C95.0252 107.49 93.9952 106.49 93.2352 105.19C92.4952 103.89 92.1252 102.37 92.1252 100.63C92.1252 98.91 92.5052 97.4 93.2652 96.1C94.0252 94.78 95.0652 93.77 96.3852 93.07C97.7052 92.37 99.1852 92.02 100.825 92.02C102.465 92.02 103.945 92.37 105.265 93.07C106.585 93.77 107.625 94.78 108.385 96.1C109.145 97.4 109.525 98.91 109.525 100.63C109.525 102.35 109.135 103.87 108.355 105.19C107.595 106.49 106.545 107.49 105.205 108.19C103.885 108.89 102.405 109.24 100.765 109.24ZM100.765 104.8C101.745 104.8 102.575 104.44 103.255 103.72C103.955 103 104.305 101.97 104.305 100.63C104.305 99.29 103.965 98.26 103.285 97.54C102.625 96.82 101.805 96.46 100.825 96.46C99.8252 96.46 98.9952 96.82 98.3352 97.54C97.6752 98.24 97.3452 99.27 97.3452 100.63C97.3452 101.97 97.6652 103 98.3052 103.72C98.9652 104.44 99.7852 104.8 100.765 104.8ZM114.827 90.52C113.927 90.52 113.187 90.26 112.607 89.74C112.047 89.2 111.767 88.54 111.767 87.76C111.767 86.96 112.047 86.3 112.607 85.78C113.187 85.24 113.927 84.97 114.827 84.97C115.707 84.97 116.427 85.24 116.987 85.78C117.567 86.3 117.857 86.96 117.857 87.76C117.857 88.54 117.567 89.2 116.987 89.74C116.427 90.26 115.707 90.52 114.827 90.52ZM117.377 92.26V109H112.247V92.26H117.377ZM126.224 94.63C126.704 93.85 127.394 93.22 128.294 92.74C129.194 92.26 130.224 92.02 131.384 92.02C132.764 92.02 134.014 92.37 135.134 93.07C136.254 93.77 137.134 94.77 137.774 96.07C138.434 97.37 138.764 98.88 138.764 100.6C138.764 102.32 138.434 103.84 137.774 105.16C137.134 106.46 136.254 107.47 135.134 108.19C134.014 108.89 132.764 109.24 131.384 109.24C130.204 109.24 129.174 109.01 128.294 108.55C127.414 108.07 126.724 107.44 126.224 106.66V109H121.094V86.8H126.224V94.63ZM133.544 100.6C133.544 99.32 133.184 98.32 132.464 97.6C131.764 96.86 130.894 96.49 129.854 96.49C128.834 96.49 127.964 96.86 127.244 97.6C126.544 98.34 126.194 99.35 126.194 100.63C126.194 101.91 126.544 102.92 127.244 103.66C127.964 104.4 128.834 104.77 129.854 104.77C130.874 104.77 131.744 104.4 132.464 103.66C133.184 102.9 133.544 101.88 133.544 100.6ZM144.036 90.52C143.136 90.52 142.396 90.26 141.816 89.74C141.256 89.2 140.976 88.54 140.976 87.76C140.976 86.96 141.256 86.3 141.816 85.78C142.396 85.24 143.136 84.97 144.036 84.97C144.916 84.97 145.636 85.24 146.196 85.78C146.776 86.3 147.066 86.96 147.066 87.76C147.066 88.54 146.776 89.2 146.196 89.74C145.636 90.26 144.916 90.52 144.036 90.52ZM146.586 92.26V109H141.456V92.26H146.586ZM149.283 100.6C149.283 98.88 149.603 97.37 150.243 96.07C150.903 94.77 151.793 93.77 152.913 93.07C154.033 92.37 155.283 92.02 156.663 92.02C157.763 92.02 158.763 92.25 159.663 92.71C160.583 93.17 161.303 93.79 161.823 94.57V86.8H166.953V109H161.823V106.6C161.343 107.4 160.653 108.04 159.753 108.52C158.873 109 157.843 109.24 156.663 109.24C155.283 109.24 154.033 108.89 152.913 108.19C151.793 107.47 150.903 106.46 150.243 105.16C149.603 103.84 149.283 102.32 149.283 100.6ZM161.823 100.63C161.823 99.35 161.463 98.34 160.743 97.6C160.043 96.86 159.183 96.49 158.163 96.49C157.143 96.49 156.273 96.86 155.553 97.6C154.853 98.32 154.503 99.32 154.503 100.6C154.503 101.88 154.853 102.9 155.553 103.66C156.273 104.4 157.143 104.77 158.163 104.77C159.183 104.77 160.043 104.4 160.743 103.66C161.463 102.92 161.823 101.91 161.823 100.63ZM178.285 109.24C176.645 109.24 175.165 108.89 173.845 108.19C172.545 107.49 171.515 106.49 170.755 105.19C170.015 103.89 169.645 102.37 169.645 100.63C169.645 98.91 170.025 97.4 170.785 96.1C171.545 94.78 172.585 93.77 173.905 93.07C175.225 92.37 176.705 92.02 178.345 92.02C179.985 92.02 181.465 92.37 182.785 93.07C184.105 93.77 185.145 94.78 185.905 96.1C186.665 97.4 187.045 98.91 187.045 100.63C187.045 102.35 186.655 103.87 185.875 105.19C185.115 106.49 184.065 107.49 182.725 108.19C181.405 108.89 179.925 109.24 178.285 109.24ZM178.285 104.8C179.265 104.8 180.095 104.44 180.775 103.72C181.475 103 181.825 101.97 181.825 100.63C181.825 99.29 181.485 98.26 180.805 97.54C180.145 96.82 179.325 96.46 178.345 96.46C177.345 96.46 176.515 96.82 175.855 97.54C175.195 98.24 174.865 99.27 174.865 100.63C174.865 101.97 175.185 103 175.825 103.72C176.485 104.44 177.305 104.8 178.285 104.8ZM196.576 109.24C195.116 109.24 193.816 108.99 192.676 108.49C191.536 107.99 190.636 107.31 189.976 106.45C189.316 105.57 188.946 104.59 188.866 103.51H193.936C193.996 104.09 194.266 104.56 194.746 104.92C195.226 105.28 195.816 105.46 196.516 105.46C197.156 105.46 197.646 105.34 197.986 105.1C198.346 104.84 198.526 104.51 198.526 104.11C198.526 103.63 198.276 103.28 197.776 103.06C197.276 102.82 196.466 102.56 195.346 102.28C194.146 102 193.146 101.71 192.346 101.41C191.546 101.09 190.856 100.6 190.276 99.94C189.696 99.26 189.406 98.35 189.406 97.21C189.406 96.25 189.666 95.38 190.186 94.6C190.726 93.8 191.506 93.17 192.526 92.71C193.566 92.25 194.796 92.02 196.216 92.02C198.316 92.02 199.966 92.54 201.166 93.58C202.386 94.62 203.086 96 203.266 97.72H198.526C198.446 97.14 198.186 96.68 197.746 96.34C197.326 96 196.766 95.83 196.066 95.83C195.466 95.83 195.006 95.95 194.686 96.19C194.366 96.41 194.206 96.72 194.206 97.12C194.206 97.6 194.456 97.96 194.956 98.2C195.476 98.44 196.276 98.68 197.356 98.92C198.596 99.24 199.606 99.56 200.386 99.88C201.166 100.18 201.846 100.68 202.426 101.38C203.026 102.06 203.336 102.98 203.356 104.14C203.356 105.12 203.076 106 202.516 106.78C201.976 107.54 201.186 108.14 200.146 108.58C199.126 109.02 197.936 109.24 196.576 109.24ZM217.982 94.63C218.482 93.85 219.172 93.22 220.052 92.74C220.932 92.26 221.962 92.02 223.142 92.02C224.522 92.02 225.772 92.37 226.892 93.07C228.012 93.77 228.892 94.77 229.532 96.07C230.192 97.37 230.522 98.88 230.522 100.6C230.522 102.32 230.192 103.84 229.532 105.16C228.892 106.46 228.012 107.47 226.892 108.19C225.772 108.89 224.522 109.24 223.142 109.24C221.982 109.24 220.952 109 220.052 108.52C219.172 108.04 218.482 107.42 217.982 106.66V116.98H212.852V92.26H217.982V94.63ZM225.302 100.6C225.302 99.32 224.942 98.32 224.222 97.6C223.522 96.86 222.652 96.49 221.612 96.49C220.592 96.49 219.722 96.86 219.002 97.6C218.302 98.34 217.952 99.35 217.952 100.63C217.952 101.91 218.302 102.92 219.002 103.66C219.722 104.4 220.592 104.77 221.612 104.77C222.632 104.77 223.502 104.4 224.222 103.66C224.942 102.9 225.302 101.88 225.302 100.6ZM232.194 100.6C232.194 98.88 232.514 97.37 233.154 96.07C233.814 94.77 234.704 93.77 235.824 93.07C236.944 92.37 238.194 92.02 239.574 92.02C240.754 92.02 241.784 92.26 242.664 92.74C243.564 93.22 244.254 93.85 244.734 94.63V92.26H249.864V109H244.734V106.63C244.234 107.41 243.534 108.04 242.634 108.52C241.754 109 240.724 109.24 239.544 109.24C238.184 109.24 236.944 108.89 235.824 108.19C234.704 107.47 233.814 106.46 233.154 105.16C232.514 103.84 232.194 102.32 232.194 100.6ZM244.734 100.63C244.734 99.35 244.374 98.34 243.654 97.6C242.954 96.86 242.094 96.49 241.074 96.49C240.054 96.49 239.184 96.86 238.464 97.6C237.764 98.32 237.414 99.32 237.414 100.6C237.414 101.88 237.764 102.9 238.464 103.66C239.184 104.4 240.054 104.77 241.074 104.77C242.094 104.77 242.954 104.4 243.654 103.66C244.374 102.92 244.734 101.91 244.734 100.63ZM258.705 95.05C259.305 94.13 260.055 93.41 260.955 92.89C261.855 92.35 262.855 92.08 263.955 92.08V97.51H262.545C261.265 97.51 260.305 97.79 259.665 98.35C259.025 98.89 258.705 99.85 258.705 101.23V109H253.575V92.26H258.705V95.05ZM265.387 100.6C265.387 98.88 265.707 97.37 266.347 96.07C267.007 94.77 267.897 93.77 269.017 93.07C270.137 92.37 271.387 92.02 272.767 92.02C273.947 92.02 274.977 92.26 275.857 92.74C276.757 93.22 277.447 93.85 277.927 94.63V92.26H283.057V109H277.927V106.63C277.427 107.41 276.727 108.04 275.827 108.52C274.947 109 273.917 109.24 272.737 109.24C271.377 109.24 270.137 108.89 269.017 108.19C267.897 107.47 267.007 106.46 266.347 105.16C265.707 103.84 265.387 102.32 265.387 100.6ZM277.927 100.63C277.927 99.35 277.567 98.34 276.847 97.6C276.147 96.86 275.287 96.49 274.267 96.49C273.247 96.49 272.377 96.86 271.657 97.6C270.957 98.32 270.607 99.32 270.607 100.6C270.607 101.88 270.957 102.9 271.657 103.66C272.377 104.4 273.247 104.77 274.267 104.77C275.287 104.77 276.147 104.4 276.847 103.66C277.567 102.92 277.927 101.91 277.927 100.63ZM93.59 145.63C93.59 143.89 93.94 142.37 94.64 141.07C95.36 139.77 96.35 138.77 97.61 138.07C98.89 137.37 100.35 137.02 101.99 137.02C104.09 137.02 105.84 137.57 107.24 138.67C108.66 139.77 109.59 141.32 110.03 143.32H104.57C104.11 142.04 103.22 141.4 101.9 141.4C100.96 141.4 100.21 141.77 99.65 142.51C99.09 143.23 98.81 144.27 98.81 145.63C98.81 146.99 99.09 148.04 99.65 148.78C100.21 149.5 100.96 149.86 101.9 149.86C103.22 149.86 104.11 149.22 104.57 147.94H110.03C109.59 149.9 108.66 151.44 107.24 152.56C105.82 153.68 104.07 154.24 101.99 154.24C100.35 154.24 98.89 153.89 97.61 153.19C96.35 152.49 95.36 151.49 94.64 150.19C93.94 148.89 93.59 147.37 93.59 145.63ZM111.754 145.6C111.754 143.88 112.074 142.37 112.714 141.07C113.374 139.77 114.264 138.77 115.384 138.07C116.504 137.37 117.754 137.02 119.134 137.02C120.314 137.02 121.344 137.26 122.224 137.74C123.124 138.22 123.814 138.85 124.294 139.63V137.26H129.424V154H124.294V151.63C123.794 152.41 123.094 153.04 122.194 153.52C121.314 154 120.284 154.24 119.104 154.24C117.744 154.24 116.504 153.89 115.384 153.19C114.264 152.47 113.374 151.46 112.714 150.16C112.074 148.84 111.754 147.32 111.754 145.6ZM124.294 145.63C124.294 144.35 123.934 143.34 123.214 142.6C122.514 141.86 121.654 141.49 120.634 141.49C119.614 141.49 118.744 141.86 118.024 142.6C117.324 143.32 116.974 144.32 116.974 145.6C116.974 146.88 117.324 147.9 118.024 148.66C118.744 149.4 119.614 149.77 120.634 149.77C121.654 149.77 122.514 149.4 123.214 148.66C123.934 147.92 124.294 146.91 124.294 145.63ZM132.115 145.63C132.115 143.89 132.465 142.37 133.165 141.07C133.885 139.77 134.875 138.77 136.135 138.07C137.415 137.37 138.875 137.02 140.515 137.02C142.615 137.02 144.365 137.57 145.765 138.67C147.185 139.77 148.115 141.32 148.555 143.32H143.095C142.635 142.04 141.745 141.4 140.425 141.4C139.485 141.4 138.735 141.77 138.175 142.51C137.615 143.23 137.335 144.27 137.335 145.63C137.335 146.99 137.615 148.04 138.175 148.78C138.735 149.5 139.485 149.86 140.425 149.86C141.745 149.86 142.635 149.22 143.095 147.94H148.555C148.115 149.9 147.185 151.44 145.765 152.56C144.345 153.68 142.595 154.24 140.515 154.24C138.875 154.24 137.415 153.89 136.135 153.19C134.875 152.49 133.885 151.49 133.165 150.19C132.465 148.89 132.115 147.37 132.115 145.63ZM161.589 137.08C163.509 137.08 165.049 137.72 166.209 139C167.369 140.26 167.949 142 167.949 144.22V154H162.849V144.91C162.849 143.79 162.559 142.92 161.979 142.3C161.399 141.68 160.619 141.37 159.639 141.37C158.659 141.37 157.879 141.68 157.299 142.3C156.719 142.92 156.429 143.79 156.429 144.91V154H151.299V131.8H156.429V139.51C156.949 138.77 157.659 138.18 158.559 137.74C159.459 137.3 160.469 137.08 161.589 137.08ZM179.134 154.24C177.494 154.24 176.014 153.89 174.694 153.19C173.394 152.49 172.364 151.49 171.604 150.19C170.864 148.89 170.494 147.37 170.494 145.63C170.494 143.91 170.874 142.4 171.634 141.1C172.394 139.78 173.434 138.77 174.754 138.07C176.074 137.37 177.554 137.02 179.194 137.02C180.834 137.02 182.314 137.37 183.634 138.07C184.954 138.77 185.994 139.78 186.754 141.1C187.514 142.4 187.894 143.91 187.894 145.63C187.894 147.35 187.504 148.87 186.724 150.19C185.964 151.49 184.914 152.49 183.574 153.19C182.254 153.89 180.774 154.24 179.134 154.24ZM179.134 149.8C180.114 149.8 180.944 149.44 181.624 148.72C182.324 148 182.674 146.97 182.674 145.63C182.674 144.29 182.334 143.26 181.654 142.54C180.994 141.82 180.174 141.46 179.194 141.46C178.194 141.46 177.364 141.82 176.704 142.54C176.044 143.24 175.714 144.27 175.714 145.63C175.714 146.97 176.034 148 176.674 148.72C177.334 149.44 178.154 149.8 179.134 149.8ZM195.746 140.05C196.346 139.13 197.096 138.41 197.996 137.89C198.896 137.35 199.896 137.08 200.996 137.08V142.51H199.586C198.306 142.51 197.346 142.79 196.706 143.35C196.066 143.89 195.746 144.85 195.746 146.23V154H190.616V137.26H195.746V140.05ZM208.578 140.05C209.178 139.13 209.928 138.41 210.828 137.89C211.728 137.35 212.728 137.08 213.828 137.08V142.51H212.418C211.138 142.51 210.178 142.79 209.538 143.35C208.898 143.89 208.578 144.85 208.578 146.23V154H203.448V137.26H208.578V140.05ZM223.9 154.24C222.26 154.24 220.78 153.89 219.46 153.19C218.16 152.49 217.13 151.49 216.37 150.19C215.63 148.89 215.26 147.37 215.26 145.63C215.26 143.91 215.64 142.4 216.4 141.1C217.16 139.78 218.2 138.77 219.52 138.07C220.84 137.37 222.32 137.02 223.96 137.02C225.6 137.02 227.08 137.37 228.4 138.07C229.72 138.77 230.76 139.78 231.52 141.1C232.28 142.4 232.66 143.91 232.66 145.63C232.66 147.35 232.27 148.87 231.49 150.19C230.73 151.49 229.68 152.49 228.34 153.19C227.02 153.89 225.54 154.24 223.9 154.24ZM223.9 149.8C224.88 149.8 225.71 149.44 226.39 148.72C227.09 148 227.44 146.97 227.44 145.63C227.44 144.29 227.1 143.26 226.42 142.54C225.76 141.82 224.94 141.46 223.96 141.46C222.96 141.46 222.13 141.82 221.47 142.54C220.81 143.24 220.48 144.27 220.48 145.63C220.48 146.97 220.8 148 221.44 148.72C222.1 149.44 222.92 149.8 223.9 149.8ZM242.191 154.24C240.731 154.24 239.431 153.99 238.291 153.49C237.151 152.99 236.251 152.31 235.591 151.45C234.931 150.57 234.561 149.59 234.481 148.51H239.551C239.611 149.09 239.881 149.56 240.361 149.92C240.841 150.28 241.431 150.46 242.131 150.46C242.771 150.46 243.261 150.34 243.601 150.1C243.961 149.84 244.141 149.51 244.141 149.11C244.141 148.63 243.891 148.28 243.391 148.06C242.891 147.82 242.081 147.56 240.961 147.28C239.761 147 238.761 146.71 237.961 146.41C237.161 146.09 236.471 145.6 235.891 144.94C235.311 144.26 235.021 143.35 235.021 142.21C235.021 141.25 235.281 140.38 235.801 139.6C236.341 138.8 237.121 138.17 238.141 137.71C239.181 137.25 240.411 137.02 241.831 137.02C243.931 137.02 245.581 137.54 246.781 138.58C248.001 139.62 248.701 141 248.881 142.72H244.141C244.061 142.14 243.801 141.68 243.361 141.34C242.941 141 242.381 140.83 241.681 140.83C241.081 140.83 240.621 140.95 240.301 141.19C239.981 141.41 239.821 141.72 239.821 142.12C239.821 142.6 240.071 142.96 240.571 143.2C241.091 143.44 241.891 143.68 242.971 143.92C244.211 144.24 245.221 144.56 246.001 144.88C246.781 145.18 247.461 145.68 248.041 146.38C248.641 147.06 248.951 147.98 248.971 149.14C248.971 150.12 248.691 151 248.131 151.78C247.591 152.54 246.801 153.14 245.761 153.58C244.741 154.02 243.551 154.24 242.191 154.24Z" fill="#FFEBEB"/>
</svg>
