<svg width="342" height="196" viewBox="0 0 342 196" fill="none" xmlns="http://www.w3.org/2000/svg">
<rect width="342" height="196" rx="20" fill="#8CCDD0"/>
<path d="M75.4399 46.87V42.1H83.7499V64H78.4099V46.87H75.4399ZM87.2592 52.75C87.2592 49.31 87.9192 46.6 89.2392 44.62C90.5792 42.64 92.7292 41.65 95.6892 41.65C98.6492 41.65 100.789 42.64 102.109 44.62C103.449 46.6 104.119 49.31 104.119 52.75C104.119 56.23 103.449 58.96 102.109 60.94C100.789 62.92 98.6492 63.91 95.6892 63.91C92.7292 63.91 90.5792 62.92 89.2392 60.94C87.9192 58.96 87.2592 56.23 87.2592 52.75ZM99.0792 52.75C99.0792 50.73 98.8592 49.18 98.4192 48.1C97.9792 47 97.0692 46.45 95.6892 46.45C94.3092 46.45 93.3992 47 92.9592 48.1C92.5192 49.18 92.2992 50.73 92.2992 52.75C92.2992 54.11 92.3792 55.24 92.5392 56.14C92.6992 57.02 93.0192 57.74 93.4992 58.3C93.9992 58.84 94.7292 59.11 95.6892 59.11C96.6492 59.11 97.3692 58.84 97.8492 58.3C98.3492 57.74 98.6792 57.02 98.8392 56.14C98.9992 55.24 99.0792 54.11 99.0792 52.75ZM112.677 55.6C112.677 53.88 112.997 52.37 113.637 51.07C114.297 49.77 115.187 48.77 116.307 48.07C117.427 47.37 118.677 47.02 120.057 47.02C121.237 47.02 122.267 47.26 123.147 47.74C124.047 48.22 124.737 48.85 125.217 49.63V47.26H130.347V64H125.217V61.63C124.717 62.41 124.017 63.04 123.117 63.52C122.237 64 121.207 64.24 120.027 64.24C118.667 64.24 117.427 63.89 116.307 63.19C115.187 62.47 114.297 61.46 113.637 60.16C112.997 58.84 112.677 57.32 112.677 55.6ZM125.217 55.63C125.217 54.35 124.857 53.34 124.137 52.6C123.437 51.86 122.577 51.49 121.557 51.49C120.537 51.49 119.667 51.86 118.947 52.6C118.247 53.32 117.897 54.32 117.897 55.6C117.897 56.88 118.247 57.9 118.947 58.66C119.667 59.4 120.537 59.77 121.557 59.77C122.577 59.77 123.437 59.4 124.137 58.66C124.857 57.92 125.217 56.91 125.217 55.63ZM139.188 41.8V64H134.058V41.8H139.188ZM145.486 45.52C144.586 45.52 143.846 45.26 143.266 44.74C142.706 44.2 142.426 43.54 142.426 42.76C142.426 41.96 142.706 41.3 143.266 40.78C143.846 40.24 144.586 39.97 145.486 39.97C146.366 39.97 147.086 40.24 147.646 40.78C148.226 41.3 148.516 41.96 148.516 42.76C148.516 43.54 148.226 44.2 147.646 44.74C147.086 45.26 146.366 45.52 145.486 45.52ZM148.036 47.26V64H142.906V47.26H148.036ZM173.114 47.08C175.194 47.08 176.844 47.71 178.064 48.97C179.304 50.23 179.924 51.98 179.924 54.22V64H174.824V54.91C174.824 53.83 174.534 53 173.954 52.42C173.394 51.82 172.614 51.52 171.614 51.52C170.614 51.52 169.824 51.82 169.244 52.42C168.684 53 168.404 53.83 168.404 54.91V64H163.304V54.91C163.304 53.83 163.014 53 162.434 52.42C161.874 51.82 161.094 51.52 160.094 51.52C159.094 51.52 158.304 51.82 157.724 52.42C157.164 53 156.884 53.83 156.884 54.91V64H151.754V47.26H156.884V49.36C157.404 48.66 158.084 48.11 158.924 47.71C159.764 47.29 160.714 47.08 161.774 47.08C163.034 47.08 164.154 47.35 165.134 47.89C166.134 48.43 166.914 49.2 167.474 50.2C168.054 49.28 168.844 48.53 169.844 47.95C170.844 47.37 171.934 47.08 173.114 47.08ZM199.291 55.36C199.291 55.84 199.261 56.34 199.201 56.86H187.591C187.671 57.9 188.001 58.7 188.581 59.26C189.181 59.8 189.911 60.07 190.771 60.07C192.051 60.07 192.941 59.53 193.441 58.45H198.901C198.621 59.55 198.111 60.54 197.371 61.42C196.651 62.3 195.741 62.99 194.641 63.49C193.541 63.99 192.311 64.24 190.951 64.24C189.311 64.24 187.851 63.89 186.571 63.19C185.291 62.49 184.291 61.49 183.571 60.19C182.851 58.89 182.491 57.37 182.491 55.63C182.491 53.89 182.841 52.37 183.541 51.07C184.261 49.77 185.261 48.77 186.541 48.07C187.821 47.37 189.291 47.02 190.951 47.02C192.571 47.02 194.011 47.36 195.271 48.04C196.531 48.72 197.511 49.69 198.211 50.95C198.931 52.21 199.291 53.68 199.291 55.36ZM194.041 54.01C194.041 53.13 193.741 52.43 193.141 51.91C192.541 51.39 191.791 51.13 190.891 51.13C190.031 51.13 189.301 51.38 188.701 51.88C188.121 52.38 187.761 53.09 187.621 54.01H194.041ZM212.198 47.08C214.158 47.08 215.718 47.72 216.878 49C218.058 50.26 218.648 52 218.648 54.22V64H213.548V54.91C213.548 53.79 213.258 52.92 212.678 52.3C212.098 51.68 211.318 51.37 210.338 51.37C209.358 51.37 208.578 51.68 207.998 52.3C207.418 52.92 207.128 53.79 207.128 54.91V64H201.998V47.26H207.128V49.48C207.648 48.74 208.348 48.16 209.228 47.74C210.108 47.3 211.098 47.08 212.198 47.08ZM231.543 59.65V64H228.933C227.073 64 225.623 63.55 224.583 62.65C223.543 61.73 223.023 60.24 223.023 58.18V51.52H220.983V47.26H223.023V43.18H228.153V47.26H231.513V51.52H228.153V58.24C228.153 58.74 228.273 59.1 228.513 59.32C228.753 59.54 229.153 59.65 229.713 59.65H231.543ZM242.02 64.24C240.38 64.24 238.9 63.89 237.58 63.19C236.28 62.49 235.25 61.49 234.49 60.19C233.75 58.89 233.38 57.37 233.38 55.63C233.38 53.91 233.76 52.4 234.52 51.1C235.28 49.78 236.32 48.77 237.64 48.07C238.96 47.37 240.44 47.02 242.08 47.02C243.72 47.02 245.2 47.37 246.52 48.07C247.84 48.77 248.88 49.78 249.64 51.1C250.4 52.4 250.78 53.91 250.78 55.63C250.78 57.35 250.39 58.87 249.61 60.19C248.85 61.49 247.8 62.49 246.46 63.19C245.14 63.89 243.66 64.24 242.02 64.24ZM242.02 59.8C243 59.8 243.83 59.44 244.51 58.72C245.21 58 245.56 56.97 245.56 55.63C245.56 54.29 245.22 53.26 244.54 52.54C243.88 51.82 243.06 51.46 242.08 51.46C241.08 51.46 240.25 51.82 239.59 52.54C238.93 53.24 238.6 54.27 238.6 55.63C238.6 56.97 238.92 58 239.56 58.72C240.22 59.44 241.04 59.8 242.02 59.8ZM260.312 64.24C258.852 64.24 257.552 63.99 256.412 63.49C255.272 62.99 254.372 62.31 253.712 61.45C253.052 60.57 252.682 59.59 252.602 58.51H257.672C257.732 59.09 258.002 59.56 258.482 59.92C258.962 60.28 259.552 60.46 260.252 60.46C260.892 60.46 261.382 60.34 261.722 60.1C262.082 59.84 262.262 59.51 262.262 59.11C262.262 58.63 262.012 58.28 261.512 58.06C261.012 57.82 260.202 57.56 259.082 57.28C257.882 57 256.882 56.71 256.082 56.41C255.282 56.09 254.592 55.6 254.012 54.94C253.432 54.26 253.142 53.35 253.142 52.21C253.142 51.25 253.402 50.38 253.922 49.6C254.462 48.8 255.242 48.17 256.262 47.71C257.302 47.25 258.532 47.02 259.952 47.02C262.052 47.02 263.702 47.54 264.902 48.58C266.122 49.62 266.822 51 267.002 52.72H262.262C262.182 52.14 261.922 51.68 261.482 51.34C261.062 51 260.502 50.83 259.802 50.83C259.202 50.83 258.742 50.95 258.422 51.19C258.102 51.41 257.942 51.72 257.942 52.12C257.942 52.6 258.192 52.96 258.692 53.2C259.212 53.44 260.012 53.68 261.092 53.92C262.332 54.24 263.342 54.56 264.122 54.88C264.902 55.18 265.582 55.68 266.162 56.38C266.762 57.06 267.072 57.98 267.092 59.14C267.092 60.12 266.812 61 266.252 61.78C265.712 62.54 264.922 63.14 263.882 63.58C262.862 64.02 261.672 64.24 260.312 64.24ZM65.0818 94.63C65.5818 93.85 66.2718 93.22 67.1518 92.74C68.0318 92.26 69.0618 92.02 70.2418 92.02C71.6218 92.02 72.8718 92.37 73.9918 93.07C75.1118 93.77 75.9918 94.77 76.6318 96.07C77.2918 97.37 77.6218 98.88 77.6218 100.6C77.6218 102.32 77.2918 103.84 76.6318 105.16C75.9918 106.46 75.1118 107.47 73.9918 108.19C72.8718 108.89 71.6218 109.24 70.2418 109.24C69.0818 109.24 68.0518 109 67.1518 108.52C66.2718 108.04 65.5818 107.42 65.0818 106.66V116.98H59.9518V92.26H65.0818V94.63ZM72.4018 100.6C72.4018 99.32 72.0418 98.32 71.3218 97.6C70.6218 96.86 69.7518 96.49 68.7118 96.49C67.6918 96.49 66.8218 96.86 66.1018 97.6C65.4018 98.34 65.0518 99.35 65.0518 100.63C65.0518 101.91 65.4018 102.92 66.1018 103.66C66.8218 104.4 67.6918 104.77 68.7118 104.77C69.7318 104.77 70.6018 104.4 71.3218 103.66C72.0418 102.9 72.4018 101.88 72.4018 100.6ZM85.4431 95.05C86.0431 94.13 86.7931 93.41 87.6931 92.89C88.5931 92.35 89.5931 92.08 90.6931 92.08V97.51H89.2831C88.0031 97.51 87.0431 97.79 86.4031 98.35C85.7631 98.89 85.4431 99.85 85.4431 101.23V109H80.3131V92.26H85.4431V95.05ZM100.765 109.24C99.1252 109.24 97.6452 108.89 96.3252 108.19C95.0252 107.49 93.9952 106.49 93.2352 105.19C92.4952 103.89 92.1252 102.37 92.1252 100.63C92.1252 98.91 92.5052 97.4 93.2652 96.1C94.0252 94.78 95.0652 93.77 96.3852 93.07C97.7052 92.37 99.1852 92.02 100.825 92.02C102.465 92.02 103.945 92.37 105.265 93.07C106.585 93.77 107.625 94.78 108.385 96.1C109.145 97.4 109.525 98.91 109.525 100.63C109.525 102.35 109.135 103.87 108.355 105.19C107.595 106.49 106.545 107.49 105.205 108.19C103.885 108.89 102.405 109.24 100.765 109.24ZM100.765 104.8C101.745 104.8 102.575 104.44 103.255 103.72C103.955 103 104.305 101.97 104.305 100.63C104.305 99.29 103.965 98.26 103.285 97.54C102.625 96.82 101.805 96.46 100.825 96.46C99.8252 96.46 98.9952 96.82 98.3352 97.54C97.6752 98.24 97.3452 99.27 97.3452 100.63C97.3452 101.97 97.6652 103 98.3052 103.72C98.9652 104.44 99.7852 104.8 100.765 104.8ZM114.827 90.52C113.927 90.52 113.187 90.26 112.607 89.74C112.047 89.2 111.767 88.54 111.767 87.76C111.767 86.96 112.047 86.3 112.607 85.78C113.187 85.24 113.927 84.97 114.827 84.97C115.707 84.97 116.427 85.24 116.987 85.78C117.567 86.3 117.857 86.96 117.857 87.76C117.857 88.54 117.567 89.2 116.987 89.74C116.427 90.26 115.707 90.52 114.827 90.52ZM117.377 92.26V109H112.247V92.26H117.377ZM126.224 94.63C126.704 93.85 127.394 93.22 128.294 92.74C129.194 92.26 130.224 92.02 131.384 92.02C132.764 92.02 134.014 92.37 135.134 93.07C136.254 93.77 137.134 94.77 137.774 96.07C138.434 97.37 138.764 98.88 138.764 100.6C138.764 102.32 138.434 103.84 137.774 105.16C137.134 106.46 136.254 107.47 135.134 108.19C134.014 108.89 132.764 109.24 131.384 109.24C130.204 109.24 129.174 109.01 128.294 108.55C127.414 108.07 126.724 107.44 126.224 106.66V109H121.094V86.8H126.224V94.63ZM133.544 100.6C133.544 99.32 133.184 98.32 132.464 97.6C131.764 96.86 130.894 96.49 129.854 96.49C128.834 96.49 127.964 96.86 127.244 97.6C126.544 98.34 126.194 99.35 126.194 100.63C126.194 101.91 126.544 102.92 127.244 103.66C127.964 104.4 128.834 104.77 129.854 104.77C130.874 104.77 131.744 104.4 132.464 103.66C133.184 102.9 133.544 101.88 133.544 100.6ZM144.036 90.52C143.136 90.52 142.396 90.26 141.816 89.74C141.256 89.2 140.976 88.54 140.976 87.76C140.976 86.96 141.256 86.3 141.816 85.78C142.396 85.24 143.136 84.97 144.036 84.97C144.916 84.97 145.636 85.24 146.196 85.78C146.776 86.3 147.066 86.96 147.066 87.76C147.066 88.54 146.776 89.2 146.196 89.74C145.636 90.26 144.916 90.52 144.036 90.52ZM146.586 92.26V109H141.456V92.26H146.586ZM149.283 100.6C149.283 98.88 149.603 97.37 150.243 96.07C150.903 94.77 151.793 93.77 152.913 93.07C154.033 92.37 155.283 92.02 156.663 92.02C157.763 92.02 158.763 92.25 159.663 92.71C160.583 93.17 161.303 93.79 161.823 94.57V86.8H166.953V109H161.823V106.6C161.343 107.4 160.653 108.04 159.753 108.52C158.873 109 157.843 109.24 156.663 109.24C155.283 109.24 154.033 108.89 152.913 108.19C151.793 107.47 150.903 106.46 150.243 105.16C149.603 103.84 149.283 102.32 149.283 100.6ZM161.823 100.63C161.823 99.35 161.463 98.34 160.743 97.6C160.043 96.86 159.183 96.49 158.163 96.49C157.143 96.49 156.273 96.86 155.553 97.6C154.853 98.32 154.503 99.32 154.503 100.6C154.503 101.88 154.853 102.9 155.553 103.66C156.273 104.4 157.143 104.77 158.163 104.77C159.183 104.77 160.043 104.4 160.743 103.66C161.463 102.92 161.823 101.91 161.823 100.63ZM178.285 109.24C176.645 109.24 175.165 108.89 173.845 108.19C172.545 107.49 171.515 106.49 170.755 105.19C170.015 103.89 169.645 102.37 169.645 100.63C169.645 98.91 170.025 97.4 170.785 96.1C171.545 94.78 172.585 93.77 173.905 93.07C175.225 92.37 176.705 92.02 178.345 92.02C179.985 92.02 181.465 92.37 182.785 93.07C184.105 93.77 185.145 94.78 185.905 96.1C186.665 97.4 187.045 98.91 187.045 100.63C187.045 102.35 186.655 103.87 185.875 105.19C185.115 106.49 184.065 107.49 182.725 108.19C181.405 108.89 179.925 109.24 178.285 109.24ZM178.285 104.8C179.265 104.8 180.095 104.44 180.775 103.72C181.475 103 181.825 101.97 181.825 100.63C181.825 99.29 181.485 98.26 180.805 97.54C180.145 96.82 179.325 96.46 178.345 96.46C177.345 96.46 176.515 96.82 175.855 97.54C175.195 98.24 174.865 99.27 174.865 100.63C174.865 101.97 175.185 103 175.825 103.72C176.485 104.44 177.305 104.8 178.285 104.8ZM196.576 109.24C195.116 109.24 193.816 108.99 192.676 108.49C191.536 107.99 190.636 107.31 189.976 106.45C189.316 105.57 188.946 104.59 188.866 103.51H193.936C193.996 104.09 194.266 104.56 194.746 104.92C195.226 105.28 195.816 105.46 196.516 105.46C197.156 105.46 197.646 105.34 197.986 105.1C198.346 104.84 198.526 104.51 198.526 104.11C198.526 103.63 198.276 103.28 197.776 103.06C197.276 102.82 196.466 102.56 195.346 102.28C194.146 102 193.146 101.71 192.346 101.41C191.546 101.09 190.856 100.6 190.276 99.94C189.696 99.26 189.406 98.35 189.406 97.21C189.406 96.25 189.666 95.38 190.186 94.6C190.726 93.8 191.506 93.17 192.526 92.71C193.566 92.25 194.796 92.02 196.216 92.02C198.316 92.02 199.966 92.54 201.166 93.58C202.386 94.62 203.086 96 203.266 97.72H198.526C198.446 97.14 198.186 96.68 197.746 96.34C197.326 96 196.766 95.83 196.066 95.83C195.466 95.83 195.006 95.95 194.686 96.19C194.366 96.41 194.206 96.72 194.206 97.12C194.206 97.6 194.456 97.96 194.956 98.2C195.476 98.44 196.276 98.68 197.356 98.92C198.596 99.24 199.606 99.56 200.386 99.88C201.166 100.18 201.846 100.68 202.426 101.38C203.026 102.06 203.336 102.98 203.356 104.14C203.356 105.12 203.076 106 202.516 106.78C201.976 107.54 201.186 108.14 200.146 108.58C199.126 109.02 197.936 109.24 196.576 109.24ZM217.982 94.63C218.482 93.85 219.172 93.22 220.052 92.74C220.932 92.26 221.962 92.02 223.142 92.02C224.522 92.02 225.772 92.37 226.892 93.07C228.012 93.77 228.892 94.77 229.532 96.07C230.192 97.37 230.522 98.88 230.522 100.6C230.522 102.32 230.192 103.84 229.532 105.16C228.892 106.46 228.012 107.47 226.892 108.19C225.772 108.89 224.522 109.24 223.142 109.24C221.982 109.24 220.952 109 220.052 108.52C219.172 108.04 218.482 107.42 217.982 106.66V116.98H212.852V92.26H217.982V94.63ZM225.302 100.6C225.302 99.32 224.942 98.32 224.222 97.6C223.522 96.86 222.652 96.49 221.612 96.49C220.592 96.49 219.722 96.86 219.002 97.6C218.302 98.34 217.952 99.35 217.952 100.63C217.952 101.91 218.302 102.92 219.002 103.66C219.722 104.4 220.592 104.77 221.612 104.77C222.632 104.77 223.502 104.4 224.222 103.66C224.942 102.9 225.302 101.88 225.302 100.6ZM232.194 100.6C232.194 98.88 232.514 97.37 233.154 96.07C233.814 94.77 234.704 93.77 235.824 93.07C236.944 92.37 238.194 92.02 239.574 92.02C240.754 92.02 241.784 92.26 242.664 92.74C243.564 93.22 244.254 93.85 244.734 94.63V92.26H249.864V109H244.734V106.63C244.234 107.41 243.534 108.04 242.634 108.52C241.754 109 240.724 109.24 239.544 109.24C238.184 109.24 236.944 108.89 235.824 108.19C234.704 107.47 233.814 106.46 233.154 105.16C232.514 103.84 232.194 102.32 232.194 100.6ZM244.734 100.63C244.734 99.35 244.374 98.34 243.654 97.6C242.954 96.86 242.094 96.49 241.074 96.49C240.054 96.49 239.184 96.86 238.464 97.6C237.764 98.32 237.414 99.32 237.414 100.6C237.414 101.88 237.764 102.9 238.464 103.66C239.184 104.4 240.054 104.77 241.074 104.77C242.094 104.77 242.954 104.4 243.654 103.66C244.374 102.92 244.734 101.91 244.734 100.63ZM258.705 95.05C259.305 94.13 260.055 93.41 260.955 92.89C261.855 92.35 262.855 92.08 263.955 92.08V97.51H262.545C261.265 97.51 260.305 97.79 259.665 98.35C259.025 98.89 258.705 99.85 258.705 101.23V109H253.575V92.26H258.705V95.05ZM265.387 100.6C265.387 98.88 265.707 97.37 266.347 96.07C267.007 94.77 267.897 93.77 269.017 93.07C270.137 92.37 271.387 92.02 272.767 92.02C273.947 92.02 274.977 92.26 275.857 92.74C276.757 93.22 277.447 93.85 277.927 94.63V92.26H283.057V109H277.927V106.63C277.427 107.41 276.727 108.04 275.827 108.52C274.947 109 273.917 109.24 272.737 109.24C271.377 109.24 270.137 108.89 269.017 108.19C267.897 107.47 267.007 106.46 266.347 105.16C265.707 103.84 265.387 102.32 265.387 100.6ZM277.927 100.63C277.927 99.35 277.567 98.34 276.847 97.6C276.147 96.86 275.287 96.49 274.267 96.49C273.247 96.49 272.377 96.86 271.657 97.6C270.957 98.32 270.607 99.32 270.607 100.6C270.607 101.88 270.957 102.9 271.657 103.66C272.377 104.4 273.247 104.77 274.267 104.77C275.287 104.77 276.147 104.4 276.847 103.66C277.567 102.92 277.927 101.91 277.927 100.63ZM135.35 137.02C136.53 137.02 137.56 137.26 138.44 137.74C139.34 138.22 140.03 138.85 140.51 139.63V137.26H145.64V153.97C145.64 155.51 145.33 156.9 144.71 158.14C144.11 159.4 143.18 160.4 141.92 161.14C140.68 161.88 139.13 162.25 137.27 162.25C134.79 162.25 132.78 161.66 131.24 160.48C129.7 159.32 128.82 157.74 128.6 155.74H133.67C133.83 156.38 134.21 156.88 134.81 157.24C135.41 157.62 136.15 157.81 137.03 157.81C138.09 157.81 138.93 157.5 139.55 156.88C140.19 156.28 140.51 155.31 140.51 153.97V151.6C140.01 152.38 139.32 153.02 138.44 153.52C137.56 154 136.53 154.24 135.35 154.24C133.97 154.24 132.72 153.89 131.6 153.19C130.48 152.47 129.59 151.46 128.93 150.16C128.29 148.84 127.97 147.32 127.97 145.6C127.97 143.88 128.29 142.37 128.93 141.07C129.59 139.77 130.48 138.77 131.6 138.07C132.72 137.37 133.97 137.02 135.35 137.02ZM140.51 145.63C140.51 144.35 140.15 143.34 139.43 142.6C138.73 141.86 137.87 141.49 136.85 141.49C135.83 141.49 134.96 141.86 134.24 142.6C133.54 143.32 133.19 144.32 133.19 145.6C133.19 146.88 133.54 147.9 134.24 148.66C134.96 149.4 135.83 149.77 136.85 149.77C137.87 149.77 138.73 149.4 139.43 148.66C140.15 147.92 140.51 146.91 140.51 145.63ZM148.331 145.6C148.331 143.88 148.651 142.37 149.291 141.07C149.951 139.77 150.841 138.77 151.961 138.07C153.081 137.37 154.331 137.02 155.711 137.02C156.891 137.02 157.921 137.26 158.801 137.74C159.701 138.22 160.391 138.85 160.871 139.63V137.26H166.001V154H160.871V151.63C160.371 152.41 159.671 153.04 158.771 153.52C157.891 154 156.861 154.24 155.681 154.24C154.321 154.24 153.081 153.89 151.961 153.19C150.841 152.47 149.951 151.46 149.291 150.16C148.651 148.84 148.331 147.32 148.331 145.6ZM160.871 145.63C160.871 144.35 160.511 143.34 159.791 142.6C159.091 141.86 158.231 141.49 157.211 141.49C156.191 141.49 155.321 141.86 154.601 142.6C153.901 143.32 153.551 144.32 153.551 145.6C153.551 146.88 153.901 147.9 154.601 148.66C155.321 149.4 156.191 149.77 157.211 149.77C158.231 149.77 159.091 149.4 159.791 148.66C160.511 147.92 160.871 146.91 160.871 145.63ZM179.043 149.65V154H176.433C174.573 154 173.123 153.55 172.083 152.65C171.043 151.73 170.523 150.24 170.523 148.18V141.52H168.483V137.26H170.523V133.18H175.653V137.26H179.013V141.52H175.653V148.24C175.653 148.74 175.773 149.1 176.013 149.32C176.253 149.54 176.653 149.65 177.213 149.65H179.043ZM189.52 154.24C187.88 154.24 186.4 153.89 185.08 153.19C183.78 152.49 182.75 151.49 181.99 150.19C181.25 148.89 180.88 147.37 180.88 145.63C180.88 143.91 181.26 142.4 182.02 141.1C182.78 139.78 183.82 138.77 185.14 138.07C186.46 137.37 187.94 137.02 189.58 137.02C191.22 137.02 192.7 137.37 194.02 138.07C195.34 138.77 196.38 139.78 197.14 141.1C197.9 142.4 198.28 143.91 198.28 145.63C198.28 147.35 197.89 148.87 197.11 150.19C196.35 151.49 195.3 152.49 193.96 153.19C192.64 153.89 191.16 154.24 189.52 154.24ZM189.52 149.8C190.5 149.8 191.33 149.44 192.01 148.72C192.71 148 193.06 146.97 193.06 145.63C193.06 144.29 192.72 143.26 192.04 142.54C191.38 141.82 190.56 141.46 189.58 141.46C188.58 141.46 187.75 141.82 187.09 142.54C186.43 143.24 186.1 144.27 186.1 145.63C186.1 146.97 186.42 148 187.06 148.72C187.72 149.44 188.54 149.8 189.52 149.8ZM207.812 154.24C206.352 154.24 205.052 153.99 203.912 153.49C202.772 152.99 201.872 152.31 201.212 151.45C200.552 150.57 200.182 149.59 200.102 148.51H205.172C205.232 149.09 205.502 149.56 205.982 149.92C206.462 150.28 207.052 150.46 207.752 150.46C208.392 150.46 208.882 150.34 209.222 150.1C209.582 149.84 209.762 149.51 209.762 149.11C209.762 148.63 209.512 148.28 209.012 148.06C208.512 147.82 207.702 147.56 206.582 147.28C205.382 147 204.382 146.71 203.582 146.41C202.782 146.09 202.092 145.6 201.512 144.94C200.932 144.26 200.642 143.35 200.642 142.21C200.642 141.25 200.902 140.38 201.422 139.6C201.962 138.8 202.742 138.17 203.762 137.71C204.802 137.25 206.032 137.02 207.452 137.02C209.552 137.02 211.202 137.54 212.402 138.58C213.622 139.62 214.322 141 214.502 142.72H209.762C209.682 142.14 209.422 141.68 208.982 141.34C208.562 141 208.002 140.83 207.302 140.83C206.702 140.83 206.242 140.95 205.922 141.19C205.602 141.41 205.442 141.72 205.442 142.12C205.442 142.6 205.692 142.96 206.192 143.2C206.712 143.44 207.512 143.68 208.592 143.92C209.832 144.24 210.842 144.56 211.622 144.88C212.402 145.18 213.082 145.68 213.662 146.38C214.262 147.06 214.572 147.98 214.592 149.14C214.592 150.12 214.312 151 213.752 151.78C213.212 152.54 212.422 153.14 211.382 153.58C210.362 154.02 209.172 154.24 207.812 154.24Z" fill="#FFEBEB"/>
</svg>
