<svg width="342" height="196" viewBox="0 0 342 196" fill="none" xmlns="http://www.w3.org/2000/svg">
<rect width="342" height="196" rx="20" fill="#8CCDD0"/>
<path d="M114.12 46.57H104.76V50.71C105.16 50.27 105.72 49.91 106.44 49.63C107.16 49.35 107.94 49.21 108.78 49.21C110.28 49.21 111.52 49.55 112.5 50.23C113.5 50.91 114.23 51.79 114.69 52.87C115.15 53.95 115.38 55.12 115.38 56.38C115.38 58.72 114.72 60.58 113.4 61.96C112.08 63.32 110.22 64 107.82 64C106.22 64 104.83 63.73 103.65 63.19C102.47 62.63 101.56 61.86 100.92 60.88C100.28 59.9 99.9296 58.77 99.8696 57.49H104.88C105 58.11 105.29 58.63 105.75 59.05C106.21 59.45 106.84 59.65 107.64 59.65C108.58 59.65 109.28 59.35 109.74 58.75C110.2 58.15 110.43 57.35 110.43 56.35C110.43 55.37 110.19 54.62 109.71 54.1C109.23 53.58 108.53 53.32 107.61 53.32C106.93 53.32 106.37 53.49 105.93 53.83C105.49 54.15 105.2 54.58 105.06 55.12H100.11V42.07H114.12V46.57ZM134.409 59.65V64H131.799C129.939 64 128.489 63.55 127.449 62.65C126.409 61.73 125.889 60.24 125.889 58.18V51.52H123.849V47.26H125.889V43.18H131.019V47.26H134.379V51.52H131.019V58.24C131.019 58.74 131.139 59.1 131.379 59.32C131.619 59.54 132.019 59.65 132.579 59.65H134.409ZM139.846 45.52C138.946 45.52 138.206 45.26 137.626 44.74C137.066 44.2 136.786 43.54 136.786 42.76C136.786 41.96 137.066 41.3 137.626 40.78C138.206 40.24 138.946 39.97 139.846 39.97C140.726 39.97 141.446 40.24 142.006 40.78C142.586 41.3 142.876 41.96 142.876 42.76C142.876 43.54 142.586 44.2 142.006 44.74C141.446 45.26 140.726 45.52 139.846 45.52ZM142.396 47.26V64H137.266V47.26H142.396ZM151.244 49.63C151.744 48.85 152.434 48.22 153.314 47.74C154.194 47.26 155.224 47.02 156.404 47.02C157.784 47.02 159.034 47.37 160.154 48.07C161.274 48.77 162.154 49.77 162.794 51.07C163.454 52.37 163.784 53.88 163.784 55.6C163.784 57.32 163.454 58.84 162.794 60.16C162.154 61.46 161.274 62.47 160.154 63.19C159.034 63.89 157.784 64.24 156.404 64.24C155.244 64.24 154.214 64 153.314 63.52C152.434 63.04 151.744 62.42 151.244 61.66V71.98H146.114V47.26H151.244V49.63ZM158.564 55.6C158.564 54.32 158.204 53.32 157.484 52.6C156.784 51.86 155.914 51.49 154.874 51.49C153.854 51.49 152.984 51.86 152.264 52.6C151.564 53.34 151.214 54.35 151.214 55.63C151.214 56.91 151.564 57.92 152.264 58.66C152.984 59.4 153.854 59.77 154.874 59.77C155.894 59.77 156.764 59.4 157.484 58.66C158.204 57.9 158.564 56.88 158.564 55.6ZM174.095 64.24C172.455 64.24 170.975 63.89 169.655 63.19C168.355 62.49 167.325 61.49 166.565 60.19C165.825 58.89 165.455 57.37 165.455 55.63C165.455 53.91 165.835 52.4 166.595 51.1C167.355 49.78 168.395 48.77 169.715 48.07C171.035 47.37 172.515 47.02 174.155 47.02C175.795 47.02 177.275 47.37 178.595 48.07C179.915 48.77 180.955 49.78 181.715 51.1C182.475 52.4 182.855 53.91 182.855 55.63C182.855 57.35 182.465 58.87 181.685 60.19C180.925 61.49 179.875 62.49 178.535 63.19C177.215 63.89 175.735 64.24 174.095 64.24ZM174.095 59.8C175.075 59.8 175.905 59.44 176.585 58.72C177.285 58 177.635 56.97 177.635 55.63C177.635 54.29 177.295 53.26 176.615 52.54C175.955 51.82 175.135 51.46 174.155 51.46C173.155 51.46 172.325 51.82 171.665 52.54C171.005 53.24 170.675 54.27 170.675 55.63C170.675 56.97 170.995 58 171.635 58.72C172.295 59.44 173.115 59.8 174.095 59.8ZM192.387 64.24C190.927 64.24 189.627 63.99 188.487 63.49C187.347 62.99 186.447 62.31 185.787 61.45C185.127 60.57 184.757 59.59 184.677 58.51H189.747C189.807 59.09 190.077 59.56 190.557 59.92C191.037 60.28 191.627 60.46 192.327 60.46C192.967 60.46 193.457 60.34 193.797 60.1C194.157 59.84 194.337 59.51 194.337 59.11C194.337 58.63 194.087 58.28 193.587 58.06C193.087 57.82 192.277 57.56 191.157 57.28C189.957 57 188.957 56.71 188.157 56.41C187.357 56.09 186.667 55.6 186.087 54.94C185.507 54.26 185.217 53.35 185.217 52.21C185.217 51.25 185.477 50.38 185.997 49.6C186.537 48.8 187.317 48.17 188.337 47.71C189.377 47.25 190.607 47.02 192.027 47.02C194.127 47.02 195.777 47.54 196.977 48.58C198.197 49.62 198.897 51 199.077 52.72H194.337C194.257 52.14 193.997 51.68 193.557 51.34C193.137 51 192.577 50.83 191.877 50.83C191.277 50.83 190.817 50.95 190.497 51.19C190.177 51.41 190.017 51.72 190.017 52.12C190.017 52.6 190.267 52.96 190.767 53.2C191.287 53.44 192.087 53.68 193.167 53.92C194.407 54.24 195.417 54.56 196.197 54.88C196.977 55.18 197.657 55.68 198.237 56.38C198.837 57.06 199.147 57.98 199.167 59.14C199.167 60.12 198.887 61 198.327 61.78C197.787 62.54 196.997 63.14 195.957 63.58C194.937 64.02 193.747 64.24 192.387 64.24ZM207.643 55.6C207.643 53.88 207.963 52.37 208.603 51.07C209.263 49.77 210.153 48.77 211.273 48.07C212.393 47.37 213.643 47.02 215.023 47.02C216.123 47.02 217.123 47.25 218.023 47.71C218.943 48.17 219.663 48.79 220.183 49.57V41.8H225.313V64H220.183V61.6C219.703 62.4 219.013 63.04 218.113 63.52C217.233 64 216.203 64.24 215.023 64.24C213.643 64.24 212.393 63.89 211.273 63.19C210.153 62.47 209.263 61.46 208.603 60.16C207.963 58.84 207.643 57.32 207.643 55.6ZM220.183 55.63C220.183 54.35 219.823 53.34 219.103 52.6C218.403 51.86 217.543 51.49 216.523 51.49C215.503 51.49 214.633 51.86 213.913 52.6C213.213 53.32 212.863 54.32 212.863 55.6C212.863 56.88 213.213 57.9 213.913 58.66C214.633 59.4 215.503 59.77 216.523 59.77C217.543 59.77 218.403 59.4 219.103 58.66C219.823 57.92 220.183 56.91 220.183 55.63ZM244.804 55.36C244.804 55.84 244.774 56.34 244.714 56.86H233.104C233.184 57.9 233.514 58.7 234.094 59.26C234.694 59.8 235.424 60.07 236.284 60.07C237.564 60.07 238.454 59.53 238.954 58.45H244.414C244.134 59.55 243.624 60.54 242.884 61.42C242.164 62.3 241.254 62.99 240.154 63.49C239.054 63.99 237.824 64.24 236.464 64.24C234.824 64.24 233.364 63.89 232.084 63.19C230.804 62.49 229.804 61.49 229.084 60.19C228.364 58.89 228.004 57.37 228.004 55.63C228.004 53.89 228.354 52.37 229.054 51.07C229.774 49.77 230.774 48.77 232.054 48.07C233.334 47.37 234.804 47.02 236.464 47.02C238.084 47.02 239.524 47.36 240.784 48.04C242.044 48.72 243.024 49.69 243.724 50.95C244.444 52.21 244.804 53.68 244.804 55.36ZM239.554 54.01C239.554 53.13 239.254 52.43 238.654 51.91C238.054 51.39 237.304 51.13 236.404 51.13C235.544 51.13 234.814 51.38 234.214 51.88C233.634 52.38 233.274 53.09 233.134 54.01H239.554ZM89.7351 94.63C90.2151 93.85 90.9051 93.22 91.8051 92.74C92.7051 92.26 93.7351 92.02 94.8951 92.02C96.2751 92.02 97.5251 92.37 98.6451 93.07C99.7651 93.77 100.645 94.77 101.285 96.07C101.945 97.37 102.275 98.88 102.275 100.6C102.275 102.32 101.945 103.84 101.285 105.16C100.645 106.46 99.7651 107.47 98.6451 108.19C97.5251 108.89 96.2751 109.24 94.8951 109.24C93.7151 109.24 92.6851 109.01 91.8051 108.55C90.9251 108.07 90.2351 107.44 89.7351 106.66V109H84.6051V86.8H89.7351V94.63ZM97.0551 100.6C97.0551 99.32 96.6951 98.32 95.9751 97.6C95.2751 96.86 94.4051 96.49 93.3651 96.49C92.3451 96.49 91.4751 96.86 90.7551 97.6C90.0551 98.34 89.7051 99.35 89.7051 100.63C89.7051 101.91 90.0551 102.92 90.7551 103.66C91.4751 104.4 92.3451 104.77 93.3651 104.77C94.3851 104.77 95.2551 104.4 95.9751 103.66C96.6951 102.9 97.0551 101.88 97.0551 100.6ZM110.096 95.05C110.696 94.13 111.446 93.41 112.346 92.89C113.246 92.35 114.246 92.08 115.346 92.08V97.51H113.936C112.656 97.51 111.696 97.79 111.056 98.35C110.416 98.89 110.096 99.85 110.096 101.23V109H104.966V92.26H110.096V95.05ZM120.378 90.52C119.478 90.52 118.738 90.26 118.158 89.74C117.598 89.2 117.318 88.54 117.318 87.76C117.318 86.96 117.598 86.3 118.158 85.78C118.738 85.24 119.478 84.97 120.378 84.97C121.258 84.97 121.978 85.24 122.538 85.78C123.118 86.3 123.408 86.96 123.408 87.76C123.408 88.54 123.118 89.2 122.538 89.74C121.978 90.26 121.258 90.52 120.378 90.52ZM122.928 92.26V109H117.798V92.26H122.928ZM136.846 92.08C138.806 92.08 140.366 92.72 141.526 94C142.706 95.26 143.296 97 143.296 99.22V109H138.196V99.91C138.196 98.79 137.906 97.92 137.326 97.3C136.746 96.68 135.966 96.37 134.986 96.37C134.006 96.37 133.226 96.68 132.646 97.3C132.066 97.92 131.776 98.79 131.776 99.91V109H126.646V92.26H131.776V94.48C132.296 93.74 132.996 93.16 133.876 92.74C134.756 92.3 135.746 92.08 136.846 92.08ZM145.841 100.66C145.841 99 146.181 97.52 146.861 96.22C147.561 94.92 148.491 93.91 149.651 93.19C150.831 92.45 152.111 92.08 153.491 92.08C154.551 92.08 155.501 92.27 156.341 92.65C157.181 93.01 157.861 93.52 158.381 94.18V92.26H163.511V116.98H158.381V106.9C157.801 107.6 157.091 108.16 156.251 108.58C155.431 109 154.491 109.21 153.431 109.21C152.071 109.21 150.811 108.85 149.651 108.13C148.491 107.41 147.561 106.4 146.861 105.1C146.181 103.8 145.841 102.32 145.841 100.66ZM158.381 100.63C158.381 99.73 158.201 98.98 157.841 98.38C157.501 97.76 157.051 97.3 156.491 97C155.931 96.68 155.341 96.52 154.721 96.52C154.121 96.52 153.541 96.68 152.981 97C152.421 97.3 151.961 97.76 151.601 98.38C151.241 99 151.061 99.76 151.061 100.66C151.061 101.56 151.241 102.32 151.601 102.94C151.961 103.54 152.421 104 152.981 104.32C153.541 104.62 154.121 104.77 154.721 104.77C155.321 104.77 155.901 104.62 156.461 104.32C157.041 104 157.501 103.53 157.841 102.91C158.201 102.29 158.381 101.53 158.381 100.63ZM183.752 92.26V109H178.622V106.72C178.102 107.46 177.392 108.06 176.492 108.52C175.612 108.96 174.632 109.18 173.552 109.18C172.272 109.18 171.142 108.9 170.162 108.34C169.182 107.76 168.422 106.93 167.882 105.85C167.342 104.77 167.072 103.5 167.072 102.04V92.26H172.172V101.35C172.172 102.47 172.462 103.34 173.042 103.96C173.622 104.58 174.402 104.89 175.382 104.89C176.382 104.89 177.172 104.58 177.752 103.96C178.332 103.34 178.622 102.47 178.622 101.35V92.26H183.752ZM203.217 100.36C203.217 100.84 203.187 101.34 203.127 101.86H191.517C191.597 102.9 191.927 103.7 192.507 104.26C193.107 104.8 193.837 105.07 194.697 105.07C195.977 105.07 196.867 104.53 197.367 103.45H202.827C202.547 104.55 202.037 105.54 201.297 106.42C200.577 107.3 199.667 107.99 198.567 108.49C197.467 108.99 196.237 109.24 194.877 109.24C193.237 109.24 191.777 108.89 190.497 108.19C189.217 107.49 188.217 106.49 187.497 105.19C186.777 103.89 186.417 102.37 186.417 100.63C186.417 98.89 186.767 97.37 187.467 96.07C188.187 94.77 189.187 93.77 190.467 93.07C191.747 92.37 193.217 92.02 194.877 92.02C196.497 92.02 197.937 92.36 199.197 93.04C200.457 93.72 201.437 94.69 202.137 95.95C202.857 97.21 203.217 98.68 203.217 100.36ZM197.967 99.01C197.967 98.13 197.667 97.43 197.067 96.91C196.467 96.39 195.717 96.13 194.817 96.13C193.957 96.13 193.227 96.38 192.627 96.88C192.047 97.38 191.687 98.09 191.547 99.01H197.967ZM204.903 100.6C204.903 98.88 205.223 97.37 205.863 96.07C206.523 94.77 207.413 93.77 208.533 93.07C209.653 92.37 210.903 92.02 212.283 92.02C213.383 92.02 214.383 92.25 215.283 92.71C216.203 93.17 216.923 93.79 217.443 94.57V86.8H222.573V109H217.443V106.6C216.963 107.4 216.273 108.04 215.373 108.52C214.493 109 213.463 109.24 212.283 109.24C210.903 109.24 209.653 108.89 208.533 108.19C207.413 107.47 206.523 106.46 205.863 105.16C205.223 103.84 204.903 102.32 204.903 100.6ZM217.443 100.63C217.443 99.35 217.083 98.34 216.363 97.6C215.663 96.86 214.803 96.49 213.783 96.49C212.763 96.49 211.893 96.86 211.173 97.6C210.473 98.32 210.123 99.32 210.123 100.6C210.123 101.88 210.473 102.9 211.173 103.66C211.893 104.4 212.763 104.77 213.783 104.77C214.803 104.77 215.663 104.4 216.363 103.66C217.083 102.92 217.443 101.91 217.443 100.63ZM233.905 109.24C232.265 109.24 230.785 108.89 229.465 108.19C228.165 107.49 227.135 106.49 226.375 105.19C225.635 103.89 225.265 102.37 225.265 100.63C225.265 98.91 225.645 97.4 226.405 96.1C227.165 94.78 228.205 93.77 229.525 93.07C230.845 92.37 232.325 92.02 233.965 92.02C235.605 92.02 237.085 92.37 238.405 93.07C239.725 93.77 240.765 94.78 241.525 96.1C242.285 97.4 242.665 98.91 242.665 100.63C242.665 102.35 242.275 103.87 241.495 105.19C240.735 106.49 239.685 107.49 238.345 108.19C237.025 108.89 235.545 109.24 233.905 109.24ZM233.905 104.8C234.885 104.8 235.715 104.44 236.395 103.72C237.095 103 237.445 101.97 237.445 100.63C237.445 99.29 237.105 98.26 236.425 97.54C235.765 96.82 234.945 96.46 233.965 96.46C232.965 96.46 232.135 96.82 231.475 97.54C230.815 98.24 230.485 99.27 230.485 100.63C230.485 101.97 230.805 103 231.445 103.72C232.105 104.44 232.925 104.8 233.905 104.8ZM252.196 109.24C250.736 109.24 249.436 108.99 248.296 108.49C247.156 107.99 246.256 107.31 245.596 106.45C244.936 105.57 244.566 104.59 244.486 103.51H249.556C249.616 104.09 249.886 104.56 250.366 104.92C250.846 105.28 251.436 105.46 252.136 105.46C252.776 105.46 253.266 105.34 253.606 105.1C253.966 104.84 254.146 104.51 254.146 104.11C254.146 103.63 253.896 103.28 253.396 103.06C252.896 102.82 252.086 102.56 250.966 102.28C249.766 102 248.766 101.71 247.966 101.41C247.166 101.09 246.476 100.6 245.896 99.94C245.316 99.26 245.026 98.35 245.026 97.21C245.026 96.25 245.286 95.38 245.806 94.6C246.346 93.8 247.126 93.17 248.146 92.71C249.186 92.25 250.416 92.02 251.836 92.02C253.936 92.02 255.586 92.54 256.786 93.58C258.006 94.62 258.706 96 258.886 97.72H254.146C254.066 97.14 253.806 96.68 253.366 96.34C252.946 96 252.386 95.83 251.686 95.83C251.086 95.83 250.626 95.95 250.306 96.19C249.986 96.41 249.826 96.72 249.826 97.12C249.826 97.6 250.076 97.96 250.576 98.2C251.096 98.44 251.896 98.68 252.976 98.92C254.216 99.24 255.226 99.56 256.006 99.88C256.786 100.18 257.466 100.68 258.046 101.38C258.646 102.06 258.956 102.98 258.976 104.14C258.976 105.12 258.696 106 258.136 106.78C257.596 107.54 256.806 108.14 255.766 108.58C254.746 109.02 253.556 109.24 252.196 109.24ZM93.9832 139.63C94.4832 138.85 95.1732 138.22 96.0532 137.74C96.9332 137.26 97.9632 137.02 99.1432 137.02C100.523 137.02 101.773 137.37 102.893 138.07C104.013 138.77 104.893 139.77 105.533 141.07C106.193 142.37 106.523 143.88 106.523 145.6C106.523 147.32 106.193 148.84 105.533 150.16C104.893 151.46 104.013 152.47 102.893 153.19C101.773 153.89 100.523 154.24 99.1432 154.24C97.9832 154.24 96.9532 154 96.0532 153.52C95.1732 153.04 94.4832 152.42 93.9832 151.66V161.98H88.8532V137.26H93.9832V139.63ZM101.303 145.6C101.303 144.32 100.943 143.32 100.223 142.6C99.5232 141.86 98.6532 141.49 97.6132 141.49C96.5932 141.49 95.7232 141.86 95.0032 142.6C94.3032 143.34 93.9532 144.35 93.9532 145.63C93.9532 146.91 94.3032 147.92 95.0032 148.66C95.7232 149.4 96.5932 149.77 97.6132 149.77C98.6332 149.77 99.5032 149.4 100.223 148.66C100.943 147.9 101.303 146.88 101.303 145.6ZM108.194 145.6C108.194 143.88 108.514 142.37 109.154 141.07C109.814 139.77 110.704 138.77 111.824 138.07C112.944 137.37 114.194 137.02 115.574 137.02C116.754 137.02 117.784 137.26 118.664 137.74C119.564 138.22 120.254 138.85 120.734 139.63V137.26H125.864V154H120.734V151.63C120.234 152.41 119.534 153.04 118.634 153.52C117.754 154 116.724 154.24 115.544 154.24C114.184 154.24 112.944 153.89 111.824 153.19C110.704 152.47 109.814 151.46 109.154 150.16C108.514 148.84 108.194 147.32 108.194 145.6ZM120.734 145.63C120.734 144.35 120.374 143.34 119.654 142.6C118.954 141.86 118.094 141.49 117.074 141.49C116.054 141.49 115.184 141.86 114.464 142.6C113.764 143.32 113.414 144.32 113.414 145.6C113.414 146.88 113.764 147.9 114.464 148.66C115.184 149.4 116.054 149.77 117.074 149.77C118.094 149.77 118.954 149.4 119.654 148.66C120.374 147.92 120.734 146.91 120.734 145.63ZM134.706 140.05C135.306 139.13 136.056 138.41 136.956 137.89C137.856 137.35 138.856 137.08 139.956 137.08V142.51H138.546C137.266 142.51 136.306 142.79 135.666 143.35C135.026 143.89 134.706 144.85 134.706 146.23V154H129.576V137.26H134.706V140.05ZM141.388 145.6C141.388 143.88 141.708 142.37 142.348 141.07C143.008 139.77 143.898 138.77 145.018 138.07C146.138 137.37 147.388 137.02 148.768 137.02C149.948 137.02 150.978 137.26 151.858 137.74C152.758 138.22 153.448 138.85 153.928 139.63V137.26H159.058V154H153.928V151.63C153.428 152.41 152.728 153.04 151.828 153.52C150.948 154 149.918 154.24 148.738 154.24C147.378 154.24 146.138 153.89 145.018 153.19C143.898 152.47 143.008 151.46 142.348 150.16C141.708 148.84 141.388 147.32 141.388 145.6ZM153.928 145.63C153.928 144.35 153.568 143.34 152.848 142.6C152.148 141.86 151.288 141.49 150.268 141.49C149.248 141.49 148.378 141.86 147.658 142.6C146.958 143.32 146.608 144.32 146.608 145.6C146.608 146.88 146.958 147.9 147.658 148.66C148.378 149.4 149.248 149.77 150.268 149.77C151.288 149.77 152.148 149.4 152.848 148.66C153.568 147.92 153.928 146.91 153.928 145.63ZM175.487 137.02C176.667 137.02 177.697 137.26 178.577 137.74C179.477 138.22 180.167 138.85 180.647 139.63V137.26H185.777V153.97C185.777 155.51 185.467 156.9 184.847 158.14C184.247 159.4 183.317 160.4 182.057 161.14C180.817 161.88 179.267 162.25 177.407 162.25C174.927 162.25 172.917 161.66 171.377 160.48C169.837 159.32 168.957 157.74 168.737 155.74H173.807C173.967 156.38 174.347 156.88 174.947 157.24C175.547 157.62 176.287 157.81 177.167 157.81C178.227 157.81 179.067 157.5 179.687 156.88C180.327 156.28 180.647 155.31 180.647 153.97V151.6C180.147 152.38 179.457 153.02 178.577 153.52C177.697 154 176.667 154.24 175.487 154.24C174.107 154.24 172.857 153.89 171.737 153.19C170.617 152.47 169.727 151.46 169.067 150.16C168.427 148.84 168.107 147.32 168.107 145.6C168.107 143.88 168.427 142.37 169.067 141.07C169.727 139.77 170.617 138.77 171.737 138.07C172.857 137.37 174.107 137.02 175.487 137.02ZM180.647 145.63C180.647 144.35 180.287 143.34 179.567 142.6C178.867 141.86 178.007 141.49 176.987 141.49C175.967 141.49 175.097 141.86 174.377 142.6C173.677 143.32 173.327 144.32 173.327 145.6C173.327 146.88 173.677 147.9 174.377 148.66C175.097 149.4 175.967 149.77 176.987 149.77C178.007 149.77 178.867 149.4 179.567 148.66C180.287 147.92 180.647 146.91 180.647 145.63ZM188.468 145.6C188.468 143.88 188.788 142.37 189.428 141.07C190.088 139.77 190.978 138.77 192.098 138.07C193.218 137.37 194.468 137.02 195.848 137.02C197.028 137.02 198.058 137.26 198.938 137.74C199.838 138.22 200.528 138.85 201.008 139.63V137.26H206.138V154H201.008V151.63C200.508 152.41 199.808 153.04 198.908 153.52C198.028 154 196.998 154.24 195.818 154.24C194.458 154.24 193.218 153.89 192.098 153.19C190.978 152.47 190.088 151.46 189.428 150.16C188.788 148.84 188.468 147.32 188.468 145.6ZM201.008 145.63C201.008 144.35 200.648 143.34 199.928 142.6C199.228 141.86 198.368 141.49 197.348 141.49C196.328 141.49 195.458 141.86 194.738 142.6C194.038 143.32 193.688 144.32 193.688 145.6C193.688 146.88 194.038 147.9 194.738 148.66C195.458 149.4 196.328 149.77 197.348 149.77C198.368 149.77 199.228 149.4 199.928 148.66C200.648 147.92 201.008 146.91 201.008 145.63ZM219.179 149.65V154H216.569C214.709 154 213.259 153.55 212.219 152.65C211.179 151.73 210.659 150.24 210.659 148.18V141.52H208.619V137.26H210.659V133.18H215.789V137.26H219.149V141.52H215.789V148.24C215.789 148.74 215.909 149.1 216.149 149.32C216.389 149.54 216.789 149.65 217.349 149.65H219.179ZM229.657 154.24C228.017 154.24 226.537 153.89 225.217 153.19C223.917 152.49 222.887 151.49 222.127 150.19C221.387 148.89 221.017 147.37 221.017 145.63C221.017 143.91 221.397 142.4 222.157 141.1C222.917 139.78 223.957 138.77 225.277 138.07C226.597 137.37 228.077 137.02 229.717 137.02C231.357 137.02 232.837 137.37 234.157 138.07C235.477 138.77 236.517 139.78 237.277 141.1C238.037 142.4 238.417 143.91 238.417 145.63C238.417 147.35 238.027 148.87 237.247 150.19C236.487 151.49 235.437 152.49 234.097 153.19C232.777 153.89 231.297 154.24 229.657 154.24ZM229.657 149.8C230.637 149.8 231.467 149.44 232.147 148.72C232.847 148 233.197 146.97 233.197 145.63C233.197 144.29 232.857 143.26 232.177 142.54C231.517 141.82 230.697 141.46 229.717 141.46C228.717 141.46 227.887 141.82 227.227 142.54C226.567 143.24 226.237 144.27 226.237 145.63C226.237 146.97 226.557 148 227.197 148.72C227.857 149.44 228.677 149.8 229.657 149.8ZM247.948 154.24C246.488 154.24 245.188 153.99 244.048 153.49C242.908 152.99 242.008 152.31 241.348 151.45C240.688 150.57 240.318 149.59 240.238 148.51H245.308C245.368 149.09 245.638 149.56 246.118 149.92C246.598 150.28 247.188 150.46 247.888 150.46C248.528 150.46 249.018 150.34 249.358 150.1C249.718 149.84 249.898 149.51 249.898 149.11C249.898 148.63 249.648 148.28 249.148 148.06C248.648 147.82 247.838 147.56 246.718 147.28C245.518 147 244.518 146.71 243.718 146.41C242.918 146.09 242.228 145.6 241.648 144.94C241.068 144.26 240.778 143.35 240.778 142.21C240.778 141.25 241.038 140.38 241.558 139.6C242.098 138.8 242.878 138.17 243.898 137.71C244.938 137.25 246.168 137.02 247.588 137.02C249.688 137.02 251.338 137.54 252.538 138.58C253.758 139.62 254.458 141 254.638 142.72H249.898C249.818 142.14 249.558 141.68 249.118 141.34C248.698 141 248.138 140.83 247.438 140.83C246.838 140.83 246.378 140.95 246.058 141.19C245.738 141.41 245.578 141.72 245.578 142.12C245.578 142.6 245.828 142.96 246.328 143.2C246.848 143.44 247.648 143.68 248.728 143.92C249.968 144.24 250.978 144.56 251.758 144.88C252.538 145.18 253.218 145.68 253.798 146.38C254.398 147.06 254.708 147.98 254.728 149.14C254.728 150.12 254.448 151 253.888 151.78C253.348 152.54 252.558 153.14 251.518 153.58C250.498 154.02 249.308 154.24 247.948 154.24Z" fill="#FFEBEB"/>
</svg>
