<svg width="346" height="196" viewBox="0 0 346 196" fill="none" xmlns="http://www.w3.org/2000/svg">
<rect x="2" width="342" height="196" rx="20" fill="#8CCDD0"/>
<path d="M77.7827 46.57H68.4227V50.71C68.8227 50.27 69.3827 49.91 70.1027 49.63C70.8227 49.35 71.6027 49.21 72.4427 49.21C73.9427 49.21 75.1827 49.55 76.1627 50.23C77.1627 50.91 77.8927 51.79 78.3527 52.87C78.8127 53.95 79.0427 55.12 79.0427 56.38C79.0427 58.72 78.3827 60.58 77.0627 61.96C75.7427 63.32 73.8827 64 71.4827 64C69.8827 64 68.4927 63.73 67.3127 63.19C66.1327 62.63 65.2227 61.86 64.5827 60.88C63.9427 59.9 63.5927 58.77 63.5327 57.49H68.5427C68.6627 58.11 68.9527 58.63 69.4127 59.05C69.8727 59.45 70.5027 59.65 71.3027 59.65C72.2427 59.65 72.9427 59.35 73.4027 58.75C73.8627 58.15 74.0927 57.35 74.0927 56.35C74.0927 55.37 73.8527 54.62 73.3727 54.1C72.8927 53.58 72.1927 53.32 71.2727 53.32C70.5927 53.32 70.0327 53.49 69.5927 53.83C69.1527 54.15 68.8627 54.58 68.7227 55.12H63.7727V42.07H77.7827V46.57ZM93.8718 41.8V64H88.7418V41.8H93.8718ZM114.119 47.26V64H108.989V61.72C108.469 62.46 107.759 63.06 106.859 63.52C105.979 63.96 104.999 64.18 103.919 64.18C102.639 64.18 101.509 63.9 100.529 63.34C99.5495 62.76 98.7895 61.93 98.2495 60.85C97.7095 59.77 97.4395 58.5 97.4395 57.04V47.26H102.539V56.35C102.539 57.47 102.829 58.34 103.409 58.96C103.989 59.58 104.769 59.89 105.749 59.89C106.749 59.89 107.539 59.58 108.119 58.96C108.699 58.34 108.989 57.47 108.989 56.35V47.26H114.119ZM124.164 47.02C125.344 47.02 126.374 47.26 127.254 47.74C128.154 48.22 128.844 48.85 129.324 49.63V47.26H134.454V63.97C134.454 65.51 134.144 66.9 133.524 68.14C132.924 69.4 131.994 70.4 130.734 71.14C129.494 71.88 127.944 72.25 126.084 72.25C123.604 72.25 121.594 71.66 120.054 70.48C118.514 69.32 117.634 67.74 117.414 65.74H122.484C122.644 66.38 123.024 66.88 123.624 67.24C124.224 67.62 124.964 67.81 125.844 67.81C126.904 67.81 127.744 67.5 128.364 66.88C129.004 66.28 129.324 65.31 129.324 63.97V61.6C128.824 62.38 128.134 63.02 127.254 63.52C126.374 64 125.344 64.24 124.164 64.24C122.784 64.24 121.534 63.89 120.414 63.19C119.294 62.47 118.404 61.46 117.744 60.16C117.104 58.84 116.784 57.32 116.784 55.6C116.784 53.88 117.104 52.37 117.744 51.07C118.404 49.77 119.294 48.77 120.414 48.07C121.534 47.37 122.784 47.02 124.164 47.02ZM129.324 55.63C129.324 54.35 128.964 53.34 128.244 52.6C127.544 51.86 126.684 51.49 125.664 51.49C124.644 51.49 123.774 51.86 123.054 52.6C122.354 53.32 122.004 54.32 122.004 55.6C122.004 56.88 122.354 57.9 123.054 58.66C123.774 59.4 124.644 59.77 125.664 59.77C126.684 59.77 127.544 59.4 128.244 58.66C128.964 57.92 129.324 56.91 129.324 55.63ZM137.146 55.6C137.146 53.88 137.466 52.37 138.106 51.07C138.766 49.77 139.656 48.77 140.776 48.07C141.896 47.37 143.146 47.02 144.526 47.02C145.706 47.02 146.736 47.26 147.616 47.74C148.516 48.22 149.206 48.85 149.686 49.63V47.26H154.816V64H149.686V61.63C149.186 62.41 148.486 63.04 147.586 63.52C146.706 64 145.676 64.24 144.496 64.24C143.136 64.24 141.896 63.89 140.776 63.19C139.656 62.47 138.766 61.46 138.106 60.16C137.466 58.84 137.146 57.32 137.146 55.6ZM149.686 55.63C149.686 54.35 149.326 53.34 148.606 52.6C147.906 51.86 147.046 51.49 146.026 51.49C145.006 51.49 144.136 51.86 143.416 52.6C142.716 53.32 142.366 54.32 142.366 55.6C142.366 56.88 142.716 57.9 143.416 58.66C144.136 59.4 145.006 59.77 146.026 59.77C147.046 59.77 147.906 59.4 148.606 58.66C149.326 57.92 149.686 56.91 149.686 55.63ZM163.657 50.05C164.257 49.13 165.007 48.41 165.907 47.89C166.807 47.35 167.807 47.08 168.907 47.08V52.51H167.497C166.217 52.51 165.257 52.79 164.617 53.35C163.977 53.89 163.657 54.85 163.657 56.23V64H158.527V47.26H163.657V50.05ZM187.139 55.36C187.139 55.84 187.109 56.34 187.049 56.86H175.439C175.519 57.9 175.849 58.7 176.429 59.26C177.029 59.8 177.759 60.07 178.619 60.07C179.899 60.07 180.789 59.53 181.289 58.45H186.749C186.469 59.55 185.959 60.54 185.219 61.42C184.499 62.3 183.589 62.99 182.489 63.49C181.389 63.99 180.159 64.24 178.799 64.24C177.159 64.24 175.699 63.89 174.419 63.19C173.139 62.49 172.139 61.49 171.419 60.19C170.699 58.89 170.339 57.37 170.339 55.63C170.339 53.89 170.689 52.37 171.389 51.07C172.109 49.77 173.109 48.77 174.389 48.07C175.669 47.37 177.139 47.02 178.799 47.02C180.419 47.02 181.859 47.36 183.119 48.04C184.379 48.72 185.359 49.69 186.059 50.95C186.779 52.21 187.139 53.68 187.139 55.36ZM181.889 54.01C181.889 53.13 181.589 52.43 180.989 51.91C180.389 51.39 179.639 51.13 178.739 51.13C177.879 51.13 177.149 51.38 176.549 51.88C175.969 52.38 175.609 53.09 175.469 54.01H181.889ZM196.655 64.24C195.195 64.24 193.895 63.99 192.755 63.49C191.615 62.99 190.715 62.31 190.055 61.45C189.395 60.57 189.025 59.59 188.945 58.51H194.015C194.075 59.09 194.345 59.56 194.825 59.92C195.305 60.28 195.895 60.46 196.595 60.46C197.235 60.46 197.725 60.34 198.065 60.1C198.425 59.84 198.605 59.51 198.605 59.11C198.605 58.63 198.355 58.28 197.855 58.06C197.355 57.82 196.545 57.56 195.425 57.28C194.225 57 193.225 56.71 192.425 56.41C191.625 56.09 190.935 55.6 190.355 54.94C189.775 54.26 189.485 53.35 189.485 52.21C189.485 51.25 189.745 50.38 190.265 49.6C190.805 48.8 191.585 48.17 192.605 47.71C193.645 47.25 194.875 47.02 196.295 47.02C198.395 47.02 200.045 47.54 201.245 48.58C202.465 49.62 203.165 51 203.345 52.72H198.605C198.525 52.14 198.265 51.68 197.825 51.34C197.405 51 196.845 50.83 196.145 50.83C195.545 50.83 195.085 50.95 194.765 51.19C194.445 51.41 194.285 51.72 194.285 52.12C194.285 52.6 194.535 52.96 195.035 53.2C195.555 53.44 196.355 53.68 197.435 53.92C198.675 54.24 199.685 54.56 200.465 54.88C201.245 55.18 201.925 55.68 202.505 56.38C203.105 57.06 203.415 57.98 203.435 59.14C203.435 60.12 203.155 61 202.595 61.78C202.055 62.54 201.265 63.14 200.225 63.58C199.205 64.02 198.015 64.24 196.655 64.24ZM218.061 49.63C218.561 48.85 219.251 48.22 220.131 47.74C221.011 47.26 222.041 47.02 223.221 47.02C224.601 47.02 225.851 47.37 226.971 48.07C228.091 48.77 228.971 49.77 229.611 51.07C230.271 52.37 230.601 53.88 230.601 55.6C230.601 57.32 230.271 58.84 229.611 60.16C228.971 61.46 228.091 62.47 226.971 63.19C225.851 63.89 224.601 64.24 223.221 64.24C222.061 64.24 221.031 64 220.131 63.52C219.251 63.04 218.561 62.42 218.061 61.66V71.98H212.931V47.26H218.061V49.63ZM225.381 55.6C225.381 54.32 225.021 53.32 224.301 52.6C223.601 51.86 222.731 51.49 221.691 51.49C220.671 51.49 219.801 51.86 219.081 52.6C218.381 53.34 218.031 54.35 218.031 55.63C218.031 56.91 218.381 57.92 219.081 58.66C219.801 59.4 220.671 59.77 221.691 59.77C222.711 59.77 223.581 59.4 224.301 58.66C225.021 57.9 225.381 56.88 225.381 55.6ZM232.273 55.6C232.273 53.88 232.593 52.37 233.233 51.07C233.893 49.77 234.783 48.77 235.903 48.07C237.023 47.37 238.273 47.02 239.653 47.02C240.833 47.02 241.863 47.26 242.743 47.74C243.643 48.22 244.333 48.85 244.813 49.63V47.26H249.943V64H244.813V61.63C244.313 62.41 243.613 63.04 242.713 63.52C241.833 64 240.803 64.24 239.623 64.24C238.263 64.24 237.023 63.89 235.903 63.19C234.783 62.47 233.893 61.46 233.233 60.16C232.593 58.84 232.273 57.32 232.273 55.6ZM244.813 55.63C244.813 54.35 244.453 53.34 243.733 52.6C243.033 51.86 242.173 51.49 241.153 51.49C240.133 51.49 239.263 51.86 238.543 52.6C237.843 53.32 237.493 54.32 237.493 55.6C237.493 56.88 237.843 57.9 238.543 58.66C239.263 59.4 240.133 59.77 241.153 59.77C242.173 59.77 243.033 59.4 243.733 58.66C244.453 57.92 244.813 56.91 244.813 55.63ZM258.784 50.05C259.384 49.13 260.134 48.41 261.034 47.89C261.934 47.35 262.934 47.08 264.034 47.08V52.51H262.624C261.344 52.51 260.384 52.79 259.744 53.35C259.104 53.89 258.784 54.85 258.784 56.23V64H253.654V47.26H258.784V50.05ZM265.466 55.6C265.466 53.88 265.786 52.37 266.426 51.07C267.086 49.77 267.976 48.77 269.096 48.07C270.216 47.37 271.466 47.02 272.846 47.02C274.026 47.02 275.056 47.26 275.936 47.74C276.836 48.22 277.526 48.85 278.006 49.63V47.26H283.136V64H278.006V61.63C277.506 62.41 276.806 63.04 275.906 63.52C275.026 64 273.996 64.24 272.816 64.24C271.456 64.24 270.216 63.89 269.096 63.19C267.976 62.47 267.086 61.46 266.426 60.16C265.786 58.84 265.466 57.32 265.466 55.6ZM278.006 55.63C278.006 54.35 277.646 53.34 276.926 52.6C276.226 51.86 275.366 51.49 274.346 51.49C273.326 51.49 272.456 51.86 271.736 52.6C271.036 53.32 270.686 54.32 270.686 55.6C270.686 56.88 271.036 57.9 271.736 58.66C272.456 59.4 273.326 59.77 274.346 59.77C275.366 59.77 276.226 59.4 276.926 58.66C277.646 57.92 278.006 56.91 278.006 55.63ZM48.4763 94.63C48.9763 93.85 49.6663 93.22 50.5463 92.74C51.4263 92.26 52.4563 92.02 53.6363 92.02C55.0163 92.02 56.2663 92.37 57.3863 93.07C58.5063 93.77 59.3863 94.77 60.0263 96.07C60.6863 97.37 61.0163 98.88 61.0163 100.6C61.0163 102.32 60.6863 103.84 60.0263 105.16C59.3863 106.46 58.5063 107.47 57.3863 108.19C56.2663 108.89 55.0163 109.24 53.6363 109.24C52.4763 109.24 51.4463 109 50.5463 108.52C49.6663 108.04 48.9763 107.42 48.4763 106.66V116.98H43.3463V92.26H48.4763V94.63ZM55.7963 100.6C55.7963 99.32 55.4363 98.32 54.7163 97.6C54.0163 96.86 53.1463 96.49 52.1063 96.49C51.0863 96.49 50.2163 96.86 49.4963 97.6C48.7963 98.34 48.4463 99.35 48.4463 100.63C48.4463 101.91 48.7963 102.92 49.4963 103.66C50.2163 104.4 51.0863 104.77 52.1063 104.77C53.1263 104.77 53.9963 104.4 54.7163 103.66C55.4363 102.9 55.7963 101.88 55.7963 100.6ZM62.6877 100.6C62.6877 98.88 63.0077 97.37 63.6477 96.07C64.3077 94.77 65.1977 93.77 66.3177 93.07C67.4377 92.37 68.6877 92.02 70.0677 92.02C71.2477 92.02 72.2777 92.26 73.1577 92.74C74.0577 93.22 74.7477 93.85 75.2277 94.63V92.26H80.3577V109H75.2277V106.63C74.7277 107.41 74.0277 108.04 73.1277 108.52C72.2477 109 71.2177 109.24 70.0377 109.24C68.6777 109.24 67.4377 108.89 66.3177 108.19C65.1977 107.47 64.3077 106.46 63.6477 105.16C63.0077 103.84 62.6877 102.32 62.6877 100.6ZM75.2277 100.63C75.2277 99.35 74.8677 98.34 74.1477 97.6C73.4477 96.86 72.5877 96.49 71.5677 96.49C70.5477 96.49 69.6777 96.86 68.9577 97.6C68.2577 98.32 67.9077 99.32 67.9077 100.6C67.9077 101.88 68.2577 102.9 68.9577 103.66C69.6777 104.4 70.5477 104.77 71.5677 104.77C72.5877 104.77 73.4477 104.4 74.1477 103.66C74.8677 102.92 75.2277 101.91 75.2277 100.63ZM90.879 109.24C89.419 109.24 88.119 108.99 86.979 108.49C85.839 107.99 84.939 107.31 84.279 106.45C83.619 105.57 83.249 104.59 83.169 103.51H88.239C88.299 104.09 88.569 104.56 89.049 104.92C89.529 105.28 90.119 105.46 90.819 105.46C91.459 105.46 91.949 105.34 92.289 105.1C92.649 104.84 92.829 104.51 92.829 104.11C92.829 103.63 92.579 103.28 92.079 103.06C91.579 102.82 90.769 102.56 89.649 102.28C88.449 102 87.449 101.71 86.649 101.41C85.849 101.09 85.159 100.6 84.579 99.94C83.999 99.26 83.709 98.35 83.709 97.21C83.709 96.25 83.969 95.38 84.489 94.6C85.029 93.8 85.809 93.17 86.829 92.71C87.869 92.25 89.099 92.02 90.519 92.02C92.619 92.02 94.269 92.54 95.469 93.58C96.689 94.62 97.389 96 97.569 97.72H92.829C92.749 97.14 92.489 96.68 92.049 96.34C91.629 96 91.069 95.83 90.369 95.83C89.769 95.83 89.309 95.95 88.989 96.19C88.669 96.41 88.509 96.72 88.509 97.12C88.509 97.6 88.759 97.96 89.259 98.2C89.779 98.44 90.579 98.68 91.659 98.92C92.899 99.24 93.909 99.56 94.689 99.88C95.469 100.18 96.149 100.68 96.729 101.38C97.329 102.06 97.639 102.98 97.659 104.14C97.659 105.12 97.379 106 96.819 106.78C96.279 107.54 95.489 108.14 94.449 108.58C93.429 109.02 92.239 109.24 90.879 109.24ZM107.608 109.24C106.148 109.24 104.848 108.99 103.708 108.49C102.568 107.99 101.668 107.31 101.008 106.45C100.348 105.57 99.9775 104.59 99.8975 103.51H104.968C105.028 104.09 105.298 104.56 105.778 104.92C106.258 105.28 106.848 105.46 107.548 105.46C108.188 105.46 108.678 105.34 109.018 105.1C109.378 104.84 109.558 104.51 109.558 104.11C109.558 103.63 109.308 103.28 108.808 103.06C108.308 102.82 107.498 102.56 106.378 102.28C105.178 102 104.178 101.71 103.378 101.41C102.578 101.09 101.888 100.6 101.308 99.94C100.728 99.26 100.438 98.35 100.438 97.21C100.438 96.25 100.698 95.38 101.218 94.6C101.758 93.8 102.538 93.17 103.558 92.71C104.598 92.25 105.828 92.02 107.248 92.02C109.348 92.02 110.998 92.54 112.198 93.58C113.418 94.62 114.118 96 114.298 97.72H109.558C109.478 97.14 109.218 96.68 108.778 96.34C108.358 96 107.798 95.83 107.098 95.83C106.498 95.83 106.038 95.95 105.718 96.19C105.398 96.41 105.238 96.72 105.238 97.12C105.238 97.6 105.488 97.96 105.988 98.2C106.508 98.44 107.308 98.68 108.388 98.92C109.628 99.24 110.638 99.56 111.418 99.88C112.198 100.18 112.878 100.68 113.458 101.38C114.058 102.06 114.368 102.98 114.388 104.14C114.388 105.12 114.108 106 113.548 106.78C113.008 107.54 112.218 108.14 111.178 108.58C110.158 109.02 108.968 109.24 107.608 109.24ZM133.306 100.36C133.306 100.84 133.276 101.34 133.216 101.86H121.606C121.686 102.9 122.016 103.7 122.596 104.26C123.196 104.8 123.926 105.07 124.786 105.07C126.066 105.07 126.956 104.53 127.456 103.45H132.916C132.636 104.55 132.126 105.54 131.386 106.42C130.666 107.3 129.756 107.99 128.656 108.49C127.556 108.99 126.326 109.24 124.966 109.24C123.326 109.24 121.866 108.89 120.586 108.19C119.306 107.49 118.306 106.49 117.586 105.19C116.866 103.89 116.506 102.37 116.506 100.63C116.506 98.89 116.856 97.37 117.556 96.07C118.276 94.77 119.276 93.77 120.556 93.07C121.836 92.37 123.306 92.02 124.966 92.02C126.586 92.02 128.026 92.36 129.286 93.04C130.546 93.72 131.526 94.69 132.226 95.95C132.946 97.21 133.306 98.68 133.306 100.36ZM128.056 99.01C128.056 98.13 127.756 97.43 127.156 96.91C126.556 96.39 125.806 96.13 124.906 96.13C124.046 96.13 123.316 96.38 122.716 96.88C122.136 97.38 121.776 98.09 121.636 99.01H128.056ZM134.992 100.6C134.992 98.88 135.312 97.37 135.952 96.07C136.612 94.77 137.502 93.77 138.622 93.07C139.742 92.37 140.992 92.02 142.372 92.02C143.552 92.02 144.582 92.26 145.462 92.74C146.362 93.22 147.052 93.85 147.532 94.63V92.26H152.662V109H147.532V106.63C147.032 107.41 146.332 108.04 145.432 108.52C144.552 109 143.522 109.24 142.342 109.24C140.982 109.24 139.742 108.89 138.622 108.19C137.502 107.47 136.612 106.46 135.952 105.16C135.312 103.84 134.992 102.32 134.992 100.6ZM147.532 100.63C147.532 99.35 147.172 98.34 146.452 97.6C145.752 96.86 144.892 96.49 143.872 96.49C142.852 96.49 141.982 96.86 141.262 97.6C140.562 98.32 140.212 99.32 140.212 100.6C140.212 101.88 140.562 102.9 141.262 103.66C141.982 104.4 142.852 104.77 143.872 104.77C144.892 104.77 145.752 104.4 146.452 103.66C147.172 102.92 147.532 101.91 147.532 100.63ZM161.504 95.05C162.104 94.13 162.854 93.41 163.754 92.89C164.654 92.35 165.654 92.08 166.754 92.08V97.51H165.344C164.064 97.51 163.104 97.79 162.464 98.35C161.824 98.89 161.504 99.85 161.504 101.23V109H156.374V92.26H161.504V95.05ZM174.543 100.63C174.543 98.89 174.893 97.37 175.593 96.07C176.313 94.77 177.303 93.77 178.563 93.07C179.843 92.37 181.303 92.02 182.943 92.02C185.043 92.02 186.793 92.57 188.193 93.67C189.613 94.77 190.543 96.32 190.983 98.32H185.523C185.063 97.04 184.173 96.4 182.853 96.4C181.913 96.4 181.163 96.77 180.603 97.51C180.043 98.23 179.763 99.27 179.763 100.63C179.763 101.99 180.043 103.04 180.603 103.78C181.163 104.5 181.913 104.86 182.853 104.86C184.173 104.86 185.063 104.22 185.523 102.94H190.983C190.543 104.9 189.613 106.44 188.193 107.56C186.773 108.68 185.023 109.24 182.943 109.24C181.303 109.24 179.843 108.89 178.563 108.19C177.303 107.49 176.313 106.49 175.593 105.19C174.893 103.89 174.543 102.37 174.543 100.63ZM201.347 109.24C199.707 109.24 198.227 108.89 196.907 108.19C195.607 107.49 194.577 106.49 193.817 105.19C193.077 103.89 192.707 102.37 192.707 100.63C192.707 98.91 193.087 97.4 193.847 96.1C194.607 94.78 195.647 93.77 196.967 93.07C198.287 92.37 199.767 92.02 201.407 92.02C203.047 92.02 204.527 92.37 205.847 93.07C207.167 93.77 208.207 94.78 208.967 96.1C209.727 97.4 210.107 98.91 210.107 100.63C210.107 102.35 209.717 103.87 208.937 105.19C208.177 106.49 207.127 107.49 205.787 108.19C204.467 108.89 202.987 109.24 201.347 109.24ZM201.347 104.8C202.327 104.8 203.157 104.44 203.837 103.72C204.537 103 204.887 101.97 204.887 100.63C204.887 99.29 204.547 98.26 203.867 97.54C203.207 96.82 202.387 96.46 201.407 96.46C200.407 96.46 199.577 96.82 198.917 97.54C198.257 98.24 197.927 99.27 197.927 100.63C197.927 101.97 198.247 103 198.887 103.72C199.547 104.44 200.367 104.8 201.347 104.8ZM234.189 92.08C236.269 92.08 237.919 92.71 239.139 93.97C240.379 95.23 240.999 96.98 240.999 99.22V109H235.899V99.91C235.899 98.83 235.609 98 235.029 97.42C234.469 96.82 233.689 96.52 232.689 96.52C231.689 96.52 230.899 96.82 230.319 97.42C229.759 98 229.479 98.83 229.479 99.91V109H224.379V99.91C224.379 98.83 224.089 98 223.509 97.42C222.949 96.82 222.169 96.52 221.169 96.52C220.169 96.52 219.379 96.82 218.799 97.42C218.239 98 217.959 98.83 217.959 99.91V109H212.829V92.26H217.959V94.36C218.479 93.66 219.159 93.11 219.999 92.71C220.839 92.29 221.789 92.08 222.849 92.08C224.109 92.08 225.229 92.35 226.209 92.89C227.209 93.43 227.989 94.2 228.549 95.2C229.129 94.28 229.919 93.53 230.919 92.95C231.919 92.37 233.009 92.08 234.189 92.08ZM257.754 109.24C256.294 109.24 254.994 108.99 253.854 108.49C252.714 107.99 251.814 107.31 251.154 106.45C250.494 105.57 250.124 104.59 250.044 103.51H255.114C255.174 104.09 255.444 104.56 255.924 104.92C256.404 105.28 256.994 105.46 257.694 105.46C258.334 105.46 258.824 105.34 259.164 105.1C259.524 104.84 259.704 104.51 259.704 104.11C259.704 103.63 259.454 103.28 258.954 103.06C258.454 102.82 257.644 102.56 256.524 102.28C255.324 102 254.324 101.71 253.524 101.41C252.724 101.09 252.034 100.6 251.454 99.94C250.874 99.26 250.584 98.35 250.584 97.21C250.584 96.25 250.844 95.38 251.364 94.6C251.904 93.8 252.684 93.17 253.704 92.71C254.744 92.25 255.974 92.02 257.394 92.02C259.494 92.02 261.144 92.54 262.344 93.58C263.564 94.62 264.264 96 264.444 97.72H259.704C259.624 97.14 259.364 96.68 258.924 96.34C258.504 96 257.944 95.83 257.244 95.83C256.644 95.83 256.184 95.95 255.864 96.19C255.544 96.41 255.384 96.72 255.384 97.12C255.384 97.6 255.634 97.96 256.134 98.2C256.654 98.44 257.454 98.68 258.534 98.92C259.774 99.24 260.784 99.56 261.564 99.88C262.344 100.18 263.024 100.68 263.604 101.38C264.204 102.06 264.514 102.98 264.534 104.14C264.534 105.12 264.254 106 263.694 106.78C263.154 107.54 262.364 108.14 261.324 108.58C260.304 109.02 259.114 109.24 257.754 109.24ZM283.452 100.36C283.452 100.84 283.423 101.34 283.363 101.86H271.753C271.833 102.9 272.163 103.7 272.743 104.26C273.343 104.8 274.073 105.07 274.933 105.07C276.213 105.07 277.103 104.53 277.603 103.45H283.063C282.783 104.55 282.273 105.54 281.533 106.42C280.813 107.3 279.903 107.99 278.803 108.49C277.703 108.99 276.473 109.24 275.113 109.24C273.473 109.24 272.013 108.89 270.733 108.19C269.453 107.49 268.453 106.49 267.733 105.19C267.013 103.89 266.653 102.37 266.653 100.63C266.653 98.89 267.003 97.37 267.703 96.07C268.423 94.77 269.423 93.77 270.703 93.07C271.983 92.37 273.453 92.02 275.113 92.02C276.733 92.02 278.173 92.36 279.433 93.04C280.693 93.72 281.673 94.69 282.373 95.95C283.093 97.21 283.452 98.68 283.452 100.36ZM278.203 99.01C278.203 98.13 277.903 97.43 277.303 96.91C276.703 96.39 275.953 96.13 275.053 96.13C274.193 96.13 273.463 96.38 272.863 96.88C272.283 97.38 271.923 98.09 271.783 99.01H278.203ZM302.689 92.26V109H297.559V106.72C297.039 107.46 296.329 108.06 295.429 108.52C294.549 108.96 293.569 109.18 292.489 109.18C291.209 109.18 290.079 108.9 289.099 108.34C288.119 107.76 287.359 106.93 286.819 105.85C286.279 104.77 286.009 103.5 286.009 102.04V92.26H291.109V101.35C291.109 102.47 291.399 103.34 291.979 103.96C292.559 104.58 293.339 104.89 294.319 104.89C295.319 104.89 296.109 104.58 296.689 103.96C297.269 103.34 297.559 102.47 297.559 101.35V92.26H302.689ZM53.3859 145.63C53.3859 143.89 53.7359 142.37 54.4359 141.07C55.1559 139.77 56.1459 138.77 57.4059 138.07C58.6859 137.37 60.1459 137.02 61.7859 137.02C63.8859 137.02 65.6359 137.57 67.0359 138.67C68.4559 139.77 69.3859 141.32 69.8259 143.32H64.3659C63.9059 142.04 63.0159 141.4 61.6959 141.4C60.7559 141.4 60.0059 141.77 59.4459 142.51C58.8859 143.23 58.6059 144.27 58.6059 145.63C58.6059 146.99 58.8859 148.04 59.4459 148.78C60.0059 149.5 60.7559 149.86 61.6959 149.86C63.0159 149.86 63.9059 149.22 64.3659 147.94H69.8259C69.3859 149.9 68.4559 151.44 67.0359 152.56C65.6159 153.68 63.8659 154.24 61.7859 154.24C60.1459 154.24 58.6859 153.89 57.4059 153.19C56.1459 152.49 55.1559 151.49 54.4359 150.19C53.7359 148.89 53.3859 147.37 53.3859 145.63ZM71.55 145.6C71.55 143.88 71.87 142.37 72.51 141.07C73.17 139.77 74.06 138.77 75.18 138.07C76.3 137.37 77.55 137.02 78.93 137.02C80.11 137.02 81.14 137.26 82.02 137.74C82.92 138.22 83.61 138.85 84.09 139.63V137.26H89.22V154H84.09V151.63C83.59 152.41 82.89 153.04 81.99 153.52C81.11 154 80.08 154.24 78.9 154.24C77.54 154.24 76.3 153.89 75.18 153.19C74.06 152.47 73.17 151.46 72.51 150.16C71.87 148.84 71.55 147.32 71.55 145.6ZM84.09 145.63C84.09 144.35 83.73 143.34 83.01 142.6C82.31 141.86 81.45 141.49 80.43 141.49C79.41 141.49 78.54 141.86 77.82 142.6C77.12 143.32 76.77 144.32 76.77 145.6C76.77 146.88 77.12 147.9 77.82 148.66C78.54 149.4 79.41 149.77 80.43 149.77C81.45 149.77 82.31 149.4 83.01 148.66C83.73 147.92 84.09 146.91 84.09 145.63ZM91.9113 145.63C91.9113 143.89 92.2613 142.37 92.9613 141.07C93.6813 139.77 94.6713 138.77 95.9313 138.07C97.2113 137.37 98.6713 137.02 100.311 137.02C102.411 137.02 104.161 137.57 105.561 138.67C106.981 139.77 107.911 141.32 108.351 143.32H102.891C102.431 142.04 101.541 141.4 100.221 141.4C99.2813 141.4 98.5313 141.77 97.9713 142.51C97.4113 143.23 97.1313 144.27 97.1313 145.63C97.1313 146.99 97.4113 148.04 97.9713 148.78C98.5313 149.5 99.2813 149.86 100.221 149.86C101.541 149.86 102.431 149.22 102.891 147.94H108.351C107.911 149.9 106.981 151.44 105.561 152.56C104.141 153.68 102.391 154.24 100.311 154.24C98.6713 154.24 97.2113 153.89 95.9313 153.19C94.6713 152.49 93.6813 151.49 92.9613 150.19C92.2613 148.89 91.9113 147.37 91.9113 145.63ZM121.385 137.08C123.305 137.08 124.845 137.72 126.005 139C127.165 140.26 127.745 142 127.745 144.22V154H122.645V144.91C122.645 143.79 122.355 142.92 121.775 142.3C121.195 141.68 120.415 141.37 119.435 141.37C118.455 141.37 117.675 141.68 117.095 142.3C116.515 142.92 116.225 143.79 116.225 144.91V154H111.095V131.8H116.225V139.51C116.745 138.77 117.455 138.18 118.355 137.74C119.255 137.3 120.265 137.08 121.385 137.08ZM138.93 154.24C137.29 154.24 135.81 153.89 134.49 153.19C133.19 152.49 132.16 151.49 131.4 150.19C130.66 148.89 130.29 147.37 130.29 145.63C130.29 143.91 130.67 142.4 131.43 141.1C132.19 139.78 133.23 138.77 134.55 138.07C135.87 137.37 137.35 137.02 138.99 137.02C140.63 137.02 142.11 137.37 143.43 138.07C144.75 138.77 145.79 139.78 146.55 141.1C147.31 142.4 147.69 143.91 147.69 145.63C147.69 147.35 147.3 148.87 146.52 150.19C145.76 151.49 144.71 152.49 143.37 153.19C142.05 153.89 140.57 154.24 138.93 154.24ZM138.93 149.8C139.91 149.8 140.74 149.44 141.42 148.72C142.12 148 142.47 146.97 142.47 145.63C142.47 144.29 142.13 143.26 141.45 142.54C140.79 141.82 139.97 141.46 138.99 141.46C137.99 141.46 137.16 141.82 136.5 142.54C135.84 143.24 135.51 144.27 135.51 145.63C135.51 146.97 135.83 148 136.47 148.72C137.13 149.44 137.95 149.8 138.93 149.8ZM155.542 140.05C156.142 139.13 156.892 138.41 157.792 137.89C158.692 137.35 159.692 137.08 160.792 137.08V142.51H159.382C158.102 142.51 157.142 142.79 156.502 143.35C155.862 143.89 155.542 144.85 155.542 146.23V154H150.412V137.26H155.542V140.05ZM168.374 140.05C168.974 139.13 169.724 138.41 170.624 137.89C171.524 137.35 172.524 137.08 173.624 137.08V142.51H172.214C170.934 142.51 169.974 142.79 169.334 143.35C168.694 143.89 168.374 144.85 168.374 146.23V154H163.244V137.26H168.374V140.05ZM183.696 154.24C182.056 154.24 180.576 153.89 179.256 153.19C177.956 152.49 176.926 151.49 176.166 150.19C175.426 148.89 175.056 147.37 175.056 145.63C175.056 143.91 175.436 142.4 176.196 141.1C176.956 139.78 177.996 138.77 179.316 138.07C180.636 137.37 182.116 137.02 183.756 137.02C185.396 137.02 186.876 137.37 188.196 138.07C189.516 138.77 190.556 139.78 191.316 141.1C192.076 142.4 192.456 143.91 192.456 145.63C192.456 147.35 192.066 148.87 191.286 150.19C190.526 151.49 189.476 152.49 188.136 153.19C186.816 153.89 185.336 154.24 183.696 154.24ZM183.696 149.8C184.676 149.8 185.506 149.44 186.186 148.72C186.886 148 187.236 146.97 187.236 145.63C187.236 144.29 186.896 143.26 186.216 142.54C185.556 141.82 184.736 141.46 183.756 141.46C182.756 141.46 181.926 141.82 181.266 142.54C180.606 143.24 180.276 144.27 180.276 145.63C180.276 146.97 180.596 148 181.236 148.72C181.896 149.44 182.716 149.8 183.696 149.8ZM217.315 145.36C217.315 145.84 217.285 146.34 217.225 146.86H205.615C205.695 147.9 206.025 148.7 206.605 149.26C207.205 149.8 207.935 150.07 208.795 150.07C210.075 150.07 210.965 149.53 211.465 148.45H216.925C216.645 149.55 216.135 150.54 215.395 151.42C214.675 152.3 213.765 152.99 212.665 153.49C211.565 153.99 210.335 154.24 208.975 154.24C207.335 154.24 205.875 153.89 204.595 153.19C203.315 152.49 202.315 151.49 201.595 150.19C200.875 148.89 200.515 147.37 200.515 145.63C200.515 143.89 200.865 142.37 201.565 141.07C202.285 139.77 203.285 138.77 204.565 138.07C205.845 137.37 207.315 137.02 208.975 137.02C210.595 137.02 212.035 137.36 213.295 138.04C214.555 138.72 215.535 139.69 216.235 140.95C216.955 142.21 217.315 143.68 217.315 145.36ZM212.065 144.01C212.065 143.13 211.765 142.43 211.165 141.91C210.565 141.39 209.815 141.13 208.915 141.13C208.055 141.13 207.325 141.38 206.725 141.88C206.145 142.38 205.785 143.09 205.645 144.01H212.065ZM241.381 137.08C243.461 137.08 245.111 137.71 246.331 138.97C247.571 140.23 248.191 141.98 248.191 144.22V154H243.091V144.91C243.091 143.83 242.801 143 242.221 142.42C241.661 141.82 240.881 141.52 239.881 141.52C238.881 141.52 238.091 141.82 237.511 142.42C236.951 143 236.671 143.83 236.671 144.91V154H231.571V144.91C231.571 143.83 231.281 143 230.701 142.42C230.141 141.82 229.361 141.52 228.361 141.52C227.361 141.52 226.571 141.82 225.991 142.42C225.431 143 225.151 143.83 225.151 144.91V154H220.021V137.26H225.151V139.36C225.671 138.66 226.351 138.11 227.191 137.71C228.031 137.29 228.981 137.08 230.041 137.08C231.301 137.08 232.421 137.35 233.401 137.89C234.401 138.43 235.181 139.2 235.741 140.2C236.321 139.28 237.111 138.53 238.111 137.95C239.111 137.37 240.201 137.08 241.381 137.08ZM265.756 154.21C264.216 154.21 262.836 153.96 261.616 153.46C260.396 152.96 259.416 152.22 258.676 151.24C257.956 150.26 257.576 149.08 257.536 147.7H262.996C263.076 148.48 263.346 149.08 263.806 149.5C264.266 149.9 264.866 150.1 265.606 150.1C266.366 150.1 266.966 149.93 267.406 149.59C267.846 149.23 268.066 148.74 268.066 148.12C268.066 147.6 267.886 147.17 267.526 146.83C267.186 146.49 266.756 146.21 266.236 145.99C265.736 145.77 265.016 145.52 264.076 145.24C262.716 144.82 261.606 144.4 260.746 143.98C259.886 143.56 259.146 142.94 258.526 142.12C257.906 141.3 257.596 140.23 257.596 138.91C257.596 136.95 258.306 135.42 259.726 134.32C261.146 133.2 262.996 132.64 265.276 132.64C267.596 132.64 269.466 133.2 270.886 134.32C272.306 135.42 273.066 136.96 273.166 138.94H267.616C267.576 138.26 267.326 137.73 266.866 137.35C266.406 136.95 265.816 136.75 265.096 136.75C264.476 136.75 263.976 136.92 263.596 137.26C263.216 137.58 263.026 138.05 263.026 138.67C263.026 139.35 263.346 139.88 263.986 140.26C264.626 140.64 265.626 141.05 266.986 141.49C268.346 141.95 269.446 142.39 270.286 142.81C271.146 143.23 271.886 143.84 272.506 144.64C273.126 145.44 273.436 146.47 273.436 147.73C273.436 148.93 273.126 150.02 272.506 151C271.906 151.98 271.026 152.76 269.866 153.34C268.706 153.92 267.336 154.21 265.756 154.21ZM292.643 139.72C292.643 140.94 292.363 142.06 291.803 143.08C291.243 144.08 290.383 144.89 289.223 145.51C288.063 146.13 286.623 146.44 284.903 146.44H281.723V154H276.593V132.94H284.903C286.583 132.94 288.003 133.23 289.163 133.81C290.323 134.39 291.193 135.19 291.773 136.21C292.353 137.23 292.643 138.4 292.643 139.72ZM284.513 142.36C285.493 142.36 286.223 142.13 286.703 141.67C287.183 141.21 287.423 140.56 287.423 139.72C287.423 138.88 287.183 138.23 286.703 137.77C286.223 137.31 285.493 137.08 284.513 137.08H281.723V142.36H284.513Z" fill="#FFEBEB"/>
</svg>
