<svg width="342" height="196" viewBox="0 0 342 196" fill="none" xmlns="http://www.w3.org/2000/svg">
<rect width="342" height="196" rx="20" fill="#8CCDD0"/>
<path d="M52.3987 60.1V55.96L61.8787 42.4H67.6087V55.66H70.0687V60.1H67.6087V64H62.4787V60.1H52.3987ZM62.8387 48.04L57.7987 55.66H62.8387V48.04ZM82.0289 45.52C81.1289 45.52 80.3889 45.26 79.8089 44.74C79.2489 44.2 78.9689 43.54 78.9689 42.76C78.9689 41.96 79.2489 41.3 79.8089 40.78C80.3889 40.24 81.1289 39.97 82.0289 39.97C82.9089 39.97 83.6289 40.24 84.1889 40.78C84.7689 41.3 85.0589 41.96 85.0589 42.76C85.0589 43.54 84.7689 44.2 84.1889 44.74C83.6289 45.26 82.9089 45.52 82.0289 45.52ZM84.5789 47.26V64H79.4489V47.26H84.5789ZM98.4965 47.08C100.457 47.08 102.017 47.72 103.177 49C104.357 50.26 104.947 52 104.947 54.22V64H99.8465V54.91C99.8465 53.79 99.5565 52.92 98.9765 52.3C98.3965 51.68 97.6165 51.37 96.6365 51.37C95.6565 51.37 94.8765 51.68 94.2965 52.3C93.7165 52.92 93.4265 53.79 93.4265 54.91V64H88.2965V47.26H93.4265V49.48C93.9465 48.74 94.6465 48.16 95.5265 47.74C96.4065 47.3 97.3965 47.08 98.4965 47.08ZM107.491 55.6C107.491 53.88 107.811 52.37 108.451 51.07C109.111 49.77 110.001 48.77 111.121 48.07C112.241 47.37 113.491 47.02 114.871 47.02C115.971 47.02 116.971 47.25 117.871 47.71C118.791 48.17 119.511 48.79 120.031 49.57V41.8H125.161V64H120.031V61.6C119.551 62.4 118.861 63.04 117.961 63.52C117.081 64 116.051 64.24 114.871 64.24C113.491 64.24 112.241 63.89 111.121 63.19C110.001 62.47 109.111 61.46 108.451 60.16C107.811 58.84 107.491 57.32 107.491 55.6ZM120.031 55.63C120.031 54.35 119.671 53.34 118.951 52.6C118.251 51.86 117.391 51.49 116.371 51.49C115.351 51.49 114.481 51.86 113.761 52.6C113.061 53.32 112.711 54.32 112.711 55.6C112.711 56.88 113.061 57.9 113.761 58.66C114.481 59.4 115.351 59.77 116.371 59.77C117.391 59.77 118.251 59.4 118.951 58.66C119.671 57.92 120.031 56.91 120.031 55.63ZM131.453 45.52C130.553 45.52 129.813 45.26 129.233 44.74C128.673 44.2 128.393 43.54 128.393 42.76C128.393 41.96 128.673 41.3 129.233 40.78C129.813 40.24 130.553 39.97 131.453 39.97C132.333 39.97 133.053 40.24 133.613 40.78C134.193 41.3 134.483 41.96 134.483 42.76C134.483 43.54 134.193 44.2 133.613 44.74C133.053 45.26 132.333 45.52 131.453 45.52ZM134.003 47.26V64H128.873V47.26H134.003ZM136.7 55.63C136.7 53.89 137.05 52.37 137.75 51.07C138.47 49.77 139.46 48.77 140.72 48.07C142 47.37 143.46 47.02 145.1 47.02C147.2 47.02 148.95 47.57 150.35 48.67C151.77 49.77 152.7 51.32 153.14 53.32H147.68C147.22 52.04 146.33 51.4 145.01 51.4C144.07 51.4 143.32 51.77 142.76 52.51C142.2 53.23 141.92 54.27 141.92 55.63C141.92 56.99 142.2 58.04 142.76 58.78C143.32 59.5 144.07 59.86 145.01 59.86C146.33 59.86 147.22 59.22 147.68 57.94H153.14C152.7 59.9 151.77 61.44 150.35 62.56C148.93 63.68 147.18 64.24 145.1 64.24C143.46 64.24 142 63.89 140.72 63.19C139.46 62.49 138.47 61.49 137.75 60.19C137.05 58.89 136.7 57.37 136.7 55.63ZM154.864 55.6C154.864 53.88 155.184 52.37 155.824 51.07C156.484 49.77 157.374 48.77 158.494 48.07C159.614 47.37 160.864 47.02 162.244 47.02C163.424 47.02 164.454 47.26 165.334 47.74C166.234 48.22 166.924 48.85 167.404 49.63V47.26H172.534V64H167.404V61.63C166.904 62.41 166.204 63.04 165.304 63.52C164.424 64 163.394 64.24 162.214 64.24C160.854 64.24 159.614 63.89 158.494 63.19C157.374 62.47 156.484 61.46 155.824 60.16C155.184 58.84 154.864 57.32 154.864 55.6ZM167.404 55.63C167.404 54.35 167.044 53.34 166.324 52.6C165.624 51.86 164.764 51.49 163.744 51.49C162.724 51.49 161.854 51.86 161.134 52.6C160.434 53.32 160.084 54.32 160.084 55.6C160.084 56.88 160.434 57.9 161.134 58.66C161.854 59.4 162.724 59.77 163.744 59.77C164.764 59.77 165.624 59.4 166.324 58.66C167.044 57.92 167.404 56.91 167.404 55.63ZM183.536 59.86C184.856 59.86 185.746 59.22 186.206 57.94H191.666C191.286 59.64 190.526 61.03 189.386 62.11C188.246 63.19 186.826 63.86 185.126 64.12V65.23C186.166 65.23 187.076 65.51 187.856 66.07C188.636 66.65 189.026 67.51 189.026 68.65C189.026 69.79 188.616 70.65 187.796 71.23C186.976 71.83 185.996 72.13 184.856 72.13H180.236V69.31H184.166C184.566 69.31 184.866 69.25 185.066 69.13C185.266 69.01 185.366 68.81 185.366 68.53C185.366 68.25 185.266 68.05 185.066 67.93C184.866 67.83 184.566 67.78 184.166 67.78H182.036V64.12C179.976 63.8 178.326 62.89 177.086 61.39C175.846 59.87 175.226 57.95 175.226 55.63C175.226 53.89 175.576 52.37 176.276 51.07C176.996 49.77 177.986 48.77 179.246 48.07C180.526 47.37 181.986 47.02 183.626 47.02C185.726 47.02 187.476 47.57 188.876 48.67C190.296 49.77 191.226 51.32 191.666 53.32H186.206C185.746 52.04 184.856 51.4 183.536 51.4C182.596 51.4 181.846 51.77 181.286 52.51C180.726 53.23 180.446 54.27 180.446 55.63C180.446 56.99 180.726 58.04 181.286 58.78C181.846 59.5 182.596 59.86 183.536 59.86ZM202.03 64.24C200.39 64.24 198.91 63.89 197.59 63.19C196.29 62.49 195.26 61.49 194.5 60.19C193.76 58.89 193.39 57.37 193.39 55.63C193.39 53.91 193.77 52.4 194.53 51.1C195.29 49.78 196.33 48.77 197.65 48.07C198.97 47.37 200.45 47.02 202.09 47.02C203.73 47.02 205.21 47.37 206.53 48.07C207.85 48.77 208.89 49.78 209.65 51.1C210.41 52.4 210.79 53.91 210.79 55.63C210.79 57.35 210.4 58.87 209.62 60.19C208.86 61.49 207.81 62.49 206.47 63.19C205.15 63.89 203.67 64.24 202.03 64.24ZM202.03 59.8C203.01 59.8 203.84 59.44 204.52 58.72C205.22 58 205.57 56.97 205.57 55.63C205.57 54.29 205.23 53.26 204.55 52.54C203.89 51.82 203.07 51.46 202.09 51.46C201.09 51.46 200.26 51.82 199.6 52.54C198.94 53.24 198.61 54.27 198.61 55.63C198.61 56.97 198.93 58 199.57 58.72C200.23 59.44 201.05 59.8 202.03 59.8ZM196.48 45.73C196.96 42.77 198.34 41.29 200.62 41.29C201.06 41.29 201.44 41.36 201.76 41.5C202.1 41.62 202.51 41.81 202.99 42.07C203.35 42.27 203.64 42.42 203.86 42.52C204.08 42.6 204.31 42.64 204.55 42.64C205.29 42.64 205.72 42.19 205.84 41.29H208.48C208 44.25 206.62 45.73 204.34 45.73C203.9 45.73 203.51 45.67 203.17 45.55C202.85 45.41 202.45 45.21 201.97 44.95C201.61 44.75 201.32 44.61 201.1 44.53C200.88 44.43 200.65 44.38 200.41 44.38C199.67 44.38 199.23 44.83 199.09 45.73H196.48ZM229.291 55.36C229.291 55.84 229.261 56.34 229.201 56.86H217.591C217.671 57.9 218.001 58.7 218.581 59.26C219.181 59.8 219.911 60.07 220.771 60.07C222.051 60.07 222.941 59.53 223.441 58.45H228.901C228.621 59.55 228.111 60.54 227.371 61.42C226.651 62.3 225.741 62.99 224.641 63.49C223.541 63.99 222.311 64.24 220.951 64.24C219.311 64.24 217.851 63.89 216.571 63.19C215.291 62.49 214.291 61.49 213.571 60.19C212.851 58.89 212.491 57.37 212.491 55.63C212.491 53.89 212.841 52.37 213.541 51.07C214.261 49.77 215.261 48.77 216.541 48.07C217.821 47.37 219.291 47.02 220.951 47.02C222.571 47.02 224.011 47.36 225.271 48.04C226.531 48.72 227.511 49.69 228.211 50.95C228.931 52.21 229.291 53.68 229.291 55.36ZM224.041 54.01C224.041 53.13 223.741 52.43 223.141 51.91C222.541 51.39 221.791 51.13 220.891 51.13C220.031 51.13 219.301 51.38 218.701 51.88C218.121 52.38 217.761 53.09 217.621 54.01H224.041ZM238.808 64.24C237.348 64.24 236.048 63.99 234.908 63.49C233.768 62.99 232.868 62.31 232.208 61.45C231.548 60.57 231.178 59.59 231.098 58.51H236.168C236.228 59.09 236.498 59.56 236.978 59.92C237.458 60.28 238.048 60.46 238.748 60.46C239.388 60.46 239.878 60.34 240.218 60.1C240.578 59.84 240.758 59.51 240.758 59.11C240.758 58.63 240.508 58.28 240.008 58.06C239.508 57.82 238.698 57.56 237.578 57.28C236.378 57 235.378 56.71 234.578 56.41C233.778 56.09 233.088 55.6 232.508 54.94C231.928 54.26 231.638 53.35 231.638 52.21C231.638 51.25 231.898 50.38 232.418 49.6C232.958 48.8 233.738 48.17 234.758 47.71C235.798 47.25 237.028 47.02 238.448 47.02C240.548 47.02 242.198 47.54 243.398 48.58C244.618 49.62 245.318 51 245.498 52.72H240.758C240.678 52.14 240.418 51.68 239.978 51.34C239.558 51 238.998 50.83 238.298 50.83C237.698 50.83 237.238 50.95 236.918 51.19C236.598 51.41 236.438 51.72 236.438 52.12C236.438 52.6 236.688 52.96 237.188 53.2C237.708 53.44 238.508 53.68 239.588 53.92C240.828 54.24 241.838 54.56 242.618 54.88C243.398 55.18 244.078 55.68 244.658 56.38C245.258 57.06 245.568 57.98 245.588 59.14C245.588 60.12 245.308 61 244.748 61.78C244.208 62.54 243.418 63.14 242.378 63.58C241.358 64.02 240.168 64.24 238.808 64.24ZM254.064 55.6C254.064 53.88 254.384 52.37 255.024 51.07C255.684 49.77 256.574 48.77 257.694 48.07C258.814 47.37 260.064 47.02 261.444 47.02C262.544 47.02 263.544 47.25 264.444 47.71C265.364 48.17 266.084 48.79 266.604 49.57V41.8H271.734V64H266.604V61.6C266.124 62.4 265.434 63.04 264.534 63.52C263.654 64 262.624 64.24 261.444 64.24C260.064 64.24 258.814 63.89 257.694 63.19C256.574 62.47 255.684 61.46 255.024 60.16C254.384 58.84 254.064 57.32 254.064 55.6ZM266.604 55.63C266.604 54.35 266.244 53.34 265.524 52.6C264.824 51.86 263.964 51.49 262.944 51.49C261.924 51.49 261.054 51.86 260.334 52.6C259.634 53.32 259.284 54.32 259.284 55.6C259.284 56.88 259.634 57.9 260.334 58.66C261.054 59.4 261.924 59.77 262.944 59.77C263.964 59.77 264.824 59.4 265.524 58.66C266.244 57.92 266.604 56.91 266.604 55.63ZM291.225 55.36C291.225 55.84 291.195 56.34 291.135 56.86H279.525C279.605 57.9 279.935 58.7 280.515 59.26C281.115 59.8 281.845 60.07 282.705 60.07C283.985 60.07 284.875 59.53 285.375 58.45H290.835C290.555 59.55 290.045 60.54 289.305 61.42C288.585 62.3 287.675 62.99 286.575 63.49C285.475 63.99 284.245 64.24 282.885 64.24C281.245 64.24 279.785 63.89 278.505 63.19C277.225 62.49 276.225 61.49 275.505 60.19C274.785 58.89 274.425 57.37 274.425 55.63C274.425 53.89 274.775 52.37 275.475 51.07C276.195 49.77 277.195 48.77 278.475 48.07C279.755 47.37 281.225 47.02 282.885 47.02C284.505 47.02 285.945 47.36 287.205 48.04C288.465 48.72 289.445 49.69 290.145 50.95C290.865 52.21 291.225 53.68 291.225 55.36ZM285.975 54.01C285.975 53.13 285.675 52.43 285.075 51.91C284.475 51.39 283.725 51.13 282.825 51.13C281.965 51.13 281.235 51.38 280.635 51.88C280.055 52.38 279.695 53.09 279.555 54.01H285.975ZM111.418 96.52H108.658V109H103.528V96.52H101.668V92.26H103.528V91.78C103.528 89.72 104.118 88.16 105.298 87.1C106.478 86.02 108.208 85.48 110.488 85.48C110.868 85.48 111.148 85.49 111.328 85.51V89.86C110.348 89.8 109.658 89.94 109.258 90.28C108.858 90.62 108.658 91.23 108.658 92.11V92.26H111.418V96.52ZM116.409 90.52C115.509 90.52 114.769 90.26 114.189 89.74C113.629 89.2 113.349 88.54 113.349 87.76C113.349 86.96 113.629 86.3 114.189 85.78C114.769 85.24 115.509 84.97 116.409 84.97C117.289 84.97 118.009 85.24 118.569 85.78C119.149 86.3 119.439 86.96 119.439 87.76C119.439 88.54 119.149 89.2 118.569 89.74C118.009 90.26 117.289 90.52 116.409 90.52ZM118.959 92.26V109H113.829V92.26H118.959ZM127.806 86.8V109H122.676V86.8H127.806ZM152.884 92.08C154.964 92.08 156.614 92.71 157.834 93.97C159.074 95.23 159.694 96.98 159.694 99.22V109H154.594V99.91C154.594 98.83 154.304 98 153.724 97.42C153.164 96.82 152.384 96.52 151.384 96.52C150.384 96.52 149.594 96.82 149.014 97.42C148.454 98 148.174 98.83 148.174 99.91V109H143.074V99.91C143.074 98.83 142.784 98 142.204 97.42C141.644 96.82 140.864 96.52 139.864 96.52C138.864 96.52 138.074 96.82 137.494 97.42C136.934 98 136.654 98.83 136.654 99.91V109H131.524V92.26H136.654V94.36C137.174 93.66 137.854 93.11 138.694 92.71C139.534 92.29 140.484 92.08 141.544 92.08C142.804 92.08 143.924 92.35 144.904 92.89C145.904 93.43 146.684 94.2 147.244 95.2C147.824 94.28 148.614 93.53 149.614 92.95C150.614 92.37 151.704 92.08 152.884 92.08ZM179.062 100.36C179.062 100.84 179.032 101.34 178.972 101.86H167.362C167.442 102.9 167.772 103.7 168.352 104.26C168.952 104.8 169.682 105.07 170.542 105.07C171.822 105.07 172.712 104.53 173.212 103.45H178.672C178.392 104.55 177.882 105.54 177.142 106.42C176.422 107.3 175.512 107.99 174.412 108.49C173.312 108.99 172.082 109.24 170.722 109.24C169.082 109.24 167.622 108.89 166.342 108.19C165.062 107.49 164.062 106.49 163.342 105.19C162.622 103.89 162.262 102.37 162.262 100.63C162.262 98.89 162.612 97.37 163.312 96.07C164.032 94.77 165.032 93.77 166.312 93.07C167.592 92.37 169.062 92.02 170.722 92.02C172.342 92.02 173.782 92.36 175.042 93.04C176.302 93.72 177.282 94.69 177.982 95.95C178.702 97.21 179.062 98.68 179.062 100.36ZM173.812 99.01C173.812 98.13 173.512 97.43 172.912 96.91C172.312 96.39 171.562 96.13 170.662 96.13C169.802 96.13 169.072 96.38 168.472 96.88C167.892 97.38 167.532 98.09 167.392 99.01H173.812ZM188.578 109.24C187.118 109.24 185.818 108.99 184.678 108.49C183.538 107.99 182.638 107.31 181.978 106.45C181.318 105.57 180.948 104.59 180.868 103.51H185.938C185.998 104.09 186.268 104.56 186.748 104.92C187.228 105.28 187.818 105.46 188.518 105.46C189.158 105.46 189.648 105.34 189.988 105.1C190.348 104.84 190.528 104.51 190.528 104.11C190.528 103.63 190.278 103.28 189.778 103.06C189.278 102.82 188.468 102.56 187.348 102.28C186.148 102 185.148 101.71 184.348 101.41C183.548 101.09 182.858 100.6 182.278 99.94C181.698 99.26 181.408 98.35 181.408 97.21C181.408 96.25 181.668 95.38 182.188 94.6C182.728 93.8 183.508 93.17 184.528 92.71C185.568 92.25 186.798 92.02 188.218 92.02C190.318 92.02 191.968 92.54 193.168 93.58C194.388 94.62 195.088 96 195.268 97.72H190.528C190.448 97.14 190.188 96.68 189.748 96.34C189.328 96 188.768 95.83 188.068 95.83C187.468 95.83 187.008 95.95 186.688 96.19C186.368 96.41 186.208 96.72 186.208 97.12C186.208 97.6 186.458 97.96 186.958 98.2C187.478 98.44 188.278 98.68 189.358 98.92C190.598 99.24 191.608 99.56 192.388 99.88C193.168 100.18 193.848 100.68 194.428 101.38C195.028 102.06 195.338 102.98 195.358 104.14C195.358 105.12 195.078 106 194.518 106.78C193.978 107.54 193.188 108.14 192.148 108.58C191.128 109.02 189.938 109.24 188.578 109.24ZM203.834 100.6C203.834 98.88 204.154 97.37 204.794 96.07C205.454 94.77 206.344 93.77 207.464 93.07C208.584 92.37 209.834 92.02 211.214 92.02C212.314 92.02 213.314 92.25 214.214 92.71C215.134 93.17 215.854 93.79 216.374 94.57V86.8H221.504V109H216.374V106.6C215.894 107.4 215.204 108.04 214.304 108.52C213.424 109 212.394 109.24 211.214 109.24C209.834 109.24 208.584 108.89 207.464 108.19C206.344 107.47 205.454 106.46 204.794 105.16C204.154 103.84 203.834 102.32 203.834 100.6ZM216.374 100.63C216.374 99.35 216.014 98.34 215.294 97.6C214.594 96.86 213.734 96.49 212.714 96.49C211.694 96.49 210.824 96.86 210.104 97.6C209.404 98.32 209.054 99.32 209.054 100.6C209.054 101.88 209.404 102.9 210.104 103.66C210.824 104.4 211.694 104.77 212.714 104.77C213.734 104.77 214.594 104.4 215.294 103.66C216.014 102.92 216.374 101.91 216.374 100.63ZM240.995 100.36C240.995 100.84 240.965 101.34 240.905 101.86H229.295C229.375 102.9 229.705 103.7 230.285 104.26C230.885 104.8 231.615 105.07 232.475 105.07C233.755 105.07 234.645 104.53 235.145 103.45H240.605C240.325 104.55 239.815 105.54 239.075 106.42C238.355 107.3 237.445 107.99 236.345 108.49C235.245 108.99 234.015 109.24 232.655 109.24C231.015 109.24 229.555 108.89 228.275 108.19C226.995 107.49 225.995 106.49 225.275 105.19C224.555 103.89 224.195 102.37 224.195 100.63C224.195 98.89 224.545 97.37 225.245 96.07C225.965 94.77 226.965 93.77 228.245 93.07C229.525 92.37 230.995 92.02 232.655 92.02C234.275 92.02 235.715 92.36 236.975 93.04C238.235 93.72 239.215 94.69 239.915 95.95C240.635 97.21 240.995 98.68 240.995 100.36ZM235.745 99.01C235.745 98.13 235.445 97.43 234.845 96.91C234.245 96.39 233.495 96.13 232.595 96.13C231.735 96.13 231.005 96.38 230.405 96.88C229.825 97.38 229.465 98.09 229.325 99.01H235.745ZM93.59 145.63C93.59 143.89 93.94 142.37 94.64 141.07C95.36 139.77 96.35 138.77 97.61 138.07C98.89 137.37 100.35 137.02 101.99 137.02C104.09 137.02 105.84 137.57 107.24 138.67C108.66 139.77 109.59 141.32 110.03 143.32H104.57C104.11 142.04 103.22 141.4 101.9 141.4C100.96 141.4 100.21 141.77 99.65 142.51C99.09 143.23 98.81 144.27 98.81 145.63C98.81 146.99 99.09 148.04 99.65 148.78C100.21 149.5 100.96 149.86 101.9 149.86C103.22 149.86 104.11 149.22 104.57 147.94H110.03C109.59 149.9 108.66 151.44 107.24 152.56C105.82 153.68 104.07 154.24 101.99 154.24C100.35 154.24 98.89 153.89 97.61 153.19C96.35 152.49 95.36 151.49 94.64 150.19C93.94 148.89 93.59 147.37 93.59 145.63ZM111.754 145.6C111.754 143.88 112.074 142.37 112.714 141.07C113.374 139.77 114.264 138.77 115.384 138.07C116.504 137.37 117.754 137.02 119.134 137.02C120.314 137.02 121.344 137.26 122.224 137.74C123.124 138.22 123.814 138.85 124.294 139.63V137.26H129.424V154H124.294V151.63C123.794 152.41 123.094 153.04 122.194 153.52C121.314 154 120.284 154.24 119.104 154.24C117.744 154.24 116.504 153.89 115.384 153.19C114.264 152.47 113.374 151.46 112.714 150.16C112.074 148.84 111.754 147.32 111.754 145.6ZM124.294 145.63C124.294 144.35 123.934 143.34 123.214 142.6C122.514 141.86 121.654 141.49 120.634 141.49C119.614 141.49 118.744 141.86 118.024 142.6C117.324 143.32 116.974 144.32 116.974 145.6C116.974 146.88 117.324 147.9 118.024 148.66C118.744 149.4 119.614 149.77 120.634 149.77C121.654 149.77 122.514 149.4 123.214 148.66C123.934 147.92 124.294 146.91 124.294 145.63ZM132.115 145.63C132.115 143.89 132.465 142.37 133.165 141.07C133.885 139.77 134.875 138.77 136.135 138.07C137.415 137.37 138.875 137.02 140.515 137.02C142.615 137.02 144.365 137.57 145.765 138.67C147.185 139.77 148.115 141.32 148.555 143.32H143.095C142.635 142.04 141.745 141.4 140.425 141.4C139.485 141.4 138.735 141.77 138.175 142.51C137.615 143.23 137.335 144.27 137.335 145.63C137.335 146.99 137.615 148.04 138.175 148.78C138.735 149.5 139.485 149.86 140.425 149.86C141.745 149.86 142.635 149.22 143.095 147.94H148.555C148.115 149.9 147.185 151.44 145.765 152.56C144.345 153.68 142.595 154.24 140.515 154.24C138.875 154.24 137.415 153.89 136.135 153.19C134.875 152.49 133.885 151.49 133.165 150.19C132.465 148.89 132.115 147.37 132.115 145.63ZM161.589 137.08C163.509 137.08 165.049 137.72 166.209 139C167.369 140.26 167.949 142 167.949 144.22V154H162.849V144.91C162.849 143.79 162.559 142.92 161.979 142.3C161.399 141.68 160.619 141.37 159.639 141.37C158.659 141.37 157.879 141.68 157.299 142.3C156.719 142.92 156.429 143.79 156.429 144.91V154H151.299V131.8H156.429V139.51C156.949 138.77 157.659 138.18 158.559 137.74C159.459 137.3 160.469 137.08 161.589 137.08ZM179.134 154.24C177.494 154.24 176.014 153.89 174.694 153.19C173.394 152.49 172.364 151.49 171.604 150.19C170.864 148.89 170.494 147.37 170.494 145.63C170.494 143.91 170.874 142.4 171.634 141.1C172.394 139.78 173.434 138.77 174.754 138.07C176.074 137.37 177.554 137.02 179.194 137.02C180.834 137.02 182.314 137.37 183.634 138.07C184.954 138.77 185.994 139.78 186.754 141.1C187.514 142.4 187.894 143.91 187.894 145.63C187.894 147.35 187.504 148.87 186.724 150.19C185.964 151.49 184.914 152.49 183.574 153.19C182.254 153.89 180.774 154.24 179.134 154.24ZM179.134 149.8C180.114 149.8 180.944 149.44 181.624 148.72C182.324 148 182.674 146.97 182.674 145.63C182.674 144.29 182.334 143.26 181.654 142.54C180.994 141.82 180.174 141.46 179.194 141.46C178.194 141.46 177.364 141.82 176.704 142.54C176.044 143.24 175.714 144.27 175.714 145.63C175.714 146.97 176.034 148 176.674 148.72C177.334 149.44 178.154 149.8 179.134 149.8ZM195.746 140.05C196.346 139.13 197.096 138.41 197.996 137.89C198.896 137.35 199.896 137.08 200.996 137.08V142.51H199.586C198.306 142.51 197.346 142.79 196.706 143.35C196.066 143.89 195.746 144.85 195.746 146.23V154H190.616V137.26H195.746V140.05ZM208.578 140.05C209.178 139.13 209.928 138.41 210.828 137.89C211.728 137.35 212.728 137.08 213.828 137.08V142.51H212.418C211.138 142.51 210.178 142.79 209.538 143.35C208.898 143.89 208.578 144.85 208.578 146.23V154H203.448V137.26H208.578V140.05ZM223.9 154.24C222.26 154.24 220.78 153.89 219.46 153.19C218.16 152.49 217.13 151.49 216.37 150.19C215.63 148.89 215.26 147.37 215.26 145.63C215.26 143.91 215.64 142.4 216.4 141.1C217.16 139.78 218.2 138.77 219.52 138.07C220.84 137.37 222.32 137.02 223.96 137.02C225.6 137.02 227.08 137.37 228.4 138.07C229.72 138.77 230.76 139.78 231.52 141.1C232.28 142.4 232.66 143.91 232.66 145.63C232.66 147.35 232.27 148.87 231.49 150.19C230.73 151.49 229.68 152.49 228.34 153.19C227.02 153.89 225.54 154.24 223.9 154.24ZM223.9 149.8C224.88 149.8 225.71 149.44 226.39 148.72C227.09 148 227.44 146.97 227.44 145.63C227.44 144.29 227.1 143.26 226.42 142.54C225.76 141.82 224.94 141.46 223.96 141.46C222.96 141.46 222.13 141.82 221.47 142.54C220.81 143.24 220.48 144.27 220.48 145.63C220.48 146.97 220.8 148 221.44 148.72C222.1 149.44 222.92 149.8 223.9 149.8ZM242.191 154.24C240.731 154.24 239.431 153.99 238.291 153.49C237.151 152.99 236.251 152.31 235.591 151.45C234.931 150.57 234.561 149.59 234.481 148.51H239.551C239.611 149.09 239.881 149.56 240.361 149.92C240.841 150.28 241.431 150.46 242.131 150.46C242.771 150.46 243.261 150.34 243.601 150.1C243.961 149.84 244.141 149.51 244.141 149.11C244.141 148.63 243.891 148.28 243.391 148.06C242.891 147.82 242.081 147.56 240.961 147.28C239.761 147 238.761 146.71 237.961 146.41C237.161 146.09 236.471 145.6 235.891 144.94C235.311 144.26 235.021 143.35 235.021 142.21C235.021 141.25 235.281 140.38 235.801 139.6C236.341 138.8 237.121 138.17 238.141 137.71C239.181 137.25 240.411 137.02 241.831 137.02C243.931 137.02 245.581 137.54 246.781 138.58C248.001 139.62 248.701 141 248.881 142.72H244.141C244.061 142.14 243.801 141.68 243.361 141.34C242.941 141 242.381 140.83 241.681 140.83C241.081 140.83 240.621 140.95 240.301 141.19C239.981 141.41 239.821 141.72 239.821 142.12C239.821 142.6 240.071 142.96 240.571 143.2C241.091 143.44 241.891 143.68 242.971 143.92C244.211 144.24 245.221 144.56 246.001 144.88C246.781 145.18 247.461 145.68 248.041 146.38C248.641 147.06 248.951 147.98 248.971 149.14C248.971 150.12 248.691 151 248.131 151.78C247.591 152.54 246.801 153.14 245.761 153.58C244.741 154.02 243.551 154.24 242.191 154.24Z" fill="#FFEBEB"/>
</svg>
