<svg width="365" height="279" viewBox="0 0 365 279" fill="none" xmlns="http://www.w3.org/2000/svg">
<g clip-path="url(#clip0_421_4)">
<path d="M359.464 86.851C383.38 152.878 324.953 175.875 277.655 174.746C197.785 172.827 181.288 135.976 195.508 87.1614C196.492 83.7471 197.391 84.7347 194.974 80.079C186.543 63.8544 191.995 9.3679 201.747 2.08799C211.499 -5.19192 253.992 28.6117 253.992 28.6117C253.992 28.6117 267.622 26.834 277.795 27.0598C289.711 27.3137 298.479 29.2325 298.479 29.2325C298.479 29.2325 343.641 -6.74384 351.932 1.12862C358.621 7.5056 365.197 26.693 362.808 53.9503C359.436 92.3532 356.485 78.6399 359.464 86.851Z" fill="#CED0D0"/>
<path d="M237.382 119.046C246.695 119.046 254.244 111.466 254.244 102.116C254.244 92.7661 246.695 85.1863 237.382 85.1863C228.07 85.1863 220.52 92.7661 220.52 102.116C220.52 111.466 228.07 119.046 237.382 119.046Z" fill="#5C2F17"/>
<path d="M241.57 101.524C244.348 101.524 246.6 99.2624 246.6 96.4729C246.6 93.6834 244.348 91.4221 241.57 91.4221C238.792 91.4221 236.539 93.6834 236.539 96.4729C236.539 99.2624 238.792 101.524 241.57 101.524Z" fill="white"/>
<path d="M317.028 118.905C326.34 118.905 333.89 111.325 333.89 101.975C333.89 92.625 326.34 85.0452 317.028 85.0452C307.715 85.0452 300.166 92.625 300.166 101.975C300.166 111.325 307.715 118.905 317.028 118.905Z" fill="#5C2F17"/>
<path d="M312.699 101.044C315.478 101.044 317.73 98.7826 317.73 95.9932C317.73 93.2037 315.478 90.9424 312.699 90.9424C309.921 90.9424 307.669 93.2037 307.669 95.9932C307.669 98.7826 309.921 101.044 312.699 101.044Z" fill="white"/>
<path d="M254.891 69.3849C251.294 69.667 247.949 68.4255 245.392 65.7167C241.542 61.6535 238.816 56.2077 239.603 45.0621C240.333 34.6783 248.343 24.2382 248.343 24.2382L253.71 28.3296L270.825 27.0598C270.825 27.0598 269.308 36.4278 268.437 45.6829C267.959 50.7336 268.549 54.8815 267.622 59.4526C266.469 65.2935 258.095 69.1591 254.919 69.3849H254.891Z" fill="#7A7A79"/>
<path d="M298.367 69.4131C301.964 69.6952 305.308 68.4537 307.866 65.7449C311.716 61.6817 314.442 56.2359 313.655 45.0903C312.924 34.7065 304.915 24.2664 304.915 24.2664L299.547 28.3578L282.404 27.2009C282.404 27.2009 283.95 36.456 284.849 45.6828C285.327 50.7336 284.737 54.8815 285.664 59.4526C286.816 65.2934 295.191 69.1591 298.367 69.3849V69.4131Z" fill="#7A7A79"/>
<path d="M363.426 38.7134C364.635 64.6163 360.222 75.3951 360.222 75.3951L347.548 56.0384C346.48 54.4301 345.243 52.9346 343.866 51.5802L331.079 39.1648C328.156 36.3432 328.915 33.0136 330.742 30.333L338.105 22.9402C338.498 22.517 340.1 20.57 341.562 18.7077C343.248 16.6197 344.653 14.3341 345.777 11.9075L351.061 0.507935C351.061 0.507935 361.965 7.30816 363.398 38.7134H363.426Z" fill="#ED7D80"/>
<path d="M190.197 39.5881C188.988 65.491 193.4 76.2698 193.4 76.2698L206.075 56.9131C207.143 55.3048 208.38 53.8093 209.757 52.4549L222.544 40.0396C225.466 37.2179 224.708 33.8883 222.881 31.2077L215.518 23.8149C215.124 23.3917 213.522 21.4447 212.061 19.5824C210.375 17.4944 208.97 15.2089 207.846 12.7822L202.562 1.41089C202.562 1.41089 191.658 8.21111 190.197 39.5881Z" fill="#ED7D80"/>
<path d="M360.223 137.839C356.766 144.921 352.157 150.282 347.126 154.374C317.365 178.471 277.851 174.803 277.851 174.803C277.851 174.803 224.989 175.705 203.349 151.129C192.164 138.431 191.152 123.025 191.152 123.025C191.152 123.025 202.534 133.211 222.46 133.832C234.179 134.199 243.481 124.803 246.235 121.755C253.092 114.221 265.964 107.647 277.795 107.534C286.676 107.449 297.889 111.512 309.636 122.037C312.953 125 318.377 132.619 333.412 133.465C347.351 134.283 364.635 122.376 364.635 122.376C364.635 122.376 363.37 131.377 360.251 137.81L360.223 137.839Z" fill="white"/>
<path d="M266.61 125.677C264.052 123.646 265.429 119.413 268.661 119.385L274.957 118.341C276.277 118.115 277.626 118.115 278.947 118.284L285.917 119.216C289.317 119.187 290.835 123.561 288.193 125.762L286.929 126.806L283.416 129.712C280.043 132.506 275.238 132.562 271.809 129.825L268.24 126.975L266.582 125.649L266.61 125.677Z" fill="#5C2F17"/>
</g>
<g clip-path="url(#clip1_421_4)">
<path d="M221.186 166.747C244.315 221.841 193.613 245.285 141.36 256.392C89.1069 267.498 36.772 267.205 31.9949 206.96C28.8923 167.813 59.5676 128.422 111.821 117.315C164.074 106.209 205.999 130.547 221.207 166.742L221.186 166.747Z" fill="#4D382E"/>
<path d="M101.037 194.894C104.481 212.672 93.0264 221.73 81.0779 224.27C69.1294 226.809 54.9404 219.857 53.8371 202.496C52.8543 186.961 59.7999 176.832 69.8668 171.526C80.6779 165.838 98.7607 183.135 101.037 194.894Z" fill="#FFFCC3"/>
<path d="M153.108 182.511C157.192 200.152 171.341 203.768 183.29 201.228C195.238 198.688 205.373 186.566 199.319 170.257C193.899 155.665 183.434 149.237 172.079 148.484C159.889 147.685 150.405 170.842 153.108 182.511Z" fill="#FFFCC3"/>
<path d="M85.9506 130.843C89.3021 146.61 79.174 164.953 62.1475 168.572C45.1209 172.192 39.8473 197.531 30.6602 182.112C22.4074 168.255 9.93472 113.773 29.1361 106.012C45.3021 99.4979 82.6159 115.049 85.9719 130.838L85.9506 130.843Z" fill="#4D382E"/>
<path d="M140.128 121.445C143.48 137.213 160.193 149.851 177.22 146.232C194.246 142.613 209.37 163.616 211.492 145.793C213.395 129.778 202.629 74.9326 181.931 75.6525C164.514 76.2773 136.751 105.661 140.107 121.45L140.128 121.445Z" fill="#4D382E"/>
<path d="M83.4962 211.936C87.2081 211.147 88.8974 204.298 87.2693 196.639C85.6412 188.979 81.3123 183.41 77.6004 184.199C73.8885 184.988 72.1992 191.837 73.8273 199.496C75.4554 207.156 79.7843 212.725 83.4962 211.936Z" fill="#4D382E"/>
<path d="M173.737 191.328C177.449 190.539 179.138 183.69 177.51 176.03C175.882 168.371 171.553 162.801 167.841 163.59C164.129 164.379 162.44 171.228 164.068 178.888C165.696 186.547 170.025 192.117 173.737 191.328Z" fill="#4D382E"/>
<path d="M138.453 198.337C139.229 201.985 136.419 208.069 131.426 209.13C126.433 210.191 121.369 205.67 120.593 202.022C119.818 198.373 123.319 196.068 128.312 195.006C133.305 193.945 137.678 194.688 138.453 198.337Z" fill="#F8D2DC"/>
<path d="M61.6529 130.365C69.9563 133.863 66.0625 135.583 63.5936 136.977C55.5374 141.567 45.8261 154.736 42.2197 165.048C41.1069 168.206 38.2041 169.447 37.1983 164.086L31.4031 128.009C30.9543 124.848 32.8049 121.489 37.5497 122.933C44.9609 125.171 56.3381 128.128 61.6361 130.391L61.6529 130.365Z" fill="#B57B82"/>
<path d="M162.224 110.727C156.287 117.52 160.554 117.349 163.38 117.529C172.65 118.123 187.129 125.705 194.897 133.398C197.269 135.748 200.425 135.59 198.975 130.345L188.398 95.3743C187.416 92.3272 184.275 90.1403 180.64 93.4997C174.958 98.7662 166.031 106.395 162.25 110.744L162.224 110.727Z" fill="#B57B82"/>
<path d="M30.6267 233.677L52.7313 228.979L29.2825 233.963" fill="black"/>
<path d="M30.6267 233.677L52.7313 228.979L29.2825 233.963" stroke="#4D382E" stroke-width="5.98083" stroke-linecap="round" stroke-linejoin="round"/>
<path d="M38.1228 249.01L55.6849 234.796L37.0549 249.862" fill="black"/>
<path d="M38.1228 249.01L55.6849 234.796L37.0549 249.862" stroke="#4D382E" stroke-width="5.98083" stroke-linecap="round" stroke-linejoin="round"/>
<path d="M234.161 190.437L212.115 195.413L235.5 190.13" fill="black"/>
<path d="M234.161 190.437L212.115 195.413L235.5 190.13" stroke="#4D382E" stroke-width="5.98083" stroke-linecap="round" stroke-linejoin="round"/>
<path d="M233.771 207.491L211.873 201.932L235.115 207.83" fill="black"/>
<path d="M233.771 207.491L211.873 201.932L235.115 207.83" stroke="#4D382E" stroke-width="5.98083" stroke-linecap="round" stroke-linejoin="round"/>
</g>
<defs>
<clipPath id="clip0_421_4">
<rect width="175" height="175" fill="white" transform="translate(190)"/>
</clipPath>
<clipPath id="clip1_421_4">
<rect width="217.369" height="170.688" fill="white" transform="translate(0 111.937) rotate(-12)"/>
</clipPath>
</defs>
</svg>
