<svg width="446" height="384" viewBox="0 0 446 384" fill="none" xmlns="http://www.w3.org/2000/svg">
<path d="M259.652 451.817C495.434 442.242 573.68 260.657 547.586 185.583C521.492 110.509 510.434 102.432 472.322 61.9421C337.246 -81.5585 313.45 286.368 143.988 261.81C-25.4736 237.252 23.8702 461.391 259.652 451.817Z" fill="#F68C64"/>
<g clip-path="url(#clip0_550_6)">
<path d="M378.23 310.327C382.613 337.89 375.045 353.911 354.753 354.378C343.372 354.641 336.505 355.181 325.869 353.094C310.135 350.001 296.928 344.471 280.989 333.775C264.421 322.657 264.509 300.872 277.628 288.44C277.628 288.44 300.668 265.445 325.826 266.291C369.318 267.735 378.216 310.342 378.216 310.342L378.23 310.327Z" fill="#4D382E"/>
<path d="M324.218 248.752C335.402 248.752 344.467 239.182 344.467 227.376C344.467 215.57 335.402 206 324.218 206C313.035 206 303.969 215.57 303.969 227.376C303.969 239.182 313.035 248.752 324.218 248.752Z" fill="#4D382E"/>
<path d="M379.165 262.935C391.058 262.935 400.7 253.966 400.7 242.901C400.7 231.837 391.058 222.868 379.165 222.868C367.272 222.868 357.631 231.837 357.631 242.901C357.631 253.966 367.272 262.935 379.165 262.935Z" fill="#4D382E"/>
<path d="M269.724 273.105C281.723 273.105 291.449 263.332 291.449 251.277C291.449 239.221 281.723 229.448 269.724 229.448C257.726 229.448 248 239.221 248 251.277C248 263.332 257.726 273.105 269.724 273.105Z" fill="#4D382E"/>
<path d="M410.298 307.103C421.732 307.103 431 298.571 431 288.046C431 277.522 421.732 268.99 410.298 268.99C398.865 268.99 389.596 277.522 389.596 288.046C389.596 298.571 398.865 307.103 410.298 307.103Z" fill="#4D382E"/>
</g>
<defs>
<clipPath id="clip0_550_6">
<rect width="183" height="148.641" fill="white" transform="translate(248 206)"/>
</clipPath>
</defs>
</svg>
