<svg width="216" height="216" viewBox="0 0 216 216" fill="none" xmlns="http://www.w3.org/2000/svg">
<g clip-path="url(#clip0_550_3)">
<path d="M194.423 93.0822C230.912 159.113 172.79 193.347 122.416 200.11C37.3499 211.518 13.6439 175.196 20.5153 121.009C20.9843 117.22 22.1047 118.117 18.7567 113.584C7.08027 97.7884 3.69381 39.0596 12.8154 29.6941C21.9369 20.3285 72.7119 49.0424 72.7119 49.0424C72.7119 49.0424 86.8746 44.8621 97.7067 43.3892C110.392 41.6529 120.019 42.2129 120.019 42.2129C120.019 42.2129 161.881 -3.56033 172.002 3.39702C180.173 9.03727 190.38 28.2885 192.433 57.6111C195.319 98.9249 189.88 84.8715 194.423 93.0822Z" fill="#CED0D0"/>
<path d="M70.3115 147.791C80.1924 146.223 86.9266 136.91 85.3527 126.99C83.7789 117.069 74.493 110.297 64.6121 111.865C54.7312 113.432 47.997 122.745 49.5709 132.666C51.1447 142.587 60.4306 149.359 70.3115 147.791Z" fill="#5C2F17"/>
<path d="M71.8049 128.494C74.7527 128.027 76.7617 125.248 76.2922 122.289C75.8226 119.329 73.0524 117.309 70.1046 117.776C67.1568 118.244 65.1477 121.022 65.6172 123.982C66.0868 126.942 68.8571 128.962 71.8049 128.494Z" fill="white"/>
<path d="M154.792 134.235C164.673 132.668 171.408 123.355 169.834 113.434C168.26 103.513 158.974 96.7417 149.093 98.3092C139.212 99.8767 132.478 109.19 134.052 119.111C135.626 129.031 144.912 135.803 154.792 134.235Z" fill="#5C2F17"/>
<path d="M147.194 116.013C150.142 115.545 152.151 112.767 151.681 109.807C151.212 106.847 148.442 104.827 145.494 105.295C142.546 105.763 140.537 108.541 141.006 111.501C141.476 114.46 144.246 116.48 147.194 116.013Z" fill="white"/>
<path d="M80.5292 92.152C76.76 93.0568 73.0026 92.3025 69.8332 89.8588C65.0642 86.1958 61.2552 80.8765 60.2141 68.9184C59.2416 57.7781 65.9825 45.3527 65.9825 45.3527L72.3664 48.7902L90.312 44.5622C90.312 44.5622 90.2786 54.7572 90.9121 64.7237C91.2553 70.163 92.5797 74.4647 92.3651 79.4708C92.1257 85.862 83.8905 91.3732 80.559 92.1472L80.5292 92.152Z" fill="#7A7A79"/>
<path d="M126.663 84.864C130.527 84.5579 133.866 82.6777 136.124 79.3732C139.525 74.414 141.501 68.177 138.79 56.4838C136.267 45.5894 126.011 35.8604 126.011 35.8604L121.005 41.105L102.621 42.763C102.621 42.763 105.819 52.3226 108.326 61.9611C109.683 67.2397 109.755 71.74 111.508 76.4339C113.714 82.4372 123.251 85.1291 126.658 84.8341L126.663 84.864Z" fill="#7A7A79"/>
<path d="M190.525 41.3403C196.167 68.6204 193.3 80.7995 193.3 80.7995L176.593 62.3952C175.19 60.8685 173.626 59.4899 171.937 58.2846L156.28 47.264C152.704 44.7621 152.948 41.1017 154.435 37.9501L161.003 28.8668C161.35 28.3515 162.722 26.0162 163.959 23.7942C165.396 21.295 166.502 18.6334 167.287 15.8695L170.974 2.88509C170.974 2.88509 183.688 8.26486 190.495 41.3451L190.525 41.3403Z" fill="#ED7D80"/>
<path d="M6.87224 71.4265C9.95005 99.1133 16.4458 109.807 16.4458 109.807L26.6357 87.136C27.4981 85.2498 28.5583 83.4549 29.7915 81.786L41.269 66.4608C43.8951 62.975 42.5296 59.57 40.1402 57.0333L31.0835 50.4288C30.5948 50.046 28.5675 48.2499 26.7035 46.5199C24.5629 44.5883 22.6873 42.3998 21.0861 40.0143L13.5662 28.8384C13.5662 28.8384 3.1414 37.889 6.87224 71.4265Z" fill="#ED7D80"/>
<path d="M203.81 147.053C201.335 155.15 197.347 161.614 192.698 166.801C165.176 197.378 122.635 200.137 122.635 200.137C122.635 200.137 66.6985 209.993 39.6017 187.559C25.5968 175.97 21.9302 159.794 21.9302 159.794C21.9302 159.794 35.7211 168.685 56.9667 165.99C69.4627 164.407 77.7509 152.872 80.1602 149.175C86.1677 140.027 98.7178 130.885 111.252 128.774C120.661 127.189 133.242 129.613 147.478 138.802C151.495 141.388 158.532 148.558 174.627 146.926C189.555 145.447 205.889 129.904 205.889 129.904C205.889 129.904 206.062 139.668 203.835 147.019L203.81 147.053Z" fill="white"/>
<path d="M102.439 149.907C99.3831 148.182 100.132 143.459 103.556 142.885L110.06 140.718C111.423 140.256 112.854 140.029 114.284 139.986L121.836 139.801C125.439 139.199 127.786 143.584 125.353 146.364L124.187 147.684L120.949 151.359C117.841 154.891 112.752 155.76 108.653 153.433L104.386 151.01L102.404 149.882L102.439 149.907Z" fill="#5C2F17"/>
</g>
<defs>
<clipPath id="clip0_550_3">
<rect width="188" height="188" fill="white" transform="translate(0 29.4561) rotate(-9.01432)"/>
</clipPath>
</defs>
</svg>
