<svg width="242" height="232" viewBox="0 0 242 232" fill="none" xmlns="http://www.w3.org/2000/svg">
<g clip-path="url(#clip0_550_5)">
<path d="M207.894 177.505C187.185 238.15 110.494 222.995 60.5381 194.951C4.28909 163.379 -16.4659 130.095 20.8329 73.2556C43.9365 38.0392 92.3764 32.486 148.649 54.2013C204.921 75.9165 221.499 137.649 207.894 177.505Z" fill="#4D382E"/>
<path d="M87.8645 135.023C77.9498 151.741 62.3199 150.85 50.9359 144.371C39.5519 137.892 33.1079 122.216 44.6076 107.5C54.8925 94.3463 67.6648 91.1532 79.5232 94.0802C92.2492 97.2038 94.4242 123.975 87.8645 135.035V135.023Z" fill="#FFFCC3"/>
<path d="M144.761 145.944C135.471 163.009 144.229 175.989 155.625 182.456C167.009 188.935 183.784 186.436 190.54 169.036C196.579 153.476 192.785 140.865 184.212 132.165C175.015 122.829 150.905 134.653 144.761 145.944Z" fill="#FFFCC3"/>
<path d="M103.691 56.6191C96.5413 72.3763 73.9584 79.1558 57.7153 69.9236C41.4723 60.6915 30.0189 90.32 33.05 71.2888C35.8034 53.9582 49.7558 21.2755 62.6322 4.68537C68.0928 -2.36022 73.4146 -0.775255 77.406 4.98617C87.0662 18.9385 108.585 45.8483 103.691 56.6307V56.6191Z" fill="#4D382E"/>
<path d="M178.867 73.221C162.728 79.4567 180.799 102.398 184.027 120.805C184.663 124.461 220.817 134.722 208.889 149.855C207.906 151.104 228.962 107.951 239.998 82.511C246.79 66.8579 235.116 64.1508 222.471 65.3771C206.541 66.9274 190.378 68.7784 178.867 73.221Z" fill="#4D382E"/>
<path d="M74.919 124.846C77.7485 116.935 76.9356 109.41 73.1033 108.039C69.2709 106.669 63.8704 111.971 61.0408 119.882C58.2113 127.794 59.0242 135.318 62.8565 136.689C66.6889 138.06 72.0894 132.757 74.919 124.846Z" fill="#4D382E"/>
<path d="M170.685 159.343C173.484 151.421 172.642 143.9 168.805 142.544C164.967 141.188 159.587 146.511 156.788 154.433C153.989 162.355 154.83 169.877 158.668 171.232C162.506 172.588 167.886 167.265 170.685 159.343Z" fill="#4D382E"/>
<path d="M123.324 158.069C121.346 161.551 114.763 164.42 110.008 161.713C105.253 159.006 104.408 151.775 106.387 148.304C108.365 144.822 112.819 145.458 117.574 148.166C122.329 150.873 125.314 154.598 123.335 158.069H123.324Z" fill="#F8D2DC"/>
<path d="M85.4698 36.165C89.4149 42.7825 85.8632 41.9843 83.4683 41.7066C75.5898 40.7927 62.239 44.9575 54.5456 50.2446C52.1855 51.8643 49.5593 51.2511 51.5839 47.04L65.8254 19.2394C67.1212 16.8214 70.0944 15.4563 72.6397 18.846C76.6079 24.1331 82.9477 31.9307 85.4814 36.165H85.4698Z" fill="#B57B82"/>
<path d="M196.961 83.6098C189.083 85.1022 192.16 87.3235 194.023 88.9894C200.177 94.4963 206.147 107.766 207.35 117.415C207.721 120.376 210.011 121.996 211.897 117.519L223.721 87.2309C224.704 84.5585 223.721 81.296 219.324 81.6546C212.464 82.2099 202.017 82.6611 196.973 83.6098H196.961Z" fill="#B57B82"/>
<path d="M-7.01378 131.645L17.1657 130.071L-8.49463 131.749" fill="black"/>
<path d="M-7.01378 131.645L17.1657 130.071L-8.49463 131.749" stroke="#4D382E" stroke-width="10.2572" stroke-linecap="round" stroke-linejoin="round"/>
<path d="M-6.36591 114.569L16.7723 121.777L-7.77734 114.129" fill="black"/>
<path d="M-6.36591 114.569L16.7723 121.777L-7.77734 114.129" stroke="#4D382E" stroke-width="10.2572" stroke-linecap="round" stroke-linejoin="round"/>
<path d="M198.789 213.415L184.409 193.91L199.669 214.607" fill="black"/>
<path d="M198.789 213.415L184.409 193.91L199.669 214.607" stroke="#4D382E" stroke-width="10.2572" stroke-linecap="round" stroke-linejoin="round"/>
<path d="M211.134 196.212L188.053 188.843L212.545 196.664" fill="black"/>
<path d="M211.134 196.212L188.053 188.843L212.545 196.664" stroke="#4D382E" stroke-width="10.2572" stroke-linecap="round" stroke-linejoin="round"/>
<path d="M82.1957 234.633L-7.4187 233.731V156.438L47.014 154.633L104.755 206.96L82.1957 234.633Z" fill="#4D382E"/>
</g>
<defs>
<clipPath id="clip0_550_5">
<rect width="254" height="234.633" fill="white" transform="translate(-12)"/>
</clipPath>
</defs>
</svg>
