<svg width="623" height="560" viewBox="0 0 623 560" fill="none" xmlns="http://www.w3.org/2000/svg">
<path d="M259.652 451.817C495.434 442.242 573.68 260.657 547.586 185.583C521.492 110.509 510.434 102.432 472.322 61.9421C337.246 -81.5585 313.45 286.368 143.988 261.81C-25.4736 237.252 23.8702 461.391 259.652 451.817Z" fill="#F68C64"/>
<g clip-path="url(#clip0_565_10)">
<path d="M379.23 329.327C383.613 356.89 376.045 372.911 355.752 373.378C344.372 373.641 337.505 374.181 326.869 372.094C311.135 369.001 297.928 363.471 281.989 352.775C265.421 341.657 265.509 319.872 278.628 307.44C278.628 307.44 301.668 284.445 326.825 285.291C370.318 286.735 379.215 329.342 379.215 329.342L379.23 329.327Z" fill="#4D382E"/>
<path d="M325.218 267.752C336.402 267.752 345.467 258.182 345.467 246.376C345.467 234.57 336.402 225 325.218 225C314.035 225 304.969 234.57 304.969 246.376C304.969 258.182 314.035 267.752 325.218 267.752Z" fill="#4D382E"/>
<path d="M380.165 281.935C392.058 281.935 401.7 272.966 401.7 261.901C401.7 250.837 392.058 241.868 380.165 241.868C368.272 241.868 358.631 250.837 358.631 261.901C358.631 272.966 368.272 281.935 380.165 281.935Z" fill="#4D382E"/>
<path d="M270.724 292.105C282.723 292.105 292.449 282.332 292.449 270.277C292.449 258.221 282.723 248.448 270.724 248.448C258.726 248.448 249 258.221 249 270.277C249 282.332 258.726 292.105 270.724 292.105Z" fill="#4D382E"/>
<path d="M411.298 326.103C422.731 326.103 432 317.571 432 307.046C432 296.522 422.731 287.99 411.298 287.99C399.865 287.99 390.596 296.522 390.596 307.046C390.596 317.571 399.865 326.103 411.298 326.103Z" fill="#4D382E"/>
</g>
<defs>
<clipPath id="clip0_565_10">
<rect width="183" height="148.641" fill="white" transform="translate(249 225)"/>
</clipPath>
</defs>
</svg>
