<svg width="339" height="71" viewBox="0 0 339 71" fill="none" xmlns="http://www.w3.org/2000/svg">
<path d="M36.6442 18.275V50H27.8242V18.275H36.6442ZM50.487 29.21C51.477 27.77 52.677 26.63 54.087 25.79C55.497 24.95 57.012 24.53 58.632 24.53V33.935H56.157C54.237 33.935 52.812 34.31 51.882 35.06C50.952 35.81 50.487 37.115 50.487 38.975V50H41.667V24.755H50.487V29.21ZM79.2272 28.265C79.9172 27.095 80.8922 26.165 82.1522 25.475C83.4122 24.785 84.8972 24.44 86.6072 24.44C88.6172 24.44 90.4322 24.965 92.0522 26.015C93.7022 27.065 94.9922 28.565 95.9222 30.515C96.8822 32.465 97.3622 34.745 97.3622 37.355C97.3622 39.965 96.8822 42.26 95.9222 44.24C94.9922 46.19 93.7022 47.69 92.0522 48.74C90.4322 49.79 88.6172 50.315 86.6072 50.315C84.8972 50.315 83.4122 49.97 82.1522 49.28C80.9222 48.59 79.9472 47.66 79.2272 46.49V62.06H70.4072V24.755H79.2272V28.265ZM88.4072 37.355C88.4072 35.705 87.9572 34.43 87.0572 33.53C86.1872 32.6 85.1072 32.135 83.8172 32.135C82.5272 32.135 81.4322 32.6 80.5322 33.53C79.6622 34.46 79.2272 35.735 79.2272 37.355C79.2272 39.005 79.6622 40.295 80.5322 41.225C81.4322 42.155 82.5272 42.62 83.8172 42.62C85.1072 42.62 86.1872 42.155 87.0572 41.225C87.9572 40.265 88.4072 38.975 88.4072 37.355ZM99.5531 37.355C99.5531 34.745 100.018 32.465 100.948 30.515C101.908 28.565 103.198 27.065 104.818 26.015C106.468 24.965 108.298 24.44 110.308 24.44C112.048 24.44 113.548 24.785 114.808 25.475C116.068 26.165 117.043 27.095 117.733 28.265V24.755H126.553V50H117.733V46.49C117.043 47.66 116.053 48.59 114.763 49.28C113.503 49.97 112.018 50.315 110.308 50.315C108.298 50.315 106.468 49.79 104.818 48.74C103.198 47.69 101.908 46.19 100.948 44.24C100.018 42.26 99.5531 39.965 99.5531 37.355ZM117.733 37.355C117.733 35.735 117.283 34.46 116.383 33.53C115.513 32.6 114.433 32.135 113.143 32.135C111.823 32.135 110.728 32.6 109.858 33.53C108.988 34.43 108.553 35.705 108.553 37.355C108.553 38.975 108.988 40.265 109.858 41.225C110.728 42.155 111.823 42.62 113.143 42.62C114.433 42.62 115.513 42.155 116.383 41.225C117.283 40.295 117.733 39.005 117.733 37.355ZM140.399 29.21C141.389 27.77 142.589 26.63 143.999 25.79C145.409 24.95 146.924 24.53 148.544 24.53V33.935H146.069C144.149 33.935 142.724 34.31 141.794 35.06C140.864 35.81 140.399 37.115 140.399 38.975V50H131.579V24.755H140.399V29.21ZM150.266 37.355C150.266 34.745 150.731 32.465 151.661 30.515C152.621 28.565 153.911 27.065 155.531 26.015C157.181 24.965 159.011 24.44 161.021 24.44C162.761 24.44 164.261 24.785 165.521 25.475C166.781 26.165 167.756 27.095 168.446 28.265V24.755H177.266V50H168.446V46.49C167.756 47.66 166.766 48.59 165.476 49.28C164.216 49.97 162.731 50.315 161.021 50.315C159.011 50.315 157.181 49.79 155.531 48.74C153.911 47.69 152.621 46.19 151.661 44.24C150.731 42.26 150.266 39.965 150.266 37.355ZM168.446 37.355C168.446 35.735 167.996 34.46 167.096 33.53C166.226 32.6 165.146 32.135 163.856 32.135C162.536 32.135 161.441 32.6 160.571 33.53C159.701 34.43 159.266 35.705 159.266 37.355C159.266 38.975 159.701 40.265 160.571 41.225C161.441 42.155 162.536 42.62 163.856 42.62C165.146 42.62 166.226 42.155 167.096 41.225C167.996 40.295 168.446 39.005 168.446 37.355ZM202.65 50.315C200.13 50.315 197.865 49.79 195.855 48.74C193.875 47.69 192.315 46.19 191.175 44.24C190.035 42.29 189.465 39.995 189.465 37.355C189.465 34.745 190.035 32.465 191.175 30.515C192.345 28.565 193.92 27.065 195.9 26.015C197.91 24.965 200.175 24.44 202.695 24.44C205.215 24.44 207.465 24.965 209.445 26.015C211.455 27.065 213.03 28.565 214.17 30.515C215.34 32.465 215.925 34.745 215.925 37.355C215.925 39.965 215.34 42.26 214.17 44.24C213.03 46.19 211.455 47.69 209.445 48.74C207.435 49.79 205.17 50.315 202.65 50.315ZM202.65 42.665C203.88 42.665 204.9 42.215 205.71 41.315C206.55 40.385 206.97 39.065 206.97 37.355C206.97 35.645 206.55 34.34 205.71 33.44C204.9 32.54 203.895 32.09 202.695 32.09C201.495 32.09 200.49 32.54 199.68 33.44C198.87 34.34 198.465 35.645 198.465 37.355C198.465 39.095 198.855 40.415 199.635 41.315C200.415 42.215 201.42 42.665 202.65 42.665ZM238.882 50.315C236.602 50.315 234.562 49.94 232.762 49.19C230.992 48.41 229.582 47.36 228.532 46.04C227.512 44.69 226.942 43.175 226.822 41.495H235.372C235.492 42.305 235.867 42.935 236.497 43.385C237.127 43.835 237.907 44.06 238.837 44.06C239.557 44.06 240.127 43.91 240.547 43.61C240.967 43.31 241.177 42.92 241.177 42.44C241.177 41.81 240.832 41.345 240.142 41.045C239.452 40.745 238.312 40.415 236.722 40.055C234.922 39.695 233.422 39.29 232.222 38.84C231.022 38.39 229.972 37.655 229.072 36.635C228.202 35.615 227.767 34.235 227.767 32.495C227.767 30.995 228.172 29.645 228.982 28.445C229.792 27.215 230.977 26.24 232.537 25.52C234.127 24.8 236.032 24.44 238.252 24.44C241.552 24.44 244.147 25.25 246.037 26.87C247.927 28.49 249.022 30.62 249.322 33.26H241.357C241.207 32.45 240.847 31.835 240.277 31.415C239.737 30.965 239.002 30.74 238.072 30.74C237.352 30.74 236.797 30.875 236.407 31.145C236.047 31.415 235.867 31.79 235.867 32.27C235.867 32.87 236.212 33.335 236.902 33.665C237.592 33.965 238.702 34.28 240.232 34.61C242.062 35 243.577 35.435 244.777 35.915C246.007 36.395 247.072 37.175 247.972 38.255C248.902 39.305 249.367 40.745 249.367 42.575C249.367 44.045 248.932 45.365 248.062 46.535C247.222 47.705 246.007 48.635 244.417 49.325C242.857 49.985 241.012 50.315 238.882 50.315ZM258.158 22.415C256.598 22.415 255.338 21.995 254.378 21.155C253.448 20.285 252.983 19.205 252.983 17.915C252.983 16.595 253.448 15.5 254.378 14.63C255.338 13.76 256.598 13.325 258.158 13.325C259.688 13.325 260.918 13.76 261.848 14.63C262.808 15.5 263.288 16.595 263.288 17.915C263.288 19.205 262.808 20.285 261.848 21.155C260.918 21.995 259.688 22.415 258.158 22.415ZM262.523 24.755V50H253.703V24.755H262.523ZM282.441 42.485V50H278.616C272.166 50 268.941 46.805 268.941 40.415V32.09H265.836V24.755H268.941V18.635H277.806V24.755H282.396V32.09H277.806V40.55C277.806 41.24 277.956 41.735 278.256 42.035C278.586 42.335 279.126 42.485 279.876 42.485H282.441ZM310.606 37.085C310.606 37.775 310.561 38.465 310.471 39.155H293.776C293.866 40.535 294.241 41.57 294.901 42.26C295.591 42.92 296.461 43.25 297.511 43.25C298.981 43.25 300.031 42.59 300.661 41.27H310.066C309.676 43.01 308.911 44.57 307.771 45.95C306.661 47.3 305.251 48.365 303.541 49.145C301.831 49.925 299.941 50.315 297.871 50.315C295.381 50.315 293.161 49.79 291.211 48.74C289.291 47.69 287.776 46.19 286.666 44.24C285.586 42.29 285.046 39.995 285.046 37.355C285.046 34.715 285.586 32.435 286.666 30.515C287.746 28.565 289.246 27.065 291.166 26.015C293.116 24.965 295.351 24.44 297.871 24.44C300.361 24.44 302.566 24.95 304.486 25.97C306.406 26.99 307.906 28.46 308.986 30.38C310.066 32.27 310.606 34.505 310.606 37.085ZM301.606 34.88C301.606 33.8 301.246 32.96 300.526 32.36C299.806 31.73 298.906 31.415 297.826 31.415C296.746 31.415 295.861 31.715 295.171 32.315C294.481 32.885 294.031 33.74 293.821 34.88H301.606Z" fill="#FFEBEB"/>
<line y1="68.5898" x2="338.015" y2="68.5898" stroke="#FFEBEB" stroke-width="4"/>
</svg>
