<svg width="334" height="128" viewBox="0 0 334 128" fill="none" xmlns="http://www.w3.org/2000/svg">
<path d="M52.861 113C49.9597 113 47.5277 112.275 45.565 110.824C43.6877 109.288 42.365 107.24 41.597 104.68C40.9143 102.291 40.4877 99.688 40.317 96.872C40.2317 94.056 40.189 90.088 40.189 84.968C40.189 80.1893 39.9757 76.648 39.549 74.344C39.2077 72.04 38.3117 70.888 36.861 70.888C35.1543 70.888 33.9597 71.656 33.277 73.192C32.5943 74.6427 32.253 76.7333 32.253 79.464C32.253 81.9387 32.5943 85.8213 33.277 91.112C33.3623 92.136 33.533 93.7573 33.789 95.976C34.045 98.1947 34.173 100.029 34.173 101.48C34.173 105.576 33.2343 108.477 31.357 110.184C29.565 111.891 26.9197 112.744 23.421 112.744C19.2397 112.744 15.613 110.483 12.541 105.96C9.469 101.437 7.165 95.8053 5.629 89.064C4.093 82.2373 3.325 75.5387 3.325 68.968C3.325 61.1173 4.43433 53.8213 6.653 47.08C8.957 40.3387 12.3703 34.92 16.893 30.824C21.501 26.728 27.0477 24.68 33.533 24.68C38.9943 24.68 43.3463 26.3867 46.589 29.8C49.8317 33.128 52.0077 37.1813 53.117 41.96C54.0557 37.2667 56.1463 33.2133 59.389 29.8C62.717 26.3867 67.069 24.68 72.445 24.68C78.845 24.68 84.3063 26.6853 88.829 30.696C93.437 34.6213 96.9357 40.1253 99.325 47.208C101.8 54.2907 103.037 62.4827 103.037 71.784C103.037 77.8427 102.184 84.1147 100.477 90.6C98.7703 97 96.381 102.333 93.309 106.6C90.237 110.867 86.7383 113 82.813 113C79.229 113 76.4983 112.104 74.621 110.312C72.7437 108.52 71.805 105.576 71.805 101.48C71.805 99.6027 72.1463 96.104 72.829 90.984C73.5117 85.5227 73.853 81.5973 73.853 79.208C73.853 73.6613 72.3597 70.888 69.373 70.888C67.837 70.888 66.8557 72.1253 66.429 74.6C66.0877 77.0747 65.8743 81.0853 65.789 86.632C65.789 90.8133 65.7037 94.312 65.533 97.128C65.3623 99.8587 64.9783 102.376 64.381 104.68C63.6983 107.155 62.333 109.16 60.285 110.696C58.3223 112.232 55.8477 113 52.861 113ZM120.551 50.92C116.37 50.92 112.828 49.4267 109.927 46.44C107.026 43.368 105.575 39.656 105.575 35.304C105.575 31.0373 107.026 27.4107 109.927 24.424C112.828 21.352 116.37 19.816 120.551 19.816C124.647 19.816 128.146 21.352 131.047 24.424C134.034 27.4107 135.527 31.0373 135.527 35.304C135.527 39.656 134.034 43.368 131.047 46.44C128.146 49.4267 124.647 50.92 120.551 50.92ZM120.551 113C117.052 113 114.45 112.019 112.743 110.056C111.122 108.008 110.012 104.979 109.415 100.968C108.903 96.872 108.647 91.0693 108.647 83.56C108.647 77.2453 108.946 72.2533 109.543 68.584C110.226 64.9147 111.42 62.184 113.127 60.392C114.834 58.6 117.308 57.704 120.551 57.704C124.05 57.704 126.61 58.728 128.231 60.776C129.938 62.7387 131.047 65.768 131.559 69.864C132.156 73.8747 132.455 79.6347 132.455 87.144C132.455 93.4587 132.114 98.4507 131.431 102.12C130.834 105.789 129.682 108.52 127.975 110.312C126.268 112.104 123.794 113 120.551 113Z" fill="#EF835A"/>
<path d="M157.182 112.36C160.766 112.36 163.881 111.037 166.526 108.392C169.171 105.747 170.494 102.632 170.494 99.048C170.494 95.464 169.171 92.3493 166.526 89.704C163.881 87.0587 160.766 85.736 157.182 85.736C153.598 85.736 150.483 87.0587 147.838 89.704C145.193 92.3493 143.87 95.464 143.87 99.048C143.87 102.632 145.193 105.747 147.838 108.392C150.483 111.037 153.598 112.36 157.182 112.36Z" fill="#8CCDD0"/>
<path d="M198.793 113.256C193.076 113.256 188.468 110.483 184.969 104.936C181.556 99.304 179.55 91.7093 178.953 82.152C178.868 80.7867 178.825 78.7813 178.825 76.136C178.825 65.8107 180.532 56.68 183.945 48.744C187.358 40.7227 192.18 34.536 198.409 30.184C204.724 25.7467 212.062 23.528 220.425 23.528C228.788 23.528 236.084 25.7467 242.313 30.184C248.628 34.536 253.449 40.68 256.777 48.616C260.19 56.552 261.897 65.7253 261.897 76.136C261.897 78.7813 261.854 80.7867 261.769 82.152C261.172 91.88 259.166 99.4747 255.753 104.936C252.34 110.397 247.732 113.128 241.929 113.128C237.236 113.128 233.95 111.848 232.073 109.288C230.281 106.728 229.385 103.613 229.385 99.944C229.385 98.2373 229.513 96.744 229.769 95.464C225.332 95.6347 221.406 95.72 217.993 95.72C215.86 95.72 213.513 95.6347 210.953 95.464C211.209 96.744 211.337 98.2373 211.337 99.944C211.337 103.699 210.398 106.856 208.521 109.416C206.729 111.976 203.486 113.256 198.793 113.256ZM210.057 72.68C214.665 72.5093 218.036 72.424 220.169 72.424C222.473 72.424 225.844 72.5093 230.281 72.68C230.452 71.7413 230.537 70.3333 230.537 68.456C230.537 64.4453 229.684 61.2027 227.977 58.728C226.27 56.168 223.625 54.888 220.041 54.888C216.542 54.888 213.94 56.1253 212.233 58.6C210.526 61.0747 209.673 64.2747 209.673 68.2C209.673 69.6507 209.801 71.144 210.057 72.68ZM299.301 113C293.072 113 287.61 111.464 282.917 108.392C278.224 105.235 274.597 100.883 272.037 95.336C269.562 89.704 268.325 83.2187 268.325 75.88C268.325 68.712 269.477 63.08 271.781 58.984C274.085 54.888 277.285 52.84 281.381 52.84C288.634 52.84 292.261 56.552 292.261 63.976C292.261 65.512 292.218 66.8773 292.133 68.072C292.048 69.1813 291.962 70.1627 291.877 71.016C291.536 74.4293 291.365 77.16 291.365 79.208C291.365 82.9627 292.133 85.8213 293.669 87.784C295.205 89.7467 297.082 90.728 299.301 90.728C301.605 90.728 303.482 89.7893 304.933 87.912C306.469 85.9493 307.237 83.048 307.237 79.208C307.237 76.4773 307.109 73.96 306.853 71.656C306.768 70.888 306.682 69.7787 306.597 68.328C306.512 66.792 306.469 65.384 306.469 64.104C306.469 56.5947 310.096 52.84 317.349 52.84C321.445 52.84 324.602 54.888 326.821 58.984C329.125 62.9947 330.277 68.6267 330.277 75.88C330.277 87.2293 327.632 96.2747 322.341 103.016C317.05 109.672 309.37 113 299.301 113Z" fill="#FFCD4C"/>
<path d="M221.456 90.6122C215.385 91.6882 202.673 77.5941 210.552 77.6248C218.431 77.6555 221.412 77.6671 229.26 77.6977C237.108 77.7282 226.794 89.6663 221.456 90.6122Z" fill="#EF835A"/>
<ellipse cx="260.282" cy="32.5955" rx="9.5" ry="18" transform="rotate(-43.5063 260.282 32.5955)" fill="#EF835A"/>
<ellipse cx="180.769" cy="32.9379" rx="9.5" ry="18" transform="rotate(39.4175 180.769 32.9379)" fill="#EF835A"/>
</svg>
