<svg width="268" height="292" viewBox="0 0 268 292" fill="none" xmlns="http://www.w3.org/2000/svg">
<g clip-path="url(#clip0_550_2)">
<path d="M268 100.417C268 86.5524 258.726 71.8987 246.689 66.274C246.689 66.2247 246.689 66.126 246.689 66.0767C248.711 45.749 247.182 31.0954 222.615 19.7967C210.874 14.3694 195.631 15.1589 185.271 21.1289C178.316 8.49811 164.7 0.899902 144.228 0.899902C113.1 0.899902 78.272 36.3746 77.828 62.7216L-14.3227 126.122L-16 292L153.699 206.693C162.974 208.074 173.827 208.42 185.37 208.42C219.014 208.42 242.545 189.473 246.294 166.827C247.922 157.156 248.12 145.019 245.209 134.312C257.64 128.54 268 114.084 268 100.367V100.417Z" fill="#CED0D0"/>
<path d="M176.181 142.619C188.298 130.499 186.003 108.553 171.053 93.601C156.103 78.649 134.161 76.3529 122.043 88.4725C109.925 100.592 112.221 122.538 127.171 137.49C142.121 152.442 164.063 154.738 176.181 142.619Z" fill="#7A7A79"/>
<path d="M141.12 64.4977C149.13 64.4977 155.623 57.7382 155.623 49.4C155.623 41.0617 149.13 34.3022 141.12 34.3022C133.11 34.3022 126.617 41.0617 126.617 49.4C126.617 57.7382 133.11 64.4977 141.12 64.4977Z" fill="#7A7A79"/>
<path d="M192.72 82.556C201.166 82.556 208.013 75.4431 208.013 66.6689C208.013 57.8947 201.166 50.7817 192.72 50.7817C184.275 50.7817 177.428 57.8947 177.428 66.6689C177.428 75.4431 184.275 82.556 192.72 82.556Z" fill="#7A7A79"/>
<path d="M217.978 121.238C226.669 121.238 233.715 114.39 233.715 105.943C233.715 97.4953 226.669 90.6475 217.978 90.6475C209.287 90.6475 202.241 97.4953 202.241 105.943C202.241 114.39 209.287 121.238 217.978 121.238Z" fill="#7A7A79"/>
<path d="M202.439 174.573C211.838 174.573 219.458 167.372 219.458 158.489C219.458 149.606 211.838 142.404 202.439 142.404C193.039 142.404 185.419 149.606 185.419 158.489C185.419 167.372 193.039 174.573 202.439 174.573Z" fill="#7A7A79"/>
</g>
<defs>
<clipPath id="clip0_550_2">
<rect width="284" height="291.1" fill="white" transform="translate(-16 0.899902)"/>
</clipPath>
</defs>
</svg>
