<svg width="568" height="103" viewBox="0 0 568 103" fill="none" xmlns="http://www.w3.org/2000/svg">
<path d="M41.0573 8.89H27.5573V13.885C28.1273 13.285 28.9073 12.805 29.8973 12.445C30.8873 12.085 31.9823 11.905 33.1823 11.905C35.3423 11.905 37.1423 12.4 38.5823 13.39C40.0523 14.38 41.1323 15.685 41.8223 17.305C42.5123 18.925 42.8573 20.695 42.8573 22.615C42.8573 26.155 41.8523 28.945 39.8423 30.985C37.8323 32.995 35.0423 34 31.4723 34C28.9823 34 26.8223 33.58 24.9923 32.74C23.1923 31.87 21.8123 30.67 20.8523 29.14C19.8923 27.61 19.3973 25.855 19.3673 23.875H27.9623C28.0523 24.565 28.3523 25.165 28.8623 25.675C29.3723 26.185 30.1223 26.44 31.1123 26.44C32.1623 26.44 32.9573 26.08 33.4973 25.36C34.0373 24.64 34.3073 23.68 34.3073 22.48C34.3073 21.31 34.0223 20.425 33.4523 19.825C32.8823 19.195 32.0573 18.88 30.9773 18.88C30.1673 18.88 29.5073 19.09 28.9973 19.51C28.5173 19.9 28.2323 20.395 28.1423 20.995H19.5473V1.105H41.0573V8.89ZM64.8029 0.7V34H55.9829V0.7H64.8029ZM95.6557 8.755V34H86.7907V30.4C86.0407 31.54 85.0057 32.47 83.6857 33.19C82.3657 33.88 80.8507 34.225 79.1407 34.225C76.2007 34.225 73.8757 33.265 72.1657 31.345C70.4857 29.395 69.6457 26.755 69.6457 23.425V8.755H78.4207V22.3C78.4207 23.74 78.7957 24.88 79.5457 25.72C80.3257 26.53 81.3457 26.935 82.6057 26.935C83.8957 26.935 84.9157 26.53 85.6657 25.72C86.4157 24.88 86.7907 23.74 86.7907 22.3V8.755H95.6557ZM109.99 8.44C111.7 8.44 113.185 8.785 114.445 9.475C115.735 10.165 116.725 11.095 117.415 12.265V8.755H126.235V33.73C126.235 36.1 125.785 38.23 124.885 40.12C123.985 42.04 122.575 43.57 120.655 44.71C118.765 45.85 116.365 46.42 113.455 46.42C109.555 46.42 106.435 45.505 104.095 43.675C101.755 41.845 100.42 39.355 100.09 36.205H108.775C108.955 37.015 109.405 37.645 110.125 38.095C110.845 38.545 111.775 38.77 112.915 38.77C115.915 38.77 117.415 37.09 117.415 33.73V30.49C116.725 31.66 115.735 32.59 114.445 33.28C113.185 33.97 111.7 34.315 109.99 34.315C107.98 34.315 106.15 33.79 104.5 32.74C102.88 31.69 101.59 30.19 100.63 28.24C99.7003 26.26 99.2353 23.965 99.2353 21.355C99.2353 18.745 99.7003 16.465 100.63 14.515C101.59 12.565 102.88 11.065 104.5 10.015C106.15 8.965 107.98 8.44 109.99 8.44ZM117.415 21.355C117.415 19.735 116.965 18.46 116.065 17.53C115.195 16.6 114.115 16.135 112.825 16.135C111.505 16.135 110.41 16.6 109.54 17.53C108.67 18.43 108.235 19.705 108.235 21.355C108.235 22.975 108.67 24.265 109.54 25.225C110.41 26.155 111.505 26.62 112.825 26.62C114.115 26.62 115.195 26.155 116.065 25.225C116.965 24.295 117.415 23.005 117.415 21.355ZM129.821 21.355C129.821 18.745 130.286 16.465 131.216 14.515C132.176 12.565 133.466 11.065 135.086 10.015C136.736 8.965 138.566 8.44 140.576 8.44C142.316 8.44 143.816 8.785 145.076 9.475C146.336 10.165 147.311 11.095 148.001 12.265V8.755H156.821V34H148.001V30.49C147.311 31.66 146.321 32.59 145.031 33.28C143.771 33.97 142.286 34.315 140.576 34.315C138.566 34.315 136.736 33.79 135.086 32.74C133.466 31.69 132.176 30.19 131.216 28.24C130.286 26.26 129.821 23.965 129.821 21.355ZM148.001 21.355C148.001 19.735 147.551 18.46 146.651 17.53C145.781 16.6 144.701 16.135 143.411 16.135C142.091 16.135 140.996 16.6 140.126 17.53C139.256 18.43 138.821 19.705 138.821 21.355C138.821 22.975 139.256 24.265 140.126 25.225C140.996 26.155 142.091 26.62 143.411 26.62C144.701 26.62 145.781 26.155 146.651 25.225C147.551 24.295 148.001 23.005 148.001 21.355ZM170.667 13.21C171.657 11.77 172.857 10.63 174.267 9.79C175.677 8.95 177.192 8.53 178.812 8.53V17.935H176.337C174.417 17.935 172.992 18.31 172.062 19.06C171.132 19.81 170.667 21.115 170.667 22.975V34H161.847V8.755H170.667V13.21ZM206.094 21.085C206.094 21.775 206.049 22.465 205.959 23.155H189.264C189.354 24.535 189.729 25.57 190.389 26.26C191.079 26.92 191.949 27.25 192.999 27.25C194.469 27.25 195.519 26.59 196.149 25.27H205.554C205.164 27.01 204.399 28.57 203.259 29.95C202.149 31.3 200.739 32.365 199.029 33.145C197.319 33.925 195.429 34.315 193.359 34.315C190.869 34.315 188.649 33.79 186.699 32.74C184.779 31.69 183.264 30.19 182.154 28.24C181.074 26.29 180.534 23.995 180.534 21.355C180.534 18.715 181.074 16.435 182.154 14.515C183.234 12.565 184.734 11.065 186.654 10.015C188.604 8.965 190.839 8.44 193.359 8.44C195.849 8.44 198.054 8.95 199.974 9.97C201.894 10.99 203.394 12.46 204.474 14.38C205.554 16.27 206.094 18.505 206.094 21.085ZM197.094 18.88C197.094 17.8 196.734 16.96 196.014 16.36C195.294 15.73 194.394 15.415 193.314 15.415C192.234 15.415 191.349 15.715 190.659 16.315C189.969 16.885 189.519 17.74 189.309 18.88H197.094ZM220.459 34.315C218.179 34.315 216.139 33.94 214.339 33.19C212.569 32.41 211.159 31.36 210.109 30.04C209.089 28.69 208.519 27.175 208.399 25.495H216.949C217.069 26.305 217.444 26.935 218.074 27.385C218.704 27.835 219.484 28.06 220.414 28.06C221.134 28.06 221.704 27.91 222.124 27.61C222.544 27.31 222.754 26.92 222.754 26.44C222.754 25.81 222.409 25.345 221.719 25.045C221.029 24.745 219.889 24.415 218.299 24.055C216.499 23.695 214.999 23.29 213.799 22.84C212.599 22.39 211.549 21.655 210.649 20.635C209.779 19.615 209.344 18.235 209.344 16.495C209.344 14.995 209.749 13.645 210.559 12.445C211.369 11.215 212.554 10.24 214.114 9.52C215.704 8.8 217.609 8.44 219.829 8.44C223.129 8.44 225.724 9.25 227.614 10.87C229.504 12.49 230.599 14.62 230.899 17.26H222.934C222.784 16.45 222.424 15.835 221.854 15.415C221.314 14.965 220.579 14.74 219.649 14.74C218.929 14.74 218.374 14.875 217.984 15.145C217.624 15.415 217.444 15.79 217.444 16.27C217.444 16.87 217.789 17.335 218.479 17.665C219.169 17.965 220.279 18.28 221.809 18.61C223.639 19 225.154 19.435 226.354 19.915C227.584 20.395 228.649 21.175 229.549 22.255C230.479 23.305 230.944 24.745 230.944 26.575C230.944 28.045 230.509 29.365 229.639 30.535C228.799 31.705 227.584 32.635 225.994 33.325C224.434 33.985 222.589 34.315 220.459 34.315ZM252.713 12.265C253.403 11.095 254.378 10.165 255.638 9.475C256.898 8.785 258.383 8.44 260.093 8.44C262.103 8.44 263.918 8.965 265.538 10.015C267.188 11.065 268.478 12.565 269.408 14.515C270.368 16.465 270.848 18.745 270.848 21.355C270.848 23.965 270.368 26.26 269.408 28.24C268.478 30.19 267.188 31.69 265.538 32.74C263.918 33.79 262.103 34.315 260.093 34.315C258.383 34.315 256.898 33.97 255.638 33.28C254.408 32.59 253.433 31.66 252.713 30.49V46.06H243.893V8.755H252.713V12.265ZM261.893 21.355C261.893 19.705 261.443 18.43 260.543 17.53C259.673 16.6 258.593 16.135 257.303 16.135C256.013 16.135 254.918 16.6 254.018 17.53C253.148 18.46 252.713 19.735 252.713 21.355C252.713 23.005 253.148 24.295 254.018 25.225C254.918 26.155 256.013 26.62 257.303 26.62C258.593 26.62 259.673 26.155 260.543 25.225C261.443 24.265 261.893 22.975 261.893 21.355ZM273.039 21.355C273.039 18.745 273.504 16.465 274.434 14.515C275.394 12.565 276.684 11.065 278.304 10.015C279.954 8.965 281.784 8.44 283.794 8.44C285.534 8.44 287.034 8.785 288.294 9.475C289.554 10.165 290.529 11.095 291.219 12.265V8.755H300.039V34H291.219V30.49C290.529 31.66 289.539 32.59 288.249 33.28C286.989 33.97 285.504 34.315 283.794 34.315C281.784 34.315 279.954 33.79 278.304 32.74C276.684 31.69 275.394 30.19 274.434 28.24C273.504 26.26 273.039 23.965 273.039 21.355ZM291.219 21.355C291.219 19.735 290.769 18.46 289.869 17.53C288.999 16.6 287.919 16.135 286.629 16.135C285.309 16.135 284.214 16.6 283.344 17.53C282.474 18.43 282.039 19.705 282.039 21.355C282.039 22.975 282.474 24.265 283.344 25.225C284.214 26.155 285.309 26.62 286.629 26.62C287.919 26.62 288.999 26.155 289.869 25.225C290.769 24.295 291.219 23.005 291.219 21.355ZM313.885 13.21C314.875 11.77 316.075 10.63 317.485 9.79C318.895 8.95 320.41 8.53 322.03 8.53V17.935H319.555C317.635 17.935 316.21 18.31 315.28 19.06C314.35 19.81 313.885 21.115 313.885 22.975V34H305.065V8.755H313.885V13.21ZM323.752 21.355C323.752 18.745 324.217 16.465 325.147 14.515C326.107 12.565 327.397 11.065 329.017 10.015C330.667 8.965 332.497 8.44 334.507 8.44C336.247 8.44 337.747 8.785 339.007 9.475C340.267 10.165 341.242 11.095 341.932 12.265V8.755H350.752V34H341.932V30.49C341.242 31.66 340.252 32.59 338.962 33.28C337.702 33.97 336.217 34.315 334.507 34.315C332.497 34.315 330.667 33.79 329.017 32.74C327.397 31.69 326.107 30.19 325.147 28.24C324.217 26.26 323.752 23.965 323.752 21.355ZM341.932 21.355C341.932 19.735 341.482 18.46 340.582 17.53C339.712 16.6 338.632 16.135 337.342 16.135C336.022 16.135 334.927 16.6 334.057 17.53C333.187 18.43 332.752 19.705 332.752 21.355C332.752 22.975 333.187 24.265 334.057 25.225C334.927 26.155 336.022 26.62 337.342 26.62C338.632 26.62 339.712 26.155 340.582 25.225C341.482 24.295 341.932 23.005 341.932 21.355ZM373.211 12.265C373.901 11.095 374.876 10.165 376.136 9.475C377.396 8.785 378.881 8.44 380.591 8.44C382.601 8.44 384.416 8.965 386.036 10.015C387.686 11.065 388.976 12.565 389.906 14.515C390.866 16.465 391.346 18.745 391.346 21.355C391.346 23.965 390.866 26.26 389.906 28.24C388.976 30.19 387.686 31.69 386.036 32.74C384.416 33.79 382.601 34.315 380.591 34.315C378.881 34.315 377.396 33.97 376.136 33.28C374.906 32.59 373.931 31.66 373.211 30.49V46.06H364.391V8.755H373.211V12.265ZM382.391 21.355C382.391 19.705 381.941 18.43 381.041 17.53C380.171 16.6 379.091 16.135 377.801 16.135C376.511 16.135 375.416 16.6 374.516 17.53C373.646 18.46 373.211 19.735 373.211 21.355C373.211 23.005 373.646 24.295 374.516 25.225C375.416 26.155 376.511 26.62 377.801 26.62C379.091 26.62 380.171 26.155 381.041 25.225C381.941 24.265 382.391 22.975 382.391 21.355ZM393.537 21.355C393.537 18.745 394.002 16.465 394.932 14.515C395.892 12.565 397.182 11.065 398.802 10.015C400.452 8.965 402.282 8.44 404.292 8.44C406.032 8.44 407.532 8.785 408.792 9.475C410.052 10.165 411.027 11.095 411.717 12.265V8.755H420.537V34H411.717V30.49C411.027 31.66 410.037 32.59 408.747 33.28C407.487 33.97 406.002 34.315 404.292 34.315C402.282 34.315 400.452 33.79 398.802 32.74C397.182 31.69 395.892 30.19 394.932 28.24C394.002 26.26 393.537 23.965 393.537 21.355ZM411.717 21.355C411.717 19.735 411.267 18.46 410.367 17.53C409.497 16.6 408.417 16.135 407.127 16.135C405.807 16.135 404.712 16.6 403.842 17.53C402.972 18.43 402.537 19.705 402.537 21.355C402.537 22.975 402.972 24.265 403.842 25.225C404.712 26.155 405.807 26.62 407.127 26.62C408.417 26.62 409.497 26.155 410.367 25.225C411.267 24.295 411.717 23.005 411.717 21.355ZM436.318 34.315C434.038 34.315 431.998 33.94 430.198 33.19C428.428 32.41 427.018 31.36 425.968 30.04C424.948 28.69 424.378 27.175 424.258 25.495H432.808C432.928 26.305 433.303 26.935 433.933 27.385C434.563 27.835 435.343 28.06 436.273 28.06C436.993 28.06 437.563 27.91 437.983 27.61C438.403 27.31 438.613 26.92 438.613 26.44C438.613 25.81 438.268 25.345 437.578 25.045C436.888 24.745 435.748 24.415 434.158 24.055C432.358 23.695 430.858 23.29 429.658 22.84C428.458 22.39 427.408 21.655 426.508 20.635C425.638 19.615 425.203 18.235 425.203 16.495C425.203 14.995 425.608 13.645 426.418 12.445C427.228 11.215 428.413 10.24 429.973 9.52C431.563 8.8 433.468 8.44 435.688 8.44C438.988 8.44 441.583 9.25 443.473 10.87C445.363 12.49 446.458 14.62 446.758 17.26H438.793C438.643 16.45 438.283 15.835 437.713 15.415C437.173 14.965 436.438 14.74 435.508 14.74C434.788 14.74 434.233 14.875 433.843 15.145C433.483 15.415 433.303 15.79 433.303 16.27C433.303 16.87 433.648 17.335 434.338 17.665C435.028 17.965 436.138 18.28 437.668 18.61C439.498 19 441.013 19.435 442.213 19.915C443.443 20.395 444.508 21.175 445.408 22.255C446.338 23.305 446.803 24.745 446.803 26.575C446.803 28.045 446.368 29.365 445.498 30.535C444.658 31.705 443.443 32.635 441.853 33.325C440.293 33.985 438.448 34.315 436.318 34.315ZM461.894 34.315C459.614 34.315 457.574 33.94 455.774 33.19C454.004 32.41 452.594 31.36 451.544 30.04C450.524 28.69 449.954 27.175 449.834 25.495H458.384C458.504 26.305 458.879 26.935 459.509 27.385C460.139 27.835 460.919 28.06 461.849 28.06C462.569 28.06 463.139 27.91 463.559 27.61C463.979 27.31 464.189 26.92 464.189 26.44C464.189 25.81 463.844 25.345 463.154 25.045C462.464 24.745 461.324 24.415 459.734 24.055C457.934 23.695 456.434 23.29 455.234 22.84C454.034 22.39 452.984 21.655 452.084 20.635C451.214 19.615 450.779 18.235 450.779 16.495C450.779 14.995 451.184 13.645 451.994 12.445C452.804 11.215 453.989 10.24 455.549 9.52C457.139 8.8 459.044 8.44 461.264 8.44C464.564 8.44 467.159 9.25 469.049 10.87C470.939 12.49 472.034 14.62 472.334 17.26H464.369C464.219 16.45 463.859 15.835 463.289 15.415C462.749 14.965 462.014 14.74 461.084 14.74C460.364 14.74 459.809 14.875 459.419 15.145C459.059 15.415 458.879 15.79 458.879 16.27C458.879 16.87 459.224 17.335 459.914 17.665C460.604 17.965 461.714 18.28 463.244 18.61C465.074 19 466.589 19.435 467.789 19.915C469.019 20.395 470.084 21.175 470.984 22.255C471.914 23.305 472.379 24.745 472.379 26.575C472.379 28.045 471.944 29.365 471.074 30.535C470.234 31.705 469.019 32.635 467.429 33.325C465.869 33.985 464.024 34.315 461.894 34.315ZM500.835 21.085C500.835 21.775 500.79 22.465 500.7 23.155H484.005C484.095 24.535 484.47 25.57 485.13 26.26C485.82 26.92 486.69 27.25 487.74 27.25C489.21 27.25 490.26 26.59 490.89 25.27H500.295C499.905 27.01 499.14 28.57 498 29.95C496.89 31.3 495.48 32.365 493.77 33.145C492.06 33.925 490.17 34.315 488.1 34.315C485.61 34.315 483.39 33.79 481.44 32.74C479.52 31.69 478.005 30.19 476.895 28.24C475.815 26.29 475.275 23.995 475.275 21.355C475.275 18.715 475.815 16.435 476.895 14.515C477.975 12.565 479.475 11.065 481.395 10.015C483.345 8.965 485.58 8.44 488.1 8.44C490.59 8.44 492.795 8.95 494.715 9.97C496.635 10.99 498.135 12.46 499.215 14.38C500.295 16.27 500.835 18.505 500.835 21.085ZM491.835 18.88C491.835 17.8 491.475 16.96 490.755 16.36C490.035 15.73 489.135 15.415 488.055 15.415C486.975 15.415 486.09 15.715 485.4 16.315C484.71 16.885 484.26 17.74 484.05 18.88H491.835ZM503.005 21.355C503.005 18.745 503.47 16.465 504.4 14.515C505.36 12.565 506.65 11.065 508.27 10.015C509.92 8.965 511.75 8.44 513.76 8.44C515.5 8.44 517 8.785 518.26 9.475C519.52 10.165 520.495 11.095 521.185 12.265V8.755H530.005V34H521.185V30.49C520.495 31.66 519.505 32.59 518.215 33.28C516.955 33.97 515.47 34.315 513.76 34.315C511.75 34.315 509.92 33.79 508.27 32.74C506.65 31.69 505.36 30.19 504.4 28.24C503.47 26.26 503.005 23.965 503.005 21.355ZM521.185 21.355C521.185 19.735 520.735 18.46 519.835 17.53C518.965 16.6 517.885 16.135 516.595 16.135C515.275 16.135 514.18 16.6 513.31 17.53C512.44 18.43 512.005 19.705 512.005 21.355C512.005 22.975 512.44 24.265 513.31 25.225C514.18 26.155 515.275 26.62 516.595 26.62C517.885 26.62 518.965 26.155 519.835 25.225C520.735 24.295 521.185 23.005 521.185 21.355ZM543.851 13.21C544.841 11.77 546.041 10.63 547.451 9.79C548.861 8.95 550.376 8.53 551.996 8.53V17.935H549.521C547.601 17.935 546.176 18.31 545.246 19.06C544.316 19.81 543.851 21.115 543.851 22.975V34H535.031V8.755H543.851V13.21ZM0.863691 89.355C0.863691 86.745 1.40369 84.465 2.48369 82.515C3.56369 80.565 5.06369 79.065 6.98369 78.015C8.93369 76.965 11.1537 76.44 13.6437 76.44C16.8537 76.44 19.5537 77.325 21.7437 79.095C23.9337 80.835 25.3437 83.28 25.9737 86.43H16.6137C16.0737 84.78 15.0237 83.955 13.4637 83.955C12.3537 83.955 11.4687 84.42 10.8087 85.35C10.1787 86.25 9.86369 87.585 9.86369 89.355C9.86369 91.125 10.1787 92.475 10.8087 93.405C11.4687 94.335 12.3537 94.8 13.4637 94.8C15.0537 94.8 16.1037 93.975 16.6137 92.325H25.9737C25.3437 95.445 23.9337 97.89 21.7437 99.66C19.5537 101.43 16.8537 102.315 13.6437 102.315C11.1537 102.315 8.93369 101.79 6.98369 100.74C5.06369 99.69 3.56369 98.19 2.48369 96.24C1.40369 94.29 0.863691 91.995 0.863691 89.355ZM41.3827 102.315C38.8627 102.315 36.5977 101.79 34.5877 100.74C32.6077 99.69 31.0477 98.19 29.9077 96.24C28.7677 94.29 28.1977 91.995 28.1977 89.355C28.1977 86.745 28.7677 84.465 29.9077 82.515C31.0777 80.565 32.6527 79.065 34.6327 78.015C36.6427 76.965 38.9077 76.44 41.4277 76.44C43.9477 76.44 46.1977 76.965 48.1777 78.015C50.1877 79.065 51.7627 80.565 52.9027 82.515C54.0727 84.465 54.6577 86.745 54.6577 89.355C54.6577 91.965 54.0727 94.26 52.9027 96.24C51.7627 98.19 50.1877 99.69 48.1777 100.74C46.1677 101.79 43.9027 102.315 41.3827 102.315ZM41.3827 94.665C42.6127 94.665 43.6327 94.215 44.4427 93.315C45.2827 92.385 45.7027 91.065 45.7027 89.355C45.7027 87.645 45.2827 86.34 44.4427 85.44C43.6327 84.54 42.6277 84.09 41.4277 84.09C40.2277 84.09 39.2227 84.54 38.4127 85.44C37.6027 86.34 37.1977 87.645 37.1977 89.355C37.1977 91.095 37.5877 92.415 38.3677 93.315C39.1477 94.215 40.1527 94.665 41.3827 94.665ZM91.2311 76.53C94.4111 76.53 96.9011 77.49 98.7011 79.41C100.531 81.33 101.446 83.955 101.446 87.285V102H92.6261V88.455C92.6261 87.105 92.2511 86.055 91.5011 85.305C90.7511 84.555 89.7311 84.18 88.4411 84.18C87.1511 84.18 86.1311 84.555 85.3811 85.305C84.6311 86.055 84.2561 87.105 84.2561 88.455V102H75.4361V88.455C75.4361 87.105 75.0611 86.055 74.3111 85.305C73.5911 84.555 72.5861 84.18 71.2961 84.18C69.9761 84.18 68.9411 84.555 68.1911 85.305C67.4411 86.055 67.0661 87.105 67.0661 88.455V102H58.2461V76.755H67.0661V80.085C67.8461 79.005 68.8511 78.15 70.0811 77.52C71.3411 76.86 72.7811 76.53 74.4011 76.53C76.2611 76.53 77.9111 76.935 79.3511 77.745C80.8211 78.555 81.9761 79.695 82.8161 81.165C83.7161 79.785 84.9011 78.675 86.3711 77.835C87.8411 76.965 89.4611 76.53 91.2311 76.53ZM125.647 102.315C123.367 102.315 121.327 101.94 119.527 101.19C117.757 100.41 116.347 99.36 115.297 98.04C114.277 96.69 113.707 95.175 113.587 93.495H122.137C122.257 94.305 122.632 94.935 123.262 95.385C123.892 95.835 124.672 96.06 125.602 96.06C126.322 96.06 126.892 95.91 127.312 95.61C127.732 95.31 127.942 94.92 127.942 94.44C127.942 93.81 127.597 93.345 126.907 93.045C126.217 92.745 125.077 92.415 123.487 92.055C121.687 91.695 120.187 91.29 118.987 90.84C117.787 90.39 116.737 89.655 115.837 88.635C114.967 87.615 114.532 86.235 114.532 84.495C114.532 82.995 114.937 81.645 115.747 80.445C116.557 79.215 117.742 78.24 119.302 77.52C120.892 76.8 122.797 76.44 125.017 76.44C128.317 76.44 130.912 77.25 132.802 78.87C134.692 80.49 135.787 82.62 136.087 85.26H128.122C127.972 84.45 127.612 83.835 127.042 83.415C126.502 82.965 125.767 82.74 124.837 82.74C124.117 82.74 123.562 82.875 123.172 83.145C122.812 83.415 122.632 83.79 122.632 84.27C122.632 84.87 122.977 85.335 123.667 85.665C124.357 85.965 125.467 86.28 126.997 86.61C128.827 87 130.342 87.435 131.542 87.915C132.772 88.395 133.837 89.175 134.737 90.255C135.667 91.305 136.132 92.745 136.132 94.575C136.132 96.045 135.697 97.365 134.827 98.535C133.987 99.705 132.772 100.635 131.182 101.325C129.622 101.985 127.777 102.315 125.647 102.315ZM164.588 89.085C164.588 89.775 164.543 90.465 164.453 91.155H147.758C147.848 92.535 148.223 93.57 148.883 94.26C149.573 94.92 150.443 95.25 151.493 95.25C152.963 95.25 154.013 94.59 154.643 93.27H164.048C163.658 95.01 162.893 96.57 161.753 97.95C160.643 99.3 159.233 100.365 157.523 101.145C155.813 101.925 153.923 102.315 151.853 102.315C149.363 102.315 147.143 101.79 145.193 100.74C143.273 99.69 141.758 98.19 140.648 96.24C139.568 94.29 139.028 91.995 139.028 89.355C139.028 86.715 139.568 84.435 140.648 82.515C141.728 80.565 143.228 79.065 145.148 78.015C147.098 76.965 149.333 76.44 151.853 76.44C154.343 76.44 156.548 76.95 158.468 77.97C160.388 78.99 161.888 80.46 162.968 82.38C164.048 84.27 164.588 86.505 164.588 89.085ZM155.588 86.88C155.588 85.8 155.228 84.96 154.508 84.36C153.788 83.73 152.888 83.415 151.808 83.415C150.728 83.415 149.843 83.715 149.153 84.315C148.463 84.885 148.013 85.74 147.803 86.88H155.588ZM194.027 76.755V102H185.162V98.4C184.412 99.54 183.377 100.47 182.057 101.19C180.737 101.88 179.222 102.225 177.512 102.225C174.572 102.225 172.247 101.265 170.537 99.345C168.857 97.395 168.017 94.755 168.017 91.425V76.755H176.792V90.3C176.792 91.74 177.167 92.88 177.917 93.72C178.697 94.53 179.717 94.935 180.977 94.935C182.267 94.935 183.287 94.53 184.037 93.72C184.787 92.88 185.162 91.74 185.162 90.3V76.755H194.027ZM206.22 89.355C206.22 86.745 206.76 84.465 207.84 82.515C208.92 80.565 210.42 79.065 212.34 78.015C214.29 76.965 216.51 76.44 219 76.44C222.21 76.44 224.91 77.325 227.1 79.095C229.29 80.835 230.7 83.28 231.33 86.43H221.97C221.43 84.78 220.38 83.955 218.82 83.955C217.71 83.955 216.825 84.42 216.165 85.35C215.535 86.25 215.22 87.585 215.22 89.355C215.22 91.125 215.535 92.475 216.165 93.405C216.825 94.335 217.71 94.8 218.82 94.8C220.41 94.8 221.46 93.975 221.97 92.325H231.33C230.7 95.445 229.29 97.89 227.1 99.66C224.91 101.43 222.21 102.315 219 102.315C216.51 102.315 214.29 101.79 212.34 100.74C210.42 99.69 208.92 98.19 207.84 96.24C206.76 94.29 206.22 91.995 206.22 89.355ZM233.554 89.355C233.554 86.745 234.019 84.465 234.949 82.515C235.909 80.565 237.199 79.065 238.819 78.015C240.469 76.965 242.299 76.44 244.309 76.44C246.049 76.44 247.549 76.785 248.809 77.475C250.069 78.165 251.044 79.095 251.734 80.265V76.755H260.554V102H251.734V98.49C251.044 99.66 250.054 100.59 248.764 101.28C247.504 101.97 246.019 102.315 244.309 102.315C242.299 102.315 240.469 101.79 238.819 100.74C237.199 99.69 235.909 98.19 234.949 96.24C234.019 94.26 233.554 91.965 233.554 89.355ZM251.734 89.355C251.734 87.735 251.284 86.46 250.384 85.53C249.514 84.6 248.434 84.135 247.144 84.135C245.824 84.135 244.729 84.6 243.859 85.53C242.989 86.43 242.554 87.705 242.554 89.355C242.554 90.975 242.989 92.265 243.859 93.225C244.729 94.155 245.824 94.62 247.144 94.62C248.434 94.62 249.514 94.155 250.384 93.225C251.284 92.295 251.734 91.005 251.734 89.355ZM264.14 89.355C264.14 86.745 264.68 84.465 265.76 82.515C266.84 80.565 268.34 79.065 270.26 78.015C272.21 76.965 274.43 76.44 276.92 76.44C280.13 76.44 282.83 77.325 285.02 79.095C287.21 80.835 288.62 83.28 289.25 86.43H279.89C279.35 84.78 278.3 83.955 276.74 83.955C275.63 83.955 274.745 84.42 274.085 85.35C273.455 86.25 273.14 87.585 273.14 89.355C273.14 91.125 273.455 92.475 274.085 93.405C274.745 94.335 275.63 94.8 276.74 94.8C278.33 94.8 279.38 93.975 279.89 92.325H289.25C288.62 95.445 287.21 97.89 285.02 99.66C282.83 101.43 280.13 102.315 276.92 102.315C274.43 102.315 272.21 101.79 270.26 100.74C268.34 99.69 266.84 98.19 265.76 96.24C264.68 94.29 264.14 91.995 264.14 89.355ZM309.519 76.53C312.399 76.53 314.679 77.505 316.359 79.455C318.069 81.375 318.924 83.985 318.924 87.285V102H310.104V88.455C310.104 87.015 309.729 85.89 308.979 85.08C308.229 84.24 307.224 83.82 305.964 83.82C304.644 83.82 303.609 84.24 302.859 85.08C302.109 85.89 301.734 87.015 301.734 88.455V102H292.914V68.7H301.734V80.355C302.514 79.215 303.564 78.3 304.884 77.61C306.234 76.89 307.779 76.53 309.519 76.53ZM335.509 102.315C332.989 102.315 330.724 101.79 328.714 100.74C326.734 99.69 325.174 98.19 324.034 96.24C322.894 94.29 322.324 91.995 322.324 89.355C322.324 86.745 322.894 84.465 324.034 82.515C325.204 80.565 326.779 79.065 328.759 78.015C330.769 76.965 333.034 76.44 335.554 76.44C338.074 76.44 340.324 76.965 342.304 78.015C344.314 79.065 345.889 80.565 347.029 82.515C348.199 84.465 348.784 86.745 348.784 89.355C348.784 91.965 348.199 94.26 347.029 96.24C345.889 98.19 344.314 99.69 342.304 100.74C340.294 101.79 338.029 102.315 335.509 102.315ZM335.509 94.665C336.739 94.665 337.759 94.215 338.569 93.315C339.409 92.385 339.829 91.065 339.829 89.355C339.829 87.645 339.409 86.34 338.569 85.44C337.759 84.54 336.754 84.09 335.554 84.09C334.354 84.09 333.349 84.54 332.539 85.44C331.729 86.34 331.324 87.645 331.324 89.355C331.324 91.095 331.714 92.415 332.494 93.315C333.274 94.215 334.279 94.665 335.509 94.665ZM361.192 81.21C362.182 79.77 363.382 78.63 364.792 77.79C366.202 76.95 367.717 76.53 369.337 76.53V85.935H366.862C364.942 85.935 363.517 86.31 362.587 87.06C361.657 87.81 361.192 89.115 361.192 90.975V102H352.372V76.755H361.192V81.21ZM381.319 81.21C382.309 79.77 383.509 78.63 384.919 77.79C386.329 76.95 387.844 76.53 389.464 76.53V85.935H386.989C385.069 85.935 383.644 86.31 382.714 87.06C381.784 87.81 381.319 89.115 381.319 90.975V102H372.499V76.755H381.319V81.21ZM404.371 102.315C401.851 102.315 399.586 101.79 397.576 100.74C395.596 99.69 394.036 98.19 392.896 96.24C391.756 94.29 391.186 91.995 391.186 89.355C391.186 86.745 391.756 84.465 392.896 82.515C394.066 80.565 395.641 79.065 397.621 78.015C399.631 76.965 401.896 76.44 404.416 76.44C406.936 76.44 409.186 76.965 411.166 78.015C413.176 79.065 414.751 80.565 415.891 82.515C417.061 84.465 417.646 86.745 417.646 89.355C417.646 91.965 417.061 94.26 415.891 96.24C414.751 98.19 413.176 99.69 411.166 100.74C409.156 101.79 406.891 102.315 404.371 102.315ZM404.371 94.665C405.601 94.665 406.621 94.215 407.431 93.315C408.271 92.385 408.691 91.065 408.691 89.355C408.691 87.645 408.271 86.34 407.431 85.44C406.621 84.54 405.616 84.09 404.416 84.09C403.216 84.09 402.211 84.54 401.401 85.44C400.591 86.34 400.186 87.645 400.186 89.355C400.186 91.095 400.576 92.415 401.356 93.315C402.136 94.215 403.141 94.665 404.371 94.665ZM453.968 89.085C453.968 89.775 453.923 90.465 453.833 91.155H437.138C437.228 92.535 437.603 93.57 438.263 94.26C438.953 94.92 439.823 95.25 440.873 95.25C442.343 95.25 443.393 94.59 444.023 93.27H453.428C453.038 95.01 452.273 96.57 451.133 97.95C450.023 99.3 448.613 100.365 446.903 101.145C445.193 101.925 443.303 102.315 441.233 102.315C438.743 102.315 436.523 101.79 434.573 100.74C432.653 99.69 431.138 98.19 430.028 96.24C428.948 94.29 428.408 91.995 428.408 89.355C428.408 86.715 428.948 84.435 430.028 82.515C431.108 80.565 432.608 79.065 434.528 78.015C436.478 76.965 438.713 76.44 441.233 76.44C443.723 76.44 445.928 76.95 447.848 77.97C449.768 78.99 451.268 80.46 452.348 82.38C453.428 84.27 453.968 86.505 453.968 89.085ZM444.968 86.88C444.968 85.8 444.608 84.96 443.888 84.36C443.168 83.73 442.268 83.415 441.188 83.415C440.108 83.415 439.223 83.715 438.533 84.315C437.843 84.885 437.393 85.74 437.183 86.88H444.968ZM490.562 76.53C493.742 76.53 496.232 77.49 498.032 79.41C499.862 81.33 500.777 83.955 500.777 87.285V102H491.957V88.455C491.957 87.105 491.582 86.055 490.832 85.305C490.082 84.555 489.062 84.18 487.772 84.18C486.482 84.18 485.462 84.555 484.712 85.305C483.962 86.055 483.587 87.105 483.587 88.455V102H474.767V88.455C474.767 87.105 474.392 86.055 473.642 85.305C472.922 84.555 471.917 84.18 470.627 84.18C469.307 84.18 468.272 84.555 467.522 85.305C466.772 86.055 466.397 87.105 466.397 88.455V102H457.577V76.755H466.397V80.085C467.177 79.005 468.182 78.15 469.412 77.52C470.672 76.86 472.112 76.53 473.732 76.53C475.592 76.53 477.242 76.935 478.682 77.745C480.152 78.555 481.307 79.695 482.147 81.165C483.047 79.785 484.232 78.675 485.702 77.835C487.172 76.965 488.792 76.53 490.562 76.53ZM526.193 102.315C522.503 102.315 519.473 101.445 517.103 99.705C514.733 97.935 513.458 95.415 513.278 92.145H522.683C522.773 93.255 523.103 94.065 523.673 94.575C524.243 95.085 524.978 95.34 525.878 95.34C526.688 95.34 527.348 95.145 527.858 94.755C528.398 94.335 528.668 93.765 528.668 93.045C528.668 92.115 528.233 91.395 527.363 90.885C526.493 90.375 525.083 89.805 523.133 89.175C521.063 88.485 519.383 87.825 518.093 87.195C516.833 86.535 515.723 85.59 514.763 84.36C513.833 83.1 513.368 81.465 513.368 79.455C513.368 77.415 513.878 75.675 514.898 74.235C515.918 72.765 517.328 71.655 519.128 70.905C520.928 70.155 522.968 69.78 525.248 69.78C528.938 69.78 531.878 70.65 534.068 72.39C536.288 74.1 537.473 76.515 537.623 79.635H528.038C528.008 78.675 527.708 77.955 527.138 77.475C526.598 76.995 525.893 76.755 525.023 76.755C524.363 76.755 523.823 76.95 523.403 77.34C522.983 77.73 522.773 78.285 522.773 79.005C522.773 79.605 522.998 80.13 523.448 80.58C523.928 81 524.513 81.375 525.203 81.705C525.893 82.005 526.913 82.395 528.263 82.875C530.273 83.565 531.923 84.255 533.213 84.945C534.533 85.605 535.658 86.55 536.588 87.78C537.548 88.98 538.028 90.51 538.028 92.37C538.028 94.26 537.548 95.955 536.588 97.455C535.658 98.955 534.293 100.14 532.493 101.01C530.723 101.88 528.623 102.315 526.193 102.315ZM567.193 80.85C567.193 82.77 566.743 84.525 565.843 86.115C564.973 87.675 563.638 88.935 561.838 89.895C560.068 90.825 557.893 91.29 555.313 91.29H550.948V102H542.128V70.275H555.313C557.863 70.275 560.023 70.725 561.793 71.625C563.593 72.525 564.943 73.77 565.843 75.36C566.743 76.95 567.193 78.78 567.193 80.85ZM554.458 84.27C556.948 84.27 558.193 83.13 558.193 80.85C558.193 78.54 556.948 77.385 554.458 77.385H550.948V84.27H554.458Z" fill="#FFEBEB"/>
</svg>
