<svg width="240" height="38" viewBox="0 0 240 38" fill="none" xmlns="http://www.w3.org/2000/svg">
<path d="M22.59 31.825H11.34L9.63 37H0.36L11.925 5.275H22.095L33.615 37H24.3L22.59 31.825ZM20.385 25.075L16.965 14.815L13.59 25.075H20.385ZM45.3097 3.7V37H36.4897V3.7H45.3097ZM54.7875 9.415C53.2275 9.415 51.9675 8.995 51.0075 8.155C50.0775 7.285 49.6125 6.205 49.6125 4.915C49.6125 3.595 50.0775 2.5 51.0075 1.63C51.9675 0.759998 53.2275 0.324997 54.7875 0.324997C56.3175 0.324997 57.5475 0.759998 58.4775 1.63C59.4375 2.5 59.9175 3.595 59.9175 4.915C59.9175 6.205 59.4375 7.285 58.4775 8.155C57.5475 8.995 56.3175 9.415 54.7875 9.415ZM59.1525 11.755V37H50.3325V11.755H59.1525ZM97.1603 11.53C100.34 11.53 102.83 12.49 104.63 14.41C106.46 16.33 107.375 18.955 107.375 22.285V37H98.5553V23.455C98.5553 22.105 98.1803 21.055 97.4303 20.305C96.6803 19.555 95.6603 19.18 94.3703 19.18C93.0803 19.18 92.0603 19.555 91.3103 20.305C90.5603 21.055 90.1853 22.105 90.1853 23.455V37H81.3653V23.455C81.3653 22.105 80.9903 21.055 80.2403 20.305C79.5203 19.555 78.5153 19.18 77.2253 19.18C75.9053 19.18 74.8703 19.555 74.1203 20.305C73.3703 21.055 72.9953 22.105 72.9953 23.455V37H64.1753V11.755H72.9953V15.085C73.7753 14.005 74.7803 13.15 76.0103 12.52C77.2703 11.86 78.7103 11.53 80.3303 11.53C82.1903 11.53 83.8403 11.935 85.2803 12.745C86.7503 13.555 87.9053 14.695 88.7453 16.165C89.6453 14.785 90.8303 13.675 92.3003 12.835C93.7703 11.965 95.3903 11.53 97.1603 11.53ZM136.328 24.085C136.328 24.775 136.283 25.465 136.193 26.155H119.498C119.588 27.535 119.963 28.57 120.623 29.26C121.313 29.92 122.183 30.25 123.233 30.25C124.703 30.25 125.753 29.59 126.383 28.27H135.788C135.398 30.01 134.633 31.57 133.493 32.95C132.383 34.3 130.973 35.365 129.263 36.145C127.553 36.925 125.663 37.315 123.593 37.315C121.103 37.315 118.883 36.79 116.933 35.74C115.013 34.69 113.498 33.19 112.388 31.24C111.308 29.29 110.768 26.995 110.768 24.355C110.768 21.715 111.308 19.435 112.388 17.515C113.468 15.565 114.968 14.065 116.888 13.015C118.838 11.965 121.073 11.44 123.593 11.44C126.083 11.44 128.288 11.95 130.208 12.97C132.128 13.99 133.628 15.46 134.708 17.38C135.788 19.27 136.328 21.505 136.328 24.085ZM127.328 21.88C127.328 20.8 126.968 19.96 126.248 19.36C125.528 18.73 124.628 18.415 123.548 18.415C122.468 18.415 121.583 18.715 120.893 19.315C120.203 19.885 119.753 20.74 119.543 21.88H127.328ZM156.452 11.53C159.362 11.53 161.672 12.505 163.382 14.455C165.092 16.375 165.947 18.985 165.947 22.285V37H157.127V23.455C157.127 22.015 156.752 20.89 156.002 20.08C155.252 19.24 154.247 18.82 152.987 18.82C151.667 18.82 150.632 19.24 149.882 20.08C149.132 20.89 148.757 22.015 148.757 23.455V37H139.937V11.755H148.757V15.355C149.537 14.215 150.587 13.3 151.907 12.61C153.227 11.89 154.742 11.53 156.452 11.53ZM185.682 29.485V37H181.857C175.407 37 172.182 33.805 172.182 27.415V19.09H169.077V11.755H172.182V5.635H181.047V11.755H185.637V19.09H181.047V27.55C181.047 28.24 181.197 28.735 181.497 29.035C181.827 29.335 182.367 29.485 183.117 29.485H185.682ZM201.472 37.315C198.952 37.315 196.687 36.79 194.677 35.74C192.697 34.69 191.137 33.19 189.997 31.24C188.857 29.29 188.287 26.995 188.287 24.355C188.287 21.745 188.857 19.465 189.997 17.515C191.167 15.565 192.742 14.065 194.722 13.015C196.732 11.965 198.997 11.44 201.517 11.44C204.037 11.44 206.287 11.965 208.267 13.015C210.277 14.065 211.852 15.565 212.992 17.515C214.162 19.465 214.747 21.745 214.747 24.355C214.747 26.965 214.162 29.26 212.992 31.24C211.852 33.19 210.277 34.69 208.267 35.74C206.257 36.79 203.992 37.315 201.472 37.315ZM201.472 29.665C202.702 29.665 203.722 29.215 204.532 28.315C205.372 27.385 205.792 26.065 205.792 24.355C205.792 22.645 205.372 21.34 204.532 20.44C203.722 19.54 202.717 19.09 201.517 19.09C200.317 19.09 199.312 19.54 198.502 20.44C197.692 21.34 197.287 22.645 197.287 24.355C197.287 26.095 197.677 27.415 198.457 28.315C199.237 29.215 200.242 29.665 201.472 29.665ZM229.09 37.315C226.81 37.315 224.77 36.94 222.97 36.19C221.2 35.41 219.79 34.36 218.74 33.04C217.72 31.69 217.15 30.175 217.03 28.495H225.58C225.7 29.305 226.075 29.935 226.705 30.385C227.335 30.835 228.115 31.06 229.045 31.06C229.765 31.06 230.335 30.91 230.755 30.61C231.175 30.31 231.385 29.92 231.385 29.44C231.385 28.81 231.04 28.345 230.35 28.045C229.66 27.745 228.52 27.415 226.93 27.055C225.13 26.695 223.63 26.29 222.43 25.84C221.23 25.39 220.18 24.655 219.28 23.635C218.41 22.615 217.975 21.235 217.975 19.495C217.975 17.995 218.38 16.645 219.19 15.445C220 14.215 221.185 13.24 222.745 12.52C224.335 11.8 226.24 11.44 228.46 11.44C231.76 11.44 234.355 12.25 236.245 13.87C238.135 15.49 239.23 17.62 239.53 20.26H231.565C231.415 19.45 231.055 18.835 230.485 18.415C229.945 17.965 229.21 17.74 228.28 17.74C227.56 17.74 227.005 17.875 226.615 18.145C226.255 18.415 226.075 18.79 226.075 19.27C226.075 19.87 226.42 20.335 227.11 20.665C227.8 20.965 228.91 21.28 230.44 21.61C232.27 22 233.785 22.435 234.985 22.915C236.215 23.395 237.28 24.175 238.18 25.255C239.11 26.305 239.575 27.745 239.575 29.575C239.575 31.045 239.14 32.365 238.27 33.535C237.43 34.705 236.215 35.635 234.625 36.325C233.065 36.985 231.22 37.315 229.09 37.315Z" fill="#FFEBEB"/>
</svg>
