<svg width="461" height="240" viewBox="0 0 461 240" fill="none" xmlns="http://www.w3.org/2000/svg">
<path d="M358.771 -141.188C517.556 -65.256 455.811 96.6564 364.629 166.21C273.446 235.763 74.8056 267.61 -101.807 175.097C-278.419 82.585 -264.434 -197.13 -107.664 -132.301C49.1061 -67.4721 220.212 -207.449 358.771 -141.188Z" fill="#F68C64"/>
<path d="M114.374 82.4694C118.814 82.4694 122.694 83.3494 126.014 85.1094C129.334 86.8694 131.894 89.3494 133.694 92.5494C135.534 95.7094 136.454 99.3694 136.454 103.529C136.454 107.649 135.534 111.309 133.694 114.509C131.894 117.709 129.314 120.189 125.954 121.949C122.634 123.709 118.774 124.589 114.374 124.589H98.5938V82.4694H114.374ZM113.714 115.709C117.594 115.709 120.614 114.649 122.774 112.529C124.934 110.409 126.014 107.409 126.014 103.529C126.014 99.6494 124.934 96.6294 122.774 94.4694C120.614 92.3094 117.594 91.2294 113.714 91.2294H108.854V115.709H113.714ZM147.348 87.6294C145.548 87.6294 144.068 87.1094 142.908 86.0694C141.788 84.9894 141.228 83.6694 141.228 82.1094C141.228 80.5094 141.788 79.1894 142.908 78.1494C144.068 77.0694 145.548 76.5294 147.348 76.5294C149.108 76.5294 150.548 77.0694 151.668 78.1494C152.828 79.1894 153.408 80.5094 153.408 82.1094C153.408 83.6694 152.828 84.9894 151.668 86.0694C150.548 87.1094 149.108 87.6294 147.348 87.6294ZM152.448 91.1094V124.589H142.188V91.1094H152.448ZM157.843 107.849C157.843 104.369 158.543 101.329 159.943 98.7294C161.383 96.1294 163.363 94.1294 165.883 92.7294C168.443 91.3294 171.363 90.6294 174.643 90.6294C178.843 90.6294 182.343 91.7294 185.143 93.9294C187.983 96.1294 189.843 99.2294 190.723 103.229H179.803C178.883 100.669 177.103 99.3894 174.463 99.3894C172.583 99.3894 171.083 100.129 169.963 101.609C168.843 103.049 168.283 105.129 168.283 107.849C168.283 110.569 168.843 112.669 169.963 114.149C171.083 115.589 172.583 116.309 174.463 116.309C177.103 116.309 178.883 115.029 179.803 112.469H190.723C189.843 116.389 187.983 119.469 185.143 121.709C182.303 123.949 178.803 125.069 174.643 125.069C171.363 125.069 168.443 124.369 165.883 122.969C163.363 121.569 161.383 119.569 159.943 116.969C158.543 114.369 157.843 111.329 157.843 107.849ZM194.171 107.789C194.171 104.349 194.811 101.329 196.091 98.7294C197.411 96.1294 199.191 94.1294 201.431 92.7294C203.671 91.3294 206.171 90.6294 208.931 90.6294C211.291 90.6294 213.351 91.1094 215.111 92.0694C216.911 93.0294 218.291 94.2894 219.251 95.8494V91.1094H229.511V124.589H219.251V119.849C218.251 121.409 216.851 122.669 215.051 123.629C213.291 124.589 211.231 125.069 208.871 125.069C206.151 125.069 203.671 124.369 201.431 122.969C199.191 121.529 197.411 119.509 196.091 116.909C194.811 114.269 194.171 111.229 194.171 107.789ZM219.251 107.849C219.251 105.289 218.531 103.269 217.091 101.789C215.691 100.309 213.971 99.5694 211.931 99.5694C209.891 99.5694 208.151 100.309 206.711 101.789C205.311 103.229 204.611 105.229 204.611 107.789C204.611 110.349 205.311 112.389 206.711 113.909C208.151 115.389 209.891 116.129 211.931 116.129C213.971 116.129 215.691 115.389 217.091 113.909C218.531 112.429 219.251 110.409 219.251 107.849ZM250.554 125.069C247.634 125.069 245.034 124.569 242.754 123.569C240.474 122.569 238.674 121.209 237.354 119.489C236.034 117.729 235.294 115.769 235.134 113.609H245.274C245.394 114.769 245.934 115.709 246.894 116.429C247.854 117.149 249.034 117.509 250.434 117.509C251.714 117.509 252.694 117.269 253.374 116.789C254.094 116.269 254.454 115.609 254.454 114.809C254.454 113.849 253.954 113.149 252.954 112.709C251.954 112.229 250.334 111.709 248.094 111.149C245.694 110.589 243.694 110.009 242.094 109.409C240.494 108.769 239.114 107.789 237.954 106.469C236.794 105.109 236.214 103.289 236.214 101.009C236.214 99.0894 236.734 97.3494 237.774 95.7894C238.854 94.1894 240.414 92.9294 242.454 92.0094C244.534 91.0894 246.994 90.6294 249.834 90.6294C254.034 90.6294 257.334 91.6694 259.734 93.7494C262.174 95.8294 263.574 98.5894 263.934 102.029H254.454C254.294 100.869 253.774 99.9494 252.894 99.2694C252.054 98.5894 250.934 98.2494 249.534 98.2494C248.334 98.2494 247.414 98.4894 246.774 98.9694C246.134 99.4094 245.814 100.029 245.814 100.829C245.814 101.789 246.314 102.509 247.314 102.989C248.354 103.469 249.954 103.949 252.114 104.429C254.594 105.069 256.614 105.709 258.174 106.349C259.734 106.949 261.094 107.949 262.254 109.349C263.454 110.709 264.074 112.549 264.114 114.869C264.114 116.829 263.554 118.589 262.434 120.149C261.354 121.669 259.774 122.869 257.694 123.749C255.654 124.629 253.274 125.069 250.554 125.069Z" fill="#FFEBEB"/>
</svg>
