<svg width="185" height="185" viewBox="0 0 185 185" fill="none" xmlns="http://www.w3.org/2000/svg">
<g clip-path="url(#clip0_165_1468)">
<path d="M172.285 85.4904C200.718 147.943 145.597 174.888 99.4389 177.469C21.4931 181.815 2.55737 147.204 12.6104 98.5497C13.3028 95.1475 14.2556 96.0395 11.5392 91.6927C2.06467 76.5453 3.13576 23.0491 12.0681 15.1994C21.0004 7.34967 65.0198 36.9695 65.0198 36.9695C65.0198 36.9695 78.1578 34.1775 88.0847 33.6058C99.711 32.926 108.401 34.1127 108.401 34.1127C108.401 34.1127 149.591 -4.44359 158.279 2.57944C165.29 8.27045 173.189 26.448 172.983 53.1836C172.686 90.852 168.745 77.7243 172.285 85.4904Z" fill="#CED0D0"/>
<path d="M55.8785 126.349C64.9494 125.624 71.713 117.654 70.9855 108.546C70.258 99.4388 62.3148 92.6431 53.2439 93.3677C44.173 94.0923 37.4093 102.063 38.1369 111.17C38.8644 120.278 46.8076 127.073 55.8785 126.349Z" fill="#5C2F17"/>
<path d="M58.5936 108.955C61.2998 108.739 63.3176 106.361 63.1005 103.644C62.8835 100.927 60.5138 98.8997 57.8076 99.1159C55.1015 99.3321 53.0837 101.71 53.3007 104.427C53.5177 107.144 55.8875 109.171 58.5936 108.955Z" fill="white"/>
<path d="M133.445 120.014C142.516 119.29 149.279 111.319 148.552 102.212C147.824 93.1044 139.881 86.3088 130.81 87.0333C121.739 87.7579 114.976 95.7284 115.703 104.836C116.431 113.943 124.374 120.739 133.445 120.014Z" fill="#5C2F17"/>
<path d="M127.84 102.954C130.546 102.737 132.564 100.36 132.347 97.6425C132.13 94.9254 129.76 92.898 127.054 93.1142C124.348 93.3304 122.33 95.7082 122.547 98.4253C122.764 101.142 125.134 103.17 127.84 102.954Z" fill="white"/>
<path d="M69.0683 76.6142C65.5864 77.169 62.2324 76.2199 59.5306 73.7804C55.4642 70.1222 52.3852 65.0299 52.2845 54.1124C52.1883 43.9413 59.1775 33.149 59.1775 33.149L64.7242 36.7165L81.2961 34.1481C81.2961 34.1481 80.5468 43.3909 80.4184 52.4735C80.346 57.4304 81.2436 61.4246 80.6959 65.9492C80.028 71.7281 72.1714 76.1451 69.0957 76.612L69.0683 76.6142Z" fill="#7A7A79"/>
<path d="M111.418 73.2589C114.944 73.2539 118.104 71.7844 120.385 68.9469C123.819 64.6896 126.05 59.1731 124.417 48.378C122.897 38.3207 114.283 28.7747 114.283 28.7747L109.373 33.1776L92.585 33.3846C92.585 33.3846 94.8107 42.2792 96.4046 51.1965C97.2629 56.079 97.0108 60.1651 98.2698 64.5454C99.8466 70.145 108.305 73.2587 111.416 73.2315L111.418 73.2589Z" fill="#7A7A79"/>
<path d="M172.4 38.2941C175.592 63.4305 172.133 74.2728 172.133 74.2728L158.281 56.4048C157.116 54.9213 155.795 53.5609 154.348 52.3488L140.927 41.2507C137.861 38.7296 138.341 35.4275 139.912 32.6743L146.508 24.9006C146.859 24.4577 148.268 22.4367 149.546 20.509C151.026 18.344 152.217 16.0084 153.123 13.5573L157.382 2.04259C157.382 2.04259 168.533 7.81786 172.372 38.2963L172.4 38.2941Z" fill="#ED7D80"/>
<path d="M3.73514 52.6246C4.5735 77.9492 9.70986 88.1048 9.70986 88.1048L20.5494 68.2645C21.4644 66.6148 22.5525 65.0619 23.7885 63.6355L35.2776 50.5476C37.9049 47.5717 36.9067 44.3876 34.9189 41.9188L27.1717 35.2908C26.7556 34.9092 25.0438 33.1374 23.4754 31.4371C21.6705 29.5345 20.124 27.4176 18.8402 25.1414L12.8092 14.4764C12.8092 14.4764 2.71722 21.9485 3.73514 52.6246Z" fill="#ED7D80"/>
<path d="M176.992 135.095C174.176 142.263 170.104 147.843 165.522 152.22C138.408 178.007 99.6351 177.509 99.6351 177.509C99.6351 177.509 48.2151 182.501 25.225 160.246C13.3422 148.749 11.158 133.821 11.158 133.821C11.158 133.821 23.037 142.857 42.4934 141.912C53.9368 141.357 62.2665 131.481 64.712 128.298C70.805 120.427 82.8307 113.021 94.3463 111.991C102.99 111.217 114.228 114.303 126.489 123.64C129.95 126.268 135.826 133.267 150.537 132.921C164.178 132.634 180.086 119.691 180.086 119.691C180.086 119.691 179.555 128.557 177.017 135.066L176.992 135.095Z" fill="white"/>
<path d="M84.8631 130.533C82.214 128.754 83.226 124.524 86.3718 124.245L92.4223 122.738C93.6913 122.415 95.0052 122.311 96.305 122.373L103.166 122.737C106.476 122.445 108.295 126.587 105.893 128.937L104.742 130.052L101.547 133.156C98.4791 136.139 93.8025 136.568 90.2499 134.169L86.5517 131.671L84.8335 130.508L84.8631 130.533Z" fill="#5C2F17"/>
</g>
<defs>
<clipPath id="clip0_165_1468">
<rect width="171" height="171" fill="white" transform="translate(0.463379 14.0796) rotate(-4.56714)"/>
</clipPath>
</defs>
</svg>
