<svg width="469" height="441" viewBox="0 0 469 441" fill="none" xmlns="http://www.w3.org/2000/svg">
<path d="M390.089 313.935C444.849 464.409 293.521 577.861 185.213 593.098C76.9054 608.335 -77.7539 534.027 -133.191 359.423C-188.628 184.819 10.7326 -59.1962 71.6854 80.2599C132.638 219.716 342.305 182.628 390.089 313.935Z" fill="#F68C64"/>
<g clip-path="url(#clip0_308_11)">
<path d="M220.552 381.494C199.028 444.527 119.316 428.774 67.3943 399.627C8.9307 366.812 -12.6414 332.217 26.1259 273.14C50.139 236.537 100.486 230.765 158.974 253.335C217.461 275.906 234.692 340.069 220.552 381.494Z" fill="#4D382E"/>
<path d="M95.7964 337.339C85.4913 354.715 69.2461 353.789 57.4139 347.055C45.5817 340.321 38.884 324.028 50.8364 308.733C61.5263 295.061 74.8014 291.742 87.1266 294.784C100.354 298.031 102.614 325.856 95.7964 337.351V337.339Z" fill="#FFFCC3"/>
<path d="M154.933 348.69C145.278 366.427 154.38 379.918 166.225 386.64C178.057 393.374 195.492 390.776 202.515 372.691C208.792 356.518 204.848 343.411 195.937 334.369C186.378 324.665 161.319 336.954 154.933 348.69Z" fill="#FFFCC3"/>
<path d="M112.246 255.848C104.815 272.226 81.3428 279.272 64.4602 269.677C47.5777 260.081 35.6733 290.876 38.8238 271.096C41.6856 253.083 56.1873 219.113 69.5707 201.87C75.2463 194.547 80.7776 196.194 84.9261 202.183C94.9666 216.684 117.332 244.654 112.246 255.86V255.848Z" fill="#4D382E"/>
<path d="M190.382 273.104C173.608 279.585 192.39 303.43 195.745 322.561C196.406 326.361 233.983 337.027 221.586 352.755C220.564 354.054 242.448 309.202 253.92 282.76C260.978 266.49 248.846 263.677 235.703 264.951C219.145 266.563 202.346 268.487 190.382 273.104Z" fill="#4D382E"/>
<path d="M82.3414 326.761C85.2823 318.538 84.4374 310.717 80.4542 309.293C76.471 307.868 70.8578 313.379 67.9169 321.602C64.9759 329.825 65.8208 337.646 69.804 339.07C73.7873 340.495 79.4004 334.984 82.3414 326.761Z" fill="#4D382E"/>
<path d="M181.877 362.617C184.787 354.383 183.912 346.565 179.923 345.156C175.934 343.747 170.343 349.279 167.433 357.513C164.524 365.747 165.399 373.565 169.387 374.974C173.376 376.383 178.968 370.851 181.877 362.617Z" fill="#4D382E"/>
<path d="M132.652 361.292C130.596 364.911 123.754 367.894 118.811 365.08C113.869 362.266 112.992 354.751 115.048 351.143C117.104 347.524 121.733 348.185 126.675 350.999C131.618 353.813 134.72 357.685 132.664 361.292H132.652Z" fill="#F8D2DC"/>
<path d="M93.3072 234.589C97.4076 241.467 93.7161 240.637 91.227 240.349C83.0382 239.399 69.1618 243.728 61.1655 249.223C58.7125 250.906 55.9829 250.269 58.0872 245.892L72.8895 216.997C74.2362 214.484 77.3265 213.065 79.972 216.588C84.0964 222.083 90.6859 230.188 93.3193 234.589H93.3072Z" fill="#B57B82"/>
<path d="M209.188 283.902C201 285.453 204.198 287.762 206.134 289.493C212.531 295.217 218.736 309.009 219.986 319.038C220.371 322.116 222.752 323.799 224.712 319.146L237.001 287.665C238.023 284.888 237.001 281.497 232.432 281.87C225.301 282.447 214.443 282.916 209.2 283.902H209.188Z" fill="#B57B82"/>
<path d="M-2.8173 333.828L22.3141 332.192L-4.35645 333.936" fill="black"/>
<path d="M-2.8173 333.828L22.3141 332.192L-4.35645 333.936" stroke="#4D382E" stroke-width="6.07" stroke-linecap="round" stroke-linejoin="round"/>
<path d="M-2.14384 316.079L21.9054 323.571L-3.61084 315.623" fill="black"/>
<path d="M-2.14384 316.079L21.9054 323.571L-3.61084 315.623" stroke="#4D382E" stroke-width="6.07" stroke-linecap="round" stroke-linejoin="round"/>
<path d="M211.088 418.818L196.142 398.544L212.002 420.056" fill="black"/>
<path d="M211.088 418.818L196.142 398.544L212.002 420.056" stroke="#4D382E" stroke-width="6.07" stroke-linecap="round" stroke-linejoin="round"/>
<path d="M223.919 400.937L199.929 393.277L225.386 401.406" fill="black"/>
<path d="M223.919 400.937L199.929 393.277L225.386 401.406" stroke="#4D382E" stroke-width="6.07" stroke-linecap="round" stroke-linejoin="round"/>
<path d="M89.9042 440.871L-3.23828 439.933V359.597L53.3374 357.721L113.352 412.108L89.9042 440.871Z" fill="#4D382E"/>
</g>
<defs>
<clipPath id="clip0_308_11">
<rect width="264" height="243.871" fill="white" transform="translate(-8 197)"/>
</clipPath>
</defs>
</svg>
