<svg width="242" height="291" viewBox="0 0 242 291" fill="none" xmlns="http://www.w3.org/2000/svg">
<g clip-path="url(#clip0_165_1481)">
<path d="M0 99.1663C0 85.3509 9.24164 70.7488 21.2361 65.144C21.2361 65.0948 21.2361 64.9965 21.2361 64.9473C19.2206 44.6912 20.7445 30.0891 45.225 18.8303C56.9245 13.4221 72.1141 14.2088 82.4372 20.1578C89.3684 7.57145 102.936 0 123.336 0C154.355 0 189.06 35.3498 189.502 61.6041L281.329 124.781L283 290.075L113.898 205.068C104.656 206.445 93.8418 206.789 82.3389 206.789C48.8134 206.789 25.3653 187.91 21.6293 165.343C20.0071 155.706 19.8105 143.612 22.7108 132.943C10.3231 127.191 0 112.785 0 99.1171V99.1663Z" fill="#CED0D0"/>
<path d="M91.4961 141.22C79.4211 129.143 81.7087 107.274 96.6058 92.3746C111.503 77.4752 133.368 75.1872 145.443 87.2641C157.518 99.341 155.23 121.21 140.333 136.109C125.436 151.008 103.571 153.296 91.4961 141.22Z" fill="#7A7A79"/>
<path d="M136.864 60.0742C130.687 64.8611 120.967 62.6611 115.155 55.1603C109.342 47.6595 109.637 37.6984 115.814 32.9114C121.991 28.1245 131.711 30.3245 137.524 37.8253C143.337 45.326 143.041 55.2872 136.864 60.0742Z" fill="#7A7A79"/>
<path d="M87.4603 76.9231C81.3015 82.5956 70.6374 81.0364 63.6413 73.4406C56.6452 65.8448 55.9664 55.0888 62.1252 49.4163C68.2839 43.7437 78.9481 45.3029 85.9442 52.8987C92.9403 60.4945 93.619 71.2506 87.4603 76.9231Z" fill="#7A7A79"/>
<path d="M66.471 110.483C62.3497 118.091 51.648 120.27 42.568 115.351C33.4881 110.432 29.4684 100.278 33.5897 92.6701C37.711 85.0626 48.4127 82.8831 57.4927 87.8021C66.5726 92.7211 70.5923 102.876 66.471 110.483Z" fill="#7A7A79"/>
<path d="M77.7366 168.056C72.8203 174.127 63.0844 174.393 55.9908 168.649C48.8973 162.905 47.1323 153.326 52.0486 147.255C56.965 141.184 66.7009 140.918 73.7944 146.662C80.888 152.406 82.653 161.985 77.7366 168.056Z" fill="#7A7A79"/>
</g>
<defs>
<clipPath id="clip0_165_1481">
<rect width="283" height="290.075" fill="white" transform="matrix(-1 0 0 1 283 0)"/>
</clipPath>
</defs>
</svg>
