<svg width="189" height="184" viewBox="0 0 189 184" fill="none" xmlns="http://www.w3.org/2000/svg">
<g clip-path="url(#clip0_165_1507)">
<path d="M133.107 91.6035C149.32 106.865 152.359 120.671 139.776 130.866C132.719 136.583 128.648 140.274 120.916 144.145C109.474 149.868 98.4385 152.82 83.1588 153.844C67.2761 154.907 56.704 141.112 58.9215 126.864C58.9215 126.864 62.2477 101.108 78.5423 89.3689C106.703 69.0635 133.105 91.6199 133.105 91.6199L133.107 91.6035Z" fill="#4D382E"/>
<path d="M68.9718 79.081C76.0316 73.6254 77.0858 63.1611 71.3266 55.7084C65.5673 48.2556 55.1754 46.6365 48.1156 52.092C41.0558 57.5476 40.0016 68.0119 45.7608 75.4647C51.5201 82.9175 61.912 84.5366 68.9718 79.081Z" fill="#4D382E"/>
<path d="M110.578 61.2294C118.086 55.4275 119.797 45.0618 114.399 38.077C109.001 31.0922 98.5393 30.1334 91.0312 35.9353C83.5232 41.7373 81.8124 52.1029 87.21 59.0877C92.6076 66.0725 103.07 67.0313 110.578 61.2294Z" fill="#4D382E"/>
<path d="M46.4508 121.039C54.0251 115.186 55.3976 104.271 49.5165 96.6607C43.6353 89.0502 32.7276 87.6255 25.1533 93.4787C17.5791 99.3318 16.2066 110.246 22.0877 117.857C27.9688 125.467 38.8766 126.892 46.4508 121.039Z" fill="#4D382E"/>
<path d="M151.778 73.9238C158.996 68.3462 160.685 58.4387 155.551 51.7948C150.417 45.1509 140.403 44.2864 133.186 49.864C125.968 55.4416 124.279 65.3491 129.413 71.993C134.547 78.6369 144.561 79.5014 151.778 73.9238Z" fill="#4D382E"/>
</g>
<defs>
<clipPath id="clip0_165_1507">
<rect width="146" height="118.588" fill="white" transform="translate(0 89.2742) rotate(-37.6956)"/>
</clipPath>
</defs>
</svg>
