<svg width="591" height="106" viewBox="0 0 591 106" fill="none" xmlns="http://www.w3.org/2000/svg">
<path d="M0.839922 31.6V24.31L14.6549 4.6H24.3299V23.95H27.7949V31.6H24.3299V37H15.4199V31.6H0.839922ZM16.0949 14.545L9.88492 23.95H16.0949V14.545ZM53.8598 9.415C52.2998 9.415 51.0398 8.995 50.0798 8.155C49.1498 7.285 48.6848 6.205 48.6848 4.915C48.6848 3.595 49.1498 2.5 50.0798 1.63C51.0398 0.759998 52.2998 0.324997 53.8598 0.324997C55.3898 0.324997 56.6198 0.759998 57.5498 1.63C58.5098 2.5 58.9898 3.595 58.9898 4.915C58.9898 6.205 58.5098 7.285 57.5498 8.155C56.6198 8.995 55.3898 9.415 53.8598 9.415ZM58.2248 11.755V37H49.4048V11.755H58.2248ZM79.7625 11.53C82.6725 11.53 84.9825 12.505 86.6925 14.455C88.4025 16.375 89.2575 18.985 89.2575 22.285V37H80.4375V23.455C80.4375 22.015 80.0625 20.89 79.3125 20.08C78.5625 19.24 77.5575 18.82 76.2975 18.82C74.9775 18.82 73.9425 19.24 73.1925 20.08C72.4425 20.89 72.0675 22.015 72.0675 23.455V37H63.2475V11.755H72.0675V15.355C72.8475 14.215 73.8975 13.3 75.2175 12.61C76.5375 11.89 78.0525 11.53 79.7625 11.53ZM92.6571 24.355C92.6571 21.745 93.1221 19.465 94.0521 17.515C95.0121 15.565 96.3171 14.065 97.9671 13.015C99.6171 11.965 101.447 11.44 103.457 11.44C105.077 11.44 106.517 11.785 107.777 12.475C109.067 13.135 110.072 14.05 110.792 15.22V3.7H119.657V37H110.792V33.49C110.102 34.66 109.127 35.59 107.867 36.28C106.607 36.97 105.122 37.315 103.412 37.315C101.402 37.315 99.5721 36.79 97.9221 35.74C96.3021 34.69 95.0121 33.19 94.0521 31.24C93.1221 29.26 92.6571 26.965 92.6571 24.355ZM110.837 24.355C110.837 22.735 110.387 21.46 109.487 20.53C108.617 19.6 107.537 19.135 106.247 19.135C104.927 19.135 103.832 19.6 102.962 20.53C102.092 21.43 101.657 22.705 101.657 24.355C101.657 25.975 102.092 27.265 102.962 28.225C103.832 29.155 104.927 29.62 106.247 29.62C107.537 29.62 108.617 29.155 109.487 28.225C110.387 27.295 110.837 26.005 110.837 24.355ZM129.138 9.415C127.578 9.415 126.318 8.995 125.358 8.155C124.428 7.285 123.963 6.205 123.963 4.915C123.963 3.595 124.428 2.5 125.358 1.63C126.318 0.759998 127.578 0.324997 129.138 0.324997C130.668 0.324997 131.898 0.759998 132.828 1.63C133.788 2.5 134.268 3.595 134.268 4.915C134.268 6.205 133.788 7.285 132.828 8.155C131.898 8.995 130.668 9.415 129.138 9.415ZM133.503 11.755V37H124.683V11.755H133.503ZM137.086 24.355C137.086 21.745 137.626 19.465 138.706 17.515C139.786 15.565 141.286 14.065 143.206 13.015C145.156 11.965 147.376 11.44 149.866 11.44C153.076 11.44 155.776 12.325 157.966 14.095C160.156 15.835 161.566 18.28 162.196 21.43H152.836C152.296 19.78 151.246 18.955 149.686 18.955C148.576 18.955 147.691 19.42 147.031 20.35C146.401 21.25 146.086 22.585 146.086 24.355C146.086 26.125 146.401 27.475 147.031 28.405C147.691 29.335 148.576 29.8 149.686 29.8C151.276 29.8 152.326 28.975 152.836 27.325H162.196C161.566 30.445 160.156 32.89 157.966 34.66C155.776 36.43 153.076 37.315 149.866 37.315C147.376 37.315 145.156 36.79 143.206 35.74C141.286 34.69 139.786 33.19 138.706 31.24C137.626 29.29 137.086 26.995 137.086 24.355ZM164.42 24.355C164.42 21.745 164.885 19.465 165.815 17.515C166.775 15.565 168.065 14.065 169.685 13.015C171.335 11.965 173.165 11.44 175.175 11.44C176.915 11.44 178.415 11.785 179.675 12.475C180.935 13.165 181.91 14.095 182.6 15.265V11.755H191.42V37H182.6V33.49C181.91 34.66 180.92 35.59 179.63 36.28C178.37 36.97 176.885 37.315 175.175 37.315C173.165 37.315 171.335 36.79 169.685 35.74C168.065 34.69 166.775 33.19 165.815 31.24C164.885 29.26 164.42 26.965 164.42 24.355ZM182.6 24.355C182.6 22.735 182.15 21.46 181.25 20.53C180.38 19.6 179.3 19.135 178.01 19.135C176.69 19.135 175.595 19.6 174.725 20.53C173.855 21.43 173.42 22.705 173.42 24.355C173.42 25.975 173.855 27.265 174.725 28.225C175.595 29.155 176.69 29.62 178.01 29.62C179.3 29.62 180.38 29.155 181.25 28.225C182.15 27.295 182.6 26.005 182.6 24.355ZM207.606 29.8C209.196 29.8 210.246 28.975 210.756 27.325H220.116C219.576 29.995 218.451 32.185 216.741 33.895C215.061 35.575 212.946 36.64 210.396 37.09V38.665C211.866 38.665 213.201 39.1 214.401 39.97C215.631 40.84 216.246 42.175 216.246 43.975C216.246 45.805 215.601 47.155 214.311 48.025C213.021 48.895 211.491 49.33 209.721 49.33H202.386V44.695H208.686C209.676 44.695 210.171 44.38 210.171 43.75C210.171 43.12 209.676 42.805 208.686 42.805H205.176V37.09C202.086 36.58 199.611 35.2 197.751 32.95C195.921 30.7 195.006 27.835 195.006 24.355C195.006 21.745 195.546 19.465 196.626 17.515C197.706 15.565 199.206 14.065 201.126 13.015C203.076 11.965 205.296 11.44 207.786 11.44C210.996 11.44 213.696 12.325 215.886 14.095C218.076 15.835 219.486 18.28 220.116 21.43H210.756C210.216 19.78 209.166 18.955 207.606 18.955C206.496 18.955 205.611 19.42 204.951 20.35C204.321 21.25 204.006 22.585 204.006 24.355C204.006 26.125 204.321 27.475 204.951 28.405C205.611 29.335 206.496 29.8 207.606 29.8ZM235.525 37.315C233.005 37.315 230.74 36.79 228.73 35.74C226.75 34.69 225.19 33.19 224.05 31.24C222.91 29.29 222.34 26.995 222.34 24.355C222.34 21.745 222.91 19.465 224.05 17.515C225.22 15.565 226.795 14.065 228.775 13.015C230.785 11.965 233.05 11.44 235.57 11.44C238.09 11.44 240.34 11.965 242.32 13.015C244.33 14.065 245.905 15.565 247.045 17.515C248.215 19.465 248.8 21.745 248.8 24.355C248.8 26.965 248.215 29.26 247.045 31.24C245.905 33.19 244.33 34.69 242.32 35.74C240.31 36.79 238.045 37.315 235.525 37.315ZM235.525 29.665C236.755 29.665 237.775 29.215 238.585 28.315C239.425 27.385 239.845 26.065 239.845 24.355C239.845 22.645 239.425 21.34 238.585 20.44C237.775 19.54 236.77 19.09 235.57 19.09C234.37 19.09 233.365 19.54 232.555 20.44C231.745 21.34 231.34 22.645 231.34 24.355C231.34 26.095 231.73 27.415 232.51 28.315C233.29 29.215 234.295 29.665 235.525 29.665ZM226.66 9.775C227.5 4.885 229.75 2.44 233.41 2.44C234.1 2.44 234.715 2.545 235.255 2.755C235.825 2.965 236.47 3.265 237.19 3.655C237.7 3.925 238.135 4.135 238.495 4.285C238.855 4.435 239.215 4.51 239.575 4.51C240.685 4.51 241.345 3.82 241.555 2.44H246.01C245.59 4.99 244.795 6.85 243.625 8.02C242.485 9.16 241.03 9.73 239.26 9.73C238.6 9.73 238 9.64 237.46 9.46C236.92 9.25 236.26 8.95 235.48 8.56C234.97 8.29 234.535 8.08 234.175 7.93C233.815 7.78 233.455 7.705 233.095 7.705C232.015 7.705 231.34 8.395 231.07 9.775H226.66ZM276.508 24.085C276.508 24.775 276.463 25.465 276.373 26.155H259.678C259.768 27.535 260.143 28.57 260.803 29.26C261.493 29.92 262.363 30.25 263.413 30.25C264.883 30.25 265.933 29.59 266.563 28.27H275.968C275.578 30.01 274.813 31.57 273.673 32.95C272.563 34.3 271.153 35.365 269.443 36.145C267.733 36.925 265.843 37.315 263.773 37.315C261.283 37.315 259.063 36.79 257.113 35.74C255.193 34.69 253.678 33.19 252.568 31.24C251.488 29.29 250.948 26.995 250.948 24.355C250.948 21.715 251.488 19.435 252.568 17.515C253.648 15.565 255.148 14.065 257.068 13.015C259.018 11.965 261.253 11.44 263.773 11.44C266.263 11.44 268.468 11.95 270.388 12.97C272.308 13.99 273.808 15.46 274.888 17.38C275.968 19.27 276.508 21.505 276.508 24.085ZM267.508 21.88C267.508 20.8 267.148 19.96 266.428 19.36C265.708 18.73 264.808 18.415 263.728 18.415C262.648 18.415 261.763 18.715 261.073 19.315C260.383 19.885 259.933 20.74 259.723 21.88H267.508ZM290.873 37.315C288.593 37.315 286.553 36.94 284.753 36.19C282.983 35.41 281.573 34.36 280.523 33.04C279.503 31.69 278.933 30.175 278.813 28.495H287.363C287.483 29.305 287.858 29.935 288.488 30.385C289.118 30.835 289.898 31.06 290.828 31.06C291.548 31.06 292.118 30.91 292.538 30.61C292.958 30.31 293.168 29.92 293.168 29.44C293.168 28.81 292.823 28.345 292.133 28.045C291.443 27.745 290.303 27.415 288.713 27.055C286.913 26.695 285.413 26.29 284.213 25.84C283.013 25.39 281.963 24.655 281.063 23.635C280.193 22.615 279.758 21.235 279.758 19.495C279.758 17.995 280.163 16.645 280.973 15.445C281.783 14.215 282.968 13.24 284.528 12.52C286.118 11.8 288.023 11.44 290.243 11.44C293.543 11.44 296.138 12.25 298.028 13.87C299.918 15.49 301.013 17.62 301.313 20.26H293.348C293.198 19.45 292.838 18.835 292.268 18.415C291.728 17.965 290.993 17.74 290.063 17.74C289.343 17.74 288.788 17.875 288.398 18.145C288.038 18.415 287.858 18.79 287.858 19.27C287.858 19.87 288.203 20.335 288.893 20.665C289.583 20.965 290.693 21.28 292.223 21.61C294.053 22 295.568 22.435 296.768 22.915C297.998 23.395 299.063 24.175 299.963 25.255C300.893 26.305 301.358 27.745 301.358 29.575C301.358 31.045 300.923 32.365 300.053 33.535C299.213 34.705 297.998 35.635 296.408 36.325C294.848 36.985 293.003 37.315 290.873 37.315ZM312.867 24.355C312.867 21.745 313.332 19.465 314.262 17.515C315.222 15.565 316.527 14.065 318.177 13.015C319.827 11.965 321.657 11.44 323.667 11.44C325.287 11.44 326.727 11.785 327.987 12.475C329.277 13.135 330.282 14.05 331.002 15.22V3.7H339.867V37H331.002V33.49C330.312 34.66 329.337 35.59 328.077 36.28C326.817 36.97 325.332 37.315 323.622 37.315C321.612 37.315 319.782 36.79 318.132 35.74C316.512 34.69 315.222 33.19 314.262 31.24C313.332 29.26 312.867 26.965 312.867 24.355ZM331.047 24.355C331.047 22.735 330.597 21.46 329.697 20.53C328.827 19.6 327.747 19.135 326.457 19.135C325.137 19.135 324.042 19.6 323.172 20.53C322.302 21.43 321.867 22.705 321.867 24.355C321.867 25.975 322.302 27.265 323.172 28.225C324.042 29.155 325.137 29.62 326.457 29.62C327.747 29.62 328.827 29.155 329.697 28.225C330.597 27.295 331.047 26.005 331.047 24.355ZM369.013 24.085C369.013 24.775 368.968 25.465 368.878 26.155H352.183C352.273 27.535 352.648 28.57 353.308 29.26C353.998 29.92 354.868 30.25 355.918 30.25C357.388 30.25 358.438 29.59 359.068 28.27H368.473C368.083 30.01 367.318 31.57 366.178 32.95C365.068 34.3 363.658 35.365 361.948 36.145C360.238 36.925 358.348 37.315 356.278 37.315C353.788 37.315 351.568 36.79 349.618 35.74C347.698 34.69 346.183 33.19 345.073 31.24C343.993 29.29 343.453 26.995 343.453 24.355C343.453 21.715 343.993 19.435 345.073 17.515C346.153 15.565 347.653 14.065 349.573 13.015C351.523 11.965 353.758 11.44 356.278 11.44C358.768 11.44 360.973 11.95 362.893 12.97C364.813 13.99 366.313 15.46 367.393 17.38C368.473 19.27 369.013 21.505 369.013 24.085ZM360.013 21.88C360.013 20.8 359.653 19.96 358.933 19.36C358.213 18.73 357.313 18.415 356.233 18.415C355.153 18.415 354.268 18.715 353.578 19.315C352.888 19.885 352.438 20.74 352.228 21.88H360.013ZM394.871 19.09H390.911V37H382.046V19.09H379.301V11.755H382.046V11.53C382.046 8.29 382.991 5.815 384.881 4.105C386.801 2.365 389.546 1.495 393.116 1.495C393.836 1.495 394.391 1.51 394.781 1.54V9.055C394.541 9.025 394.211 9.01 393.791 9.01C392.831 9.01 392.126 9.235 391.676 9.685C391.226 10.105 390.971 10.795 390.911 11.755H394.871V19.09ZM402.478 9.415C400.918 9.415 399.658 8.995 398.698 8.155C397.768 7.285 397.303 6.205 397.303 4.915C397.303 3.595 397.768 2.5 398.698 1.63C399.658 0.759998 400.918 0.324997 402.478 0.324997C404.008 0.324997 405.238 0.759998 406.168 1.63C407.128 2.5 407.608 3.595 407.608 4.915C407.608 6.205 407.128 7.285 406.168 8.155C405.238 8.995 404.008 9.415 402.478 9.415ZM406.843 11.755V37H398.023V11.755H406.843ZM420.686 3.7V37H411.866V3.7H420.686ZM458.693 11.53C461.873 11.53 464.363 12.49 466.163 14.41C467.993 16.33 468.908 18.955 468.908 22.285V37H460.088V23.455C460.088 22.105 459.713 21.055 458.963 20.305C458.213 19.555 457.193 19.18 455.903 19.18C454.613 19.18 453.593 19.555 452.843 20.305C452.093 21.055 451.718 22.105 451.718 23.455V37H442.898V23.455C442.898 22.105 442.523 21.055 441.773 20.305C441.053 19.555 440.048 19.18 438.758 19.18C437.438 19.18 436.403 19.555 435.653 20.305C434.903 21.055 434.528 22.105 434.528 23.455V37H425.708V11.755H434.528V15.085C435.308 14.005 436.313 13.15 437.543 12.52C438.803 11.86 440.243 11.53 441.863 11.53C443.723 11.53 445.373 11.935 446.813 12.745C448.283 13.555 449.438 14.695 450.278 16.165C451.178 14.785 452.363 13.675 453.833 12.835C455.303 11.965 456.923 11.53 458.693 11.53ZM497.861 24.085C497.861 24.775 497.816 25.465 497.726 26.155H481.031C481.121 27.535 481.496 28.57 482.156 29.26C482.846 29.92 483.716 30.25 484.766 30.25C486.236 30.25 487.286 29.59 487.916 28.27H497.321C496.931 30.01 496.166 31.57 495.026 32.95C493.916 34.3 492.506 35.365 490.796 36.145C489.086 36.925 487.196 37.315 485.126 37.315C482.636 37.315 480.416 36.79 478.466 35.74C476.546 34.69 475.031 33.19 473.921 31.24C472.841 29.29 472.301 26.995 472.301 24.355C472.301 21.715 472.841 19.435 473.921 17.515C475.001 15.565 476.501 14.065 478.421 13.015C480.371 11.965 482.606 11.44 485.126 11.44C487.616 11.44 489.821 11.95 491.741 12.97C493.661 13.99 495.161 15.46 496.241 17.38C497.321 19.27 497.861 21.505 497.861 24.085ZM488.861 21.88C488.861 20.8 488.501 19.96 487.781 19.36C487.061 18.73 486.161 18.415 485.081 18.415C484.001 18.415 483.116 18.715 482.426 19.315C481.736 19.885 481.286 20.74 481.076 21.88H488.861ZM512.225 37.315C509.945 37.315 507.905 36.94 506.105 36.19C504.335 35.41 502.925 34.36 501.875 33.04C500.855 31.69 500.285 30.175 500.165 28.495H508.715C508.835 29.305 509.21 29.935 509.84 30.385C510.47 30.835 511.25 31.06 512.18 31.06C512.9 31.06 513.47 30.91 513.89 30.61C514.31 30.31 514.52 29.92 514.52 29.44C514.52 28.81 514.175 28.345 513.485 28.045C512.795 27.745 511.655 27.415 510.065 27.055C508.265 26.695 506.765 26.29 505.565 25.84C504.365 25.39 503.315 24.655 502.415 23.635C501.545 22.615 501.11 21.235 501.11 19.495C501.11 17.995 501.515 16.645 502.325 15.445C503.135 14.215 504.32 13.24 505.88 12.52C507.47 11.8 509.375 11.44 511.595 11.44C514.895 11.44 517.49 12.25 519.38 13.87C521.27 15.49 522.365 17.62 522.665 20.26H514.7C514.55 19.45 514.19 18.835 513.62 18.415C513.08 17.965 512.345 17.74 511.415 17.74C510.695 17.74 510.14 17.875 509.75 18.145C509.39 18.415 509.21 18.79 509.21 19.27C509.21 19.87 509.555 20.335 510.245 20.665C510.935 20.965 512.045 21.28 513.575 21.61C515.405 22 516.92 22.435 518.12 22.915C519.35 23.395 520.415 24.175 521.315 25.255C522.245 26.305 522.71 27.745 522.71 29.575C522.71 31.045 522.275 32.365 521.405 33.535C520.565 34.705 519.35 35.635 517.76 36.325C516.2 36.985 514.355 37.315 512.225 37.315ZM534.22 24.355C534.22 21.745 534.685 19.465 535.615 17.515C536.575 15.565 537.88 14.065 539.53 13.015C541.18 11.965 543.01 11.44 545.02 11.44C546.64 11.44 548.08 11.785 549.34 12.475C550.63 13.135 551.635 14.05 552.355 15.22V3.7H561.22V37H552.355V33.49C551.665 34.66 550.69 35.59 549.43 36.28C548.17 36.97 546.685 37.315 544.975 37.315C542.965 37.315 541.135 36.79 539.485 35.74C537.865 34.69 536.575 33.19 535.615 31.24C534.685 29.26 534.22 26.965 534.22 24.355ZM552.4 24.355C552.4 22.735 551.95 21.46 551.05 20.53C550.18 19.6 549.1 19.135 547.81 19.135C546.49 19.135 545.395 19.6 544.525 20.53C543.655 21.43 543.22 22.705 543.22 24.355C543.22 25.975 543.655 27.265 544.525 28.225C545.395 29.155 546.49 29.62 547.81 29.62C549.1 29.62 550.18 29.155 551.05 28.225C551.95 27.295 552.4 26.005 552.4 24.355ZM590.366 24.085C590.366 24.775 590.321 25.465 590.231 26.155H573.536C573.626 27.535 574.001 28.57 574.661 29.26C575.351 29.92 576.221 30.25 577.271 30.25C578.741 30.25 579.791 29.59 580.421 28.27H589.826C589.436 30.01 588.671 31.57 587.531 32.95C586.421 34.3 585.011 35.365 583.301 36.145C581.591 36.925 579.701 37.315 577.631 37.315C575.141 37.315 572.921 36.79 570.971 35.74C569.051 34.69 567.536 33.19 566.426 31.24C565.346 29.29 564.806 26.995 564.806 24.355C564.806 21.715 565.346 19.435 566.426 17.515C567.506 15.565 569.006 14.065 570.926 13.015C572.876 11.965 575.111 11.44 577.631 11.44C580.121 11.44 582.326 11.95 584.246 12.97C586.166 13.99 587.666 15.46 588.746 17.38C589.826 19.27 590.366 21.505 590.366 24.085ZM581.366 21.88C581.366 20.8 581.006 19.96 580.286 19.36C579.566 18.73 578.666 18.415 577.586 18.415C576.506 18.415 575.621 18.715 574.931 19.315C574.241 19.885 573.791 20.74 573.581 21.88H581.366ZM176.505 92.355C176.505 89.745 177.045 87.465 178.125 85.515C179.205 83.565 180.705 82.065 182.625 81.015C184.575 79.965 186.795 79.44 189.285 79.44C192.495 79.44 195.195 80.325 197.385 82.095C199.575 83.835 200.985 86.28 201.615 89.43H192.255C191.715 87.78 190.665 86.955 189.105 86.955C187.995 86.955 187.11 87.42 186.45 88.35C185.82 89.25 185.505 90.585 185.505 92.355C185.505 94.125 185.82 95.475 186.45 96.405C187.11 97.335 187.995 97.8 189.105 97.8C190.695 97.8 191.745 96.975 192.255 95.325H201.615C200.985 98.445 199.575 100.89 197.385 102.66C195.195 104.43 192.495 105.315 189.285 105.315C186.795 105.315 184.575 104.79 182.625 103.74C180.705 102.69 179.205 101.19 178.125 99.24C177.045 97.29 176.505 94.995 176.505 92.355ZM203.839 92.355C203.839 89.745 204.304 87.465 205.234 85.515C206.194 83.565 207.484 82.065 209.104 81.015C210.754 79.965 212.584 79.44 214.594 79.44C216.334 79.44 217.834 79.785 219.094 80.475C220.354 81.165 221.329 82.095 222.019 83.265V79.755H230.839V105H222.019V101.49C221.329 102.66 220.339 103.59 219.049 104.28C217.789 104.97 216.304 105.315 214.594 105.315C212.584 105.315 210.754 104.79 209.104 103.74C207.484 102.69 206.194 101.19 205.234 99.24C204.304 97.26 203.839 94.965 203.839 92.355ZM222.019 92.355C222.019 90.735 221.569 89.46 220.669 88.53C219.799 87.6 218.719 87.135 217.429 87.135C216.109 87.135 215.014 87.6 214.144 88.53C213.274 89.43 212.839 90.705 212.839 92.355C212.839 93.975 213.274 95.265 214.144 96.225C215.014 97.155 216.109 97.62 217.429 97.62C218.719 97.62 219.799 97.155 220.669 96.225C221.569 95.295 222.019 94.005 222.019 92.355ZM234.425 92.355C234.425 89.745 234.965 87.465 236.045 85.515C237.125 83.565 238.625 82.065 240.545 81.015C242.495 79.965 244.715 79.44 247.205 79.44C250.415 79.44 253.115 80.325 255.305 82.095C257.495 83.835 258.905 86.28 259.535 89.43H250.175C249.635 87.78 248.585 86.955 247.025 86.955C245.915 86.955 245.03 87.42 244.37 88.35C243.74 89.25 243.425 90.585 243.425 92.355C243.425 94.125 243.74 95.475 244.37 96.405C245.03 97.335 245.915 97.8 247.025 97.8C248.615 97.8 249.665 96.975 250.175 95.325H259.535C258.905 98.445 257.495 100.89 255.305 102.66C253.115 104.43 250.415 105.315 247.205 105.315C244.715 105.315 242.495 104.79 240.545 103.74C238.625 102.69 237.125 101.19 236.045 99.24C234.965 97.29 234.425 94.995 234.425 92.355ZM279.804 79.53C282.684 79.53 284.964 80.505 286.644 82.455C288.354 84.375 289.209 86.985 289.209 90.285V105H280.389V91.455C280.389 90.015 280.014 88.89 279.264 88.08C278.514 87.24 277.509 86.82 276.249 86.82C274.929 86.82 273.894 87.24 273.144 88.08C272.394 88.89 272.019 90.015 272.019 91.455V105H263.199V71.7H272.019V83.355C272.799 82.215 273.849 81.3 275.169 80.61C276.519 79.89 278.064 79.53 279.804 79.53ZM305.793 105.315C303.273 105.315 301.008 104.79 298.998 103.74C297.018 102.69 295.458 101.19 294.318 99.24C293.178 97.29 292.608 94.995 292.608 92.355C292.608 89.745 293.178 87.465 294.318 85.515C295.488 83.565 297.063 82.065 299.043 81.015C301.053 79.965 303.318 79.44 305.838 79.44C308.358 79.44 310.608 79.965 312.588 81.015C314.598 82.065 316.173 83.565 317.313 85.515C318.483 87.465 319.068 89.745 319.068 92.355C319.068 94.965 318.483 97.26 317.313 99.24C316.173 101.19 314.598 102.69 312.588 103.74C310.578 104.79 308.313 105.315 305.793 105.315ZM305.793 97.665C307.023 97.665 308.043 97.215 308.853 96.315C309.693 95.385 310.113 94.065 310.113 92.355C310.113 90.645 309.693 89.34 308.853 88.44C308.043 87.54 307.038 87.09 305.838 87.09C304.638 87.09 303.633 87.54 302.823 88.44C302.013 89.34 301.608 90.645 301.608 92.355C301.608 94.095 301.998 95.415 302.778 96.315C303.558 97.215 304.563 97.665 305.793 97.665ZM331.477 84.21C332.467 82.77 333.667 81.63 335.077 80.79C336.487 79.95 338.002 79.53 339.622 79.53V88.935H337.147C335.227 88.935 333.802 89.31 332.872 90.06C331.942 90.81 331.477 92.115 331.477 93.975V105H322.657V79.755H331.477V84.21ZM351.604 84.21C352.594 82.77 353.794 81.63 355.204 80.79C356.614 79.95 358.129 79.53 359.749 79.53V88.935H357.274C355.354 88.935 353.929 89.31 352.999 90.06C352.069 90.81 351.604 92.115 351.604 93.975V105H342.784V79.755H351.604V84.21ZM374.656 105.315C372.136 105.315 369.871 104.79 367.861 103.74C365.881 102.69 364.321 101.19 363.181 99.24C362.041 97.29 361.471 94.995 361.471 92.355C361.471 89.745 362.041 87.465 363.181 85.515C364.351 83.565 365.926 82.065 367.906 81.015C369.916 79.965 372.181 79.44 374.701 79.44C377.221 79.44 379.471 79.965 381.451 81.015C383.461 82.065 385.036 83.565 386.176 85.515C387.346 87.465 387.931 89.745 387.931 92.355C387.931 94.965 387.346 97.26 386.176 99.24C385.036 101.19 383.461 102.69 381.451 103.74C379.441 104.79 377.176 105.315 374.656 105.315ZM374.656 97.665C375.886 97.665 376.906 97.215 377.716 96.315C378.556 95.385 378.976 94.065 378.976 92.355C378.976 90.645 378.556 89.34 377.716 88.44C376.906 87.54 375.901 87.09 374.701 87.09C373.501 87.09 372.496 87.54 371.686 88.44C370.876 89.34 370.471 90.645 370.471 92.355C370.471 94.095 370.861 95.415 371.641 96.315C372.421 97.215 373.426 97.665 374.656 97.665ZM402.274 105.315C399.994 105.315 397.954 104.94 396.154 104.19C394.384 103.41 392.974 102.36 391.924 101.04C390.904 99.69 390.334 98.175 390.214 96.495H398.764C398.884 97.305 399.259 97.935 399.889 98.385C400.519 98.835 401.299 99.06 402.229 99.06C402.949 99.06 403.519 98.91 403.939 98.61C404.359 98.31 404.569 97.92 404.569 97.44C404.569 96.81 404.224 96.345 403.534 96.045C402.844 95.745 401.704 95.415 400.114 95.055C398.314 94.695 396.814 94.29 395.614 93.84C394.414 93.39 393.364 92.655 392.464 91.635C391.594 90.615 391.159 89.235 391.159 87.495C391.159 85.995 391.564 84.645 392.374 83.445C393.184 82.215 394.369 81.24 395.929 80.52C397.519 79.8 399.424 79.44 401.644 79.44C404.944 79.44 407.539 80.25 409.429 81.87C411.319 83.49 412.414 85.62 412.714 88.26H404.749C404.599 87.45 404.239 86.835 403.669 86.415C403.129 85.965 402.394 85.74 401.464 85.74C400.744 85.74 400.189 85.875 399.799 86.145C399.439 86.415 399.259 86.79 399.259 87.27C399.259 87.87 399.604 88.335 400.294 88.665C400.984 88.965 402.094 89.28 403.624 89.61C405.454 90 406.969 90.435 408.169 90.915C409.399 91.395 410.464 92.175 411.364 93.255C412.294 94.305 412.759 95.745 412.759 97.575C412.759 99.045 412.324 100.365 411.454 101.535C410.614 102.705 409.399 103.635 407.809 104.325C406.249 104.985 404.404 105.315 402.274 105.315Z" fill="#FFEBEB"/>
</svg>
