<svg width="679" height="319" viewBox="0 0 679 319" fill="none" xmlns="http://www.w3.org/2000/svg">
<rect width="556" height="123" rx="40" fill="#EF835A"/>
<g clip-path="url(#clip0_334_8)">
<path d="M461 160.748C461 149.359 468.618 137.322 478.506 132.702C478.506 132.661 478.506 132.58 478.506 132.54C476.845 115.841 478.101 103.804 498.282 94.5229C507.926 90.0646 520.448 90.7131 528.958 95.6172C534.671 85.2416 545.856 79 562.673 79C588.243 79 616.853 108.141 617.217 129.784L692.915 181.864L694.293 318.125L554.893 248.049C547.274 249.184 538.359 249.468 528.877 249.468C501.24 249.468 481.91 233.904 478.83 215.301C477.493 207.357 477.331 197.387 479.722 188.592C469.51 183.85 461 171.975 461 160.708V160.748Z" fill="#CED0D0"/>
<path d="M536.425 195.415C526.471 185.46 528.357 167.432 540.638 155.15C552.918 142.867 570.943 140.981 580.897 150.937C590.851 160.892 588.965 178.92 576.685 191.202C564.404 203.485 546.379 205.371 536.425 195.415Z" fill="#7A7A79"/>
<path d="M573.825 128.522C568.733 132.469 560.72 130.655 555.928 124.472C551.137 118.288 551.38 110.077 556.472 106.131C561.565 102.185 569.577 103.998 574.369 110.181C579.16 116.365 578.917 124.576 573.825 128.522Z" fill="#7A7A79"/>
<path d="M533.099 142.412C528.022 147.088 519.23 145.803 513.463 139.541C507.696 133.279 507.136 124.413 512.213 119.736C517.29 115.06 526.081 116.346 531.849 122.607C537.616 128.869 538.176 137.736 533.099 142.412Z" fill="#7A7A79"/>
<path d="M515.796 170.078C512.398 176.349 503.576 178.146 496.091 174.091C488.606 170.036 485.293 161.665 488.69 155.393C492.087 149.122 500.909 147.325 508.395 151.38C515.88 155.435 519.193 163.806 515.796 170.078Z" fill="#7A7A79"/>
<path d="M525.083 217.538C521.03 222.543 513.004 222.762 507.157 218.026C501.309 213.291 499.854 205.395 503.907 200.39C507.96 195.385 515.985 195.167 521.833 199.902C527.681 204.637 529.136 212.533 525.083 217.538Z" fill="#7A7A79"/>
</g>
<path d="M176.859 49.728V75H170.703V49.728H176.859ZM193.56 54.696C195.912 54.696 197.784 55.464 199.176 57C200.592 58.512 201.3 60.6 201.3 63.264V75H195.18V64.092C195.18 62.748 194.832 61.704 194.136 60.96C193.44 60.216 192.504 59.844 191.328 59.844C190.152 59.844 189.216 60.216 188.52 60.96C187.824 61.704 187.476 62.748 187.476 64.092V75H181.32V54.912H187.476V57.576C188.1 56.688 188.94 55.992 189.996 55.488C191.052 54.96 192.24 54.696 193.56 54.696ZM208.674 52.824C207.594 52.824 206.706 52.512 206.01 51.888C205.338 51.24 205.002 50.448 205.002 49.512C205.002 48.552 205.338 47.76 206.01 47.136C206.706 46.488 207.594 46.164 208.674 46.164C209.73 46.164 210.594 46.488 211.266 47.136C211.962 47.76 212.31 48.552 212.31 49.512C212.31 50.448 211.962 51.24 211.266 51.888C210.594 52.512 209.73 52.824 208.674 52.824ZM211.734 54.912V75H205.578V54.912H211.734ZM214.971 64.956C214.971 62.868 215.391 61.044 216.231 59.484C217.095 57.924 218.283 56.724 219.795 55.884C221.331 55.044 223.083 54.624 225.051 54.624C227.571 54.624 229.671 55.284 231.351 56.604C233.055 57.924 234.171 59.784 234.699 62.184H228.147C227.595 60.648 226.527 59.88 224.943 59.88C223.815 59.88 222.915 60.324 222.243 61.212C221.571 62.076 221.235 63.324 221.235 64.956C221.235 66.588 221.571 67.848 222.243 68.736C222.915 69.6 223.815 70.032 224.943 70.032C226.527 70.032 227.595 69.264 228.147 67.728H234.699C234.171 70.08 233.055 71.928 231.351 73.272C229.647 74.616 227.547 75.288 225.051 75.288C223.083 75.288 221.331 74.868 219.795 74.028C218.283 73.188 217.095 71.988 216.231 70.428C215.391 68.868 214.971 67.044 214.971 64.956ZM241.088 52.824C240.008 52.824 239.12 52.512 238.424 51.888C237.752 51.24 237.416 50.448 237.416 49.512C237.416 48.552 237.752 47.76 238.424 47.136C239.12 46.488 240.008 46.164 241.088 46.164C242.144 46.164 243.008 46.488 243.68 47.136C244.376 47.76 244.724 48.552 244.724 49.512C244.724 50.448 244.376 51.24 243.68 51.888C243.008 52.512 242.144 52.824 241.088 52.824ZM244.148 54.912V75H237.992V54.912H244.148ZM247.385 64.92C247.385 62.856 247.769 61.044 248.537 59.484C249.329 57.924 250.397 56.724 251.741 55.884C253.085 55.044 254.585 54.624 256.241 54.624C257.657 54.624 258.893 54.912 259.949 55.488C261.029 56.064 261.857 56.82 262.433 57.756V54.912H268.589V75H262.433V72.156C261.833 73.092 260.993 73.848 259.913 74.424C258.857 75 257.621 75.288 256.205 75.288C254.573 75.288 253.085 74.868 251.741 74.028C250.397 73.164 249.329 71.952 248.537 70.392C247.769 68.808 247.385 66.984 247.385 64.92ZM262.433 64.956C262.433 63.42 262.001 62.208 261.137 61.32C260.297 60.432 259.265 59.988 258.041 59.988C256.817 59.988 255.773 60.432 254.909 61.32C254.069 62.184 253.649 63.384 253.649 64.92C253.649 66.456 254.069 67.68 254.909 68.592C255.773 69.48 256.817 69.924 258.041 69.924C259.265 69.924 260.297 69.48 261.137 68.592C262.001 67.704 262.433 66.492 262.433 64.956ZM279.199 58.26C279.919 57.156 280.819 56.292 281.899 55.668C282.979 55.02 284.179 54.696 285.499 54.696V61.212H283.807C282.271 61.212 281.119 61.548 280.351 62.22C279.583 62.868 279.199 64.02 279.199 65.676V75H273.043V54.912H279.199V58.26ZM307.266 69.78V75H304.134C301.902 75 300.162 74.46 298.914 73.38C297.666 72.276 297.042 70.488 297.042 68.016V60.024H294.594V54.912H297.042V50.016H303.198V54.912H307.23V60.024H303.198V68.088C303.198 68.688 303.342 69.12 303.63 69.384C303.918 69.648 304.398 69.78 305.07 69.78H307.266ZM329.631 64.632C329.631 65.208 329.595 65.808 329.523 66.432H315.591C315.687 67.68 316.083 68.64 316.779 69.312C317.499 69.96 318.375 70.284 319.407 70.284C320.943 70.284 322.011 69.636 322.611 68.34H329.163C328.827 69.66 328.215 70.848 327.327 71.904C326.463 72.96 325.371 73.788 324.051 74.388C322.731 74.988 321.255 75.288 319.623 75.288C317.655 75.288 315.903 74.868 314.367 74.028C312.831 73.188 311.631 71.988 310.767 70.428C309.903 68.868 309.471 67.044 309.471 64.956C309.471 62.868 309.891 61.044 310.731 59.484C311.595 57.924 312.795 56.724 314.331 55.884C315.867 55.044 317.631 54.624 319.623 54.624C321.567 54.624 323.295 55.032 324.807 55.848C326.319 56.664 327.495 57.828 328.335 59.34C329.199 60.852 329.631 62.616 329.631 64.632ZM323.331 63.012C323.331 61.956 322.971 61.116 322.251 60.492C321.531 59.868 320.631 59.556 319.551 59.556C318.519 59.556 317.643 59.856 316.923 60.456C316.227 61.056 315.795 61.908 315.627 63.012H323.331ZM341.05 75.288C339.298 75.288 337.738 74.988 336.37 74.388C335.002 73.788 333.922 72.972 333.13 71.94C332.338 70.884 331.894 69.708 331.798 68.412H337.882C337.954 69.108 338.278 69.672 338.854 70.104C339.43 70.536 340.138 70.752 340.978 70.752C341.746 70.752 342.334 70.608 342.742 70.32C343.174 70.008 343.39 69.612 343.39 69.132C343.39 68.556 343.09 68.136 342.49 67.872C341.89 67.584 340.918 67.272 339.574 66.936C338.134 66.6 336.934 66.252 335.974 65.892C335.014 65.508 334.186 64.92 333.49 64.128C332.794 63.312 332.446 62.22 332.446 60.852C332.446 59.7 332.758 58.656 333.382 57.72C334.03 56.76 334.966 56.004 336.19 55.452C337.438 54.9 338.914 54.624 340.618 54.624C343.138 54.624 345.118 55.248 346.558 56.496C348.022 57.744 348.862 59.4 349.078 61.464H343.39C343.294 60.768 342.982 60.216 342.454 59.808C341.95 59.4 341.278 59.196 340.438 59.196C339.718 59.196 339.166 59.34 338.782 59.628C338.398 59.892 338.206 60.264 338.206 60.744C338.206 61.32 338.506 61.752 339.106 62.04C339.73 62.328 340.69 62.616 341.986 62.904C343.474 63.288 344.686 63.672 345.622 64.056C346.558 64.416 347.374 65.016 348.07 65.856C348.79 66.672 349.162 67.776 349.186 69.168C349.186 70.344 348.85 71.4 348.178 72.336C347.53 73.248 346.582 73.968 345.334 74.496C344.11 75.024 342.682 75.288 341.05 75.288ZM364.149 69.78V75H361.017C358.785 75 357.045 74.46 355.797 73.38C354.549 72.276 353.925 70.488 353.925 68.016V60.024H351.477V54.912H353.925V50.016H360.081V54.912H364.113V60.024H360.081V68.088C360.081 68.688 360.225 69.12 360.513 69.384C360.801 69.648 361.281 69.78 361.953 69.78H364.149ZM386.514 64.632C386.514 65.208 386.478 65.808 386.406 66.432H372.474C372.57 67.68 372.966 68.64 373.662 69.312C374.382 69.96 375.258 70.284 376.29 70.284C377.826 70.284 378.894 69.636 379.494 68.34H386.046C385.71 69.66 385.098 70.848 384.21 71.904C383.346 72.96 382.254 73.788 380.934 74.388C379.614 74.988 378.138 75.288 376.506 75.288C374.538 75.288 372.786 74.868 371.25 74.028C369.714 73.188 368.514 71.988 367.65 70.428C366.786 68.868 366.354 67.044 366.354 64.956C366.354 62.868 366.774 61.044 367.614 59.484C368.478 57.924 369.678 56.724 371.214 55.884C372.75 55.044 374.514 54.624 376.506 54.624C378.45 54.624 380.178 55.032 381.69 55.848C383.202 56.664 384.378 57.828 385.218 59.34C386.082 60.852 386.514 62.616 386.514 64.632ZM380.214 63.012C380.214 61.956 379.854 61.116 379.134 60.492C378.414 59.868 377.514 59.556 376.434 59.556C375.402 59.556 374.526 59.856 373.806 60.456C373.11 61.056 372.678 61.908 372.51 63.012H380.214Z" fill="#FFEBEB"/>
<defs>
<clipPath id="clip0_334_8">
<rect width="233.293" height="239.125" fill="white" transform="matrix(-1 0 0 1 694.293 79)"/>
</clipPath>
</defs>
</svg>
