<svg width="197" height="84" viewBox="0 0 197 84" fill="none" xmlns="http://www.w3.org/2000/svg">
<path d="M47.6982 83.8L39.5982 72.91C37.1982 73.39 34.8582 73.63 32.5782 73.63C26.6382 73.63 21.1782 72.25 16.1982 69.49C11.2782 66.73 7.34816 62.89 4.40816 57.97C1.52816 52.99 0.088164 47.41 0.088164 41.23C0.088164 35.05 1.52816 29.5 4.40816 24.58C7.34816 19.66 11.2782 15.82 16.1982 13.06C21.1782 10.3 26.6382 8.92 32.5782 8.92C38.5182 8.92 43.9482 10.3 48.8682 13.06C53.8482 15.82 57.7482 19.66 60.5682 24.58C63.4482 29.5 64.8882 35.05 64.8882 41.23C64.8882 46.63 63.7782 51.58 61.5582 56.08C59.3982 60.52 56.3682 64.21 52.4682 67.15L66.3282 83.8H47.6982ZM15.8382 41.23C15.8382 46.81 17.3382 51.28 20.3382 54.64C23.3982 57.94 27.4782 59.59 32.5782 59.59C37.6182 59.59 41.6382 57.91 44.6382 54.55C47.6982 51.19 49.2282 46.75 49.2282 41.23C49.2282 35.65 47.6982 31.21 44.6382 27.91C41.6382 24.55 37.6182 22.87 32.5782 22.87C27.4782 22.87 23.3982 24.52 20.3382 27.82C17.3382 31.12 15.8382 35.59 15.8382 41.23ZM123.216 22.78V73H107.826V66.16C106.266 68.38 104.136 70.18 101.436 71.56C98.7959 72.88 95.8559 73.54 92.6159 73.54C88.7759 73.54 85.3859 72.7 82.4459 71.02C79.5059 69.28 77.2259 66.79 75.6059 63.55C73.9859 60.31 73.1759 56.5 73.1759 52.12V22.78H88.4759V50.05C88.4759 53.41 89.3459 56.02 91.0859 57.88C92.8259 59.74 95.1659 60.67 98.1059 60.67C101.106 60.67 103.476 59.74 105.216 57.88C106.956 56.02 107.826 53.41 107.826 50.05V22.78H123.216ZM142.01 17.56C139.31 17.56 137.09 16.78 135.35 15.22C133.67 13.6 132.83 11.62 132.83 9.28C132.83 6.88 133.67 4.9 135.35 3.34C137.09 1.72 139.31 0.909995 142.01 0.909995C144.65 0.909995 146.81 1.72 148.49 3.34C150.23 4.9 151.1 6.88 151.1 9.28C151.1 11.62 150.23 13.6 148.49 15.22C146.81 16.78 144.65 17.56 142.01 17.56ZM149.66 22.78V73H134.27V22.78H149.66ZM175.213 60.31H196.993V73H158.023V60.76L178.903 35.47H158.203V22.78H196.543V35.02L175.213 60.31Z" fill="#FFEBEB"/>
</svg>
