<svg width="409" height="210" viewBox="0 0 409 210" fill="none" xmlns="http://www.w3.org/2000/svg">
<path d="M19.2522 0.919999V6.4H7.81219V12.32H16.3722V17.64H7.81219V29H0.972188V0.919999H19.2522ZM21.4872 17.8C21.4872 15.5067 21.9139 13.4933 22.7672 11.76C23.6472 10.0267 24.8339 8.69333 26.3272 7.76C27.8205 6.82667 29.4872 6.36 31.3272 6.36C32.9005 6.36 34.2739 6.68 35.4472 7.32C36.6472 7.96 37.5672 8.8 38.2072 9.84V6.68H45.0472V29H38.2072V25.84C37.5405 26.88 36.6072 27.72 35.4072 28.36C34.2339 29 32.8605 29.32 31.2872 29.32C29.4739 29.32 27.8205 28.8533 26.3272 27.92C24.8339 26.96 23.6472 25.6133 22.7672 23.88C21.9139 22.12 21.4872 20.0933 21.4872 17.8ZM38.2072 17.84C38.2072 16.1333 37.7272 14.7867 36.7672 13.8C35.8339 12.8133 34.6872 12.32 33.3272 12.32C31.9672 12.32 30.8072 12.8133 29.8472 13.8C28.9139 14.76 28.4472 16.0933 28.4472 17.8C28.4472 19.5067 28.9139 20.8667 29.8472 21.88C30.8072 22.8667 31.9672 23.36 33.3272 23.36C34.6872 23.36 35.8339 22.8667 36.7672 21.88C37.7272 20.8933 38.2072 19.5467 38.2072 17.84ZM59.7156 23.48C61.4756 23.48 62.6623 22.6267 63.2756 20.92H70.5556C70.049 23.1867 69.0356 25.04 67.5156 26.48C65.9956 27.92 64.1023 28.8133 61.8356 29.16V30.64C63.2223 30.64 64.4356 31.0133 65.4756 31.76C66.5156 32.5333 67.0356 33.68 67.0356 35.2C67.0356 36.72 66.489 37.8667 65.3956 38.64C64.3023 39.44 62.9956 39.84 61.4756 39.84H55.3156V36.08H60.5556C61.089 36.08 61.489 36 61.7556 35.84C62.0223 35.68 62.1556 35.4133 62.1556 35.04C62.1556 34.6667 62.0223 34.4 61.7556 34.24C61.489 34.1067 61.089 34.04 60.5556 34.04H57.7156V29.16C54.969 28.7333 52.769 27.52 51.1156 25.52C49.4623 23.4933 48.6356 20.9333 48.6356 17.84C48.6356 15.52 49.1023 13.4933 50.0356 11.76C50.9956 10.0267 52.3156 8.69333 53.9956 7.76C55.7023 6.82667 57.649 6.36 59.8356 6.36C62.6356 6.36 64.969 7.09333 66.8356 8.56C68.729 10.0267 69.969 12.0933 70.5556 14.76H63.2756C62.6623 13.0533 61.4756 12.2 59.7156 12.2C58.4623 12.2 57.4623 12.6933 56.7156 13.68C55.969 14.64 55.5956 16.0267 55.5956 17.84C55.5956 19.6533 55.969 21.0533 56.7156 22.04C57.4623 23 58.4623 23.48 59.7156 23.48ZM72.8544 17.8C72.8544 15.5067 73.281 13.4933 74.1344 11.76C75.0144 10.0267 76.201 8.69333 77.6944 7.76C79.1877 6.82667 80.8544 6.36 82.6944 6.36C84.2677 6.36 85.641 6.68 86.8144 7.32C88.0144 7.96 88.9344 8.8 89.5744 9.84V6.68H96.4144V29H89.5744V25.84C88.9077 26.88 87.9744 27.72 86.7744 28.36C85.601 29 84.2277 29.32 82.6544 29.32C80.841 29.32 79.1877 28.8533 77.6944 27.92C76.201 26.96 75.0144 25.6133 74.1344 23.88C73.281 22.12 72.8544 20.0933 72.8544 17.8ZM89.5744 17.84C89.5744 16.1333 89.0944 14.7867 88.1344 13.8C87.201 12.8133 86.0544 12.32 84.6944 12.32C83.3344 12.32 82.1744 12.8133 81.2144 13.8C80.281 14.76 79.8144 16.0933 79.8144 17.8C79.8144 19.5067 80.281 20.8667 81.2144 21.88C82.1744 22.8667 83.3344 23.36 84.6944 23.36C86.0544 23.36 87.201 22.8667 88.1344 21.88C89.0944 20.8933 89.5744 19.5467 89.5744 17.84ZM119.999 29.32C117.813 29.32 115.839 28.8533 114.079 27.92C112.346 26.9867 110.973 25.6533 109.959 23.92C108.973 22.1867 108.479 20.16 108.479 17.84C108.479 15.5467 108.986 13.5333 109.999 11.8C111.013 10.04 112.399 8.69333 114.159 7.76C115.919 6.82667 117.893 6.36 120.079 6.36C122.266 6.36 124.239 6.82667 125.999 7.76C127.759 8.69333 129.146 10.04 130.159 11.8C131.173 13.5333 131.679 15.5467 131.679 17.84C131.679 20.1333 131.159 22.16 130.119 23.92C129.106 25.6533 127.706 26.9867 125.919 27.92C124.159 28.8533 122.186 29.32 119.999 29.32ZM119.999 23.4C121.306 23.4 122.413 22.92 123.319 21.96C124.253 21 124.719 19.6267 124.719 17.84C124.719 16.0533 124.266 14.68 123.359 13.72C122.479 12.76 121.386 12.28 120.079 12.28C118.746 12.28 117.639 12.76 116.759 13.72C115.879 14.6533 115.439 16.0267 115.439 17.84C115.439 19.6267 115.866 21 116.719 21.96C117.599 22.92 118.693 23.4 119.999 23.4ZM157.385 6.44C159.998 6.44 162.078 7.29333 163.625 9C165.198 10.68 165.985 13 165.985 15.96V29H159.185V16.88C159.185 15.3867 158.798 14.2267 158.025 13.4C157.251 12.5733 156.211 12.16 154.905 12.16C153.598 12.16 152.558 12.5733 151.785 13.4C151.011 14.2267 150.625 15.3867 150.625 16.88V29H143.785V6.68H150.625V9.64C151.318 8.65333 152.251 7.88 153.425 7.32C154.598 6.73333 155.918 6.44 157.385 6.44ZM180.898 29.32C178.711 29.32 176.738 28.8533 174.978 27.92C173.244 26.9867 171.871 25.6533 170.858 23.92C169.871 22.1867 169.378 20.16 169.378 17.84C169.378 15.5467 169.884 13.5333 170.898 11.8C171.911 10.04 173.298 8.69333 175.058 7.76C176.818 6.82667 178.791 6.36 180.978 6.36C183.164 6.36 185.138 6.82667 186.898 7.76C188.658 8.69333 190.044 10.04 191.058 11.8C192.071 13.5333 192.578 15.5467 192.578 17.84C192.578 20.1333 192.058 22.16 191.018 23.92C190.004 25.6533 188.604 26.9867 186.818 27.92C185.058 28.8533 183.084 29.32 180.898 29.32ZM180.898 23.4C182.204 23.4 183.311 22.92 184.218 21.96C185.151 21 185.618 19.6267 185.618 17.84C185.618 16.0533 185.164 14.68 184.258 13.72C183.378 12.76 182.284 12.28 180.978 12.28C179.644 12.28 178.538 12.76 177.658 13.72C176.778 14.6533 176.338 16.0267 176.338 17.84C176.338 19.6267 176.764 21 177.618 21.96C178.498 22.92 179.591 23.4 180.898 23.4ZM205.287 29.32C203.34 29.32 201.607 28.9867 200.087 28.32C198.567 27.6533 197.367 26.7467 196.487 25.6C195.607 24.4267 195.113 23.12 195.007 21.68H201.767C201.847 22.4533 202.207 23.08 202.847 23.56C203.487 24.04 204.273 24.28 205.207 24.28C206.06 24.28 206.713 24.12 207.167 23.8C207.647 23.4533 207.887 23.0133 207.887 22.48C207.887 21.84 207.553 21.3733 206.887 21.08C206.22 20.76 205.14 20.4133 203.647 20.04C202.047 19.6667 200.713 19.28 199.647 18.88C198.58 18.4533 197.66 17.8 196.887 16.92C196.113 16.0133 195.727 14.8 195.727 13.28C195.727 12 196.073 10.84 196.767 9.8C197.487 8.73333 198.527 7.89333 199.887 7.28C201.273 6.66666 202.913 6.36 204.807 6.36C207.607 6.36 209.807 7.05333 211.407 8.44C213.033 9.82667 213.967 11.6667 214.207 13.96H207.887C207.78 13.1867 207.433 12.5733 206.847 12.12C206.287 11.6667 205.54 11.44 204.607 11.44C203.807 11.44 203.193 11.6 202.767 11.92C202.34 12.2133 202.127 12.6267 202.127 13.16C202.127 13.8 202.46 14.28 203.127 14.6C203.82 14.92 204.887 15.24 206.327 15.56C207.98 15.9867 209.327 16.4133 210.367 16.84C211.407 17.24 212.313 17.9067 213.087 18.84C213.887 19.7467 214.3 20.9733 214.327 22.52C214.327 23.8267 213.953 25 213.207 26.04C212.487 27.0533 211.433 27.8533 210.047 28.44C208.687 29.0267 207.1 29.32 205.287 29.32ZM227.591 29.32C225.645 29.32 223.911 28.9867 222.391 28.32C220.871 27.6533 219.671 26.7467 218.791 25.6C217.911 24.4267 217.418 23.12 217.311 21.68H224.071C224.151 22.4533 224.511 23.08 225.151 23.56C225.791 24.04 226.578 24.28 227.511 24.28C228.365 24.28 229.018 24.12 229.471 23.8C229.951 23.4533 230.191 23.0133 230.191 22.48C230.191 21.84 229.858 21.3733 229.191 21.08C228.525 20.76 227.445 20.4133 225.951 20.04C224.351 19.6667 223.018 19.28 221.951 18.88C220.885 18.4533 219.965 17.8 219.191 16.92C218.418 16.0133 218.031 14.8 218.031 13.28C218.031 12 218.378 10.84 219.071 9.8C219.791 8.73333 220.831 7.89333 222.191 7.28C223.578 6.66666 225.218 6.36 227.111 6.36C229.911 6.36 232.111 7.05333 233.711 8.44C235.338 9.82667 236.271 11.6667 236.511 13.96H230.191C230.085 13.1867 229.738 12.5733 229.151 12.12C228.591 11.6667 227.845 11.44 226.911 11.44C226.111 11.44 225.498 11.6 225.071 11.92C224.645 12.2133 224.431 12.6267 224.431 13.16C224.431 13.8 224.765 14.28 225.431 14.6C226.125 14.92 227.191 15.24 228.631 15.56C230.285 15.9867 231.631 16.4133 232.671 16.84C233.711 17.24 234.618 17.9067 235.391 18.84C236.191 19.7467 236.605 20.9733 236.631 22.52C236.631 23.8267 236.258 25 235.511 26.04C234.791 27.0533 233.738 27.8533 232.351 28.44C230.991 29.0267 229.405 29.32 227.591 29.32ZM250.976 29.32C248.789 29.32 246.816 28.8533 245.056 27.92C243.323 26.9867 241.949 25.6533 240.936 23.92C239.949 22.1867 239.456 20.16 239.456 17.84C239.456 15.5467 239.963 13.5333 240.976 11.8C241.989 10.04 243.376 8.69333 245.136 7.76C246.896 6.82667 248.869 6.36 251.056 6.36C253.243 6.36 255.216 6.82667 256.976 7.76C258.736 8.69333 260.123 10.04 261.136 11.8C262.149 13.5333 262.656 15.5467 262.656 17.84C262.656 20.1333 262.136 22.16 261.096 23.92C260.083 25.6533 258.683 26.9867 256.896 27.92C255.136 28.8533 253.163 29.32 250.976 29.32ZM250.976 23.4C252.283 23.4 253.389 22.92 254.296 21.96C255.229 21 255.696 19.6267 255.696 17.84C255.696 16.0533 255.243 14.68 254.336 13.72C253.456 12.76 252.363 12.28 251.056 12.28C249.723 12.28 248.616 12.76 247.736 13.72C246.856 14.6533 246.416 16.0267 246.416 17.84C246.416 19.6267 246.843 21 247.696 21.96C248.576 22.92 249.669 23.4 250.976 23.4ZM287.201 23.2V29H283.721C281.241 29 279.308 28.4 277.921 27.2C276.535 25.9733 275.841 23.9867 275.841 21.24V12.36H273.121V6.68H275.841V1.24H282.681V6.68H287.161V12.36H282.681V21.32C282.681 21.9867 282.841 22.4667 283.161 22.76C283.481 23.0533 284.015 23.2 284.761 23.2H287.201ZM312.051 17.48C312.051 18.12 312.011 18.7867 311.931 19.48H296.451C296.558 20.8667 296.998 21.9333 297.771 22.68C298.571 23.4 299.545 23.76 300.691 23.76C302.398 23.76 303.585 23.04 304.251 21.6H311.531C311.158 23.0667 310.478 24.3867 309.491 25.56C308.531 26.7333 307.318 27.6533 305.851 28.32C304.385 28.9867 302.745 29.32 300.931 29.32C298.745 29.32 296.798 28.8533 295.091 27.92C293.385 26.9867 292.051 25.6533 291.091 23.92C290.131 22.1867 289.651 20.16 289.651 17.84C289.651 15.52 290.118 13.4933 291.051 11.76C292.011 10.0267 293.345 8.69333 295.051 7.76C296.758 6.82667 298.718 6.36 300.931 6.36C303.091 6.36 305.011 6.81333 306.691 7.72C308.371 8.62667 309.678 9.92 310.611 11.6C311.571 13.28 312.051 15.24 312.051 17.48ZM305.051 15.68C305.051 14.5067 304.651 13.5733 303.851 12.88C303.051 12.1867 302.051 11.84 300.851 11.84C299.705 11.84 298.731 12.1733 297.931 12.84C297.158 13.5067 296.678 14.4533 296.491 15.68H305.051ZM324.74 29.32C322.793 29.32 321.06 28.9867 319.54 28.32C318.02 27.6533 316.82 26.7467 315.94 25.6C315.06 24.4267 314.566 23.12 314.46 21.68H321.22C321.3 22.4533 321.66 23.08 322.3 23.56C322.94 24.04 323.726 24.28 324.66 24.28C325.513 24.28 326.166 24.12 326.62 23.8C327.1 23.4533 327.34 23.0133 327.34 22.48C327.34 21.84 327.006 21.3733 326.34 21.08C325.673 20.76 324.593 20.4133 323.1 20.04C321.5 19.6667 320.166 19.28 319.1 18.88C318.033 18.4533 317.113 17.8 316.34 16.92C315.566 16.0133 315.18 14.8 315.18 13.28C315.18 12 315.526 10.84 316.22 9.8C316.94 8.73333 317.98 7.89333 319.34 7.28C320.726 6.66666 322.366 6.36 324.26 6.36C327.06 6.36 329.26 7.05333 330.86 8.44C332.486 9.82667 333.42 11.6667 333.66 13.96H327.34C327.233 13.1867 326.886 12.5733 326.3 12.12C325.74 11.6667 324.993 11.44 324.06 11.44C323.26 11.44 322.646 11.6 322.22 11.92C321.793 12.2133 321.58 12.6267 321.58 13.16C321.58 13.8 321.913 14.28 322.58 14.6C323.273 14.92 324.34 15.24 325.78 15.56C327.433 15.9867 328.78 16.4133 329.82 16.84C330.86 17.24 331.766 17.9067 332.54 18.84C333.34 19.7467 333.753 20.9733 333.78 22.52C333.78 23.8267 333.406 25 332.66 26.04C331.94 27.0533 330.886 27.8533 329.5 28.44C328.14 29.0267 326.553 29.32 324.74 29.32ZM350.404 23.2V29H346.924C344.444 29 342.511 28.4 341.124 27.2C339.738 25.9733 339.044 23.9867 339.044 21.24V12.36H336.324V6.68H339.044V1.24H345.884V6.68H350.364V12.36H345.884V21.32C345.884 21.9867 346.044 22.4667 346.364 22.76C346.684 23.0533 347.218 23.2 347.964 23.2H350.404ZM375.254 17.48C375.254 18.12 375.214 18.7867 375.134 19.48H359.654C359.761 20.8667 360.201 21.9333 360.974 22.68C361.774 23.4 362.748 23.76 363.894 23.76C365.601 23.76 366.788 23.04 367.454 21.6H374.734C374.361 23.0667 373.681 24.3867 372.694 25.56C371.734 26.7333 370.521 27.6533 369.054 28.32C367.588 28.9867 365.948 29.32 364.134 29.32C361.948 29.32 360.001 28.8533 358.294 27.92C356.588 26.9867 355.254 25.6533 354.294 23.92C353.334 22.1867 352.854 20.16 352.854 17.84C352.854 15.52 353.321 13.4933 354.254 11.76C355.214 10.0267 356.548 8.69333 358.254 7.76C359.961 6.82667 361.921 6.36 364.134 6.36C366.294 6.36 368.214 6.81333 369.894 7.72C371.574 8.62667 372.881 9.92 373.814 11.6C374.774 13.28 375.254 15.24 375.254 17.48ZM368.254 15.68C368.254 14.5067 367.854 13.5733 367.054 12.88C366.254 12.1867 365.254 11.84 364.054 11.84C362.908 11.84 361.934 12.1733 361.134 12.84C360.361 13.5067 359.881 14.4533 359.694 15.68H368.254ZM408.379 17.48C408.379 18.12 408.339 18.7867 408.259 19.48H392.779C392.886 20.8667 393.326 21.9333 394.099 22.68C394.899 23.4 395.873 23.76 397.019 23.76C398.726 23.76 399.913 23.04 400.579 21.6H407.859C407.486 23.0667 406.806 24.3867 405.819 25.56C404.859 26.7333 403.646 27.6533 402.179 28.32C400.713 28.9867 399.073 29.32 397.259 29.32C395.073 29.32 393.126 28.8533 391.419 27.92C389.713 26.9867 388.379 25.6533 387.419 23.92C386.459 22.1867 385.979 20.16 385.979 17.84C385.979 15.52 386.446 13.4933 387.379 11.76C388.339 10.0267 389.673 8.69333 391.379 7.76C393.086 6.82667 395.046 6.36 397.259 6.36C399.419 6.36 401.339 6.81333 403.019 7.72C404.699 8.62667 406.006 9.92 406.939 11.6C407.899 13.28 408.379 15.24 408.379 17.48ZM401.379 15.68C401.379 14.5067 400.979 13.5733 400.179 12.88C399.379 12.1867 398.379 11.84 397.179 11.84C396.033 11.84 395.059 12.1733 394.259 12.84C393.486 13.5067 393.006 14.4533 392.819 15.68H401.379ZM17.7567 77.8C17.7567 75.5067 18.1834 73.4933 19.0367 71.76C19.9167 70.0267 21.1034 68.6933 22.5967 67.76C24.0901 66.8267 25.7567 66.36 27.5967 66.36C29.0634 66.36 30.3967 66.6667 31.5967 67.28C32.8234 67.8933 33.7834 68.72 34.4767 69.76V59.4H41.3167V89H34.4767V85.8C33.8367 86.8667 32.9167 87.72 31.7167 88.36C30.5434 89 29.1701 89.32 27.5967 89.32C25.7567 89.32 24.0901 88.8533 22.5967 87.92C21.1034 86.96 19.9167 85.6133 19.0367 83.88C18.1834 82.12 17.7567 80.0933 17.7567 77.8ZM34.4767 77.84C34.4767 76.1333 33.9967 74.7867 33.0367 73.8C32.1034 72.8133 30.9567 72.32 29.5967 72.32C28.2367 72.32 27.0767 72.8133 26.1167 73.8C25.1834 74.76 24.7167 76.0933 24.7167 77.8C24.7167 79.5067 25.1834 80.8667 26.1167 81.88C27.0767 82.8667 28.2367 83.36 29.5967 83.36C30.9567 83.36 32.1034 82.8667 33.0367 81.88C33.9967 80.8933 34.4767 79.5467 34.4767 77.84ZM67.3052 77.48C67.3052 78.12 67.2652 78.7867 67.1852 79.48H51.7052C51.8118 80.8667 52.2518 81.9333 53.0252 82.68C53.8252 83.4 54.7985 83.76 55.9452 83.76C57.6518 83.76 58.8385 83.04 59.5052 81.6H66.7852C66.4118 83.0667 65.7318 84.3867 64.7452 85.56C63.7852 86.7333 62.5718 87.6533 61.1052 88.32C59.6385 88.9867 57.9985 89.32 56.1852 89.32C53.9985 89.32 52.0518 88.8533 50.3452 87.92C48.6385 86.9867 47.3052 85.6533 46.3452 83.92C45.3852 82.1867 44.9052 80.16 44.9052 77.84C44.9052 75.52 45.3718 73.4933 46.3052 71.76C47.2652 70.0267 48.5985 68.6933 50.3052 67.76C52.0118 66.8267 53.9718 66.36 56.1852 66.36C58.3452 66.36 60.2652 66.8133 61.9452 67.72C63.6252 68.6267 64.9318 69.92 65.8652 71.6C66.8252 73.28 67.3052 75.24 67.3052 77.48ZM60.3052 75.68C60.3052 74.5067 59.9052 73.5733 59.1052 72.88C58.3052 72.1867 57.3052 71.84 56.1052 71.84C54.9585 71.84 53.9852 72.1733 53.1852 72.84C52.4118 73.5067 51.9318 74.4533 51.7452 75.68H60.3052ZM79.9936 89.32C78.0469 89.32 76.3136 88.9867 74.7936 88.32C73.2736 87.6533 72.0736 86.7467 71.1936 85.6C70.3136 84.4267 69.8203 83.12 69.7136 81.68H76.4736C76.5536 82.4533 76.9136 83.08 77.5536 83.56C78.1936 84.04 78.9803 84.28 79.9136 84.28C80.7669 84.28 81.4203 84.12 81.8736 83.8C82.3536 83.4533 82.5936 83.0133 82.5936 82.48C82.5936 81.84 82.2603 81.3733 81.5936 81.08C80.9269 80.76 79.8469 80.4133 78.3536 80.04C76.7536 79.6667 75.4203 79.28 74.3536 78.88C73.2869 78.4533 72.3669 77.8 71.5936 76.92C70.8203 76.0133 70.4336 74.8 70.4336 73.28C70.4336 72 70.7803 70.84 71.4736 69.8C72.1936 68.7333 73.2336 67.8933 74.5936 67.28C75.9803 66.6667 77.6203 66.36 79.5136 66.36C82.3136 66.36 84.5136 67.0533 86.1136 68.44C87.7403 69.8267 88.6736 71.6667 88.9136 73.96H82.5936C82.4869 73.1867 82.1403 72.5733 81.5536 72.12C80.9936 71.6667 80.2469 71.44 79.3136 71.44C78.5136 71.44 77.9003 71.6 77.4736 71.92C77.0469 72.2133 76.8336 72.6267 76.8336 73.16C76.8336 73.8 77.1669 74.28 77.8336 74.6C78.5269 74.92 79.5936 75.24 81.0336 75.56C82.6869 75.9867 84.0336 76.4133 85.0736 76.84C86.1136 77.24 87.0203 77.9067 87.7936 78.84C88.5936 79.7467 89.0069 80.9733 89.0336 82.52C89.0336 83.8267 88.6603 85 87.9136 86.04C87.1936 87.0533 86.1403 87.8533 84.7536 88.44C83.3936 89.0267 81.8069 89.32 79.9936 89.32ZM91.8583 77.84C91.8583 75.52 92.3249 73.4933 93.2583 71.76C94.2183 70.0267 95.5383 68.6933 97.2183 67.76C98.9249 66.8267 100.872 66.36 103.058 66.36C105.858 66.36 108.192 67.0933 110.058 68.56C111.952 70.0267 113.192 72.0933 113.778 74.76H106.498C105.885 73.0533 104.698 72.2 102.938 72.2C101.685 72.2 100.685 72.6933 99.9383 73.68C99.1916 74.64 98.8183 76.0267 98.8183 77.84C98.8183 79.6533 99.1916 81.0533 99.9383 82.04C100.685 83 101.685 83.48 102.938 83.48C104.698 83.48 105.885 82.6267 106.498 80.92H113.778C113.192 83.5333 111.952 85.5867 110.058 87.08C108.165 88.5733 105.832 89.32 103.058 89.32C100.872 89.32 98.9249 88.8533 97.2183 87.92C95.5383 86.9867 94.2183 85.6533 93.2583 83.92C92.3249 82.1867 91.8583 80.16 91.8583 77.84ZM139.477 66.68V89H132.637V85.96C131.944 86.9467 130.997 87.7467 129.797 88.36C128.624 88.9467 127.317 89.24 125.877 89.24C124.17 89.24 122.664 88.8667 121.357 88.12C120.05 87.3467 119.037 86.24 118.317 84.8C117.597 83.36 117.237 81.6667 117.237 79.72V66.68H124.037V78.8C124.037 80.2933 124.424 81.4533 125.197 82.28C125.97 83.1067 127.01 83.52 128.317 83.52C129.65 83.52 130.704 83.1067 131.477 82.28C132.25 81.4533 132.637 80.2933 132.637 78.8V66.68H139.477ZM151.23 69.84C151.87 68.8 152.79 67.96 153.99 67.32C155.19 66.68 156.563 66.36 158.11 66.36C159.95 66.36 161.617 66.8267 163.11 67.76C164.603 68.6933 165.777 70.0267 166.63 71.76C167.51 73.4933 167.95 75.5067 167.95 77.8C167.95 80.0933 167.51 82.12 166.63 83.88C165.777 85.6133 164.603 86.96 163.11 87.92C161.617 88.8533 159.95 89.32 158.11 89.32C156.537 89.32 155.163 89.0133 153.99 88.4C152.817 87.76 151.897 86.92 151.23 85.88V89H144.39V59.4H151.23V69.84ZM160.99 77.8C160.99 76.0933 160.51 74.76 159.55 73.8C158.617 72.8133 157.457 72.32 156.07 72.32C154.71 72.32 153.55 72.8133 152.59 73.8C151.657 74.7867 151.19 76.1333 151.19 77.84C151.19 79.5467 151.657 80.8933 152.59 81.88C153.55 82.8667 154.71 83.36 156.07 83.36C157.43 83.36 158.59 82.8667 159.55 81.88C160.51 80.8667 160.99 79.5067 160.99 77.8ZM178.379 70.4C179.179 69.1733 180.179 68.2133 181.379 67.52C182.579 66.8 183.912 66.44 185.379 66.44V73.68H183.499C181.792 73.68 180.512 74.0533 179.659 74.8C178.805 75.52 178.379 76.8 178.379 78.64V89H171.539V66.68H178.379V70.4ZM187.288 77.8C187.288 75.5067 187.715 73.4933 188.568 71.76C189.448 70.0267 190.635 68.6933 192.128 67.76C193.621 66.8267 195.288 66.36 197.128 66.36C198.701 66.36 200.075 66.68 201.248 67.32C202.448 67.96 203.368 68.8 204.008 69.84V66.68H210.848V89H204.008V85.84C203.341 86.88 202.408 87.72 201.208 88.36C200.035 89 198.661 89.32 197.088 89.32C195.275 89.32 193.621 88.8533 192.128 87.92C190.635 86.96 189.448 85.6133 188.568 83.88C187.715 82.12 187.288 80.0933 187.288 77.8ZM204.008 77.84C204.008 76.1333 203.528 74.7867 202.568 73.8C201.635 72.8133 200.488 72.32 199.128 72.32C197.768 72.32 196.608 72.8133 195.648 73.8C194.715 74.76 194.248 76.0933 194.248 77.8C194.248 79.5067 194.715 80.8667 195.648 81.88C196.608 82.8667 197.768 83.36 199.128 83.36C200.488 83.36 201.635 82.8667 202.568 81.88C203.528 80.8933 204.008 79.5467 204.008 77.84ZM222.913 77.88C222.913 75.6667 223.366 73.6933 224.273 71.96C225.206 70.2267 226.446 68.88 227.993 67.92C229.566 66.9333 231.273 66.44 233.113 66.44C234.526 66.44 235.793 66.6933 236.913 67.2C238.033 67.68 238.94 68.36 239.633 69.24V66.68H246.473V99.64H239.633V86.2C238.86 87.1333 237.913 87.88 236.793 88.44C235.7 89 234.446 89.28 233.033 89.28C231.22 89.28 229.54 88.8 227.993 87.84C226.446 86.88 225.206 85.5333 224.273 83.8C223.366 82.0667 222.913 80.0933 222.913 77.88ZM239.633 77.84C239.633 76.64 239.393 75.64 238.913 74.84C238.46 74.0133 237.86 73.4 237.113 73C236.366 72.5733 235.58 72.36 234.753 72.36C233.953 72.36 233.18 72.5733 232.433 73C231.686 73.4 231.073 74.0133 230.593 74.84C230.113 75.6667 229.873 76.68 229.873 77.88C229.873 79.08 230.113 80.0933 230.593 80.92C231.073 81.72 231.686 82.3333 232.433 82.76C233.18 83.16 233.953 83.36 234.753 83.36C235.553 83.36 236.326 83.16 237.073 82.76C237.846 82.3333 238.46 81.7067 238.913 80.88C239.393 80.0533 239.633 79.04 239.633 77.84ZM273.461 66.68V89H266.621V85.96C265.928 86.9467 264.981 87.7467 263.781 88.36C262.608 88.9467 261.301 89.24 259.861 89.24C258.155 89.24 256.648 88.8667 255.341 88.12C254.035 87.3467 253.021 86.24 252.301 84.8C251.581 83.36 251.221 81.6667 251.221 79.72V66.68H258.021V78.8C258.021 80.2933 258.408 81.4533 259.181 82.28C259.955 83.1067 260.995 83.52 262.301 83.52C263.635 83.52 264.688 83.1067 265.461 82.28C266.235 81.4533 266.621 80.2933 266.621 78.8V66.68H273.461ZM277.015 77.8C277.015 75.5067 277.441 73.4933 278.295 71.76C279.175 70.0267 280.361 68.6933 281.855 67.76C283.348 66.8267 285.015 66.36 286.855 66.36C288.428 66.36 289.801 66.68 290.975 67.32C292.175 67.96 293.095 68.8 293.735 69.84V66.68H300.575V89H293.735V85.84C293.068 86.88 292.135 87.72 290.935 88.36C289.761 89 288.388 89.32 286.815 89.32C285.001 89.32 283.348 88.8533 281.855 87.92C280.361 86.96 279.175 85.6133 278.295 83.88C277.441 82.12 277.015 80.0933 277.015 77.8ZM293.735 77.84C293.735 76.1333 293.255 74.7867 292.295 73.8C291.361 72.8133 290.215 72.32 288.855 72.32C287.495 72.32 286.335 72.8133 285.375 73.8C284.441 74.76 283.975 76.0933 283.975 77.8C283.975 79.5067 284.441 80.8667 285.375 81.88C286.335 82.8667 287.495 83.36 288.855 83.36C290.215 83.36 291.361 82.8667 292.295 81.88C293.255 80.8933 293.735 79.5467 293.735 77.84ZM312.363 59.4V89H305.523V59.4H312.363ZM332.636 69.84C333.303 68.8 334.223 67.96 335.396 67.32C336.57 66.68 337.943 66.36 339.516 66.36C341.356 66.36 343.023 66.8267 344.516 67.76C346.01 68.6933 347.183 70.0267 348.036 71.76C348.916 73.4933 349.356 75.5067 349.356 77.8C349.356 80.0933 348.916 82.12 348.036 83.88C347.183 85.6133 346.01 86.96 344.516 87.92C343.023 88.8533 341.356 89.32 339.516 89.32C337.97 89.32 336.596 89 335.396 88.36C334.223 87.72 333.303 86.8933 332.636 85.88V99.64H325.796V66.68H332.636V69.84ZM342.396 77.8C342.396 76.0933 341.916 74.76 340.956 73.8C340.023 72.8133 338.863 72.32 337.476 72.32C336.116 72.32 334.956 72.8133 333.996 73.8C333.063 74.7867 332.596 76.1333 332.596 77.84C332.596 79.5467 333.063 80.8933 333.996 81.88C334.956 82.8667 336.116 83.36 337.476 83.36C338.836 83.36 339.996 82.8667 340.956 81.88C341.916 80.8667 342.396 79.5067 342.396 77.8ZM373.985 77.48C373.985 78.12 373.945 78.7867 373.865 79.48H358.385C358.492 80.8667 358.932 81.9333 359.705 82.68C360.505 83.4 361.478 83.76 362.625 83.76C364.332 83.76 365.518 83.04 366.185 81.6H373.465C373.092 83.0667 372.412 84.3867 371.425 85.56C370.465 86.7333 369.252 87.6533 367.785 88.32C366.318 88.9867 364.678 89.32 362.865 89.32C360.678 89.32 358.732 88.8533 357.025 87.92C355.318 86.9867 353.985 85.6533 353.025 83.92C352.065 82.1867 351.585 80.16 351.585 77.84C351.585 75.52 352.052 73.4933 352.985 71.76C353.945 70.0267 355.278 68.6933 356.985 67.76C358.692 66.8267 360.652 66.36 362.865 66.36C365.025 66.36 366.945 66.8133 368.625 67.72C370.305 68.6267 371.612 69.92 372.545 71.6C373.505 73.28 373.985 75.24 373.985 77.48ZM366.985 75.68C366.985 74.5067 366.585 73.5733 365.785 72.88C364.985 72.1867 363.985 71.84 362.785 71.84C361.638 71.84 360.665 72.1733 359.865 72.84C359.092 73.5067 358.612 74.4533 358.425 75.68H366.985ZM390.033 83.2V89H386.553C384.073 89 382.14 88.4 380.753 87.2C379.367 85.9733 378.673 83.9867 378.673 81.24V72.36H375.953V66.68H378.673V61.24H385.513V66.68H389.993V72.36H385.513V81.32C385.513 81.9867 385.673 82.4667 385.993 82.76C386.313 83.0533 386.847 83.2 387.593 83.2H390.033ZM6.29188 137.84C6.29188 135.52 6.75854 133.493 7.69188 131.76C8.65188 130.027 9.97188 128.693 11.6519 127.76C13.3585 126.827 15.3052 126.36 17.4919 126.36C20.2919 126.36 22.6252 127.093 24.4919 128.56C26.3852 130.027 27.6252 132.093 28.2119 134.76H20.9319C20.3185 133.053 19.1319 132.2 17.3719 132.2C16.1185 132.2 15.1185 132.693 14.3719 133.68C13.6252 134.64 13.2519 136.027 13.2519 137.84C13.2519 139.653 13.6252 141.053 14.3719 142.04C15.1185 143 16.1185 143.48 17.3719 143.48C19.1319 143.48 20.3185 142.627 20.9319 140.92H28.2119C27.6252 143.533 26.3852 145.587 24.4919 147.08C22.5985 148.573 20.2652 149.32 17.4919 149.32C15.3052 149.32 13.3585 148.853 11.6519 147.92C9.97188 146.987 8.65188 145.653 7.69188 143.92C6.75854 142.187 6.29188 140.16 6.29188 137.84ZM42.0306 149.32C39.844 149.32 37.8706 148.853 36.1106 147.92C34.3773 146.987 33.004 145.653 31.9906 143.92C31.004 142.187 30.5106 140.16 30.5106 137.84C30.5106 135.547 31.0173 133.533 32.0306 131.8C33.044 130.04 34.4306 128.693 36.1906 127.76C37.9506 126.827 39.924 126.36 42.1106 126.36C44.2973 126.36 46.2706 126.827 48.0306 127.76C49.7906 128.693 51.1773 130.04 52.1906 131.8C53.204 133.533 53.7106 135.547 53.7106 137.84C53.7106 140.133 53.1906 142.16 52.1506 143.92C51.1373 145.653 49.7373 146.987 47.9506 147.92C46.1906 148.853 44.2173 149.32 42.0306 149.32ZM42.0306 143.4C43.3373 143.4 44.444 142.92 45.3506 141.96C46.284 141 46.7506 139.627 46.7506 137.84C46.7506 136.053 46.2973 134.68 45.3906 133.72C44.5106 132.76 43.4173 132.28 42.1106 132.28C40.7773 132.28 39.6706 132.76 38.7906 133.72C37.9106 134.653 37.4706 136.027 37.4706 137.84C37.4706 139.627 37.8973 141 38.7506 141.96C39.6306 142.92 40.724 143.4 42.0306 143.4ZM85.8194 126.44C88.5927 126.44 90.7927 127.28 92.4194 128.96C94.0727 130.64 94.8994 132.973 94.8994 135.96V149H88.0994V136.88C88.0994 135.44 87.7127 134.333 86.9394 133.56C86.1927 132.76 85.1527 132.36 83.8194 132.36C82.486 132.36 81.4327 132.76 80.6594 133.56C79.9127 134.333 79.5394 135.44 79.5394 136.88V149H72.7394V136.88C72.7394 135.44 72.3527 134.333 71.5794 133.56C70.8327 132.76 69.7927 132.36 68.4594 132.36C67.126 132.36 66.0727 132.76 65.2994 133.56C64.5527 134.333 64.1794 135.44 64.1794 136.88V149H57.3394V126.68H64.1794V129.48C64.8727 128.547 65.7794 127.813 66.8994 127.28C68.0194 126.72 69.286 126.44 70.6994 126.44C72.3794 126.44 73.8727 126.8 75.1794 127.52C76.5127 128.24 77.5527 129.267 78.2994 130.6C79.0727 129.373 80.126 128.373 81.4594 127.6C82.7927 126.827 84.246 126.44 85.8194 126.44ZM106.523 129.84C107.163 128.8 108.083 127.96 109.283 127.32C110.483 126.68 111.856 126.36 113.403 126.36C115.243 126.36 116.91 126.827 118.403 127.76C119.896 128.693 121.07 130.027 121.923 131.76C122.803 133.493 123.243 135.507 123.243 137.8C123.243 140.093 122.803 142.12 121.923 143.88C121.07 145.613 119.896 146.96 118.403 147.92C116.91 148.853 115.243 149.32 113.403 149.32C111.83 149.32 110.456 149.013 109.283 148.4C108.11 147.76 107.19 146.92 106.523 145.88V149H99.6831V119.4H106.523V129.84ZM116.283 137.8C116.283 136.093 115.803 134.76 114.843 133.8C113.91 132.813 112.75 132.32 111.363 132.32C110.003 132.32 108.843 132.813 107.883 133.8C106.95 134.787 106.483 136.133 106.483 137.84C106.483 139.547 106.95 140.893 107.883 141.88C108.843 142.867 110.003 143.36 111.363 143.36C112.723 143.36 113.883 142.867 114.843 141.88C115.803 140.867 116.283 139.507 116.283 137.8ZM130.272 124.36C129.072 124.36 128.085 124.013 127.312 123.32C126.565 122.6 126.192 121.72 126.192 120.68C126.192 119.613 126.565 118.733 127.312 118.04C128.085 117.32 129.072 116.96 130.272 116.96C131.445 116.96 132.405 117.32 133.152 118.04C133.925 118.733 134.312 119.613 134.312 120.68C134.312 121.72 133.925 122.6 133.152 123.32C132.405 124.013 131.445 124.36 130.272 124.36ZM133.672 126.68V149H126.832V126.68H133.672ZM152.228 126.44C154.842 126.44 156.922 127.293 158.468 129C160.042 130.68 160.828 133 160.828 135.96V149H154.028V136.88C154.028 135.387 153.642 134.227 152.868 133.4C152.095 132.573 151.055 132.16 149.748 132.16C148.442 132.16 147.402 132.573 146.628 133.4C145.855 134.227 145.468 135.387 145.468 136.88V149H138.628V126.68H145.468V129.64C146.162 128.653 147.095 127.88 148.268 127.32C149.442 126.733 150.762 126.44 152.228 126.44ZM164.222 137.8C164.222 135.507 164.648 133.493 165.502 131.76C166.382 130.027 167.568 128.693 169.062 127.76C170.555 126.827 172.222 126.36 174.062 126.36C175.635 126.36 177.008 126.68 178.182 127.32C179.382 127.96 180.302 128.8 180.942 129.84V126.68H187.782V149H180.942V145.84C180.275 146.88 179.342 147.72 178.142 148.36C176.968 149 175.595 149.32 174.022 149.32C172.208 149.32 170.555 148.853 169.062 147.92C167.568 146.96 166.382 145.613 165.502 143.88C164.648 142.12 164.222 140.093 164.222 137.8ZM180.942 137.84C180.942 136.133 180.462 134.787 179.502 133.8C178.568 132.813 177.422 132.32 176.062 132.32C174.702 132.32 173.542 132.813 172.582 133.8C171.648 134.76 171.182 136.093 171.182 137.8C171.182 139.507 171.648 140.867 172.582 141.88C173.542 142.867 174.702 143.36 176.062 143.36C177.422 143.36 178.568 142.867 179.502 141.88C180.462 140.893 180.942 139.547 180.942 137.84ZM229.687 126.44C232.46 126.44 234.66 127.28 236.287 128.96C237.94 130.64 238.767 132.973 238.767 135.96V149H231.967V136.88C231.967 135.44 231.58 134.333 230.807 133.56C230.06 132.76 229.02 132.36 227.687 132.36C226.353 132.36 225.3 132.76 224.527 133.56C223.78 134.333 223.407 135.44 223.407 136.88V149H216.607V136.88C216.607 135.44 216.22 134.333 215.447 133.56C214.7 132.76 213.66 132.36 212.327 132.36C210.993 132.36 209.94 132.76 209.167 133.56C208.42 134.333 208.047 135.44 208.047 136.88V149H201.207V126.68H208.047V129.48C208.74 128.547 209.647 127.813 210.767 127.28C211.887 126.72 213.153 126.44 214.567 126.44C216.247 126.44 217.74 126.8 219.047 127.52C220.38 128.24 221.42 129.267 222.167 130.6C222.94 129.373 223.993 128.373 225.327 127.6C226.66 126.827 228.113 126.44 229.687 126.44ZM242.19 137.8C242.19 135.507 242.617 133.493 243.47 131.76C244.35 130.027 245.537 128.693 247.03 127.76C248.524 126.827 250.19 126.36 252.03 126.36C253.604 126.36 254.977 126.68 256.15 127.32C257.35 127.96 258.27 128.8 258.91 129.84V126.68H265.75V149H258.91V145.84C258.244 146.88 257.31 147.72 256.11 148.36C254.937 149 253.564 149.32 251.99 149.32C250.177 149.32 248.524 148.853 247.03 147.92C245.537 146.96 244.35 145.613 243.47 143.88C242.617 142.12 242.19 140.093 242.19 137.8ZM258.91 137.84C258.91 136.133 258.43 134.787 257.47 133.8C256.537 132.813 255.39 132.32 254.03 132.32C252.67 132.32 251.51 132.813 250.55 133.8C249.617 134.76 249.15 136.093 249.15 137.8C249.15 139.507 249.617 140.867 250.55 141.88C251.51 142.867 252.67 143.36 254.03 143.36C255.39 143.36 256.537 142.867 257.47 141.88C258.43 140.893 258.91 139.547 258.91 137.84ZM274.139 124.36C272.939 124.36 271.952 124.013 271.179 123.32C270.432 122.6 270.059 121.72 270.059 120.68C270.059 119.613 270.432 118.733 271.179 118.04C271.952 117.32 272.939 116.96 274.139 116.96C275.312 116.96 276.272 117.32 277.019 118.04C277.792 118.733 278.179 119.613 278.179 120.68C278.179 121.72 277.792 122.6 277.019 123.32C276.272 124.013 275.312 124.36 274.139 124.36ZM277.539 126.68V149H270.699V126.68H277.539ZM291.576 149.32C289.629 149.32 287.896 148.987 286.376 148.32C284.856 147.653 283.656 146.747 282.776 145.6C281.896 144.427 281.402 143.12 281.296 141.68H288.056C288.136 142.453 288.496 143.08 289.136 143.56C289.776 144.04 290.562 144.28 291.496 144.28C292.349 144.28 293.002 144.12 293.456 143.8C293.936 143.453 294.176 143.013 294.176 142.48C294.176 141.84 293.842 141.373 293.176 141.08C292.509 140.76 291.429 140.413 289.936 140.04C288.336 139.667 287.002 139.28 285.936 138.88C284.869 138.453 283.949 137.8 283.176 136.92C282.402 136.013 282.016 134.8 282.016 133.28C282.016 132 282.362 130.84 283.056 129.8C283.776 128.733 284.816 127.893 286.176 127.28C287.562 126.667 289.202 126.36 291.096 126.36C293.896 126.36 296.096 127.053 297.696 128.44C299.322 129.827 300.256 131.667 300.496 133.96H294.176C294.069 133.187 293.722 132.573 293.136 132.12C292.576 131.667 291.829 131.44 290.896 131.44C290.096 131.44 289.482 131.6 289.056 131.92C288.629 132.213 288.416 132.627 288.416 133.16C288.416 133.8 288.749 134.28 289.416 134.6C290.109 134.92 291.176 135.24 292.616 135.56C294.269 135.987 295.616 136.413 296.656 136.84C297.696 137.24 298.602 137.907 299.376 138.84C300.176 139.747 300.589 140.973 300.616 142.52C300.616 143.827 300.242 145 299.496 146.04C298.776 147.053 297.722 147.853 296.336 148.44C294.976 149.027 293.389 149.32 291.576 149.32ZM311.917 137.84C311.917 135.52 312.384 133.493 313.317 131.76C314.277 130.027 315.597 128.693 317.277 127.76C318.984 126.827 320.93 126.36 323.117 126.36C325.917 126.36 328.25 127.093 330.117 128.56C332.01 130.027 333.25 132.093 333.837 134.76H326.557C325.944 133.053 324.757 132.2 322.997 132.2C321.744 132.2 320.744 132.693 319.997 133.68C319.25 134.64 318.877 136.027 318.877 137.84C318.877 139.653 319.25 141.053 319.997 142.04C320.744 143 321.744 143.48 322.997 143.48C324.757 143.48 325.944 142.627 326.557 140.92H333.837C333.25 143.533 332.01 145.587 330.117 147.08C328.224 148.573 325.89 149.32 323.117 149.32C320.93 149.32 318.984 148.853 317.277 147.92C315.597 146.987 314.277 145.653 313.317 143.92C312.384 142.187 311.917 140.16 311.917 137.84ZM347.656 149.32C345.469 149.32 343.496 148.853 341.736 147.92C340.002 146.987 338.629 145.653 337.616 143.92C336.629 142.187 336.136 140.16 336.136 137.84C336.136 135.547 336.642 133.533 337.656 131.8C338.669 130.04 340.056 128.693 341.816 127.76C343.576 126.827 345.549 126.36 347.736 126.36C349.922 126.36 351.896 126.827 353.656 127.76C355.416 128.693 356.802 130.04 357.816 131.8C358.829 133.533 359.336 135.547 359.336 137.84C359.336 140.133 358.816 142.16 357.776 143.92C356.762 145.653 355.362 146.987 353.576 147.92C351.816 148.853 349.842 149.32 347.656 149.32ZM347.656 143.4C348.962 143.4 350.069 142.92 350.976 141.96C351.909 141 352.376 139.627 352.376 137.84C352.376 136.053 351.922 134.68 351.016 133.72C350.136 132.76 349.042 132.28 347.736 132.28C346.402 132.28 345.296 132.76 344.416 133.72C343.536 134.653 343.096 136.027 343.096 137.84C343.096 139.627 343.522 141 344.376 141.96C345.256 142.92 346.349 143.4 347.656 143.4ZM391.444 126.44C394.218 126.44 396.418 127.28 398.044 128.96C399.698 130.64 400.524 132.973 400.524 135.96V149H393.724V136.88C393.724 135.44 393.338 134.333 392.564 133.56C391.818 132.76 390.778 132.36 389.444 132.36C388.111 132.36 387.058 132.76 386.284 133.56C385.538 134.333 385.164 135.44 385.164 136.88V149H378.364V136.88C378.364 135.44 377.978 134.333 377.204 133.56C376.458 132.76 375.418 132.36 374.084 132.36C372.751 132.36 371.698 132.76 370.924 133.56C370.178 134.333 369.804 135.44 369.804 136.88V149H362.964V126.68H369.804V129.48C370.498 128.547 371.404 127.813 372.524 127.28C373.644 126.72 374.911 126.44 376.324 126.44C378.004 126.44 379.498 126.8 380.804 127.52C382.138 128.24 383.178 129.267 383.924 130.6C384.698 129.373 385.751 128.373 387.084 127.6C388.418 126.827 389.871 126.44 391.444 126.44ZM161.149 202.6L165.989 186.68H173.269L165.349 209H156.909L148.989 186.68H156.309L161.149 202.6ZM186.308 209.32C184.121 209.32 182.148 208.853 180.388 207.92C178.655 206.987 177.281 205.653 176.268 203.92C175.281 202.187 174.788 200.16 174.788 197.84C174.788 195.547 175.295 193.533 176.308 191.8C177.321 190.04 178.708 188.693 180.468 187.76C182.228 186.827 184.201 186.36 186.388 186.36C188.575 186.36 190.548 186.827 192.308 187.76C194.068 188.693 195.455 190.04 196.468 191.8C197.481 193.533 197.988 195.547 197.988 197.84C197.988 200.133 197.468 202.16 196.428 203.92C195.415 205.653 194.015 206.987 192.228 207.92C190.468 208.853 188.495 209.32 186.308 209.32ZM186.308 203.4C187.615 203.4 188.721 202.92 189.628 201.96C190.561 201 191.028 199.627 191.028 197.84C191.028 196.053 190.575 194.68 189.668 193.72C188.788 192.76 187.695 192.28 186.388 192.28C185.055 192.28 183.948 192.76 183.068 193.72C182.188 194.653 181.748 196.027 181.748 197.84C181.748 199.627 182.175 201 183.028 201.96C183.908 202.92 185.001 203.4 186.308 203.4ZM200.257 197.84C200.257 195.52 200.723 193.493 201.657 191.76C202.617 190.027 203.937 188.693 205.617 187.76C207.323 186.827 209.27 186.36 211.457 186.36C214.257 186.36 216.59 187.093 218.457 188.56C220.35 190.027 221.59 192.093 222.177 194.76H214.897C214.283 193.053 213.097 192.2 211.337 192.2C210.083 192.2 209.083 192.693 208.337 193.68C207.59 194.64 207.217 196.027 207.217 197.84C207.217 199.653 207.59 201.053 208.337 202.04C209.083 203 210.083 203.48 211.337 203.48C213.097 203.48 214.283 202.627 214.897 200.92H222.177C221.59 203.533 220.35 205.587 218.457 207.08C216.563 208.573 214.23 209.32 211.457 209.32C209.27 209.32 207.323 208.853 205.617 207.92C203.937 206.987 202.617 205.653 201.657 203.92C200.723 202.187 200.257 200.16 200.257 197.84ZM246.875 197.48C246.875 198.12 246.835 198.787 246.755 199.48H231.275C231.382 200.867 231.822 201.933 232.595 202.68C233.395 203.4 234.369 203.76 235.515 203.76C237.222 203.76 238.409 203.04 239.075 201.6H246.355C245.982 203.067 245.302 204.387 244.315 205.56C243.355 206.733 242.142 207.653 240.675 208.32C239.209 208.987 237.569 209.32 235.755 209.32C233.569 209.32 231.622 208.853 229.915 207.92C228.209 206.987 226.875 205.653 225.915 203.92C224.955 202.187 224.475 200.16 224.475 197.84C224.475 195.52 224.942 193.493 225.875 191.76C226.835 190.027 228.169 188.693 229.875 187.76C231.582 186.827 233.542 186.36 235.755 186.36C237.915 186.36 239.835 186.813 241.515 187.72C243.195 188.627 244.502 189.92 245.435 191.6C246.395 193.28 246.875 195.24 246.875 197.48ZM239.875 195.68C239.875 194.507 239.475 193.573 238.675 192.88C237.875 192.187 236.875 191.84 235.675 191.84C234.529 191.84 233.555 192.173 232.755 192.84C231.982 193.507 231.502 194.453 231.315 195.68H239.875ZM235.675 181.72L229.475 185V180.28L235.675 177.12L241.875 180.28V185L235.675 181.72ZM253.684 209.32C252.484 209.32 251.497 208.973 250.724 208.28C249.977 207.56 249.604 206.68 249.604 205.64C249.604 204.573 249.977 203.68 250.724 202.96C251.497 202.24 252.484 201.88 253.684 201.88C254.857 201.88 255.817 202.24 256.564 202.96C257.337 203.68 257.724 204.573 257.724 205.64C257.724 206.68 257.337 207.56 256.564 208.28C255.817 208.973 254.857 209.32 253.684 209.32ZM253.684 193.04C252.484 193.04 251.497 192.693 250.724 192C249.977 191.28 249.604 190.4 249.604 189.36C249.604 188.293 249.977 187.4 250.724 186.68C251.497 185.96 252.484 185.6 253.684 185.6C254.857 185.6 255.817 185.96 256.564 186.68C257.337 187.4 257.724 188.293 257.724 189.36C257.724 190.4 257.337 191.28 256.564 192C255.817 192.693 254.857 193.04 253.684 193.04Z" fill="#FFEBEB"/>
</svg>
