<svg width="586" height="520" viewBox="0 0 586 520" fill="none" xmlns="http://www.w3.org/2000/svg">
<path d="M155.393 456.879C-4.72944 455.519 -58.0529 274.058 -34.4253 167.266C-10.7976 60.4747 112.933 -58.4027 295.897 -49.234C478.861 -40.0653 637.684 232.08 485.715 240.378C333.747 248.676 295.119 458.065 155.393 456.879Z" fill="#9DDADD"/>
<path d="M145.223 163.072V208H134.279V181.056L124.231 208H115.399L105.287 180.992V208H94.343V163.072H107.271L119.879 194.176L132.359 163.072H145.223ZM186.757 189.568C186.757 190.592 186.693 191.659 186.565 192.768H161.797C161.968 194.987 162.672 196.693 163.909 197.888C165.189 199.04 166.746 199.616 168.581 199.616C171.312 199.616 173.21 198.464 174.277 196.16H185.925C185.328 198.507 184.24 200.619 182.661 202.496C181.125 204.373 179.184 205.845 176.837 206.912C174.49 207.979 171.866 208.512 168.965 208.512C165.466 208.512 162.352 207.765 159.621 206.272C156.89 204.779 154.757 202.645 153.221 199.872C151.685 197.099 150.917 193.856 150.917 190.144C150.917 186.432 151.664 183.189 153.157 180.416C154.693 177.643 156.826 175.509 159.557 174.016C162.288 172.523 165.424 171.776 168.965 171.776C172.421 171.776 175.493 172.501 178.181 173.952C180.869 175.403 182.96 177.472 184.453 180.16C185.989 182.848 186.757 185.984 186.757 189.568ZM175.557 186.688C175.557 184.811 174.917 183.317 173.637 182.208C172.357 181.099 170.757 180.544 168.837 180.544C167.002 180.544 165.445 181.077 164.165 182.144C162.928 183.211 162.16 184.725 161.861 186.688H175.557ZM227.795 172.288V208H216.851V203.136C215.741 204.715 214.227 205.995 212.307 206.976C210.429 207.915 208.339 208.384 206.035 208.384C203.304 208.384 200.893 207.787 198.803 206.592C196.712 205.355 195.091 203.584 193.939 201.28C192.787 198.976 192.211 196.267 192.211 193.152V172.288H203.091V191.68C203.091 194.069 203.709 195.925 204.947 197.248C206.184 198.571 207.848 199.232 209.939 199.232C212.072 199.232 213.757 198.571 214.995 197.248C216.232 195.925 216.851 194.069 216.851 191.68V172.288H227.795ZM283.458 177.536C283.458 180.139 282.861 182.528 281.666 184.704C280.471 186.837 278.637 188.565 276.162 189.888C273.687 191.211 270.615 191.872 266.946 191.872H260.162V208H249.218V163.072H266.946C270.53 163.072 273.559 163.691 276.034 164.928C278.509 166.165 280.365 167.872 281.602 170.048C282.839 172.224 283.458 174.72 283.458 177.536ZM266.114 183.168C268.205 183.168 269.762 182.677 270.786 181.696C271.81 180.715 272.322 179.328 272.322 177.536C272.322 175.744 271.81 174.357 270.786 173.376C269.762 172.395 268.205 171.904 266.114 171.904H260.162V183.168H266.114ZM322.819 189.568C322.819 190.592 322.756 191.659 322.628 192.768H297.86C298.03 194.987 298.734 196.693 299.972 197.888C301.252 199.04 302.809 199.616 304.644 199.616C307.374 199.616 309.273 198.464 310.34 196.16H321.988C321.39 198.507 320.302 200.619 318.724 202.496C317.188 204.373 315.246 205.845 312.9 206.912C310.553 207.979 307.929 208.512 305.028 208.512C301.529 208.512 298.414 207.765 295.684 206.272C292.953 204.779 290.82 202.645 289.284 199.872C287.748 197.099 286.98 193.856 286.98 190.144C286.98 186.432 287.726 183.189 289.22 180.416C290.756 177.643 292.889 175.509 295.62 174.016C298.35 172.523 301.486 171.776 305.028 171.776C308.484 171.776 311.556 172.501 314.244 173.952C316.932 175.403 319.022 177.472 320.516 180.16C322.052 182.848 322.819 185.984 322.819 189.568ZM311.62 186.688C311.62 184.811 310.98 183.317 309.7 182.208C308.42 181.099 306.82 180.544 304.9 180.544C303.065 180.544 301.508 181.077 300.228 182.144C298.99 183.211 298.222 184.725 297.924 186.688H311.62ZM348.497 198.72V208H342.929C338.961 208 335.868 207.04 333.649 205.12C331.43 203.157 330.321 199.979 330.321 195.584V181.376H325.969V172.288H330.321V163.584H341.265V172.288H348.433V181.376H341.265V195.712C341.265 196.779 341.521 197.547 342.033 198.016C342.545 198.485 343.398 198.72 344.593 198.72H348.497Z" fill="#FFEBEB"/>
</svg>
