<svg width="726" height="685" viewBox="0 0 726 685" fill="none" xmlns="http://www.w3.org/2000/svg">
<path d="M295.393 621.879C135.271 620.519 81.9471 439.058 105.575 332.266C129.202 225.475 252.933 106.597 435.897 115.766C618.861 124.935 777.684 397.08 625.715 405.378C473.747 413.676 435.119 623.065 295.393 621.879Z" fill="#9DDADD"/>
<path d="M287.223 319.072V364H276.279V337.056L266.231 364H257.399L247.287 336.992V364H236.343V319.072H249.271L261.879 350.176L274.359 319.072H287.223ZM328.757 345.568C328.757 346.592 328.693 347.659 328.565 348.768H303.797C303.968 350.987 304.672 352.693 305.909 353.888C307.189 355.04 308.746 355.616 310.581 355.616C313.312 355.616 315.21 354.464 316.277 352.16H327.925C327.328 354.507 326.24 356.619 324.661 358.496C323.125 360.373 321.184 361.845 318.837 362.912C316.49 363.979 313.866 364.512 310.965 364.512C307.466 364.512 304.352 363.765 301.621 362.272C298.89 360.779 296.757 358.645 295.221 355.872C293.685 353.099 292.917 349.856 292.917 346.144C292.917 342.432 293.664 339.189 295.157 336.416C296.693 333.643 298.826 331.509 301.557 330.016C304.288 328.523 307.424 327.776 310.965 327.776C314.421 327.776 317.493 328.501 320.181 329.952C322.869 331.403 324.96 333.472 326.453 336.16C327.989 338.848 328.757 341.984 328.757 345.568ZM317.557 342.688C317.557 340.811 316.917 339.317 315.637 338.208C314.357 337.099 312.757 336.544 310.837 336.544C309.002 336.544 307.445 337.077 306.165 338.144C304.928 339.211 304.16 340.725 303.861 342.688H317.557ZM369.795 328.288V364H358.851V359.136C357.741 360.715 356.227 361.995 354.307 362.976C352.429 363.915 350.339 364.384 348.035 364.384C345.304 364.384 342.893 363.787 340.803 362.592C338.712 361.355 337.091 359.584 335.939 357.28C334.787 354.976 334.211 352.267 334.211 349.152V328.288H345.091V347.68C345.091 350.069 345.709 351.925 346.947 353.248C348.184 354.571 349.848 355.232 351.939 355.232C354.072 355.232 355.757 354.571 356.995 353.248C358.232 351.925 358.851 350.069 358.851 347.68V328.288H369.795ZM425.458 333.536C425.458 336.139 424.861 338.528 423.666 340.704C422.471 342.837 420.637 344.565 418.162 345.888C415.687 347.211 412.615 347.872 408.946 347.872H402.162V364H391.218V319.072H408.946C412.53 319.072 415.559 319.691 418.034 320.928C420.509 322.165 422.365 323.872 423.602 326.048C424.839 328.224 425.458 330.72 425.458 333.536ZM408.114 339.168C410.205 339.168 411.762 338.677 412.786 337.696C413.81 336.715 414.322 335.328 414.322 333.536C414.322 331.744 413.81 330.357 412.786 329.376C411.762 328.395 410.205 327.904 408.114 327.904H402.162V339.168H408.114ZM464.819 345.568C464.819 346.592 464.756 347.659 464.628 348.768H439.86C440.03 350.987 440.734 352.693 441.972 353.888C443.252 355.04 444.809 355.616 446.644 355.616C449.374 355.616 451.273 354.464 452.34 352.16H463.988C463.39 354.507 462.302 356.619 460.724 358.496C459.188 360.373 457.246 361.845 454.9 362.912C452.553 363.979 449.929 364.512 447.028 364.512C443.529 364.512 440.414 363.765 437.684 362.272C434.953 360.779 432.82 358.645 431.284 355.872C429.748 353.099 428.98 349.856 428.98 346.144C428.98 342.432 429.726 339.189 431.22 336.416C432.756 333.643 434.889 331.509 437.62 330.016C440.35 328.523 443.486 327.776 447.028 327.776C450.484 327.776 453.556 328.501 456.244 329.952C458.932 331.403 461.022 333.472 462.516 336.16C464.052 338.848 464.819 341.984 464.819 345.568ZM453.62 342.688C453.62 340.811 452.98 339.317 451.7 338.208C450.42 337.099 448.82 336.544 446.9 336.544C445.065 336.544 443.508 337.077 442.228 338.144C440.99 339.211 440.222 340.725 439.924 342.688H453.62ZM490.497 354.72V364H484.929C480.961 364 477.868 363.04 475.649 361.12C473.43 359.157 472.321 355.979 472.321 351.584V337.376H467.969V328.288H472.321V319.584H483.265V328.288H490.433V337.376H483.265V351.712C483.265 352.779 483.521 353.547 484.033 354.016C484.545 354.485 485.398 354.72 486.593 354.72H490.497Z" fill="#FFEBEB"/>
</svg>
