<svg width="586" height="520" viewBox="0 0 586 520" fill="none" xmlns="http://www.w3.org/2000/svg">
<path d="M155.393 456.879C-4.72944 455.519 -58.0529 274.058 -34.4253 167.266C-10.7976 60.4747 112.933 -58.4027 295.897 -49.234C478.861 -40.0653 637.684 232.08 485.715 240.378C333.747 248.676 295.119 458.065 155.393 456.879Z" fill="#9DDADD"/>
<path d="M125.223 222.072V267H114.279V240.056L104.231 267H95.399L85.287 239.992V267H74.343V222.072H87.271L99.879 253.176L112.359 222.072H125.223ZM166.757 248.568C166.757 249.592 166.693 250.659 166.565 251.768H141.797C141.968 253.987 142.672 255.693 143.909 256.888C145.189 258.04 146.746 258.616 148.581 258.616C151.312 258.616 153.21 257.464 154.277 255.16H165.925C165.328 257.507 164.24 259.619 162.661 261.496C161.125 263.373 159.184 264.845 156.837 265.912C154.49 266.979 151.866 267.512 148.965 267.512C145.466 267.512 142.352 266.765 139.621 265.272C136.89 263.779 134.757 261.645 133.221 258.872C131.685 256.099 130.917 252.856 130.917 249.144C130.917 245.432 131.664 242.189 133.157 239.416C134.693 236.643 136.826 234.509 139.557 233.016C142.288 231.523 145.424 230.776 148.965 230.776C152.421 230.776 155.493 231.501 158.181 232.952C160.869 234.403 162.96 236.472 164.453 239.16C165.989 241.848 166.757 244.984 166.757 248.568ZM155.557 245.688C155.557 243.811 154.917 242.317 153.637 241.208C152.357 240.099 150.757 239.544 148.837 239.544C147.002 239.544 145.445 240.077 144.165 241.144C142.928 242.211 142.16 243.725 141.861 245.688H155.557ZM207.795 231.288V267H196.851V262.136C195.741 263.715 194.227 264.995 192.307 265.976C190.429 266.915 188.339 267.384 186.035 267.384C183.304 267.384 180.893 266.787 178.803 265.592C176.712 264.355 175.091 262.584 173.939 260.28C172.787 257.976 172.211 255.267 172.211 252.152V231.288H183.091V250.68C183.091 253.069 183.709 254.925 184.947 256.248C186.184 257.571 187.848 258.232 189.939 258.232C192.072 258.232 193.757 257.571 194.995 256.248C196.232 254.925 196.851 253.069 196.851 250.68V231.288H207.795ZM263.458 236.536C263.458 239.139 262.861 241.528 261.666 243.704C260.471 245.837 258.637 247.565 256.162 248.888C253.687 250.211 250.615 250.872 246.946 250.872H240.162V267H229.218V222.072H246.946C250.53 222.072 253.559 222.691 256.034 223.928C258.509 225.165 260.365 226.872 261.602 229.048C262.839 231.224 263.458 233.72 263.458 236.536ZM246.114 242.168C248.205 242.168 249.762 241.677 250.786 240.696C251.81 239.715 252.322 238.328 252.322 236.536C252.322 234.744 251.81 233.357 250.786 232.376C249.762 231.395 248.205 230.904 246.114 230.904H240.162V242.168H246.114ZM302.819 248.568C302.819 249.592 302.756 250.659 302.628 251.768H277.86C278.03 253.987 278.734 255.693 279.972 256.888C281.252 258.04 282.809 258.616 284.644 258.616C287.374 258.616 289.273 257.464 290.34 255.16H301.988C301.39 257.507 300.302 259.619 298.724 261.496C297.188 263.373 295.246 264.845 292.9 265.912C290.553 266.979 287.929 267.512 285.028 267.512C281.529 267.512 278.414 266.765 275.684 265.272C272.953 263.779 270.82 261.645 269.284 258.872C267.748 256.099 266.98 252.856 266.98 249.144C266.98 245.432 267.726 242.189 269.22 239.416C270.756 236.643 272.889 234.509 275.62 233.016C278.35 231.523 281.486 230.776 285.028 230.776C288.484 230.776 291.556 231.501 294.244 232.952C296.932 234.403 299.022 236.472 300.516 239.16C302.052 241.848 302.819 244.984 302.819 248.568ZM291.62 245.688C291.62 243.811 290.98 242.317 289.7 241.208C288.42 240.099 286.82 239.544 284.9 239.544C283.065 239.544 281.508 240.077 280.228 241.144C278.99 242.211 278.222 243.725 277.924 245.688H291.62ZM328.497 257.72V267H322.929C318.961 267 315.868 266.04 313.649 264.12C311.43 262.157 310.321 258.979 310.321 254.584V240.376H305.969V231.288H310.321V222.584H321.265V231.288H328.433V240.376H321.265V254.712C321.265 255.779 321.521 256.547 322.033 257.016C322.545 257.485 323.398 257.72 324.593 257.72H328.497Z" fill="#FFEBEB"/>
</svg>
