<svg width="341" height="368" viewBox="0 0 341 368" fill="none" xmlns="http://www.w3.org/2000/svg">
<path d="M109.513 219H105.409L98.5451 208.608V219H94.4411V202.152H98.5451L105.409 212.592V202.152H109.513V219ZM118.584 219.192C117.272 219.192 116.088 218.912 115.032 218.352C113.992 217.792 113.168 216.992 112.56 215.952C111.968 214.912 111.672 213.696 111.672 212.304C111.672 210.928 111.976 209.72 112.584 208.68C113.192 207.624 114.024 206.816 115.08 206.256C116.136 205.696 117.32 205.416 118.632 205.416C119.944 205.416 121.128 205.696 122.184 206.256C123.24 206.816 124.072 207.624 124.68 208.68C125.288 209.72 125.592 210.928 125.592 212.304C125.592 213.68 125.28 214.896 124.656 215.952C124.048 216.992 123.208 217.792 122.136 218.352C121.08 218.912 119.896 219.192 118.584 219.192ZM118.584 215.64C119.368 215.64 120.032 215.352 120.576 214.776C121.136 214.2 121.416 213.376 121.416 212.304C121.416 211.232 121.144 210.408 120.6 209.832C120.072 209.256 119.416 208.968 118.632 208.968C117.832 208.968 117.168 209.256 116.64 209.832C116.112 210.392 115.848 211.216 115.848 212.304C115.848 213.376 116.104 214.2 116.616 214.776C117.144 215.352 117.8 215.64 118.584 215.64ZM144.857 205.464C146.521 205.464 147.841 205.968 148.817 206.976C149.809 207.984 150.305 209.384 150.305 211.176V219H146.225V211.728C146.225 210.864 145.993 210.2 145.529 209.736C145.081 209.256 144.457 209.016 143.657 209.016C142.857 209.016 142.225 209.256 141.761 209.736C141.313 210.2 141.089 210.864 141.089 211.728V219H137.009V211.728C137.009 210.864 136.777 210.2 136.313 209.736C135.865 209.256 135.241 209.016 134.441 209.016C133.641 209.016 133.009 209.256 132.545 209.736C132.097 210.2 131.873 210.864 131.873 211.728V219H127.769V205.608H131.873V207.288C132.289 206.728 132.833 206.288 133.505 205.968C134.177 205.632 134.937 205.464 135.785 205.464C136.793 205.464 137.689 205.68 138.473 206.112C139.273 206.544 139.897 207.16 140.345 207.96C140.809 207.224 141.441 206.624 142.241 206.16C143.041 205.696 143.913 205.464 144.857 205.464ZM165.799 212.088C165.799 212.472 165.776 212.872 165.728 213.288H156.44C156.504 214.12 156.768 214.76 157.232 215.208C157.712 215.64 158.296 215.856 158.984 215.856C160.008 215.856 160.72 215.424 161.12 214.56H165.488C165.264 215.44 164.856 216.232 164.264 216.936C163.688 217.64 162.96 218.192 162.08 218.592C161.2 218.992 160.216 219.192 159.128 219.192C157.816 219.192 156.648 218.912 155.624 218.352C154.6 217.792 153.8 216.992 153.224 215.952C152.648 214.912 152.36 213.696 152.36 212.304C152.36 210.912 152.64 209.696 153.2 208.656C153.776 207.616 154.576 206.816 155.6 206.256C156.624 205.696 157.8 205.416 159.128 205.416C160.424 205.416 161.576 205.688 162.584 206.232C163.592 206.776 164.376 207.552 164.936 208.56C165.512 209.568 165.799 210.744 165.799 212.088ZM161.6 211.008C161.6 210.304 161.36 209.744 160.88 209.328C160.4 208.912 159.8 208.704 159.08 208.704C158.392 208.704 157.808 208.904 157.328 209.304C156.864 209.704 156.576 210.272 156.464 211.008H161.6ZM172.235 212.28C172.235 210.904 172.491 209.696 173.003 208.656C173.531 207.616 174.243 206.816 175.139 206.256C176.035 205.696 177.035 205.416 178.139 205.416C179.019 205.416 179.819 205.6 180.539 205.968C181.275 206.336 181.851 206.832 182.267 207.456V201.24H186.371V219H182.267V217.08C181.883 217.72 181.331 218.232 180.611 218.616C179.907 219 179.083 219.192 178.139 219.192C177.035 219.192 176.035 218.912 175.139 218.352C174.243 217.776 173.531 216.968 173.003 215.928C172.491 214.872 172.235 213.656 172.235 212.28ZM182.267 212.304C182.267 211.28 181.979 210.472 181.403 209.88C180.843 209.288 180.155 208.992 179.339 208.992C178.523 208.992 177.827 209.288 177.251 209.88C176.691 210.456 176.411 211.256 176.411 212.28C176.411 213.304 176.691 214.12 177.251 214.728C177.827 215.32 178.523 215.616 179.339 215.616C180.155 215.616 180.843 215.32 181.403 214.728C181.979 214.136 182.267 213.328 182.267 212.304ZM195.436 219.192C194.124 219.192 192.94 218.912 191.884 218.352C190.844 217.792 190.02 216.992 189.412 215.952C188.82 214.912 188.524 213.696 188.524 212.304C188.524 210.928 188.828 209.72 189.436 208.68C190.044 207.624 190.876 206.816 191.932 206.256C192.988 205.696 194.172 205.416 195.484 205.416C196.796 205.416 197.98 205.696 199.036 206.256C200.092 206.816 200.924 207.624 201.532 208.68C202.14 209.72 202.444 210.928 202.444 212.304C202.444 213.68 202.132 214.896 201.508 215.952C200.9 216.992 200.06 217.792 198.988 218.352C197.932 218.912 196.748 219.192 195.436 219.192ZM195.436 215.64C196.22 215.64 196.884 215.352 197.428 214.776C197.988 214.2 198.268 213.376 198.268 212.304C198.268 211.232 197.996 210.408 197.452 209.832C196.924 209.256 196.268 208.968 195.484 208.968C194.684 208.968 194.02 209.256 193.492 209.832C192.964 210.392 192.7 211.216 192.7 212.304C192.7 213.376 192.956 214.2 193.468 214.776C193.996 215.352 194.652 215.64 195.436 215.64ZM213.811 207.504C214.211 206.88 214.763 206.376 215.467 205.992C216.171 205.608 216.995 205.416 217.939 205.416C219.043 205.416 220.043 205.696 220.939 206.256C221.835 206.816 222.539 207.616 223.051 208.656C223.579 209.696 223.843 210.904 223.843 212.28C223.843 213.656 223.579 214.872 223.051 215.928C222.539 216.968 221.835 217.776 220.939 218.352C220.043 218.912 219.043 219.192 217.939 219.192C217.011 219.192 216.187 219 215.467 218.616C214.763 218.232 214.211 217.736 213.811 217.128V225.384H209.707V205.608H213.811V207.504ZM219.667 212.28C219.667 211.256 219.379 210.456 218.803 209.88C218.243 209.288 217.547 208.992 216.715 208.992C215.899 208.992 215.203 209.288 214.627 209.88C214.067 210.472 213.787 211.28 213.787 212.304C213.787 213.328 214.067 214.136 214.627 214.728C215.203 215.32 215.899 215.616 216.715 215.616C217.531 215.616 218.227 215.32 218.803 214.728C219.379 214.12 219.667 213.304 219.667 212.28ZM238.62 212.088C238.62 212.472 238.596 212.872 238.548 213.288H229.26C229.324 214.12 229.588 214.76 230.052 215.208C230.532 215.64 231.116 215.856 231.804 215.856C232.828 215.856 233.54 215.424 233.94 214.56H238.308C238.084 215.44 237.676 216.232 237.084 216.936C236.508 217.64 235.78 218.192 234.9 218.592C234.02 218.992 233.036 219.192 231.948 219.192C230.636 219.192 229.468 218.912 228.444 218.352C227.42 217.792 226.62 216.992 226.044 215.952C225.468 214.912 225.18 213.696 225.18 212.304C225.18 210.912 225.46 209.696 226.02 208.656C226.596 207.616 227.396 206.816 228.42 206.256C229.444 205.696 230.62 205.416 231.948 205.416C233.244 205.416 234.396 205.688 235.404 206.232C236.412 206.776 237.196 207.552 237.756 208.56C238.332 209.568 238.62 210.744 238.62 212.088ZM234.42 211.008C234.42 210.304 234.18 209.744 233.7 209.328C233.22 208.912 232.62 208.704 231.9 208.704C231.212 208.704 230.628 208.904 230.148 209.304C229.684 209.704 229.396 210.272 229.284 211.008H234.42ZM248.249 215.52V219H246.161C244.673 219 243.513 218.64 242.681 217.92C241.849 217.184 241.433 215.992 241.433 214.344V209.016H239.801V205.608H241.433V202.344H245.537V205.608H248.225V209.016H245.537V214.392C245.537 214.792 245.633 215.08 245.825 215.256C246.017 215.432 246.337 215.52 246.785 215.52H248.249Z" fill="#FFEBEB"/>
<path d="M67.7786 263.28C70.9253 263.28 73.6719 263.88 76.0186 265.08C78.3653 266.253 80.1653 267.92 81.4186 270.08C82.6986 272.213 83.3386 274.68 83.3386 277.48C83.3386 279.747 82.9386 281.853 82.1386 283.8C81.3653 285.747 80.2053 287.307 78.6586 288.48C77.1386 289.627 75.3253 290.2 73.2186 290.2C71.8053 290.2 70.6319 289.92 69.6986 289.36C68.7919 288.8 68.1786 288.013 67.8586 287C67.1119 288.04 66.1519 288.853 64.9786 289.44C63.8053 290 62.5253 290.28 61.1386 290.28C59.1653 290.28 57.6053 289.693 56.4586 288.52C55.3386 287.32 54.7786 285.693 54.7786 283.64C54.7786 281.693 55.1786 279.867 55.9786 278.16C56.7786 276.427 57.8853 275.04 59.2986 274C60.7119 272.96 62.2986 272.44 64.0586 272.44C66.2986 272.44 67.8186 273.24 68.6186 274.84L68.9786 272.72H74.4986L72.7386 282.76C72.6586 283.24 72.6186 283.667 72.6186 284.04C72.6186 285.213 73.1386 285.8 74.1786 285.8C75.4586 285.8 76.4319 284.987 77.0986 283.36C77.7919 281.707 78.1386 279.813 78.1386 277.68C78.1386 274.613 77.1653 272.213 75.2186 270.48C73.2986 268.747 70.5919 267.88 67.0986 267.88C64.1119 267.88 61.3919 268.6 58.9386 270.04C56.5119 271.48 54.6053 273.453 53.2186 275.96C51.8319 278.44 51.1386 281.173 51.1386 284.16C51.1386 287.387 52.0719 289.893 53.9386 291.68C55.8319 293.467 58.4719 294.36 61.8586 294.36C64.4986 294.36 66.8586 293.88 68.9386 292.92L70.0186 297.28C67.4053 298.427 64.4719 299 61.2186 299C58.1786 299 55.4986 298.413 53.1786 297.24C50.8853 296.067 49.1119 294.4 47.8586 292.24C46.6053 290.08 45.9786 287.56 45.9786 284.68C45.9786 280.653 46.9253 277.013 48.8186 273.76C50.7119 270.48 53.3119 267.92 56.6186 266.08C59.9519 264.213 63.6719 263.28 67.7786 263.28ZM63.3786 285.36C64.1253 285.36 64.8186 285.133 65.4586 284.68C66.1253 284.227 66.6453 283.627 67.0186 282.88C67.4186 282.107 67.6186 281.28 67.6186 280.4C67.6186 279.493 67.3653 278.76 66.8586 278.2C66.3519 277.613 65.6586 277.32 64.7786 277.32C63.6053 277.32 62.6319 277.827 61.8586 278.84C61.0853 279.853 60.6986 281.053 60.6986 282.44C60.6986 283.32 60.9253 284.027 61.3786 284.56C61.8319 285.093 62.4986 285.36 63.3786 285.36ZM110.782 267.68V290H103.942V286.96C103.248 287.947 102.302 288.747 101.102 289.36C99.9284 289.947 98.6217 290.24 97.1817 290.24C95.4751 290.24 93.9684 289.867 92.6617 289.12C91.3551 288.347 90.3417 287.24 89.6217 285.8C88.9017 284.36 88.5417 282.667 88.5417 280.72V267.68H95.3417V279.8C95.3417 281.293 95.7284 282.453 96.5017 283.28C97.2751 284.107 98.3151 284.52 99.6217 284.52C100.955 284.52 102.008 284.107 102.782 283.28C103.555 282.453 103.942 281.293 103.942 279.8V267.68H110.782ZM124.775 290.32C122.828 290.32 121.095 289.987 119.575 289.32C118.055 288.653 116.855 287.747 115.975 286.6C115.095 285.427 114.602 284.12 114.495 282.68H121.255C121.335 283.453 121.695 284.08 122.335 284.56C122.975 285.04 123.762 285.28 124.695 285.28C125.548 285.28 126.202 285.12 126.655 284.8C127.135 284.453 127.375 284.013 127.375 283.48C127.375 282.84 127.042 282.373 126.375 282.08C125.708 281.76 124.628 281.413 123.135 281.04C121.535 280.667 120.202 280.28 119.135 279.88C118.068 279.453 117.148 278.8 116.375 277.92C115.602 277.013 115.215 275.8 115.215 274.28C115.215 273 115.562 271.84 116.255 270.8C116.975 269.733 118.015 268.893 119.375 268.28C120.762 267.667 122.402 267.36 124.295 267.36C127.095 267.36 129.295 268.053 130.895 269.44C132.522 270.827 133.455 272.667 133.695 274.96H127.375C127.268 274.187 126.922 273.573 126.335 273.12C125.775 272.667 125.028 272.44 124.095 272.44C123.295 272.44 122.682 272.6 122.255 272.92C121.828 273.213 121.615 273.627 121.615 274.16C121.615 274.8 121.948 275.28 122.615 275.6C123.308 275.92 124.375 276.24 125.815 276.56C127.468 276.987 128.815 277.413 129.855 277.84C130.895 278.24 131.802 278.907 132.575 279.84C133.375 280.747 133.788 281.973 133.815 283.52C133.815 284.827 133.442 286 132.695 287.04C131.975 288.053 130.922 288.853 129.535 289.44C128.175 290.027 126.588 290.32 124.775 290.32ZM159.04 278.48C159.04 279.12 159 279.787 158.92 280.48H143.44C143.546 281.867 143.986 282.933 144.76 283.68C145.56 284.4 146.533 284.76 147.68 284.76C149.386 284.76 150.573 284.04 151.24 282.6H158.52C158.146 284.067 157.466 285.387 156.48 286.56C155.52 287.733 154.306 288.653 152.84 289.32C151.373 289.987 149.733 290.32 147.92 290.32C145.733 290.32 143.786 289.853 142.08 288.92C140.373 287.987 139.04 286.653 138.08 284.92C137.12 283.187 136.64 281.16 136.64 278.84C136.64 276.52 137.106 274.493 138.04 272.76C139 271.027 140.333 269.693 142.04 268.76C143.746 267.827 145.706 267.36 147.92 267.36C150.08 267.36 152 267.813 153.68 268.72C155.36 269.627 156.666 270.92 157.6 272.6C158.56 274.28 159.04 276.24 159.04 278.48ZM152.04 276.68C152.04 275.507 151.64 274.573 150.84 273.88C150.04 273.187 149.04 272.84 147.84 272.84C146.693 272.84 145.72 273.173 144.92 273.84C144.146 274.507 143.666 275.453 143.48 276.68H152.04ZM169.488 271.4C170.288 270.173 171.288 269.213 172.488 268.52C173.688 267.8 175.021 267.44 176.488 267.44V274.68H174.608C172.901 274.68 171.621 275.053 170.768 275.8C169.915 276.52 169.488 277.8 169.488 279.64V290H162.648V267.68H169.488V271.4ZM178.397 278.8C178.397 276.507 178.824 274.493 179.677 272.76C180.557 271.027 181.744 269.693 183.237 268.76C184.731 267.827 186.397 267.36 188.237 267.36C189.704 267.36 191.037 267.667 192.237 268.28C193.464 268.893 194.424 269.72 195.117 270.76V260.4H201.957V290H195.117V286.8C194.477 287.867 193.557 288.72 192.357 289.36C191.184 290 189.811 290.32 188.237 290.32C186.397 290.32 184.731 289.853 183.237 288.92C181.744 287.96 180.557 286.613 179.677 284.88C178.824 283.12 178.397 281.093 178.397 278.8ZM195.117 278.84C195.117 277.133 194.637 275.787 193.677 274.8C192.744 273.813 191.597 273.32 190.237 273.32C188.877 273.32 187.717 273.813 186.757 274.8C185.824 275.76 185.357 277.093 185.357 278.8C185.357 280.507 185.824 281.867 186.757 282.88C187.717 283.867 188.877 284.36 190.237 284.36C191.597 284.36 192.744 283.867 193.677 282.88C194.637 281.893 195.117 280.547 195.117 278.84ZM217.066 290.32C214.879 290.32 212.906 289.853 211.146 288.92C209.412 287.987 208.039 286.653 207.026 284.92C206.039 283.187 205.546 281.16 205.546 278.84C205.546 276.547 206.052 274.533 207.066 272.8C208.079 271.04 209.466 269.693 211.226 268.76C212.986 267.827 214.959 267.36 217.146 267.36C219.332 267.36 221.306 267.827 223.066 268.76C224.826 269.693 226.212 271.04 227.226 272.8C228.239 274.533 228.746 276.547 228.746 278.84C228.746 281.133 228.226 283.16 227.186 284.92C226.172 286.653 224.772 287.987 222.986 288.92C221.226 289.853 219.252 290.32 217.066 290.32ZM217.066 284.4C218.372 284.4 219.479 283.92 220.386 282.96C221.319 282 221.786 280.627 221.786 278.84C221.786 277.053 221.332 275.68 220.426 274.72C219.546 273.76 218.452 273.28 217.146 273.28C215.812 273.28 214.706 273.76 213.826 274.72C212.946 275.653 212.506 277.027 212.506 278.84C212.506 280.627 212.932 282 213.786 282.96C214.666 283.92 215.759 284.4 217.066 284.4ZM239.215 270.84C239.881 269.8 240.801 268.96 241.975 268.32C243.148 267.68 244.521 267.36 246.095 267.36C247.935 267.36 249.601 267.827 251.095 268.76C252.588 269.693 253.761 271.027 254.615 272.76C255.495 274.493 255.935 276.507 255.935 278.8C255.935 281.093 255.495 283.12 254.615 284.88C253.761 286.613 252.588 287.96 251.095 288.92C249.601 289.853 247.935 290.32 246.095 290.32C244.548 290.32 243.175 290 241.975 289.36C240.801 288.72 239.881 287.893 239.215 286.88V300.64H232.375V267.68H239.215V270.84ZM248.975 278.8C248.975 277.093 248.495 275.76 247.535 274.8C246.601 273.813 245.441 273.32 244.055 273.32C242.695 273.32 241.535 273.813 240.575 274.8C239.641 275.787 239.175 277.133 239.175 278.84C239.175 280.547 239.641 281.893 240.575 282.88C241.535 283.867 242.695 284.36 244.055 284.36C245.415 284.36 246.575 283.867 247.535 282.88C248.495 281.867 248.975 280.507 248.975 278.8ZM280.563 278.48C280.563 279.12 280.523 279.787 280.443 280.48H264.963C265.07 281.867 265.51 282.933 266.283 283.68C267.083 284.4 268.056 284.76 269.203 284.76C270.91 284.76 272.096 284.04 272.763 282.6H280.043C279.67 284.067 278.99 285.387 278.003 286.56C277.043 287.733 275.83 288.653 274.363 289.32C272.896 289.987 271.256 290.32 269.443 290.32C267.256 290.32 265.31 289.853 263.603 288.92C261.896 287.987 260.563 286.653 259.603 284.92C258.643 283.187 258.163 281.16 258.163 278.84C258.163 276.52 258.63 274.493 259.563 272.76C260.523 271.027 261.856 269.693 263.563 268.76C265.27 267.827 267.23 267.36 269.443 267.36C271.603 267.36 273.523 267.813 275.203 268.72C276.883 269.627 278.19 270.92 279.123 272.6C280.083 274.28 280.563 276.24 280.563 278.48ZM273.563 276.68C273.563 275.507 273.163 274.573 272.363 273.88C271.563 273.187 270.563 272.84 269.363 272.84C268.216 272.84 267.243 273.173 266.443 273.84C265.67 274.507 265.19 275.453 265.003 276.68H273.563ZM296.611 284.2V290H293.131C290.651 290 288.718 289.4 287.331 288.2C285.945 286.973 285.251 284.987 285.251 282.24V273.36H282.531V267.68H285.251V262.24H292.091V267.68H296.571V273.36H292.091V282.32C292.091 282.987 292.251 283.467 292.571 283.76C292.891 284.053 293.425 284.2 294.171 284.2H296.611Z" fill="#FFEBEB"/>
<circle cx="171.5" cy="87.5" r="87.5" fill="#F8A98A"/>
<g clip-path="url(#clip0_385_3)">
<path d="M229.09 97.099C235.852 132.519 202.875 139.995 170.532 139.995C138.188 139.995 107.232 133.256 111.986 97.099C115.077 73.6043 138.202 54.2031 170.545 54.2031C202.888 54.2031 224.652 73.8281 229.103 97.099H229.09Z" fill="#4D382E"/>
<path d="M154.393 98.6388C154.195 109.563 146.271 113.473 138.875 113.473C131.479 113.473 123.951 107.589 125.483 97.2041C126.857 87.9116 132.245 82.8046 138.875 80.9355C145.993 78.9349 154.525 91.4127 154.393 98.6388Z" fill="#FFFCC3"/>
<path d="M186.789 97.8624C186.987 108.787 194.911 112.696 202.306 112.696C209.702 112.696 217.23 106.813 215.698 96.4278C214.325 87.1352 208.936 82.0282 202.306 80.1592C195.188 78.1585 186.657 90.6364 186.789 97.8624V97.8624Z" fill="#FFFCC3"/>
<path d="M153.521 58.9416C153.521 68.6685 145.214 78.2243 134.675 78.2243C124.136 78.2243 117.823 92.5185 114.324 82.2651C111.18 73.0515 110.652 39.3298 123 37.158C133.394 35.3416 153.534 49.2015 153.534 58.9416H153.521Z" fill="#4D382E"/>
<path d="M186.789 60.1918C186.789 69.9187 195.096 79.4746 205.635 79.4746C216.173 79.4746 222.486 93.7688 225.986 83.5154C229.129 74.3018 229.657 40.58 217.309 38.4083C206.916 36.5919 186.775 50.4517 186.775 60.1918H186.789Z" fill="#4D382E"/>
<path d="M141.86 106.497C144.158 106.497 146.02 102.666 146.02 97.9412C146.02 93.2162 144.158 89.3857 141.86 89.3857C139.563 89.3857 137.7 93.2162 137.7 97.9412C137.7 102.666 139.563 106.497 141.86 106.497Z" fill="#4D382E"/>
<path d="M197.895 105.654C200.193 105.654 202.056 101.824 202.056 97.0989C202.056 92.3739 200.193 88.5435 197.895 88.5435C195.598 88.5435 193.735 92.3739 193.735 97.0989C193.735 101.824 195.598 105.654 197.895 105.654Z" fill="#4D382E"/>
<path d="M176.118 105.365C176.118 107.616 173.688 110.854 170.598 110.854C167.507 110.854 165.077 107.55 165.077 105.299C165.077 103.048 167.441 102.127 170.531 102.127C173.622 102.127 176.118 103.114 176.118 105.365V105.365Z" fill="#F8D2DC"/>
<path d="M139.192 55.6115C143.669 58.7178 141.147 59.2443 139.509 59.7576C134.161 61.4556 126.752 68.0104 123.318 73.6438C122.261 75.3681 120.386 75.7366 120.465 72.4461L121.575 50.4256C121.707 48.5039 123.226 46.7533 125.854 48.2012C129.961 50.4519 136.327 53.624 139.179 55.6247L139.192 55.6115Z" fill="#B57B82"/>
<path d="M201.224 56.6381C196.852 59.9023 199.401 60.3367 201.052 60.7973C206.467 62.311 214.087 68.6026 217.719 74.1176C218.828 75.8023 220.717 76.1051 220.519 72.8277L218.656 50.8598C218.458 48.9381 216.874 47.2534 214.298 48.7802C210.27 51.1757 204.023 54.5584 201.237 56.6512L201.224 56.6381Z" fill="#B57B82"/>
<path d="M107.813 112.696H121.496H106.981" fill="black"/>
<path d="M107.813 112.696H121.496H106.981" stroke="#4D382E" stroke-width="5.40843" stroke-linecap="round" stroke-linejoin="round"/>
<path d="M110.323 122.686L122.512 116.5L109.583 123.055" fill="black"/>
<path d="M110.323 122.686L122.512 116.5L109.583 123.055" stroke="#4D382E" stroke-width="5.40843" stroke-linecap="round" stroke-linejoin="round"/>
<path d="M233.791 112.709L220.109 112.881L234.624 112.696" fill="black"/>
<path d="M233.791 112.709L220.109 112.881L234.624 112.696" stroke="#4D382E" stroke-width="5.40843" stroke-linecap="round" stroke-linejoin="round"/>
<path d="M231.415 122.726L219.146 116.698L232.167 123.094" fill="black"/>
<path d="M231.415 122.726L219.146 116.698L232.167 123.094" stroke="#4D382E" stroke-width="5.40843" stroke-linecap="round" stroke-linejoin="round"/>
</g>
<path d="M133.264 351.088C133.264 351.472 133.24 351.872 133.192 352.288H123.904C123.968 353.12 124.232 353.76 124.696 354.208C125.176 354.64 125.76 354.856 126.448 354.856C127.472 354.856 128.184 354.424 128.584 353.56H132.952C132.728 354.44 132.32 355.232 131.728 355.936C131.152 356.64 130.424 357.192 129.544 357.592C128.664 357.992 127.68 358.192 126.592 358.192C125.28 358.192 124.112 357.912 123.088 357.352C122.064 356.792 121.264 355.992 120.688 354.952C120.112 353.912 119.824 352.696 119.824 351.304C119.824 349.912 120.104 348.696 120.664 347.656C121.24 346.616 122.04 345.816 123.064 345.256C124.088 344.696 125.264 344.416 126.592 344.416C127.888 344.416 129.04 344.688 130.048 345.232C131.056 345.776 131.84 346.552 132.4 347.56C132.976 348.568 133.264 349.744 133.264 351.088ZM129.064 350.008C129.064 349.304 128.824 348.744 128.344 348.328C127.864 347.912 127.264 347.704 126.544 347.704C125.856 347.704 125.272 347.904 124.792 348.304C124.328 348.704 124.04 349.272 123.928 350.008H129.064ZM134.613 351.28C134.613 349.904 134.869 348.696 135.381 347.656C135.909 346.616 136.621 345.816 137.517 345.256C138.413 344.696 139.413 344.416 140.517 344.416C141.397 344.416 142.197 344.6 142.917 344.968C143.653 345.336 144.229 345.832 144.645 346.456V340.24H148.749V358H144.645V356.08C144.261 356.72 143.709 357.232 142.989 357.616C142.285 358 141.461 358.192 140.517 358.192C139.413 358.192 138.413 357.912 137.517 357.352C136.621 356.776 135.909 355.968 135.381 354.928C134.869 353.872 134.613 352.656 134.613 351.28ZM144.645 351.304C144.645 350.28 144.357 349.472 143.781 348.88C143.221 348.288 142.533 347.992 141.717 347.992C140.901 347.992 140.205 348.288 139.629 348.88C139.069 349.456 138.789 350.256 138.789 351.28C138.789 352.304 139.069 353.12 139.629 353.728C140.205 354.32 140.901 354.616 141.717 354.616C142.533 354.616 143.221 354.32 143.781 353.728C144.357 353.136 144.645 352.328 144.645 351.304ZM153.782 343.216C153.062 343.216 152.47 343.008 152.006 342.592C151.558 342.16 151.334 341.632 151.334 341.008C151.334 340.368 151.558 339.84 152.006 339.424C152.47 338.992 153.062 338.776 153.782 338.776C154.486 338.776 155.062 338.992 155.51 339.424C155.974 339.84 156.206 340.368 156.206 341.008C156.206 341.632 155.974 342.16 155.51 342.592C155.062 343.008 154.486 343.216 153.782 343.216ZM155.822 344.608V358H151.718V344.608H155.822ZM166.261 354.52V358H164.173C162.685 358 161.525 357.64 160.693 356.92C159.861 356.184 159.445 354.992 159.445 353.344V348.016H157.813V344.608H159.445V341.344H163.549V344.608H166.237V348.016H163.549V353.392C163.549 353.792 163.645 354.08 163.837 354.256C164.029 354.432 164.349 354.52 164.797 354.52H166.261ZM167.731 351.28C167.731 349.904 167.987 348.696 168.499 347.656C169.027 346.616 169.739 345.816 170.635 345.256C171.531 344.696 172.531 344.416 173.635 344.416C174.579 344.416 175.403 344.608 176.107 344.992C176.827 345.376 177.379 345.88 177.763 346.504V344.608H181.867V358H177.763V356.104C177.363 356.728 176.803 357.232 176.083 357.616C175.379 358 174.555 358.192 173.611 358.192C172.523 358.192 171.531 357.912 170.635 357.352C169.739 356.776 169.027 355.968 168.499 354.928C167.987 353.872 167.731 352.656 167.731 351.28ZM177.763 351.304C177.763 350.28 177.475 349.472 176.899 348.88C176.339 348.288 175.651 347.992 174.835 347.992C174.019 347.992 173.323 348.288 172.747 348.88C172.187 349.456 171.907 350.256 171.907 351.28C171.907 352.304 172.187 353.12 172.747 353.728C173.323 354.32 174.019 354.616 174.835 354.616C175.651 354.616 176.339 354.32 176.899 353.728C177.475 353.136 177.763 352.328 177.763 351.304ZM188.94 346.84C189.42 346.104 190.02 345.528 190.74 345.112C191.46 344.68 192.26 344.464 193.14 344.464V348.808H192.012C190.988 348.808 190.22 349.032 189.708 349.48C189.196 349.912 188.94 350.68 188.94 351.784V358H184.836V344.608H188.94V346.84ZM204.291 346.504C204.691 345.88 205.243 345.376 205.947 344.992C206.651 344.608 207.475 344.416 208.419 344.416C209.523 344.416 210.523 344.696 211.419 345.256C212.315 345.816 213.019 346.616 213.531 347.656C214.059 348.696 214.323 349.904 214.323 351.28C214.323 352.656 214.059 353.872 213.531 354.928C213.019 355.968 212.315 356.776 211.419 357.352C210.523 357.912 209.523 358.192 208.419 358.192C207.491 358.192 206.667 358 205.947 357.616C205.243 357.232 204.691 356.736 204.291 356.128V364.384H200.187V344.608H204.291V346.504ZM210.147 351.28C210.147 350.256 209.859 349.456 209.283 348.88C208.723 348.288 208.027 347.992 207.195 347.992C206.379 347.992 205.683 348.288 205.107 348.88C204.547 349.472 204.267 350.28 204.267 351.304C204.267 352.328 204.547 353.136 205.107 353.728C205.683 354.32 206.379 354.616 207.195 354.616C208.011 354.616 208.707 354.32 209.283 353.728C209.859 353.12 210.147 352.304 210.147 351.28ZM229.1 351.088C229.1 351.472 229.076 351.872 229.028 352.288H219.74C219.804 353.12 220.068 353.76 220.532 354.208C221.012 354.64 221.596 354.856 222.284 354.856C223.308 354.856 224.02 354.424 224.42 353.56H228.788C228.564 354.44 228.156 355.232 227.564 355.936C226.988 356.64 226.26 357.192 225.38 357.592C224.5 357.992 223.516 358.192 222.428 358.192C221.116 358.192 219.948 357.912 218.924 357.352C217.9 356.792 217.1 355.992 216.524 354.952C215.948 353.912 215.66 352.696 215.66 351.304C215.66 349.912 215.94 348.696 216.5 347.656C217.076 346.616 217.876 345.816 218.9 345.256C219.924 344.696 221.1 344.416 222.428 344.416C223.724 344.416 224.876 344.688 225.884 345.232C226.892 345.776 227.676 346.552 228.236 347.56C228.812 348.568 229.1 349.744 229.1 351.088ZM224.9 350.008C224.9 349.304 224.66 348.744 224.18 348.328C223.7 347.912 223.1 347.704 222.38 347.704C221.692 347.704 221.108 347.904 220.628 348.304C220.164 348.704 219.876 349.272 219.764 350.008H224.9ZM235.369 346.84C235.849 346.104 236.449 345.528 237.169 345.112C237.889 344.68 238.689 344.464 239.569 344.464V348.808H238.441C237.417 348.808 236.649 349.032 236.137 349.48C235.625 349.912 235.369 350.68 235.369 351.784V358H231.265V344.608H235.369V346.84ZM248.251 348.016H246.043V358H241.939V348.016H240.451V344.608H241.939V344.224C241.939 342.576 242.411 341.328 243.355 340.48C244.299 339.616 245.683 339.184 247.507 339.184C247.811 339.184 248.035 339.192 248.179 339.208V342.688C247.395 342.64 246.843 342.752 246.523 343.024C246.203 343.296 246.043 343.784 246.043 344.488V344.608H248.251V348.016ZM252.243 343.216C251.523 343.216 250.931 343.008 250.467 342.592C250.019 342.16 249.795 341.632 249.795 341.008C249.795 340.368 250.019 339.84 250.467 339.424C250.931 338.992 251.523 338.776 252.243 338.776C252.947 338.776 253.523 338.992 253.971 339.424C254.435 339.84 254.667 340.368 254.667 341.008C254.667 341.632 254.435 342.16 253.971 342.592C253.523 343.008 252.947 343.216 252.243 343.216ZM254.283 344.608V358H250.179V344.608H254.283ZM261.362 340.24V358H257.258V340.24H261.362Z" fill="#FFEBEB"/>
<path d="M91 341H83.2222C82.6329 341 82.0676 341.234 81.6509 341.651C81.2341 342.068 81 342.633 81 343.222V358.778C81 359.367 81.2341 359.932 81.6509 360.349C82.0676 360.766 82.6329 361 83.2222 361H98.7778C99.3671 361 99.9324 360.766 100.349 360.349C100.766 359.932 101 359.367 101 358.778V351" stroke="#FFEBEB" stroke-width="2" stroke-linecap="round" stroke-linejoin="round"/>
<path d="M99.1533 339.66C99.5759 339.237 100.149 339 100.747 339C101.344 339 101.917 339.237 102.34 339.66C102.763 340.083 103 340.656 103 341.253C103 341.851 102.763 342.424 102.34 342.847L92.2489 352.938L88 354L89.0622 349.751L99.1533 339.66Z" stroke="#FFEBEB" stroke-width="2" stroke-linecap="round" stroke-linejoin="round"/>
<defs>
<clipPath id="clip0_385_3">
<rect width="131.604" height="102.995" fill="white" transform="translate(105 37)"/>
</clipPath>
</defs>
</svg>
