<svg width="183" height="149" viewBox="0 0 183 149" fill="none" xmlns="http://www.w3.org/2000/svg">
<g clip-path="url(#clip0_77_21)">
<path d="M130.23 104.327C134.613 131.89 127.045 147.911 106.753 148.378C95.3717 148.641 88.5051 149.181 77.8693 147.094C62.1348 144.001 48.9277 138.471 32.9886 127.775C16.4213 116.657 16.509 94.8721 29.6284 82.4403C29.6284 82.4403 52.6678 59.4446 77.8255 60.2909C121.318 61.7354 130.216 104.342 130.216 104.342L130.23 104.327Z" fill="#4D382E"/>
<path d="M76.2184 42.7523C87.4016 42.7523 96.4673 33.1819 96.4673 21.3761C96.4673 9.57043 87.4016 0 76.2184 0C65.0352 0 55.9695 9.57043 55.9695 21.3761C55.9695 33.1819 65.0352 42.7523 76.2184 42.7523Z" fill="#4D382E"/>
<path d="M131.165 56.9349C143.058 56.9349 152.7 47.9655 152.7 36.9012C152.7 25.8368 143.058 16.8674 131.165 16.8674C119.272 16.8674 109.631 25.8368 109.631 36.9012C109.631 47.9655 119.272 56.9349 131.165 56.9349Z" fill="#4D382E"/>
<path d="M21.7245 67.1049C33.7226 67.1049 43.449 57.332 43.449 45.2765C43.449 33.2209 33.7226 23.448 21.7245 23.448C9.72639 23.448 0 33.2209 0 45.2765C0 57.332 9.72639 67.1049 21.7245 67.1049Z" fill="#4D382E"/>
<path d="M162.298 101.103C173.732 101.103 183 92.5708 183 82.0464C183 71.522 173.732 62.9902 162.298 62.9902C150.865 62.9902 141.596 71.522 141.596 82.0464C141.596 92.5708 150.865 101.103 162.298 101.103Z" fill="#4D382E"/>
</g>
<defs>
<clipPath id="clip0_77_21">
<rect width="183" height="148.641" fill="white"/>
</clipPath>
</defs>
</svg>
