<svg width="231" height="198" viewBox="0 0 231 198" fill="none" xmlns="http://www.w3.org/2000/svg">
<g clip-path="url(#clip0_165_844)">
<path d="M154.536 139.205C155.057 171.075 143.923 187.973 120.903 185.236C107.993 183.702 100.142 183.207 88.4519 179.137C71.1587 173.108 57.1153 164.73 40.814 150.072C23.8705 134.835 27.4745 110.218 44.3086 98.2722C44.3086 98.2722 74.0587 75.978 102.368 80.9825C151.312 89.6134 154.518 139.219 154.518 139.219L154.536 139.205Z" fill="#4D382E"/>
<path d="M103.373 60.8932C116.017 62.6925 127.808 53.3299 129.707 39.9814C131.607 26.6328 122.896 14.353 110.251 12.5538C97.6065 10.7545 85.8162 20.1171 83.9167 33.4656C82.0173 46.8142 90.728 59.0939 103.373 60.8932Z" fill="#4D382E"/>
<path d="M163.219 85.77C176.666 87.6835 189.011 79.0931 190.791 66.5828C192.571 54.0725 183.113 42.3797 169.665 40.4662C156.218 38.5527 143.873 47.1431 142.093 59.6534C140.313 72.1637 149.771 83.8565 163.219 85.77Z" fill="#4D382E"/>
<path d="M37.8394 79.6611C51.4055 81.5915 63.9754 72.1062 65.915 58.4752C67.8546 44.8441 58.4295 32.2291 44.8634 30.2987C31.2973 28.3684 18.7274 37.8536 16.7878 51.4846C14.8482 65.1157 24.2733 77.7307 37.8394 79.6611Z" fill="#4D382E"/>
<path d="M191.314 140.719C204.242 142.558 216.094 134.403 217.788 122.503C219.481 110.603 210.374 99.4652 197.446 97.6257C184.519 95.7861 172.666 103.942 170.973 115.841C169.28 127.741 178.387 138.879 191.314 140.719Z" fill="#4D382E"/>
</g>
<defs>
<clipPath id="clip0_165_844">
<rect width="209" height="169.759" fill="white" transform="translate(24.0723 0.291016) rotate(8.09851)"/>
</clipPath>
</defs>
</svg>
