<svg width="618" height="453" viewBox="0 0 618 453" fill="none" xmlns="http://www.w3.org/2000/svg">
<path d="M400.372 -92.6345C554.719 -63.9596 565.512 113.6 518.734 208.678C471.957 303.757 325.785 392.915 151.129 353.081C-23.5258 313.247 -115.87 33.4528 32.7677 51.7679C181.405 70.083 265.686 -117.657 400.372 -92.6345Z" fill="#8CCDD0"/>
<path d="M117.193 198L107.849 181.04H105.225V198H94.2805V153.072H112.649C116.19 153.072 119.198 153.691 121.673 154.928C124.19 156.165 126.067 157.872 127.305 160.048C128.542 162.181 129.161 164.571 129.161 167.216C129.161 170.203 128.307 172.869 126.601 175.216C124.937 177.563 122.462 179.227 119.177 180.208L129.545 198H117.193ZM105.225 173.296H112.009C114.014 173.296 115.507 172.805 116.489 171.824C117.513 170.843 118.025 169.456 118.025 167.664C118.025 165.957 117.513 164.613 116.489 163.632C115.507 162.651 114.014 162.16 112.009 162.16H105.225V173.296ZM169.694 179.568C169.694 180.592 169.631 181.659 169.503 182.768H144.735C144.905 184.987 145.609 186.693 146.847 187.888C148.127 189.04 149.684 189.616 151.519 189.616C154.249 189.616 156.148 188.464 157.215 186.16H168.863C168.265 188.507 167.177 190.619 165.599 192.496C164.063 194.373 162.121 195.845 159.775 196.912C157.428 197.979 154.804 198.512 151.903 198.512C148.404 198.512 145.289 197.765 142.559 196.272C139.828 194.779 137.695 192.645 136.159 189.872C134.623 187.099 133.855 183.856 133.855 180.144C133.855 176.432 134.601 173.189 136.095 170.416C137.631 167.643 139.764 165.509 142.495 164.016C145.225 162.523 148.361 161.776 151.903 161.776C155.359 161.776 158.431 162.501 161.119 163.952C163.807 165.403 165.897 167.472 167.391 170.16C168.927 172.848 169.694 175.984 169.694 179.568ZM158.495 176.688C158.495 174.811 157.855 173.317 156.575 172.208C155.295 171.099 153.695 170.544 151.775 170.544C149.94 170.544 148.383 171.077 147.103 172.144C145.865 173.211 145.097 174.725 144.799 176.688H158.495ZM173.292 180.144C173.292 176.432 174.039 173.189 175.532 170.416C177.068 167.643 179.18 165.509 181.868 164.016C184.599 162.523 187.713 161.776 191.212 161.776C195.692 161.776 199.425 162.949 202.412 165.296C205.441 167.643 207.425 170.949 208.364 175.216H196.716C195.735 172.485 193.836 171.12 191.02 171.12C189.015 171.12 187.415 171.909 186.22 173.488C185.025 175.024 184.428 177.243 184.428 180.144C184.428 183.045 185.025 185.285 186.22 186.864C187.415 188.4 189.015 189.168 191.02 189.168C193.836 189.168 195.735 187.803 196.716 185.072H208.364C207.425 189.253 205.441 192.539 202.412 194.928C199.383 197.317 195.649 198.512 191.212 198.512C187.713 198.512 184.599 197.765 181.868 196.272C179.18 194.779 177.068 192.645 175.532 189.872C174.039 187.099 173.292 183.856 173.292 180.144ZM247.882 179.568C247.882 180.592 247.818 181.659 247.69 182.768H222.922C223.093 184.987 223.797 186.693 225.034 187.888C226.314 189.04 227.871 189.616 229.706 189.616C232.437 189.616 234.335 188.464 235.402 186.16H247.05C246.453 188.507 245.365 190.619 243.786 192.496C242.25 194.373 240.309 195.845 237.962 196.912C235.615 197.979 232.991 198.512 230.09 198.512C226.591 198.512 223.477 197.765 220.746 196.272C218.015 194.779 215.882 192.645 214.346 189.872C212.81 187.099 212.042 183.856 212.042 180.144C212.042 176.432 212.789 173.189 214.282 170.416C215.818 167.643 217.951 165.509 220.682 164.016C223.413 162.523 226.549 161.776 230.09 161.776C233.546 161.776 236.618 162.501 239.306 163.952C241.994 165.403 244.085 167.472 245.578 170.16C247.114 172.848 247.882 175.984 247.882 179.568ZM236.682 176.688C236.682 174.811 236.042 173.317 234.762 172.208C233.482 171.099 231.882 170.544 229.962 170.544C228.127 170.544 226.57 171.077 225.29 172.144C224.053 173.211 223.285 174.725 222.986 176.688H236.682ZM259.16 158.576C257.24 158.576 255.661 158.021 254.424 156.912C253.229 155.76 252.632 154.352 252.632 152.688C252.632 150.981 253.229 149.573 254.424 148.464C255.661 147.312 257.24 146.736 259.16 146.736C261.037 146.736 262.573 147.312 263.768 148.464C265.005 149.573 265.624 150.981 265.624 152.688C265.624 154.352 265.005 155.76 263.768 156.912C262.573 158.021 261.037 158.576 259.16 158.576ZM264.6 162.288V198H253.656V162.288H264.6ZM292.435 188.72V198H286.867C282.899 198 279.805 197.04 277.587 195.12C275.368 193.157 274.259 189.979 274.259 185.584V171.376H269.907V162.288H274.259V153.584H285.203V162.288H292.371V171.376H285.203V185.712C285.203 186.779 285.459 187.547 285.971 188.016C286.483 188.485 287.336 188.72 288.531 188.72H292.435ZM296.355 180.08C296.355 176.411 297.037 173.189 298.403 170.416C299.811 167.643 301.709 165.509 304.099 164.016C306.488 162.523 309.155 161.776 312.099 161.776C314.616 161.776 316.813 162.288 318.691 163.312C320.611 164.336 322.083 165.68 323.107 167.344V162.288H334.051V198H323.107V192.944C322.04 194.608 320.547 195.952 318.627 196.976C316.749 198 314.552 198.512 312.035 198.512C309.133 198.512 306.488 197.765 304.099 196.272C301.709 194.736 299.811 192.581 298.403 189.808C297.037 186.992 296.355 183.749 296.355 180.08ZM323.107 180.144C323.107 177.413 322.339 175.259 320.803 173.68C319.309 172.101 317.475 171.312 315.299 171.312C313.123 171.312 311.267 172.101 309.731 173.68C308.237 175.216 307.491 177.349 307.491 180.08C307.491 182.811 308.237 184.987 309.731 186.608C311.267 188.187 313.123 188.976 315.299 188.976C317.475 188.976 319.309 188.187 320.803 186.608C322.339 185.029 323.107 182.875 323.107 180.144ZM356.496 198.512C353.381 198.512 350.608 197.979 348.176 196.912C345.744 195.845 343.824 194.395 342.416 192.56C341.008 190.683 340.219 188.592 340.048 186.288H350.864C350.992 187.525 351.568 188.528 352.592 189.296C353.616 190.064 354.875 190.448 356.368 190.448C357.733 190.448 358.779 190.192 359.504 189.68C360.272 189.125 360.656 188.421 360.656 187.568C360.656 186.544 360.123 185.797 359.056 185.328C357.989 184.816 356.261 184.261 353.872 183.664C351.312 183.067 349.179 182.448 347.472 181.808C345.765 181.125 344.293 180.08 343.056 178.672C341.819 177.221 341.2 175.28 341.2 172.848C341.2 170.8 341.755 168.944 342.864 167.28C344.016 165.573 345.68 164.229 347.856 163.248C350.075 162.267 352.699 161.776 355.728 161.776C360.208 161.776 363.728 162.885 366.288 165.104C368.891 167.323 370.384 170.267 370.768 173.936H360.656C360.485 172.699 359.931 171.717 358.992 170.992C358.096 170.267 356.901 169.904 355.408 169.904C354.128 169.904 353.147 170.16 352.464 170.672C351.781 171.141 351.44 171.803 351.44 172.656C351.44 173.68 351.973 174.448 353.04 174.96C354.149 175.472 355.856 175.984 358.16 176.496C360.805 177.179 362.96 177.861 364.624 178.544C366.288 179.184 367.739 180.251 368.976 181.744C370.256 183.195 370.917 185.157 370.96 187.632C370.96 189.723 370.363 191.6 369.168 193.264C368.016 194.885 366.331 196.165 364.112 197.104C361.936 198.043 359.397 198.512 356.496 198.512Z" fill="#FFEBEB"/>
<path d="M186.345 246.92C185.762 245.847 184.919 245.034 183.815 244.482C182.741 243.899 181.469 243.608 179.997 243.608C177.451 243.608 175.412 244.451 173.879 246.138C172.345 247.794 171.579 250.017 171.579 252.808C171.579 255.783 172.376 258.113 173.971 259.8C175.596 261.456 177.819 262.284 180.641 262.284C182.573 262.284 184.198 261.793 185.517 260.812C186.866 259.831 187.847 258.42 188.461 256.58H178.479V250.784H195.591V258.098C195.008 260.061 194.011 261.885 192.601 263.572C191.221 265.259 189.457 266.623 187.311 267.666C185.164 268.709 182.741 269.23 180.043 269.23C176.853 269.23 174.001 268.54 171.487 267.16C169.003 265.749 167.055 263.802 165.645 261.318C164.265 258.834 163.575 255.997 163.575 252.808C163.575 249.619 164.265 246.782 165.645 244.298C167.055 241.783 169.003 239.836 171.487 238.456C173.971 237.045 176.807 236.34 179.997 236.34C183.861 236.34 187.111 237.275 189.749 239.146C192.417 241.017 194.18 243.608 195.039 246.92H186.345ZM198.384 256.12C198.384 253.483 198.874 251.167 199.856 249.174C200.868 247.181 202.232 245.647 203.95 244.574C205.667 243.501 207.584 242.964 209.7 242.964C211.509 242.964 213.088 243.332 214.438 244.068C215.818 244.804 216.876 245.77 217.612 246.966V243.332H225.478V269H217.612V265.366C216.845 266.562 215.772 267.528 214.392 268.264C213.042 269 211.463 269.368 209.654 269.368C207.568 269.368 205.667 268.831 203.95 267.758C202.232 266.654 200.868 265.105 199.856 263.112C198.874 261.088 198.384 258.757 198.384 256.12ZM217.612 256.166C217.612 254.203 217.06 252.655 215.956 251.52C214.882 250.385 213.564 249.818 212 249.818C210.436 249.818 209.102 250.385 207.998 251.52C206.924 252.624 206.388 254.157 206.388 256.12C206.388 258.083 206.924 259.647 207.998 260.812C209.102 261.947 210.436 262.514 212 262.514C213.564 262.514 214.882 261.947 215.956 260.812C217.06 259.677 217.612 258.129 217.612 256.166ZM245.474 262.33V269H241.472C238.62 269 236.397 268.31 234.802 266.93C233.208 265.519 232.41 263.235 232.41 260.076V249.864H229.282V243.332H232.41V237.076H240.276V243.332H245.428V249.864H240.276V260.168C240.276 260.935 240.46 261.487 240.828 261.824C241.196 262.161 241.81 262.33 242.668 262.33H245.474ZM261.54 269.368C259.025 269.368 256.756 268.831 254.732 267.758C252.739 266.685 251.159 265.151 249.994 263.158C248.859 261.165 248.292 258.834 248.292 256.166C248.292 253.529 248.875 251.213 250.04 249.22C251.205 247.196 252.8 245.647 254.824 244.574C256.848 243.501 259.117 242.964 261.632 242.964C264.147 242.964 266.416 243.501 268.44 244.574C270.464 245.647 272.059 247.196 273.224 249.22C274.389 251.213 274.972 253.529 274.972 256.166C274.972 258.803 274.374 261.134 273.178 263.158C272.013 265.151 270.403 266.685 268.348 267.758C266.324 268.831 264.055 269.368 261.54 269.368ZM261.54 262.56C263.043 262.56 264.315 262.008 265.358 260.904C266.431 259.8 266.968 258.221 266.968 256.166C266.968 254.111 266.447 252.532 265.404 251.428C264.392 250.324 263.135 249.772 261.632 249.772C260.099 249.772 258.826 250.324 257.814 251.428C256.802 252.501 256.296 254.081 256.296 256.166C256.296 258.221 256.787 259.8 257.768 260.904C258.78 262.008 260.037 262.56 261.54 262.56ZM289.587 269.368C287.348 269.368 285.355 268.985 283.607 268.218C281.859 267.451 280.479 266.409 279.467 265.09C278.455 263.741 277.888 262.238 277.765 260.582H285.539C285.631 261.471 286.045 262.192 286.781 262.744C287.517 263.296 288.422 263.572 289.495 263.572C290.476 263.572 291.228 263.388 291.749 263.02C292.301 262.621 292.577 262.115 292.577 261.502C292.577 260.766 292.194 260.229 291.427 259.892C290.66 259.524 289.418 259.125 287.701 258.696C285.861 258.267 284.328 257.822 283.101 257.362C281.874 256.871 280.816 256.12 279.927 255.108C279.038 254.065 278.593 252.67 278.593 250.922C278.593 249.45 278.992 248.116 279.789 246.92C280.617 245.693 281.813 244.727 283.377 244.022C284.972 243.317 286.858 242.964 289.035 242.964C292.255 242.964 294.785 243.761 296.625 245.356C298.496 246.951 299.569 249.067 299.845 251.704H292.577C292.454 250.815 292.056 250.109 291.381 249.588C290.737 249.067 289.878 248.806 288.805 248.806C287.885 248.806 287.18 248.99 286.689 249.358C286.198 249.695 285.953 250.171 285.953 250.784C285.953 251.52 286.336 252.072 287.103 252.44C287.9 252.808 289.127 253.176 290.783 253.544C292.684 254.035 294.233 254.525 295.429 255.016C296.625 255.476 297.668 256.243 298.557 257.316C299.477 258.359 299.952 259.769 299.983 261.548C299.983 263.051 299.554 264.4 298.695 265.596C297.867 266.761 296.656 267.681 295.061 268.356C293.497 269.031 291.672 269.368 289.587 269.368Z" fill="#FFEBEB"/>
</svg>
