<svg width="195" height="195" viewBox="0 0 195 195" fill="none" xmlns="http://www.w3.org/2000/svg">
<g clip-path="url(#clip0_165_773)">
<path d="M176.651 85.256C209.131 145.702 155.903 176.216 110.014 181.828C32.5234 191.293 11.3514 158.003 18.1814 108.793C18.6485 105.353 19.6579 106.18 16.6614 102.021C6.21068 87.5303 3.75954 34.0795 12.156 25.6591C20.5525 17.2387 66.4254 43.898 66.4254 43.898C66.4254 43.898 79.3512 40.2476 89.219 39.024C100.775 37.5807 109.525 38.1931 109.525 38.1931C109.525 38.1931 148.089 -2.98991 157.22 3.44627C164.59 8.66363 173.668 26.2821 175.221 52.9734C177.404 90.5797 172.607 77.7397 176.651 85.256Z" fill="#CED0D0"/>
<path d="M63.1848 133.685C72.1884 132.365 78.4129 123.967 77.0877 114.927C75.7626 105.887 67.3895 99.6289 58.3859 100.949C49.3823 102.269 43.1578 110.667 44.4829 119.707C45.8081 128.747 54.1812 135.005 63.1848 133.685Z" fill="#5C2F17"/>
<path d="M64.7498 116.151C67.4359 115.757 69.2929 113.251 68.8975 110.554C68.5022 107.858 66.0042 105.991 63.3181 106.384C60.6321 106.778 58.7751 109.283 59.1704 111.98C59.5658 114.677 62.0638 116.544 64.7498 116.151Z" fill="white"/>
<path d="M140.167 122.261C149.17 120.941 155.395 112.543 154.07 103.503C152.745 94.4629 144.371 88.2046 135.368 89.5245C126.364 90.8443 120.14 99.2426 121.465 108.282C122.79 117.322 131.163 123.581 140.167 122.261Z" fill="#5C2F17"/>
<path d="M133.451 105.606C136.137 105.212 137.994 102.706 137.599 100.01C137.203 97.3127 134.705 95.4456 132.019 95.8394C129.333 96.2332 127.476 98.7386 127.872 101.436C128.267 104.132 130.765 105.999 133.451 105.606Z" fill="white"/>
<path d="M73.0738 83.1904C69.636 83.9731 66.2267 83.2467 63.3703 80.9903C59.072 77.6076 55.6646 72.7289 54.8458 61.8417C54.0805 51.699 60.3445 40.4702 60.3445 40.4702L66.114 43.6651L82.481 40.0118C82.481 40.0118 82.3414 49.2839 82.8109 58.3553C83.0648 63.3061 84.2232 67.2327 83.9745 71.7835C83.6883 77.5938 76.1393 82.5181 73.101 83.1865L73.0738 83.1904Z" fill="#7A7A79"/>
<path d="M115.111 77.056C118.629 76.819 121.686 75.1446 123.775 72.1633C126.921 67.6893 128.785 62.0378 126.444 51.3737C124.266 41.4381 115.043 32.4796 115.043 32.4796L110.433 37.196L93.6952 38.5072C93.6952 38.5072 96.5013 47.236 98.6785 56.0292C99.8562 60.8446 99.8735 64.9385 101.418 69.2264C103.36 74.7101 112.005 77.2605 115.107 77.0287L115.111 77.056Z" fill="#7A7A79"/>
<path d="M173.66 38.1544C178.5 63.0263 175.761 74.0727 175.761 74.0727L160.764 57.1548C159.504 55.7512 158.096 54.4806 156.573 53.3664L142.451 43.1753C139.225 40.8616 139.487 37.535 140.873 34.6844L146.944 26.4935C147.264 26.0285 148.537 23.9192 149.686 21.9115C151.02 19.6538 152.055 17.245 152.798 14.7396L156.29 2.96955C156.29 2.96955 167.796 7.99866 173.633 38.1584L173.66 38.1544Z" fill="#ED7D80"/>
<path d="M6.30381 63.5515C8.80663 88.766 14.6001 98.5617 14.6001 98.5617L24.1107 78.0512C24.9152 76.3448 25.8988 74.7237 27.0382 73.2191L37.6412 59.4035C40.0671 56.2613 38.8616 53.1498 36.7156 50.8171L28.5491 44.7132C28.1087 44.3598 26.284 42.7045 24.6072 41.1111C22.6811 39.3313 20.9986 37.3208 19.5679 35.134L12.8481 24.8889C12.8481 24.8889 3.2697 33.0088 6.30381 63.5515Z" fill="#ED7D80"/>
<path d="M184.611 134.444C182.273 141.781 178.577 147.617 174.293 152.286C148.935 179.801 110.213 181.855 110.213 181.855C110.213 181.855 59.2329 190.22 34.8283 169.526C22.2148 158.835 19.0531 144.084 19.0531 144.084C19.0531 144.084 31.5009 152.319 50.8529 150.095C62.235 148.789 69.8968 138.386 72.1276 135.049C77.6895 126.794 89.2019 118.613 100.625 116.827C109.199 115.487 120.616 117.826 133.465 126.336C137.091 128.731 143.414 135.328 158.071 134.015C171.663 132.831 186.686 118.869 186.686 118.869C186.686 118.869 186.739 127.751 184.635 134.413L184.611 134.444Z" fill="white"/>
<path d="M92.3823 135.953C89.6218 134.352 90.3533 130.065 93.4739 129.579L99.4122 127.678C100.657 127.272 101.961 127.081 103.262 127.058L110.133 126.97C113.416 126.461 115.503 130.474 113.261 132.976L112.187 134.165L109.202 137.473C106.338 140.651 101.699 141.387 97.9967 139.227L94.1421 136.977L92.3511 135.93L92.3823 135.953Z" fill="#5C2F17"/>
</g>
<defs>
<clipPath id="clip0_165_773">
<rect width="171" height="171" fill="white" transform="translate(0.50293 25.3053) rotate(-8.33977)"/>
</clipPath>
</defs>
</svg>
