<svg width="341" height="310" viewBox="0 0 341 310" fill="none" xmlns="http://www.w3.org/2000/svg">
<g clip-path="url(#clip0_165_835)">
<path d="M0 119.49C0 102.843 11.1357 85.2485 25.5883 78.495C25.5883 78.4358 25.5883 78.3173 25.5883 78.258C23.1598 53.8505 24.996 36.2558 54.4937 22.6895C68.591 16.1729 86.8937 17.1208 99.3325 24.289C107.684 9.12319 124.032 0 148.614 0C185.989 0 227.807 42.5946 228.34 74.2296L338.986 150.355L341 349.525L137.241 247.096C126.105 248.755 113.074 249.17 99.214 249.17C58.8176 249.17 30.5639 226.421 26.0622 199.229C24.1075 187.618 23.8706 173.044 27.3653 160.189C12.4388 153.258 0 135.9 0 119.431V119.49Z" fill="#F6BD6F"/>
<path d="M110.248 170.162C95.698 155.61 98.4545 129.26 116.405 111.307C134.355 93.3536 160.701 90.5966 175.251 105.149C189.801 119.701 187.044 146.051 169.094 164.004C151.144 181.957 124.798 184.714 110.248 170.162Z" fill="#FFEBCA"/>
<path d="M164.914 72.3865C157.471 78.1545 145.759 75.5036 138.755 66.4655C131.751 57.4275 132.107 45.4248 139.55 39.6568C146.994 33.8888 158.705 36.5397 165.709 45.5777C172.713 54.6158 172.357 66.6184 164.914 72.3865Z" fill="#FFEBCA"/>
<path d="M105.385 92.6882C97.964 99.5233 85.1143 97.6446 76.6844 88.4921C68.2545 79.3395 67.4366 66.379 74.8576 59.544C82.2785 52.7089 95.1282 54.5876 103.558 63.7401C111.988 72.8926 112.806 85.8532 105.385 92.6882Z" fill="#FFEBCA"/>
<path d="M80.0939 133.127C75.1279 142.293 62.2329 144.919 51.2921 138.992C40.3512 133.065 35.5077 120.829 40.4736 111.663C45.4396 102.496 58.3346 99.8698 69.2755 105.797C80.2163 111.724 85.0598 123.96 80.0939 133.127Z" fill="#FFEBCA"/>
<path d="M93.6688 202.498C87.7449 209.814 76.0136 210.134 67.4663 203.212C58.919 196.291 56.7923 184.75 62.7162 177.434C68.6401 170.118 80.3714 169.799 88.9187 176.72C97.466 183.641 99.5928 195.183 93.6688 202.498Z" fill="#FFEBCA"/>
</g>
<defs>
<clipPath id="clip0_165_835">
<rect width="341" height="349.525" fill="white" transform="matrix(-1 0 0 1 341 0)"/>
</clipPath>
</defs>
</svg>
