<svg width="527" height="643" viewBox="0 0 527 643" fill="none" xmlns="http://www.w3.org/2000/svg">
<path d="M278.15 54.8124C436.389 79.3348 462.885 266.603 424.048 368.85C385.211 471.097 245.576 570.813 65.8664 535.257C-113.843 499.701 -231.601 207.432 -80.0318 221.219C71.5372 235.006 140.066 33.4135 278.15 54.8124Z" fill="#8CCDD0"/>
<path d="M94.1925 342L84.8485 325.04H82.2245V342H71.2805V297.072H89.6485C93.1898 297.072 96.1978 297.691 98.6725 298.928C101.19 300.165 103.067 301.872 104.305 304.048C105.542 306.181 106.161 308.571 106.161 311.216C106.161 314.203 105.307 316.869 103.601 319.216C101.937 321.563 99.4618 323.227 96.1765 324.208L106.545 342H94.1925ZM82.2245 317.296H89.0085C91.0138 317.296 92.5072 316.805 93.4885 315.824C94.5125 314.843 95.0245 313.456 95.0245 311.664C95.0245 309.957 94.5125 308.613 93.4885 307.632C92.5072 306.651 91.0138 306.16 89.0085 306.16H82.2245V317.296ZM146.694 323.568C146.694 324.592 146.631 325.659 146.503 326.768H121.735C121.905 328.987 122.609 330.693 123.847 331.888C125.127 333.04 126.684 333.616 128.519 333.616C131.249 333.616 133.148 332.464 134.215 330.16H145.863C145.265 332.507 144.177 334.619 142.599 336.496C141.063 338.373 139.121 339.845 136.775 340.912C134.428 341.979 131.804 342.512 128.903 342.512C125.404 342.512 122.289 341.765 119.559 340.272C116.828 338.779 114.695 336.645 113.159 333.872C111.623 331.099 110.855 327.856 110.855 324.144C110.855 320.432 111.601 317.189 113.095 314.416C114.631 311.643 116.764 309.509 119.495 308.016C122.225 306.523 125.361 305.776 128.903 305.776C132.359 305.776 135.431 306.501 138.119 307.952C140.807 309.403 142.897 311.472 144.391 314.16C145.927 316.848 146.694 319.984 146.694 323.568ZM135.495 320.688C135.495 318.811 134.855 317.317 133.575 316.208C132.295 315.099 130.695 314.544 128.775 314.544C126.94 314.544 125.383 315.077 124.103 316.144C122.865 317.211 122.097 318.725 121.799 320.688H135.495ZM150.292 324.144C150.292 320.432 151.039 317.189 152.532 314.416C154.068 311.643 156.18 309.509 158.868 308.016C161.599 306.523 164.713 305.776 168.212 305.776C172.692 305.776 176.425 306.949 179.412 309.296C182.441 311.643 184.425 314.949 185.364 319.216H173.716C172.735 316.485 170.836 315.12 168.02 315.12C166.015 315.12 164.415 315.909 163.22 317.488C162.025 319.024 161.428 321.243 161.428 324.144C161.428 327.045 162.025 329.285 163.22 330.864C164.415 332.4 166.015 333.168 168.02 333.168C170.836 333.168 172.735 331.803 173.716 329.072H185.364C184.425 333.253 182.441 336.539 179.412 338.928C176.383 341.317 172.649 342.512 168.212 342.512C164.713 342.512 161.599 341.765 158.868 340.272C156.18 338.779 154.068 336.645 152.532 333.872C151.039 331.099 150.292 327.856 150.292 324.144ZM224.882 323.568C224.882 324.592 224.818 325.659 224.69 326.768H199.922C200.093 328.987 200.797 330.693 202.034 331.888C203.314 333.04 204.871 333.616 206.706 333.616C209.437 333.616 211.335 332.464 212.402 330.16H224.05C223.453 332.507 222.365 334.619 220.786 336.496C219.25 338.373 217.309 339.845 214.962 340.912C212.615 341.979 209.991 342.512 207.09 342.512C203.591 342.512 200.477 341.765 197.746 340.272C195.015 338.779 192.882 336.645 191.346 333.872C189.81 331.099 189.042 327.856 189.042 324.144C189.042 320.432 189.789 317.189 191.282 314.416C192.818 311.643 194.951 309.509 197.682 308.016C200.413 306.523 203.549 305.776 207.09 305.776C210.546 305.776 213.618 306.501 216.306 307.952C218.994 309.403 221.085 311.472 222.578 314.16C224.114 316.848 224.882 319.984 224.882 323.568ZM213.682 320.688C213.682 318.811 213.042 317.317 211.762 316.208C210.482 315.099 208.882 314.544 206.962 314.544C205.127 314.544 203.57 315.077 202.29 316.144C201.053 317.211 200.285 318.725 199.986 320.688H213.682ZM236.16 302.576C234.24 302.576 232.661 302.021 231.424 300.912C230.229 299.76 229.632 298.352 229.632 296.688C229.632 294.981 230.229 293.573 231.424 292.464C232.661 291.312 234.24 290.736 236.16 290.736C238.037 290.736 239.573 291.312 240.768 292.464C242.005 293.573 242.624 294.981 242.624 296.688C242.624 298.352 242.005 299.76 240.768 300.912C239.573 302.021 238.037 302.576 236.16 302.576ZM241.6 306.288V342H230.656V306.288H241.6ZM269.435 332.72V342H263.867C259.899 342 256.805 341.04 254.587 339.12C252.368 337.157 251.259 333.979 251.259 329.584V315.376H246.907V306.288H251.259V297.584H262.203V306.288H269.371V315.376H262.203V329.712C262.203 330.779 262.459 331.547 262.971 332.016C263.483 332.485 264.336 332.72 265.531 332.72H269.435ZM273.355 324.08C273.355 320.411 274.037 317.189 275.403 314.416C276.811 311.643 278.709 309.509 281.099 308.016C283.488 306.523 286.155 305.776 289.099 305.776C291.616 305.776 293.813 306.288 295.691 307.312C297.611 308.336 299.083 309.68 300.107 311.344V306.288H311.051V342H300.107V336.944C299.04 338.608 297.547 339.952 295.627 340.976C293.749 342 291.552 342.512 289.035 342.512C286.133 342.512 283.488 341.765 281.099 340.272C278.709 338.736 276.811 336.581 275.403 333.808C274.037 330.992 273.355 327.749 273.355 324.08ZM300.107 324.144C300.107 321.413 299.339 319.259 297.803 317.68C296.309 316.101 294.475 315.312 292.299 315.312C290.123 315.312 288.267 316.101 286.731 317.68C285.237 319.216 284.491 321.349 284.491 324.08C284.491 326.811 285.237 328.987 286.731 330.608C288.267 332.187 290.123 332.976 292.299 332.976C294.475 332.976 296.309 332.187 297.803 330.608C299.339 329.029 300.107 326.875 300.107 324.144ZM333.496 342.512C330.381 342.512 327.608 341.979 325.176 340.912C322.744 339.845 320.824 338.395 319.416 336.56C318.008 334.683 317.219 332.592 317.048 330.288H327.864C327.992 331.525 328.568 332.528 329.592 333.296C330.616 334.064 331.875 334.448 333.368 334.448C334.733 334.448 335.779 334.192 336.504 333.68C337.272 333.125 337.656 332.421 337.656 331.568C337.656 330.544 337.123 329.797 336.056 329.328C334.989 328.816 333.261 328.261 330.872 327.664C328.312 327.067 326.179 326.448 324.472 325.808C322.765 325.125 321.293 324.08 320.056 322.672C318.819 321.221 318.2 319.28 318.2 316.848C318.2 314.8 318.755 312.944 319.864 311.28C321.016 309.573 322.68 308.229 324.856 307.248C327.075 306.267 329.699 305.776 332.728 305.776C337.208 305.776 340.728 306.885 343.288 309.104C345.891 311.323 347.384 314.267 347.768 317.936H337.656C337.485 316.699 336.931 315.717 335.992 314.992C335.096 314.267 333.901 313.904 332.408 313.904C331.128 313.904 330.147 314.16 329.464 314.672C328.781 315.141 328.44 315.803 328.44 316.656C328.44 317.68 328.973 318.448 330.04 318.96C331.149 319.472 332.856 319.984 335.16 320.496C337.805 321.179 339.96 321.861 341.624 322.544C343.288 323.184 344.739 324.251 345.976 325.744C347.256 327.195 347.917 329.157 347.96 331.632C347.96 333.723 347.363 335.6 346.168 337.264C345.016 338.885 343.331 340.165 341.112 341.104C338.936 342.043 336.397 342.512 333.496 342.512Z" fill="#FFEBEB"/>
<path d="M86.6742 396.808C86.6742 393.619 87.3643 390.782 88.7443 388.298C90.1243 385.783 92.0409 383.836 94.4943 382.456C96.9783 381.045 99.7843 380.34 102.912 380.34C106.746 380.34 110.027 381.352 112.756 383.376C115.486 385.4 117.31 388.16 118.23 391.656H109.582C108.938 390.307 108.018 389.279 106.822 388.574C105.657 387.869 104.323 387.516 102.82 387.516C100.398 387.516 98.4349 388.359 96.9323 390.046C95.4296 391.733 94.6783 393.987 94.6783 396.808C94.6783 399.629 95.4296 401.883 96.9323 403.57C98.4349 405.257 100.398 406.1 102.82 406.1C104.323 406.1 105.657 405.747 106.822 405.042C108.018 404.337 108.938 403.309 109.582 401.96H118.23C117.31 405.456 115.486 408.216 112.756 410.24C110.027 412.233 106.746 413.23 102.912 413.23C99.7843 413.23 96.9783 412.54 94.4943 411.16C92.0409 409.749 90.1243 407.802 88.7443 405.318C87.3643 402.834 86.6742 399.997 86.6742 396.808ZM121.483 400.12C121.483 397.483 121.974 395.167 122.955 393.174C123.967 391.181 125.332 389.647 127.049 388.574C128.767 387.501 130.683 386.964 132.799 386.964C134.609 386.964 136.188 387.332 137.537 388.068C138.917 388.804 139.975 389.77 140.711 390.966V387.332H148.577V413H140.711V409.366C139.945 410.562 138.871 411.528 137.491 412.264C136.142 413 134.563 413.368 132.753 413.368C130.668 413.368 128.767 412.831 127.049 411.758C125.332 410.654 123.967 409.105 122.955 407.112C121.974 405.088 121.483 402.757 121.483 400.12ZM140.711 400.166C140.711 398.203 140.159 396.655 139.055 395.52C137.982 394.385 136.663 393.818 135.099 393.818C133.535 393.818 132.201 394.385 131.097 395.52C130.024 396.624 129.487 398.157 129.487 400.12C129.487 402.083 130.024 403.647 131.097 404.812C132.201 405.947 133.535 406.514 135.099 406.514C136.663 406.514 137.982 405.947 139.055 404.812C140.159 403.677 140.711 402.129 140.711 400.166ZM152.704 400.166C152.704 397.498 153.241 395.167 154.314 393.174C155.418 391.181 156.936 389.647 158.868 388.574C160.831 387.501 163.069 386.964 165.584 386.964C168.804 386.964 171.487 387.807 173.634 389.494C175.811 391.181 177.237 393.557 177.912 396.624H169.54C168.835 394.661 167.47 393.68 165.446 393.68C164.005 393.68 162.855 394.247 161.996 395.382C161.137 396.486 160.708 398.081 160.708 400.166C160.708 402.251 161.137 403.861 161.996 404.996C162.855 406.1 164.005 406.652 165.446 406.652C167.47 406.652 168.835 405.671 169.54 403.708H177.912C177.237 406.713 175.811 409.075 173.634 410.792C171.457 412.509 168.773 413.368 165.584 413.368C163.069 413.368 160.831 412.831 158.868 411.758C156.936 410.685 155.418 409.151 154.314 407.158C153.241 405.165 152.704 402.834 152.704 400.166ZM197.898 387.056C200.842 387.056 203.203 388.037 204.982 390C206.76 391.932 207.65 394.6 207.65 398.004V413H199.83V399.062C199.83 397.345 199.385 396.011 198.496 395.06C197.606 394.109 196.41 393.634 194.908 393.634C193.405 393.634 192.209 394.109 191.32 395.06C190.43 396.011 189.986 397.345 189.986 399.062V413H182.12V378.96H189.986V390.782C190.783 389.647 191.872 388.743 193.252 388.068C194.632 387.393 196.18 387.056 197.898 387.056ZM224.8 413.368C222.285 413.368 220.016 412.831 217.992 411.758C215.998 410.685 214.419 409.151 213.254 407.158C212.119 405.165 211.552 402.834 211.552 400.166C211.552 397.529 212.134 395.213 213.3 393.22C214.465 391.196 216.06 389.647 218.084 388.574C220.108 387.501 222.377 386.964 224.892 386.964C227.406 386.964 229.676 387.501 231.7 388.574C233.724 389.647 235.318 391.196 236.484 393.22C237.649 395.213 238.232 397.529 238.232 400.166C238.232 402.803 237.634 405.134 236.438 407.158C235.272 409.151 233.662 410.685 231.608 411.758C229.584 412.831 227.314 413.368 224.8 413.368ZM224.8 406.56C226.302 406.56 227.575 406.008 228.618 404.904C229.691 403.8 230.228 402.221 230.228 400.166C230.228 398.111 229.706 396.532 228.664 395.428C227.652 394.324 226.394 393.772 224.892 393.772C223.358 393.772 222.086 394.324 221.074 395.428C220.062 396.501 219.556 398.081 219.556 400.166C219.556 402.221 220.046 403.8 221.028 404.904C222.04 406.008 223.297 406.56 224.8 406.56ZM250.271 391.61C251.191 390.199 252.341 389.095 253.721 388.298C255.101 387.47 256.634 387.056 258.321 387.056V395.382H256.159C254.196 395.382 252.724 395.811 251.743 396.67C250.761 397.498 250.271 398.97 250.271 401.086V413H242.405V387.332H250.271V391.61ZM269.947 391.61C270.867 390.199 272.017 389.095 273.397 388.298C274.777 387.47 276.31 387.056 277.997 387.056V395.382H275.835C273.872 395.382 272.4 395.811 271.419 396.67C270.437 397.498 269.947 398.97 269.947 401.086V413H262.081V387.332H269.947V391.61ZM293.44 413.368C290.926 413.368 288.656 412.831 286.632 411.758C284.639 410.685 283.06 409.151 281.894 407.158C280.76 405.165 280.192 402.834 280.192 400.166C280.192 397.529 280.775 395.213 281.94 393.22C283.106 391.196 284.7 389.647 286.724 388.574C288.748 387.501 291.018 386.964 293.532 386.964C296.047 386.964 298.316 387.501 300.34 388.574C302.364 389.647 303.959 391.196 305.124 393.22C306.29 395.213 306.872 397.529 306.872 400.166C306.872 402.803 306.274 405.134 305.078 407.158C303.913 409.151 302.303 410.685 300.248 411.758C298.224 412.831 295.955 413.368 293.44 413.368ZM293.44 406.56C294.943 406.56 296.216 406.008 297.258 404.904C298.332 403.8 298.868 402.221 298.868 400.166C298.868 398.111 298.347 396.532 297.304 395.428C296.292 394.324 295.035 393.772 293.532 393.772C291.999 393.772 290.726 394.324 289.714 395.428C288.702 396.501 288.196 398.081 288.196 400.166C288.196 402.221 288.687 403.8 289.668 404.904C290.68 406.008 291.938 406.56 293.44 406.56ZM321.487 413.368C319.249 413.368 317.255 412.985 315.507 412.218C313.759 411.451 312.379 410.409 311.367 409.09C310.355 407.741 309.788 406.238 309.665 404.582H317.439C317.531 405.471 317.945 406.192 318.681 406.744C319.417 407.296 320.322 407.572 321.395 407.572C322.377 407.572 323.128 407.388 323.649 407.02C324.201 406.621 324.477 406.115 324.477 405.502C324.477 404.766 324.094 404.229 323.327 403.892C322.561 403.524 321.319 403.125 319.601 402.696C317.761 402.267 316.228 401.822 315.001 401.362C313.775 400.871 312.717 400.12 311.827 399.108C310.938 398.065 310.493 396.67 310.493 394.922C310.493 393.45 310.892 392.116 311.689 390.92C312.517 389.693 313.713 388.727 315.277 388.022C316.872 387.317 318.758 386.964 320.935 386.964C324.155 386.964 326.685 387.761 328.525 389.356C330.396 390.951 331.469 393.067 331.745 395.704H324.477C324.355 394.815 323.956 394.109 323.281 393.588C322.637 393.067 321.779 392.806 320.705 392.806C319.785 392.806 319.08 392.99 318.589 393.358C318.099 393.695 317.853 394.171 317.853 394.784C317.853 395.52 318.237 396.072 319.003 396.44C319.801 396.808 321.027 397.176 322.683 397.544C324.585 398.035 326.133 398.525 327.329 399.016C328.525 399.476 329.568 400.243 330.457 401.316C331.377 402.359 331.853 403.769 331.883 405.548C331.883 407.051 331.454 408.4 330.595 409.596C329.767 410.761 328.556 411.681 326.961 412.356C325.397 413.031 323.573 413.368 321.487 413.368Z" fill="#FFEBEB"/>
</svg>
