<svg width="618" height="536" viewBox="0 0 618 536" fill="none" xmlns="http://www.w3.org/2000/svg">
<path d="M400.372 -9.63453C554.719 19.0404 565.512 196.6 518.734 291.678C471.957 386.757 325.785 475.915 151.129 436.081C-23.5258 396.247 -115.87 116.453 32.7677 134.768C181.405 153.083 265.686 -34.6569 400.372 -9.63453Z" fill="#8CCDD0"/>
<path d="M117.193 281L107.849 264.04H105.225V281H94.2805V236.072H112.649C116.19 236.072 119.198 236.691 121.673 237.928C124.19 239.165 126.067 240.872 127.305 243.048C128.542 245.181 129.161 247.571 129.161 250.216C129.161 253.203 128.307 255.869 126.601 258.216C124.937 260.563 122.462 262.227 119.177 263.208L129.545 281H117.193ZM105.225 256.296H112.009C114.014 256.296 115.507 255.805 116.489 254.824C117.513 253.843 118.025 252.456 118.025 250.664C118.025 248.957 117.513 247.613 116.489 246.632C115.507 245.651 114.014 245.16 112.009 245.16H105.225V256.296ZM169.694 262.568C169.694 263.592 169.631 264.659 169.503 265.768H144.735C144.905 267.987 145.609 269.693 146.847 270.888C148.127 272.04 149.684 272.616 151.519 272.616C154.249 272.616 156.148 271.464 157.215 269.16H168.863C168.265 271.507 167.177 273.619 165.599 275.496C164.063 277.373 162.121 278.845 159.775 279.912C157.428 280.979 154.804 281.512 151.903 281.512C148.404 281.512 145.289 280.765 142.559 279.272C139.828 277.779 137.695 275.645 136.159 272.872C134.623 270.099 133.855 266.856 133.855 263.144C133.855 259.432 134.601 256.189 136.095 253.416C137.631 250.643 139.764 248.509 142.495 247.016C145.225 245.523 148.361 244.776 151.903 244.776C155.359 244.776 158.431 245.501 161.119 246.952C163.807 248.403 165.897 250.472 167.391 253.16C168.927 255.848 169.694 258.984 169.694 262.568ZM158.495 259.688C158.495 257.811 157.855 256.317 156.575 255.208C155.295 254.099 153.695 253.544 151.775 253.544C149.94 253.544 148.383 254.077 147.103 255.144C145.865 256.211 145.097 257.725 144.799 259.688H158.495ZM173.292 263.144C173.292 259.432 174.039 256.189 175.532 253.416C177.068 250.643 179.18 248.509 181.868 247.016C184.599 245.523 187.713 244.776 191.212 244.776C195.692 244.776 199.425 245.949 202.412 248.296C205.441 250.643 207.425 253.949 208.364 258.216H196.716C195.735 255.485 193.836 254.12 191.02 254.12C189.015 254.12 187.415 254.909 186.22 256.488C185.025 258.024 184.428 260.243 184.428 263.144C184.428 266.045 185.025 268.285 186.22 269.864C187.415 271.4 189.015 272.168 191.02 272.168C193.836 272.168 195.735 270.803 196.716 268.072H208.364C207.425 272.253 205.441 275.539 202.412 277.928C199.383 280.317 195.649 281.512 191.212 281.512C187.713 281.512 184.599 280.765 181.868 279.272C179.18 277.779 177.068 275.645 175.532 272.872C174.039 270.099 173.292 266.856 173.292 263.144ZM247.882 262.568C247.882 263.592 247.818 264.659 247.69 265.768H222.922C223.093 267.987 223.797 269.693 225.034 270.888C226.314 272.04 227.871 272.616 229.706 272.616C232.437 272.616 234.335 271.464 235.402 269.16H247.05C246.453 271.507 245.365 273.619 243.786 275.496C242.25 277.373 240.309 278.845 237.962 279.912C235.615 280.979 232.991 281.512 230.09 281.512C226.591 281.512 223.477 280.765 220.746 279.272C218.015 277.779 215.882 275.645 214.346 272.872C212.81 270.099 212.042 266.856 212.042 263.144C212.042 259.432 212.789 256.189 214.282 253.416C215.818 250.643 217.951 248.509 220.682 247.016C223.413 245.523 226.549 244.776 230.09 244.776C233.546 244.776 236.618 245.501 239.306 246.952C241.994 248.403 244.085 250.472 245.578 253.16C247.114 255.848 247.882 258.984 247.882 262.568ZM236.682 259.688C236.682 257.811 236.042 256.317 234.762 255.208C233.482 254.099 231.882 253.544 229.962 253.544C228.127 253.544 226.57 254.077 225.29 255.144C224.053 256.211 223.285 257.725 222.986 259.688H236.682ZM259.16 241.576C257.24 241.576 255.661 241.021 254.424 239.912C253.229 238.76 252.632 237.352 252.632 235.688C252.632 233.981 253.229 232.573 254.424 231.464C255.661 230.312 257.24 229.736 259.16 229.736C261.037 229.736 262.573 230.312 263.768 231.464C265.005 232.573 265.624 233.981 265.624 235.688C265.624 237.352 265.005 238.76 263.768 239.912C262.573 241.021 261.037 241.576 259.16 241.576ZM264.6 245.288V281H253.656V245.288H264.6ZM292.435 271.72V281H286.867C282.899 281 279.805 280.04 277.587 278.12C275.368 276.157 274.259 272.979 274.259 268.584V254.376H269.907V245.288H274.259V236.584H285.203V245.288H292.371V254.376H285.203V268.712C285.203 269.779 285.459 270.547 285.971 271.016C286.483 271.485 287.336 271.72 288.531 271.72H292.435ZM296.355 263.08C296.355 259.411 297.037 256.189 298.403 253.416C299.811 250.643 301.709 248.509 304.099 247.016C306.488 245.523 309.155 244.776 312.099 244.776C314.616 244.776 316.813 245.288 318.691 246.312C320.611 247.336 322.083 248.68 323.107 250.344V245.288H334.051V281H323.107V275.944C322.04 277.608 320.547 278.952 318.627 279.976C316.749 281 314.552 281.512 312.035 281.512C309.133 281.512 306.488 280.765 304.099 279.272C301.709 277.736 299.811 275.581 298.403 272.808C297.037 269.992 296.355 266.749 296.355 263.08ZM323.107 263.144C323.107 260.413 322.339 258.259 320.803 256.68C319.309 255.101 317.475 254.312 315.299 254.312C313.123 254.312 311.267 255.101 309.731 256.68C308.237 258.216 307.491 260.349 307.491 263.08C307.491 265.811 308.237 267.987 309.731 269.608C311.267 271.187 313.123 271.976 315.299 271.976C317.475 271.976 319.309 271.187 320.803 269.608C322.339 268.029 323.107 265.875 323.107 263.144ZM356.496 281.512C353.381 281.512 350.608 280.979 348.176 279.912C345.744 278.845 343.824 277.395 342.416 275.56C341.008 273.683 340.219 271.592 340.048 269.288H350.864C350.992 270.525 351.568 271.528 352.592 272.296C353.616 273.064 354.875 273.448 356.368 273.448C357.733 273.448 358.779 273.192 359.504 272.68C360.272 272.125 360.656 271.421 360.656 270.568C360.656 269.544 360.123 268.797 359.056 268.328C357.989 267.816 356.261 267.261 353.872 266.664C351.312 266.067 349.179 265.448 347.472 264.808C345.765 264.125 344.293 263.08 343.056 261.672C341.819 260.221 341.2 258.28 341.2 255.848C341.2 253.8 341.755 251.944 342.864 250.28C344.016 248.573 345.68 247.229 347.856 246.248C350.075 245.267 352.699 244.776 355.728 244.776C360.208 244.776 363.728 245.885 366.288 248.104C368.891 250.323 370.384 253.267 370.768 256.936H360.656C360.485 255.699 359.931 254.717 358.992 253.992C358.096 253.267 356.901 252.904 355.408 252.904C354.128 252.904 353.147 253.16 352.464 253.672C351.781 254.141 351.44 254.803 351.44 255.656C351.44 256.68 351.973 257.448 353.04 257.96C354.149 258.472 355.856 258.984 358.16 259.496C360.805 260.179 362.96 260.861 364.624 261.544C366.288 262.184 367.739 263.251 368.976 264.744C370.256 266.195 370.917 268.157 370.96 270.632C370.96 272.723 370.363 274.6 369.168 276.264C368.016 277.885 366.331 279.165 364.112 280.104C361.936 281.043 359.397 281.512 356.496 281.512Z" fill="#FFEBEB"/>
<path d="M186.345 329.92C185.762 328.847 184.919 328.034 183.815 327.482C182.741 326.899 181.469 326.608 179.997 326.608C177.451 326.608 175.412 327.451 173.879 329.138C172.345 330.794 171.579 333.017 171.579 335.808C171.579 338.783 172.376 341.113 173.971 342.8C175.596 344.456 177.819 345.284 180.641 345.284C182.573 345.284 184.198 344.793 185.517 343.812C186.866 342.831 187.847 341.42 188.461 339.58H178.479V333.784H195.591V341.098C195.008 343.061 194.011 344.885 192.601 346.572C191.221 348.259 189.457 349.623 187.311 350.666C185.164 351.709 182.741 352.23 180.043 352.23C176.853 352.23 174.001 351.54 171.487 350.16C169.003 348.749 167.055 346.802 165.645 344.318C164.265 341.834 163.575 338.997 163.575 335.808C163.575 332.619 164.265 329.782 165.645 327.298C167.055 324.783 169.003 322.836 171.487 321.456C173.971 320.045 176.807 319.34 179.997 319.34C183.861 319.34 187.111 320.275 189.749 322.146C192.417 324.017 194.18 326.608 195.039 329.92H186.345ZM198.384 339.12C198.384 336.483 198.874 334.167 199.856 332.174C200.868 330.181 202.232 328.647 203.95 327.574C205.667 326.501 207.584 325.964 209.7 325.964C211.509 325.964 213.088 326.332 214.438 327.068C215.818 327.804 216.876 328.77 217.612 329.966V326.332H225.478V352H217.612V348.366C216.845 349.562 215.772 350.528 214.392 351.264C213.042 352 211.463 352.368 209.654 352.368C207.568 352.368 205.667 351.831 203.95 350.758C202.232 349.654 200.868 348.105 199.856 346.112C198.874 344.088 198.384 341.757 198.384 339.12ZM217.612 339.166C217.612 337.203 217.06 335.655 215.956 334.52C214.882 333.385 213.564 332.818 212 332.818C210.436 332.818 209.102 333.385 207.998 334.52C206.924 335.624 206.388 337.157 206.388 339.12C206.388 341.083 206.924 342.647 207.998 343.812C209.102 344.947 210.436 345.514 212 345.514C213.564 345.514 214.882 344.947 215.956 343.812C217.06 342.677 217.612 341.129 217.612 339.166ZM245.474 345.33V352H241.472C238.62 352 236.397 351.31 234.802 349.93C233.208 348.519 232.41 346.235 232.41 343.076V332.864H229.282V326.332H232.41V320.076H240.276V326.332H245.428V332.864H240.276V343.168C240.276 343.935 240.46 344.487 240.828 344.824C241.196 345.161 241.81 345.33 242.668 345.33H245.474ZM261.54 352.368C259.025 352.368 256.756 351.831 254.732 350.758C252.739 349.685 251.159 348.151 249.994 346.158C248.859 344.165 248.292 341.834 248.292 339.166C248.292 336.529 248.875 334.213 250.04 332.22C251.205 330.196 252.8 328.647 254.824 327.574C256.848 326.501 259.117 325.964 261.632 325.964C264.147 325.964 266.416 326.501 268.44 327.574C270.464 328.647 272.059 330.196 273.224 332.22C274.389 334.213 274.972 336.529 274.972 339.166C274.972 341.803 274.374 344.134 273.178 346.158C272.013 348.151 270.403 349.685 268.348 350.758C266.324 351.831 264.055 352.368 261.54 352.368ZM261.54 345.56C263.043 345.56 264.315 345.008 265.358 343.904C266.431 342.8 266.968 341.221 266.968 339.166C266.968 337.111 266.447 335.532 265.404 334.428C264.392 333.324 263.135 332.772 261.632 332.772C260.099 332.772 258.826 333.324 257.814 334.428C256.802 335.501 256.296 337.081 256.296 339.166C256.296 341.221 256.787 342.8 257.768 343.904C258.78 345.008 260.037 345.56 261.54 345.56ZM289.587 352.368C287.348 352.368 285.355 351.985 283.607 351.218C281.859 350.451 280.479 349.409 279.467 348.09C278.455 346.741 277.888 345.238 277.765 343.582H285.539C285.631 344.471 286.045 345.192 286.781 345.744C287.517 346.296 288.422 346.572 289.495 346.572C290.476 346.572 291.228 346.388 291.749 346.02C292.301 345.621 292.577 345.115 292.577 344.502C292.577 343.766 292.194 343.229 291.427 342.892C290.66 342.524 289.418 342.125 287.701 341.696C285.861 341.267 284.328 340.822 283.101 340.362C281.874 339.871 280.816 339.12 279.927 338.108C279.038 337.065 278.593 335.67 278.593 333.922C278.593 332.45 278.992 331.116 279.789 329.92C280.617 328.693 281.813 327.727 283.377 327.022C284.972 326.317 286.858 325.964 289.035 325.964C292.255 325.964 294.785 326.761 296.625 328.356C298.496 329.951 299.569 332.067 299.845 334.704H292.577C292.454 333.815 292.056 333.109 291.381 332.588C290.737 332.067 289.878 331.806 288.805 331.806C287.885 331.806 287.18 331.99 286.689 332.358C286.198 332.695 285.953 333.171 285.953 333.784C285.953 334.52 286.336 335.072 287.103 335.44C287.9 335.808 289.127 336.176 290.783 336.544C292.684 337.035 294.233 337.525 295.429 338.016C296.625 338.476 297.668 339.243 298.557 340.316C299.477 341.359 299.952 342.769 299.983 344.548C299.983 346.051 299.554 347.4 298.695 348.596C297.867 349.761 296.656 350.681 295.061 351.356C293.497 352.031 291.672 352.368 289.587 352.368Z" fill="#FFEBEB"/>
</svg>
