<?xml version="1.0" encoding="utf-8"?>
<!-- Generator: Adobe Illustrator 27.0.1, SVG Export Plug-In . SVG Version: 6.00 Build 0)  -->
<svg version="1.1" id="Camada_1" xmlns="http://www.w3.org/2000/svg" xmlns:xlink="http://www.w3.org/1999/xlink" x="0px" y="0px"
	 viewBox="0 0 1920 1080" style="enable-background:new 0 0 1920 1080;" xml:space="preserve">
<style type="text/css">
	.st0{fill:#F1F1F1;}
</style>
<g>
	<path class="st0" d="M1060,284c8.09,3.51,11.07,9.6,11.43,18.46c2.12,51.75,42.23,91.53,94.06,93.85
		c13.27,0.59,18.32,5.79,18.32,18.91c0.01,24.5,0.01,48.99,0,73.49c-0.01,12.51-5.92,18.37-18.48,18.09
		c-31.25-0.68-60.99-7.67-89.01-21.67c-1.19-0.59-2.38-1.2-3.59-1.74c-0.26-0.12-0.63,0.01-1.54,0.05c0,1.89,0,3.81,0,5.73
		c-0.04,48.16,0.4,96.33-0.22,144.48c-0.96,75.03-57.38,142.88-130.93,158.29c-7.95,1.66-16.02,2.72-24.03,4.05
		c-8.33,0-16.67,0-25,0c-8.97-1.61-18.02-2.88-26.89-4.89c-63.02-14.32-114.08-68.36-125.24-132.35
		c-14.11-80.9,29.05-157.54,105.49-187.13c18.82-7.29,38.39-10.86,58.59-10.78c8.96,0.04,15.53,5.75,15.62,14.72
		c0.27,26.82,0.26,53.65,0.02,80.47c-0.08,9.14-6.4,14.62-15.93,15.03c-30.51,1.3-53.36,22.99-56.09,53.24
		c-2.57,28.47,18.44,55.5,47.02,60.48c29.21,5.09,57.96-13.06,65.22-41.51c1.42-5.58,2.06-11.5,2.07-17.27
		c0.12-107.47,0.16-214.94-0.05-322.41c-0.02-9.2,2.75-15.73,11.17-19.6C1001.33,284,1030.67,284,1060,284z M990.96,314.18
		c0,2.28,0,4.24,0,6.19c0,63.67,0,127.33,0,191c0,39.67,0.37,79.34-0.12,119c-0.68,54.72-53.22,95.56-106.32,83.17
		c-40.09-9.35-68.21-44.47-68.24-85.24c-0.04-40.39,27.93-75.56,67.89-84.94c3.89-0.91,4.65-2.46,4.61-5.97
		c-0.16-13.5-0.06-27-0.07-40.5c0-1.59-0.15-3.17-0.25-5.25c-3.54,0.51-6.49,0.87-9.41,1.35c-71.47,11.83-122.87,83.01-111.72,154.7
		c11.55,74.26,75.95,124.42,150.82,117.46c67.1-6.24,122.01-64.7,122.81-131.99c0.69-57.82,0.2-115.66,0.25-173.5
		c0-2.16-0.04-4.36,0.35-6.47c1.6-8.78,9.51-14.17,18.11-12.05c2.8,0.69,5.47,2.41,7.9,4.08c17.74,12.2,36.96,21.18,57.91,26.17
		c9.12,2.17,18.45,3.49,28.34,5.31c0-17.03,0.08-32.83-0.18-48.63c-0.02-1.05-2.45-2.69-3.96-2.98
		c-52.98-10.13-87.68-40.8-103.72-92.33c-1.87-5.99-2.8-12.28-4.21-18.59C1025.08,314.18,1008.44,314.18,990.96,314.18z"/>
</g>
</svg>
