<svg width="26" height="30" viewBox="0 0 26 30" fill="none" xmlns="http://www.w3.org/2000/svg">
<g clip-path="url(#clip0_459_6)">
<path d="M18.8078 9.76562e-05C19.2777 0.205762 19.4508 0.562598 19.4717 1.08174C19.5949 4.11396 21.9247 6.44482 24.9353 6.58076C25.7061 6.61533 25.9995 6.92002 25.9995 7.68877C25.9995 9.12432 26 10.5593 25.9995 11.9948C25.9995 12.7278 25.6556 13.0712 24.926 13.0548C23.1108 13.0149 21.3833 12.6054 19.7558 11.7851C19.6866 11.7505 19.6175 11.7147 19.5472 11.6831C19.5321 11.6761 19.5106 11.6837 19.4578 11.686C19.4578 11.7968 19.4578 11.9093 19.4578 12.0218C19.4555 14.8437 19.481 17.6661 19.445 20.4874C19.3892 24.8837 16.112 28.8593 11.8398 29.7622C11.378 29.8595 10.9092 29.9216 10.444 29.9995H8.9918C8.47077 29.9052 7.94509 29.8308 7.42986 29.713C3.76926 28.8739 0.803378 25.7075 0.155135 21.9581C-0.664462 17.2179 1.84254 12.7272 6.28266 10.9935C7.37584 10.5663 8.51259 10.3571 9.68593 10.3618C10.2064 10.3642 10.588 10.6987 10.5932 11.2243C10.6089 12.7958 10.6083 14.3679 10.5944 15.9394C10.5898 16.4749 10.2227 16.796 9.66909 16.82C7.89688 16.8962 6.5696 18.1671 6.41103 19.9396C6.26175 21.6077 7.48214 23.1915 9.14225 23.4833C10.8389 23.7815 12.5089 22.7181 12.9306 21.0511C13.0131 20.7241 13.0503 20.3772 13.0509 20.0392C13.0578 13.7421 13.0602 7.44502 13.048 1.14795C13.0468 0.608887 13.2077 0.22627 13.6968 -0.000488281H18.8084L18.8078 9.76562e-05ZM14.7975 1.76846C14.7975 1.90205 14.7975 2.01689 14.7975 2.13115C14.7975 5.86182 14.7975 9.59189 14.7975 13.3226C14.7975 15.647 14.819 17.9714 14.7906 20.2952C14.7511 23.5015 11.6992 25.8944 8.61482 25.1685C6.28614 24.6206 4.65276 22.5628 4.65101 20.1739C4.64869 17.8073 6.27336 15.7466 8.59449 15.197C8.82045 15.1437 8.86459 15.0528 8.86227 14.8472C8.85298 14.0562 8.85878 13.2651 8.8582 12.4741C8.8582 12.381 8.84949 12.2884 8.84368 12.1665C8.63806 12.1964 8.4667 12.2175 8.29709 12.2456C4.14566 12.9388 1.16003 17.1095 1.80769 21.3101C2.47859 25.6612 6.21934 28.6003 10.5683 28.1925C14.4659 27.8269 17.6554 24.4015 17.7018 20.4587C17.7419 17.0708 17.7135 13.6817 17.7164 10.2927C17.7164 10.1661 17.714 10.0372 17.7367 9.91357C17.8296 9.39912 18.2891 9.0833 18.7886 9.20752C18.9513 9.24795 19.1064 9.34873 19.2475 9.44658C20.278 10.1614 21.3944 10.6876 22.6113 10.98C23.141 11.1071 23.683 11.1845 24.2575 11.2911C24.2575 10.2933 24.2621 9.36748 24.247 8.4417C24.2458 8.38018 24.1047 8.28408 24.017 8.26709C20.9396 7.67353 18.924 5.87646 17.9923 2.85713C17.8836 2.50615 17.8296 2.1376 17.7477 1.76787H14.7981L14.7975 1.76846Z" fill="#FFEBEB"/>
</g>
<defs>
<clipPath id="clip0_459_6">
<rect width="26" height="30" fill="white"/>
</clipPath>
</defs>
</svg>
