<svg width="351" height="41" viewBox="0 0 351 41" fill="none" xmlns="http://www.w3.org/2000/svg">
<rect width="351" height="41" fill="#FFEBEB"/>
<rect x="270" width="81" height="41" fill="#EF835A"/>
<path d="M302.612 33.252C301.156 33.252 299.84 32.9253 298.664 32.272C297.488 31.6 296.564 30.6667 295.892 29.472C295.22 28.2587 294.884 26.8587 294.884 25.272C294.884 23.704 295.23 22.3133 295.92 21.1C296.611 19.8867 297.554 18.9533 298.748 18.3C299.943 17.6467 301.278 17.32 302.752 17.32C304.227 17.32 305.562 17.6467 306.756 18.3C307.951 18.9533 308.894 19.8867 309.584 21.1C310.275 22.3133 310.62 23.704 310.62 25.272C310.62 26.84 310.266 28.2307 309.556 29.444C308.847 30.6573 307.876 31.6 306.644 32.272C305.431 32.9253 304.087 33.252 302.612 33.252ZM302.612 30.48C303.434 30.48 304.199 30.284 304.908 29.892C305.636 29.5 306.224 28.912 306.672 28.128C307.12 27.344 307.344 26.392 307.344 25.272C307.344 24.152 307.13 23.2093 306.7 22.444C306.271 21.66 305.702 21.072 304.992 20.68C304.283 20.288 303.518 20.092 302.696 20.092C301.875 20.092 301.11 20.288 300.4 20.68C299.71 21.072 299.159 21.66 298.748 22.444C298.338 23.2093 298.132 24.152 298.132 25.272C298.132 26.9333 298.552 28.2213 299.392 29.136C300.251 30.032 301.324 30.48 302.612 30.48ZM319.88 25.3L326.992 33H322.68L316.968 26.364V33H313.776V12.28H316.968V24.32L322.568 17.572H326.992L319.88 25.3Z" fill="#FFEBEB"/>
<path d="M13.5322 14.116V19.828H20.2522V22.432H13.5322V28.396H21.0922V31H10.3402V11.512H21.0922V14.116H13.5322ZM43.6998 15.32C44.9132 15.32 45.9958 15.572 46.9478 16.076C47.9185 16.58 48.6745 17.3267 49.2158 18.316C49.7758 19.3053 50.0558 20.5 50.0558 21.9V31H46.8918V22.376C46.8918 20.9947 46.5465 19.94 45.8558 19.212C45.1652 18.4653 44.2225 18.092 43.0278 18.092C41.8332 18.092 40.8812 18.4653 40.1718 19.212C39.4812 19.94 39.1358 20.9947 39.1358 22.376V31H35.9718V22.376C35.9718 20.9947 35.6265 19.94 34.9358 19.212C34.2452 18.4653 33.3025 18.092 32.1078 18.092C30.9132 18.092 29.9612 18.4653 29.2518 19.212C28.5612 19.94 28.2158 20.9947 28.2158 22.376V31H25.0238V15.572H28.2158V17.336C28.7385 16.7013 29.4012 16.2067 30.2038 15.852C31.0065 15.4973 31.8652 15.32 32.7798 15.32C34.0118 15.32 35.1132 15.5813 36.0838 16.104C37.0545 16.6267 37.8012 17.3827 38.3238 18.372C38.7905 17.4387 39.5185 16.7013 40.5078 16.16C41.4972 15.6 42.5612 15.32 43.6998 15.32ZM53.0536 23.216C53.0536 21.6667 53.3709 20.2947 54.0056 19.1C54.6589 17.9053 55.5362 16.9813 56.6376 16.328C57.7576 15.656 58.9896 15.32 60.3336 15.32C61.5469 15.32 62.6016 15.5627 63.4976 16.048C64.4122 16.5147 65.1402 17.1027 65.6816 17.812V15.572H68.9016V31H65.6816V28.704C65.1402 29.432 64.4029 30.0387 63.4696 30.524C62.5362 31.0093 61.4722 31.252 60.2776 31.252C58.9522 31.252 57.7389 30.916 56.6376 30.244C55.5362 29.5533 54.6589 28.6013 54.0056 27.388C53.3709 26.156 53.0536 24.7653 53.0536 23.216ZM65.6816 23.272C65.6816 22.208 65.4576 21.284 65.0096 20.5C64.5802 19.716 64.0109 19.1187 63.3016 18.708C62.5922 18.2973 61.8269 18.092 61.0056 18.092C60.1842 18.092 59.4189 18.2973 58.7096 18.708C58.0002 19.1 57.4216 19.688 56.9736 20.472C56.5442 21.2373 56.3296 22.152 56.3296 23.216C56.3296 24.28 56.5442 25.2133 56.9736 26.016C57.4216 26.8187 58.0002 27.4347 58.7096 27.864C59.4376 28.2747 60.2029 28.48 61.0056 28.48C61.8269 28.48 62.5922 28.2747 63.3016 27.864C64.0109 27.4533 64.5802 26.856 65.0096 26.072C65.4576 25.2693 65.6816 24.336 65.6816 23.272ZM74.7181 13.528C74.1395 13.528 73.6541 13.332 73.2621 12.94C72.8701 12.548 72.6741 12.0627 72.6741 11.484C72.6741 10.9053 72.8701 10.42 73.2621 10.028C73.6541 9.636 74.1395 9.44 74.7181 9.44C75.2781 9.44 75.7541 9.636 76.1461 10.028C76.5381 10.42 76.7341 10.9053 76.7341 11.484C76.7341 12.0627 76.5381 12.548 76.1461 12.94C75.7541 13.332 75.2781 13.528 74.7181 13.528ZM76.2861 15.572V31H73.0941V15.572H76.2861ZM83.669 10.28V31H80.477V10.28H83.669Z" fill="#F68C64"/>
</svg>
