<svg width="246" height="306" viewBox="0 0 246 306" fill="none" xmlns="http://www.w3.org/2000/svg">
<rect width="246" height="306" rx="15" fill="#FFEBEB"/>
<path d="M41.833 67.796C41.833 65.9933 42.2056 64.39 42.951 62.986C43.7136 61.5647 44.7883 60.464 46.175 59.684C47.5616 58.8867 49.1563 58.488 50.959 58.488C53.247 58.488 55.171 59.1033 56.731 60.334C58.291 61.5473 59.2963 63.2027 59.747 65.3H54.261C53.9316 64.6067 53.4723 64.078 52.883 63.714C52.311 63.35 51.6436 63.168 50.881 63.168C49.7023 63.168 48.7576 63.5927 48.047 64.442C47.3536 65.274 47.007 66.392 47.007 67.796C47.007 69.2173 47.3536 70.3527 48.047 71.202C48.7576 72.034 49.7023 72.45 50.881 72.45C51.6436 72.45 52.311 72.268 52.883 71.904C53.4723 71.54 53.9316 71.0113 54.261 70.318H59.747C59.2963 72.4153 58.291 74.0793 56.731 75.31C55.171 76.5233 53.247 77.13 50.959 77.13C49.1563 77.13 47.5616 76.74 46.175 75.96C44.7883 75.1627 43.7136 74.062 42.951 72.658C42.2056 71.2367 41.833 69.616 41.833 67.796ZM61.3281 69.694C61.3281 68.186 61.5968 66.8687 62.1341 65.742C62.6888 64.6153 63.4341 63.7487 64.3701 63.142C65.3234 62.5353 66.3808 62.232 67.5421 62.232C68.5474 62.232 69.4141 62.4313 70.1421 62.83C70.8701 63.2287 71.4334 63.766 71.8321 64.442V62.414H76.9281V77H71.8321V74.972C71.4334 75.648 70.8614 76.1853 70.1161 76.584C69.3881 76.9827 68.5301 77.182 67.5421 77.182C66.3808 77.182 65.3234 76.8787 64.3701 76.272C63.4341 75.6653 62.6888 74.7987 62.1341 73.672C61.5968 72.528 61.3281 71.202 61.3281 69.694ZM71.8321 69.694C71.8321 68.758 71.5721 68.0213 71.0521 67.484C70.5494 66.9467 69.9254 66.678 69.1801 66.678C68.4174 66.678 67.7848 66.9467 67.2821 67.484C66.7794 68.004 66.5281 68.7407 66.5281 69.694C66.5281 70.63 66.7794 71.3753 67.2821 71.93C67.7848 72.4673 68.4174 72.736 69.1801 72.736C69.9254 72.736 70.5494 72.4673 71.0521 71.93C71.5721 71.3927 71.8321 70.6473 71.8321 69.694ZM64.0061 61.322C64.4914 58.4967 65.7914 57.084 67.9061 57.084C68.3048 57.084 68.6601 57.1447 68.9721 57.266C69.3014 57.3873 69.6741 57.5607 70.0901 57.786C70.3848 57.942 70.6361 58.0633 70.8441 58.15C71.0521 58.2367 71.2601 58.28 71.4681 58.28C72.1094 58.28 72.4908 57.8813 72.6121 57.084H75.1861C74.9434 58.5573 74.4841 59.632 73.8081 60.308C73.1494 60.9667 72.3088 61.296 71.2861 61.296C70.9048 61.296 70.5581 61.244 70.2461 61.14C69.9341 61.0187 69.5528 60.8453 69.1021 60.62C68.8074 60.464 68.5561 60.3427 68.3481 60.256C68.1401 60.1693 67.9321 60.126 67.7241 60.126C67.1001 60.126 66.7101 60.5247 66.5541 61.322H64.0061ZM93.768 69.538C93.768 69.9367 93.742 70.3353 93.69 70.734H84.044C84.096 71.5313 84.3126 72.1293 84.694 72.528C85.0926 72.9093 85.5953 73.1 86.202 73.1C87.0513 73.1 87.658 72.7187 88.022 71.956H93.456C93.2306 72.9613 92.7886 73.8627 92.13 74.66C91.4886 75.44 90.674 76.0553 89.686 76.506C88.698 76.9567 87.606 77.182 86.41 77.182C84.9713 77.182 83.6886 76.8787 82.562 76.272C81.4526 75.6653 80.5773 74.7987 79.936 73.672C79.312 72.5453 79 71.2193 79 69.694C79 68.1687 79.312 66.8513 79.936 65.742C80.56 64.6153 81.4266 63.7487 82.536 63.142C83.6626 62.5353 84.954 62.232 86.41 62.232C87.8486 62.232 89.1226 62.5267 90.232 63.116C91.3413 63.7053 92.208 64.5547 92.832 65.664C93.456 66.756 93.768 68.0473 93.768 69.538ZM88.568 68.264C88.568 67.64 88.36 67.1547 87.944 66.808C87.528 66.444 87.008 66.262 86.384 66.262C85.76 66.262 85.2486 66.4353 84.85 66.782C84.4513 67.1113 84.1913 67.6053 84.07 68.264H88.568ZM102.067 77.182C100.75 77.182 99.5715 76.9653 98.5315 76.532C97.5088 76.0813 96.6941 75.4747 96.0875 74.712C95.4981 73.932 95.1688 73.0567 95.0995 72.086H100.039C100.109 72.554 100.325 72.918 100.689 73.178C101.053 73.438 101.504 73.568 102.041 73.568C102.457 73.568 102.787 73.4813 103.029 73.308C103.272 73.1347 103.393 72.9093 103.393 72.632C103.393 72.268 103.194 71.9993 102.795 71.826C102.397 71.6527 101.738 71.462 100.819 71.254C99.7795 71.046 98.9128 70.812 98.2195 70.552C97.5261 70.292 96.9195 69.8673 96.3995 69.278C95.8968 68.6887 95.6455 67.8913 95.6455 66.886C95.6455 66.0193 95.8795 65.2393 96.3475 64.546C96.8155 63.8353 97.5001 63.272 98.4015 62.856C99.3201 62.44 100.421 62.232 101.703 62.232C103.61 62.232 105.109 62.7 106.201 63.636C107.293 64.572 107.926 65.8027 108.099 67.328H103.497C103.411 66.86 103.203 66.5047 102.873 66.262C102.561 66.002 102.137 65.872 101.599 65.872C101.183 65.872 100.863 65.95 100.637 66.106C100.429 66.262 100.325 66.4787 100.325 66.756C100.325 67.1027 100.525 67.3713 100.923 67.562C101.322 67.7353 101.963 67.9173 102.847 68.108C103.905 68.3333 104.78 68.5847 105.473 68.862C106.184 69.1393 106.799 69.59 107.319 70.214C107.857 70.8207 108.125 71.6527 108.125 72.71C108.125 73.5593 107.874 74.322 107.371 74.998C106.886 75.674 106.184 76.2113 105.265 76.61C104.364 76.9913 103.298 77.182 102.067 77.182ZM114.775 69.694C114.775 68.186 115.044 66.8687 115.581 65.742C116.136 64.6153 116.881 63.7487 117.817 63.142C118.771 62.5353 119.828 62.232 120.989 62.232C121.995 62.232 122.861 62.4313 123.589 62.83C124.317 63.2287 124.881 63.766 125.279 64.442V62.414H130.375V77H125.279V74.972C124.881 75.648 124.309 76.1853 123.563 76.584C122.835 76.9827 121.977 77.182 120.989 77.182C119.828 77.182 118.771 76.8787 117.817 76.272C116.881 75.6653 116.136 74.7987 115.581 73.672C115.044 72.528 114.775 71.202 114.775 69.694ZM125.279 69.694C125.279 68.758 125.019 68.0213 124.499 67.484C123.997 66.9467 123.373 66.678 122.627 66.678C121.865 66.678 121.232 66.9467 120.729 67.484C120.227 68.004 119.975 68.7407 119.975 69.694C119.975 70.63 120.227 71.3753 120.729 71.93C121.232 72.4673 121.865 72.736 122.627 72.736C123.373 72.736 123.997 72.4673 124.499 71.93C125.019 71.3927 125.279 70.6473 125.279 69.694ZM152.337 62.284C154.175 62.284 155.613 62.8387 156.653 63.948C157.711 65.0573 158.239 66.574 158.239 68.498V77H153.143V69.174C153.143 68.394 152.927 67.7873 152.493 67.354C152.06 66.9207 151.471 66.704 150.725 66.704C149.98 66.704 149.391 66.9207 148.957 67.354C148.524 67.7873 148.307 68.394 148.307 69.174V77H143.211V69.174C143.211 68.394 142.995 67.7873 142.561 67.354C142.145 66.9207 141.565 66.704 140.819 66.704C140.057 66.704 139.459 66.9207 139.025 67.354C138.592 67.7873 138.375 68.394 138.375 69.174V77H133.279V62.414H138.375V64.338C138.826 63.714 139.407 63.22 140.117 62.856C140.845 62.4747 141.677 62.284 142.613 62.284C143.688 62.284 144.641 62.518 145.473 62.986C146.323 63.454 146.99 64.1127 147.475 64.962C147.995 64.1647 148.68 63.5233 149.529 63.038C150.379 62.5353 151.315 62.284 152.337 62.284ZM160.199 69.694C160.199 68.186 160.468 66.8687 161.005 65.742C161.56 64.6153 162.305 63.7487 163.241 63.142C164.195 62.5353 165.252 62.232 166.413 62.232C167.419 62.232 168.285 62.4313 169.013 62.83C169.741 63.2287 170.305 63.766 170.703 64.442V62.414H175.799V77H170.703V74.972C170.305 75.648 169.733 76.1853 168.987 76.584C168.259 76.9827 167.401 77.182 166.413 77.182C165.252 77.182 164.195 76.8787 163.241 76.272C162.305 75.6653 161.56 74.7987 161.005 73.672C160.468 72.528 160.199 71.202 160.199 69.694ZM170.703 69.694C170.703 68.758 170.443 68.0213 169.923 67.484C169.421 66.9467 168.797 66.678 168.051 66.678C167.289 66.678 166.656 66.9467 166.153 67.484C165.651 68.004 165.399 68.7407 165.399 69.694C165.399 70.63 165.651 71.3753 166.153 71.93C166.656 72.4673 167.289 72.736 168.051 72.736C168.797 72.736 169.421 72.4673 169.923 71.93C170.443 71.3927 170.703 70.6473 170.703 69.694ZM197.761 62.284C199.598 62.284 201.037 62.8387 202.077 63.948C203.134 65.0573 203.663 66.574 203.663 68.498V77H198.567V69.174C198.567 68.394 198.35 67.7873 197.917 67.354C197.484 66.9207 196.894 66.704 196.149 66.704C195.404 66.704 194.814 66.9207 194.381 67.354C193.948 67.7873 193.731 68.394 193.731 69.174V77H188.635V69.174C188.635 68.394 188.418 67.7873 187.985 67.354C187.569 66.9207 186.988 66.704 186.243 66.704C185.48 66.704 184.882 66.9207 184.449 67.354C184.016 67.7873 183.799 68.394 183.799 69.174V77H178.703V62.414H183.799V64.338C184.25 63.714 184.83 63.22 185.541 62.856C186.269 62.4747 187.101 62.284 188.037 62.284C189.112 62.284 190.065 62.518 190.897 62.986C191.746 63.454 192.414 64.1127 192.899 64.962C193.419 64.1647 194.104 63.5233 194.953 63.038C195.802 62.5353 196.738 62.284 197.761 62.284ZM66.1897 103.442C66.5884 102.766 67.1517 102.229 67.8797 101.83C68.6077 101.431 69.4657 101.232 70.4537 101.232C71.615 101.232 72.6637 101.535 73.5997 102.142C74.553 102.749 75.2984 103.615 75.8357 104.742C76.3904 105.869 76.6677 107.186 76.6677 108.694C76.6677 110.202 76.3904 111.528 75.8357 112.672C75.2984 113.799 74.553 114.665 73.5997 115.272C72.6637 115.879 71.615 116.182 70.4537 116.182C69.4657 116.182 68.6077 115.983 67.8797 115.584C67.169 115.185 66.6057 114.648 66.1897 113.972V122.968H61.0937V101.414H66.1897V103.442ZM71.4937 108.694C71.4937 107.741 71.2337 107.004 70.7137 106.484C70.211 105.947 69.587 105.678 68.8417 105.678C68.0964 105.678 67.4637 105.947 66.9437 106.484C66.441 107.021 66.1897 107.758 66.1897 108.694C66.1897 109.647 66.441 110.393 66.9437 110.93C67.4637 111.467 68.0964 111.736 68.8417 111.736C69.587 111.736 70.211 111.467 70.7137 110.93C71.2337 110.375 71.4937 109.63 71.4937 108.694ZM77.9336 108.694C77.9336 107.186 78.2022 105.869 78.7396 104.742C79.2942 103.615 80.0396 102.749 80.9756 102.142C81.9289 101.535 82.9862 101.232 84.1476 101.232C85.1529 101.232 86.0196 101.431 86.7476 101.83C87.4756 102.229 88.0389 102.766 88.4376 103.442V101.414H93.5336V116H88.4376V113.972C88.0389 114.648 87.4669 115.185 86.7216 115.584C85.9936 115.983 85.1356 116.182 84.1476 116.182C82.9862 116.182 81.9289 115.879 80.9756 115.272C80.0396 114.665 79.2942 113.799 78.7396 112.672C78.2022 111.528 77.9336 110.202 77.9336 108.694ZM88.4376 108.694C88.4376 107.758 88.1776 107.021 87.6576 106.484C87.1549 105.947 86.5309 105.678 85.7856 105.678C85.0229 105.678 84.3902 105.947 83.8876 106.484C83.3849 107.004 83.1336 107.741 83.1336 108.694C83.1336 109.63 83.3849 110.375 83.8876 110.93C84.3902 111.467 85.0229 111.736 85.7856 111.736C86.5309 111.736 87.1549 111.467 87.6576 110.93C88.1776 110.393 88.4376 109.647 88.4376 108.694ZM102.651 116.182C101.334 116.182 100.155 115.965 99.1154 115.532C98.0928 115.081 97.2781 114.475 96.6714 113.712C96.0821 112.932 95.7528 112.057 95.6834 111.086H100.623C100.693 111.554 100.909 111.918 101.273 112.178C101.637 112.438 102.088 112.568 102.625 112.568C103.041 112.568 103.371 112.481 103.613 112.308C103.856 112.135 103.977 111.909 103.977 111.632C103.977 111.268 103.778 110.999 103.379 110.826C102.981 110.653 102.322 110.462 101.403 110.254C100.363 110.046 99.4968 109.812 98.8034 109.552C98.1101 109.292 97.5034 108.867 96.9834 108.278C96.4808 107.689 96.2294 106.891 96.2294 105.886C96.2294 105.019 96.4634 104.239 96.9314 103.546C97.3994 102.835 98.0841 102.272 98.9854 101.856C99.9041 101.44 101.005 101.232 102.287 101.232C104.194 101.232 105.693 101.7 106.785 102.636C107.877 103.572 108.51 104.803 108.683 106.328H104.081C103.995 105.86 103.787 105.505 103.457 105.262C103.145 105.002 102.721 104.872 102.183 104.872C101.767 104.872 101.447 104.95 101.221 105.106C101.013 105.262 100.909 105.479 100.909 105.756C100.909 106.103 101.109 106.371 101.507 106.562C101.906 106.735 102.547 106.917 103.431 107.108C104.489 107.333 105.364 107.585 106.057 107.862C106.768 108.139 107.383 108.59 107.903 109.214C108.441 109.821 108.709 110.653 108.709 111.71C108.709 112.559 108.458 113.322 107.955 113.998C107.47 114.674 106.768 115.211 105.849 115.61C104.948 115.991 103.882 116.182 102.651 116.182ZM117.429 116.182C116.111 116.182 114.933 115.965 113.893 115.532C112.87 115.081 112.055 114.475 111.449 113.712C110.859 112.932 110.53 112.057 110.461 111.086H115.401C115.47 111.554 115.687 111.918 116.051 112.178C116.415 112.438 116.865 112.568 117.403 112.568C117.819 112.568 118.148 112.481 118.391 112.308C118.633 112.135 118.755 111.909 118.755 111.632C118.755 111.268 118.555 110.999 118.157 110.826C117.758 110.653 117.099 110.462 116.181 110.254C115.141 110.046 114.274 109.812 113.581 109.552C112.887 109.292 112.281 108.867 111.761 108.278C111.258 107.689 111.007 106.891 111.007 105.886C111.007 105.019 111.241 104.239 111.709 103.546C112.177 102.835 112.861 102.272 113.763 101.856C114.681 101.44 115.782 101.232 117.065 101.232C118.971 101.232 120.471 101.7 121.563 102.636C122.655 103.572 123.287 104.803 123.461 106.328H118.859C118.772 105.86 118.564 105.505 118.235 105.262C117.923 105.002 117.498 104.872 116.961 104.872C116.545 104.872 116.224 104.95 115.999 105.106C115.791 105.262 115.687 105.479 115.687 105.756C115.687 106.103 115.886 106.371 116.285 106.562C116.683 106.735 117.325 106.917 118.209 107.108C119.266 107.333 120.141 107.585 120.835 107.862C121.545 108.139 122.161 108.59 122.681 109.214C123.218 109.821 123.487 110.653 123.487 111.71C123.487 112.559 123.235 113.322 122.733 113.998C122.247 114.674 121.545 115.211 120.627 115.61C119.725 115.991 118.659 116.182 117.429 116.182ZM139.928 108.538C139.928 108.937 139.902 109.335 139.85 109.734H130.204C130.256 110.531 130.473 111.129 130.854 111.528C131.253 111.909 131.755 112.1 132.362 112.1C133.211 112.1 133.818 111.719 134.182 110.956H139.616C139.391 111.961 138.949 112.863 138.29 113.66C137.649 114.44 136.834 115.055 135.846 115.506C134.858 115.957 133.766 116.182 132.57 116.182C131.131 116.182 129.849 115.879 128.722 115.272C127.613 114.665 126.737 113.799 126.096 112.672C125.472 111.545 125.16 110.219 125.16 108.694C125.16 107.169 125.472 105.851 126.096 104.742C126.72 103.615 127.587 102.749 128.696 102.142C129.823 101.535 131.114 101.232 132.57 101.232C134.009 101.232 135.283 101.527 136.392 102.116C137.501 102.705 138.368 103.555 138.992 104.664C139.616 105.756 139.928 107.047 139.928 108.538ZM134.728 107.264C134.728 106.64 134.52 106.155 134.104 105.808C133.688 105.444 133.168 105.262 132.544 105.262C131.92 105.262 131.409 105.435 131.01 105.782C130.611 106.111 130.351 106.605 130.23 107.264H134.728ZM141.182 108.694C141.182 107.186 141.45 105.869 141.988 104.742C142.542 103.615 143.288 102.749 144.224 102.142C145.177 101.535 146.234 101.232 147.396 101.232C148.401 101.232 149.268 101.431 149.996 101.83C150.724 102.229 151.287 102.766 151.686 103.442V101.414H156.782V116H151.686V113.972C151.287 114.648 150.715 115.185 149.97 115.584C149.242 115.983 148.384 116.182 147.396 116.182C146.234 116.182 145.177 115.879 144.224 115.272C143.288 114.665 142.542 113.799 141.988 112.672C141.45 111.528 141.182 110.202 141.182 108.694ZM151.686 108.694C151.686 107.758 151.426 107.021 150.906 106.484C150.403 105.947 149.779 105.678 149.034 105.678C148.271 105.678 147.638 105.947 147.136 106.484C146.633 107.004 146.382 107.741 146.382 108.694C146.382 109.63 146.633 110.375 147.136 110.93C147.638 111.467 148.271 111.736 149.034 111.736C149.779 111.736 150.403 111.467 150.906 110.93C151.426 110.393 151.686 109.647 151.686 108.694ZM164.781 103.988C165.353 103.156 166.047 102.497 166.861 102.012C167.676 101.527 168.551 101.284 169.487 101.284V106.718H168.057C166.948 106.718 166.125 106.935 165.587 107.368C165.05 107.801 164.781 108.555 164.781 109.63V116H159.685V101.414H164.781V103.988ZM178.126 96.734L177.528 109.136H173.186L172.588 96.734H178.126ZM175.37 116.208C174.469 116.208 173.741 115.965 173.186 115.48C172.649 114.977 172.38 114.345 172.38 113.582C172.38 112.819 172.649 112.187 173.186 111.684C173.741 111.181 174.469 110.93 175.37 110.93C176.254 110.93 176.965 111.181 177.502 111.684C178.057 112.187 178.334 112.819 178.334 113.582C178.334 114.327 178.057 114.951 177.502 115.454C176.965 115.957 176.254 116.208 175.37 116.208ZM26.5682 146.976H31.7382V149H24.0602V133.71H26.5682V146.976ZM44.9455 142.642C44.9455 143.097 44.9162 143.507 44.8575 143.874H35.5955C35.6689 144.842 36.0282 145.619 36.6735 146.206C37.3189 146.793 38.1109 147.086 39.0495 147.086C40.3989 147.086 41.3522 146.521 41.9095 145.392H44.6155C44.2489 146.507 43.5815 147.423 42.6135 148.142C41.6602 148.846 40.4722 149.198 39.0495 149.198C37.8909 149.198 36.8495 148.941 35.9255 148.428C35.0162 147.9 34.2975 147.167 33.7695 146.228C33.2562 145.275 32.9995 144.175 32.9995 142.928C32.9995 141.681 33.2489 140.589 33.7475 139.65C34.2609 138.697 34.9722 137.963 35.8815 137.45C36.8055 136.937 37.8615 136.68 39.0495 136.68C40.1935 136.68 41.2129 136.929 42.1075 137.428C43.0022 137.927 43.6989 138.631 44.1975 139.54C44.6962 140.435 44.9455 141.469 44.9455 142.642ZM42.3275 141.85C42.3129 140.926 41.9829 140.185 41.3375 139.628C40.6922 139.071 39.8929 138.792 38.9395 138.792C38.0742 138.792 37.3335 139.071 36.7175 139.628C36.1015 140.171 35.7349 140.911 35.6175 141.85H42.3275ZM52.0997 146.756L55.5317 136.878H58.1937L53.5737 149H50.5817L45.9837 136.878H48.6677L52.0997 146.756ZM71.1995 142.642C71.1995 143.097 71.1701 143.507 71.1115 143.874H61.8495C61.9228 144.842 62.2821 145.619 62.9275 146.206C63.5728 146.793 64.3648 147.086 65.3035 147.086C66.6528 147.086 67.6061 146.521 68.1635 145.392H70.8695C70.5028 146.507 69.8355 147.423 68.8675 148.142C67.9141 148.846 66.7261 149.198 65.3035 149.198C64.1448 149.198 63.1035 148.941 62.1795 148.428C61.2701 147.9 60.5515 147.167 60.0235 146.228C59.5101 145.275 59.2535 144.175 59.2535 142.928C59.2535 141.681 59.5028 140.589 60.0015 139.65C60.5148 138.697 61.2261 137.963 62.1355 137.45C63.0595 136.937 64.1155 136.68 65.3035 136.68C66.4475 136.68 67.4668 136.929 68.3615 137.428C69.2561 137.927 69.9528 138.631 70.4515 139.54C70.9501 140.435 71.1995 141.469 71.1995 142.642ZM68.5815 141.85C68.5668 140.926 68.2368 140.185 67.5915 139.628C66.9461 139.071 66.1468 138.792 65.1935 138.792C64.3281 138.792 63.5875 139.071 62.9715 139.628C62.3555 140.171 61.9888 140.911 61.8715 141.85H68.5815ZM83.7824 149.198C82.8291 149.198 81.9711 149.029 81.2084 148.692C80.4604 148.34 79.8664 147.871 79.4264 147.284C78.9864 146.683 78.7518 146.015 78.7224 145.282H81.3184C81.3624 145.795 81.6044 146.228 82.0444 146.58C82.4991 146.917 83.0638 147.086 83.7384 147.086C84.4424 147.086 84.9851 146.954 85.3664 146.69C85.7624 146.411 85.9604 146.059 85.9604 145.634C85.9604 145.179 85.7404 144.842 85.3004 144.622C84.8751 144.402 84.1931 144.16 83.2544 143.896C82.3451 143.647 81.6044 143.405 81.0324 143.17C80.4604 142.935 79.9618 142.576 79.5364 142.092C79.1258 141.608 78.9204 140.97 78.9204 140.178C78.9204 139.533 79.1111 138.946 79.4924 138.418C79.8738 137.875 80.4164 137.45 81.1204 137.142C81.8391 136.834 82.6604 136.68 83.5844 136.68C84.9631 136.68 86.0704 137.032 86.9064 137.736C87.7571 138.425 88.2118 139.371 88.2704 140.574H85.7624C85.7184 140.031 85.4984 139.599 85.1024 139.276C84.7064 138.953 84.1711 138.792 83.4964 138.792C82.8364 138.792 82.3304 138.917 81.9784 139.166C81.6264 139.415 81.4504 139.745 81.4504 140.156C81.4504 140.479 81.5678 140.75 81.8024 140.97C82.0371 141.19 82.3231 141.366 82.6604 141.498C82.9978 141.615 83.4964 141.769 84.1564 141.96C85.0364 142.195 85.7551 142.437 86.3124 142.686C86.8844 142.921 87.3758 143.273 87.7864 143.742C88.1971 144.211 88.4098 144.835 88.4244 145.612C88.4244 146.301 88.2338 146.917 87.8524 147.46C87.4711 148.003 86.9284 148.428 86.2244 148.736C85.5351 149.044 84.7211 149.198 83.7824 149.198ZM102.244 142.642C102.244 143.097 102.215 143.507 102.156 143.874H92.8944C92.9677 144.842 93.327 145.619 93.9724 146.206C94.6177 146.793 95.4097 147.086 96.3484 147.086C97.6977 147.086 98.651 146.521 99.2084 145.392H101.914C101.548 146.507 100.88 147.423 99.9124 148.142C98.959 148.846 97.771 149.198 96.3484 149.198C95.1897 149.198 94.1484 148.941 93.2244 148.428C92.315 147.9 91.5964 147.167 91.0684 146.228C90.555 145.275 90.2984 144.175 90.2984 142.928C90.2984 141.681 90.5477 140.589 91.0464 139.65C91.5597 138.697 92.271 137.963 93.1804 137.45C94.1044 136.937 95.1604 136.68 96.3484 136.68C97.4924 136.68 98.5117 136.929 99.4064 137.428C100.301 137.927 100.998 138.631 101.496 139.54C101.995 140.435 102.244 141.469 102.244 142.642ZM99.6264 141.85C99.6117 140.926 99.2817 140.185 98.6364 139.628C97.991 139.071 97.1917 138.792 96.2384 138.792C95.373 138.792 94.6324 139.071 94.0164 139.628C93.4004 140.171 93.0337 140.911 92.9164 141.85H99.6264ZM115.691 136.878V149H113.183V147.57C112.787 148.069 112.266 148.465 111.621 148.758C110.99 149.037 110.315 149.176 109.597 149.176C108.643 149.176 107.785 148.978 107.023 148.582C106.275 148.186 105.681 147.599 105.241 146.822C104.815 146.045 104.603 145.106 104.603 144.006V136.878H107.089V143.632C107.089 144.717 107.36 145.553 107.903 146.14C108.445 146.712 109.186 146.998 110.125 146.998C111.063 146.998 111.804 146.712 112.347 146.14C112.904 145.553 113.183 144.717 113.183 143.632V136.878H115.691ZM123.878 142.928C123.878 141.681 124.128 140.589 124.626 139.65C125.14 138.697 125.844 137.963 126.738 137.45C127.633 136.937 128.66 136.68 129.818 136.68C131.285 136.68 132.495 137.032 133.448 137.736C134.416 138.425 135.069 139.415 135.406 140.706H132.7C132.48 140.105 132.128 139.635 131.644 139.298C131.16 138.961 130.552 138.792 129.818 138.792C128.792 138.792 127.97 139.159 127.354 139.892C126.753 140.611 126.452 141.623 126.452 142.928C126.452 144.233 126.753 145.253 127.354 145.986C127.97 146.719 128.792 147.086 129.818 147.086C131.27 147.086 132.231 146.448 132.7 145.172H135.406C135.054 146.404 134.394 147.387 133.426 148.12C132.458 148.839 131.256 149.198 129.818 149.198C128.66 149.198 127.633 148.941 126.738 148.428C125.844 147.9 125.14 147.167 124.626 146.228C124.128 145.275 123.878 144.175 123.878 142.928ZM137.07 142.884C137.07 141.667 137.319 140.589 137.818 139.65C138.331 138.711 139.021 137.985 139.886 137.472C140.766 136.944 141.734 136.68 142.79 136.68C143.743 136.68 144.572 136.871 145.276 137.252C145.995 137.619 146.567 138.081 146.992 138.638V136.878H149.522V149H146.992V147.196C146.567 147.768 145.987 148.245 145.254 148.626C144.521 149.007 143.685 149.198 142.746 149.198C141.705 149.198 140.751 148.934 139.886 148.406C139.021 147.863 138.331 147.115 137.818 146.162C137.319 145.194 137.07 144.101 137.07 142.884ZM146.992 142.928C146.992 142.092 146.816 141.366 146.464 140.75C146.127 140.134 145.679 139.665 145.122 139.342C144.565 139.019 143.963 138.858 143.318 138.858C142.673 138.858 142.071 139.019 141.514 139.342C140.957 139.65 140.502 140.112 140.15 140.728C139.813 141.329 139.644 142.048 139.644 142.884C139.644 143.72 139.813 144.453 140.15 145.084C140.502 145.715 140.957 146.199 141.514 146.536C142.086 146.859 142.687 147.02 143.318 147.02C143.963 147.02 144.565 146.859 145.122 146.536C145.679 146.213 146.127 145.744 146.464 145.128C146.816 144.497 146.992 143.764 146.992 142.928ZM151.98 142.928C151.98 141.681 152.229 140.589 152.728 139.65C153.241 138.697 153.945 137.963 154.84 137.45C155.735 136.937 156.761 136.68 157.92 136.68C159.387 136.68 160.597 137.032 161.55 137.736C162.518 138.425 163.171 139.415 163.508 140.706H160.802C160.582 140.105 160.23 139.635 159.746 139.298C159.262 138.961 158.653 138.792 157.92 138.792C156.893 138.792 156.072 139.159 155.456 139.892C154.855 140.611 154.554 141.623 154.554 142.928C154.554 144.233 154.855 145.253 155.456 145.986C156.072 146.719 156.893 147.086 157.92 147.086C159.372 147.086 160.333 146.448 160.802 145.172H163.508C163.156 146.404 162.496 147.387 161.528 148.12C160.56 148.839 159.357 149.198 157.92 149.198C156.761 149.198 155.735 148.941 154.84 148.428C153.945 147.9 153.241 147.167 152.728 146.228C152.229 145.275 151.98 144.175 151.98 142.928ZM172.277 136.68C173.201 136.68 174.023 136.878 174.741 137.274C175.475 137.67 176.047 138.257 176.457 139.034C176.883 139.811 177.095 140.75 177.095 141.85V149H174.609V142.224C174.609 141.139 174.338 140.31 173.795 139.738C173.253 139.151 172.512 138.858 171.573 138.858C170.635 138.858 169.887 139.151 169.329 139.738C168.787 140.31 168.515 141.139 168.515 142.224V149H166.007V132.72H168.515V138.286C168.941 137.773 169.476 137.377 170.121 137.098C170.781 136.819 171.5 136.68 172.277 136.68ZM185.553 149.198C184.409 149.198 183.375 148.941 182.451 148.428C181.527 147.9 180.801 147.167 180.273 146.228C179.745 145.275 179.481 144.175 179.481 142.928C179.481 141.696 179.752 140.603 180.295 139.65C180.837 138.697 181.578 137.963 182.517 137.45C183.455 136.937 184.504 136.68 185.663 136.68C186.821 136.68 187.87 136.937 188.809 137.45C189.747 137.963 190.488 138.697 191.031 139.65C191.573 140.603 191.845 141.696 191.845 142.928C191.845 144.16 191.566 145.253 191.009 146.206C190.451 147.159 189.689 147.9 188.721 148.428C187.767 148.941 186.711 149.198 185.553 149.198ZM185.553 147.02C186.198 147.02 186.799 146.866 187.357 146.558C187.929 146.25 188.391 145.788 188.743 145.172C189.095 144.556 189.271 143.808 189.271 142.928C189.271 142.048 189.102 141.307 188.765 140.706C188.427 140.09 187.98 139.628 187.423 139.32C186.865 139.012 186.264 138.858 185.619 138.858C184.973 138.858 184.372 139.012 183.815 139.32C183.272 139.628 182.839 140.09 182.517 140.706C182.194 141.307 182.033 142.048 182.033 142.928C182.033 144.233 182.363 145.245 183.023 145.964C183.697 146.668 184.541 147.02 185.553 147.02ZM196.832 138.638C197.198 138.022 197.682 137.545 198.284 137.208C198.9 136.856 199.626 136.68 200.462 136.68V139.276H199.824C198.841 139.276 198.093 139.525 197.58 140.024C197.081 140.523 196.832 141.388 196.832 142.62V149H194.324V136.878H196.832V138.638ZM205.275 138.638C205.642 138.022 206.126 137.545 206.727 137.208C207.343 136.856 208.069 136.68 208.905 136.68V139.276H208.267C207.285 139.276 206.537 139.525 206.023 140.024C205.525 140.523 205.275 141.388 205.275 142.62V149H202.767V136.878H205.275V138.638ZM216.469 149.198C215.325 149.198 214.291 148.941 213.367 148.428C212.443 147.9 211.717 147.167 211.189 146.228C210.661 145.275 210.397 144.175 210.397 142.928C210.397 141.696 210.668 140.603 211.211 139.65C211.753 138.697 212.494 137.963 213.433 137.45C214.371 136.937 215.42 136.68 216.579 136.68C217.737 136.68 218.786 136.937 219.725 137.45C220.663 137.963 221.404 138.697 221.947 139.65C222.489 140.603 222.761 141.696 222.761 142.928C222.761 144.16 222.482 145.253 221.925 146.206C221.367 147.159 220.605 147.9 219.637 148.428C218.683 148.941 217.627 149.198 216.469 149.198ZM216.469 147.02C217.114 147.02 217.715 146.866 218.273 146.558C218.845 146.25 219.307 145.788 219.659 145.172C220.011 144.556 220.187 143.808 220.187 142.928C220.187 142.048 220.018 141.307 219.681 140.706C219.343 140.09 218.896 139.628 218.339 139.32C217.781 139.012 217.18 138.858 216.535 138.858C215.889 138.858 215.288 139.012 214.731 139.32C214.188 139.628 213.755 140.09 213.433 140.706C213.11 141.307 212.949 142.048 212.949 142.928C212.949 144.233 213.279 145.245 213.939 145.964C214.613 146.668 215.457 147.02 216.469 147.02ZM38.0516 171.66C38.4769 171.103 39.0562 170.633 39.7896 170.252C40.5229 169.871 41.3516 169.68 42.2756 169.68C43.3316 169.68 44.2922 169.944 45.1576 170.472C46.0376 170.985 46.7269 171.711 47.2256 172.65C47.7242 173.589 47.9736 174.667 47.9736 175.884C47.9736 177.101 47.7242 178.194 47.2256 179.162C46.7269 180.115 46.0376 180.863 45.1576 181.406C44.2922 181.934 43.3316 182.198 42.2756 182.198C41.3516 182.198 40.5302 182.015 39.8116 181.648C39.0929 181.267 38.5062 180.797 38.0516 180.24V187.764H35.5436V169.878H38.0516V171.66ZM45.4216 175.884C45.4216 175.048 45.2456 174.329 44.8936 173.728C44.5562 173.112 44.1016 172.65 43.5296 172.342C42.9722 172.019 42.3709 171.858 41.7256 171.858C41.0949 171.858 40.4936 172.019 39.9216 172.342C39.3642 172.665 38.9096 173.134 38.5576 173.75C38.2202 174.366 38.0516 175.092 38.0516 175.928C38.0516 176.764 38.2202 177.497 38.5576 178.128C38.9096 178.744 39.3642 179.213 39.9216 179.536C40.4936 179.859 41.0949 180.02 41.7256 180.02C42.3709 180.02 42.9722 179.859 43.5296 179.536C44.1016 179.199 44.5562 178.715 44.8936 178.084C45.2456 177.453 45.4216 176.72 45.4216 175.884ZM61.5637 175.642C61.5637 176.097 61.5344 176.507 61.4757 176.874H52.2137C52.287 177.842 52.6464 178.619 53.2917 179.206C53.937 179.793 54.729 180.086 55.6677 180.086C57.017 180.086 57.9704 179.521 58.5277 178.392H61.2337C60.867 179.507 60.1997 180.423 59.2317 181.142C58.2784 181.846 57.0904 182.198 55.6677 182.198C54.509 182.198 53.4677 181.941 52.5437 181.428C51.6344 180.9 50.9157 180.167 50.3877 179.228C49.8744 178.275 49.6177 177.175 49.6177 175.928C49.6177 174.681 49.867 173.589 50.3657 172.65C50.879 171.697 51.5904 170.963 52.4997 170.45C53.4237 169.937 54.4797 169.68 55.6677 169.68C56.8117 169.68 57.831 169.929 58.7257 170.428C59.6204 170.927 60.317 171.631 60.8157 172.54C61.3144 173.435 61.5637 174.469 61.5637 175.642ZM58.9457 174.85C58.931 173.926 58.601 173.185 57.9557 172.628C57.3104 172.071 56.511 171.792 55.5577 171.792C54.6924 171.792 53.9517 172.071 53.3357 172.628C52.7197 173.171 52.353 173.911 52.2357 174.85H58.9457ZM66.5398 165.72V182H64.0318V165.72H66.5398ZM75.0906 182.198C73.9466 182.198 72.9126 181.941 71.9886 181.428C71.0646 180.9 70.3386 180.167 69.8106 179.228C69.2826 178.275 69.0186 177.175 69.0186 175.928C69.0186 174.696 69.29 173.603 69.8326 172.65C70.3753 171.697 71.116 170.963 72.0546 170.45C72.9933 169.937 74.042 169.68 75.2006 169.68C76.3593 169.68 77.408 169.937 78.3466 170.45C79.2853 170.963 80.026 171.697 80.5686 172.65C81.1113 173.603 81.3826 174.696 81.3826 175.928C81.3826 177.16 81.104 178.253 80.5466 179.206C79.9893 180.159 79.2266 180.9 78.2586 181.428C77.3053 181.941 76.2493 182.198 75.0906 182.198ZM75.0906 180.02C75.736 180.02 76.3373 179.866 76.8946 179.558C77.4666 179.25 77.9286 178.788 78.2806 178.172C78.6326 177.556 78.8086 176.808 78.8086 175.928C78.8086 175.048 78.64 174.307 78.3026 173.706C77.9653 173.09 77.518 172.628 76.9606 172.32C76.4033 172.012 75.802 171.858 75.1566 171.858C74.5113 171.858 73.91 172.012 73.3526 172.32C72.81 172.628 72.3773 173.09 72.0546 173.706C71.732 174.307 71.5706 175.048 71.5706 175.928C71.5706 177.233 71.9006 178.245 72.5606 178.964C73.2353 179.668 74.0786 180.02 75.0906 180.02ZM104.251 169.68C105.204 169.68 106.055 169.878 106.803 170.274C107.565 170.67 108.159 171.257 108.585 172.034C109.025 172.811 109.245 173.75 109.245 174.85V182H106.759V175.224C106.759 174.139 106.487 173.31 105.945 172.738C105.402 172.151 104.661 171.858 103.723 171.858C102.784 171.858 102.036 172.151 101.479 172.738C100.936 173.31 100.665 174.139 100.665 175.224V182H98.1788V175.224C98.1788 174.139 97.9074 173.31 97.3648 172.738C96.8221 172.151 96.0814 171.858 95.1428 171.858C94.2041 171.858 93.4561 172.151 92.8988 172.738C92.3561 173.31 92.0848 174.139 92.0848 175.224V182H89.5768V169.878H92.0848V171.264C92.4954 170.765 93.0161 170.377 93.6468 170.098C94.2774 169.819 94.9521 169.68 95.6708 169.68C96.6388 169.68 97.5041 169.885 98.2668 170.296C99.0294 170.707 99.6161 171.301 100.027 172.078C100.393 171.345 100.965 170.765 101.743 170.34C102.52 169.9 103.356 169.68 104.251 169.68ZM123.546 175.642C123.546 176.097 123.517 176.507 123.458 176.874H114.196C114.269 177.842 114.629 178.619 115.274 179.206C115.919 179.793 116.711 180.086 117.65 180.086C118.999 180.086 119.953 179.521 120.51 178.392H123.216C122.849 179.507 122.182 180.423 121.214 181.142C120.261 181.846 119.073 182.198 117.65 182.198C116.491 182.198 115.45 181.941 114.526 181.428C113.617 180.9 112.898 180.167 112.37 179.228C111.857 178.275 111.6 177.175 111.6 175.928C111.6 174.681 111.849 173.589 112.348 172.65C112.861 171.697 113.573 170.963 114.482 170.45C115.406 169.937 116.462 169.68 117.65 169.68C118.794 169.68 119.813 169.929 120.708 170.428C121.603 170.927 122.299 171.631 122.798 172.54C123.297 173.435 123.546 174.469 123.546 175.642ZM120.928 174.85C120.913 173.926 120.583 173.185 119.938 172.628C119.293 172.071 118.493 171.792 117.54 171.792C116.675 171.792 115.934 172.071 115.318 172.628C114.702 173.171 114.335 173.911 114.218 174.85H120.928ZM132.13 169.68C133.084 169.68 133.934 169.878 134.682 170.274C135.445 170.67 136.039 171.257 136.464 172.034C136.89 172.811 137.102 173.75 137.102 174.85V182H134.616V175.224C134.616 174.139 134.345 173.31 133.802 172.738C133.26 172.151 132.519 171.858 131.58 171.858C130.642 171.858 129.894 172.151 129.336 172.738C128.794 173.31 128.522 174.139 128.522 175.224V182H126.014V169.878H128.522V171.264C128.933 170.765 129.454 170.377 130.084 170.098C130.73 169.819 131.412 169.68 132.13 169.68ZM145.559 182.198C144.415 182.198 143.381 181.941 142.457 181.428C141.533 180.9 140.807 180.167 140.279 179.228C139.751 178.275 139.487 177.175 139.487 175.928C139.487 174.696 139.759 173.603 140.301 172.65C140.844 171.697 141.585 170.963 142.523 170.45C143.462 169.937 144.511 169.68 145.669 169.68C146.828 169.68 147.877 169.937 148.815 170.45C149.754 170.963 150.495 171.697 151.037 172.65C151.58 173.603 151.851 174.696 151.851 175.928C151.851 177.16 151.573 178.253 151.015 179.206C150.458 180.159 149.695 180.9 148.727 181.428C147.774 181.941 146.718 182.198 145.559 182.198ZM145.559 180.02C146.205 180.02 146.806 179.866 147.363 179.558C147.935 179.25 148.397 178.788 148.749 178.172C149.101 177.556 149.277 176.808 149.277 175.928C149.277 175.048 149.109 174.307 148.771 173.706C148.434 173.09 147.987 172.628 147.429 172.32C146.872 172.012 146.271 171.858 145.625 171.858C144.98 171.858 144.379 172.012 143.821 172.32C143.279 172.628 142.846 173.09 142.523 173.706C142.201 174.307 142.039 175.048 142.039 175.928C142.039 177.233 142.369 178.245 143.029 178.964C143.704 179.668 144.547 180.02 145.559 180.02ZM158.731 182.198C157.777 182.198 156.919 182.029 156.157 181.692C155.409 181.34 154.815 180.871 154.375 180.284C153.935 179.683 153.7 179.015 153.671 178.282H156.267C156.311 178.795 156.553 179.228 156.993 179.58C157.447 179.917 158.012 180.086 158.687 180.086C159.391 180.086 159.933 179.954 160.315 179.69C160.711 179.411 160.909 179.059 160.909 178.634C160.909 178.179 160.689 177.842 160.249 177.622C159.823 177.402 159.141 177.16 158.203 176.896C157.293 176.647 156.553 176.405 155.981 176.17C155.409 175.935 154.91 175.576 154.485 175.092C154.074 174.608 153.869 173.97 153.869 173.178C153.869 172.533 154.059 171.946 154.441 171.418C154.822 170.875 155.365 170.45 156.069 170.142C156.787 169.834 157.609 169.68 158.533 169.68C159.911 169.68 161.019 170.032 161.855 170.736C162.705 171.425 163.16 172.371 163.219 173.574H160.711C160.667 173.031 160.447 172.599 160.051 172.276C159.655 171.953 159.119 171.792 158.445 171.792C157.785 171.792 157.279 171.917 156.927 172.166C156.575 172.415 156.399 172.745 156.399 173.156C156.399 173.479 156.516 173.75 156.751 173.97C156.985 174.19 157.271 174.366 157.609 174.498C157.946 174.615 158.445 174.769 159.105 174.96C159.985 175.195 160.703 175.437 161.261 175.686C161.833 175.921 162.324 176.273 162.735 176.742C163.145 177.211 163.358 177.835 163.373 178.612C163.373 179.301 163.182 179.917 162.801 180.46C162.419 181.003 161.877 181.428 161.173 181.736C160.483 182.044 159.669 182.198 158.731 182.198ZM174.723 171.924V178.634C174.723 179.089 174.826 179.419 175.031 179.624C175.251 179.815 175.618 179.91 176.131 179.91H177.671V182H175.691C174.562 182 173.697 181.736 173.095 181.208C172.494 180.68 172.193 179.822 172.193 178.634V171.924H170.763V169.878H172.193V166.864H174.723V169.878H177.671V171.924H174.723ZM182.491 171.638C182.858 171.022 183.342 170.545 183.943 170.208C184.559 169.856 185.285 169.68 186.121 169.68V172.276H185.483C184.5 172.276 183.752 172.525 183.239 173.024C182.74 173.523 182.491 174.388 182.491 175.62V182H179.983V169.878H182.491V171.638ZM199.536 175.642C199.536 176.097 199.507 176.507 199.448 176.874H190.186C190.26 177.842 190.619 178.619 191.264 179.206C191.91 179.793 192.702 180.086 193.64 180.086C194.99 180.086 195.943 179.521 196.5 178.392H199.206C198.84 179.507 198.172 180.423 197.204 181.142C196.251 181.846 195.063 182.198 193.64 182.198C192.482 182.198 191.44 181.941 190.516 181.428C189.607 180.9 188.888 180.167 188.36 179.228C187.847 178.275 187.59 177.175 187.59 175.928C187.59 174.681 187.84 173.589 188.338 172.65C188.852 171.697 189.563 170.963 190.472 170.45C191.396 169.937 192.452 169.68 193.64 169.68C194.784 169.68 195.804 169.929 196.698 170.428C197.593 170.927 198.29 171.631 198.788 172.54C199.287 173.435 199.536 174.469 199.536 175.642ZM196.918 174.85C196.904 173.926 196.574 173.185 195.928 172.628C195.283 172.071 194.484 171.792 193.53 171.792C192.665 171.792 191.924 172.071 191.308 172.628C190.692 173.171 190.326 173.911 190.208 174.85H196.918ZM193.574 167.128L190.428 169.02V167.062L193.574 165.236L196.72 167.062V169.02L193.574 167.128ZM206.404 182.198C205.451 182.198 204.593 182.029 203.83 181.692C203.082 181.34 202.488 180.871 202.048 180.284C201.608 179.683 201.374 179.015 201.344 178.282H203.94C203.984 178.795 204.226 179.228 204.666 179.58C205.121 179.917 205.686 180.086 206.36 180.086C207.064 180.086 207.607 179.954 207.988 179.69C208.384 179.411 208.582 179.059 208.582 178.634C208.582 178.179 208.362 177.842 207.922 177.622C207.497 177.402 206.815 177.16 205.876 176.896C204.967 176.647 204.226 176.405 203.654 176.17C203.082 175.935 202.584 175.576 202.158 175.092C201.748 174.608 201.542 173.97 201.542 173.178C201.542 172.533 201.733 171.946 202.114 171.418C202.496 170.875 203.038 170.45 203.742 170.142C204.461 169.834 205.282 169.68 206.206 169.68C207.585 169.68 208.692 170.032 209.528 170.736C210.379 171.425 210.834 172.371 210.892 173.574H208.384C208.34 173.031 208.12 172.599 207.724 172.276C207.328 171.953 206.793 171.792 206.118 171.792C205.458 171.792 204.952 171.917 204.6 172.166C204.248 172.415 204.072 172.745 204.072 173.156C204.072 173.479 204.19 173.75 204.424 173.97C204.659 174.19 204.945 174.366 205.282 174.498C205.62 174.615 206.118 174.769 206.778 174.96C207.658 175.195 208.377 175.437 208.934 175.686C209.506 175.921 209.998 176.273 210.408 176.742C210.819 177.211 211.032 177.835 211.046 178.612C211.046 179.301 210.856 179.917 210.474 180.46C210.093 181.003 209.55 181.428 208.846 181.736C208.157 182.044 207.343 182.198 206.404 182.198ZM27.8116 212.756L31.2436 202.878H33.9056L29.2856 215H26.2936L21.6956 202.878H24.3796L27.8116 212.756ZM46.9114 208.642C46.9114 209.097 46.882 209.507 46.8234 209.874H37.5614C37.6347 210.842 37.994 211.619 38.6394 212.206C39.2847 212.793 40.0767 213.086 41.0154 213.086C42.3647 213.086 43.318 212.521 43.8754 211.392H46.5814C46.2147 212.507 45.5474 213.423 44.5794 214.142C43.626 214.846 42.438 215.198 41.0154 215.198C39.8567 215.198 38.8154 214.941 37.8914 214.428C36.982 213.9 36.2634 213.167 35.7354 212.228C35.222 211.275 34.9654 210.175 34.9654 208.928C34.9654 207.681 35.2147 206.589 35.7134 205.65C36.2267 204.697 36.938 203.963 37.8474 203.45C38.7714 202.937 39.8274 202.68 41.0154 202.68C42.1594 202.68 43.1787 202.929 44.0734 203.428C44.968 203.927 45.6647 204.631 46.1634 205.54C46.662 206.435 46.9114 207.469 46.9114 208.642ZM44.2934 207.85C44.2787 206.926 43.9487 206.185 43.3034 205.628C42.658 205.071 41.8587 204.792 40.9054 204.792C40.04 204.792 39.2994 205.071 38.6834 205.628C38.0674 206.171 37.7007 206.911 37.5834 207.85H44.2934ZM51.6015 212.954H57.1015V215H48.6975V212.954L54.2195 204.924H48.6975V202.878H57.1015V204.924L51.6015 212.954ZM70.845 208.642C70.845 209.097 70.8156 209.507 70.757 209.874H61.495C61.5683 210.842 61.9276 211.619 62.573 212.206C63.2183 212.793 64.0103 213.086 64.949 213.086C66.2983 213.086 67.2516 212.521 67.809 211.392H70.515C70.1483 212.507 69.481 213.423 68.513 214.142C67.5596 214.846 66.3716 215.198 64.949 215.198C63.7903 215.198 62.749 214.941 61.825 214.428C60.9156 213.9 60.197 213.167 59.669 212.228C59.1556 211.275 58.899 210.175 58.899 208.928C58.899 207.681 59.1483 206.589 59.647 205.65C60.1603 204.697 60.8716 203.963 61.781 203.45C62.705 202.937 63.761 202.68 64.949 202.68C66.093 202.68 67.1123 202.929 68.007 203.428C68.9016 203.927 69.5983 204.631 70.097 205.54C70.5956 206.435 70.845 207.469 70.845 208.642ZM68.227 207.85C68.2123 206.926 67.8823 206.185 67.237 205.628C66.5916 205.071 65.7923 204.792 64.839 204.792C63.9736 204.792 63.233 205.071 62.617 205.628C62.001 206.171 61.6343 206.911 61.517 207.85H68.227ZM77.7131 215.198C76.7598 215.198 75.9018 215.029 75.1391 214.692C74.3911 214.34 73.7971 213.871 73.3571 213.284C72.9171 212.683 72.6824 212.015 72.6531 211.282H75.2491C75.2931 211.795 75.5351 212.228 75.9751 212.58C76.4298 212.917 76.9944 213.086 77.6691 213.086C78.3731 213.086 78.9158 212.954 79.2971 212.69C79.6931 212.411 79.8911 212.059 79.8911 211.634C79.8911 211.179 79.6711 210.842 79.2311 210.622C78.8058 210.402 78.1238 210.16 77.1851 209.896C76.2758 209.647 75.5351 209.405 74.9631 209.17C74.3911 208.935 73.8924 208.576 73.4671 208.092C73.0564 207.608 72.8511 206.97 72.8511 206.178C72.8511 205.533 73.0418 204.946 73.4231 204.418C73.8044 203.875 74.3471 203.45 75.0511 203.142C75.7698 202.834 76.5911 202.68 77.5151 202.68C78.8938 202.68 80.0011 203.032 80.8371 203.736C81.6878 204.425 82.1424 205.371 82.2011 206.574H79.6931C79.6491 206.031 79.4291 205.599 79.0331 205.276C78.6371 204.953 78.1018 204.792 77.4271 204.792C76.7671 204.792 76.2611 204.917 75.9091 205.166C75.5571 205.415 75.3811 205.745 75.3811 206.156C75.3811 206.479 75.4984 206.75 75.7331 206.97C75.9678 207.19 76.2538 207.366 76.5911 207.498C76.9284 207.615 77.4271 207.769 78.0871 207.96C78.9671 208.195 79.6858 208.437 80.2431 208.686C80.8151 208.921 81.3064 209.273 81.7171 209.742C82.1278 210.211 82.3404 210.835 82.3551 211.612C82.3551 212.301 82.1644 212.917 81.7831 213.46C81.4018 214.003 80.8591 214.428 80.1551 214.736C79.4658 215.044 78.6518 215.198 77.7131 215.198ZM93.2879 204.66C93.7132 204.103 94.2925 203.633 95.0259 203.252C95.7592 202.871 96.5879 202.68 97.5119 202.68C98.5679 202.68 99.5285 202.944 100.394 203.472C101.274 203.985 101.963 204.711 102.462 205.65C102.961 206.589 103.21 207.667 103.21 208.884C103.21 210.101 102.961 211.194 102.462 212.162C101.963 213.115 101.274 213.863 100.394 214.406C99.5285 214.934 98.5679 215.198 97.5119 215.198C96.5879 215.198 95.7665 215.015 95.0479 214.648C94.3292 214.267 93.7425 213.797 93.2879 213.24V220.764H90.7799V202.878H93.2879V204.66ZM100.658 208.884C100.658 208.048 100.482 207.329 100.13 206.728C99.7925 206.112 99.3379 205.65 98.7659 205.342C98.2085 205.019 97.6072 204.858 96.9619 204.858C96.3312 204.858 95.7299 205.019 95.1579 205.342C94.6005 205.665 94.1459 206.134 93.7939 206.75C93.4565 207.366 93.2879 208.092 93.2879 208.928C93.2879 209.764 93.4565 210.497 93.7939 211.128C94.1459 211.744 94.6005 212.213 95.1579 212.536C95.7299 212.859 96.3312 213.02 96.9619 213.02C97.6072 213.02 98.2085 212.859 98.7659 212.536C99.3379 212.199 99.7925 211.715 100.13 211.084C100.482 210.453 100.658 209.72 100.658 208.884ZM110.948 215.198C109.804 215.198 108.77 214.941 107.846 214.428C106.922 213.9 106.196 213.167 105.668 212.228C105.14 211.275 104.876 210.175 104.876 208.928C104.876 207.696 105.147 206.603 105.69 205.65C106.233 204.697 106.973 203.963 107.912 203.45C108.851 202.937 109.899 202.68 111.058 202.68C112.217 202.68 113.265 202.937 114.204 203.45C115.143 203.963 115.883 204.697 116.426 205.65C116.969 206.603 117.24 207.696 117.24 208.928C117.24 210.16 116.961 211.253 116.404 212.206C115.847 213.159 115.084 213.9 114.116 214.428C113.163 214.941 112.107 215.198 110.948 215.198ZM110.948 213.02C111.593 213.02 112.195 212.866 112.752 212.558C113.324 212.25 113.786 211.788 114.138 211.172C114.49 210.556 114.666 209.808 114.666 208.928C114.666 208.048 114.497 207.307 114.16 206.706C113.823 206.09 113.375 205.628 112.818 205.32C112.261 205.012 111.659 204.858 111.014 204.858C110.369 204.858 109.767 205.012 109.21 205.32C108.667 205.628 108.235 206.09 107.912 206.706C107.589 207.307 107.428 208.048 107.428 208.928C107.428 210.233 107.758 211.245 108.418 211.964C109.093 212.668 109.936 213.02 110.948 213.02ZM122.227 204.638C122.594 204.022 123.078 203.545 123.679 203.208C124.295 202.856 125.021 202.68 125.857 202.68V205.276H125.219C124.237 205.276 123.489 205.525 122.975 206.024C122.477 206.523 122.227 207.388 122.227 208.62V215H119.719V202.878H122.227V204.638ZM138.278 215.198C137.324 215.198 136.466 215.029 135.704 214.692C134.956 214.34 134.362 213.871 133.922 213.284C133.482 212.683 133.247 212.015 133.218 211.282H135.814C135.858 211.795 136.1 212.228 136.54 212.58C136.994 212.917 137.559 213.086 138.234 213.086C138.938 213.086 139.48 212.954 139.862 212.69C140.258 212.411 140.456 212.059 140.456 211.634C140.456 211.179 140.236 210.842 139.796 210.622C139.37 210.402 138.688 210.16 137.75 209.896C136.84 209.647 136.1 209.405 135.528 209.17C134.956 208.935 134.457 208.576 134.032 208.092C133.621 207.608 133.416 206.97 133.416 206.178C133.416 205.533 133.606 204.946 133.988 204.418C134.369 203.875 134.912 203.45 135.616 203.142C136.334 202.834 137.156 202.68 138.08 202.68C139.458 202.68 140.566 203.032 141.402 203.736C142.252 204.425 142.707 205.371 142.766 206.574H140.258C140.214 206.031 139.994 205.599 139.598 205.276C139.202 204.953 138.666 204.792 137.992 204.792C137.332 204.792 136.826 204.917 136.474 205.166C136.122 205.415 135.946 205.745 135.946 206.156C135.946 206.479 136.063 206.75 136.298 206.97C136.532 207.19 136.818 207.366 137.156 207.498C137.493 207.615 137.992 207.769 138.652 207.96C139.532 208.195 140.25 208.437 140.808 208.686C141.38 208.921 141.871 209.273 142.282 209.742C142.692 210.211 142.905 210.835 142.92 211.612C142.92 212.301 142.729 212.917 142.348 213.46C141.966 214.003 141.424 214.428 140.72 214.736C140.03 215.044 139.216 215.198 138.278 215.198ZM156.739 208.642C156.739 209.097 156.71 209.507 156.651 209.874H147.389C147.463 210.842 147.822 211.619 148.467 212.206C149.113 212.793 149.905 213.086 150.843 213.086C152.193 213.086 153.146 212.521 153.703 211.392H156.409C156.043 212.507 155.375 213.423 154.407 214.142C153.454 214.846 152.266 215.198 150.843 215.198C149.685 215.198 148.643 214.941 147.719 214.428C146.81 213.9 146.091 213.167 145.563 212.228C145.05 211.275 144.793 210.175 144.793 208.928C144.793 207.681 145.043 206.589 145.541 205.65C146.055 204.697 146.766 203.963 147.675 203.45C148.599 202.937 149.655 202.68 150.843 202.68C151.987 202.68 153.007 202.929 153.901 203.428C154.796 203.927 155.493 204.631 155.991 205.54C156.49 206.435 156.739 207.469 156.739 208.642ZM154.121 207.85C154.107 206.926 153.777 206.185 153.131 205.628C152.486 205.071 151.687 204.792 150.733 204.792C149.868 204.792 149.127 205.071 148.511 205.628C147.895 206.171 147.529 206.911 147.411 207.85H154.121ZM173.882 202.68C174.835 202.68 175.686 202.878 176.434 203.274C177.196 203.67 177.79 204.257 178.216 205.034C178.656 205.811 178.876 206.75 178.876 207.85V215H176.39V208.224C176.39 207.139 176.118 206.31 175.576 205.738C175.033 205.151 174.292 204.858 173.354 204.858C172.415 204.858 171.667 205.151 171.11 205.738C170.567 206.31 170.296 207.139 170.296 208.224V215H167.81V208.224C167.81 207.139 167.538 206.31 166.996 205.738C166.453 205.151 165.712 204.858 164.774 204.858C163.835 204.858 163.087 205.151 162.53 205.738C161.987 206.31 161.716 207.139 161.716 208.224V215H159.208V202.878H161.716V204.264C162.126 203.765 162.647 203.377 163.278 203.098C163.908 202.819 164.583 202.68 165.302 202.68C166.27 202.68 167.135 202.885 167.898 203.296C168.66 203.707 169.247 204.301 169.658 205.078C170.024 204.345 170.596 203.765 171.374 203.34C172.151 202.9 172.987 202.68 173.882 202.68ZM181.231 208.884C181.231 207.667 181.48 206.589 181.979 205.65C182.492 204.711 183.182 203.985 184.047 203.472C184.927 202.944 185.895 202.68 186.951 202.68C187.904 202.68 188.733 202.871 189.437 203.252C190.156 203.619 190.728 204.081 191.153 204.638V202.878H193.683V215H191.153V213.196C190.728 213.768 190.148 214.245 189.415 214.626C188.682 215.007 187.846 215.198 186.907 215.198C185.866 215.198 184.912 214.934 184.047 214.406C183.182 213.863 182.492 213.115 181.979 212.162C181.48 211.194 181.231 210.101 181.231 208.884ZM191.153 208.928C191.153 208.092 190.977 207.366 190.625 206.75C190.288 206.134 189.84 205.665 189.283 205.342C188.726 205.019 188.124 204.858 187.479 204.858C186.834 204.858 186.232 205.019 185.675 205.342C185.118 205.65 184.663 206.112 184.311 206.728C183.974 207.329 183.805 208.048 183.805 208.884C183.805 209.72 183.974 210.453 184.311 211.084C184.663 211.715 185.118 212.199 185.675 212.536C186.247 212.859 186.848 213.02 187.479 213.02C188.124 213.02 188.726 212.859 189.283 212.536C189.84 212.213 190.288 211.744 190.625 211.128C190.977 210.497 191.153 209.764 191.153 208.928ZM203.093 202.68C204.046 202.68 204.897 202.878 205.645 203.274C206.408 203.67 207.002 204.257 207.427 205.034C207.852 205.811 208.065 206.75 208.065 207.85V215H205.579V208.224C205.579 207.139 205.308 206.31 204.765 205.738C204.222 205.151 203.482 204.858 202.543 204.858C201.604 204.858 200.856 205.151 200.299 205.738C199.756 206.31 199.485 207.139 199.485 208.224V215H196.977V202.878H199.485V204.264C199.896 203.765 200.416 203.377 201.047 203.098C201.692 202.819 202.374 202.68 203.093 202.68ZM210.428 208.884C210.428 207.667 210.678 206.589 211.176 205.65C211.69 204.711 212.379 203.985 213.244 203.472C214.124 202.944 215.092 202.68 216.148 202.68C217.102 202.68 217.93 202.871 218.634 203.252C219.353 203.619 219.925 204.081 220.35 204.638V202.878H222.88V215H220.35V213.196C219.925 213.768 219.346 214.245 218.612 214.626C217.879 215.007 217.043 215.198 216.104 215.198C215.063 215.198 214.11 214.934 213.244 214.406C212.379 213.863 211.69 213.115 211.176 212.162C210.678 211.194 210.428 210.101 210.428 208.884ZM220.35 208.928C220.35 208.092 220.174 207.366 219.822 206.75C219.485 206.134 219.038 205.665 218.48 205.342C217.923 205.019 217.322 204.858 216.676 204.858C216.031 204.858 215.43 205.019 214.872 205.342C214.315 205.65 213.86 206.112 213.508 206.728C213.171 207.329 213.002 208.048 213.002 208.884C213.002 209.72 213.171 210.453 213.508 211.084C213.86 211.715 214.315 212.199 214.872 212.536C215.444 212.859 216.046 213.02 216.676 213.02C217.322 213.02 217.923 212.859 218.48 212.536C219.038 212.213 219.485 211.744 219.822 211.128C220.174 210.497 220.35 209.764 220.35 208.928ZM49.9324 237.66C50.3577 237.103 50.9371 236.633 51.6704 236.252C52.4037 235.871 53.2324 235.68 54.1564 235.68C55.2124 235.68 56.1731 235.944 57.0384 236.472C57.9184 236.985 58.6077 237.711 59.1064 238.65C59.6051 239.589 59.8544 240.667 59.8544 241.884C59.8544 243.101 59.6051 244.194 59.1064 245.162C58.6077 246.115 57.9184 246.863 57.0384 247.406C56.1731 247.934 55.2124 248.198 54.1564 248.198C53.2324 248.198 52.4111 248.015 51.6924 247.648C50.9737 247.267 50.3871 246.797 49.9324 246.24V253.764H47.4244V235.878H49.9324V237.66ZM57.3024 241.884C57.3024 241.048 57.1264 240.329 56.7744 239.728C56.4371 239.112 55.9824 238.65 55.4104 238.342C54.8531 238.019 54.2517 237.858 53.6064 237.858C52.9757 237.858 52.3744 238.019 51.8024 238.342C51.2451 238.665 50.7904 239.134 50.4384 239.75C50.1011 240.366 49.9324 241.092 49.9324 241.928C49.9324 242.764 50.1011 243.497 50.4384 244.128C50.7904 244.744 51.2451 245.213 51.8024 245.536C52.3744 245.859 52.9757 246.02 53.6064 246.02C54.2517 246.02 54.8531 245.859 55.4104 245.536C55.9824 245.199 56.4371 244.715 56.7744 244.084C57.1264 243.453 57.3024 242.72 57.3024 241.884ZM61.4986 241.884C61.4986 240.667 61.7479 239.589 62.2466 238.65C62.7599 237.711 63.4492 236.985 64.3146 236.472C65.1946 235.944 66.1626 235.68 67.2186 235.68C68.1719 235.68 69.0006 235.871 69.7046 236.252C70.4232 236.619 70.9952 237.081 71.4206 237.638V235.878H73.9506V248H71.4206V246.196C70.9952 246.768 70.4159 247.245 69.6826 247.626C68.9492 248.007 68.1132 248.198 67.1746 248.198C66.1332 248.198 65.1799 247.934 64.3146 247.406C63.4492 246.863 62.7599 246.115 62.2466 245.162C61.7479 244.194 61.4986 243.101 61.4986 241.884ZM71.4206 241.928C71.4206 241.092 71.2446 240.366 70.8926 239.75C70.5552 239.134 70.1079 238.665 69.5506 238.342C68.9932 238.019 68.3919 237.858 67.7466 237.858C67.1012 237.858 66.4999 238.019 65.9426 238.342C65.3852 238.65 64.9306 239.112 64.5786 239.728C64.2412 240.329 64.0726 241.048 64.0726 241.884C64.0726 242.72 64.2412 243.453 64.5786 244.084C64.9306 244.715 65.3852 245.199 65.9426 245.536C66.5146 245.859 67.1159 246.02 67.7466 246.02C68.3919 246.02 68.9932 245.859 69.5506 245.536C70.1079 245.213 70.5552 244.744 70.8926 244.128C71.2446 243.497 71.4206 242.764 71.4206 241.928ZM79.7527 237.638C80.1194 237.022 80.6034 236.545 81.2047 236.208C81.8207 235.856 82.5467 235.68 83.3827 235.68V238.276H82.7447C81.7621 238.276 81.0141 238.525 80.5007 239.024C80.0021 239.523 79.7527 240.388 79.7527 241.62V248H77.2447V235.878H79.7527V237.638ZM84.8521 241.884C84.8521 240.667 85.1014 239.589 85.6001 238.65C86.1134 237.711 86.8028 236.985 87.6681 236.472C88.5481 235.944 89.5161 235.68 90.5721 235.68C91.5254 235.68 92.3541 235.871 93.0581 236.252C93.7768 236.619 94.3488 237.081 94.7741 237.638V235.878H97.3041V248H94.7741V246.196C94.3488 246.768 93.7694 247.245 93.0361 247.626C92.3028 248.007 91.4668 248.198 90.5281 248.198C89.4868 248.198 88.5334 247.934 87.6681 247.406C86.8028 246.863 86.1134 246.115 85.6001 245.162C85.1014 244.194 84.8521 243.101 84.8521 241.884ZM94.7741 241.928C94.7741 241.092 94.5981 240.366 94.2461 239.75C93.9088 239.134 93.4614 238.665 92.9041 238.342C92.3468 238.019 91.7454 237.858 91.1001 237.858C90.4548 237.858 89.8534 238.019 89.2961 238.342C88.7388 238.65 88.2841 239.112 87.9321 239.728C87.5948 240.329 87.4261 241.048 87.4261 241.884C87.4261 242.72 87.5948 243.453 87.9321 244.084C88.2841 244.715 88.7388 245.199 89.2961 245.536C89.8681 245.859 90.4694 246.02 91.1001 246.02C91.7454 246.02 92.3468 245.859 92.9041 245.536C93.4614 245.213 93.9088 244.744 94.2461 244.128C94.5981 243.497 94.7741 242.764 94.7741 241.928ZM108.821 237.66C109.246 237.103 109.826 236.633 110.559 236.252C111.292 235.871 112.121 235.68 113.045 235.68C114.101 235.68 115.062 235.944 115.927 236.472C116.807 236.985 117.496 237.711 117.995 238.65C118.494 239.589 118.743 240.667 118.743 241.884C118.743 243.101 118.494 244.194 117.995 245.162C117.496 246.115 116.807 246.863 115.927 247.406C115.062 247.934 114.101 248.198 113.045 248.198C112.121 248.198 111.3 248.015 110.581 247.648C109.862 247.267 109.276 246.797 108.821 246.24V253.764H106.313V235.878H108.821V237.66ZM116.191 241.884C116.191 241.048 116.015 240.329 115.663 239.728C115.326 239.112 114.871 238.65 114.299 238.342C113.742 238.019 113.14 237.858 112.495 237.858C111.864 237.858 111.263 238.019 110.691 238.342C110.134 238.665 109.679 239.134 109.327 239.75C108.99 240.366 108.821 241.092 108.821 241.928C108.821 242.764 108.99 243.497 109.327 244.128C109.679 244.744 110.134 245.213 110.691 245.536C111.263 245.859 111.864 246.02 112.495 246.02C113.14 246.02 113.742 245.859 114.299 245.536C114.871 245.199 115.326 244.715 115.663 244.084C116.015 243.453 116.191 242.72 116.191 241.884ZM120.387 241.884C120.387 240.667 120.637 239.589 121.135 238.65C121.649 237.711 122.338 236.985 123.203 236.472C124.083 235.944 125.051 235.68 126.107 235.68C127.061 235.68 127.889 235.871 128.593 236.252C129.312 236.619 129.884 237.081 130.309 237.638V235.878H132.839V248H130.309V246.196C129.884 246.768 129.305 247.245 128.571 247.626C127.838 248.007 127.002 248.198 126.063 248.198C125.022 248.198 124.069 247.934 123.203 247.406C122.338 246.863 121.649 246.115 121.135 245.162C120.637 244.194 120.387 243.101 120.387 241.884ZM130.309 241.928C130.309 241.092 130.133 240.366 129.781 239.75C129.444 239.134 128.997 238.665 128.439 238.342C127.882 238.019 127.281 237.858 126.635 237.858C125.99 237.858 125.389 238.019 124.831 238.342C124.274 238.65 123.819 239.112 123.467 239.728C123.13 240.329 122.961 241.048 122.961 241.884C122.961 242.72 123.13 243.453 123.467 244.084C123.819 244.715 124.274 245.199 124.831 245.536C125.403 245.859 126.005 246.02 126.635 246.02C127.281 246.02 127.882 245.859 128.439 245.536C128.997 245.213 129.444 244.744 129.781 244.128C130.133 243.497 130.309 242.764 130.309 241.928ZM140.533 248.198C139.58 248.198 138.722 248.029 137.959 247.692C137.211 247.34 136.617 246.871 136.177 246.284C135.737 245.683 135.503 245.015 135.473 244.282H138.069C138.113 244.795 138.355 245.228 138.795 245.58C139.25 245.917 139.815 246.086 140.489 246.086C141.193 246.086 141.736 245.954 142.117 245.69C142.513 245.411 142.711 245.059 142.711 244.634C142.711 244.179 142.491 243.842 142.051 243.622C141.626 243.402 140.944 243.16 140.005 242.896C139.096 242.647 138.355 242.405 137.783 242.17C137.211 241.935 136.713 241.576 136.287 241.092C135.877 240.608 135.671 239.97 135.671 239.178C135.671 238.533 135.862 237.946 136.243 237.418C136.625 236.875 137.167 236.45 137.871 236.142C138.59 235.834 139.411 235.68 140.335 235.68C141.714 235.68 142.821 236.032 143.657 236.736C144.508 237.425 144.963 238.371 145.021 239.574H142.513C142.469 239.031 142.249 238.599 141.853 238.276C141.457 237.953 140.922 237.792 140.247 237.792C139.587 237.792 139.081 237.917 138.729 238.166C138.377 238.415 138.201 238.745 138.201 239.156C138.201 239.479 138.319 239.75 138.553 239.97C138.788 240.19 139.074 240.366 139.411 240.498C139.749 240.615 140.247 240.769 140.907 240.96C141.787 241.195 142.506 241.437 143.063 241.686C143.635 241.921 144.127 242.273 144.537 242.742C144.948 243.211 145.161 243.835 145.175 244.612C145.175 245.301 144.985 245.917 144.603 246.46C144.222 247.003 143.679 247.428 142.975 247.736C142.286 248.044 141.472 248.198 140.533 248.198ZM152.285 248.198C151.332 248.198 150.474 248.029 149.711 247.692C148.963 247.34 148.369 246.871 147.929 246.284C147.489 245.683 147.255 245.015 147.225 244.282H149.821C149.865 244.795 150.107 245.228 150.547 245.58C151.002 245.917 151.567 246.086 152.241 246.086C152.945 246.086 153.488 245.954 153.869 245.69C154.265 245.411 154.463 245.059 154.463 244.634C154.463 244.179 154.243 243.842 153.803 243.622C153.378 243.402 152.696 243.16 151.757 242.896C150.848 242.647 150.107 242.405 149.535 242.17C148.963 241.935 148.465 241.576 148.039 241.092C147.629 240.608 147.423 239.97 147.423 239.178C147.423 238.533 147.614 237.946 147.995 237.418C148.377 236.875 148.919 236.45 149.623 236.142C150.342 235.834 151.163 235.68 152.087 235.68C153.466 235.68 154.573 236.032 155.409 236.736C156.26 237.425 156.715 238.371 156.773 239.574H154.265C154.221 239.031 154.001 238.599 153.605 238.276C153.209 237.953 152.674 237.792 151.999 237.792C151.339 237.792 150.833 237.917 150.481 238.166C150.129 238.415 149.953 238.745 149.953 239.156C149.953 239.479 150.071 239.75 150.305 239.97C150.54 240.19 150.826 240.366 151.163 240.498C151.501 240.615 151.999 240.769 152.659 240.96C153.539 241.195 154.258 241.437 154.815 241.686C155.387 241.921 155.879 242.273 156.289 242.742C156.7 243.211 156.913 243.835 156.927 244.612C156.927 245.301 156.737 245.917 156.355 246.46C155.974 247.003 155.431 247.428 154.727 247.736C154.038 248.044 153.224 248.198 152.285 248.198ZM170.747 241.642C170.747 242.097 170.718 242.507 170.659 242.874H161.397C161.471 243.842 161.83 244.619 162.475 245.206C163.121 245.793 163.913 246.086 164.851 246.086C166.201 246.086 167.154 245.521 167.711 244.392H170.417C170.051 245.507 169.383 246.423 168.415 247.142C167.462 247.846 166.274 248.198 164.851 248.198C163.693 248.198 162.651 247.941 161.727 247.428C160.818 246.9 160.099 246.167 159.571 245.228C159.058 244.275 158.801 243.175 158.801 241.928C158.801 240.681 159.051 239.589 159.549 238.65C160.063 237.697 160.774 236.963 161.683 236.45C162.607 235.937 163.663 235.68 164.851 235.68C165.995 235.68 167.015 235.929 167.909 236.428C168.804 236.927 169.501 237.631 169.999 238.54C170.498 239.435 170.747 240.469 170.747 241.642ZM168.129 240.85C168.115 239.926 167.785 239.185 167.139 238.628C166.494 238.071 165.695 237.792 164.741 237.792C163.876 237.792 163.135 238.071 162.519 238.628C161.903 239.171 161.537 239.911 161.419 240.85H168.129ZM172.379 241.884C172.379 240.667 172.629 239.589 173.127 238.65C173.641 237.711 174.33 236.985 175.195 236.472C176.075 235.944 177.043 235.68 178.099 235.68C179.053 235.68 179.881 235.871 180.585 236.252C181.304 236.619 181.876 237.081 182.301 237.638V235.878H184.831V248H182.301V246.196C181.876 246.768 181.297 247.245 180.563 247.626C179.83 248.007 178.994 248.198 178.055 248.198C177.014 248.198 176.061 247.934 175.195 247.406C174.33 246.863 173.641 246.115 173.127 245.162C172.629 244.194 172.379 243.101 172.379 241.884ZM182.301 241.928C182.301 241.092 182.125 240.366 181.773 239.75C181.436 239.134 180.989 238.665 180.431 238.342C179.874 238.019 179.273 237.858 178.627 237.858C177.982 237.858 177.381 238.019 176.823 238.342C176.266 238.65 175.811 239.112 175.459 239.728C175.122 240.329 174.953 241.048 174.953 241.884C174.953 242.72 175.122 243.453 175.459 244.084C175.811 244.715 176.266 245.199 176.823 245.536C177.395 245.859 177.997 246.02 178.627 246.02C179.273 246.02 179.874 245.859 180.431 245.536C180.989 245.213 181.436 244.744 181.773 244.128C182.125 243.497 182.301 242.764 182.301 241.928ZM190.634 237.638C191 237.022 191.484 236.545 192.086 236.208C192.702 235.856 193.428 235.68 194.264 235.68V238.276H193.626C192.643 238.276 191.895 238.525 191.382 239.024C190.883 239.523 190.634 240.388 190.634 241.62V248H188.126V235.878H190.634V237.638ZM197.581 248.154C197.126 248.154 196.745 248 196.437 247.692C196.129 247.384 195.975 247.003 195.975 246.548C195.975 246.093 196.129 245.712 196.437 245.404C196.745 245.096 197.126 244.942 197.581 244.942C198.021 244.942 198.395 245.096 198.703 245.404C199.011 245.712 199.165 246.093 199.165 246.548C199.165 247.003 199.011 247.384 198.703 247.692C198.395 248 198.021 248.154 197.581 248.154Z" fill="#EF835A"/>
</svg>
