<svg width="342" height="49" viewBox="0 0 342 49" fill="none" xmlns="http://www.w3.org/2000/svg">
<path d="M0.112 25.472C0.112 21.0347 1.072 17.088 2.992 13.632C4.912 10.1333 7.57867 7.424 10.992 5.504C14.448 3.54133 18.352 2.56 22.704 2.56C28.0373 2.56 32.6027 3.968 36.4 6.784C40.1973 9.6 42.736 13.44 44.016 18.304H31.984C31.088 16.4267 29.808 14.9973 28.144 14.016C26.5227 13.0347 24.6667 12.544 22.576 12.544C19.2053 12.544 16.4747 13.7173 14.384 16.064C12.2933 18.4107 11.248 21.5467 11.248 25.472C11.248 29.3973 12.2933 32.5333 14.384 34.88C16.4747 37.2267 19.2053 38.4 22.576 38.4C24.6667 38.4 26.5227 37.9093 28.144 36.928C29.808 35.9467 31.088 34.5173 31.984 32.64H44.016C42.736 37.504 40.1973 41.344 36.4 44.16C32.6027 46.9333 28.0373 48.32 22.704 48.32C18.352 48.32 14.448 47.36 10.992 45.44C7.57867 43.4773 4.912 40.768 2.992 37.312C1.072 33.856 0.112 29.9093 0.112 25.472ZM48.542 30.08C48.542 26.4107 49.2247 23.1893 50.59 20.416C51.998 17.6427 53.8967 15.5093 56.286 14.016C58.6753 12.5227 61.342 11.776 64.286 11.776C66.8033 11.776 69.0007 12.288 70.878 13.312C72.798 14.336 74.27 15.68 75.294 17.344V12.288H86.238V48H75.294V42.944C74.2273 44.608 72.734 45.952 70.814 46.976C68.9367 48 66.7393 48.512 64.222 48.512C61.3207 48.512 58.6753 47.7653 56.286 46.272C53.8967 44.736 51.998 42.5813 50.59 39.808C49.2247 36.992 48.542 33.7493 48.542 30.08ZM75.294 30.144C75.294 27.4133 74.526 25.2587 72.99 23.68C71.4967 22.1013 69.662 21.312 67.486 21.312C65.31 21.312 63.454 22.1013 61.918 23.68C60.4247 25.216 59.678 27.3493 59.678 30.08C59.678 32.8107 60.4247 34.9867 61.918 36.608C63.454 38.1867 65.31 38.976 67.486 38.976C69.662 38.976 71.4967 38.1867 72.99 36.608C74.526 35.0293 75.294 32.8747 75.294 30.144ZM91.9795 30.144C91.9795 26.432 92.7262 23.1893 94.2195 20.416C95.7555 17.6427 97.8675 15.5093 100.556 14.016C103.286 12.5227 106.401 11.776 109.9 11.776C114.38 11.776 118.113 12.9493 121.1 15.296C124.129 17.6427 126.113 20.9493 127.052 25.216H115.404C114.422 22.4853 112.524 21.12 109.708 21.12C107.702 21.12 106.102 21.9093 104.908 23.488C103.713 25.024 103.116 27.2427 103.116 30.144C103.116 33.0453 103.713 35.2853 104.908 36.864C106.102 38.4 107.702 39.168 109.708 39.168C112.524 39.168 114.422 37.8027 115.404 35.072H127.052C126.113 39.2533 124.129 42.5387 121.1 44.928C118.07 47.3173 114.337 48.512 109.9 48.512C106.401 48.512 103.286 47.7653 100.556 46.272C97.8675 44.7787 95.7555 42.6453 94.2195 39.872C92.7262 37.0987 91.9795 33.856 91.9795 30.144ZM154.858 11.904C158.954 11.904 162.239 13.2693 164.714 16C167.188 18.688 168.426 22.4 168.426 27.136V48H157.546V28.608C157.546 26.2187 156.927 24.3627 155.69 23.04C154.452 21.7173 152.788 21.056 150.698 21.056C148.607 21.056 146.943 21.7173 145.706 23.04C144.468 24.3627 143.85 26.2187 143.85 28.608V48H132.906V0.639999H143.85V17.088C144.959 15.5093 146.474 14.2507 148.394 13.312C150.314 12.3733 152.468 11.904 154.858 11.904ZM192.287 48.512C188.788 48.512 185.631 47.7653 182.815 46.272C180.041 44.7787 177.844 42.6453 176.223 39.872C174.644 37.0987 173.855 33.856 173.855 30.144C173.855 26.4747 174.665 23.2533 176.286 20.48C177.908 17.664 180.127 15.5093 182.943 14.016C185.759 12.5227 188.916 11.776 192.415 11.776C195.913 11.776 199.071 12.5227 201.887 14.016C204.703 15.5093 206.921 17.664 208.543 20.48C210.164 23.2533 210.975 26.4747 210.975 30.144C210.975 33.8133 210.143 37.056 208.479 39.872C206.857 42.6453 204.617 44.7787 201.759 46.272C198.943 47.7653 195.785 48.512 192.287 48.512ZM192.287 39.04C194.377 39.04 196.148 38.272 197.599 36.736C199.092 35.2 199.839 33.0027 199.839 30.144C199.839 27.2853 199.113 25.088 197.663 23.552C196.255 22.016 194.505 21.248 192.415 21.248C190.281 21.248 188.511 22.016 187.103 23.552C185.695 25.0453 184.991 27.2427 184.991 30.144C184.991 33.0027 185.673 35.2 187.039 36.736C188.447 38.272 190.196 39.04 192.287 39.04ZM227.725 18.24C229.005 16.2773 230.605 14.7413 232.525 13.632C234.445 12.48 236.578 11.904 238.925 11.904V23.488H235.917C233.186 23.488 231.138 24.0853 229.773 25.28C228.407 26.432 227.725 28.48 227.725 31.424V48H216.781V12.288H227.725V18.24ZM255.1 18.24C256.38 16.2773 257.98 14.7413 259.9 13.632C261.82 12.48 263.953 11.904 266.3 11.904V23.488H263.292C260.561 23.488 258.513 24.0853 257.148 25.28C255.782 26.432 255.1 28.48 255.1 31.424V48H244.156V12.288H255.1V18.24ZM287.787 48.512C284.288 48.512 281.131 47.7653 278.315 46.272C275.541 44.7787 273.344 42.6453 271.723 39.872C270.144 37.0987 269.355 33.856 269.355 30.144C269.355 26.4747 270.165 23.2533 271.786 20.48C273.408 17.664 275.627 15.5093 278.443 14.016C281.259 12.5227 284.416 11.776 287.915 11.776C291.413 11.776 294.571 12.5227 297.387 14.016C300.203 15.5093 302.421 17.664 304.043 20.48C305.664 23.2533 306.475 26.4747 306.475 30.144C306.475 33.8133 305.643 37.056 303.979 39.872C302.357 42.6453 300.117 44.7787 297.259 46.272C294.443 47.7653 291.285 48.512 287.787 48.512ZM287.787 39.04C289.877 39.04 291.648 38.272 293.099 36.736C294.592 35.2 295.339 33.0027 295.339 30.144C295.339 27.2853 294.613 25.088 293.163 23.552C291.755 22.016 290.005 21.248 287.915 21.248C285.781 21.248 284.011 22.016 282.603 23.552C281.195 25.0453 280.491 27.2427 280.491 30.144C280.491 33.0027 281.173 35.2 282.539 36.736C283.947 38.272 285.696 39.04 287.787 39.04ZM326.809 48.512C323.694 48.512 320.921 47.9787 318.489 46.912C316.057 45.8453 314.137 44.3947 312.729 42.56C311.321 40.6827 310.531 38.592 310.361 36.288H321.177C321.305 37.5253 321.881 38.528 322.905 39.296C323.929 40.064 325.187 40.448 326.681 40.448C328.046 40.448 329.091 40.192 329.817 39.68C330.585 39.1253 330.969 38.4213 330.969 37.568C330.969 36.544 330.435 35.7973 329.369 35.328C328.302 34.816 326.574 34.2613 324.185 33.664C321.625 33.0667 319.491 32.448 317.785 31.808C316.078 31.1253 314.606 30.08 313.369 28.672C312.131 27.2213 311.513 25.28 311.513 22.848C311.513 20.8 312.067 18.944 313.177 17.28C314.329 15.5733 315.993 14.2293 318.169 13.248C320.387 12.2667 323.011 11.776 326.041 11.776C330.521 11.776 334.041 12.8853 336.601 15.104C339.203 17.3227 340.697 20.2667 341.081 23.936H330.969C330.798 22.6987 330.243 21.7173 329.305 20.992C328.409 20.2667 327.214 19.904 325.721 19.904C324.441 19.904 323.459 20.16 322.777 20.672C322.094 21.1413 321.753 21.8027 321.753 22.656C321.753 23.68 322.286 24.448 323.353 24.96C324.462 25.472 326.169 25.984 328.473 26.496C331.118 27.1787 333.273 27.8613 334.937 28.544C336.601 29.184 338.051 30.2507 339.289 31.744C340.569 33.1947 341.23 35.1573 341.273 37.632C341.273 39.7227 340.675 41.6 339.481 43.264C338.329 44.8853 336.643 46.1653 334.425 47.104C332.249 48.0427 329.71 48.512 326.809 48.512Z" fill="#FFEBEB"/>
</svg>
