<svg width="246" height="306" viewBox="0 0 246 306" fill="none" xmlns="http://www.w3.org/2000/svg">
<rect width="246" height="306" rx="15" fill="#FFEBEB"/>
<path d="M55.9065 75.01H49.4065L48.4185 78H43.0625L49.7445 59.67H55.6205L62.2765 78H56.8945L55.9065 75.01ZM54.6325 71.11L52.6565 65.182L50.7065 71.11H54.6325ZM63.1054 70.694C63.1054 69.186 63.3741 67.8687 63.9114 66.742C64.4661 65.6153 65.2201 64.7487 66.1734 64.142C67.1268 63.5353 68.1841 63.232 69.3454 63.232C70.2814 63.232 71.1134 63.4313 71.8414 63.83C72.5868 64.2113 73.1674 64.74 73.5834 65.416V58.76H78.7054V78H73.5834V75.972C73.1848 76.648 72.6214 77.1853 71.8934 77.584C71.1654 77.9827 70.3074 78.182 69.3194 78.182C68.1581 78.182 67.1008 77.8787 66.1474 77.272C65.2114 76.6653 64.4661 75.7987 63.9114 74.672C63.3741 73.528 63.1054 72.202 63.1054 70.694ZM73.6094 70.694C73.6094 69.758 73.3494 69.0213 72.8294 68.484C72.3268 67.9467 71.7028 67.678 70.9574 67.678C70.1948 67.678 69.5621 67.9467 69.0594 68.484C68.5568 69.004 68.3054 69.7407 68.3054 70.694C68.3054 71.63 68.5568 72.3753 69.0594 72.93C69.5621 73.4673 70.1948 73.736 70.9574 73.736C71.7028 73.736 72.3268 73.4673 72.8294 72.93C73.3494 72.3927 73.6094 71.6473 73.6094 70.694ZM95.5453 70.538C95.5453 70.9367 95.5193 71.3353 95.4673 71.734H85.8213C85.8733 72.5313 86.09 73.1293 86.4713 73.528C86.87 73.9093 87.3727 74.1 87.9793 74.1C88.8287 74.1 89.4353 73.7187 89.7993 72.956H95.2333C95.008 73.9613 94.566 74.8627 93.9073 75.66C93.266 76.44 92.4513 77.0553 91.4633 77.506C90.4753 77.9567 89.3833 78.182 88.1873 78.182C86.7487 78.182 85.466 77.8787 84.3393 77.272C83.23 76.6653 82.3547 75.7987 81.7133 74.672C81.0893 73.5453 80.7773 72.2193 80.7773 70.694C80.7773 69.1687 81.0893 67.8513 81.7133 66.742C82.3373 65.6153 83.204 64.7487 84.3133 64.142C85.44 63.5353 86.7313 63.232 88.1873 63.232C89.626 63.232 90.9 63.5267 92.0093 64.116C93.1187 64.7053 93.9853 65.5547 94.6093 66.664C95.2333 67.756 95.5453 69.0473 95.5453 70.538ZM90.3453 69.264C90.3453 68.64 90.1373 68.1547 89.7213 67.808C89.3053 67.444 88.7853 67.262 88.1613 67.262C87.5373 67.262 87.026 67.4353 86.6273 67.782C86.2287 68.1113 85.9687 68.6053 85.8473 69.264H90.3453ZM103.845 78.182C102.527 78.182 101.349 77.9653 100.309 77.532C99.2861 77.0813 98.4715 76.4747 97.8648 75.712C97.2755 74.932 96.9461 74.0567 96.8768 73.086H101.817C101.886 73.554 102.103 73.918 102.467 74.178C102.831 74.438 103.281 74.568 103.819 74.568C104.235 74.568 104.564 74.4813 104.807 74.308C105.049 74.1347 105.171 73.9093 105.171 73.632C105.171 73.268 104.971 72.9993 104.573 72.826C104.174 72.6527 103.515 72.462 102.597 72.254C101.557 72.046 100.69 71.812 99.9968 71.552C99.3035 71.292 98.6968 70.8673 98.1768 70.278C97.6741 69.6887 97.4228 68.8913 97.4228 67.886C97.4228 67.0193 97.6568 66.2393 98.1248 65.546C98.5928 64.8353 99.2775 64.272 100.179 63.856C101.097 63.44 102.198 63.232 103.481 63.232C105.387 63.232 106.887 63.7 107.979 64.636C109.071 65.572 109.703 66.8027 109.877 68.328H105.275C105.188 67.86 104.98 67.5047 104.651 67.262C104.339 67.002 103.914 66.872 103.377 66.872C102.961 66.872 102.64 66.95 102.415 67.106C102.207 67.262 102.103 67.4787 102.103 67.756C102.103 68.1027 102.302 68.3713 102.701 68.562C103.099 68.7353 103.741 68.9173 104.625 69.108C105.682 69.3333 106.557 69.5847 107.251 69.862C107.961 70.1393 108.577 70.59 109.097 71.214C109.634 71.8207 109.903 72.6527 109.903 73.71C109.903 74.5593 109.651 75.322 109.149 75.998C108.663 76.674 107.961 77.2113 107.043 77.61C106.141 77.9913 105.075 78.182 103.845 78.182ZM121.014 73.658V78H118.804C115.077 78 113.214 76.154 113.214 72.462V67.652H111.42V63.414H113.214V59.878H118.336V63.414H120.988V67.652H118.336V72.54C118.336 72.9387 118.423 73.2247 118.596 73.398C118.787 73.5713 119.099 73.658 119.532 73.658H121.014ZM128.448 65.988C129.02 65.156 129.713 64.4973 130.528 64.012C131.342 63.5267 132.218 63.284 133.154 63.284V68.718H131.724C130.614 68.718 129.791 68.9347 129.254 69.368C128.716 69.8013 128.448 70.5553 128.448 71.63V78H123.352V63.414H128.448V65.988ZM148.916 70.538C148.916 70.9367 148.89 71.3353 148.838 71.734H139.192C139.244 72.5313 139.461 73.1293 139.842 73.528C140.241 73.9093 140.744 74.1 141.35 74.1C142.2 74.1 142.806 73.7187 143.17 72.956H148.604C148.379 73.9613 147.937 74.8627 147.278 75.66C146.637 76.44 145.822 77.0553 144.834 77.506C143.846 77.9567 142.754 78.182 141.558 78.182C140.12 78.182 138.837 77.8787 137.71 77.272C136.601 76.6653 135.726 75.7987 135.084 74.672C134.46 73.5453 134.148 72.2193 134.148 70.694C134.148 69.1687 134.46 67.8513 135.084 66.742C135.708 65.6153 136.575 64.7487 137.684 64.142C138.811 63.5353 140.102 63.232 141.558 63.232C142.997 63.232 144.271 63.5267 145.38 64.116C146.49 64.7053 147.356 65.5547 147.98 66.664C148.604 67.756 148.916 69.0473 148.916 70.538ZM143.716 69.264C143.716 68.64 143.508 68.1547 143.092 67.808C142.676 67.444 142.156 67.262 141.532 67.262C140.908 67.262 140.397 67.4353 139.998 67.782C139.6 68.1113 139.34 68.6053 139.218 69.264H143.716ZM162.192 78.182C160.875 78.182 159.696 77.9653 158.656 77.532C157.634 77.0813 156.819 76.4747 156.212 75.712C155.623 74.932 155.294 74.0567 155.224 73.086H160.164C160.234 73.554 160.45 73.918 160.814 74.178C161.178 74.438 161.629 74.568 162.166 74.568C162.582 74.568 162.912 74.4813 163.154 74.308C163.397 74.1347 163.518 73.9093 163.518 73.632C163.518 73.268 163.319 72.9993 162.92 72.826C162.522 72.6527 161.863 72.462 160.944 72.254C159.904 72.046 159.038 71.812 158.344 71.552C157.651 71.292 157.044 70.8673 156.524 70.278C156.022 69.6887 155.77 68.8913 155.77 67.886C155.77 67.0193 156.004 66.2393 156.472 65.546C156.94 64.8353 157.625 64.272 158.526 63.856C159.445 63.44 160.546 63.232 161.828 63.232C163.735 63.232 165.234 63.7 166.326 64.636C167.418 65.572 168.051 66.8027 168.224 68.328H163.622C163.536 67.86 163.328 67.5047 162.998 67.262C162.686 67.002 162.262 66.872 161.724 66.872C161.308 66.872 160.988 66.95 160.762 67.106C160.554 67.262 160.45 67.4787 160.45 67.756C160.45 68.1027 160.65 68.3713 161.048 68.562C161.447 68.7353 162.088 68.9173 162.972 69.108C164.03 69.3333 164.905 69.5847 165.598 69.862C166.309 70.1393 166.924 70.59 167.444 71.214C167.982 71.8207 168.25 72.6527 168.25 73.71C168.25 74.5593 167.999 75.322 167.496 75.998C167.011 76.674 166.309 77.2113 165.39 77.61C164.489 77.9913 163.423 78.182 162.192 78.182ZM184.692 70.538C184.692 70.9367 184.666 71.3353 184.614 71.734H174.968C175.02 72.5313 175.236 73.1293 175.618 73.528C176.016 73.9093 176.519 74.1 177.126 74.1C177.975 74.1 178.582 73.7187 178.946 72.956H184.38C184.154 73.9613 183.712 74.8627 183.054 75.66C182.412 76.44 181.598 77.0553 180.61 77.506C179.622 77.9567 178.53 78.182 177.334 78.182C175.895 78.182 174.612 77.8787 173.486 77.272C172.376 76.6653 171.501 75.7987 170.86 74.672C170.236 73.5453 169.924 72.2193 169.924 70.694C169.924 69.1687 170.236 67.8513 170.86 66.742C171.484 65.6153 172.35 64.7487 173.46 64.142C174.586 63.5353 175.878 63.232 177.334 63.232C178.772 63.232 180.046 63.5267 181.156 64.116C182.265 64.7053 183.132 65.5547 183.756 66.664C184.38 67.756 184.692 69.0473 184.692 70.538ZM179.492 69.264C179.492 68.64 179.284 68.1547 178.868 67.808C178.452 67.444 177.932 67.262 177.308 67.262C176.684 67.262 176.172 67.4353 175.774 67.782C175.375 68.1113 175.115 68.6053 174.994 69.264H179.492ZM201.701 63.414V78H196.579V75.92C196.146 76.5787 195.548 77.116 194.785 77.532C194.023 77.9307 193.147 78.13 192.159 78.13C190.461 78.13 189.117 77.5753 188.129 76.466C187.159 75.3393 186.673 73.814 186.673 71.89V63.414H191.743V71.24C191.743 72.072 191.96 72.7307 192.393 73.216C192.844 73.684 193.433 73.918 194.161 73.918C194.907 73.918 195.496 73.684 195.929 73.216C196.363 72.7307 196.579 72.072 196.579 71.24V63.414H201.701ZM93.1299 109.694C93.1299 108.186 93.4419 106.869 94.0659 105.742C94.6899 104.615 95.5565 103.749 96.6659 103.142C97.7925 102.535 99.0752 102.232 100.514 102.232C102.369 102.232 103.929 102.743 105.194 103.766C106.459 104.771 107.274 106.184 107.638 108.004H102.23C101.918 107.051 101.311 106.574 100.41 106.574C99.7685 106.574 99.2572 106.843 98.8759 107.38C98.5119 107.9 98.3299 108.671 98.3299 109.694C98.3299 110.717 98.5119 111.497 98.8759 112.034C99.2572 112.571 99.7685 112.84 100.41 112.84C101.329 112.84 101.935 112.363 102.23 111.41H107.638C107.274 113.213 106.459 114.625 105.194 115.648C103.929 116.671 102.369 117.182 100.514 117.182C99.0752 117.182 97.7925 116.879 96.6659 116.272C95.5565 115.665 94.6899 114.799 94.0659 113.672C93.4419 112.545 93.1299 111.219 93.1299 109.694ZM108.923 109.694C108.923 108.186 109.191 106.869 109.729 105.742C110.283 104.615 111.029 103.749 111.965 103.142C112.918 102.535 113.975 102.232 115.137 102.232C116.142 102.232 117.009 102.431 117.737 102.83C118.465 103.229 119.028 103.766 119.427 104.442V102.414H124.523V117H119.427V114.972C119.028 115.648 118.456 116.185 117.711 116.584C116.983 116.983 116.125 117.182 115.137 117.182C113.975 117.182 112.918 116.879 111.965 116.272C111.029 115.665 110.283 114.799 109.729 113.672C109.191 112.528 108.923 111.202 108.923 109.694ZM119.427 109.694C119.427 108.758 119.167 108.021 118.647 107.484C118.144 106.947 117.52 106.678 116.775 106.678C116.012 106.678 115.379 106.947 114.877 107.484C114.374 108.004 114.123 108.741 114.123 109.694C114.123 110.63 114.374 111.375 114.877 111.93C115.379 112.467 116.012 112.736 116.775 112.736C117.52 112.736 118.144 112.467 118.647 111.93C119.167 111.393 119.427 110.647 119.427 109.694ZM111.601 101.322C112.086 98.4967 113.386 97.084 115.501 97.084C115.899 97.084 116.255 97.1447 116.567 97.266C116.896 97.3873 117.269 97.5607 117.685 97.786C117.979 97.942 118.231 98.0633 118.439 98.15C118.647 98.2367 118.855 98.28 119.063 98.28C119.704 98.28 120.085 97.8813 120.207 97.084H122.781C122.538 98.5573 122.079 99.632 121.403 100.308C120.744 100.967 119.903 101.296 118.881 101.296C118.499 101.296 118.153 101.244 117.841 101.14C117.529 101.019 117.147 100.845 116.697 100.62C116.402 100.464 116.151 100.343 115.943 100.256C115.735 100.169 115.527 100.126 115.319 100.126C114.695 100.126 114.305 100.525 114.149 101.322H111.601ZM134.213 117.182C132.757 117.182 131.448 116.879 130.287 116.272C129.143 115.665 128.241 114.799 127.583 113.672C126.924 112.545 126.595 111.219 126.595 109.694C126.595 108.186 126.924 106.869 127.583 105.742C128.259 104.615 129.169 103.749 130.313 103.142C131.474 102.535 132.783 102.232 134.239 102.232C135.695 102.232 136.995 102.535 138.139 103.142C139.3 103.749 140.21 104.615 140.869 105.742C141.545 106.869 141.883 108.186 141.883 109.694C141.883 111.202 141.545 112.528 140.869 113.672C140.21 114.799 139.3 115.665 138.139 116.272C136.977 116.879 135.669 117.182 134.213 117.182ZM134.213 112.762C134.923 112.762 135.513 112.502 135.981 111.982C136.466 111.445 136.709 110.682 136.709 109.694C136.709 108.706 136.466 107.952 135.981 107.432C135.513 106.912 134.932 106.652 134.239 106.652C133.545 106.652 132.965 106.912 132.497 107.432C132.029 107.952 131.795 108.706 131.795 109.694C131.795 110.699 132.02 111.462 132.471 111.982C132.921 112.502 133.502 112.762 134.213 112.762ZM150.768 97.734L150.17 110.136H145.828L145.23 97.734H150.768ZM148.012 117.208C147.111 117.208 146.383 116.965 145.828 116.48C145.291 115.977 145.022 115.345 145.022 114.582C145.022 113.819 145.291 113.187 145.828 112.684C146.383 112.181 147.111 111.93 148.012 111.93C148.896 111.93 149.607 112.181 150.144 112.684C150.699 113.187 150.976 113.819 150.976 114.582C150.976 115.327 150.699 115.951 150.144 116.454C149.607 116.957 148.896 117.208 148.012 117.208ZM65.7632 142.322C65.7632 140.826 66.1079 139.484 66.7972 138.296C67.5012 137.108 68.4472 136.184 69.6352 135.524C70.8379 134.849 72.1506 134.512 73.5732 134.512C75.2012 134.512 76.6459 134.915 77.9072 135.722C79.1832 136.514 80.1072 137.643 80.6792 139.11H77.6652C77.2692 138.303 76.7192 137.702 76.0152 137.306C75.3112 136.91 74.4972 136.712 73.5732 136.712C72.5612 136.712 71.6592 136.939 70.8672 137.394C70.0752 137.849 69.4519 138.501 68.9972 139.352C68.5572 140.203 68.3372 141.193 68.3372 142.322C68.3372 143.451 68.5572 144.441 68.9972 145.292C69.4519 146.143 70.0752 146.803 70.8672 147.272C71.6592 147.727 72.5612 147.954 73.5732 147.954C74.4972 147.954 75.3112 147.756 76.0152 147.36C76.7192 146.964 77.2692 146.363 77.6652 145.556H80.6792C80.1072 147.023 79.1832 148.152 77.9072 148.944C76.6459 149.736 75.2012 150.132 73.5732 150.132C72.1359 150.132 70.8232 149.802 69.6352 149.142C68.4472 148.467 67.5012 147.536 66.7972 146.348C66.1079 145.16 65.7632 143.818 65.7632 142.322ZM82.7788 143.884C82.7788 142.667 83.0282 141.589 83.5268 140.65C84.0402 139.711 84.7295 138.985 85.5948 138.472C86.4748 137.944 87.4428 137.68 88.4988 137.68C89.4522 137.68 90.2808 137.871 90.9848 138.252C91.7035 138.619 92.2755 139.081 92.7008 139.638V137.878H95.2308V150H92.7008V148.196C92.2755 148.768 91.6962 149.245 90.9628 149.626C90.2295 150.007 89.3935 150.198 88.4548 150.198C87.4135 150.198 86.4602 149.934 85.5948 149.406C84.7295 148.863 84.0402 148.115 83.5268 147.162C83.0282 146.194 82.7788 145.101 82.7788 143.884ZM92.7008 143.928C92.7008 143.092 92.5248 142.366 92.1728 141.75C91.8355 141.134 91.3882 140.665 90.8308 140.342C90.2735 140.019 89.6722 139.858 89.0268 139.858C88.3815 139.858 87.7802 140.019 87.2228 140.342C86.6655 140.65 86.2108 141.112 85.8588 141.728C85.5215 142.329 85.3528 143.048 85.3528 143.884C85.3528 144.72 85.5215 145.453 85.8588 146.084C86.2108 146.715 86.6655 147.199 87.2228 147.536C87.7948 147.859 88.3962 148.02 89.0268 148.02C89.6722 148.02 90.2735 147.859 90.8308 147.536C91.3882 147.213 91.8355 146.744 92.1728 146.128C92.5248 145.497 92.7008 144.764 92.7008 143.928ZM97.689 143.928C97.689 142.681 97.9383 141.589 98.437 140.65C98.9503 139.697 99.6543 138.963 100.549 138.45C101.444 137.937 102.47 137.68 103.629 137.68C105.096 137.68 106.306 138.032 107.259 138.736C108.227 139.425 108.88 140.415 109.217 141.706H106.511C106.291 141.105 105.939 140.635 105.455 140.298C104.971 139.961 104.362 139.792 103.629 139.792C102.602 139.792 101.781 140.159 101.165 140.892C100.564 141.611 100.263 142.623 100.263 143.928C100.263 145.233 100.564 146.253 101.165 146.986C101.781 147.719 102.602 148.086 103.629 148.086C105.081 148.086 106.042 147.448 106.511 146.172H109.217C108.865 147.404 108.205 148.387 107.237 149.12C106.269 149.839 105.066 150.198 103.629 150.198C102.47 150.198 101.444 149.941 100.549 149.428C99.6543 148.9 98.9503 148.167 98.437 147.228C97.9383 146.275 97.689 145.175 97.689 143.928ZM117.986 137.68C118.91 137.68 119.732 137.878 120.45 138.274C121.184 138.67 121.756 139.257 122.166 140.034C122.592 140.811 122.804 141.75 122.804 142.85V150H120.318V143.224C120.318 142.139 120.047 141.31 119.504 140.738C118.962 140.151 118.221 139.858 117.282 139.858C116.344 139.858 115.596 140.151 115.038 140.738C114.496 141.31 114.224 142.139 114.224 143.224V150H111.716V133.72H114.224V139.286C114.65 138.773 115.185 138.377 115.83 138.098C116.49 137.819 117.209 137.68 117.986 137.68ZM131.262 150.198C130.118 150.198 129.084 149.941 128.16 149.428C127.236 148.9 126.51 148.167 125.982 147.228C125.454 146.275 125.19 145.175 125.19 143.928C125.19 142.696 125.461 141.603 126.004 140.65C126.546 139.697 127.287 138.963 128.226 138.45C129.164 137.937 130.213 137.68 131.372 137.68C132.53 137.68 133.579 137.937 134.518 138.45C135.456 138.963 136.197 139.697 136.74 140.65C137.282 141.603 137.554 142.696 137.554 143.928C137.554 145.16 137.275 146.253 136.718 147.206C136.16 148.159 135.398 148.9 134.43 149.428C133.476 149.941 132.42 150.198 131.262 150.198ZM131.262 148.02C131.907 148.02 132.508 147.866 133.066 147.558C133.638 147.25 134.1 146.788 134.452 146.172C134.804 145.556 134.98 144.808 134.98 143.928C134.98 143.048 134.811 142.307 134.474 141.706C134.136 141.09 133.689 140.628 133.132 140.32C132.574 140.012 131.973 139.858 131.328 139.858C130.682 139.858 130.081 140.012 129.524 140.32C128.981 140.628 128.548 141.09 128.226 141.706C127.903 142.307 127.742 143.048 127.742 143.928C127.742 145.233 128.072 146.245 128.732 146.964C129.406 147.668 130.25 148.02 131.262 148.02ZM142.541 139.638C142.907 139.022 143.391 138.545 143.993 138.208C144.609 137.856 145.335 137.68 146.171 137.68V140.276H145.533C144.55 140.276 143.802 140.525 143.289 141.024C142.79 141.523 142.541 142.388 142.541 143.62V150H140.033V137.878H142.541V139.638ZM150.984 139.638C151.351 139.022 151.835 138.545 152.436 138.208C153.052 137.856 153.778 137.68 154.614 137.68V140.276H153.976C152.994 140.276 152.246 140.525 151.732 141.024C151.234 141.523 150.984 142.388 150.984 143.62V150H148.476V137.878H150.984V139.638ZM162.178 150.198C161.034 150.198 160 149.941 159.076 149.428C158.152 148.9 157.426 148.167 156.898 147.228C156.37 146.275 156.106 145.175 156.106 143.928C156.106 142.696 156.377 141.603 156.92 140.65C157.462 139.697 158.203 138.963 159.142 138.45C160.08 137.937 161.129 137.68 162.288 137.68C163.446 137.68 164.495 137.937 165.434 138.45C166.372 138.963 167.113 139.697 167.656 140.65C168.198 141.603 168.47 142.696 168.47 143.928C168.47 145.16 168.191 146.253 167.634 147.206C167.076 148.159 166.314 148.9 165.346 149.428C164.392 149.941 163.336 150.198 162.178 150.198ZM162.178 148.02C162.823 148.02 163.424 147.866 163.982 147.558C164.554 147.25 165.016 146.788 165.368 146.172C165.72 145.556 165.896 144.808 165.896 143.928C165.896 143.048 165.727 142.307 165.39 141.706C165.052 141.09 164.605 140.628 164.048 140.32C163.49 140.012 162.889 139.858 162.244 139.858C161.598 139.858 160.997 140.012 160.44 140.32C159.897 140.628 159.464 141.09 159.142 141.706C158.819 142.307 158.658 143.048 158.658 143.928C158.658 145.233 158.988 146.245 159.648 146.964C160.322 147.668 161.166 148.02 162.178 148.02ZM175.349 150.198C174.395 150.198 173.537 150.029 172.775 149.692C172.027 149.34 171.433 148.871 170.993 148.284C170.553 147.683 170.318 147.015 170.289 146.282H172.885C172.929 146.795 173.171 147.228 173.611 147.58C174.065 147.917 174.63 148.086 175.305 148.086C176.009 148.086 176.551 147.954 176.933 147.69C177.329 147.411 177.527 147.059 177.527 146.634C177.527 146.179 177.307 145.842 176.867 145.622C176.441 145.402 175.759 145.16 174.821 144.896C173.911 144.647 173.171 144.405 172.599 144.17C172.027 143.935 171.528 143.576 171.103 143.092C170.692 142.608 170.487 141.97 170.487 141.178C170.487 140.533 170.677 139.946 171.059 139.418C171.44 138.875 171.983 138.45 172.687 138.142C173.405 137.834 174.227 137.68 175.151 137.68C176.529 137.68 177.637 138.032 178.473 138.736C179.323 139.425 179.778 140.371 179.837 141.574H177.329C177.285 141.031 177.065 140.599 176.669 140.276C176.273 139.953 175.737 139.792 175.063 139.792C174.403 139.792 173.897 139.917 173.545 140.166C173.193 140.415 173.017 140.745 173.017 141.156C173.017 141.479 173.134 141.75 173.369 141.97C173.603 142.19 173.889 142.366 174.227 142.498C174.564 142.615 175.063 142.769 175.723 142.96C176.603 143.195 177.321 143.437 177.879 143.686C178.451 143.921 178.942 144.273 179.353 144.742C179.763 145.211 179.976 145.835 179.991 146.612C179.991 147.301 179.8 147.917 179.419 148.46C179.037 149.003 178.495 149.428 177.791 149.736C177.101 150.044 176.287 150.198 175.349 150.198ZM54.6912 172.66C55.1165 172.103 55.6959 171.633 56.4292 171.252C57.1625 170.871 57.9912 170.68 58.9152 170.68C59.9712 170.68 60.9319 170.944 61.7972 171.472C62.6772 171.985 63.3665 172.711 63.8652 173.65C64.3639 174.589 64.6132 175.667 64.6132 176.884C64.6132 178.101 64.3639 179.194 63.8652 180.162C63.3665 181.115 62.6772 181.863 61.7972 182.406C60.9319 182.934 59.9712 183.198 58.9152 183.198C57.9912 183.198 57.1699 183.015 56.4512 182.648C55.7325 182.267 55.1459 181.797 54.6912 181.24V188.764H52.1832V170.878H54.6912V172.66ZM62.0612 176.884C62.0612 176.048 61.8852 175.329 61.5332 174.728C61.1959 174.112 60.7412 173.65 60.1692 173.342C59.6119 173.019 59.0105 172.858 58.3652 172.858C57.7345 172.858 57.1332 173.019 56.5612 173.342C56.0039 173.665 55.5492 174.134 55.1972 174.75C54.8599 175.366 54.6912 176.092 54.6912 176.928C54.6912 177.764 54.8599 178.497 55.1972 179.128C55.5492 179.744 56.0039 180.213 56.5612 180.536C57.1332 180.859 57.7345 181.02 58.3652 181.02C59.0105 181.02 59.6119 180.859 60.1692 180.536C60.7412 180.199 61.1959 179.715 61.5332 179.084C61.8852 178.453 62.0612 177.72 62.0612 176.884ZM69.6014 172.638C69.968 172.022 70.452 171.545 71.0534 171.208C71.6694 170.856 72.3954 170.68 73.2314 170.68V173.276H72.5934C71.6107 173.276 70.8627 173.525 70.3494 174.024C69.8507 174.523 69.6014 175.388 69.6014 176.62V183H67.0934V170.878H69.6014V172.638ZM86.6467 176.642C86.6467 177.097 86.6174 177.507 86.5587 177.874H77.2967C77.3701 178.842 77.7294 179.619 78.3747 180.206C79.0201 180.793 79.8121 181.086 80.7507 181.086C82.1001 181.086 83.0534 180.521 83.6107 179.392H86.3167C85.9501 180.507 85.2827 181.423 84.3147 182.142C83.3614 182.846 82.1734 183.198 80.7507 183.198C79.5921 183.198 78.5507 182.941 77.6267 182.428C76.7174 181.9 75.9987 181.167 75.4707 180.228C74.9574 179.275 74.7007 178.175 74.7007 176.928C74.7007 175.681 74.9501 174.589 75.4487 173.65C75.9621 172.697 76.6734 171.963 77.5827 171.45C78.5067 170.937 79.5627 170.68 80.7507 170.68C81.8947 170.68 82.9141 170.929 83.8087 171.428C84.7034 171.927 85.4001 172.631 85.8987 173.54C86.3974 174.435 86.6467 175.469 86.6467 176.642ZM84.0287 175.85C84.0141 174.926 83.6841 174.185 83.0387 173.628C82.3934 173.071 81.5941 172.792 80.6407 172.792C79.7754 172.792 79.0347 173.071 78.4187 173.628C77.8027 174.171 77.4361 174.911 77.3187 175.85H84.0287ZM88.2788 176.928C88.2788 175.681 88.5282 174.589 89.0268 173.65C89.5402 172.697 90.2442 171.963 91.1388 171.45C92.0335 170.937 93.0602 170.68 94.2188 170.68C95.6855 170.68 96.8955 171.032 97.8488 171.736C98.8168 172.425 99.4695 173.415 99.8068 174.706H97.1008C96.8808 174.105 96.5288 173.635 96.0448 173.298C95.5608 172.961 94.9522 172.792 94.2188 172.792C93.1922 172.792 92.3708 173.159 91.7548 173.892C91.1535 174.611 90.8528 175.623 90.8528 176.928C90.8528 178.233 91.1535 179.253 91.7548 179.986C92.3708 180.719 93.1922 181.086 94.2188 181.086C95.6708 181.086 96.6315 180.448 97.1008 179.172H99.8068C99.4548 180.404 98.7948 181.387 97.8268 182.12C96.8588 182.839 95.6562 183.198 94.2188 183.198C93.0602 183.198 92.0335 182.941 91.1388 182.428C90.2442 181.9 89.5402 181.167 89.0268 180.228C88.5282 179.275 88.2788 178.175 88.2788 176.928ZM103.582 169.272C103.128 169.272 102.746 169.118 102.438 168.81C102.13 168.502 101.976 168.121 101.976 167.666C101.976 167.211 102.13 166.83 102.438 166.522C102.746 166.214 103.128 166.06 103.582 166.06C104.022 166.06 104.396 166.214 104.704 166.522C105.012 166.83 105.166 167.211 105.166 167.666C105.166 168.121 105.012 168.502 104.704 168.81C104.396 169.118 104.022 169.272 103.582 169.272ZM104.814 170.878V183H102.306V170.878H104.814ZM112.507 183.198C111.554 183.198 110.696 183.029 109.933 182.692C109.185 182.34 108.591 181.871 108.151 181.284C107.711 180.683 107.476 180.015 107.447 179.282H110.043C110.087 179.795 110.329 180.228 110.769 180.58C111.224 180.917 111.788 181.086 112.463 181.086C113.167 181.086 113.71 180.954 114.091 180.69C114.487 180.411 114.685 180.059 114.685 179.634C114.685 179.179 114.465 178.842 114.025 178.622C113.6 178.402 112.918 178.16 111.979 177.896C111.07 177.647 110.329 177.405 109.757 177.17C109.185 176.935 108.686 176.576 108.261 176.092C107.85 175.608 107.645 174.97 107.645 174.178C107.645 173.533 107.836 172.946 108.217 172.418C108.598 171.875 109.141 171.45 109.845 171.142C110.564 170.834 111.385 170.68 112.309 170.68C113.688 170.68 114.795 171.032 115.631 171.736C116.482 172.425 116.936 173.371 116.995 174.574H114.487C114.443 174.031 114.223 173.599 113.827 173.276C113.431 172.953 112.896 172.792 112.221 172.792C111.561 172.792 111.055 172.917 110.703 173.166C110.351 173.415 110.175 173.745 110.175 174.156C110.175 174.479 110.292 174.75 110.527 174.97C110.762 175.19 111.048 175.366 111.385 175.498C111.722 175.615 112.221 175.769 112.881 175.96C113.761 176.195 114.48 176.437 115.037 176.686C115.609 176.921 116.1 177.273 116.511 177.742C116.922 178.211 117.134 178.835 117.149 179.612C117.149 180.301 116.958 180.917 116.577 181.46C116.196 182.003 115.653 182.428 114.949 182.736C114.26 183.044 113.446 183.198 112.507 183.198ZM119.023 176.884C119.023 175.667 119.272 174.589 119.771 173.65C120.284 172.711 120.974 171.985 121.839 171.472C122.719 170.944 123.687 170.68 124.743 170.68C125.696 170.68 126.525 170.871 127.229 171.252C127.948 171.619 128.52 172.081 128.945 172.638V170.878H131.475V183H128.945V181.196C128.52 181.768 127.94 182.245 127.207 182.626C126.474 183.007 125.638 183.198 124.699 183.198C123.658 183.198 122.704 182.934 121.839 182.406C120.974 181.863 120.284 181.115 119.771 180.162C119.272 179.194 119.023 178.101 119.023 176.884ZM128.945 176.928C128.945 176.092 128.769 175.366 128.417 174.75C128.08 174.134 127.632 173.665 127.075 173.342C126.518 173.019 125.916 172.858 125.271 172.858C124.626 172.858 124.024 173.019 123.467 173.342C122.91 173.65 122.455 174.112 122.103 174.728C121.766 175.329 121.597 176.048 121.597 176.884C121.597 177.72 121.766 178.453 122.103 179.084C122.455 179.715 122.91 180.199 123.467 180.536C124.039 180.859 124.64 181.02 125.271 181.02C125.916 181.02 126.518 180.859 127.075 180.536C127.632 180.213 128.08 179.744 128.417 179.128C128.769 178.497 128.945 177.764 128.945 176.928ZM149.443 170.68C150.396 170.68 151.247 170.878 151.995 171.274C152.758 171.67 153.352 172.257 153.777 173.034C154.217 173.811 154.437 174.75 154.437 175.85V183H151.951V176.224C151.951 175.139 151.68 174.31 151.137 173.738C150.594 173.151 149.854 172.858 148.915 172.858C147.976 172.858 147.228 173.151 146.671 173.738C146.128 174.31 145.857 175.139 145.857 176.224V183H143.371V176.224C143.371 175.139 143.1 174.31 142.557 173.738C142.014 173.151 141.274 172.858 140.335 172.858C139.396 172.858 138.648 173.151 138.091 173.738C137.548 174.31 137.277 175.139 137.277 176.224V183H134.769V170.878H137.277V172.264C137.688 171.765 138.208 171.377 138.839 171.098C139.47 170.819 140.144 170.68 140.863 170.68C141.831 170.68 142.696 170.885 143.459 171.296C144.222 171.707 144.808 172.301 145.219 173.078C145.586 172.345 146.158 171.765 146.935 171.34C147.712 170.9 148.548 170.68 149.443 170.68ZM167.743 183.198C166.79 183.198 165.932 183.029 165.169 182.692C164.421 182.34 163.827 181.871 163.387 181.284C162.947 180.683 162.713 180.015 162.683 179.282H165.279C165.323 179.795 165.565 180.228 166.005 180.58C166.46 180.917 167.025 181.086 167.699 181.086C168.403 181.086 168.946 180.954 169.327 180.69C169.723 180.411 169.921 180.059 169.921 179.634C169.921 179.179 169.701 178.842 169.261 178.622C168.836 178.402 168.154 178.16 167.215 177.896C166.306 177.647 165.565 177.405 164.993 177.17C164.421 176.935 163.923 176.576 163.497 176.092C163.087 175.608 162.881 174.97 162.881 174.178C162.881 173.533 163.072 172.946 163.453 172.418C163.835 171.875 164.377 171.45 165.081 171.142C165.8 170.834 166.621 170.68 167.545 170.68C168.924 170.68 170.031 171.032 170.867 171.736C171.718 172.425 172.173 173.371 172.231 174.574H169.723C169.679 174.031 169.459 173.599 169.063 173.276C168.667 172.953 168.132 172.792 167.457 172.792C166.797 172.792 166.291 172.917 165.939 173.166C165.587 173.415 165.411 173.745 165.411 174.156C165.411 174.479 165.529 174.75 165.763 174.97C165.998 175.19 166.284 175.366 166.621 175.498C166.959 175.615 167.457 175.769 168.117 175.96C168.997 176.195 169.716 176.437 170.273 176.686C170.845 176.921 171.337 177.273 171.747 177.742C172.158 178.211 172.371 178.835 172.385 179.612C172.385 180.301 172.195 180.917 171.813 181.46C171.432 182.003 170.889 182.428 170.185 182.736C169.496 183.044 168.682 183.198 167.743 183.198ZM186.205 176.642C186.205 177.097 186.176 177.507 186.117 177.874H176.855C176.929 178.842 177.288 179.619 177.933 180.206C178.579 180.793 179.371 181.086 180.309 181.086C181.659 181.086 182.612 180.521 183.169 179.392H185.875C185.509 180.507 184.841 181.423 183.873 182.142C182.92 182.846 181.732 183.198 180.309 183.198C179.151 183.198 178.109 182.941 177.185 182.428C176.276 181.9 175.557 181.167 175.029 180.228C174.516 179.275 174.259 178.175 174.259 176.928C174.259 175.681 174.509 174.589 175.007 173.65C175.521 172.697 176.232 171.963 177.141 171.45C178.065 170.937 179.121 170.68 180.309 170.68C181.453 170.68 182.473 170.929 183.367 171.428C184.262 171.927 184.959 172.631 185.457 173.54C185.956 174.435 186.205 175.469 186.205 176.642ZM183.587 175.85C183.573 174.926 183.243 174.185 182.597 173.628C181.952 173.071 181.153 172.792 180.199 172.792C179.334 172.792 178.593 173.071 177.977 173.628C177.361 174.171 176.995 174.911 176.877 175.85H183.587ZM191.181 172.638C191.548 172.022 192.032 171.545 192.633 171.208C193.249 170.856 193.975 170.68 194.811 170.68V173.276H194.173C193.191 173.276 192.443 173.525 191.929 174.024C191.431 174.523 191.181 175.388 191.181 176.62V183H188.673V170.878H191.181V172.638ZM30.6792 209.884C30.6792 208.667 30.9286 207.589 31.4272 206.65C31.9406 205.711 32.6299 204.985 33.4952 204.472C34.3752 203.944 35.3432 203.68 36.3992 203.68C37.3526 203.68 38.1812 203.871 38.8852 204.252C39.6039 204.619 40.1759 205.081 40.6012 205.638V203.878H43.1312V216H40.6012V214.196C40.1759 214.768 39.5966 215.245 38.8632 215.626C38.1299 216.007 37.2939 216.198 36.3552 216.198C35.3139 216.198 34.3606 215.934 33.4952 215.406C32.6299 214.863 31.9406 214.115 31.4272 213.162C30.9286 212.194 30.6792 211.101 30.6792 209.884ZM40.6012 209.928C40.6012 209.092 40.4252 208.366 40.0732 207.75C39.7359 207.134 39.2886 206.665 38.7312 206.342C38.1739 206.019 37.5726 205.858 36.9272 205.858C36.2819 205.858 35.6806 206.019 35.1232 206.342C34.5659 206.65 34.1112 207.112 33.7592 207.728C33.4219 208.329 33.2532 209.048 33.2532 209.884C33.2532 210.72 33.4219 211.453 33.7592 212.084C34.1112 212.715 34.5659 213.199 35.1232 213.536C35.6952 213.859 36.2966 214.02 36.9272 214.02C37.5726 214.02 38.1739 213.859 38.7312 213.536C39.2886 213.213 39.7359 212.744 40.0732 212.128C40.4252 211.497 40.6012 210.764 40.6012 209.928ZM45.5894 209.884C45.5894 208.667 45.8387 207.589 46.3374 206.65C46.8507 205.711 47.5401 204.985 48.4054 204.472C49.2854 203.944 50.2607 203.68 51.3314 203.68C52.1234 203.68 52.9007 203.856 53.6634 204.208C54.4407 204.545 55.0567 205 55.5114 205.572V199.72H58.0414V216H55.5114V214.174C55.1007 214.761 54.5287 215.245 53.7954 215.626C53.0767 216.007 52.2481 216.198 51.3094 216.198C50.2534 216.198 49.2854 215.934 48.4054 215.406C47.5401 214.863 46.8507 214.115 46.3374 213.162C45.8387 212.194 45.5894 211.101 45.5894 209.884ZM55.5114 209.928C55.5114 209.092 55.3354 208.366 54.9834 207.75C54.6461 207.134 54.1987 206.665 53.6414 206.342C53.0841 206.019 52.4827 205.858 51.8374 205.858C51.1921 205.858 50.5907 206.019 50.0334 206.342C49.4761 206.65 49.0214 207.112 48.6694 207.728C48.3321 208.329 48.1634 209.048 48.1634 209.884C48.1634 210.72 48.3321 211.453 48.6694 212.084C49.0214 212.715 49.4761 213.199 50.0334 213.536C50.6054 213.859 51.2067 214.02 51.8374 214.02C52.4827 214.02 53.0841 213.859 53.6414 213.536C54.1987 213.213 54.6461 212.744 54.9834 212.128C55.3354 211.497 55.5114 210.764 55.5114 209.928ZM72.4455 209.642C72.4455 210.097 72.4162 210.507 72.3575 210.874H63.0955C63.1689 211.842 63.5282 212.619 64.1735 213.206C64.8189 213.793 65.6109 214.086 66.5495 214.086C67.8989 214.086 68.8522 213.521 69.4095 212.392H72.1155C71.7489 213.507 71.0815 214.423 70.1135 215.142C69.1602 215.846 67.9722 216.198 66.5495 216.198C65.3909 216.198 64.3495 215.941 63.4255 215.428C62.5162 214.9 61.7975 214.167 61.2695 213.228C60.7562 212.275 60.4995 211.175 60.4995 209.928C60.4995 208.681 60.7489 207.589 61.2475 206.65C61.7609 205.697 62.4722 204.963 63.3815 204.45C64.3055 203.937 65.3615 203.68 66.5495 203.68C67.6935 203.68 68.7129 203.929 69.6075 204.428C70.5022 204.927 71.1989 205.631 71.6975 206.54C72.1962 207.435 72.4455 208.469 72.4455 209.642ZM69.8275 208.85C69.8129 207.926 69.4829 207.185 68.8375 206.628C68.1922 206.071 67.3929 205.792 66.4395 205.792C65.5742 205.792 64.8335 206.071 64.2175 206.628C63.6015 207.171 63.2349 207.911 63.1175 208.85H69.8275ZM79.3137 216.198C78.3603 216.198 77.5023 216.029 76.7397 215.692C75.9917 215.34 75.3977 214.871 74.9577 214.284C74.5177 213.683 74.283 213.015 74.2537 212.282H76.8497C76.8937 212.795 77.1357 213.228 77.5757 213.58C78.0303 213.917 78.595 214.086 79.2697 214.086C79.9737 214.086 80.5163 213.954 80.8977 213.69C81.2937 213.411 81.4917 213.059 81.4917 212.634C81.4917 212.179 81.2717 211.842 80.8317 211.622C80.4063 211.402 79.7243 211.16 78.7857 210.896C77.8763 210.647 77.1357 210.405 76.5637 210.17C75.9917 209.935 75.493 209.576 75.0677 209.092C74.657 208.608 74.4517 207.97 74.4517 207.178C74.4517 206.533 74.6423 205.946 75.0237 205.418C75.405 204.875 75.9477 204.45 76.6517 204.142C77.3703 203.834 78.1917 203.68 79.1157 203.68C80.4943 203.68 81.6017 204.032 82.4377 204.736C83.2883 205.425 83.743 206.371 83.8017 207.574H81.2937C81.2497 207.031 81.0297 206.599 80.6337 206.276C80.2377 205.953 79.7023 205.792 79.0277 205.792C78.3677 205.792 77.8617 205.917 77.5097 206.166C77.1577 206.415 76.9817 206.745 76.9817 207.156C76.9817 207.479 77.099 207.75 77.3337 207.97C77.5683 208.19 77.8543 208.366 78.1917 208.498C78.529 208.615 79.0277 208.769 79.6877 208.96C80.5677 209.195 81.2863 209.437 81.8437 209.686C82.4157 209.921 82.907 210.273 83.3177 210.742C83.7283 211.211 83.941 211.835 83.9557 212.612C83.9557 213.301 83.765 213.917 83.3837 214.46C83.0023 215.003 82.4597 215.428 81.7557 215.736C81.0663 216.044 80.2523 216.198 79.3137 216.198ZM89.5916 205.924V212.634C89.5916 213.089 89.6943 213.419 89.8996 213.624C90.1196 213.815 90.4863 213.91 90.9996 213.91H92.5396V216H90.5596C89.4303 216 88.565 215.736 87.9636 215.208C87.3623 214.68 87.0616 213.822 87.0616 212.634V205.924H85.6316V203.878H87.0616V200.864H89.5916V203.878H92.5396V205.924H89.5916ZM97.3592 205.638C97.7258 205.022 98.2098 204.545 98.8112 204.208C99.4272 203.856 100.153 203.68 100.989 203.68V206.276H100.351C99.3685 206.276 98.6205 206.525 98.1072 207.024C97.6085 207.523 97.3592 208.388 97.3592 209.62V216H94.8512V203.878H97.3592V205.638ZM102.459 209.884C102.459 208.667 102.708 207.589 103.207 206.65C103.72 205.711 104.409 204.985 105.275 204.472C106.155 203.944 107.123 203.68 108.179 203.68C109.132 203.68 109.961 203.871 110.665 204.252C111.383 204.619 111.955 205.081 112.381 205.638V203.878H114.911V216H112.381V214.196C111.955 214.768 111.376 215.245 110.643 215.626C109.909 216.007 109.073 216.198 108.135 216.198C107.093 216.198 106.14 215.934 105.275 215.406C104.409 214.863 103.72 214.115 103.207 213.162C102.708 212.194 102.459 211.101 102.459 209.884ZM112.381 209.928C112.381 209.092 112.205 208.366 111.853 207.75C111.515 207.134 111.068 206.665 110.511 206.342C109.953 206.019 109.352 205.858 108.707 205.858C108.061 205.858 107.46 206.019 106.903 206.342C106.345 206.65 105.891 207.112 105.539 207.728C105.201 208.329 105.033 209.048 105.033 209.884C105.033 210.72 105.201 211.453 105.539 212.084C105.891 212.715 106.345 213.199 106.903 213.536C107.475 213.859 108.076 214.02 108.707 214.02C109.352 214.02 109.953 213.859 110.511 213.536C111.068 213.213 111.515 212.744 111.853 212.128C112.205 211.497 112.381 210.764 112.381 209.928ZM117.369 209.884C117.369 208.667 117.618 207.589 118.117 206.65C118.63 205.711 119.319 204.985 120.185 204.472C121.065 203.944 122.04 203.68 123.111 203.68C123.903 203.68 124.68 203.856 125.443 204.208C126.22 204.545 126.836 205 127.291 205.572V199.72H129.821V216H127.291V214.174C126.88 214.761 126.308 215.245 125.575 215.626C124.856 216.007 124.027 216.198 123.089 216.198C122.033 216.198 121.065 215.934 120.185 215.406C119.319 214.863 118.63 214.115 118.117 213.162C117.618 212.194 117.369 211.101 117.369 209.884ZM127.291 209.928C127.291 209.092 127.115 208.366 126.763 207.75C126.425 207.134 125.978 206.665 125.421 206.342C124.863 206.019 124.262 205.858 123.617 205.858C122.971 205.858 122.37 206.019 121.813 206.342C121.255 206.65 120.801 207.112 120.449 207.728C120.111 208.329 119.943 209.048 119.943 209.884C119.943 210.72 120.111 211.453 120.449 212.084C120.801 212.715 121.255 213.199 121.813 213.536C122.385 213.859 122.986 214.02 123.617 214.02C124.262 214.02 124.863 213.859 125.421 213.536C125.978 213.213 126.425 212.744 126.763 212.128C127.115 211.497 127.291 210.764 127.291 209.928ZM138.373 216.198C137.229 216.198 136.195 215.941 135.271 215.428C134.347 214.9 133.621 214.167 133.093 213.228C132.565 212.275 132.301 211.175 132.301 209.928C132.301 208.696 132.572 207.603 133.115 206.65C133.658 205.697 134.398 204.963 135.337 204.45C136.276 203.937 137.324 203.68 138.483 203.68C139.642 203.68 140.69 203.937 141.629 204.45C142.568 204.963 143.308 205.697 143.851 206.65C144.394 207.603 144.665 208.696 144.665 209.928C144.665 211.16 144.386 212.253 143.829 213.206C143.272 214.159 142.509 214.9 141.541 215.428C140.588 215.941 139.532 216.198 138.373 216.198ZM138.373 214.02C139.018 214.02 139.62 213.866 140.177 213.558C140.749 213.25 141.211 212.788 141.563 212.172C141.915 211.556 142.091 210.808 142.091 209.928C142.091 209.048 141.922 208.307 141.585 207.706C141.248 207.09 140.8 206.628 140.243 206.32C139.686 206.012 139.084 205.858 138.439 205.858C137.794 205.858 137.192 206.012 136.635 206.32C136.092 206.628 135.66 207.09 135.337 207.706C135.014 208.307 134.853 209.048 134.853 209.928C134.853 211.233 135.183 212.245 135.843 212.964C136.518 213.668 137.361 214.02 138.373 214.02ZM151.544 216.198C150.591 216.198 149.733 216.029 148.97 215.692C148.222 215.34 147.628 214.871 147.188 214.284C146.748 213.683 146.513 213.015 146.484 212.282H149.08C149.124 212.795 149.366 213.228 149.806 213.58C150.261 213.917 150.825 214.086 151.5 214.086C152.204 214.086 152.747 213.954 153.128 213.69C153.524 213.411 153.722 213.059 153.722 212.634C153.722 212.179 153.502 211.842 153.062 211.622C152.637 211.402 151.955 211.16 151.016 210.896C150.107 210.647 149.366 210.405 148.794 210.17C148.222 209.935 147.723 209.576 147.298 209.092C146.887 208.608 146.682 207.97 146.682 207.178C146.682 206.533 146.873 205.946 147.254 205.418C147.635 204.875 148.178 204.45 148.882 204.142C149.601 203.834 150.422 203.68 151.346 203.68C152.725 203.68 153.832 204.032 154.668 204.736C155.519 205.425 155.973 206.371 156.032 207.574H153.524C153.48 207.031 153.26 206.599 152.864 206.276C152.468 205.953 151.933 205.792 151.258 205.792C150.598 205.792 150.092 205.917 149.74 206.166C149.388 206.415 149.212 206.745 149.212 207.156C149.212 207.479 149.329 207.75 149.564 207.97C149.799 208.19 150.085 208.366 150.422 208.498C150.759 208.615 151.258 208.769 151.918 208.96C152.798 209.195 153.517 209.437 154.074 209.686C154.646 209.921 155.137 210.273 155.548 210.742C155.959 211.211 156.171 211.835 156.186 212.612C156.186 213.301 155.995 213.917 155.614 214.46C155.233 215.003 154.69 215.428 153.986 215.736C153.297 216.044 152.483 216.198 151.544 216.198ZM167.119 205.66C167.544 205.103 168.124 204.633 168.857 204.252C169.59 203.871 170.419 203.68 171.343 203.68C172.399 203.68 173.36 203.944 174.225 204.472C175.105 204.985 175.794 205.711 176.293 206.65C176.792 207.589 177.041 208.667 177.041 209.884C177.041 211.101 176.792 212.194 176.293 213.162C175.794 214.115 175.105 214.863 174.225 215.406C173.36 215.934 172.399 216.198 171.343 216.198C170.419 216.198 169.598 216.015 168.879 215.648C168.16 215.267 167.574 214.797 167.119 214.24V221.764H164.611V203.878H167.119V205.66ZM174.489 209.884C174.489 209.048 174.313 208.329 173.961 207.728C173.624 207.112 173.169 206.65 172.597 206.342C172.04 206.019 171.438 205.858 170.793 205.858C170.162 205.858 169.561 206.019 168.989 206.342C168.432 206.665 167.977 207.134 167.625 207.75C167.288 208.366 167.119 209.092 167.119 209.928C167.119 210.764 167.288 211.497 167.625 212.128C167.977 212.744 168.432 213.213 168.989 213.536C169.561 213.859 170.162 214.02 170.793 214.02C171.438 214.02 172.04 213.859 172.597 213.536C173.169 213.199 173.624 212.715 173.961 212.084C174.313 211.453 174.489 210.72 174.489 209.884ZM178.685 209.884C178.685 208.667 178.934 207.589 179.433 206.65C179.946 205.711 180.636 204.985 181.501 204.472C182.381 203.944 183.349 203.68 184.405 203.68C185.358 203.68 186.187 203.871 186.891 204.252C187.61 204.619 188.182 205.081 188.607 205.638V203.878H191.137V216H188.607V214.196C188.182 214.768 187.602 215.245 186.869 215.626C186.136 216.007 185.3 216.198 184.361 216.198C183.32 216.198 182.366 215.934 181.501 215.406C180.636 214.863 179.946 214.115 179.433 213.162C178.934 212.194 178.685 211.101 178.685 209.884ZM188.607 209.928C188.607 209.092 188.431 208.366 188.079 207.75C187.742 207.134 187.294 206.665 186.737 206.342C186.18 206.019 185.578 205.858 184.933 205.858C184.288 205.858 183.686 206.019 183.129 206.342C182.572 206.65 182.117 207.112 181.765 207.728C181.428 208.329 181.259 209.048 181.259 209.884C181.259 210.72 181.428 211.453 181.765 212.084C182.117 212.715 182.572 213.199 183.129 213.536C183.701 213.859 184.302 214.02 184.933 214.02C185.578 214.02 186.18 213.859 186.737 213.536C187.294 213.213 187.742 212.744 188.079 212.128C188.431 211.497 188.607 210.764 188.607 209.928ZM196.939 205.638C197.306 205.022 197.79 204.545 198.391 204.208C199.007 203.856 199.733 203.68 200.569 203.68V206.276H199.931C198.949 206.276 198.201 206.525 197.687 207.024C197.189 207.523 196.939 208.388 196.939 209.62V216H194.431V203.878H196.939V205.638ZM202.039 209.884C202.039 208.667 202.288 207.589 202.787 206.65C203.3 205.711 203.989 204.985 204.855 204.472C205.735 203.944 206.703 203.68 207.759 203.68C208.712 203.68 209.541 203.871 210.245 204.252C210.963 204.619 211.535 205.081 211.961 205.638V203.878H214.491V216H211.961V214.196C211.535 214.768 210.956 215.245 210.223 215.626C209.489 216.007 208.653 216.198 207.715 216.198C206.673 216.198 205.72 215.934 204.855 215.406C203.989 214.863 203.3 214.115 202.787 213.162C202.288 212.194 202.039 211.101 202.039 209.884ZM211.961 209.928C211.961 209.092 211.785 208.366 211.433 207.75C211.095 207.134 210.648 206.665 210.091 206.342C209.533 206.019 208.932 205.858 208.287 205.858C207.641 205.858 207.04 206.019 206.483 206.342C205.925 206.65 205.471 207.112 205.119 207.728C204.781 208.329 204.613 209.048 204.613 209.884C204.613 210.72 204.781 211.453 205.119 212.084C205.471 212.715 205.925 213.199 206.483 213.536C207.055 213.859 207.656 214.02 208.287 214.02C208.932 214.02 209.533 213.859 210.091 213.536C210.648 213.213 211.095 212.744 211.433 212.128C211.785 211.497 211.961 210.764 211.961 209.928ZM48.0691 236.68C49.0225 236.68 49.8731 236.878 50.6211 237.274C51.3838 237.67 51.9778 238.257 52.4031 239.034C52.8431 239.811 53.0631 240.75 53.0631 241.85V249H50.5771V242.224C50.5771 241.139 50.3058 240.31 49.7631 239.738C49.2205 239.151 48.4798 238.858 47.5411 238.858C46.6025 238.858 45.8545 239.151 45.2971 239.738C44.7545 240.31 44.4831 241.139 44.4831 242.224V249H41.9971V242.224C41.9971 241.139 41.7258 240.31 41.1831 239.738C40.6405 239.151 39.8998 238.858 38.9611 238.858C38.0225 238.858 37.2745 239.151 36.7171 239.738C36.1745 240.31 35.9031 241.139 35.9031 242.224V249H33.3951V236.878H35.9031V238.264C36.3138 237.765 36.8345 237.377 37.4651 237.098C38.0958 236.819 38.7705 236.68 39.4891 236.68C40.4571 236.68 41.3225 236.885 42.0851 237.296C42.8478 237.707 43.4345 238.301 43.8451 239.078C44.2118 238.345 44.7838 237.765 45.5611 237.34C46.3385 236.9 47.1745 236.68 48.0691 236.68ZM67.3645 242.642C67.3645 243.097 67.3352 243.507 67.2765 243.874H58.0145C58.0878 244.842 58.4472 245.619 59.0925 246.206C59.7378 246.793 60.5298 247.086 61.4685 247.086C62.8178 247.086 63.7712 246.521 64.3285 245.392H67.0345C66.6678 246.507 66.0005 247.423 65.0325 248.142C64.0792 248.846 62.8912 249.198 61.4685 249.198C60.3098 249.198 59.2685 248.941 58.3445 248.428C57.4352 247.9 56.7165 247.167 56.1885 246.228C55.6752 245.275 55.4185 244.175 55.4185 242.928C55.4185 241.681 55.6678 240.589 56.1665 239.65C56.6798 238.697 57.3912 237.963 58.3005 237.45C59.2245 236.937 60.2805 236.68 61.4685 236.68C62.6125 236.68 63.6318 236.929 64.5265 237.428C65.4212 237.927 66.1178 238.631 66.6165 239.54C67.1152 240.435 67.3645 241.469 67.3645 242.642ZM64.7465 241.85C64.7318 240.926 64.4018 240.185 63.7565 239.628C63.1112 239.071 62.3118 238.792 61.3585 238.792C60.4932 238.792 59.7525 239.071 59.1365 239.628C58.5205 240.171 58.1538 240.911 58.0365 241.85H64.7465ZM72.3406 232.72V249H69.8326V232.72H72.3406ZM81.9034 236.68C82.8274 236.68 83.6487 236.878 84.3674 237.274C85.1007 237.67 85.6727 238.257 86.0834 239.034C86.5087 239.811 86.7214 240.75 86.7214 241.85V249H84.2354V242.224C84.2354 241.139 83.9641 240.31 83.4214 239.738C82.8787 239.151 82.1381 238.858 81.1994 238.858C80.2607 238.858 79.5127 239.151 78.9554 239.738C78.4127 240.31 78.1414 241.139 78.1414 242.224V249H75.6334V232.72H78.1414V238.286C78.5667 237.773 79.1021 237.377 79.7474 237.098C80.4074 236.819 81.1261 236.68 81.9034 236.68ZM95.1785 249.198C94.0345 249.198 93.0005 248.941 92.0765 248.428C91.1525 247.9 90.4265 247.167 89.8985 246.228C89.3705 245.275 89.1065 244.175 89.1065 242.928C89.1065 241.696 89.3778 240.603 89.9205 239.65C90.4632 238.697 91.2038 237.963 92.1425 237.45C93.0812 236.937 94.1298 236.68 95.2885 236.68C96.4472 236.68 97.4958 236.937 98.4345 237.45C99.3732 237.963 100.114 238.697 100.657 239.65C101.199 240.603 101.471 241.696 101.471 242.928C101.471 244.16 101.192 245.253 100.635 246.206C100.077 247.159 99.3145 247.9 98.3465 248.428C97.3932 248.941 96.3372 249.198 95.1785 249.198ZM95.1785 247.02C95.8238 247.02 96.4252 246.866 96.9825 246.558C97.5545 246.25 98.0165 245.788 98.3685 245.172C98.7205 244.556 98.8965 243.808 98.8965 242.928C98.8965 242.048 98.7278 241.307 98.3905 240.706C98.0532 240.09 97.6058 239.628 97.0485 239.32C96.4912 239.012 95.8898 238.858 95.2445 238.858C94.5992 238.858 93.9978 239.012 93.4405 239.32C92.8978 239.628 92.4652 240.09 92.1425 240.706C91.8198 241.307 91.6585 242.048 91.6585 242.928C91.6585 244.233 91.9885 245.245 92.6485 245.964C93.3232 246.668 94.1665 247.02 95.1785 247.02ZM106.458 238.638C106.824 238.022 107.308 237.545 107.91 237.208C108.526 236.856 109.252 236.68 110.088 236.68V239.276H109.45C108.467 239.276 107.719 239.525 107.206 240.024C106.707 240.523 106.458 241.388 106.458 242.62V249H103.95V236.878H106.458V238.638ZM117.272 242.928C117.272 241.681 117.521 240.589 118.02 239.65C118.533 238.697 119.237 237.963 120.132 237.45C121.027 236.937 122.053 236.68 123.212 236.68C124.679 236.68 125.889 237.032 126.842 237.736C127.81 238.425 128.463 239.415 128.8 240.706H126.094C125.874 240.105 125.522 239.635 125.038 239.298C124.554 238.961 123.945 238.792 123.212 238.792C122.185 238.792 121.364 239.159 120.748 239.892C120.147 240.611 119.846 241.623 119.846 242.928C119.846 244.233 120.147 245.253 120.748 245.986C121.364 246.719 122.185 247.086 123.212 247.086C124.664 247.086 125.625 246.448 126.094 245.172H128.8C128.448 246.404 127.788 247.387 126.82 248.12C125.852 248.839 124.649 249.198 123.212 249.198C122.053 249.198 121.027 248.941 120.132 248.428C119.237 247.9 118.533 247.167 118.02 246.228C117.521 245.275 117.272 244.175 117.272 242.928ZM136.557 249.198C135.413 249.198 134.379 248.941 133.455 248.428C132.531 247.9 131.805 247.167 131.277 246.228C130.749 245.275 130.485 244.175 130.485 242.928C130.485 241.696 130.757 240.603 131.299 239.65C131.842 238.697 132.583 237.963 133.521 237.45C134.46 236.937 135.509 236.68 136.667 236.68C137.826 236.68 138.875 236.937 139.813 237.45C140.752 237.963 141.493 238.697 142.035 239.65C142.578 240.603 142.849 241.696 142.849 242.928C142.849 244.16 142.571 245.253 142.013 246.206C141.456 247.159 140.693 247.9 139.725 248.428C138.772 248.941 137.716 249.198 136.557 249.198ZM136.557 247.02C137.203 247.02 137.804 246.866 138.361 246.558C138.933 246.25 139.395 245.788 139.747 245.172C140.099 244.556 140.275 243.808 140.275 242.928C140.275 242.048 140.107 241.307 139.769 240.706C139.432 240.09 138.985 239.628 138.427 239.32C137.87 239.012 137.269 238.858 136.623 238.858C135.978 238.858 135.377 239.012 134.819 239.32C134.277 239.628 133.844 240.09 133.521 240.706C133.199 241.307 133.037 242.048 133.037 242.928C133.037 244.233 133.367 245.245 134.027 245.964C134.702 246.668 135.545 247.02 136.557 247.02ZM151.445 236.68C152.398 236.68 153.249 236.878 153.997 237.274C154.759 237.67 155.353 238.257 155.779 239.034C156.204 239.811 156.417 240.75 156.417 241.85V249H153.931V242.224C153.931 241.139 153.659 240.31 153.117 239.738C152.574 239.151 151.833 238.858 150.895 238.858C149.956 238.858 149.208 239.151 148.651 239.738C148.108 240.31 147.837 241.139 147.837 242.224V249H145.329V236.878H147.837V238.264C148.247 237.765 148.768 237.377 149.399 237.098C150.044 236.819 150.726 236.68 151.445 236.68ZM164.302 246.756L167.734 236.878H170.396L165.776 249H162.784L158.186 236.878H160.87L164.302 246.756ZM174.8 236.878V249H172.292V236.878H174.8ZM175.812 233.622L170.95 236.02V234.172L175.812 231.488V233.622ZM182.778 246.756L186.21 236.878H188.872L184.252 249H181.26L176.662 236.878H179.346L182.778 246.756ZM192.044 235.272C191.589 235.272 191.208 235.118 190.9 234.81C190.592 234.502 190.438 234.121 190.438 233.666C190.438 233.211 190.592 232.83 190.9 232.522C191.208 232.214 191.589 232.06 192.044 232.06C192.484 232.06 192.858 232.214 193.166 232.522C193.474 232.83 193.628 233.211 193.628 233.666C193.628 234.121 193.474 234.502 193.166 234.81C192.858 235.118 192.484 235.272 192.044 235.272ZM193.276 236.878V249H190.768V236.878H193.276ZM201.827 249.198C200.683 249.198 199.649 248.941 198.725 248.428C197.801 247.9 197.075 247.167 196.547 246.228C196.019 245.275 195.755 244.175 195.755 242.928C195.755 241.696 196.026 240.603 196.569 239.65C197.112 238.697 197.852 237.963 198.791 237.45C199.73 236.937 200.778 236.68 201.937 236.68C203.096 236.68 204.144 236.937 205.083 237.45C206.022 237.963 206.762 238.697 207.305 239.65C207.848 240.603 208.119 241.696 208.119 242.928C208.119 244.16 207.84 245.253 207.283 246.206C206.726 247.159 205.963 247.9 204.995 248.428C204.042 248.941 202.986 249.198 201.827 249.198ZM201.827 247.02C202.472 247.02 203.074 246.866 203.631 246.558C204.203 246.25 204.665 245.788 205.017 245.172C205.369 244.556 205.545 243.808 205.545 242.928C205.545 242.048 205.376 241.307 205.039 240.706C204.702 240.09 204.254 239.628 203.697 239.32C203.14 239.012 202.538 238.858 201.893 238.858C201.248 238.858 200.646 239.012 200.089 239.32C199.546 239.628 199.114 240.09 198.791 240.706C198.468 241.307 198.307 242.048 198.307 242.928C198.307 244.233 198.637 245.245 199.297 245.964C199.972 246.668 200.815 247.02 201.827 247.02ZM211.61 249.154C211.156 249.154 210.774 249 210.466 248.692C210.158 248.384 210.004 248.003 210.004 247.548C210.004 247.093 210.158 246.712 210.466 246.404C210.774 246.096 211.156 245.942 211.61 245.942C212.05 245.942 212.424 246.096 212.732 246.404C213.04 246.712 213.194 247.093 213.194 247.548C213.194 248.003 213.04 248.384 212.732 248.692C212.424 249 212.05 249.154 211.61 249.154Z" fill="#EF835A"/>
</svg>
