<svg width="246" height="306" viewBox="0 0 246 306" fill="none" xmlns="http://www.w3.org/2000/svg">
<rect width="246" height="306" rx="15" fill="#FFEBEB"/>
<path d="M54.4109 31.702C54.1162 31.2167 53.7089 30.844 53.1889 30.584C52.6862 30.324 52.0882 30.194 51.3949 30.194C50.1122 30.194 49.0982 30.61 48.3529 31.442C47.6249 32.274 47.2609 33.392 47.2609 34.796C47.2609 36.3733 47.6509 37.578 48.4309 38.41C49.2282 39.2247 50.3809 39.632 51.8889 39.632C53.6742 39.632 54.9482 38.826 55.7109 37.214H50.5889V33.548H60.1049V38.488C59.7062 39.4587 59.1169 40.3687 58.3369 41.218C57.5742 42.0673 56.6036 42.7693 55.4249 43.324C54.2462 43.8613 52.9029 44.13 51.3949 44.13C49.5575 44.13 47.9282 43.74 46.5069 42.96C45.1029 42.1627 44.0109 41.062 43.2309 39.658C42.4682 38.2367 42.0869 36.616 42.0869 34.796C42.0869 32.9933 42.4682 31.39 43.2309 29.986C44.0109 28.5647 45.1029 27.464 46.5069 26.684C47.9109 25.8867 49.5316 25.488 51.3689 25.488C53.6742 25.488 55.5809 26.0427 57.0889 27.152C58.5969 28.2613 59.5329 29.778 59.8969 31.702H54.4109ZM61.5566 36.694C61.5566 35.186 61.8253 33.8687 62.3626 32.742C62.9173 31.6153 63.6626 30.7487 64.5986 30.142C65.552 29.5353 66.6093 29.232 67.7706 29.232C68.776 29.232 69.6426 29.4313 70.3706 29.83C71.0986 30.2287 71.662 30.766 72.0606 31.442V29.414H77.1566V44H72.0606V41.972C71.662 42.648 71.09 43.1853 70.3446 43.584C69.6166 43.9827 68.7586 44.182 67.7706 44.182C66.6093 44.182 65.552 43.8787 64.5986 43.272C63.6626 42.6653 62.9173 41.7987 62.3626 40.672C61.8253 39.528 61.5566 38.202 61.5566 36.694ZM72.0606 36.694C72.0606 35.758 71.8006 35.0213 71.2806 34.484C70.778 33.9467 70.154 33.678 69.4086 33.678C68.646 33.678 68.0133 33.9467 67.5106 34.484C67.008 35.004 66.7566 35.7407 66.7566 36.694C66.7566 37.63 67.008 38.3753 67.5106 38.93C68.0133 39.4673 68.646 39.736 69.4086 39.736C70.154 39.736 70.778 39.4673 71.2806 38.93C71.8006 38.3927 72.0606 37.6473 72.0606 36.694ZM88.6665 39.658V44H86.4565C82.7298 44 80.8665 42.154 80.8665 38.462V33.652H79.0725V29.414H80.8665V25.878H85.9885V29.414H88.6405V33.652H85.9885V38.54C85.9885 38.9387 86.0752 39.2247 86.2485 39.398C86.4392 39.5713 86.7512 39.658 87.1845 39.658H88.6665ZM97.7899 44.182C96.3339 44.182 95.0252 43.8787 93.8639 43.272C92.7199 42.6653 91.8185 41.7987 91.1599 40.672C90.5012 39.5453 90.1719 38.2193 90.1719 36.694C90.1719 35.186 90.5012 33.8687 91.1599 32.742C91.8359 31.6153 92.7459 30.7487 93.8899 30.142C95.0512 29.5353 96.3599 29.232 97.8159 29.232C99.2719 29.232 100.572 29.5353 101.716 30.142C102.877 30.7487 103.787 31.6153 104.446 32.742C105.122 33.8687 105.46 35.186 105.46 36.694C105.46 38.202 105.122 39.528 104.446 40.672C103.787 41.7987 102.877 42.6653 101.716 43.272C100.555 43.8787 99.2459 44.182 97.7899 44.182ZM97.7899 39.762C98.5005 39.762 99.0899 39.502 99.5579 38.982C100.043 38.4447 100.286 37.682 100.286 36.694C100.286 35.706 100.043 34.952 99.5579 34.432C99.0899 33.912 98.5092 33.652 97.8159 33.652C97.1225 33.652 96.5419 33.912 96.0739 34.432C95.6059 34.952 95.3719 35.706 95.3719 36.694C95.3719 37.6993 95.5972 38.462 96.0479 38.982C96.4985 39.502 97.0792 39.762 97.7899 39.762ZM113.747 44.182C112.43 44.182 111.251 43.9653 110.211 43.532C109.188 43.0813 108.374 42.4747 107.767 41.712C107.178 40.932 106.848 40.0567 106.779 39.086H111.719C111.788 39.554 112.005 39.918 112.369 40.178C112.733 40.438 113.184 40.568 113.721 40.568C114.137 40.568 114.466 40.4813 114.709 40.308C114.952 40.1347 115.073 39.9093 115.073 39.632C115.073 39.268 114.874 38.9993 114.475 38.826C114.076 38.6527 113.418 38.462 112.499 38.254C111.459 38.046 110.592 37.812 109.899 37.552C109.206 37.292 108.599 36.8673 108.079 36.278C107.576 35.6887 107.325 34.8913 107.325 33.886C107.325 33.0193 107.559 32.2393 108.027 31.546C108.495 30.8353 109.18 30.272 110.081 29.856C111 29.44 112.1 29.232 113.383 29.232C115.29 29.232 116.789 29.7 117.881 30.636C118.973 31.572 119.606 32.8027 119.779 34.328H115.177C115.09 33.86 114.882 33.5047 114.553 33.262C114.241 33.002 113.816 32.872 113.279 32.872C112.863 32.872 112.542 32.95 112.317 33.106C112.109 33.262 112.005 33.4787 112.005 33.756C112.005 34.1027 112.204 34.3713 112.603 34.562C113.002 34.7353 113.643 34.9173 114.527 35.108C115.584 35.3333 116.46 35.5847 117.153 35.862C117.864 36.1393 118.479 36.59 118.999 37.214C119.536 37.8207 119.805 38.6527 119.805 39.71C119.805 40.5593 119.554 41.322 119.051 41.998C118.566 42.674 117.864 43.2113 116.945 43.61C116.044 43.9913 114.978 44.182 113.747 44.182ZM135.165 33.652H132.877V44H127.755V33.652H126.169V29.414H127.755V29.284C127.755 27.412 128.301 25.982 129.393 24.994C130.502 23.9887 132.088 23.486 134.151 23.486C134.567 23.486 134.888 23.4947 135.113 23.512V27.854C134.974 27.8367 134.784 27.828 134.541 27.828C133.986 27.828 133.579 27.958 133.319 28.218C133.059 28.4607 132.912 28.8593 132.877 29.414H135.165V33.652ZM139.56 28.062C138.659 28.062 137.931 27.8193 137.376 27.334C136.839 26.8313 136.57 26.2073 136.57 25.462C136.57 24.6993 136.839 24.0667 137.376 23.564C137.931 23.0613 138.659 22.81 139.56 22.81C140.444 22.81 141.155 23.0613 141.692 23.564C142.247 24.0667 142.524 24.6993 142.524 25.462C142.524 26.2073 142.247 26.8313 141.692 27.334C141.155 27.8193 140.444 28.062 139.56 28.062ZM142.082 29.414V44H136.986V29.414H142.082ZM144.152 36.694C144.152 35.186 144.464 33.8687 145.088 32.742C145.712 31.6153 146.579 30.7487 147.688 30.142C148.815 29.5353 150.098 29.232 151.536 29.232C153.391 29.232 154.951 29.7433 156.216 30.766C157.482 31.7713 158.296 33.184 158.66 35.004H153.252C152.94 34.0507 152.334 33.574 151.432 33.574C150.791 33.574 150.28 33.8427 149.898 34.38C149.534 34.9 149.352 35.6713 149.352 36.694C149.352 37.7167 149.534 38.4967 149.898 39.034C150.28 39.5713 150.791 39.84 151.432 39.84C152.351 39.84 152.958 39.3633 153.252 38.41H158.66C158.296 40.2127 157.482 41.6253 156.216 42.648C154.951 43.6707 153.391 44.182 151.536 44.182C150.098 44.182 148.815 43.8787 147.688 43.272C146.579 42.6653 145.712 41.7987 145.088 40.672C144.464 39.5453 144.152 38.2193 144.152 36.694ZM159.945 36.694C159.945 35.186 160.214 33.8687 160.751 32.742C161.306 31.6153 162.051 30.7487 162.987 30.142C163.941 29.5353 164.998 29.232 166.159 29.232C167.165 29.232 168.031 29.4313 168.759 29.83C169.487 30.2287 170.051 30.766 170.449 31.442V29.414H175.545V44H170.449V41.972C170.051 42.648 169.479 43.1853 168.733 43.584C168.005 43.9827 167.147 44.182 166.159 44.182C164.998 44.182 163.941 43.8787 162.987 43.272C162.051 42.6653 161.306 41.7987 160.751 40.672C160.214 39.528 159.945 38.202 159.945 36.694ZM170.449 36.694C170.449 35.758 170.189 35.0213 169.669 34.484C169.167 33.9467 168.543 33.678 167.797 33.678C167.035 33.678 166.402 33.9467 165.899 34.484C165.397 35.004 165.145 35.7407 165.145 36.694C165.145 37.63 165.397 38.3753 165.899 38.93C166.402 39.4673 167.035 39.736 167.797 39.736C168.543 39.736 169.167 39.4673 169.669 38.93C170.189 38.3927 170.449 37.6473 170.449 36.694ZM197.507 29.284C199.344 29.284 200.783 29.8387 201.823 30.948C202.88 32.0573 203.409 33.574 203.409 35.498V44H198.313V36.174C198.313 35.394 198.096 34.7873 197.663 34.354C197.23 33.9207 196.64 33.704 195.895 33.704C195.15 33.704 194.56 33.9207 194.127 34.354C193.694 34.7873 193.477 35.394 193.477 36.174V44H188.381V36.174C188.381 35.394 188.164 34.7873 187.731 34.354C187.315 33.9207 186.734 33.704 185.989 33.704C185.226 33.704 184.628 33.9207 184.195 34.354C183.762 34.7873 183.545 35.394 183.545 36.174V44H178.449V29.414H183.545V31.338C183.996 30.714 184.576 30.22 185.287 29.856C186.015 29.4747 186.847 29.284 187.783 29.284C188.858 29.284 189.811 29.518 190.643 29.986C191.492 30.454 192.16 31.1127 192.645 31.962C193.165 31.1647 193.85 30.5233 194.699 30.038C195.548 29.5353 196.484 29.284 197.507 29.284ZM63.2324 75.694C63.2324 74.186 63.5011 72.8687 64.0384 71.742C64.5931 70.6153 65.3471 69.7487 66.3004 69.142C67.2537 68.5353 68.3111 68.232 69.4724 68.232C70.4084 68.232 71.2404 68.4313 71.9684 68.83C72.7137 69.2113 73.2944 69.74 73.7104 70.416V63.76H78.8324V83H73.7104V80.972C73.3117 81.648 72.7484 82.1853 72.0204 82.584C71.2924 82.9827 70.4344 83.182 69.4464 83.182C68.2851 83.182 67.2277 82.8787 66.2744 82.272C65.3384 81.6653 64.5931 80.7987 64.0384 79.672C63.5011 78.528 63.2324 77.202 63.2324 75.694ZM73.7364 75.694C73.7364 74.758 73.4764 74.0213 72.9564 73.484C72.4537 72.9467 71.8297 72.678 71.0844 72.678C70.3217 72.678 69.6891 72.9467 69.1864 73.484C68.6837 74.004 68.4324 74.7407 68.4324 75.694C68.4324 76.63 68.6837 77.3753 69.1864 77.93C69.6891 78.4673 70.3217 78.736 71.0844 78.736C71.8297 78.736 72.4537 78.4673 72.9564 77.93C73.4764 77.3927 73.7364 76.6473 73.7364 75.694ZM88.5223 83.182C87.0663 83.182 85.7576 82.8787 84.5963 82.272C83.4523 81.6653 82.5509 80.7987 81.8923 79.672C81.2336 78.5453 80.9043 77.2193 80.9043 75.694C80.9043 74.186 81.2336 72.8687 81.8923 71.742C82.5683 70.6153 83.4783 69.7487 84.6223 69.142C85.7836 68.5353 87.0923 68.232 88.5483 68.232C90.0043 68.232 91.3043 68.5353 92.4483 69.142C93.6096 69.7487 94.5196 70.6153 95.1783 71.742C95.8543 72.8687 96.1923 74.186 96.1923 75.694C96.1923 77.202 95.8543 78.528 95.1783 79.672C94.5196 80.7987 93.6096 81.6653 92.4483 82.272C91.2869 82.8787 89.9783 83.182 88.5223 83.182ZM88.5223 78.762C89.2329 78.762 89.8223 78.502 90.2903 77.982C90.7756 77.4447 91.0183 76.682 91.0183 75.694C91.0183 74.706 90.7756 73.952 90.2903 73.432C89.8223 72.912 89.2416 72.652 88.5483 72.652C87.8549 72.652 87.2743 72.912 86.8063 73.432C86.3383 73.952 86.1043 74.706 86.1043 75.694C86.1043 76.6993 86.3296 77.462 86.7803 77.982C87.2309 78.502 87.8116 78.762 88.5223 78.762ZM112.202 75.538C112.202 75.9367 112.176 76.3353 112.124 76.734H102.478C102.53 77.5313 102.746 78.1293 103.128 78.528C103.526 78.9093 104.029 79.1 104.636 79.1C105.485 79.1 106.092 78.7187 106.456 77.956H111.89C111.664 78.9613 111.222 79.8627 110.564 80.66C109.922 81.44 109.108 82.0553 108.12 82.506C107.132 82.9567 106.04 83.182 104.844 83.182C103.405 83.182 102.122 82.8787 100.996 82.272C99.8862 81.6653 99.0109 80.7987 98.3696 79.672C97.7456 78.5453 97.4336 77.2193 97.4336 75.694C97.4336 74.1687 97.7456 72.8513 98.3696 71.742C98.9936 70.6153 99.8602 69.7487 100.97 69.142C102.096 68.5353 103.388 68.232 104.844 68.232C106.282 68.232 107.556 68.5267 108.666 69.116C109.775 69.7053 110.642 70.5547 111.266 71.664C111.89 72.756 112.202 74.0473 112.202 75.538ZM107.002 74.264C107.002 73.64 106.794 73.1547 106.378 72.808C105.962 72.444 105.442 72.262 104.818 72.262C104.194 72.262 103.682 72.4353 103.284 72.782C102.885 73.1113 102.625 73.6053 102.504 74.264H107.002ZM123.829 68.284C125.51 68.284 126.845 68.8473 127.833 69.974C128.821 71.0833 129.315 72.5913 129.315 74.498V83H124.219V75.174C124.219 74.342 124.002 73.692 123.569 73.224C123.136 72.7387 122.555 72.496 121.827 72.496C121.064 72.496 120.466 72.7387 120.033 73.224C119.6 73.692 119.383 74.342 119.383 75.174V83H114.287V68.414H119.383V70.494C119.834 69.8353 120.44 69.3067 121.203 68.908C121.966 68.492 122.841 68.284 123.829 68.284ZM140.717 78.658V83H138.507C134.781 83 132.917 81.154 132.917 77.462V72.652H131.123V68.414H132.917V64.878H138.039V68.414H140.691V72.652H138.039V77.54C138.039 77.9387 138.126 78.2247 138.299 78.398C138.49 78.5713 138.802 78.658 139.235 78.658H140.717ZM156.991 75.538C156.991 75.9367 156.965 76.3353 156.913 76.734H147.267C147.319 77.5313 147.535 78.1293 147.917 78.528C148.315 78.9093 148.818 79.1 149.425 79.1C150.274 79.1 150.881 78.7187 151.245 77.956H156.679C156.453 78.9613 156.011 79.8627 155.353 80.66C154.711 81.44 153.897 82.0553 152.909 82.506C151.921 82.9567 150.829 83.182 149.633 83.182C148.194 83.182 146.911 82.8787 145.785 82.272C144.675 81.6653 143.8 80.7987 143.159 79.672C142.535 78.5453 142.223 77.2193 142.223 75.694C142.223 74.1687 142.535 72.8513 143.159 71.742C143.783 70.6153 144.649 69.7487 145.759 69.142C146.885 68.5353 148.177 68.232 149.633 68.232C151.071 68.232 152.345 68.5267 153.455 69.116C154.564 69.7053 155.431 70.5547 156.055 71.664C156.679 72.756 156.991 74.0473 156.991 75.538ZM151.791 74.264C151.791 73.64 151.583 73.1547 151.167 72.808C150.751 72.444 150.231 72.262 149.607 72.262C148.983 72.262 148.471 72.4353 148.073 72.782C147.674 73.1113 147.414 73.6053 147.293 74.264H151.791ZM165.29 83.182C163.973 83.182 162.794 82.9653 161.754 82.532C160.731 82.0813 159.917 81.4747 159.31 80.712C158.721 79.932 158.391 79.0567 158.322 78.086H163.262C163.331 78.554 163.548 78.918 163.912 79.178C164.276 79.438 164.727 79.568 165.264 79.568C165.68 79.568 166.009 79.4813 166.252 79.308C166.495 79.1347 166.616 78.9093 166.616 78.632C166.616 78.268 166.417 77.9993 166.018 77.826C165.619 77.6527 164.961 77.462 164.042 77.254C163.002 77.046 162.135 76.812 161.442 76.552C160.749 76.292 160.142 75.8673 159.622 75.278C159.119 74.6887 158.868 73.8913 158.868 72.886C158.868 72.0193 159.102 71.2393 159.57 70.546C160.038 69.8353 160.723 69.272 161.624 68.856C162.543 68.44 163.643 68.232 164.926 68.232C166.833 68.232 168.332 68.7 169.424 69.636C170.516 70.572 171.149 71.8027 171.322 73.328H166.72C166.633 72.86 166.425 72.5047 166.096 72.262C165.784 72.002 165.359 71.872 164.822 71.872C164.406 71.872 164.085 71.95 163.86 72.106C163.652 72.262 163.548 72.4787 163.548 72.756C163.548 73.1027 163.747 73.3713 164.146 73.562C164.545 73.7353 165.186 73.9173 166.07 74.108C167.127 74.3333 168.003 74.5847 168.696 74.862C169.407 75.1393 170.022 75.59 170.542 76.214C171.079 76.8207 171.348 77.6527 171.348 78.71C171.348 79.5593 171.097 80.322 170.594 80.998C170.109 81.674 169.407 82.2113 168.488 82.61C167.587 82.9913 166.521 83.182 165.29 83.182ZM180.665 63.734L180.067 76.136H175.725L175.127 63.734H180.665ZM177.909 83.208C177.008 83.208 176.28 82.9653 175.725 82.48C175.188 81.9773 174.919 81.3447 174.919 80.582C174.919 79.8193 175.188 79.1867 175.725 78.684C176.28 78.1813 177.008 77.93 177.909 77.93C178.793 77.93 179.504 78.1813 180.041 78.684C180.596 79.1867 180.873 79.8193 180.873 80.582C180.873 81.3273 180.596 81.9513 180.041 82.454C179.504 82.9567 178.793 83.208 177.909 83.208ZM36.4263 108.322C36.4263 106.826 36.771 105.484 37.4603 104.296C38.1643 103.108 39.1103 102.184 40.2983 101.524C41.501 100.849 42.8136 100.512 44.2363 100.512C45.8643 100.512 47.309 100.915 48.5703 101.722C49.8463 102.514 50.7703 103.643 51.3423 105.11H48.3283C47.9323 104.303 47.3823 103.702 46.6783 103.306C45.9743 102.91 45.1603 102.712 44.2363 102.712C43.2243 102.712 42.3223 102.939 41.5303 103.394C40.7383 103.849 40.115 104.501 39.6603 105.352C39.2203 106.203 39.0003 107.193 39.0003 108.322C39.0003 109.451 39.2203 110.441 39.6603 111.292C40.115 112.143 40.7383 112.803 41.5303 113.272C42.3223 113.727 43.2243 113.954 44.2363 113.954C45.1603 113.954 45.9743 113.756 46.6783 113.36C47.3823 112.964 47.9323 112.363 48.3283 111.556H51.3423C50.7703 113.023 49.8463 114.152 48.5703 114.944C47.309 115.736 45.8643 116.132 44.2363 116.132C42.799 116.132 41.4863 115.802 40.2983 115.142C39.1103 114.467 38.1643 113.536 37.4603 112.348C36.771 111.16 36.4263 109.818 36.4263 108.322ZM59.5359 116.198C58.3919 116.198 57.3579 115.941 56.4339 115.428C55.5099 114.9 54.7839 114.167 54.2559 113.228C53.7279 112.275 53.4639 111.175 53.4639 109.928C53.4639 108.696 53.7353 107.603 54.2779 106.65C54.8206 105.697 55.5613 104.963 56.4999 104.45C57.4386 103.937 58.4873 103.68 59.6459 103.68C60.8046 103.68 61.8533 103.937 62.7919 104.45C63.7306 104.963 64.4713 105.697 65.0139 106.65C65.5566 107.603 65.8279 108.696 65.8279 109.928C65.8279 111.16 65.5493 112.253 64.9919 113.206C64.4346 114.159 63.6719 114.9 62.7039 115.428C61.7506 115.941 60.6946 116.198 59.5359 116.198ZM59.5359 114.02C60.1813 114.02 60.7826 113.866 61.3399 113.558C61.9119 113.25 62.3739 112.788 62.7259 112.172C63.0779 111.556 63.2539 110.808 63.2539 109.928C63.2539 109.048 63.0853 108.307 62.7479 107.706C62.4106 107.09 61.9633 106.628 61.4059 106.32C60.8486 106.012 60.2473 105.858 59.6019 105.858C58.9566 105.858 58.3553 106.012 57.7979 106.32C57.2553 106.628 56.8226 107.09 56.4999 107.706C56.1773 108.307 56.0159 109.048 56.0159 109.928C56.0159 111.233 56.3459 112.245 57.0059 112.964C57.6806 113.668 58.5239 114.02 59.5359 114.02ZM82.9812 103.68C83.9346 103.68 84.7852 103.878 85.5332 104.274C86.2959 104.67 86.8899 105.257 87.3152 106.034C87.7552 106.811 87.9752 107.75 87.9752 108.85V116H85.4892V109.224C85.4892 108.139 85.2179 107.31 84.6752 106.738C84.1326 106.151 83.3919 105.858 82.4532 105.858C81.5146 105.858 80.7666 106.151 80.2092 106.738C79.6666 107.31 79.3952 108.139 79.3952 109.224V116H76.9092V109.224C76.9092 108.139 76.6379 107.31 76.0952 106.738C75.5526 106.151 74.8119 105.858 73.8732 105.858C72.9346 105.858 72.1866 106.151 71.6292 106.738C71.0866 107.31 70.8152 108.139 70.8152 109.224V116H68.3072V103.878H70.8152V105.264C71.2259 104.765 71.7466 104.377 72.3772 104.098C73.0079 103.819 73.6826 103.68 74.4012 103.68C75.3692 103.68 76.2346 103.885 76.9972 104.296C77.7599 104.707 78.3466 105.301 78.7572 106.078C79.1239 105.345 79.6959 104.765 80.4732 104.34C81.2506 103.9 82.0866 103.68 82.9812 103.68ZM96.4246 116.198C95.2806 116.198 94.2466 115.941 93.3226 115.428C92.3986 114.9 91.6726 114.167 91.1446 113.228C90.6166 112.275 90.3526 111.175 90.3526 109.928C90.3526 108.696 90.6239 107.603 91.1666 106.65C91.7093 105.697 92.4499 104.963 93.3886 104.45C94.3273 103.937 95.3759 103.68 96.5346 103.68C97.6933 103.68 98.7419 103.937 99.6806 104.45C100.619 104.963 101.36 105.697 101.903 106.65C102.445 107.603 102.717 108.696 102.717 109.928C102.717 111.16 102.438 112.253 101.881 113.206C101.323 114.159 100.561 114.9 99.5926 115.428C98.6393 115.941 97.5833 116.198 96.4246 116.198ZM96.4246 114.02C97.0699 114.02 97.6713 113.866 98.2286 113.558C98.8006 113.25 99.2626 112.788 99.6146 112.172C99.9666 111.556 100.143 110.808 100.143 109.928C100.143 109.048 99.9739 108.307 99.6366 107.706C99.2993 107.09 98.8519 106.628 98.2946 106.32C97.7373 106.012 97.1359 105.858 96.4906 105.858C95.8453 105.858 95.2439 106.012 94.6866 106.32C94.1439 106.628 93.7113 107.09 93.3886 107.706C93.0659 108.307 92.9046 109.048 92.9046 109.928C92.9046 111.233 93.2346 112.245 93.8946 112.964C94.5693 113.668 95.4126 114.02 96.4246 114.02ZM110.075 109.884C110.075 108.667 110.324 107.589 110.823 106.65C111.336 105.711 112.025 104.985 112.891 104.472C113.771 103.944 114.746 103.68 115.817 103.68C116.755 103.68 117.584 103.871 118.303 104.252C119.036 104.633 119.601 105.095 119.997 105.638V103.878H122.527V121.764H119.997V114.24C119.601 114.783 119.029 115.245 118.281 115.626C117.533 116.007 116.682 116.198 115.729 116.198C114.687 116.198 113.734 115.934 112.869 115.406C112.018 114.863 111.336 114.115 110.823 113.162C110.324 112.194 110.075 111.101 110.075 109.884ZM119.997 109.928C119.997 109.092 119.821 108.366 119.469 107.75C119.131 107.134 118.684 106.665 118.127 106.342C117.569 106.019 116.968 105.858 116.323 105.858C115.677 105.858 115.076 106.019 114.519 106.342C113.961 106.65 113.507 107.112 113.155 107.728C112.817 108.329 112.649 109.048 112.649 109.884C112.649 110.72 112.817 111.453 113.155 112.084C113.507 112.715 113.961 113.199 114.519 113.536C115.091 113.859 115.692 114.02 116.323 114.02C116.968 114.02 117.569 113.859 118.127 113.536C118.684 113.213 119.131 112.744 119.469 112.128C119.821 111.497 119.997 110.764 119.997 109.928ZM136.799 103.878V116H134.291V114.57C133.895 115.069 133.374 115.465 132.729 115.758C132.098 116.037 131.424 116.176 130.705 116.176C129.752 116.176 128.894 115.978 128.131 115.582C127.383 115.186 126.789 114.599 126.349 113.822C125.924 113.045 125.711 112.106 125.711 111.006V103.878H128.197V110.632C128.197 111.717 128.468 112.553 129.011 113.14C129.554 113.712 130.294 113.998 131.233 113.998C132.172 113.998 132.912 113.712 133.455 113.14C134.012 112.553 134.291 111.717 134.291 110.632V103.878H136.799ZM139.272 109.884C139.272 108.667 139.521 107.589 140.02 106.65C140.533 105.711 141.223 104.985 142.088 104.472C142.968 103.944 143.936 103.68 144.992 103.68C145.945 103.68 146.774 103.871 147.478 104.252C148.197 104.619 148.769 105.081 149.194 105.638V103.878H151.724V116H149.194V114.196C148.769 114.768 148.189 115.245 147.456 115.626C146.723 116.007 145.887 116.198 144.948 116.198C143.907 116.198 142.953 115.934 142.088 115.406C141.223 114.863 140.533 114.115 140.02 113.162C139.521 112.194 139.272 111.101 139.272 109.884ZM149.194 109.928C149.194 109.092 149.018 108.366 148.666 107.75C148.329 107.134 147.881 106.665 147.324 106.342C146.767 106.019 146.165 105.858 145.52 105.858C144.875 105.858 144.273 106.019 143.716 106.342C143.159 106.65 142.704 107.112 142.352 107.728C142.015 108.329 141.846 109.048 141.846 109.884C141.846 110.72 142.015 111.453 142.352 112.084C142.704 112.715 143.159 113.199 143.716 113.536C144.288 113.859 144.889 114.02 145.52 114.02C146.165 114.02 146.767 113.859 147.324 113.536C147.881 113.213 148.329 112.744 148.666 112.128C149.018 111.497 149.194 110.764 149.194 109.928ZM157.526 99.72V116H155.018V99.72H157.526ZM159.983 109.884C159.983 108.667 160.232 107.589 160.731 106.65C161.244 105.711 161.934 104.985 162.799 104.472C163.679 103.944 164.654 103.68 165.725 103.68C166.664 103.68 167.492 103.871 168.211 104.252C168.944 104.633 169.509 105.095 169.905 105.638V103.878H172.435V121.764H169.905V114.24C169.509 114.783 168.937 115.245 168.189 115.626C167.441 116.007 166.59 116.198 165.637 116.198C164.596 116.198 163.642 115.934 162.777 115.406C161.926 114.863 161.244 114.115 160.731 113.162C160.232 112.194 159.983 111.101 159.983 109.884ZM169.905 109.928C169.905 109.092 169.729 108.366 169.377 107.75C169.04 107.134 168.592 106.665 168.035 106.342C167.478 106.019 166.876 105.858 166.231 105.858C165.586 105.858 164.984 106.019 164.427 106.342C163.87 106.65 163.415 107.112 163.063 107.728C162.726 108.329 162.557 109.048 162.557 109.884C162.557 110.72 162.726 111.453 163.063 112.084C163.415 112.715 163.87 113.199 164.427 113.536C164.999 113.859 165.6 114.02 166.231 114.02C166.876 114.02 167.478 113.859 168.035 113.536C168.592 113.213 169.04 112.744 169.377 112.128C169.729 111.497 169.905 110.764 169.905 109.928ZM186.707 103.878V116H184.199V114.57C183.803 115.069 183.282 115.465 182.637 115.758C182.006 116.037 181.332 116.176 180.613 116.176C179.66 116.176 178.802 115.978 178.039 115.582C177.291 115.186 176.697 114.599 176.257 113.822C175.832 113.045 175.619 112.106 175.619 111.006V103.878H178.105V110.632C178.105 111.717 178.376 112.553 178.919 113.14C179.462 113.712 180.202 113.998 181.141 113.998C182.08 113.998 182.82 113.712 183.363 113.14C183.92 112.553 184.199 111.717 184.199 110.632V103.878H186.707ZM201.126 109.642C201.126 110.097 201.097 110.507 201.038 110.874H191.776C191.85 111.842 192.209 112.619 192.854 113.206C193.5 113.793 194.292 114.086 195.23 114.086C196.58 114.086 197.533 113.521 198.09 112.392H200.796C200.43 113.507 199.762 114.423 198.794 115.142C197.841 115.846 196.653 116.198 195.23 116.198C194.072 116.198 193.03 115.941 192.106 115.428C191.197 114.9 190.478 114.167 189.95 113.228C189.437 112.275 189.18 111.175 189.18 109.928C189.18 108.681 189.43 107.589 189.928 106.65C190.442 105.697 191.153 104.963 192.062 104.45C192.986 103.937 194.042 103.68 195.23 103.68C196.374 103.68 197.394 103.929 198.288 104.428C199.183 104.927 199.88 105.631 200.378 106.54C200.877 107.435 201.126 108.469 201.126 109.642ZM198.508 108.85C198.494 107.926 198.164 107.185 197.518 106.628C196.873 106.071 196.074 105.792 195.12 105.792C194.255 105.792 193.514 106.071 192.898 106.628C192.282 107.171 191.916 107.911 191.798 108.85H198.508ZM206.102 105.638C206.469 105.022 206.953 104.545 207.554 104.208C208.17 103.856 208.896 103.68 209.732 103.68V106.276H209.094C208.112 106.276 207.364 106.525 206.85 107.024C206.352 107.523 206.102 108.388 206.102 109.62V116H203.594V103.878H206.102V105.638ZM42.531 149.198C41.387 149.198 40.353 148.941 39.429 148.428C38.505 147.9 37.779 147.167 37.251 146.228C36.723 145.275 36.459 144.175 36.459 142.928C36.459 141.696 36.7304 140.603 37.273 139.65C37.8157 138.697 38.5564 137.963 39.495 137.45C40.4337 136.937 41.4824 136.68 42.641 136.68C43.7997 136.68 44.8484 136.937 45.787 137.45C46.7257 137.963 47.4664 138.697 48.009 139.65C48.5517 140.603 48.823 141.696 48.823 142.928C48.823 144.16 48.5444 145.253 47.987 146.206C47.4297 147.159 46.667 147.9 45.699 148.428C44.7457 148.941 43.6897 149.198 42.531 149.198ZM42.531 147.02C43.1764 147.02 43.7777 146.866 44.335 146.558C44.907 146.25 45.369 145.788 45.721 145.172C46.073 144.556 46.249 143.808 46.249 142.928C46.249 142.048 46.0804 141.307 45.743 140.706C45.4057 140.09 44.9584 139.628 44.401 139.32C43.8437 139.012 43.2424 138.858 42.597 138.858C41.9517 138.858 41.3504 139.012 40.793 139.32C40.2504 139.628 39.8177 140.09 39.495 140.706C39.1724 141.307 39.011 142.048 39.011 142.928C39.011 144.233 39.341 145.245 40.001 145.964C40.6757 146.668 41.519 147.02 42.531 147.02ZM62.2803 136.878V149H59.7723V147.57C59.3763 148.069 58.8557 148.465 58.2103 148.758C57.5797 149.037 56.905 149.176 56.1863 149.176C55.233 149.176 54.375 148.978 53.6123 148.582C52.8643 148.186 52.2703 147.599 51.8303 146.822C51.405 146.045 51.1923 145.106 51.1923 144.006V136.878H53.6783V143.632C53.6783 144.717 53.9497 145.553 54.4923 146.14C55.035 146.712 55.7757 146.998 56.7143 146.998C57.653 146.998 58.3937 146.712 58.9363 146.14C59.4937 145.553 59.7723 144.717 59.7723 143.632V136.878H62.2803ZM68.5155 138.924V145.634C68.5155 146.089 68.6181 146.419 68.8235 146.624C69.0435 146.815 69.4101 146.91 69.9235 146.91H71.4635V149H69.4835C68.3541 149 67.4888 148.736 66.8875 148.208C66.2861 147.68 65.9855 146.822 65.9855 145.634V138.924H64.5555V136.878H65.9855V133.864H68.5155V136.878H71.4635V138.924H68.5155ZM76.283 138.638C76.6497 138.022 77.1337 137.545 77.735 137.208C78.351 136.856 79.077 136.68 79.913 136.68V139.276H79.275C78.2923 139.276 77.5443 139.525 77.031 140.024C76.5323 140.523 76.283 141.388 76.283 142.62V149H73.775V136.878H76.283V138.638ZM87.4764 149.198C86.3324 149.198 85.2984 148.941 84.3744 148.428C83.4504 147.9 82.7244 147.167 82.1964 146.228C81.6684 145.275 81.4044 144.175 81.4044 142.928C81.4044 141.696 81.6757 140.603 82.2184 139.65C82.761 138.697 83.5017 137.963 84.4404 137.45C85.379 136.937 86.4277 136.68 87.5864 136.68C88.745 136.68 89.7937 136.937 90.7324 137.45C91.671 137.963 92.4117 138.697 92.9544 139.65C93.497 140.603 93.7684 141.696 93.7684 142.928C93.7684 144.16 93.4897 145.253 92.9324 146.206C92.375 147.159 91.6124 147.9 90.6444 148.428C89.691 148.941 88.635 149.198 87.4764 149.198ZM87.4764 147.02C88.1217 147.02 88.723 146.866 89.2804 146.558C89.8524 146.25 90.3144 145.788 90.6664 145.172C91.0184 144.556 91.1944 143.808 91.1944 142.928C91.1944 142.048 91.0257 141.307 90.6884 140.706C90.351 140.09 89.9037 139.628 89.3464 139.32C88.789 139.012 88.1877 138.858 87.5424 138.858C86.897 138.858 86.2957 139.012 85.7384 139.32C85.1957 139.628 84.763 140.09 84.4404 140.706C84.1177 141.307 83.9564 142.048 83.9564 142.928C83.9564 144.233 84.2864 145.245 84.9464 145.964C85.621 146.668 86.4644 147.02 87.4764 147.02ZM101.127 142.884C101.127 141.667 101.376 140.589 101.875 139.65C102.388 138.711 103.077 137.985 103.943 137.472C104.823 136.944 105.791 136.68 106.847 136.68C107.8 136.68 108.629 136.871 109.333 137.252C110.051 137.619 110.623 138.081 111.049 138.638V136.878H113.579V149H111.049V147.196C110.623 147.768 110.044 148.245 109.311 148.626C108.577 149.007 107.741 149.198 106.803 149.198C105.761 149.198 104.808 148.934 103.943 148.406C103.077 147.863 102.388 147.115 101.875 146.162C101.376 145.194 101.127 144.101 101.127 142.884ZM111.049 142.928C111.049 142.092 110.873 141.366 110.521 140.75C110.183 140.134 109.736 139.665 109.179 139.342C108.621 139.019 108.02 138.858 107.375 138.858C106.729 138.858 106.128 139.019 105.571 139.342C105.013 139.65 104.559 140.112 104.207 140.728C103.869 141.329 103.701 142.048 103.701 142.884C103.701 143.72 103.869 144.453 104.207 145.084C104.559 145.715 105.013 146.199 105.571 146.536C106.143 146.859 106.744 147.02 107.375 147.02C108.02 147.02 108.621 146.859 109.179 146.536C109.736 146.213 110.183 145.744 110.521 145.128C110.873 144.497 111.049 143.764 111.049 142.928ZM122.989 136.68C123.942 136.68 124.793 136.878 125.541 137.274C126.303 137.67 126.897 138.257 127.323 139.034C127.748 139.811 127.961 140.75 127.961 141.85V149H125.475V142.224C125.475 141.139 125.203 140.31 124.661 139.738C124.118 139.151 123.377 138.858 122.439 138.858C121.5 138.858 120.752 139.151 120.195 139.738C119.652 140.31 119.381 141.139 119.381 142.224V149H116.873V136.878H119.381V138.264C119.791 137.765 120.312 137.377 120.943 137.098C121.588 136.819 122.27 136.68 122.989 136.68ZM132.436 135.272C131.981 135.272 131.6 135.118 131.292 134.81C130.984 134.502 130.83 134.121 130.83 133.666C130.83 133.211 130.984 132.83 131.292 132.522C131.6 132.214 131.981 132.06 132.436 132.06C132.876 132.06 133.25 132.214 133.558 132.522C133.866 132.83 134.02 133.211 134.02 133.666C134.02 134.121 133.866 134.502 133.558 134.81C133.25 135.118 132.876 135.272 132.436 135.272ZM133.668 136.878V149H131.16V136.878H133.668ZM151.635 136.68C152.588 136.68 153.439 136.878 154.187 137.274C154.949 137.67 155.543 138.257 155.969 139.034C156.409 139.811 156.629 140.75 156.629 141.85V149H154.143V142.224C154.143 141.139 153.871 140.31 153.329 139.738C152.786 139.151 152.045 138.858 151.107 138.858C150.168 138.858 149.42 139.151 148.863 139.738C148.32 140.31 148.049 141.139 148.049 142.224V149H145.563V142.224C145.563 141.139 145.291 140.31 144.749 139.738C144.206 139.151 143.465 138.858 142.527 138.858C141.588 138.858 140.84 139.151 140.283 139.738C139.74 140.31 139.469 141.139 139.469 142.224V149H136.961V136.878H139.469V138.264C139.879 137.765 140.4 137.377 141.031 137.098C141.661 136.819 142.336 136.68 143.055 136.68C144.023 136.68 144.888 136.885 145.651 137.296C146.413 137.707 147 138.301 147.411 139.078C147.777 138.345 148.349 137.765 149.127 137.34C149.904 136.9 150.74 136.68 151.635 136.68ZM158.984 142.884C158.984 141.667 159.233 140.589 159.732 139.65C160.245 138.711 160.935 137.985 161.8 137.472C162.68 136.944 163.648 136.68 164.704 136.68C165.657 136.68 166.486 136.871 167.19 137.252C167.909 137.619 168.481 138.081 168.906 138.638V136.878H171.436V149H168.906V147.196C168.481 147.768 167.901 148.245 167.168 148.626C166.435 149.007 165.599 149.198 164.66 149.198C163.619 149.198 162.665 148.934 161.8 148.406C160.935 147.863 160.245 147.115 159.732 146.162C159.233 145.194 158.984 144.101 158.984 142.884ZM168.906 142.928C168.906 142.092 168.73 141.366 168.378 140.75C168.041 140.134 167.593 139.665 167.036 139.342C166.479 139.019 165.877 138.858 165.232 138.858C164.587 138.858 163.985 139.019 163.428 139.342C162.871 139.65 162.416 140.112 162.064 140.728C161.727 141.329 161.558 142.048 161.558 142.884C161.558 143.72 161.727 144.453 162.064 145.084C162.416 145.715 162.871 146.199 163.428 146.536C164 146.859 164.601 147.02 165.232 147.02C165.877 147.02 166.479 146.859 167.036 146.536C167.593 146.213 168.041 145.744 168.378 145.128C168.73 144.497 168.906 143.764 168.906 142.928ZM177.238 132.72V149H174.73V132.72H177.238ZM191.504 149.198C190.36 149.198 189.326 148.941 188.402 148.428C187.478 147.9 186.752 147.167 186.224 146.228C185.696 145.275 185.432 144.175 185.432 142.928C185.432 141.696 185.703 140.603 186.246 139.65C186.788 138.697 187.529 137.963 188.468 137.45C189.406 136.937 190.455 136.68 191.614 136.68C192.772 136.68 193.821 136.937 194.76 137.45C195.698 137.963 196.439 138.697 196.982 139.65C197.524 140.603 197.796 141.696 197.796 142.928C197.796 144.16 197.517 145.253 196.96 146.206C196.402 147.159 195.64 147.9 194.672 148.428C193.718 148.941 192.662 149.198 191.504 149.198ZM191.504 147.02C192.149 147.02 192.75 146.866 193.308 146.558C193.88 146.25 194.342 145.788 194.694 145.172C195.046 144.556 195.222 143.808 195.222 142.928C195.222 142.048 195.053 141.307 194.716 140.706C194.378 140.09 193.931 139.628 193.374 139.32C192.816 139.012 192.215 138.858 191.57 138.858C190.924 138.858 190.323 139.012 189.766 139.32C189.223 139.628 188.79 140.09 188.468 140.706C188.145 141.307 187.984 142.048 187.984 142.928C187.984 144.233 188.314 145.245 188.974 145.964C189.648 146.668 190.492 147.02 191.504 147.02ZM204.675 149.198C203.722 149.198 202.864 149.029 202.101 148.692C201.353 148.34 200.759 147.871 200.319 147.284C199.879 146.683 199.644 146.015 199.615 145.282H202.211C202.255 145.795 202.497 146.228 202.937 146.58C203.392 146.917 203.956 147.086 204.631 147.086C205.335 147.086 205.878 146.954 206.259 146.69C206.655 146.411 206.853 146.059 206.853 145.634C206.853 145.179 206.633 144.842 206.193 144.622C205.768 144.402 205.086 144.16 204.147 143.896C203.238 143.647 202.497 143.405 201.925 143.17C201.353 142.935 200.854 142.576 200.429 142.092C200.018 141.608 199.813 140.97 199.813 140.178C199.813 139.533 200.004 138.946 200.385 138.418C200.766 137.875 201.309 137.45 202.013 137.142C202.732 136.834 203.553 136.68 204.477 136.68C205.856 136.68 206.963 137.032 207.799 137.736C208.65 138.425 209.104 139.371 209.163 140.574H206.655C206.611 140.031 206.391 139.599 205.995 139.276C205.599 138.953 205.064 138.792 204.389 138.792C203.729 138.792 203.223 138.917 202.871 139.166C202.519 139.415 202.343 139.745 202.343 140.156C202.343 140.479 202.46 140.75 202.695 140.97C202.93 141.19 203.216 141.366 203.553 141.498C203.89 141.615 204.389 141.769 205.049 141.96C205.929 142.195 206.648 142.437 207.205 142.686C207.777 142.921 208.268 143.273 208.679 143.742C209.09 144.211 209.302 144.835 209.317 145.612C209.317 146.301 209.126 146.917 208.745 147.46C208.364 148.003 207.821 148.428 207.117 148.736C206.428 149.044 205.614 149.198 204.675 149.198ZM46.1317 169.68C47.0703 169.68 47.899 169.871 48.6177 170.252C49.351 170.619 49.923 171.081 50.3337 171.638V169.878H52.8637V182.198C52.8637 183.313 52.629 184.303 52.1597 185.168C51.6903 186.048 51.0083 186.737 50.1137 187.236C49.2337 187.735 48.1777 187.984 46.9457 187.984C45.303 187.984 43.939 187.595 42.8537 186.818C41.7683 186.055 41.1523 185.014 41.0057 183.694H43.4917C43.6823 184.325 44.0857 184.831 44.7017 185.212C45.3323 185.608 46.0803 185.806 46.9457 185.806C47.9577 185.806 48.7717 185.498 49.3877 184.882C50.0183 184.266 50.3337 183.371 50.3337 182.198V180.174C49.9083 180.746 49.329 181.23 48.5957 181.626C47.877 182.007 47.0557 182.198 46.1317 182.198C45.0757 182.198 44.1077 181.934 43.2277 181.406C42.3623 180.863 41.673 180.115 41.1597 179.162C40.661 178.194 40.4117 177.101 40.4117 175.884C40.4117 174.667 40.661 173.589 41.1597 172.65C41.673 171.711 42.3623 170.985 43.2277 170.472C44.1077 169.944 45.0757 169.68 46.1317 169.68ZM50.3337 175.928C50.3337 175.092 50.1577 174.366 49.8057 173.75C49.4683 173.134 49.021 172.665 48.4637 172.342C47.9063 172.019 47.305 171.858 46.6597 171.858C46.0143 171.858 45.413 172.019 44.8557 172.342C44.2983 172.65 43.8437 173.112 43.4917 173.728C43.1543 174.329 42.9857 175.048 42.9857 175.884C42.9857 176.72 43.1543 177.453 43.4917 178.084C43.8437 178.715 44.2983 179.199 44.8557 179.536C45.4277 179.859 46.029 180.02 46.6597 180.02C47.305 180.02 47.9063 179.859 48.4637 179.536C49.021 179.213 49.4683 178.744 49.8057 178.128C50.1577 177.497 50.3337 176.764 50.3337 175.928ZM55.3218 175.884C55.3218 174.667 55.5711 173.589 56.0698 172.65C56.5831 171.711 57.2725 170.985 58.1378 170.472C59.0178 169.944 59.9858 169.68 61.0418 169.68C61.9951 169.68 62.8238 169.871 63.5278 170.252C64.2465 170.619 64.8185 171.081 65.2438 171.638V169.878H67.7738V182H65.2438V180.196C64.8185 180.768 64.2391 181.245 63.5058 181.626C62.7725 182.007 61.9365 182.198 60.9978 182.198C59.9565 182.198 59.0031 181.934 58.1378 181.406C57.2725 180.863 56.5831 180.115 56.0698 179.162C55.5711 178.194 55.3218 177.101 55.3218 175.884ZM65.2438 175.928C65.2438 175.092 65.0678 174.366 64.7158 173.75C64.3785 173.134 63.9311 172.665 63.3738 172.342C62.8165 172.019 62.2151 171.858 61.5698 171.858C60.9245 171.858 60.3231 172.019 59.7658 172.342C59.2085 172.65 58.7538 173.112 58.4018 173.728C58.0645 174.329 57.8958 175.048 57.8958 175.884C57.8958 176.72 58.0645 177.453 58.4018 178.084C58.7538 178.715 59.2085 179.199 59.7658 179.536C60.3378 179.859 60.9391 180.02 61.5698 180.02C62.2151 180.02 62.8165 179.859 63.3738 179.536C63.9311 179.213 64.3785 178.744 64.7158 178.128C65.0678 177.497 65.2438 176.764 65.2438 175.928ZM73.994 171.924V178.634C73.994 179.089 74.0966 179.419 74.302 179.624C74.522 179.815 74.8886 179.91 75.402 179.91H76.942V182H74.962C73.8326 182 72.9673 181.736 72.366 181.208C71.7646 180.68 71.464 179.822 71.464 178.634V171.924H70.034V169.878H71.464V166.864H73.994V169.878H76.942V171.924H73.994ZM84.5115 182.198C83.3675 182.198 82.3335 181.941 81.4095 181.428C80.4855 180.9 79.7595 180.167 79.2315 179.228C78.7035 178.275 78.4395 177.175 78.4395 175.928C78.4395 174.696 78.7108 173.603 79.2535 172.65C79.7962 171.697 80.5368 170.963 81.4755 170.45C82.4142 169.937 83.4628 169.68 84.6215 169.68C85.7802 169.68 86.8288 169.937 87.7675 170.45C88.7062 170.963 89.4468 171.697 89.9895 172.65C90.5322 173.603 90.8035 174.696 90.8035 175.928C90.8035 177.16 90.5248 178.253 89.9675 179.206C89.4102 180.159 88.6475 180.9 87.6795 181.428C86.7262 181.941 85.6702 182.198 84.5115 182.198ZM84.5115 180.02C85.1568 180.02 85.7582 179.866 86.3155 179.558C86.8875 179.25 87.3495 178.788 87.7015 178.172C88.0535 177.556 88.2295 176.808 88.2295 175.928C88.2295 175.048 88.0608 174.307 87.7235 173.706C87.3862 173.09 86.9388 172.628 86.3815 172.32C85.8242 172.012 85.2228 171.858 84.5775 171.858C83.9322 171.858 83.3308 172.012 82.7735 172.32C82.2308 172.628 81.7982 173.09 81.4755 173.706C81.1528 174.307 80.9915 175.048 80.9915 175.928C80.9915 177.233 81.3215 178.245 81.9815 178.964C82.6562 179.668 83.4995 180.02 84.5115 180.02ZM97.6828 182.198C96.7295 182.198 95.8715 182.029 95.1088 181.692C94.3608 181.34 93.7668 180.871 93.3268 180.284C92.8868 179.683 92.6521 179.015 92.6228 178.282H95.2188C95.2628 178.795 95.5048 179.228 95.9448 179.58C96.3995 179.917 96.9641 180.086 97.6388 180.086C98.3428 180.086 98.8855 179.954 99.2668 179.69C99.6628 179.411 99.8608 179.059 99.8608 178.634C99.8608 178.179 99.6408 177.842 99.2008 177.622C98.7755 177.402 98.0935 177.16 97.1548 176.896C96.2455 176.647 95.5048 176.405 94.9328 176.17C94.3608 175.935 93.8621 175.576 93.4368 175.092C93.0261 174.608 92.8208 173.97 92.8208 173.178C92.8208 172.533 93.0115 171.946 93.3928 171.418C93.7741 170.875 94.3168 170.45 95.0208 170.142C95.7395 169.834 96.5608 169.68 97.4848 169.68C98.8635 169.68 99.9708 170.032 100.807 170.736C101.657 171.425 102.112 172.371 102.171 173.574H99.6628C99.6188 173.031 99.3988 172.599 99.0028 172.276C98.6068 171.953 98.0715 171.792 97.3968 171.792C96.7368 171.792 96.2308 171.917 95.8788 172.166C95.5268 172.415 95.3508 172.745 95.3508 173.156C95.3508 173.479 95.4681 173.75 95.7028 173.97C95.9375 174.19 96.2235 174.366 96.5608 174.498C96.8981 174.615 97.3968 174.769 98.0568 174.96C98.9368 175.195 99.6555 175.437 100.213 175.686C100.785 175.921 101.276 176.273 101.687 176.742C102.097 177.211 102.31 177.835 102.325 178.612C102.325 179.301 102.134 179.917 101.753 180.46C101.371 181.003 100.829 181.428 100.125 181.736C99.4355 182.044 98.6215 182.198 97.6828 182.198ZM113.676 171.924V178.634C113.676 179.089 113.778 179.419 113.984 179.624C114.204 179.815 114.57 179.91 115.084 179.91H116.624V182H114.644C113.514 182 112.649 181.736 112.048 181.208C111.446 180.68 111.146 179.822 111.146 178.634V171.924H109.716V169.878H111.146V166.864H113.676V169.878H116.624V171.924H113.676ZM118.099 175.884C118.099 174.667 118.348 173.589 118.847 172.65C119.36 171.711 120.05 170.985 120.915 170.472C121.795 169.944 122.763 169.68 123.819 169.68C124.772 169.68 125.601 169.871 126.305 170.252C127.024 170.619 127.596 171.081 128.021 171.638V169.878H130.551V182H128.021V180.196C127.596 180.768 127.016 181.245 126.283 181.626C125.55 182.007 124.714 182.198 123.775 182.198C122.734 182.198 121.78 181.934 120.915 181.406C120.05 180.863 119.36 180.115 118.847 179.162C118.348 178.194 118.099 177.101 118.099 175.884ZM128.021 175.928C128.021 175.092 127.845 174.366 127.493 173.75C127.156 173.134 126.708 172.665 126.151 172.342C125.594 172.019 124.992 171.858 124.347 171.858C123.702 171.858 123.1 172.019 122.543 172.342C121.986 172.65 121.531 173.112 121.179 173.728C120.842 174.329 120.673 175.048 120.673 175.884C120.673 176.72 120.842 177.453 121.179 178.084C121.531 178.715 121.986 179.199 122.543 179.536C123.115 179.859 123.716 180.02 124.347 180.02C124.992 180.02 125.594 179.859 126.151 179.536C126.708 179.213 127.156 178.744 127.493 178.128C127.845 177.497 128.021 176.764 128.021 175.928ZM148.519 169.68C149.473 169.68 150.323 169.878 151.071 170.274C151.834 170.67 152.428 171.257 152.853 172.034C153.293 172.811 153.513 173.75 153.513 174.85V182H151.027V175.224C151.027 174.139 150.756 173.31 150.213 172.738C149.671 172.151 148.93 171.858 147.991 171.858C147.053 171.858 146.305 172.151 145.747 172.738C145.205 173.31 144.933 174.139 144.933 175.224V182H142.447V175.224C142.447 174.139 142.176 173.31 141.633 172.738C141.091 172.151 140.35 171.858 139.411 171.858C138.473 171.858 137.725 172.151 137.167 172.738C136.625 173.31 136.353 174.139 136.353 175.224V182H133.845V169.878H136.353V171.264C136.764 170.765 137.285 170.377 137.915 170.098C138.546 169.819 139.221 169.68 139.939 169.68C140.907 169.68 141.773 169.885 142.535 170.296C143.298 170.707 143.885 171.301 144.295 172.078C144.662 171.345 145.234 170.765 146.011 170.34C146.789 169.9 147.625 169.68 148.519 169.68ZM159.213 171.682C159.638 171.095 160.217 170.619 160.951 170.252C161.699 169.871 162.527 169.68 163.437 169.68C164.507 169.68 165.475 169.937 166.341 170.45C167.206 170.963 167.888 171.697 168.387 172.65C168.885 173.589 169.135 174.667 169.135 175.884C169.135 177.101 168.885 178.194 168.387 179.162C167.888 180.115 167.199 180.863 166.319 181.406C165.453 181.934 164.493 182.198 163.437 182.198C162.498 182.198 161.662 182.015 160.929 181.648C160.21 181.281 159.638 180.812 159.213 180.24V182H156.705V165.72H159.213V171.682ZM166.583 175.884C166.583 175.048 166.407 174.329 166.055 173.728C165.717 173.112 165.263 172.65 164.691 172.342C164.133 172.019 163.532 171.858 162.887 171.858C162.256 171.858 161.655 172.019 161.083 172.342C160.525 172.665 160.071 173.134 159.719 173.75C159.381 174.366 159.213 175.092 159.213 175.928C159.213 176.764 159.381 177.497 159.719 178.128C160.071 178.744 160.525 179.213 161.083 179.536C161.655 179.859 162.256 180.02 162.887 180.02C163.532 180.02 164.133 179.859 164.691 179.536C165.263 179.199 165.717 178.715 166.055 178.084C166.407 177.453 166.583 176.72 166.583 175.884ZM182.725 175.642C182.725 176.097 182.696 176.507 182.637 176.874H173.375C173.448 177.842 173.808 178.619 174.453 179.206C175.098 179.793 175.89 180.086 176.829 180.086C178.178 180.086 179.132 179.521 179.689 178.392H182.395C182.028 179.507 181.361 180.423 180.393 181.142C179.44 181.846 178.252 182.198 176.829 182.198C175.67 182.198 174.629 181.941 173.705 181.428C172.796 180.9 172.077 180.167 171.549 179.228C171.036 178.275 170.779 177.175 170.779 175.928C170.779 174.681 171.028 173.589 171.527 172.65C172.04 171.697 172.752 170.963 173.661 170.45C174.585 169.937 175.641 169.68 176.829 169.68C177.973 169.68 178.992 169.929 179.887 170.428C180.782 170.927 181.478 171.631 181.977 172.54C182.476 173.435 182.725 174.469 182.725 175.642ZM180.107 174.85C180.092 173.926 179.762 173.185 179.117 172.628C178.472 172.071 177.672 171.792 176.719 171.792C175.854 171.792 175.113 172.071 174.497 172.628C173.881 173.171 173.514 173.911 173.397 174.85H180.107ZM179.029 166.622L174.167 169.02V167.172L179.029 164.488V166.622ZM199.867 169.68C200.82 169.68 201.671 169.878 202.419 170.274C203.182 170.67 203.776 171.257 204.201 172.034C204.641 172.811 204.861 173.75 204.861 174.85V182H202.375V175.224C202.375 174.139 202.104 173.31 201.561 172.738C201.018 172.151 200.278 171.858 199.339 171.858C198.4 171.858 197.652 172.151 197.095 172.738C196.552 173.31 196.281 174.139 196.281 175.224V182H193.795V175.224C193.795 174.139 193.524 173.31 192.981 172.738C192.438 172.151 191.698 171.858 190.759 171.858C189.82 171.858 189.072 172.151 188.515 172.738C187.972 173.31 187.701 174.139 187.701 175.224V182H185.193V169.878H187.701V171.264C188.112 170.765 188.632 170.377 189.263 170.098C189.894 169.819 190.568 169.68 191.287 169.68C192.255 169.68 193.12 169.885 193.883 170.296C194.646 170.707 195.232 171.301 195.643 172.078C196.01 171.345 196.582 170.765 197.359 170.34C198.136 169.9 198.972 169.68 199.867 169.68ZM53.0865 204.924H50.8425V215H48.3125V204.924H46.8825V202.878H48.3125V202.02C48.3125 200.627 48.6792 199.615 49.4125 198.984C50.1605 198.339 51.3265 198.016 52.9105 198.016V200.106C52.1478 200.106 51.6125 200.253 51.3045 200.546C50.9965 200.825 50.8425 201.316 50.8425 202.02V202.878H53.0865V204.924ZM56.5852 201.272C56.1305 201.272 55.7492 201.118 55.4412 200.81C55.1332 200.502 54.9792 200.121 54.9792 199.666C54.9792 199.211 55.1332 198.83 55.4412 198.522C55.7492 198.214 56.1305 198.06 56.5852 198.06C57.0252 198.06 57.3992 198.214 57.7072 198.522C58.0152 198.83 58.1692 199.211 58.1692 199.666C58.1692 200.121 58.0152 200.502 57.7072 200.81C57.3992 201.118 57.0252 201.272 56.5852 201.272ZM57.8172 202.878V215H55.3092V202.878H57.8172ZM60.274 208.928C60.274 207.681 60.5233 206.589 61.022 205.65C61.5353 204.697 62.2393 203.963 63.134 203.45C64.0286 202.937 65.0553 202.68 66.214 202.68C67.6806 202.68 68.8906 203.032 69.844 203.736C70.812 204.425 71.4646 205.415 71.802 206.706H69.096C68.876 206.105 68.524 205.635 68.04 205.298C67.556 204.961 66.9473 204.792 66.214 204.792C65.1873 204.792 64.366 205.159 63.75 205.892C63.1486 206.611 62.848 207.623 62.848 208.928C62.848 210.233 63.1486 211.253 63.75 211.986C64.366 212.719 65.1873 213.086 66.214 213.086C67.666 213.086 68.6266 212.448 69.096 211.172H71.802C71.45 212.404 70.79 213.387 69.822 214.12C68.854 214.839 67.6513 215.198 66.214 215.198C65.0553 215.198 64.0286 214.941 63.134 214.428C62.2393 213.9 61.5353 213.167 61.022 212.228C60.5233 211.275 60.274 210.175 60.274 208.928ZM73.4654 208.884C73.4654 207.667 73.7147 206.589 74.2134 205.65C74.7267 204.711 75.416 203.985 76.2814 203.472C77.1614 202.944 78.1294 202.68 79.1854 202.68C80.1387 202.68 80.9674 202.871 81.6714 203.252C82.39 203.619 82.962 204.081 83.3874 204.638V202.878H85.9174V215H83.3874V213.196C82.962 213.768 82.3827 214.245 81.6494 214.626C80.916 215.007 80.08 215.198 79.1414 215.198C78.1 215.198 77.1467 214.934 76.2814 214.406C75.416 213.863 74.7267 213.115 74.2134 212.162C73.7147 211.194 73.4654 210.101 73.4654 208.884ZM83.3874 208.928C83.3874 208.092 83.2114 207.366 82.8594 206.75C82.522 206.134 82.0747 205.665 81.5174 205.342C80.96 205.019 80.3587 204.858 79.7134 204.858C79.068 204.858 78.4667 205.019 77.9094 205.342C77.352 205.65 76.8974 206.112 76.5454 206.728C76.208 207.329 76.0394 208.048 76.0394 208.884C76.0394 209.72 76.208 210.453 76.5454 211.084C76.8974 211.715 77.352 212.199 77.9094 212.536C78.4814 212.859 79.0827 213.02 79.7134 213.02C80.3587 213.02 80.96 212.859 81.5174 212.536C82.0747 212.213 82.522 211.744 82.8594 211.128C83.2114 210.497 83.3874 209.764 83.3874 208.928ZM103.886 202.68C104.839 202.68 105.69 202.878 106.438 203.274C107.2 203.67 107.794 204.257 108.22 205.034C108.66 205.811 108.88 206.75 108.88 207.85V215H106.394V208.224C106.394 207.139 106.122 206.31 105.58 205.738C105.037 205.151 104.296 204.858 103.358 204.858C102.419 204.858 101.671 205.151 101.114 205.738C100.571 206.31 100.3 207.139 100.3 208.224V215H97.8135V208.224C97.8135 207.139 97.5422 206.31 96.9995 205.738C96.4569 205.151 95.7162 204.858 94.7775 204.858C93.8389 204.858 93.0909 205.151 92.5335 205.738C91.9909 206.31 91.7195 207.139 91.7195 208.224V215H89.2115V202.878H91.7195V204.264C92.1302 203.765 92.6509 203.377 93.2815 203.098C93.9122 202.819 94.5869 202.68 95.3055 202.68C96.2735 202.68 97.1389 202.885 97.9015 203.296C98.6642 203.707 99.2509 204.301 99.6615 205.078C100.028 204.345 100.6 203.765 101.378 203.34C102.155 202.9 102.991 202.68 103.886 202.68ZM116.95 208.884C116.95 207.667 117.199 206.589 117.698 205.65C118.211 204.711 118.9 203.985 119.766 203.472C120.646 202.944 121.621 202.68 122.692 202.68C123.484 202.68 124.261 202.856 125.024 203.208C125.801 203.545 126.417 204 126.872 204.572V198.72H129.402V215H126.872V213.174C126.461 213.761 125.889 214.245 125.156 214.626C124.437 215.007 123.608 215.198 122.67 215.198C121.614 215.198 120.646 214.934 119.766 214.406C118.9 213.863 118.211 213.115 117.698 212.162C117.199 211.194 116.95 210.101 116.95 208.884ZM126.872 208.928C126.872 208.092 126.696 207.366 126.344 206.75C126.006 206.134 125.559 205.665 125.002 205.342C124.444 205.019 123.843 204.858 123.198 204.858C122.552 204.858 121.951 205.019 121.394 205.342C120.836 205.65 120.382 206.112 120.03 206.728C119.692 207.329 119.524 208.048 119.524 208.884C119.524 209.72 119.692 210.453 120.03 211.084C120.382 211.715 120.836 212.199 121.394 212.536C121.966 212.859 122.567 213.02 123.198 213.02C123.843 213.02 124.444 212.859 125.002 212.536C125.559 212.213 126.006 211.744 126.344 211.128C126.696 210.497 126.872 209.764 126.872 208.928ZM137.954 215.198C136.81 215.198 135.776 214.941 134.852 214.428C133.928 213.9 133.202 213.167 132.674 212.228C132.146 211.275 131.882 210.175 131.882 208.928C131.882 207.696 132.153 206.603 132.696 205.65C133.239 204.697 133.979 203.963 134.918 203.45C135.857 202.937 136.905 202.68 138.064 202.68C139.223 202.68 140.271 202.937 141.21 203.45C142.149 203.963 142.889 204.697 143.432 205.65C143.975 206.603 144.246 207.696 144.246 208.928C144.246 210.16 143.967 211.253 143.41 212.206C142.853 213.159 142.09 213.9 141.122 214.428C140.169 214.941 139.113 215.198 137.954 215.198ZM137.954 213.02C138.599 213.02 139.201 212.866 139.758 212.558C140.33 212.25 140.792 211.788 141.144 211.172C141.496 210.556 141.672 209.808 141.672 208.928C141.672 208.048 141.503 207.307 141.166 206.706C140.829 206.09 140.381 205.628 139.824 205.32C139.267 205.012 138.665 204.858 138.02 204.858C137.375 204.858 136.773 205.012 136.216 205.32C135.673 205.628 135.241 206.09 134.918 206.706C134.595 207.307 134.434 208.048 134.434 208.928C134.434 210.233 134.764 211.245 135.424 211.964C136.099 212.668 136.942 213.02 137.954 213.02ZM157.835 208.642C157.835 209.097 157.806 209.507 157.747 209.874H148.485C148.559 210.842 148.918 211.619 149.563 212.206C150.209 212.793 151.001 213.086 151.939 213.086C153.289 213.086 154.242 212.521 154.799 211.392H157.505C157.139 212.507 156.471 213.423 155.503 214.142C154.55 214.846 153.362 215.198 151.939 215.198C150.781 215.198 149.739 214.941 148.815 214.428C147.906 213.9 147.187 213.167 146.659 212.228C146.146 211.275 145.889 210.175 145.889 208.928C145.889 207.681 146.139 206.589 146.637 205.65C147.151 204.697 147.862 203.963 148.771 203.45C149.695 202.937 150.751 202.68 151.939 202.68C153.083 202.68 154.103 202.929 154.997 203.428C155.892 203.927 156.589 204.631 157.087 205.54C157.586 206.435 157.835 207.469 157.835 208.642ZM155.217 207.85C155.203 206.926 154.873 206.185 154.227 205.628C153.582 205.071 152.783 204.792 151.829 204.792C150.964 204.792 150.223 205.071 149.607 205.628C148.991 206.171 148.625 206.911 148.507 207.85H155.217ZM166.419 202.68C167.373 202.68 168.223 202.878 168.971 203.274C169.734 203.67 170.328 204.257 170.753 205.034C171.179 205.811 171.391 206.75 171.391 207.85V215H168.905V208.224C168.905 207.139 168.634 206.31 168.091 205.738C167.549 205.151 166.808 204.858 165.869 204.858C164.931 204.858 164.183 205.151 163.625 205.738C163.083 206.31 162.811 207.139 162.811 208.224V215H160.303V202.878H162.811V204.264C163.222 203.765 163.743 203.377 164.373 203.098C165.019 202.819 165.701 202.68 166.419 202.68ZM177.516 204.924V211.634C177.516 212.089 177.619 212.419 177.824 212.624C178.044 212.815 178.411 212.91 178.924 212.91H180.464V215H178.484C177.355 215 176.49 214.736 175.888 214.208C175.287 213.68 174.986 212.822 174.986 211.634V204.924H173.556V202.878H174.986V199.864H177.516V202.878H180.464V204.924H177.516ZM193.886 208.642C193.886 209.097 193.857 209.507 193.798 209.874H184.536C184.609 210.842 184.969 211.619 185.614 212.206C186.259 212.793 187.051 213.086 187.99 213.086C189.339 213.086 190.293 212.521 190.85 211.392H193.556C193.189 212.507 192.522 213.423 191.554 214.142C190.601 214.846 189.413 215.198 187.99 215.198C186.831 215.198 185.79 214.941 184.866 214.428C183.957 213.9 183.238 213.167 182.71 212.228C182.197 211.275 181.94 210.175 181.94 208.928C181.94 207.681 182.189 206.589 182.688 205.65C183.201 204.697 183.913 203.963 184.822 203.45C185.746 202.937 186.802 202.68 187.99 202.68C189.134 202.68 190.153 202.929 191.048 203.428C191.943 203.927 192.639 204.631 193.138 205.54C193.637 206.435 193.886 207.469 193.886 208.642ZM191.268 207.85C191.253 206.926 190.923 206.185 190.278 205.628C189.633 205.071 188.833 204.792 187.88 204.792C187.015 204.792 186.274 205.071 185.658 205.628C185.042 206.171 184.675 206.911 184.558 207.85H191.268ZM199.104 211.986L196.442 218.058H194.814L196.376 211.986H199.104ZM28.7918 237.66C29.2171 237.103 29.7965 236.633 30.5298 236.252C31.2631 235.871 32.0918 235.68 33.0158 235.68C34.0718 235.68 35.0325 235.944 35.8978 236.472C36.7778 236.985 37.4671 237.711 37.9658 238.65C38.4645 239.589 38.7138 240.667 38.7138 241.884C38.7138 243.101 38.4645 244.194 37.9658 245.162C37.4671 246.115 36.7778 246.863 35.8978 247.406C35.0325 247.934 34.0718 248.198 33.0158 248.198C32.0918 248.198 31.2705 248.015 30.5518 247.648C29.8331 247.267 29.2465 246.797 28.7918 246.24V253.764H26.2838V235.878H28.7918V237.66ZM36.1618 241.884C36.1618 241.048 35.9858 240.329 35.6338 239.728C35.2965 239.112 34.8418 238.65 34.2698 238.342C33.7125 238.019 33.1111 237.858 32.4658 237.858C31.8351 237.858 31.2338 238.019 30.6618 238.342C30.1045 238.665 29.6498 239.134 29.2978 239.75C28.9605 240.366 28.7918 241.092 28.7918 241.928C28.7918 242.764 28.9605 243.497 29.2978 244.128C29.6498 244.744 30.1045 245.213 30.6618 245.536C31.2338 245.859 31.8351 246.02 32.4658 246.02C33.1111 246.02 33.7125 245.859 34.2698 245.536C34.8418 245.199 35.2965 244.715 35.6338 244.084C35.9858 243.453 36.1618 242.72 36.1618 241.884ZM46.4519 248.198C45.3079 248.198 44.2739 247.941 43.3499 247.428C42.4259 246.9 41.6999 246.167 41.1719 245.228C40.6439 244.275 40.3799 243.175 40.3799 241.928C40.3799 240.696 40.6513 239.603 41.1939 238.65C41.7366 237.697 42.4773 236.963 43.4159 236.45C44.3546 235.937 45.4033 235.68 46.5619 235.68C47.7206 235.68 48.7693 235.937 49.7079 236.45C50.6466 236.963 51.3873 237.697 51.9299 238.65C52.4726 239.603 52.7439 240.696 52.7439 241.928C52.7439 243.16 52.4653 244.253 51.9079 245.206C51.3506 246.159 50.5879 246.9 49.6199 247.428C48.6666 247.941 47.6106 248.198 46.4519 248.198ZM46.4519 246.02C47.0973 246.02 47.6986 245.866 48.2559 245.558C48.8279 245.25 49.2899 244.788 49.6419 244.172C49.9939 243.556 50.1699 242.808 50.1699 241.928C50.1699 241.048 50.0013 240.307 49.6639 239.706C49.3266 239.09 48.8793 238.628 48.3219 238.32C47.7646 238.012 47.1633 237.858 46.5179 237.858C45.8726 237.858 45.2713 238.012 44.7139 238.32C44.1713 238.628 43.7386 239.09 43.4159 239.706C43.0933 240.307 42.9319 241.048 42.9319 241.928C42.9319 243.233 43.2619 244.245 43.9219 244.964C44.5966 245.668 45.4399 246.02 46.4519 246.02ZM57.7312 237.638C58.0979 237.022 58.5819 236.545 59.1832 236.208C59.7992 235.856 60.5252 235.68 61.3612 235.68V238.276H60.7232C59.7406 238.276 58.9926 238.525 58.4792 239.024C57.9806 239.523 57.7312 240.388 57.7312 241.62V248H55.2232V235.878H57.7312V237.638ZM66.5926 237.924V244.634C66.5926 245.089 66.6953 245.419 66.9006 245.624C67.1206 245.815 67.4873 245.91 68.0006 245.91H69.5406V248H67.5606C66.4313 248 65.5659 247.736 64.9646 247.208C64.3633 246.68 64.0626 245.822 64.0626 244.634V237.924H62.6326V235.878H64.0626V232.864H66.5926V235.878H69.5406V237.924H66.5926ZM71.0161 241.884C71.0161 240.667 71.2655 239.589 71.7641 238.65C72.2775 237.711 72.9668 236.985 73.8321 236.472C74.7121 235.944 75.6801 235.68 76.7361 235.68C77.6895 235.68 78.5181 235.871 79.2221 236.252C79.9408 236.619 80.5128 237.081 80.9381 237.638V235.878H83.4681V248H80.9381V246.196C80.5128 246.768 79.9335 247.245 79.2001 247.626C78.4668 248.007 77.6308 248.198 76.6921 248.198C75.6508 248.198 74.6975 247.934 73.8321 247.406C72.9668 246.863 72.2775 246.115 71.7641 245.162C71.2655 244.194 71.0161 243.101 71.0161 241.884ZM80.9381 241.928C80.9381 241.092 80.7621 240.366 80.4101 239.75C80.0728 239.134 79.6255 238.665 79.0681 238.342C78.5108 238.019 77.9095 237.858 77.2641 237.858C76.6188 237.858 76.0175 238.019 75.4601 238.342C74.9028 238.65 74.4481 239.112 74.0961 239.728C73.7588 240.329 73.5901 241.048 73.5901 241.884C73.5901 242.72 73.7588 243.453 74.0961 244.084C74.4481 244.715 74.9028 245.199 75.4601 245.536C76.0321 245.859 76.6335 246.02 77.2641 246.02C77.9095 246.02 78.5108 245.859 79.0681 245.536C79.6255 245.213 80.0728 244.744 80.4101 244.128C80.7621 243.497 80.9381 242.764 80.9381 241.928ZM92.8783 235.68C93.8316 235.68 94.6823 235.878 95.4303 236.274C96.193 236.67 96.787 237.257 97.2123 238.034C97.6376 238.811 97.8503 239.75 97.8503 240.85V248H95.3643V241.224C95.3643 240.139 95.093 239.31 94.5503 238.738C94.0076 238.151 93.267 237.858 92.3283 237.858C91.3896 237.858 90.6416 238.151 90.0843 238.738C89.5416 239.31 89.2703 240.139 89.2703 241.224V248H86.7623V235.878H89.2703V237.264C89.681 236.765 90.2016 236.377 90.8323 236.098C91.4776 235.819 92.1596 235.68 92.8783 235.68ZM100.213 241.884C100.213 240.667 100.463 239.589 100.961 238.65C101.475 237.711 102.164 236.985 103.029 236.472C103.909 235.944 104.885 235.68 105.955 235.68C106.747 235.68 107.525 235.856 108.287 236.208C109.065 236.545 109.681 237 110.135 237.572V231.72H112.665V248H110.135V246.174C109.725 246.761 109.153 247.245 108.419 247.626C107.701 248.007 106.872 248.198 105.933 248.198C104.877 248.198 103.909 247.934 103.029 247.406C102.164 246.863 101.475 246.115 100.961 245.162C100.463 244.194 100.213 243.101 100.213 241.884ZM110.135 241.928C110.135 241.092 109.959 240.366 109.607 239.75C109.27 239.134 108.823 238.665 108.265 238.342C107.708 238.019 107.107 237.858 106.461 237.858C105.816 237.858 105.215 238.019 104.657 238.342C104.1 238.65 103.645 239.112 103.293 239.728C102.956 240.329 102.787 241.048 102.787 241.884C102.787 242.72 102.956 243.453 103.293 244.084C103.645 244.715 104.1 245.199 104.657 245.536C105.229 245.859 105.831 246.02 106.461 246.02C107.107 246.02 107.708 245.859 108.265 245.536C108.823 245.213 109.27 244.744 109.607 244.128C109.959 243.497 110.135 242.764 110.135 241.928ZM121.218 248.198C120.074 248.198 119.04 247.941 118.116 247.428C117.192 246.9 116.466 246.167 115.938 245.228C115.41 244.275 115.146 243.175 115.146 241.928C115.146 240.696 115.417 239.603 115.96 238.65C116.502 237.697 117.243 236.963 118.182 236.45C119.12 235.937 120.169 235.68 121.328 235.68C122.486 235.68 123.535 235.937 124.474 236.45C125.412 236.963 126.153 237.697 126.696 238.65C127.238 239.603 127.51 240.696 127.51 241.928C127.51 243.16 127.231 244.253 126.674 245.206C126.116 246.159 125.354 246.9 124.386 247.428C123.432 247.941 122.376 248.198 121.218 248.198ZM121.218 246.02C121.863 246.02 122.464 245.866 123.022 245.558C123.594 245.25 124.056 244.788 124.408 244.172C124.76 243.556 124.936 242.808 124.936 241.928C124.936 241.048 124.767 240.307 124.43 239.706C124.092 239.09 123.645 238.628 123.088 238.32C122.53 238.012 121.929 237.858 121.284 237.858C120.638 237.858 120.037 238.012 119.48 238.32C118.937 238.628 118.504 239.09 118.182 239.706C117.859 240.307 117.698 241.048 117.698 241.928C117.698 243.233 118.028 244.245 118.688 244.964C119.362 245.668 120.206 246.02 121.218 246.02ZM140.39 245.756L143.822 235.878H146.484L141.864 248H138.872L134.274 235.878H136.958L140.39 245.756ZM147.543 241.884C147.543 240.667 147.793 239.589 148.291 238.65C148.805 237.711 149.494 236.985 150.359 236.472C151.239 235.944 152.207 235.68 153.263 235.68C154.217 235.68 155.045 235.871 155.749 236.252C156.468 236.619 157.04 237.081 157.465 237.638V235.878H159.995V248H157.465V246.196C157.04 246.768 156.461 247.245 155.727 247.626C154.994 248.007 154.158 248.198 153.219 248.198C152.178 248.198 151.225 247.934 150.359 247.406C149.494 246.863 148.805 246.115 148.291 245.162C147.793 244.194 147.543 243.101 147.543 241.884ZM157.465 241.928C157.465 241.092 157.289 240.366 156.937 239.75C156.6 239.134 156.153 238.665 155.595 238.342C155.038 238.019 154.437 237.858 153.791 237.858C153.146 237.858 152.545 238.019 151.987 238.342C151.43 238.65 150.975 239.112 150.623 239.728C150.286 240.329 150.117 241.048 150.117 241.884C150.117 242.72 150.286 243.453 150.623 244.084C150.975 244.715 151.43 245.199 151.987 245.536C152.559 245.859 153.161 246.02 153.791 246.02C154.437 246.02 155.038 245.859 155.595 245.536C156.153 245.213 156.6 244.744 156.937 244.128C157.289 243.497 157.465 242.764 157.465 241.928ZM162.454 241.928C162.454 240.681 162.703 239.589 163.202 238.65C163.715 237.697 164.419 236.963 165.314 236.45C166.208 235.937 167.235 235.68 168.394 235.68C169.86 235.68 171.07 236.032 172.024 236.736C172.992 237.425 173.644 238.415 173.982 239.706H171.276C171.056 239.105 170.704 238.635 170.22 238.298C169.736 237.961 169.127 237.792 168.394 237.792C167.367 237.792 166.546 238.159 165.93 238.892C165.328 239.611 165.028 240.623 165.028 241.928C165.028 243.233 165.328 244.253 165.93 244.986C166.546 245.719 167.367 246.086 168.394 246.086C169.846 246.086 170.806 245.448 171.276 244.172H173.982C173.63 245.404 172.97 246.387 172.002 247.12C171.034 247.839 169.831 248.198 168.394 248.198C167.235 248.198 166.208 247.941 165.314 247.428C164.419 246.9 163.715 246.167 163.202 245.228C162.703 244.275 162.454 243.175 162.454 241.928ZM177.757 234.272C177.302 234.272 176.921 234.118 176.613 233.81C176.305 233.502 176.151 233.121 176.151 232.666C176.151 232.211 176.305 231.83 176.613 231.522C176.921 231.214 177.302 231.06 177.757 231.06C178.197 231.06 178.571 231.214 178.879 231.522C179.187 231.83 179.341 232.211 179.341 232.666C179.341 233.121 179.187 233.502 178.879 233.81C178.571 234.118 178.197 234.272 177.757 234.272ZM178.989 235.878V248H176.481V235.878H178.989ZM188.398 235.68C189.351 235.68 190.202 235.878 190.95 236.274C191.713 236.67 192.307 237.257 192.732 238.034C193.157 238.811 193.37 239.75 193.37 240.85V248H190.884V241.224C190.884 240.139 190.613 239.31 190.07 238.738C189.527 238.151 188.787 237.858 187.848 237.858C186.909 237.858 186.161 238.151 185.604 238.738C185.061 239.31 184.79 240.139 184.79 241.224V248H182.282V235.878H184.79V237.264C185.201 236.765 185.721 236.377 186.352 236.098C186.997 235.819 187.679 235.68 188.398 235.68ZM207.679 241.642C207.679 242.097 207.65 242.507 207.591 242.874H198.329C198.402 243.842 198.762 244.619 199.407 245.206C200.052 245.793 200.844 246.086 201.783 246.086C203.132 246.086 204.086 245.521 204.643 244.392H207.349C206.982 245.507 206.315 246.423 205.347 247.142C204.394 247.846 203.206 248.198 201.783 248.198C200.624 248.198 199.583 247.941 198.659 247.428C197.75 246.9 197.031 246.167 196.503 245.228C195.99 244.275 195.733 243.175 195.733 241.928C195.733 240.681 195.982 239.589 196.481 238.65C196.994 237.697 197.706 236.963 198.615 236.45C199.539 235.937 200.595 235.68 201.783 235.68C202.927 235.68 203.946 235.929 204.841 236.428C205.736 236.927 206.432 237.631 206.931 238.54C207.43 239.435 207.679 240.469 207.679 241.642ZM205.061 240.85C205.046 239.926 204.716 239.185 204.071 238.628C203.426 238.071 202.626 237.792 201.673 237.792C200.808 237.792 200.067 238.071 199.451 238.628C198.835 239.171 198.468 239.911 198.351 240.85H205.061ZM219.453 238.98V241.092H210.411V238.98H219.453ZM111.507 281.198C110.363 281.198 109.329 280.941 108.405 280.428C107.481 279.9 106.755 279.167 106.227 278.228C105.699 277.275 105.435 276.175 105.435 274.928C105.435 273.696 105.706 272.603 106.249 271.65C106.791 270.697 107.532 269.963 108.471 269.45C109.409 268.937 110.458 268.68 111.617 268.68C112.775 268.68 113.824 268.937 114.763 269.45C115.701 269.963 116.442 270.697 116.985 271.65C117.527 272.603 117.799 273.696 117.799 274.928C117.799 276.16 117.52 277.253 116.963 278.206C116.405 279.159 115.643 279.9 114.675 280.428C113.721 280.941 112.665 281.198 111.507 281.198ZM111.507 279.02C112.152 279.02 112.753 278.866 113.311 278.558C113.883 278.25 114.345 277.788 114.697 277.172C115.049 276.556 115.225 275.808 115.225 274.928C115.225 274.048 115.056 273.307 114.719 272.706C114.381 272.09 113.934 271.628 113.377 271.32C112.819 271.012 112.218 270.858 111.573 270.858C110.927 270.858 110.326 271.012 109.769 271.32C109.226 271.628 108.793 272.09 108.471 272.706C108.148 273.307 107.987 274.048 107.987 274.928C107.987 276.233 108.317 277.245 108.977 277.964C109.651 278.668 110.495 279.02 111.507 279.02ZM124.678 281.198C123.725 281.198 122.867 281.029 122.104 280.692C121.356 280.34 120.762 279.871 120.322 279.284C119.882 278.683 119.647 278.015 119.618 277.282H122.214C122.258 277.795 122.5 278.228 122.94 278.58C123.395 278.917 123.959 279.086 124.634 279.086C125.338 279.086 125.881 278.954 126.262 278.69C126.658 278.411 126.856 278.059 126.856 277.634C126.856 277.179 126.636 276.842 126.196 276.622C125.771 276.402 125.089 276.16 124.15 275.896C123.241 275.647 122.5 275.405 121.928 275.17C121.356 274.935 120.857 274.576 120.432 274.092C120.021 273.608 119.816 272.97 119.816 272.178C119.816 271.533 120.007 270.946 120.388 270.418C120.769 269.875 121.312 269.45 122.016 269.142C122.735 268.834 123.556 268.68 124.48 268.68C125.859 268.68 126.966 269.032 127.802 269.736C128.653 270.425 129.107 271.371 129.166 272.574H126.658C126.614 272.031 126.394 271.599 125.998 271.276C125.602 270.953 125.067 270.792 124.392 270.792C123.732 270.792 123.226 270.917 122.874 271.166C122.522 271.415 122.346 271.745 122.346 272.156C122.346 272.479 122.463 272.75 122.698 272.97C122.933 273.19 123.219 273.366 123.556 273.498C123.893 273.615 124.392 273.769 125.052 273.96C125.932 274.195 126.651 274.437 127.208 274.686C127.78 274.921 128.271 275.273 128.682 275.742C129.093 276.211 129.305 276.835 129.32 277.612C129.32 278.301 129.129 278.917 128.748 279.46C128.367 280.003 127.824 280.428 127.12 280.736C126.431 281.044 125.617 281.198 124.678 281.198ZM133.042 281.154C132.587 281.154 132.206 281 131.898 280.692C131.59 280.384 131.436 280.003 131.436 279.548C131.436 279.093 131.59 278.712 131.898 278.404C132.206 278.096 132.587 277.942 133.042 277.942C133.482 277.942 133.856 278.096 134.164 278.404C134.472 278.712 134.626 279.093 134.626 279.548C134.626 280.003 134.472 280.384 134.164 280.692C133.856 281 133.482 281.154 133.042 281.154Z" fill="#EF835A"/>
</svg>
