<svg width="191" height="47" viewBox="0 0 191 47" fill="none" xmlns="http://www.w3.org/2000/svg">
<path d="M31.9795 15.28C31.1688 13.7867 29.9955 12.656 28.4595 11.888C26.9662 11.0773 25.1955 10.672 23.1475 10.672C19.6062 10.672 16.7688 11.8453 14.6355 14.192C12.5022 16.496 11.4355 19.5893 11.4355 23.472C11.4355 27.6107 12.5448 30.8533 14.7635 33.2C17.0248 35.504 20.1182 36.656 24.0435 36.656C26.7315 36.656 28.9928 35.9733 30.8275 34.608C32.7048 33.2427 34.0702 31.28 34.9235 28.72H21.0355V20.656H44.8435V30.832C44.0328 33.5627 42.6462 36.1013 40.6835 38.448C38.7635 40.7947 36.3102 42.6933 33.3235 44.144C30.3368 45.5947 26.9662 46.32 23.2115 46.32C18.7742 46.32 14.8062 45.36 11.3075 43.44C7.8515 41.4773 5.14217 38.768 3.1795 35.312C1.2595 31.856 0.2995 27.9093 0.2995 23.472C0.2995 19.0347 1.2595 15.088 3.1795 11.632C5.14217 8.13333 7.8515 5.424 11.3075 3.504C14.7635 1.54133 18.7102 0.559998 23.1475 0.559998C28.5235 0.559998 33.0462 1.86133 36.7155 4.464C40.4275 7.06667 42.8808 10.672 44.0755 15.28H31.9795ZM48.7295 28.08C48.7295 24.4107 49.4122 21.1893 50.7775 18.416C52.1855 15.6427 54.0842 13.5093 56.4735 12.016C58.8628 10.5227 61.5295 9.776 64.4735 9.776C66.9908 9.776 69.1882 10.288 71.0655 11.312C72.9855 12.336 74.4575 13.68 75.4815 15.344V10.288H86.4255V46H75.4815V40.944C74.4148 42.608 72.9215 43.952 71.0015 44.976C69.1242 46 66.9268 46.512 64.4095 46.512C61.5082 46.512 58.8628 45.7653 56.4735 44.272C54.0842 42.736 52.1855 40.5813 50.7775 37.808C49.4122 34.992 48.7295 31.7493 48.7295 28.08ZM75.4815 28.144C75.4815 25.4133 74.7135 23.2587 73.1775 21.68C71.6842 20.1013 69.8495 19.312 67.6735 19.312C65.4975 19.312 63.6415 20.1013 62.1055 21.68C60.6122 23.216 59.8655 25.3493 59.8655 28.08C59.8655 30.8107 60.6122 32.9867 62.1055 34.608C63.6415 36.1867 65.4975 36.976 67.6735 36.976C69.8495 36.976 71.6842 36.1867 73.1775 34.608C74.7135 33.0293 75.4815 30.8747 75.4815 28.144ZM114.247 36.72V46H108.679C104.711 46 101.618 45.04 99.399 43.12C97.1803 41.1573 96.071 37.9787 96.071 33.584V19.376H91.719V10.288H96.071V1.584H107.015V10.288H114.183V19.376H107.015V33.712C107.015 34.7787 107.271 35.5467 107.783 36.016C108.295 36.4853 109.148 36.72 110.343 36.72H114.247ZM136.599 46.512C133.1 46.512 129.943 45.7653 127.127 44.272C124.354 42.7787 122.156 40.6453 120.535 37.872C118.956 35.0987 118.167 31.856 118.167 28.144C118.167 24.4747 118.978 21.2533 120.599 18.48C122.22 15.664 124.439 13.5093 127.255 12.016C130.071 10.5227 133.228 9.776 136.727 9.776C140.226 9.776 143.383 10.5227 146.199 12.016C149.015 13.5093 151.234 15.664 152.855 18.48C154.476 21.2533 155.287 24.4747 155.287 28.144C155.287 31.8133 154.455 35.056 152.791 37.872C151.17 40.6453 148.93 42.7787 146.071 44.272C143.255 45.7653 140.098 46.512 136.599 46.512ZM136.599 37.04C138.69 37.04 140.46 36.272 141.911 34.736C143.404 33.2 144.151 31.0027 144.151 28.144C144.151 25.2853 143.426 23.088 141.975 21.552C140.567 20.016 138.818 19.248 136.727 19.248C134.594 19.248 132.823 20.016 131.415 21.552C130.007 23.0453 129.303 25.2427 129.303 28.144C129.303 31.0027 129.986 33.2 131.351 34.736C132.759 36.272 134.508 37.04 136.599 37.04ZM175.621 46.512C172.506 46.512 169.733 45.9787 167.301 44.912C164.869 43.8453 162.949 42.3947 161.541 40.56C160.133 38.6827 159.344 36.592 159.173 34.288H169.989C170.117 35.5253 170.693 36.528 171.717 37.296C172.741 38.064 174 38.448 175.493 38.448C176.858 38.448 177.904 38.192 178.629 37.68C179.397 37.1253 179.781 36.4213 179.781 35.568C179.781 34.544 179.248 33.7973 178.181 33.328C177.114 32.816 175.386 32.2613 172.997 31.664C170.437 31.0667 168.304 30.448 166.597 29.808C164.89 29.1253 163.418 28.08 162.181 26.672C160.944 25.2213 160.325 23.28 160.325 20.848C160.325 18.8 160.88 16.944 161.989 15.28C163.141 13.5733 164.805 12.2293 166.981 11.248C169.2 10.2667 171.824 9.776 174.853 9.776C179.333 9.776 182.853 10.8853 185.413 13.104C188.016 15.3227 189.509 18.2667 189.893 21.936H179.781C179.61 20.6987 179.056 19.7173 178.117 18.992C177.221 18.2667 176.026 17.904 174.533 17.904C173.253 17.904 172.272 18.16 171.589 18.672C170.906 19.1413 170.565 19.8027 170.565 20.656C170.565 21.68 171.098 22.448 172.165 22.96C173.274 23.472 174.981 23.984 177.285 24.496C179.93 25.1787 182.085 25.8613 183.749 26.544C185.413 27.184 186.864 28.2507 188.101 29.744C189.381 31.1947 190.042 33.1573 190.085 35.632C190.085 37.7227 189.488 39.6 188.293 41.264C187.141 42.8853 185.456 44.1653 183.237 45.104C181.061 46.0427 178.522 46.512 175.621 46.512Z" fill="#FFEBEB"/>
</svg>
