<svg width="246" height="306" viewBox="0 0 246 306" fill="none" xmlns="http://www.w3.org/2000/svg">
<rect width="246" height="306" rx="15" fill="#FFEBEB"/>
<path d="M31.8487 45.67C33.7727 45.67 35.454 46.06 36.8927 46.84C38.3487 47.6027 39.4667 48.6773 40.2467 50.064C41.0267 51.4507 41.4167 53.0367 41.4167 54.822C41.4167 56.59 41.018 58.1673 40.2207 59.554C39.4407 60.9407 38.3227 62.0327 36.8667 62.83C35.428 63.61 33.7553 64 31.8487 64H24.5947V45.67H31.8487ZM31.4587 59.502C32.9493 59.502 34.1193 59.0947 34.9687 58.28C35.818 57.4653 36.2427 56.3127 36.2427 54.822C36.2427 53.314 35.818 52.1527 34.9687 51.338C34.1193 50.506 32.9493 50.09 31.4587 50.09H29.6907V59.502H31.4587ZM57.6498 56.538C57.6498 56.9367 57.6238 57.3353 57.5718 57.734H47.9258C47.9778 58.5313 48.1945 59.1293 48.5758 59.528C48.9745 59.9093 49.4771 60.1 50.0838 60.1C50.9331 60.1 51.5398 59.7187 51.9038 58.956H57.3378C57.1125 59.9613 56.6705 60.8627 56.0118 61.66C55.3705 62.44 54.5558 63.0553 53.5678 63.506C52.5798 63.9567 51.4878 64.182 50.2918 64.182C48.8531 64.182 47.5705 63.8787 46.4438 63.272C45.3345 62.6653 44.4591 61.7987 43.8178 60.672C43.1938 59.5453 42.8818 58.2193 42.8818 56.694C42.8818 55.1687 43.1938 53.8513 43.8178 52.742C44.4418 51.6153 45.3085 50.7487 46.4178 50.142C47.5445 49.5353 48.8358 49.232 50.2918 49.232C51.7305 49.232 53.0045 49.5267 54.1138 50.116C55.2231 50.7053 56.0898 51.5547 56.7138 52.664C57.3378 53.756 57.6498 55.0473 57.6498 56.538ZM52.4498 55.264C52.4498 54.64 52.2418 54.1547 51.8258 53.808C51.4098 53.444 50.8898 53.262 50.2658 53.262C49.6418 53.262 49.1305 53.4353 48.7318 53.782C48.3331 54.1113 48.0731 54.6053 47.9518 55.264H52.4498ZM50.2918 46.216L46.1058 48.296V44.89L50.2918 42.888L54.4258 44.89V48.296L50.2918 46.216ZM83.7699 49.284C85.6072 49.284 87.0459 49.8387 88.0859 50.948C89.1432 52.0573 89.6719 53.574 89.6719 55.498V64H84.5759V56.174C84.5759 55.394 84.3592 54.7873 83.9259 54.354C83.4925 53.9207 82.9032 53.704 82.1579 53.704C81.4125 53.704 80.8232 53.9207 80.3899 54.354C79.9565 54.7873 79.7399 55.394 79.7399 56.174V64H74.6439V56.174C74.6439 55.394 74.4272 54.7873 73.9939 54.354C73.5779 53.9207 72.9972 53.704 72.2519 53.704C71.4892 53.704 70.8912 53.9207 70.4579 54.354C70.0245 54.7873 69.8079 55.394 69.8079 56.174V64H64.7119V49.414H69.8079V51.338C70.2585 50.714 70.8392 50.22 71.5499 49.856C72.2779 49.4747 73.1099 49.284 74.0459 49.284C75.1205 49.284 76.0739 49.518 76.9059 49.986C77.7552 50.454 78.4225 51.1127 78.9079 51.962C79.4279 51.1647 80.1125 50.5233 80.9619 50.038C81.8112 49.5353 82.7472 49.284 83.7699 49.284ZM107.388 49.414V64H102.266V61.92C101.832 62.5787 101.234 63.116 100.472 63.532C99.7091 63.9307 98.8338 64.13 97.8458 64.13C96.1471 64.13 94.8038 63.5753 93.8158 62.466C92.8451 61.3393 92.3598 59.814 92.3598 57.89V49.414H97.4298V57.24C97.4298 58.072 97.6465 58.7307 98.0798 59.216C98.5305 59.684 99.1198 59.918 99.8478 59.918C100.593 59.918 101.182 59.684 101.616 59.216C102.049 58.7307 102.266 58.072 102.266 57.24V49.414H107.388ZM112.862 48.062C111.961 48.062 111.233 47.8193 110.678 47.334C110.141 46.8313 109.872 46.2073 109.872 45.462C109.872 44.6993 110.141 44.0667 110.678 43.564C111.233 43.0613 111.961 42.81 112.862 42.81C113.746 42.81 114.457 43.0613 114.994 43.564C115.549 44.0667 115.826 44.6993 115.826 45.462C115.826 46.2073 115.549 46.8313 114.994 47.334C114.457 47.8193 113.746 48.062 112.862 48.062ZM115.384 49.414V64H110.288V49.414H115.384ZM126.892 59.658V64H124.682C120.955 64 119.092 62.154 119.092 58.462V53.652H117.298V49.414H119.092V45.878H124.214V49.414H126.866V53.652H124.214V58.54C124.214 58.9387 124.301 59.2247 124.474 59.398C124.665 59.5713 124.977 59.658 125.41 59.658H126.892ZM136.015 64.182C134.559 64.182 133.251 63.8787 132.089 63.272C130.945 62.6653 130.044 61.7987 129.385 60.672C128.727 59.5453 128.397 58.2193 128.397 56.694C128.397 55.186 128.727 53.8687 129.385 52.742C130.061 51.6153 130.971 50.7487 132.115 50.142C133.277 49.5353 134.585 49.232 136.041 49.232C137.497 49.232 138.797 49.5353 139.941 50.142C141.103 50.7487 142.013 51.6153 142.671 52.742C143.347 53.8687 143.685 55.186 143.685 56.694C143.685 58.202 143.347 59.528 142.671 60.672C142.013 61.7987 141.103 62.6653 139.941 63.272C138.78 63.8787 137.471 64.182 136.015 64.182ZM136.015 59.762C136.726 59.762 137.315 59.502 137.783 58.982C138.269 58.4447 138.511 57.682 138.511 56.694C138.511 55.706 138.269 54.952 137.783 54.432C137.315 53.912 136.735 53.652 136.041 53.652C135.348 53.652 134.767 53.912 134.299 54.432C133.831 54.952 133.597 55.706 133.597 56.694C133.597 57.6993 133.823 58.462 134.273 58.982C134.724 59.502 135.305 59.762 136.015 59.762ZM149.903 56.694C149.903 55.186 150.172 53.8687 150.709 52.742C151.264 51.6153 152.009 50.7487 152.945 50.142C153.899 49.5353 154.956 49.232 156.117 49.232C157.123 49.232 157.989 49.4313 158.717 49.83C159.445 50.2287 160.009 50.766 160.407 51.442V49.414H165.503V64H160.407V61.972C160.009 62.648 159.437 63.1853 158.691 63.584C157.963 63.9827 157.105 64.182 156.117 64.182C154.956 64.182 153.899 63.8787 152.945 63.272C152.009 62.6653 151.264 61.7987 150.709 60.672C150.172 59.528 149.903 58.202 149.903 56.694ZM160.407 56.694C160.407 55.758 160.147 55.0213 159.627 54.484C159.125 53.9467 158.501 53.678 157.755 53.678C156.993 53.678 156.36 53.9467 155.857 54.484C155.355 55.004 155.103 55.7407 155.103 56.694C155.103 57.63 155.355 58.3753 155.857 58.93C156.36 59.4673 156.993 59.736 157.755 59.736C158.501 59.736 159.125 59.4673 159.627 58.93C160.147 58.3927 160.407 57.6473 160.407 56.694ZM187.465 49.284C189.303 49.284 190.741 49.8387 191.781 50.948C192.839 52.0573 193.367 53.574 193.367 55.498V64H188.271V56.174C188.271 55.394 188.055 54.7873 187.621 54.354C187.188 53.9207 186.599 53.704 185.853 53.704C185.108 53.704 184.519 53.9207 184.085 54.354C183.652 54.7873 183.435 55.394 183.435 56.174V64H178.339V56.174C178.339 55.394 178.123 54.7873 177.689 54.354C177.273 53.9207 176.693 53.704 175.947 53.704C175.185 53.704 174.587 53.9207 174.153 54.354C173.72 54.7873 173.503 55.394 173.503 56.174V64H168.407V49.414H173.503V51.338C173.954 50.714 174.535 50.22 175.245 49.856C175.973 49.4747 176.805 49.284 177.741 49.284C178.816 49.284 179.769 49.518 180.601 49.986C181.451 50.454 182.118 51.1127 182.603 51.962C183.123 51.1647 183.808 50.5233 184.657 50.038C185.507 49.5353 186.443 49.284 187.465 49.284ZM202.945 64.182C201.489 64.182 200.18 63.8787 199.019 63.272C197.875 62.6653 196.974 61.7987 196.315 60.672C195.656 59.5453 195.327 58.2193 195.327 56.694C195.327 55.186 195.656 53.8687 196.315 52.742C196.991 51.6153 197.901 50.7487 199.045 50.142C200.206 49.5353 201.515 49.232 202.971 49.232C204.427 49.232 205.727 49.5353 206.871 50.142C208.032 50.7487 208.942 51.6153 209.601 52.742C210.277 53.8687 210.615 55.186 210.615 56.694C210.615 58.202 210.277 59.528 209.601 60.672C208.942 61.7987 208.032 62.6653 206.871 63.272C205.71 63.8787 204.401 64.182 202.945 64.182ZM202.945 59.762C203.656 59.762 204.245 59.502 204.713 58.982C205.198 58.4447 205.441 57.682 205.441 56.694C205.441 55.706 205.198 54.952 204.713 54.432C204.245 53.912 203.664 53.652 202.971 53.652C202.278 53.652 201.697 53.912 201.229 54.432C200.761 54.952 200.527 55.706 200.527 56.694C200.527 57.6993 200.752 58.462 201.203 58.982C201.654 59.502 202.234 59.762 202.945 59.762ZM217.784 51.988C218.356 51.156 219.05 50.4973 219.864 50.012C220.679 49.5267 221.554 49.284 222.49 49.284V54.718H221.06C219.951 54.718 219.128 54.9347 218.59 55.368C218.053 55.8013 217.784 56.5553 217.784 57.63V64H212.688V49.414H217.784V51.988ZM67.2729 95.538C67.2729 95.9367 67.2469 96.3353 67.1949 96.734H57.5489C57.6009 97.5313 57.8175 98.1293 58.1989 98.528C58.5975 98.9093 59.1002 99.1 59.7069 99.1C60.5562 99.1 61.1629 98.7187 61.5269 97.956H66.9609C66.7355 98.9613 66.2935 99.8627 65.6349 100.66C64.9935 101.44 64.1789 102.055 63.1909 102.506C62.2029 102.957 61.1109 103.182 59.9149 103.182C58.4762 103.182 57.1935 102.879 56.0669 102.272C54.9575 101.665 54.0822 100.799 53.4409 99.672C52.8169 98.5453 52.5049 97.2193 52.5049 95.694C52.5049 94.1687 52.8169 92.8513 53.4409 91.742C54.0649 90.6153 54.9315 89.7487 56.0409 89.142C57.1675 88.5353 58.4589 88.232 59.9149 88.232C61.3535 88.232 62.6275 88.5267 63.7369 89.116C64.8462 89.7053 65.7129 90.5547 66.3369 91.664C66.9609 92.756 67.2729 94.0473 67.2729 95.538ZM62.0729 94.264C62.0729 93.64 61.8649 93.1547 61.4489 92.808C61.0329 92.444 60.5129 92.262 59.8889 92.262C59.2649 92.262 58.7535 92.4353 58.3549 92.782C57.9562 93.1113 57.6962 93.6053 57.5749 94.264H62.0729ZM73.5029 95.694C73.5029 94.186 73.8149 92.8687 74.4389 91.742C75.0629 90.6153 75.9296 89.7487 77.0389 89.142C78.1656 88.5353 79.4482 88.232 80.8869 88.232C82.7416 88.232 84.3016 88.7433 85.5669 89.766C86.8322 90.7713 87.6469 92.184 88.0109 94.004H82.6029C82.2909 93.0507 81.6842 92.574 80.7829 92.574C80.1416 92.574 79.6302 92.8427 79.2489 93.38C78.8849 93.9 78.7029 94.6713 78.7029 95.694C78.7029 96.7167 78.8849 97.4967 79.2489 98.034C79.6302 98.5713 80.1416 98.84 80.7829 98.84C81.7016 98.84 82.3082 98.3633 82.6029 97.41H88.0109C87.6469 99.2127 86.8322 100.625 85.5669 101.648C84.3016 102.671 82.7416 103.182 80.8869 103.182C79.4482 103.182 78.1656 102.879 77.0389 102.272C75.9296 101.665 75.0629 100.799 74.4389 99.672C73.8149 98.5453 73.5029 97.2193 73.5029 95.694ZM89.2959 95.694C89.2959 94.186 89.5645 92.8687 90.1019 91.742C90.6565 90.6153 91.4019 89.7487 92.3379 89.142C93.2912 88.5353 94.3485 88.232 95.5099 88.232C96.5152 88.232 97.3819 88.4313 98.1099 88.83C98.8379 89.2287 99.4012 89.766 99.7999 90.442V88.414H104.896V103H99.7999V100.972C99.4012 101.648 98.8292 102.185 98.0839 102.584C97.3559 102.983 96.4979 103.182 95.5099 103.182C94.3485 103.182 93.2912 102.879 92.3379 102.272C91.4019 101.665 90.6565 100.799 90.1019 99.672C89.5645 98.528 89.2959 97.202 89.2959 95.694ZM99.7999 95.694C99.7999 94.758 99.5399 94.0213 99.0199 93.484C98.5172 92.9467 97.8932 92.678 97.1479 92.678C96.3852 92.678 95.7525 92.9467 95.2499 93.484C94.7472 94.004 94.4959 94.7407 94.4959 95.694C94.4959 96.63 94.7472 97.3753 95.2499 97.93C95.7525 98.4673 96.3852 98.736 97.1479 98.736C97.8932 98.736 98.5172 98.4673 99.0199 97.93C99.5399 97.3927 99.7999 96.6473 99.7999 95.694ZM112.896 90.988C113.468 90.156 114.161 89.4973 114.976 89.012C115.79 88.5267 116.666 88.284 117.602 88.284V93.718H116.172C115.062 93.718 114.239 93.9347 113.702 94.368C113.164 94.8013 112.896 95.5553 112.896 96.63V103H107.8V88.414H112.896V90.988ZM122.003 87.062C121.101 87.062 120.373 86.8193 119.819 86.334C119.281 85.8313 119.013 85.2073 119.013 84.462C119.013 83.6993 119.281 83.0667 119.819 82.564C120.373 82.0613 121.101 81.81 122.003 81.81C122.887 81.81 123.597 82.0613 124.135 82.564C124.689 83.0667 124.967 83.6993 124.967 84.462C124.967 85.2073 124.689 85.8313 124.135 86.334C123.597 86.8193 122.887 87.062 122.003 87.062ZM124.525 88.414V103H119.429V88.414H124.525ZM136.969 88.284C138.65 88.284 139.985 88.8473 140.973 89.974C141.961 91.0833 142.455 92.5913 142.455 94.498V103H137.359V95.174C137.359 94.342 137.142 93.692 136.709 93.224C136.275 92.7387 135.695 92.496 134.967 92.496C134.204 92.496 133.606 92.7387 133.173 93.224C132.739 93.692 132.523 94.342 132.523 95.174V103H127.427V88.414H132.523V90.494C132.973 89.8353 133.58 89.3067 134.343 88.908C135.105 88.492 135.981 88.284 136.969 88.284ZM154.845 88.284C156.509 88.284 157.826 88.8473 158.797 89.974C159.785 91.0833 160.279 92.5913 160.279 94.498V103H155.183V95.174C155.183 94.342 154.966 93.692 154.533 93.224C154.1 92.7387 153.519 92.496 152.791 92.496C152.028 92.496 151.43 92.7387 150.997 93.224C150.564 93.692 150.347 94.342 150.347 95.174V103H145.251V83.76H150.347V90.494C150.798 89.8353 151.404 89.3067 152.167 88.908C152.947 88.492 153.84 88.284 154.845 88.284ZM169.861 103.182C168.405 103.182 167.096 102.879 165.935 102.272C164.791 101.665 163.89 100.799 163.231 99.672C162.572 98.5453 162.243 97.2193 162.243 95.694C162.243 94.186 162.572 92.8687 163.231 91.742C163.907 90.6153 164.817 89.7487 165.961 89.142C167.122 88.5353 168.431 88.232 169.887 88.232C171.343 88.232 172.643 88.5353 173.787 89.142C174.948 89.7487 175.858 90.6153 176.517 91.742C177.193 92.8687 177.531 94.186 177.531 95.694C177.531 97.202 177.193 98.528 176.517 99.672C175.858 100.799 174.948 101.665 173.787 102.272C172.626 102.879 171.317 103.182 169.861 103.182ZM169.861 98.762C170.572 98.762 171.161 98.502 171.629 97.982C172.114 97.4447 172.357 96.682 172.357 95.694C172.357 94.706 172.114 93.952 171.629 93.432C171.161 92.912 170.58 92.652 169.887 92.652C169.194 92.652 168.613 92.912 168.145 93.432C167.677 93.952 167.443 94.706 167.443 95.694C167.443 96.6993 167.668 97.462 168.119 97.982C168.57 98.502 169.15 98.762 169.861 98.762ZM186.416 83.734L185.818 96.136H181.476L180.878 83.734H186.416ZM183.66 103.208C182.759 103.208 182.031 102.965 181.476 102.48C180.939 101.977 180.67 101.345 180.67 100.582C180.67 99.8193 180.939 99.1867 181.476 98.684C182.031 98.1813 182.759 97.93 183.66 97.93C184.544 97.93 185.255 98.1813 185.792 98.684C186.347 99.1867 186.624 99.8193 186.624 100.582C186.624 101.327 186.347 101.951 185.792 102.454C185.255 102.957 184.544 103.208 183.66 103.208ZM38.381 125.11C37.985 124.347 37.435 123.775 36.731 123.394C36.027 122.998 35.213 122.8 34.289 122.8C33.277 122.8 32.375 123.027 31.583 123.482C30.791 123.937 30.1677 124.582 29.713 125.418C29.273 126.254 29.053 127.222 29.053 128.322C29.053 129.422 29.273 130.397 29.713 131.248C30.1677 132.084 30.791 132.729 31.583 133.184C32.375 133.639 33.277 133.866 34.289 133.866C35.653 133.866 36.7604 133.485 37.611 132.722C38.4617 131.959 38.9824 130.925 39.173 129.62H33.431V127.618H41.857V129.576C41.6957 130.764 41.2704 131.857 40.581 132.854C39.9064 133.851 39.019 134.651 37.919 135.252C36.8337 135.839 35.6237 136.132 34.289 136.132C32.8517 136.132 31.539 135.802 30.351 135.142C29.163 134.467 28.217 133.536 27.513 132.348C26.8237 131.16 26.479 129.818 26.479 128.322C26.479 126.826 26.8237 125.484 27.513 124.296C28.217 123.108 29.163 122.184 30.351 121.524C31.5537 120.849 32.8664 120.512 34.289 120.512C35.917 120.512 37.3617 120.915 38.623 121.722C39.899 122.514 40.823 123.643 41.395 125.11H38.381ZM43.4947 129.884C43.4947 128.667 43.744 127.589 44.2427 126.65C44.756 125.711 45.4453 124.985 46.3107 124.472C47.1907 123.944 48.1587 123.68 49.2147 123.68C50.168 123.68 50.9967 123.871 51.7007 124.252C52.4193 124.619 52.9913 125.081 53.4167 125.638V123.878H55.9467V136H53.4167V134.196C52.9913 134.768 52.412 135.245 51.6787 135.626C50.9453 136.007 50.1093 136.198 49.1707 136.198C48.1293 136.198 47.176 135.934 46.3107 135.406C45.4453 134.863 44.756 134.115 44.2427 133.162C43.744 132.194 43.4947 131.101 43.4947 129.884ZM53.4167 129.928C53.4167 129.092 53.2407 128.366 52.8887 127.75C52.5513 127.134 52.104 126.665 51.5467 126.342C50.9893 126.019 50.388 125.858 49.7427 125.858C49.0973 125.858 48.496 126.019 47.9387 126.342C47.3813 126.65 46.9267 127.112 46.5747 127.728C46.2373 128.329 46.0687 129.048 46.0687 129.884C46.0687 130.72 46.2373 131.453 46.5747 132.084C46.9267 132.715 47.3813 133.199 47.9387 133.536C48.5107 133.859 49.112 134.02 49.7427 134.02C50.388 134.02 50.9893 133.859 51.5467 133.536C52.104 133.213 52.5513 132.744 52.8887 132.128C53.2407 131.497 53.4167 130.764 53.4167 129.928ZM62.1668 125.924V132.634C62.1668 133.089 62.2695 133.419 62.4748 133.624C62.6948 133.815 63.0615 133.91 63.5748 133.91H65.1148V136H63.1348C62.0055 136 61.1402 135.736 60.5388 135.208C59.9375 134.68 59.6368 133.822 59.6368 132.634V125.924H58.2068V123.878H59.6368V120.864H62.1668V123.878H65.1148V125.924H62.1668ZM72.6844 136.198C71.5404 136.198 70.5064 135.941 69.5824 135.428C68.6584 134.9 67.9324 134.167 67.4044 133.228C66.8764 132.275 66.6124 131.175 66.6124 129.928C66.6124 128.696 66.8837 127.603 67.4264 126.65C67.969 125.697 68.7097 124.963 69.6484 124.45C70.587 123.937 71.6357 123.68 72.7944 123.68C73.953 123.68 75.0017 123.937 75.9404 124.45C76.879 124.963 77.6197 125.697 78.1624 126.65C78.705 127.603 78.9764 128.696 78.9764 129.928C78.9764 131.16 78.6977 132.253 78.1404 133.206C77.583 134.159 76.8204 134.9 75.8524 135.428C74.899 135.941 73.843 136.198 72.6844 136.198ZM72.6844 134.02C73.3297 134.02 73.931 133.866 74.4884 133.558C75.0604 133.25 75.5224 132.788 75.8744 132.172C76.2264 131.556 76.4024 130.808 76.4024 129.928C76.4024 129.048 76.2337 128.307 75.8964 127.706C75.559 127.09 75.1117 126.628 74.5544 126.32C73.997 126.012 73.3957 125.858 72.7504 125.858C72.105 125.858 71.5037 126.012 70.9464 126.32C70.4037 126.628 69.971 127.09 69.6484 127.706C69.3257 128.307 69.1644 129.048 69.1644 129.928C69.1644 131.233 69.4944 132.245 70.1544 132.964C70.829 133.668 71.6724 134.02 72.6844 134.02ZM85.8557 136.198C84.9023 136.198 84.0443 136.029 83.2817 135.692C82.5337 135.34 81.9397 134.871 81.4997 134.284C81.0597 133.683 80.825 133.015 80.7957 132.282H83.3917C83.4357 132.795 83.6777 133.228 84.1177 133.58C84.5723 133.917 85.137 134.086 85.8117 134.086C86.5157 134.086 87.0583 133.954 87.4397 133.69C87.8357 133.411 88.0337 133.059 88.0337 132.634C88.0337 132.179 87.8137 131.842 87.3737 131.622C86.9483 131.402 86.2663 131.16 85.3277 130.896C84.4183 130.647 83.6777 130.405 83.1057 130.17C82.5337 129.935 82.035 129.576 81.6097 129.092C81.199 128.608 80.9937 127.97 80.9937 127.178C80.9937 126.533 81.1843 125.946 81.5657 125.418C81.947 124.875 82.4897 124.45 83.1937 124.142C83.9123 123.834 84.7337 123.68 85.6577 123.68C87.0363 123.68 88.1437 124.032 88.9797 124.736C89.8303 125.425 90.285 126.371 90.3437 127.574H87.8357C87.7917 127.031 87.5717 126.599 87.1757 126.276C86.7797 125.953 86.2443 125.792 85.5697 125.792C84.9097 125.792 84.4037 125.917 84.0517 126.166C83.6997 126.415 83.5237 126.745 83.5237 127.156C83.5237 127.479 83.641 127.75 83.8757 127.97C84.1103 128.19 84.3963 128.366 84.7337 128.498C85.071 128.615 85.5697 128.769 86.2297 128.96C87.1097 129.195 87.8283 129.437 88.3857 129.686C88.9577 129.921 89.449 130.273 89.8597 130.742C90.2703 131.211 90.483 131.835 90.4977 132.612C90.4977 133.301 90.307 133.917 89.9257 134.46C89.5443 135.003 89.0017 135.428 88.2977 135.736C87.6083 136.044 86.7943 136.198 85.8557 136.198ZM103.322 136.198C102.369 136.198 101.511 136.029 100.748 135.692C100 135.34 99.4065 134.871 98.9665 134.284C98.5265 133.683 98.2918 133.015 98.2625 132.282H100.858C100.902 132.795 101.144 133.228 101.584 133.58C102.039 133.917 102.604 134.086 103.278 134.086C103.982 134.086 104.525 133.954 104.906 133.69C105.302 133.411 105.5 133.059 105.5 132.634C105.5 132.179 105.28 131.842 104.84 131.622C104.415 131.402 103.733 131.16 102.794 130.896C101.885 130.647 101.144 130.405 100.572 130.17C100 129.935 99.5018 129.576 99.0765 129.092C98.6658 128.608 98.4605 127.97 98.4605 127.178C98.4605 126.533 98.6511 125.946 99.0325 125.418C99.4138 124.875 99.9565 124.45 100.66 124.142C101.379 123.834 102.2 123.68 103.124 123.68C104.503 123.68 105.61 124.032 106.446 124.736C107.297 125.425 107.752 126.371 107.81 127.574H105.302C105.258 127.031 105.038 126.599 104.642 126.276C104.246 125.953 103.711 125.792 103.036 125.792C102.376 125.792 101.87 125.917 101.518 126.166C101.166 126.415 100.99 126.745 100.99 127.156C100.99 127.479 101.108 127.75 101.342 127.97C101.577 128.19 101.863 128.366 102.2 128.498C102.538 128.615 103.036 128.769 103.696 128.96C104.576 129.195 105.295 129.437 105.852 129.686C106.424 129.921 106.916 130.273 107.326 130.742C107.737 131.211 107.95 131.835 107.964 132.612C107.964 133.301 107.774 133.917 107.392 134.46C107.011 135.003 106.468 135.428 105.764 135.736C105.075 136.044 104.261 136.198 103.322 136.198ZM109.838 129.884C109.838 128.667 110.088 127.589 110.586 126.65C111.1 125.711 111.789 124.985 112.654 124.472C113.534 123.944 114.502 123.68 115.558 123.68C116.512 123.68 117.34 123.871 118.044 124.252C118.763 124.619 119.335 125.081 119.76 125.638V123.878H122.29V136H119.76V134.196C119.335 134.768 118.756 135.245 118.022 135.626C117.289 136.007 116.453 136.198 115.514 136.198C114.473 136.198 113.52 135.934 112.654 135.406C111.789 134.863 111.1 134.115 110.586 133.162C110.088 132.194 109.838 131.101 109.838 129.884ZM119.76 129.928C119.76 129.092 119.584 128.366 119.232 127.75C118.895 127.134 118.448 126.665 117.89 126.342C117.333 126.019 116.732 125.858 116.086 125.858C115.441 125.858 114.84 126.019 114.282 126.342C113.725 126.65 113.27 127.112 112.918 127.728C112.581 128.329 112.412 129.048 112.412 129.884C112.412 130.72 112.581 131.453 112.918 132.084C113.27 132.715 113.725 133.199 114.282 133.536C114.854 133.859 115.456 134.02 116.086 134.02C116.732 134.02 117.333 133.859 117.89 133.536C118.448 133.213 118.895 132.744 119.232 132.128C119.584 131.497 119.76 130.764 119.76 129.928ZM112.896 122.624C113.014 121.773 113.292 121.135 113.732 120.71C114.172 120.27 114.722 120.05 115.382 120.05C115.661 120.05 115.903 120.094 116.108 120.182C116.314 120.27 116.563 120.402 116.856 120.578C117.076 120.725 117.26 120.835 117.406 120.908C117.568 120.981 117.744 121.018 117.934 121.018C118.184 121.018 118.389 120.945 118.55 120.798C118.726 120.637 118.836 120.402 118.88 120.094H120.288C120.171 120.945 119.892 121.59 119.452 122.03C119.012 122.455 118.462 122.668 117.802 122.668C117.524 122.668 117.274 122.624 117.054 122.536C116.834 122.433 116.592 122.294 116.328 122.118C116.064 121.957 115.859 121.847 115.712 121.788C115.58 121.715 115.426 121.678 115.25 121.678C115.001 121.678 114.788 121.759 114.612 121.92C114.451 122.081 114.348 122.316 114.304 122.624H112.896ZM130.843 136.198C129.699 136.198 128.665 135.941 127.741 135.428C126.817 134.9 126.091 134.167 125.563 133.228C125.035 132.275 124.771 131.175 124.771 129.928C124.771 128.696 125.042 127.603 125.585 126.65C126.127 125.697 126.868 124.963 127.807 124.45C128.745 123.937 129.794 123.68 130.953 123.68C132.111 123.68 133.16 123.937 134.099 124.45C135.037 124.963 135.778 125.697 136.321 126.65C136.863 127.603 137.135 128.696 137.135 129.928C137.135 131.16 136.856 132.253 136.299 133.206C135.741 134.159 134.979 134.9 134.011 135.428C133.057 135.941 132.001 136.198 130.843 136.198ZM130.843 134.02C131.488 134.02 132.089 133.866 132.647 133.558C133.219 133.25 133.681 132.788 134.033 132.172C134.385 131.556 134.561 130.808 134.561 129.928C134.561 129.048 134.392 128.307 134.055 127.706C133.717 127.09 133.27 126.628 132.713 126.32C132.155 126.012 131.554 125.858 130.909 125.858C130.263 125.858 129.662 126.012 129.105 126.32C128.562 126.628 128.129 127.09 127.807 127.706C127.484 128.307 127.323 129.048 127.323 129.928C127.323 131.233 127.653 132.245 128.313 132.964C128.987 133.668 129.831 134.02 130.843 134.02ZM150.587 136.198C149.443 136.198 148.409 135.941 147.485 135.428C146.561 134.9 145.835 134.167 145.307 133.228C144.779 132.275 144.515 131.175 144.515 129.928C144.515 128.696 144.786 127.603 145.329 126.65C145.871 125.697 146.612 124.963 147.551 124.45C148.489 123.937 149.538 123.68 150.697 123.68C151.855 123.68 152.904 123.937 153.843 124.45C154.781 124.963 155.522 125.697 156.065 126.65C156.607 127.603 156.879 128.696 156.879 129.928C156.879 131.16 156.6 132.253 156.043 133.206C155.485 134.159 154.723 134.9 153.755 135.428C152.801 135.941 151.745 136.198 150.587 136.198ZM150.587 134.02C151.232 134.02 151.833 133.866 152.391 133.558C152.963 133.25 153.425 132.788 153.777 132.172C154.129 131.556 154.305 130.808 154.305 129.928C154.305 129.048 154.136 128.307 153.799 127.706C153.461 127.09 153.014 126.628 152.457 126.32C151.899 126.012 151.298 125.858 150.653 125.858C150.007 125.858 149.406 126.012 148.849 126.32C148.306 126.628 147.873 127.09 147.551 127.706C147.228 128.307 147.067 129.048 147.067 129.928C147.067 131.233 147.397 132.245 148.057 132.964C148.731 133.668 149.575 134.02 150.587 134.02ZM152.963 120.424L148.101 122.822V120.974L152.963 118.29V120.424ZM162.284 125.924V132.634C162.284 133.089 162.387 133.419 162.592 133.624C162.812 133.815 163.179 133.91 163.692 133.91H165.232V136H163.252C162.123 136 161.257 135.736 160.656 135.208C160.055 134.68 159.754 133.822 159.754 132.634V125.924H158.324V123.878H159.754V120.864H162.284V123.878H165.232V125.924H162.284ZM168.82 122.272C168.365 122.272 167.984 122.118 167.676 121.81C167.368 121.502 167.214 121.121 167.214 120.666C167.214 120.211 167.368 119.83 167.676 119.522C167.984 119.214 168.365 119.06 168.82 119.06C169.26 119.06 169.634 119.214 169.942 119.522C170.25 119.83 170.404 120.211 170.404 120.666C170.404 121.121 170.25 121.502 169.942 121.81C169.634 122.118 169.26 122.272 168.82 122.272ZM170.052 123.878V136H167.544V123.878H170.052ZM188.018 123.68C188.972 123.68 189.822 123.878 190.57 124.274C191.333 124.67 191.927 125.257 192.352 126.034C192.792 126.811 193.012 127.75 193.012 128.85V136H190.526V129.224C190.526 128.139 190.255 127.31 189.712 126.738C189.17 126.151 188.429 125.858 187.49 125.858C186.552 125.858 185.804 126.151 185.246 126.738C184.704 127.31 184.432 128.139 184.432 129.224V136H181.946V129.224C181.946 128.139 181.675 127.31 181.132 126.738C180.59 126.151 179.849 125.858 178.91 125.858C177.972 125.858 177.224 126.151 176.666 126.738C176.124 127.31 175.852 128.139 175.852 129.224V136H173.344V123.878H175.852V125.264C176.263 124.765 176.784 124.377 177.414 124.098C178.045 123.819 178.72 123.68 179.438 123.68C180.406 123.68 181.272 123.885 182.034 124.296C182.797 124.707 183.384 125.301 183.794 126.078C184.161 125.345 184.733 124.765 185.51 124.34C186.288 123.9 187.124 123.68 188.018 123.68ZM201.462 136.198C200.318 136.198 199.284 135.941 198.36 135.428C197.436 134.9 196.71 134.167 196.182 133.228C195.654 132.275 195.39 131.175 195.39 129.928C195.39 128.696 195.661 127.603 196.204 126.65C196.746 125.697 197.487 124.963 198.426 124.45C199.364 123.937 200.413 123.68 201.572 123.68C202.73 123.68 203.779 123.937 204.718 124.45C205.656 124.963 206.397 125.697 206.94 126.65C207.482 127.603 207.754 128.696 207.754 129.928C207.754 131.16 207.475 132.253 206.918 133.206C206.36 134.159 205.598 134.9 204.63 135.428C203.676 135.941 202.62 136.198 201.462 136.198ZM201.462 134.02C202.107 134.02 202.708 133.866 203.266 133.558C203.838 133.25 204.3 132.788 204.652 132.172C205.004 131.556 205.18 130.808 205.18 129.928C205.18 129.048 205.011 128.307 204.674 127.706C204.336 127.09 203.889 126.628 203.332 126.32C202.774 126.012 202.173 125.858 201.528 125.858C200.882 125.858 200.281 126.012 199.724 126.32C199.181 126.628 198.748 127.09 198.426 127.706C198.103 128.307 197.942 129.048 197.942 129.928C197.942 131.233 198.272 132.245 198.932 132.964C199.606 133.668 200.45 134.02 201.462 134.02ZM214.633 136.198C213.68 136.198 212.822 136.029 212.059 135.692C211.311 135.34 210.717 134.871 210.277 134.284C209.837 133.683 209.602 133.015 209.573 132.282H212.169C212.213 132.795 212.455 133.228 212.895 133.58C213.35 133.917 213.914 134.086 214.589 134.086C215.293 134.086 215.836 133.954 216.217 133.69C216.613 133.411 216.811 133.059 216.811 132.634C216.811 132.179 216.591 131.842 216.151 131.622C215.726 131.402 215.044 131.16 214.105 130.896C213.196 130.647 212.455 130.405 211.883 130.17C211.311 129.935 210.812 129.576 210.387 129.092C209.976 128.608 209.771 127.97 209.771 127.178C209.771 126.533 209.962 125.946 210.343 125.418C210.724 124.875 211.267 124.45 211.971 124.142C212.69 123.834 213.511 123.68 214.435 123.68C215.814 123.68 216.921 124.032 217.757 124.736C218.608 125.425 219.062 126.371 219.121 127.574H216.613C216.569 127.031 216.349 126.599 215.953 126.276C215.557 125.953 215.022 125.792 214.347 125.792C213.687 125.792 213.181 125.917 212.829 126.166C212.477 126.415 212.301 126.745 212.301 127.156C212.301 127.479 212.418 127.75 212.653 127.97C212.888 128.19 213.174 128.366 213.511 128.498C213.848 128.615 214.347 128.769 215.007 128.96C215.887 129.195 216.606 129.437 217.163 129.686C217.735 129.921 218.226 130.273 218.637 130.742C219.048 131.211 219.26 131.835 219.275 132.612C219.275 133.301 219.084 133.917 218.703 134.46C218.322 135.003 217.779 135.428 217.075 135.736C216.386 136.044 215.572 136.198 214.633 136.198ZM42.7749 162.928C42.7749 161.681 43.0243 160.589 43.5229 159.65C44.0363 158.697 44.7403 157.963 45.6349 157.45C46.5296 156.937 47.5563 156.68 48.7149 156.68C50.1816 156.68 51.3916 157.032 52.3449 157.736C53.3129 158.425 53.9656 159.415 54.3029 160.706H51.5969C51.3769 160.105 51.0249 159.635 50.5409 159.298C50.0569 158.961 49.4483 158.792 48.7149 158.792C47.6883 158.792 46.8669 159.159 46.2509 159.892C45.6496 160.611 45.3489 161.623 45.3489 162.928C45.3489 164.233 45.6496 165.253 46.2509 165.986C46.8669 166.719 47.6883 167.086 48.7149 167.086C50.1669 167.086 51.1276 166.448 51.5969 165.172H54.3029C53.9509 166.404 53.2909 167.387 52.3229 168.12C51.3549 168.839 50.1523 169.198 48.7149 169.198C47.5563 169.198 46.5296 168.941 45.6349 168.428C44.7403 167.9 44.0363 167.167 43.5229 166.228C43.0243 165.275 42.7749 164.175 42.7749 162.928ZM62.0603 169.198C60.9163 169.198 59.8823 168.941 58.9583 168.428C58.0343 167.9 57.3083 167.167 56.7803 166.228C56.2523 165.275 55.9883 164.175 55.9883 162.928C55.9883 161.696 56.2597 160.603 56.8023 159.65C57.345 158.697 58.0857 157.963 59.0243 157.45C59.963 156.937 61.0117 156.68 62.1703 156.68C63.329 156.68 64.3777 156.937 65.3163 157.45C66.255 157.963 66.9957 158.697 67.5383 159.65C68.081 160.603 68.3523 161.696 68.3523 162.928C68.3523 164.16 68.0737 165.253 67.5163 166.206C66.959 167.159 66.1963 167.9 65.2283 168.428C64.275 168.941 63.219 169.198 62.0603 169.198ZM62.0603 167.02C62.7057 167.02 63.307 166.866 63.8643 166.558C64.4363 166.25 64.8983 165.788 65.2503 165.172C65.6023 164.556 65.7783 163.808 65.7783 162.928C65.7783 162.048 65.6097 161.307 65.2723 160.706C64.935 160.09 64.4877 159.628 63.9303 159.32C63.373 159.012 62.7717 158.858 62.1263 158.858C61.481 158.858 60.8797 159.012 60.3223 159.32C59.7797 159.628 59.347 160.09 59.0243 160.706C58.7017 161.307 58.5403 162.048 58.5403 162.928C58.5403 164.233 58.8703 165.245 59.5303 165.964C60.205 166.668 61.0483 167.02 62.0603 167.02ZM85.5056 156.68C86.459 156.68 87.3096 156.878 88.0576 157.274C88.8203 157.67 89.4143 158.257 89.8396 159.034C90.2796 159.811 90.4996 160.75 90.4996 161.85V169H88.0136V162.224C88.0136 161.139 87.7423 160.31 87.1996 159.738C86.657 159.151 85.9163 158.858 84.9776 158.858C84.039 158.858 83.291 159.151 82.7336 159.738C82.191 160.31 81.9196 161.139 81.9196 162.224V169H79.4336V162.224C79.4336 161.139 79.1623 160.31 78.6196 159.738C78.077 159.151 77.3363 158.858 76.3976 158.858C75.459 158.858 74.711 159.151 74.1536 159.738C73.611 160.31 73.3396 161.139 73.3396 162.224V169H70.8316V156.878H73.3396V158.264C73.7503 157.765 74.271 157.377 74.9016 157.098C75.5323 156.819 76.207 156.68 76.9256 156.68C77.8936 156.68 78.759 156.885 79.5216 157.296C80.2843 157.707 80.871 158.301 81.2816 159.078C81.6483 158.345 82.2203 157.765 82.9976 157.34C83.775 156.9 84.611 156.68 85.5056 156.68ZM96.199 158.66C96.6243 158.103 97.2037 157.633 97.937 157.252C98.6703 156.871 99.499 156.68 100.423 156.68C101.479 156.68 102.44 156.944 103.305 157.472C104.185 157.985 104.874 158.711 105.373 159.65C105.872 160.589 106.121 161.667 106.121 162.884C106.121 164.101 105.872 165.194 105.373 166.162C104.874 167.115 104.185 167.863 103.305 168.406C102.44 168.934 101.479 169.198 100.423 169.198C99.499 169.198 98.6777 169.015 97.959 168.648C97.2403 168.267 96.6537 167.797 96.199 167.24V174.764H93.691V156.878H96.199V158.66ZM103.569 162.884C103.569 162.048 103.393 161.329 103.041 160.728C102.704 160.112 102.249 159.65 101.677 159.342C101.12 159.019 100.518 158.858 99.873 158.858C99.2423 158.858 98.641 159.019 98.069 159.342C97.5117 159.665 97.057 160.134 96.705 160.75C96.3677 161.366 96.199 162.092 96.199 162.928C96.199 163.764 96.3677 164.497 96.705 165.128C97.057 165.744 97.5117 166.213 98.069 166.536C98.641 166.859 99.2423 167.02 99.873 167.02C100.518 167.02 101.12 166.859 101.677 166.536C102.249 166.199 102.704 165.715 103.041 165.084C103.393 164.453 103.569 163.72 103.569 162.884ZM107.765 162.884C107.765 161.667 108.015 160.589 108.513 159.65C109.027 158.711 109.716 157.985 110.581 157.472C111.461 156.944 112.429 156.68 113.485 156.68C114.439 156.68 115.267 156.871 115.971 157.252C116.69 157.619 117.262 158.081 117.687 158.638V156.878H120.217V169H117.687V167.196C117.262 167.768 116.683 168.245 115.949 168.626C115.216 169.007 114.38 169.198 113.441 169.198C112.4 169.198 111.447 168.934 110.581 168.406C109.716 167.863 109.027 167.115 108.513 166.162C108.015 165.194 107.765 164.101 107.765 162.884ZM117.687 162.928C117.687 162.092 117.511 161.366 117.159 160.75C116.822 160.134 116.375 159.665 115.817 159.342C115.26 159.019 114.659 158.858 114.013 158.858C113.368 158.858 112.767 159.019 112.209 159.342C111.652 159.65 111.197 160.112 110.845 160.728C110.508 161.329 110.339 162.048 110.339 162.884C110.339 163.72 110.508 164.453 110.845 165.084C111.197 165.715 111.652 166.199 112.209 166.536C112.781 166.859 113.383 167.02 114.013 167.02C114.659 167.02 115.26 166.859 115.817 166.536C116.375 166.213 116.822 165.744 117.159 165.128C117.511 164.497 117.687 163.764 117.687 162.928ZM129.627 156.68C130.581 156.68 131.431 156.878 132.179 157.274C132.942 157.67 133.536 158.257 133.961 159.034C134.387 159.811 134.599 160.75 134.599 161.85V169H132.113V162.224C132.113 161.139 131.842 160.31 131.299 159.738C130.757 159.151 130.016 158.858 129.077 158.858C128.139 158.858 127.391 159.151 126.833 159.738C126.291 160.31 126.019 161.139 126.019 162.224V169H123.511V156.878H126.019V158.264C126.43 157.765 126.951 157.377 127.581 157.098C128.227 156.819 128.909 156.68 129.627 156.68ZM144.068 156.68C144.992 156.68 145.814 156.878 146.532 157.274C147.266 157.67 147.838 158.257 148.248 159.034C148.674 159.811 148.886 160.75 148.886 161.85V169H146.4V162.224C146.4 161.139 146.129 160.31 145.586 159.738C145.044 159.151 144.303 158.858 143.364 158.858C142.426 158.858 141.678 159.151 141.12 159.738C140.578 160.31 140.306 161.139 140.306 162.224V169H137.798V152.72H140.306V158.286C140.732 157.773 141.267 157.377 141.912 157.098C142.572 156.819 143.291 156.68 144.068 156.68ZM163.196 162.642C163.196 163.097 163.166 163.507 163.108 163.874H153.846C153.919 164.842 154.278 165.619 154.924 166.206C155.569 166.793 156.361 167.086 157.3 167.086C158.649 167.086 159.602 166.521 160.16 165.392H162.866C162.499 166.507 161.832 167.423 160.864 168.142C159.91 168.846 158.722 169.198 157.3 169.198C156.141 169.198 155.1 168.941 154.176 168.428C153.266 167.9 152.548 167.167 152.02 166.228C151.506 165.275 151.25 164.175 151.25 162.928C151.25 161.681 151.499 160.589 151.998 159.65C152.511 158.697 153.222 157.963 154.132 157.45C155.056 156.937 156.112 156.68 157.3 156.68C158.444 156.68 159.463 156.929 160.358 157.428C161.252 157.927 161.949 158.631 162.448 159.54C162.946 160.435 163.196 161.469 163.196 162.642ZM160.578 161.85C160.563 160.926 160.233 160.185 159.588 159.628C158.942 159.071 158.143 158.792 157.19 158.792C156.324 158.792 155.584 159.071 154.968 159.628C154.352 160.171 153.985 160.911 153.868 161.85H160.578ZM166.94 155.272C166.485 155.272 166.104 155.118 165.796 154.81C165.488 154.502 165.334 154.121 165.334 153.666C165.334 153.211 165.488 152.83 165.796 152.522C166.104 152.214 166.485 152.06 166.94 152.06C167.38 152.06 167.754 152.214 168.062 152.522C168.37 152.83 168.524 153.211 168.524 153.666C168.524 154.121 168.37 154.502 168.062 154.81C167.754 155.118 167.38 155.272 166.94 155.272ZM168.172 156.878V169H165.664V156.878H168.172ZM173.972 158.638C174.339 158.022 174.823 157.545 175.424 157.208C176.04 156.856 176.766 156.68 177.602 156.68V159.276H176.964C175.982 159.276 175.234 159.525 174.72 160.024C174.222 160.523 173.972 161.388 173.972 162.62V169H171.464V156.878H173.972V158.638ZM185.166 169.198C184.022 169.198 182.988 168.941 182.064 168.428C181.14 167.9 180.414 167.167 179.886 166.228C179.358 165.275 179.094 164.175 179.094 162.928C179.094 161.696 179.365 160.603 179.908 159.65C180.45 158.697 181.191 157.963 182.13 157.45C183.068 156.937 184.117 156.68 185.276 156.68C186.434 156.68 187.483 156.937 188.422 157.45C189.36 157.963 190.101 158.697 190.644 159.65C191.186 160.603 191.458 161.696 191.458 162.928C191.458 164.16 191.179 165.253 190.622 166.206C190.064 167.159 189.302 167.9 188.334 168.428C187.38 168.941 186.324 169.198 185.166 169.198ZM185.166 167.02C185.811 167.02 186.412 166.866 186.97 166.558C187.542 166.25 188.004 165.788 188.356 165.172C188.708 164.556 188.884 163.808 188.884 162.928C188.884 162.048 188.715 161.307 188.378 160.706C188.04 160.09 187.593 159.628 187.036 159.32C186.478 159.012 185.877 158.858 185.232 158.858C184.586 158.858 183.985 159.012 183.428 159.32C182.885 159.628 182.452 160.09 182.13 160.706C181.807 161.307 181.646 162.048 181.646 162.928C181.646 164.233 181.976 165.245 182.636 165.964C183.31 166.668 184.154 167.02 185.166 167.02ZM198.337 169.198C197.384 169.198 196.526 169.029 195.763 168.692C195.015 168.34 194.421 167.871 193.981 167.284C193.541 166.683 193.306 166.015 193.277 165.282H195.873C195.917 165.795 196.159 166.228 196.599 166.58C197.054 166.917 197.618 167.086 198.293 167.086C198.997 167.086 199.54 166.954 199.921 166.69C200.317 166.411 200.515 166.059 200.515 165.634C200.515 165.179 200.295 164.842 199.855 164.622C199.43 164.402 198.748 164.16 197.809 163.896C196.9 163.647 196.159 163.405 195.587 163.17C195.015 162.935 194.516 162.576 194.091 162.092C193.68 161.608 193.475 160.97 193.475 160.178C193.475 159.533 193.666 158.946 194.047 158.418C194.428 157.875 194.971 157.45 195.675 157.142C196.394 156.834 197.215 156.68 198.139 156.68C199.518 156.68 200.625 157.032 201.461 157.736C202.312 158.425 202.766 159.371 202.825 160.574H200.317C200.273 160.031 200.053 159.599 199.657 159.276C199.261 158.953 198.726 158.792 198.051 158.792C197.391 158.792 196.885 158.917 196.533 159.166C196.181 159.415 196.005 159.745 196.005 160.156C196.005 160.479 196.122 160.75 196.357 160.97C196.592 161.19 196.878 161.366 197.215 161.498C197.552 161.615 198.051 161.769 198.711 161.96C199.591 162.195 200.31 162.437 200.867 162.686C201.439 162.921 201.93 163.273 202.341 163.742C202.752 164.211 202.964 164.835 202.979 165.612C202.979 166.301 202.788 166.917 202.407 167.46C202.026 168.003 201.483 168.428 200.779 168.736C200.09 169.044 199.276 169.198 198.337 169.198ZM61.7994 195.884C61.7994 194.667 62.0487 193.589 62.5474 192.65C63.0607 191.711 63.75 190.985 64.6154 190.472C65.4954 189.944 66.4707 189.68 67.5414 189.68C68.48 189.68 69.3087 189.871 70.0274 190.252C70.7607 190.633 71.3254 191.095 71.7214 191.638V189.878H74.2514V207.764H71.7214V200.24C71.3254 200.783 70.7534 201.245 70.0054 201.626C69.2574 202.007 68.4067 202.198 67.4534 202.198C66.412 202.198 65.4587 201.934 64.5934 201.406C63.7427 200.863 63.0607 200.115 62.5474 199.162C62.0487 198.194 61.7994 197.101 61.7994 195.884ZM71.7214 195.928C71.7214 195.092 71.5454 194.366 71.1934 193.75C70.856 193.134 70.4087 192.665 69.8514 192.342C69.294 192.019 68.6927 191.858 68.0474 191.858C67.402 191.858 66.8007 192.019 66.2434 192.342C65.686 192.65 65.2314 193.112 64.8794 193.728C64.542 194.329 64.3734 195.048 64.3734 195.884C64.3734 196.72 64.542 197.453 64.8794 198.084C65.2314 198.715 65.686 199.199 66.2434 199.536C66.8154 199.859 67.4167 200.02 68.0474 200.02C68.6927 200.02 69.294 199.859 69.8514 199.536C70.4087 199.213 70.856 198.744 71.1934 198.128C71.5454 197.497 71.7214 196.764 71.7214 195.928ZM88.5235 189.878V202H86.0155V200.57C85.6195 201.069 85.0988 201.465 84.4535 201.758C83.8228 202.037 83.1482 202.176 82.4295 202.176C81.4762 202.176 80.6182 201.978 79.8555 201.582C79.1075 201.186 78.5135 200.599 78.0735 199.822C77.6482 199.045 77.4355 198.106 77.4355 197.006V189.878H79.9215V196.632C79.9215 197.717 80.1928 198.553 80.7355 199.14C81.2782 199.712 82.0188 199.998 82.9575 199.998C83.8962 199.998 84.6368 199.712 85.1795 199.14C85.7368 198.553 86.0155 197.717 86.0155 196.632V189.878H88.5235ZM102.943 195.642C102.943 196.097 102.913 196.507 102.855 196.874H93.5926C93.666 197.842 94.0253 198.619 94.6706 199.206C95.316 199.793 96.108 200.086 97.0466 200.086C98.396 200.086 99.3493 199.521 99.9066 198.392H102.613C102.246 199.507 101.579 200.423 100.611 201.142C99.6573 201.846 98.4693 202.198 97.0466 202.198C95.888 202.198 94.8466 201.941 93.9226 201.428C93.0133 200.9 92.2946 200.167 91.7666 199.228C91.2533 198.275 90.9966 197.175 90.9966 195.928C90.9966 194.681 91.246 193.589 91.7446 192.65C92.258 191.697 92.9693 190.963 93.8786 190.45C94.8026 189.937 95.8586 189.68 97.0466 189.68C98.1906 189.68 99.21 189.929 100.105 190.428C100.999 190.927 101.696 191.631 102.195 192.54C102.693 193.435 102.943 194.469 102.943 195.642ZM100.325 194.85C100.31 193.926 99.98 193.185 99.3346 192.628C98.6893 192.071 97.89 191.792 96.9366 191.792C96.0713 191.792 95.3306 192.071 94.7146 192.628C94.0986 193.171 93.732 193.911 93.6146 194.85H100.325ZM110.29 195.884C110.29 194.667 110.539 193.589 111.038 192.65C111.551 191.711 112.24 190.985 113.106 190.472C113.986 189.944 114.954 189.68 116.01 189.68C116.963 189.68 117.792 189.871 118.496 190.252C119.214 190.619 119.786 191.081 120.212 191.638V189.878H122.742V202H120.212V200.196C119.786 200.768 119.207 201.245 118.474 201.626C117.74 202.007 116.904 202.198 115.966 202.198C114.924 202.198 113.971 201.934 113.106 201.406C112.24 200.863 111.551 200.115 111.038 199.162C110.539 198.194 110.29 197.101 110.29 195.884ZM120.212 195.928C120.212 195.092 120.036 194.366 119.684 193.75C119.346 193.134 118.899 192.665 118.342 192.342C117.784 192.019 117.183 191.858 116.538 191.858C115.892 191.858 115.291 192.019 114.734 192.342C114.176 192.65 113.722 193.112 113.37 193.728C113.032 194.329 112.864 195.048 112.864 195.884C112.864 196.72 113.032 197.453 113.37 198.084C113.722 198.715 114.176 199.199 114.734 199.536C115.306 199.859 115.907 200.02 116.538 200.02C117.183 200.02 117.784 199.859 118.342 199.536C118.899 199.213 119.346 198.744 119.684 198.128C120.036 197.497 120.212 196.764 120.212 195.928ZM140.71 189.68C141.663 189.68 142.514 189.878 143.262 190.274C144.024 190.67 144.618 191.257 145.044 192.034C145.484 192.811 145.704 193.75 145.704 194.85V202H143.218V195.224C143.218 194.139 142.946 193.31 142.404 192.738C141.861 192.151 141.12 191.858 140.182 191.858C139.243 191.858 138.495 192.151 137.938 192.738C137.395 193.31 137.124 194.139 137.124 195.224V202H134.638V195.224C134.638 194.139 134.366 193.31 133.824 192.738C133.281 192.151 132.54 191.858 131.602 191.858C130.663 191.858 129.915 192.151 129.358 192.738C128.815 193.31 128.544 194.139 128.544 195.224V202H126.036V189.878H128.544V191.264C128.954 190.765 129.475 190.377 130.106 190.098C130.736 189.819 131.411 189.68 132.13 189.68C133.098 189.68 133.963 189.885 134.726 190.296C135.488 190.707 136.075 191.301 136.486 192.078C136.852 191.345 137.424 190.765 138.202 190.34C138.979 189.9 139.815 189.68 140.71 189.68ZM148.059 195.884C148.059 194.667 148.308 193.589 148.807 192.65C149.32 191.711 150.01 190.985 150.875 190.472C151.755 189.944 152.723 189.68 153.779 189.68C154.732 189.68 155.561 189.871 156.265 190.252C156.984 190.619 157.556 191.081 157.981 191.638V189.878H160.511V202H157.981V200.196C157.556 200.768 156.976 201.245 156.243 201.626C155.51 202.007 154.674 202.198 153.735 202.198C152.694 202.198 151.74 201.934 150.875 201.406C150.01 200.863 149.32 200.115 148.807 199.162C148.308 198.194 148.059 197.101 148.059 195.884ZM157.981 195.928C157.981 195.092 157.805 194.366 157.453 193.75C157.116 193.134 156.668 192.665 156.111 192.342C155.554 192.019 154.952 191.858 154.307 191.858C153.662 191.858 153.06 192.019 152.503 192.342C151.946 192.65 151.491 193.112 151.139 193.728C150.802 194.329 150.633 195.048 150.633 195.884C150.633 196.72 150.802 197.453 151.139 198.084C151.491 198.715 151.946 199.199 152.503 199.536C153.075 199.859 153.676 200.02 154.307 200.02C154.952 200.02 155.554 199.859 156.111 199.536C156.668 199.213 157.116 198.744 157.453 198.128C157.805 197.497 157.981 196.764 157.981 195.928ZM178.479 189.68C179.433 189.68 180.283 189.878 181.031 190.274C181.794 190.67 182.388 191.257 182.813 192.034C183.253 192.811 183.473 193.75 183.473 194.85V202H180.987V195.224C180.987 194.139 180.716 193.31 180.173 192.738C179.631 192.151 178.89 191.858 177.951 191.858C177.013 191.858 176.265 192.151 175.707 192.738C175.165 193.31 174.893 194.139 174.893 195.224V202H172.407V195.224C172.407 194.139 172.136 193.31 171.593 192.738C171.051 192.151 170.31 191.858 169.371 191.858C168.433 191.858 167.685 192.151 167.127 192.738C166.585 193.31 166.313 194.139 166.313 195.224V202H163.805V189.878H166.313V191.264C166.724 190.765 167.245 190.377 167.875 190.098C168.506 189.819 169.181 189.68 169.899 189.68C170.867 189.68 171.733 189.885 172.495 190.296C173.258 190.707 173.845 191.301 174.255 192.078C174.622 191.345 175.194 190.765 175.971 190.34C176.749 189.9 177.585 189.68 178.479 189.68ZM25.2469 224.638C25.6135 224.022 26.0975 223.545 26.6989 223.208C27.3149 222.856 28.0409 222.68 28.8769 222.68V225.276H28.2389C27.2562 225.276 26.5082 225.525 25.9949 226.024C25.4962 226.523 25.2469 227.388 25.2469 228.62V235H22.7389V222.878H25.2469V224.638ZM42.2922 228.642C42.2922 229.097 42.2629 229.507 42.2042 229.874H32.9422C33.0156 230.842 33.3749 231.619 34.0202 232.206C34.6656 232.793 35.4576 233.086 36.3962 233.086C37.7456 233.086 38.6989 232.521 39.2562 231.392H41.9622C41.5956 232.507 40.9282 233.423 39.9602 234.142C39.0069 234.846 37.8189 235.198 36.3962 235.198C35.2376 235.198 34.1962 234.941 33.2722 234.428C32.3629 233.9 31.6442 233.167 31.1162 232.228C30.6029 231.275 30.3462 230.175 30.3462 228.928C30.3462 227.681 30.5956 226.589 31.0942 225.65C31.6076 224.697 32.3189 223.963 33.2282 223.45C34.1522 222.937 35.2082 222.68 36.3962 222.68C37.5402 222.68 38.5596 222.929 39.4542 223.428C40.3489 223.927 41.0456 224.631 41.5442 225.54C42.0429 226.435 42.2922 227.469 42.2922 228.642ZM39.6742 227.85C39.6596 226.926 39.3296 226.185 38.6842 225.628C38.0389 225.071 37.2396 224.792 36.2862 224.792C35.4209 224.792 34.6802 225.071 34.0642 225.628C33.4482 226.171 33.0816 226.911 32.9642 227.85H39.6742ZM43.9244 228.928C43.9244 227.681 44.1737 226.589 44.6724 225.65C45.1857 224.697 45.8897 223.963 46.7844 223.45C47.679 222.937 48.7057 222.68 49.8644 222.68C51.331 222.68 52.541 223.032 53.4944 223.736C54.4624 224.425 55.115 225.415 55.4524 226.706H52.7464C52.5264 226.105 52.1744 225.635 51.6904 225.298C51.2064 224.961 50.5977 224.792 49.8644 224.792C48.8377 224.792 48.0164 225.159 47.4004 225.892C46.799 226.611 46.4984 227.623 46.4984 228.928C46.4984 230.233 46.799 231.253 47.4004 231.986C48.0164 232.719 48.8377 233.086 49.8644 233.086C51.3164 233.086 52.277 232.448 52.7464 231.172H55.4524C55.1004 232.404 54.4404 233.387 53.4724 234.12C52.5044 234.839 51.3017 235.198 49.8644 235.198C48.7057 235.198 47.679 234.941 46.7844 234.428C45.8897 233.9 45.1857 233.167 44.6724 232.228C44.1737 231.275 43.9244 230.175 43.9244 228.928ZM69.0618 228.642C69.0618 229.097 69.0324 229.507 68.9738 229.874H59.7118C59.7851 230.842 60.1444 231.619 60.7898 232.206C61.4351 232.793 62.2271 233.086 63.1658 233.086C64.5151 233.086 65.4684 232.521 66.0258 231.392H68.7318C68.3651 232.507 67.6978 233.423 66.7298 234.142C65.7764 234.846 64.5884 235.198 63.1658 235.198C62.0071 235.198 60.9658 234.941 60.0418 234.428C59.1324 233.9 58.4138 233.167 57.8858 232.228C57.3724 231.275 57.1158 230.175 57.1158 228.928C57.1158 227.681 57.3651 226.589 57.8638 225.65C58.3771 224.697 59.0884 223.963 59.9978 223.45C60.9218 222.937 61.9778 222.68 63.1658 222.68C64.3098 222.68 65.3291 222.929 66.2238 223.428C67.1184 223.927 67.8151 224.631 68.3138 225.54C68.8124 226.435 69.0618 227.469 69.0618 228.642ZM66.4438 227.85C66.4291 226.926 66.0991 226.185 65.4538 225.628C64.8084 225.071 64.0091 224.792 63.0558 224.792C62.1904 224.792 61.4498 225.071 60.8338 225.628C60.2178 226.171 59.8511 226.911 59.7338 227.85H66.4438ZM74.0379 224.682C74.4632 224.095 75.0425 223.619 75.7759 223.252C76.5239 222.871 77.3525 222.68 78.2619 222.68C79.3325 222.68 80.3005 222.937 81.1659 223.45C82.0312 223.963 82.7132 224.697 83.2119 225.65C83.7106 226.589 83.9599 227.667 83.9599 228.884C83.9599 230.101 83.7106 231.194 83.2119 232.162C82.7132 233.115 82.0239 233.863 81.1439 234.406C80.2785 234.934 79.3179 235.198 78.2619 235.198C77.3232 235.198 76.4872 235.015 75.7539 234.648C75.0352 234.281 74.4632 233.812 74.0379 233.24V235H71.5299V218.72H74.0379V224.682ZM81.4079 228.884C81.4079 228.048 81.2319 227.329 80.8799 226.728C80.5425 226.112 80.0879 225.65 79.5159 225.342C78.9585 225.019 78.3572 224.858 77.7119 224.858C77.0812 224.858 76.4799 225.019 75.9079 225.342C75.3505 225.665 74.8959 226.134 74.5439 226.75C74.2065 227.366 74.0379 228.092 74.0379 228.928C74.0379 229.764 74.2065 230.497 74.5439 231.128C74.8959 231.744 75.3505 232.213 75.9079 232.536C76.4799 232.859 77.0812 233.02 77.7119 233.02C78.3572 233.02 78.9585 232.859 79.5159 232.536C80.0879 232.199 80.5425 231.715 80.8799 231.084C81.2319 230.453 81.4079 229.72 81.4079 228.884ZM97.55 228.642C97.55 229.097 97.5207 229.507 97.462 229.874H88.2C88.2734 230.842 88.6327 231.619 89.278 232.206C89.9234 232.793 90.7154 233.086 91.654 233.086C93.0034 233.086 93.9567 232.521 94.514 231.392H97.22C96.8534 232.507 96.186 233.423 95.218 234.142C94.2647 234.846 93.0767 235.198 91.654 235.198C90.4954 235.198 89.454 234.941 88.53 234.428C87.6207 233.9 86.902 233.167 86.374 232.228C85.8607 231.275 85.604 230.175 85.604 228.928C85.604 227.681 85.8534 226.589 86.352 225.65C86.8654 224.697 87.5767 223.963 88.486 223.45C89.41 222.937 90.466 222.68 91.654 222.68C92.798 222.68 93.8174 222.929 94.712 223.428C95.6067 223.927 96.3034 224.631 96.802 225.54C97.3007 226.435 97.55 227.469 97.55 228.642ZM94.932 227.85C94.9174 226.926 94.5874 226.185 93.942 225.628C93.2967 225.071 92.4974 224.792 91.544 224.792C90.6787 224.792 89.938 225.071 89.322 225.628C88.706 226.171 88.3394 226.911 88.222 227.85H94.932ZM102.526 224.638C102.893 224.022 103.377 223.545 103.978 223.208C104.594 222.856 105.32 222.68 106.156 222.68V225.276H105.518C104.535 225.276 103.787 225.525 103.274 226.024C102.775 226.523 102.526 227.388 102.526 228.62V235H100.018V222.878H102.526V224.638ZM113.34 228.884C113.34 227.667 113.59 226.589 114.088 225.65C114.602 224.711 115.291 223.985 116.156 223.472C117.036 222.944 118.004 222.68 119.06 222.68C120.014 222.68 120.842 222.871 121.546 223.252C122.265 223.619 122.837 224.081 123.262 224.638V222.878H125.792V235H123.262V233.196C122.837 233.768 122.258 234.245 121.524 234.626C120.791 235.007 119.955 235.198 119.016 235.198C117.975 235.198 117.022 234.934 116.156 234.406C115.291 233.863 114.602 233.115 114.088 232.162C113.59 231.194 113.34 230.101 113.34 228.884ZM123.262 228.928C123.262 228.092 123.086 227.366 122.734 226.75C122.397 226.134 121.95 225.665 121.392 225.342C120.835 225.019 120.234 224.858 119.588 224.858C118.943 224.858 118.342 225.019 117.784 225.342C117.227 225.65 116.772 226.112 116.42 226.728C116.083 227.329 115.914 228.048 115.914 228.884C115.914 229.72 116.083 230.453 116.42 231.084C116.772 231.715 117.227 232.199 117.784 232.536C118.356 232.859 118.958 233.02 119.588 233.02C120.234 233.02 120.835 232.859 121.392 232.536C121.95 232.213 122.397 231.744 122.734 231.128C123.086 230.497 123.262 229.764 123.262 228.928ZM132.013 224.924V231.634C132.013 232.089 132.115 232.419 132.321 232.624C132.541 232.815 132.907 232.91 133.421 232.91H134.961V235H132.981C131.851 235 130.986 234.736 130.385 234.208C129.783 233.68 129.483 232.822 129.483 231.634V224.924H128.053V222.878H129.483V219.864H132.013V222.878H134.961V224.924H132.013ZM148.382 228.642C148.382 229.097 148.353 229.507 148.294 229.874H139.032C139.105 230.842 139.465 231.619 140.11 232.206C140.755 232.793 141.547 233.086 142.486 233.086C143.835 233.086 144.789 232.521 145.346 231.392H148.052C147.685 232.507 147.018 233.423 146.05 234.142C145.097 234.846 143.909 235.198 142.486 235.198C141.327 235.198 140.286 234.941 139.362 234.428C138.453 233.9 137.734 233.167 137.206 232.228C136.693 231.275 136.436 230.175 136.436 228.928C136.436 227.681 136.685 226.589 137.184 225.65C137.697 224.697 138.409 223.963 139.318 223.45C140.242 222.937 141.298 222.68 142.486 222.68C143.63 222.68 144.649 222.929 145.544 223.428C146.439 223.927 147.135 224.631 147.634 225.54C148.133 226.435 148.382 227.469 148.382 228.642ZM145.764 227.85C145.749 226.926 145.419 226.185 144.774 225.628C144.129 225.071 143.329 224.792 142.376 224.792C141.511 224.792 140.77 225.071 140.154 225.628C139.538 226.171 139.171 226.911 139.054 227.85H145.764ZM156.966 222.68C157.92 222.68 158.77 222.878 159.518 223.274C160.281 223.67 160.875 224.257 161.3 225.034C161.726 225.811 161.938 226.75 161.938 227.85V235H159.452V228.224C159.452 227.139 159.181 226.31 158.638 225.738C158.096 225.151 157.355 224.858 156.416 224.858C155.478 224.858 154.73 225.151 154.172 225.738C153.63 226.31 153.358 227.139 153.358 228.224V235H150.85V222.878H153.358V224.264C153.769 223.765 154.29 223.377 154.92 223.098C155.566 222.819 156.248 222.68 156.966 222.68ZM170.241 233.086C171.693 233.086 172.654 232.448 173.123 231.172H175.829C175.507 232.287 174.927 233.203 174.091 233.922C173.27 234.626 172.236 235.037 170.989 235.154V236.056C171.84 236.056 172.529 236.254 173.057 236.65C173.585 237.061 173.849 237.633 173.849 238.366C173.849 239.099 173.585 239.679 173.057 240.104C172.529 240.544 171.862 240.764 171.055 240.764H168.151V239.18H170.549C170.96 239.18 171.268 239.121 171.473 239.004C171.679 238.887 171.781 238.674 171.781 238.366C171.781 238.058 171.679 237.845 171.473 237.728C171.268 237.611 170.96 237.552 170.549 237.552H169.339V235.132C168.342 235.015 167.462 234.685 166.699 234.142C165.937 233.585 165.343 232.866 164.917 231.986C164.507 231.091 164.301 230.072 164.301 228.928C164.301 227.681 164.551 226.589 165.049 225.65C165.563 224.697 166.267 223.963 167.161 223.45C168.056 222.937 169.083 222.68 170.241 222.68C171.708 222.68 172.918 223.032 173.871 223.736C174.839 224.425 175.492 225.415 175.829 226.706H173.123C172.903 226.105 172.551 225.635 172.067 225.298C171.583 224.961 170.975 224.792 170.241 224.792C169.215 224.792 168.393 225.159 167.777 225.892C167.176 226.611 166.875 227.623 166.875 228.928C166.875 230.233 167.176 231.253 167.777 231.986C168.393 232.719 169.215 233.086 170.241 233.086ZM177.493 228.884C177.493 227.667 177.742 226.589 178.241 225.65C178.754 224.711 179.443 223.985 180.309 223.472C181.189 222.944 182.157 222.68 183.213 222.68C184.166 222.68 184.995 222.871 185.699 223.252C186.417 223.619 186.989 224.081 187.415 224.638V222.878H189.945V235H187.415V233.196C186.989 233.768 186.41 234.245 185.677 234.626C184.943 235.007 184.107 235.198 183.169 235.198C182.127 235.198 181.174 234.934 180.309 234.406C179.443 233.863 178.754 233.115 178.241 232.162C177.742 231.194 177.493 230.101 177.493 228.884ZM187.415 228.928C187.415 228.092 187.239 227.366 186.887 226.75C186.549 226.134 186.102 225.665 185.545 225.342C184.987 225.019 184.386 224.858 183.741 224.858C183.095 224.858 182.494 225.019 181.937 225.342C181.379 225.65 180.925 226.112 180.573 226.728C180.235 227.329 180.067 228.048 180.067 228.884C180.067 229.72 180.235 230.453 180.573 231.084C180.925 231.715 181.379 232.199 181.937 232.536C182.509 232.859 183.11 233.02 183.741 233.02C184.386 233.02 184.987 232.859 185.545 232.536C186.102 232.213 186.549 231.744 186.887 231.128C187.239 230.497 187.415 229.764 187.415 228.928ZM180.551 221.624C180.668 220.773 180.947 220.135 181.387 219.71C181.827 219.27 182.377 219.05 183.037 219.05C183.315 219.05 183.557 219.094 183.763 219.182C183.968 219.27 184.217 219.402 184.511 219.578C184.731 219.725 184.914 219.835 185.061 219.908C185.222 219.981 185.398 220.018 185.589 220.018C185.838 220.018 186.043 219.945 186.205 219.798C186.381 219.637 186.491 219.402 186.535 219.094H187.943C187.825 219.945 187.547 220.59 187.107 221.03C186.667 221.455 186.117 221.668 185.457 221.668C185.178 221.668 184.929 221.624 184.709 221.536C184.489 221.433 184.247 221.294 183.983 221.118C183.719 220.957 183.513 220.847 183.367 220.788C183.235 220.715 183.081 220.678 182.905 220.678C182.655 220.678 182.443 220.759 182.267 220.92C182.105 221.081 182.003 221.316 181.959 221.624H180.551ZM198.497 235.198C197.353 235.198 196.319 234.941 195.395 234.428C194.471 233.9 193.745 233.167 193.217 232.228C192.689 231.275 192.425 230.175 192.425 228.928C192.425 227.696 192.696 226.603 193.239 225.65C193.782 224.697 194.522 223.963 195.461 223.45C196.4 222.937 197.448 222.68 198.607 222.68C199.766 222.68 200.814 222.937 201.753 223.45C202.692 223.963 203.432 224.697 203.975 225.65C204.518 226.603 204.789 227.696 204.789 228.928C204.789 230.16 204.51 231.253 203.953 232.206C203.396 233.159 202.633 233.9 201.665 234.428C200.712 234.941 199.656 235.198 198.497 235.198ZM198.497 233.02C199.142 233.02 199.744 232.866 200.301 232.558C200.873 232.25 201.335 231.788 201.687 231.172C202.039 230.556 202.215 229.808 202.215 228.928C202.215 228.048 202.046 227.307 201.709 226.706C201.372 226.09 200.924 225.628 200.367 225.32C199.81 225.012 199.208 224.858 198.563 224.858C197.918 224.858 197.316 225.012 196.759 225.32C196.216 225.628 195.784 226.09 195.461 226.706C195.138 227.307 194.977 228.048 194.977 228.928C194.977 230.233 195.307 231.245 195.967 231.964C196.642 232.668 197.485 233.02 198.497 233.02ZM224.093 228.642C224.093 229.097 224.064 229.507 224.005 229.874H214.743C214.816 230.842 215.176 231.619 215.821 232.206C216.466 232.793 217.258 233.086 218.197 233.086C219.546 233.086 220.5 232.521 221.057 231.392H223.763C223.396 232.507 222.729 233.423 221.761 234.142C220.808 234.846 219.62 235.198 218.197 235.198C217.038 235.198 215.997 234.941 215.073 234.428C214.164 233.9 213.445 233.167 212.917 232.228C212.404 231.275 212.147 230.175 212.147 228.928C212.147 227.681 212.396 226.589 212.895 225.65C213.408 224.697 214.12 223.963 215.029 223.45C215.953 222.937 217.009 222.68 218.197 222.68C219.341 222.68 220.36 222.929 221.255 223.428C222.15 223.927 222.846 224.631 223.345 225.54C223.844 226.435 224.093 227.469 224.093 228.642ZM221.475 227.85C221.46 226.926 221.13 226.185 220.485 225.628C219.84 225.071 219.04 224.792 218.087 224.792C217.222 224.792 216.481 225.071 215.865 225.628C215.249 226.171 214.882 226.911 214.765 227.85H221.475ZM78.6861 261.928C78.6861 260.681 78.9354 259.589 79.4341 258.65C79.9474 257.697 80.6514 256.963 81.5461 256.45C82.4407 255.937 83.4674 255.68 84.6261 255.68C86.0927 255.68 87.3027 256.032 88.2561 256.736C89.2241 257.425 89.8767 258.415 90.2141 259.706H87.5081C87.2881 259.105 86.9361 258.635 86.4521 258.298C85.9681 257.961 85.3594 257.792 84.6261 257.792C83.5994 257.792 82.7781 258.159 82.1621 258.892C81.5607 259.611 81.2601 260.623 81.2601 261.928C81.2601 263.233 81.5607 264.253 82.1621 264.986C82.7781 265.719 83.5994 266.086 84.6261 266.086C86.0781 266.086 87.0387 265.448 87.5081 264.172H90.2141C89.8621 265.404 89.2021 266.387 88.2341 267.12C87.2661 267.839 86.0634 268.198 84.6261 268.198C83.4674 268.198 82.4407 267.941 81.5461 267.428C80.6514 266.9 79.9474 266.167 79.4341 265.228C78.9354 264.275 78.6861 263.175 78.6861 261.928ZM91.8775 261.884C91.8775 260.667 92.1268 259.589 92.6255 258.65C93.1388 257.711 93.8281 256.985 94.6935 256.472C95.5735 255.944 96.5415 255.68 97.5975 255.68C98.5508 255.68 99.3795 255.871 100.083 256.252C100.802 256.619 101.374 257.081 101.799 257.638V255.878H104.329V268H101.799V266.196C101.374 266.768 100.795 267.245 100.061 267.626C99.3281 268.007 98.4921 268.198 97.5535 268.198C96.5121 268.198 95.5588 267.934 94.6935 267.406C93.8281 266.863 93.1388 266.115 92.6255 265.162C92.1268 264.194 91.8775 263.101 91.8775 261.884ZM101.799 261.928C101.799 261.092 101.623 260.366 101.271 259.75C100.934 259.134 100.487 258.665 99.9295 258.342C99.3721 258.019 98.7708 257.858 98.1255 257.858C97.4801 257.858 96.8788 258.019 96.3215 258.342C95.7641 258.65 95.3095 259.112 94.9575 259.728C94.6201 260.329 94.4515 261.048 94.4515 261.884C94.4515 262.72 94.6201 263.453 94.9575 264.084C95.3095 264.715 95.7641 265.199 96.3215 265.536C96.8935 265.859 97.4948 266.02 98.1255 266.02C98.7708 266.02 99.3721 265.859 99.9295 265.536C100.487 265.213 100.934 264.744 101.271 264.128C101.623 263.497 101.799 262.764 101.799 261.928ZM110.132 257.638C110.498 257.022 110.982 256.545 111.584 256.208C112.2 255.856 112.926 255.68 113.762 255.68V258.276H113.124C112.141 258.276 111.393 258.525 110.88 259.024C110.381 259.523 110.132 260.388 110.132 261.62V268H107.624V255.878H110.132V257.638ZM117.343 254.272C116.888 254.272 116.507 254.118 116.199 253.81C115.891 253.502 115.737 253.121 115.737 252.666C115.737 252.211 115.891 251.83 116.199 251.522C116.507 251.214 116.888 251.06 117.343 251.06C117.783 251.06 118.157 251.214 118.465 251.522C118.773 251.83 118.927 252.211 118.927 252.666C118.927 253.121 118.773 253.502 118.465 253.81C118.157 254.118 117.783 254.272 117.343 254.272ZM118.575 255.878V268H116.067V255.878H118.575ZM127.984 255.68C128.937 255.68 129.788 255.878 130.536 256.274C131.298 256.67 131.892 257.257 132.318 258.034C132.743 258.811 132.956 259.75 132.956 260.85V268H130.47V261.224C130.47 260.139 130.198 259.31 129.656 258.738C129.113 258.151 128.372 257.858 127.434 257.858C126.495 257.858 125.747 258.151 125.19 258.738C124.647 259.31 124.376 260.139 124.376 261.224V268H121.868V255.878H124.376V257.264C124.786 256.765 125.307 256.377 125.938 256.098C126.583 255.819 127.265 255.68 127.984 255.68ZM142.425 255.68C143.349 255.68 144.17 255.878 144.889 256.274C145.622 256.67 146.194 257.257 146.605 258.034C147.03 258.811 147.243 259.75 147.243 260.85V268H144.757V261.224C144.757 260.139 144.486 259.31 143.943 258.738C143.4 258.151 142.66 257.858 141.721 257.858C140.782 257.858 140.034 258.151 139.477 258.738C138.934 259.31 138.663 260.139 138.663 261.224V268H136.155V251.72H138.663V257.286C139.088 256.773 139.624 256.377 140.269 256.098C140.929 255.819 141.648 255.68 142.425 255.68ZM155.7 268.198C154.556 268.198 153.522 267.941 152.598 267.428C151.674 266.9 150.948 266.167 150.42 265.228C149.892 264.275 149.628 263.175 149.628 261.928C149.628 260.696 149.899 259.603 150.442 258.65C150.985 257.697 151.725 256.963 152.664 256.45C153.603 255.937 154.651 255.68 155.81 255.68C156.969 255.68 158.017 255.937 158.956 256.45C159.895 256.963 160.635 257.697 161.178 258.65C161.721 259.603 161.992 260.696 161.992 261.928C161.992 263.16 161.713 264.253 161.156 265.206C160.599 266.159 159.836 266.9 158.868 267.428C157.915 267.941 156.859 268.198 155.7 268.198ZM155.7 266.02C156.345 266.02 156.947 265.866 157.504 265.558C158.076 265.25 158.538 264.788 158.89 264.172C159.242 263.556 159.418 262.808 159.418 261.928C159.418 261.048 159.249 260.307 158.912 259.706C158.575 259.09 158.127 258.628 157.57 258.32C157.013 258.012 156.411 257.858 155.766 257.858C155.121 257.858 154.519 258.012 153.962 258.32C153.419 258.628 152.987 259.09 152.664 259.706C152.341 260.307 152.18 261.048 152.18 261.928C152.18 263.233 152.51 264.245 153.17 264.964C153.845 265.668 154.688 266.02 155.7 266.02ZM165.483 268.154C165.029 268.154 164.647 268 164.339 267.692C164.031 267.384 163.877 267.003 163.877 266.548C163.877 266.093 164.031 265.712 164.339 265.404C164.647 265.096 165.029 264.942 165.483 264.942C165.923 264.942 166.297 265.096 166.605 265.404C166.913 265.712 167.067 266.093 167.067 266.548C167.067 267.003 166.913 267.384 166.605 267.692C166.297 268 165.923 268.154 165.483 268.154Z" fill="#EF835A"/>
</svg>
