<svg width="193" height="197" viewBox="0 0 193 197" fill="none" xmlns="http://www.w3.org/2000/svg">
<g clip-path="url(#clip0_264_13)">
<path d="M192.195 67.3473C192.195 57.9647 185.919 48.048 177.773 44.2415C177.773 44.2081 177.773 44.1414 177.773 44.108C179.142 30.3514 178.107 20.4346 161.481 12.7883C153.536 9.11542 143.22 9.64966 136.209 13.6898C131.502 5.14203 122.288 0 108.433 0C87.3675 0 63.798 24.0073 63.4975 41.8375L1.13508 84.7434L0 197L114.843 139.269C121.119 140.204 128.464 140.438 136.276 140.438C159.044 140.438 174.969 127.616 177.506 112.29C178.608 105.746 178.741 97.5317 176.771 90.2861C185.184 86.3795 192.195 76.5963 192.195 67.3139V67.3473Z" fill="#CED0D0"/>
<path d="M130.057 95.9072C138.258 87.7053 136.704 72.8536 126.587 62.7349C116.47 52.6162 101.62 51.0623 93.4197 59.2642C85.2191 67.4661 86.7728 82.3178 96.8899 92.4365C107.007 102.555 121.856 104.109 130.057 95.9072Z" fill="#7A7A79"/>
<path d="M106.33 43.0396C111.751 43.0396 116.145 38.4651 116.145 32.8223C116.145 27.1794 111.751 22.605 106.33 22.605C100.909 22.605 96.5149 27.1794 96.5149 32.8223C96.5149 38.4651 100.909 43.0396 106.33 43.0396Z" fill="#7A7A79"/>
<path d="M141.25 55.2601C146.966 55.2601 151.599 50.4465 151.599 44.5086C151.599 38.5707 146.966 33.7571 141.25 33.7571C135.535 33.7571 130.901 38.5707 130.901 44.5086C130.901 50.4465 135.535 55.2601 141.25 55.2601Z" fill="#7A7A79"/>
<path d="M158.343 81.4378C164.225 81.4378 168.993 76.8035 168.993 71.0869C168.993 65.3703 164.225 60.7361 158.343 60.7361C152.462 60.7361 147.693 65.3703 147.693 71.0869C147.693 76.8035 152.462 81.4378 158.343 81.4378Z" fill="#7A7A79"/>
<path d="M147.827 117.532C154.188 117.532 159.345 112.659 159.345 106.647C159.345 100.635 154.188 95.762 147.827 95.762C141.466 95.762 136.309 100.635 136.309 106.647C136.309 112.659 141.466 117.532 147.827 117.532Z" fill="#7A7A79"/>
</g>
<defs>
<clipPath id="clip0_264_13">
<rect width="192.195" height="197" fill="white"/>
</clipPath>
</defs>
</svg>
