<svg width="595" height="266" viewBox="0 0 595 266" fill="none" xmlns="http://www.w3.org/2000/svg">
<path d="M161.96 42.9918C420.529 -47.5745 624.457 37.3687 646.247 96.4659C668.037 155.563 661.556 165.306 647.592 207.042C598.101 354.96 329.051 127.564 164.026 212.922C-0.998118 298.279 -96.6088 133.558 161.96 42.9918Z" fill="#EF835A"/>
<path d="M105.228 117.32C105.228 111.08 106.578 105.53 109.278 100.67C111.978 95.75 115.728 91.94 120.528 89.24C125.388 86.48 130.878 85.1 136.998 85.1C144.498 85.1 150.918 87.08 156.258 91.04C161.598 95 165.168 100.4 166.968 107.24H150.048C148.788 104.6 146.988 102.59 144.648 101.21C142.368 99.83 139.758 99.14 136.818 99.14C132.078 99.14 128.238 100.79 125.298 104.09C122.358 107.39 120.888 111.8 120.888 117.32C120.888 122.84 122.358 127.25 125.298 130.55C128.238 133.85 132.078 135.5 136.818 135.5C139.758 135.5 142.368 134.81 144.648 133.43C146.988 132.05 148.788 130.04 150.048 127.4H166.968C165.168 134.24 161.598 139.64 156.258 143.6C150.918 147.5 144.498 149.45 136.998 149.45C130.878 149.45 125.388 148.1 120.528 145.4C115.728 142.64 111.978 138.83 109.278 133.97C106.578 129.11 105.228 123.56 105.228 117.32ZM225.983 98.78V149H210.593V142.16C209.033 144.38 206.903 146.18 204.203 147.56C201.563 148.88 198.623 149.54 195.383 149.54C191.543 149.54 188.153 148.7 185.213 147.02C182.273 145.28 179.993 142.79 178.373 139.55C176.753 136.31 175.943 132.5 175.943 128.12V98.78H191.243V126.05C191.243 129.41 192.113 132.02 193.853 133.88C195.593 135.74 197.933 136.67 200.873 136.67C203.873 136.67 206.243 135.74 207.983 133.88C209.723 132.02 210.593 129.41 210.593 126.05V98.78H225.983ZM244.777 93.56C242.077 93.56 239.857 92.78 238.117 91.22C236.437 89.6 235.597 87.62 235.597 85.28C235.597 82.88 236.437 80.9 238.117 79.34C239.857 77.72 242.077 76.91 244.777 76.91C247.417 76.91 249.577 77.72 251.257 79.34C252.997 80.9 253.867 82.88 253.867 85.28C253.867 87.62 252.997 89.6 251.257 91.22C249.577 92.78 247.417 93.56 244.777 93.56ZM252.427 98.78V149H237.037V98.78H252.427ZM260.52 123.8C260.52 118.64 261.48 114.11 263.4 110.21C265.38 106.31 268.05 103.31 271.41 101.21C274.77 99.11 278.52 98.06 282.66 98.06C285.96 98.06 288.96 98.75 291.66 100.13C294.42 101.51 296.58 103.37 298.14 105.71V82.4H313.53V149H298.14V141.8C296.7 144.2 294.63 146.12 291.93 147.56C289.29 149 286.2 149.72 282.66 149.72C278.52 149.72 274.77 148.67 271.41 146.57C268.05 144.41 265.38 141.38 263.4 137.48C261.48 133.52 260.52 128.96 260.52 123.8ZM298.14 123.89C298.14 120.05 297.06 117.02 294.9 114.8C292.8 112.58 290.22 111.47 287.16 111.47C284.1 111.47 281.49 112.58 279.33 114.8C277.23 116.96 276.18 119.96 276.18 123.8C276.18 127.64 277.23 130.7 279.33 132.98C281.49 135.2 284.1 136.31 287.16 136.31C290.22 136.31 292.8 135.2 294.9 132.98C297.06 130.76 298.14 127.73 298.14 123.89ZM321.604 123.8C321.604 118.64 322.564 114.11 324.484 110.21C326.464 106.31 329.134 103.31 332.494 101.21C335.854 99.11 339.604 98.06 343.744 98.06C347.284 98.06 350.374 98.78 353.014 100.22C355.714 101.66 357.784 103.55 359.224 105.89V98.78H374.614V149H359.224V141.89C357.724 144.23 355.624 146.12 352.924 147.56C350.284 149 347.194 149.72 343.654 149.72C339.574 149.72 335.854 148.67 332.494 146.57C329.134 144.41 326.464 141.38 324.484 137.48C322.564 133.52 321.604 128.96 321.604 123.8ZM359.224 123.89C359.224 120.05 358.144 117.02 355.984 114.8C353.884 112.58 351.304 111.47 348.244 111.47C345.184 111.47 342.574 112.58 340.414 114.8C338.314 116.96 337.264 119.96 337.264 123.8C337.264 127.64 338.314 130.7 340.414 132.98C342.574 135.2 345.184 136.31 348.244 136.31C351.304 136.31 353.884 135.2 355.984 132.98C358.144 130.76 359.224 127.73 359.224 123.89ZM382.688 123.8C382.688 118.64 383.648 114.11 385.568 110.21C387.548 106.31 390.218 103.31 393.578 101.21C396.938 99.11 400.688 98.06 404.828 98.06C408.128 98.06 411.128 98.75 413.828 100.13C416.588 101.51 418.748 103.37 420.308 105.71V82.4H435.698V149H420.308V141.8C418.868 144.2 416.798 146.12 414.098 147.56C411.458 149 408.368 149.72 404.828 149.72C400.688 149.72 396.938 148.67 393.578 146.57C390.218 144.41 387.548 141.38 385.568 137.48C383.648 133.52 382.688 128.96 382.688 123.8ZM420.308 123.89C420.308 120.05 419.228 117.02 417.068 114.8C414.968 112.58 412.388 111.47 409.328 111.47C406.268 111.47 403.658 112.58 401.498 114.8C399.398 116.96 398.348 119.96 398.348 123.8C398.348 127.64 399.398 130.7 401.498 132.98C403.658 135.2 406.268 136.31 409.328 136.31C412.388 136.31 414.968 135.2 417.068 132.98C419.228 130.76 420.308 127.73 420.308 123.89ZM469.692 149.72C464.772 149.72 460.332 148.67 456.372 146.57C452.472 144.47 449.382 141.47 447.102 137.57C444.882 133.67 443.772 129.11 443.772 123.89C443.772 118.73 444.912 114.2 447.192 110.3C449.472 106.34 452.592 103.31 456.552 101.21C460.512 99.11 464.952 98.06 469.872 98.06C474.792 98.06 479.232 99.11 483.192 101.21C487.152 103.31 490.272 106.34 492.552 110.3C494.832 114.2 495.972 118.73 495.972 123.89C495.972 129.05 494.802 133.61 492.462 137.57C490.182 141.47 487.032 144.47 483.012 146.57C479.052 148.67 474.612 149.72 469.692 149.72ZM469.692 136.4C472.632 136.4 475.122 135.32 477.162 133.16C479.262 131 480.312 127.91 480.312 123.89C480.312 119.87 479.292 116.78 477.252 114.62C475.272 112.46 472.812 111.38 469.872 111.38C466.872 111.38 464.382 112.46 462.402 114.62C460.422 116.72 459.432 119.81 459.432 123.89C459.432 127.91 460.392 131 462.312 133.16C464.292 135.32 466.752 136.4 469.692 136.4ZM524.567 149.72C520.187 149.72 516.287 148.97 512.867 147.47C509.447 145.97 506.747 143.93 504.767 141.35C502.787 138.71 501.677 135.77 501.437 132.53H516.647C516.827 134.27 517.637 135.68 519.077 136.76C520.517 137.84 522.287 138.38 524.387 138.38C526.307 138.38 527.777 138.02 528.797 137.3C529.877 136.52 530.417 135.53 530.417 134.33C530.417 132.89 529.667 131.84 528.167 131.18C526.667 130.46 524.237 129.68 520.877 128.84C517.277 128 514.277 127.13 511.877 126.23C509.477 125.27 507.407 123.8 505.667 121.82C503.927 119.78 503.057 117.05 503.057 113.63C503.057 110.75 503.837 108.14 505.397 105.8C507.017 103.4 509.357 101.51 512.417 100.13C515.537 98.75 519.227 98.06 523.487 98.06C529.787 98.06 534.737 99.62 538.337 102.74C541.997 105.86 544.097 110 544.637 115.16H530.417C530.177 113.42 529.397 112.04 528.077 111.02C526.817 110 525.137 109.49 523.037 109.49C521.237 109.49 519.857 109.85 518.897 110.57C517.937 111.23 517.457 112.16 517.457 113.36C517.457 114.8 518.207 115.88 519.707 116.6C521.267 117.32 523.667 118.04 526.907 118.76C530.627 119.72 533.657 120.68 535.997 121.64C538.337 122.54 540.377 124.04 542.117 126.14C543.917 128.18 544.847 130.94 544.907 134.42C544.907 137.36 544.067 140 542.387 142.34C540.767 144.62 538.397 146.42 535.277 147.74C532.217 149.06 528.647 149.72 524.567 149.72Z" fill="#FFEBEB"/>
</svg>
