<svg width="450" height="456" viewBox="0 0 450 456" fill="none" xmlns="http://www.w3.org/2000/svg">
<rect width="450" height="456" fill="#F8A98A"/>
<path d="M117.726 181.78H110.726L109.662 185H103.894L111.09 165.26H117.418L124.586 185H118.79L117.726 181.78ZM116.354 177.58L114.226 171.196L112.126 177.58H116.354ZM125.479 177.132C125.479 175.508 125.768 174.089 126.347 172.876C126.944 171.663 127.756 170.729 128.783 170.076C129.809 169.423 130.948 169.096 132.199 169.096C133.207 169.096 134.103 169.311 134.887 169.74C135.689 170.151 136.315 170.72 136.763 171.448V164.28H142.279V185H136.763V182.816C136.333 183.544 135.727 184.123 134.943 184.552C134.159 184.981 133.235 185.196 132.171 185.196C130.92 185.196 129.781 184.869 128.755 184.216C127.747 183.563 126.944 182.629 126.347 181.416C125.768 180.184 125.479 178.756 125.479 177.132ZM136.791 177.132C136.791 176.124 136.511 175.331 135.951 174.752C135.409 174.173 134.737 173.884 133.935 173.884C133.113 173.884 132.432 174.173 131.891 174.752C131.349 175.312 131.079 176.105 131.079 177.132C131.079 178.14 131.349 178.943 131.891 179.54C132.432 180.119 133.113 180.408 133.935 180.408C134.737 180.408 135.409 180.119 135.951 179.54C136.511 178.961 136.791 178.159 136.791 177.132ZM160.414 176.964C160.414 177.393 160.386 177.823 160.33 178.252H149.942C149.998 179.111 150.231 179.755 150.642 180.184C151.071 180.595 151.613 180.8 152.266 180.8C153.181 180.8 153.834 180.389 154.226 179.568H160.078C159.835 180.651 159.359 181.621 158.65 182.48C157.959 183.32 157.082 183.983 156.018 184.468C154.954 184.953 153.778 185.196 152.49 185.196C150.941 185.196 149.559 184.869 148.346 184.216C147.151 183.563 146.209 182.629 145.518 181.416C144.846 180.203 144.51 178.775 144.51 177.132C144.51 175.489 144.846 174.071 145.518 172.876C146.19 171.663 147.123 170.729 148.318 170.076C149.531 169.423 150.922 169.096 152.49 169.096C154.039 169.096 155.411 169.413 156.606 170.048C157.801 170.683 158.734 171.597 159.406 172.792C160.078 173.968 160.414 175.359 160.414 176.964ZM154.814 175.592C154.814 174.92 154.59 174.397 154.142 174.024C153.694 173.632 153.134 173.436 152.462 173.436C151.79 173.436 151.239 173.623 150.81 173.996C150.381 174.351 150.101 174.883 149.97 175.592H154.814ZM169.352 185.196C167.933 185.196 166.664 184.963 165.544 184.496C164.442 184.011 163.565 183.357 162.912 182.536C162.277 181.696 161.922 180.753 161.848 179.708H167.168C167.242 180.212 167.476 180.604 167.868 180.884C168.26 181.164 168.745 181.304 169.324 181.304C169.772 181.304 170.126 181.211 170.388 181.024C170.649 180.837 170.78 180.595 170.78 180.296C170.78 179.904 170.565 179.615 170.136 179.428C169.706 179.241 168.997 179.036 168.008 178.812C166.888 178.588 165.954 178.336 165.208 178.056C164.461 177.776 163.808 177.319 163.248 176.684C162.706 176.049 162.436 175.191 162.436 174.108C162.436 173.175 162.688 172.335 163.192 171.588C163.696 170.823 164.433 170.216 165.404 169.768C166.393 169.32 167.578 169.096 168.96 169.096C171.013 169.096 172.628 169.6 173.804 170.608C174.98 171.616 175.661 172.941 175.848 174.584H170.892C170.798 174.08 170.574 173.697 170.22 173.436C169.884 173.156 169.426 173.016 168.848 173.016C168.4 173.016 168.054 173.1 167.812 173.268C167.588 173.436 167.476 173.669 167.476 173.968C167.476 174.341 167.69 174.631 168.12 174.836C168.549 175.023 169.24 175.219 170.192 175.424C171.33 175.667 172.273 175.937 173.02 176.236C173.785 176.535 174.448 177.02 175.008 177.692C175.586 178.345 175.876 179.241 175.876 180.38C175.876 181.295 175.605 182.116 175.064 182.844C174.541 183.572 173.785 184.151 172.796 184.58C171.825 184.991 170.677 185.196 169.352 185.196ZM187.842 180.324V185H185.462C181.449 185 179.442 183.012 179.442 179.036V173.856H177.51V169.292H179.442V165.484H184.958V169.292H187.814V173.856H184.958V179.12C184.958 179.549 185.051 179.857 185.238 180.044C185.443 180.231 185.779 180.324 186.246 180.324H187.842ZM195.847 172.064C196.463 171.168 197.21 170.459 198.087 169.936C198.964 169.413 199.907 169.152 200.915 169.152V175.004H199.375C198.18 175.004 197.294 175.237 196.715 175.704C196.136 176.171 195.847 176.983 195.847 178.14V185H190.359V169.292H195.847V172.064ZM217.89 176.964C217.89 177.393 217.862 177.823 217.806 178.252H207.418C207.474 179.111 207.708 179.755 208.118 180.184C208.548 180.595 209.089 180.8 209.742 180.8C210.657 180.8 211.31 180.389 211.702 179.568H217.554C217.312 180.651 216.836 181.621 216.126 182.48C215.436 183.32 214.558 183.983 213.494 184.468C212.43 184.953 211.254 185.196 209.966 185.196C208.417 185.196 207.036 184.869 205.822 184.216C204.628 183.563 203.685 182.629 202.994 181.416C202.322 180.203 201.986 178.775 201.986 177.132C201.986 175.489 202.322 174.071 202.994 172.876C203.666 171.663 204.6 170.729 205.794 170.076C207.008 169.423 208.398 169.096 209.966 169.096C211.516 169.096 212.888 169.413 214.082 170.048C215.277 170.683 216.21 171.597 216.882 172.792C217.554 173.968 217.89 175.359 217.89 176.964ZM212.29 175.592C212.29 174.92 212.066 174.397 211.618 174.024C211.17 173.632 210.61 173.436 209.938 173.436C209.266 173.436 208.716 173.623 208.286 173.996C207.857 174.351 207.577 174.883 207.446 175.592H212.29ZM232.188 185.196C230.769 185.196 229.5 184.963 228.38 184.496C227.278 184.011 226.401 183.357 225.748 182.536C225.113 181.696 224.758 180.753 224.684 179.708H230.004C230.078 180.212 230.312 180.604 230.704 180.884C231.096 181.164 231.581 181.304 232.16 181.304C232.608 181.304 232.962 181.211 233.224 181.024C233.485 180.837 233.616 180.595 233.616 180.296C233.616 179.904 233.401 179.615 232.972 179.428C232.542 179.241 231.833 179.036 230.844 178.812C229.724 178.588 228.79 178.336 228.044 178.056C227.297 177.776 226.644 177.319 226.084 176.684C225.542 176.049 225.272 175.191 225.272 174.108C225.272 173.175 225.524 172.335 226.028 171.588C226.532 170.823 227.269 170.216 228.24 169.768C229.229 169.32 230.414 169.096 231.796 169.096C233.849 169.096 235.464 169.6 236.64 170.608C237.816 171.616 238.497 172.941 238.684 174.584H233.728C233.634 174.08 233.41 173.697 233.056 173.436C232.72 173.156 232.262 173.016 231.684 173.016C231.236 173.016 230.89 173.1 230.648 173.268C230.424 173.436 230.312 173.669 230.312 173.968C230.312 174.341 230.526 174.631 230.956 174.836C231.385 175.023 232.076 175.219 233.028 175.424C234.166 175.667 235.109 175.937 235.856 176.236C236.621 176.535 237.284 177.02 237.844 177.692C238.422 178.345 238.712 179.241 238.712 180.38C238.712 181.295 238.441 182.116 237.9 182.844C237.377 183.572 236.621 184.151 235.632 184.58C234.661 184.991 233.513 185.196 232.188 185.196ZM256.418 176.964C256.418 177.393 256.39 177.823 256.334 178.252H245.946C246.002 179.111 246.235 179.755 246.646 180.184C247.075 180.595 247.616 180.8 248.27 180.8C249.184 180.8 249.838 180.389 250.23 179.568H256.082C255.839 180.651 255.363 181.621 254.654 182.48C253.963 183.32 253.086 183.983 252.022 184.468C250.958 184.953 249.782 185.196 248.494 185.196C246.944 185.196 245.563 184.869 244.35 184.216C243.155 183.563 242.212 182.629 241.522 181.416C240.85 180.203 240.514 178.775 240.514 177.132C240.514 175.489 240.85 174.071 241.522 172.876C242.194 171.663 243.127 170.729 244.322 170.076C245.535 169.423 246.926 169.096 248.494 169.096C250.043 169.096 251.415 169.413 252.61 170.048C253.804 170.683 254.738 171.597 255.41 172.792C256.082 173.968 256.418 175.359 256.418 176.964ZM250.818 175.592C250.818 174.92 250.594 174.397 250.146 174.024C249.698 173.632 249.138 173.436 248.466 173.436C247.794 173.436 247.243 173.623 246.814 173.996C246.384 174.351 246.104 174.883 245.974 175.592H250.818ZM274.736 169.292V185H269.22V182.76C268.753 183.469 268.109 184.048 267.288 184.496C266.466 184.925 265.524 185.14 264.46 185.14C262.63 185.14 261.184 184.543 260.12 183.348C259.074 182.135 258.552 180.492 258.552 178.42V169.292H264.012V177.72C264.012 178.616 264.245 179.325 264.712 179.848C265.197 180.352 265.832 180.604 266.616 180.604C267.418 180.604 268.053 180.352 268.52 179.848C268.986 179.325 269.22 178.616 269.22 177.72V169.292H274.736ZM282.322 177.132C282.322 175.508 282.658 174.089 283.33 172.876C284.002 171.663 284.936 170.729 286.13 170.076C287.344 169.423 288.725 169.096 290.274 169.096C292.272 169.096 293.952 169.647 295.314 170.748C296.677 171.831 297.554 173.352 297.946 175.312H292.122C291.786 174.285 291.133 173.772 290.162 173.772C289.472 173.772 288.921 174.061 288.51 174.64C288.118 175.2 287.922 176.031 287.922 177.132C287.922 178.233 288.118 179.073 288.51 179.652C288.921 180.231 289.472 180.52 290.162 180.52C291.152 180.52 291.805 180.007 292.122 178.98H297.946C297.554 180.921 296.677 182.443 295.314 183.544C293.952 184.645 292.272 185.196 290.274 185.196C288.725 185.196 287.344 184.869 286.13 184.216C284.936 183.563 284.002 182.629 283.33 181.416C282.658 180.203 282.322 178.775 282.322 177.132ZM299.33 177.132C299.33 175.508 299.62 174.089 300.198 172.876C300.796 171.663 301.598 170.729 302.606 170.076C303.633 169.423 304.772 169.096 306.022 169.096C307.105 169.096 308.038 169.311 308.822 169.74C309.606 170.169 310.213 170.748 310.642 171.476V169.292H316.13V185H310.642V182.816C310.213 183.544 309.597 184.123 308.794 184.552C308.01 184.981 307.086 185.196 306.022 185.196C304.772 185.196 303.633 184.869 302.606 184.216C301.598 183.563 300.796 182.629 300.198 181.416C299.62 180.184 299.33 178.756 299.33 177.132ZM310.642 177.132C310.642 176.124 310.362 175.331 309.802 174.752C309.261 174.173 308.589 173.884 307.786 173.884C306.965 173.884 306.284 174.173 305.742 174.752C305.201 175.312 304.93 176.105 304.93 177.132C304.93 178.14 305.201 178.943 305.742 179.54C306.284 180.119 306.965 180.408 307.786 180.408C308.589 180.408 309.261 180.119 309.802 179.54C310.362 178.961 310.642 178.159 310.642 177.132ZM302.214 168.116C302.737 165.073 304.137 163.552 306.414 163.552C306.844 163.552 307.226 163.617 307.562 163.748C307.917 163.879 308.318 164.065 308.766 164.308C309.084 164.476 309.354 164.607 309.578 164.7C309.802 164.793 310.026 164.84 310.25 164.84C310.941 164.84 311.352 164.411 311.482 163.552H314.254C313.993 165.139 313.498 166.296 312.77 167.024C312.061 167.733 311.156 168.088 310.054 168.088C309.644 168.088 309.27 168.032 308.934 167.92C308.598 167.789 308.188 167.603 307.702 167.36C307.385 167.192 307.114 167.061 306.89 166.968C306.666 166.875 306.442 166.828 306.218 166.828C305.546 166.828 305.126 167.257 304.958 168.116H302.214ZM326.565 185.196C324.997 185.196 323.588 184.869 322.337 184.216C321.105 183.563 320.135 182.629 319.425 181.416C318.716 180.203 318.361 178.775 318.361 177.132C318.361 175.508 318.716 174.089 319.425 172.876C320.153 171.663 321.133 170.729 322.365 170.076C323.616 169.423 325.025 169.096 326.593 169.096C328.161 169.096 329.561 169.423 330.793 170.076C332.044 170.729 333.024 171.663 333.733 172.876C334.461 174.089 334.825 175.508 334.825 177.132C334.825 178.756 334.461 180.184 333.733 181.416C333.024 182.629 332.044 183.563 330.793 184.216C329.543 184.869 328.133 185.196 326.565 185.196ZM326.565 180.436C327.331 180.436 327.965 180.156 328.469 179.596C328.992 179.017 329.253 178.196 329.253 177.132C329.253 176.068 328.992 175.256 328.469 174.696C327.965 174.136 327.34 173.856 326.593 173.856C325.847 173.856 325.221 174.136 324.717 174.696C324.213 175.256 323.961 176.068 323.961 177.132C323.961 178.215 324.204 179.036 324.689 179.596C325.175 180.156 325.8 180.436 326.565 180.436ZM344.394 164.252L343.75 177.608H339.074L338.43 164.252H344.394ZM341.426 185.224C340.456 185.224 339.672 184.963 339.074 184.44C338.496 183.899 338.206 183.217 338.206 182.396C338.206 181.575 338.496 180.893 339.074 180.352C339.672 179.811 340.456 179.54 341.426 179.54C342.378 179.54 343.144 179.811 343.722 180.352C344.32 180.893 344.618 181.575 344.618 182.396C344.618 183.199 344.32 183.871 343.722 184.412C343.144 184.953 342.378 185.224 341.426 185.224ZM102.427 212.624C102.427 210.992 102.803 209.528 103.555 208.232C104.323 206.936 105.355 205.928 106.651 205.208C107.963 204.472 109.395 204.104 110.947 204.104C112.723 204.104 114.299 204.544 115.675 205.424C117.067 206.288 118.075 207.52 118.699 209.12H115.411C114.979 208.24 114.379 207.584 113.611 207.152C112.843 206.72 111.955 206.504 110.947 206.504C109.843 206.504 108.859 206.752 107.995 207.248C107.131 207.744 106.451 208.456 105.955 209.384C105.475 210.312 105.235 211.392 105.235 212.624C105.235 213.856 105.475 214.936 105.955 215.864C106.451 216.792 107.131 217.512 107.995 218.024C108.859 218.52 109.843 218.768 110.947 218.768C111.955 218.768 112.843 218.552 113.611 218.12C114.379 217.688 114.979 217.032 115.411 216.152H118.699C118.075 217.752 117.067 218.984 115.675 219.848C114.299 220.712 112.723 221.144 110.947 221.144C109.379 221.144 107.947 220.784 106.651 220.064C105.355 219.328 104.323 218.312 103.555 217.016C102.803 215.72 102.427 214.256 102.427 212.624ZM120.99 214.328C120.99 213 121.262 211.824 121.806 210.8C122.366 209.776 123.118 208.984 124.062 208.424C125.022 207.848 126.078 207.56 127.23 207.56C128.27 207.56 129.174 207.768 129.942 208.184C130.726 208.584 131.35 209.088 131.814 209.696V207.776H134.574V221H131.814V219.032C131.35 219.656 130.718 220.176 129.918 220.592C129.118 221.008 128.206 221.216 127.182 221.216C126.046 221.216 125.006 220.928 124.062 220.352C123.118 219.76 122.366 218.944 121.806 217.904C121.262 216.848 120.99 215.656 120.99 214.328ZM131.814 214.376C131.814 213.464 131.622 212.672 131.238 212C130.87 211.328 130.382 210.816 129.774 210.464C129.166 210.112 128.51 209.936 127.806 209.936C127.102 209.936 126.446 210.112 125.838 210.464C125.23 210.8 124.734 211.304 124.35 211.976C123.982 212.632 123.798 213.416 123.798 214.328C123.798 215.24 123.982 216.04 124.35 216.728C124.734 217.416 125.23 217.944 125.838 218.312C126.462 218.664 127.118 218.84 127.806 218.84C128.51 218.84 129.166 218.664 129.774 218.312C130.382 217.96 130.87 217.448 131.238 216.776C131.622 216.088 131.814 215.288 131.814 214.376ZM137.255 214.376C137.255 213.016 137.527 211.824 138.071 210.8C138.631 209.76 139.399 208.96 140.375 208.4C141.351 207.84 142.471 207.56 143.735 207.56C145.335 207.56 146.655 207.944 147.695 208.712C148.751 209.464 149.463 210.544 149.831 211.952H146.879C146.639 211.296 146.255 210.784 145.727 210.416C145.199 210.048 144.535 209.864 143.735 209.864C142.615 209.864 141.719 210.264 141.047 211.064C140.391 211.848 140.063 212.952 140.063 214.376C140.063 215.8 140.391 216.912 141.047 217.712C141.719 218.512 142.615 218.912 143.735 218.912C145.319 218.912 146.367 218.216 146.879 216.824H149.831C149.447 218.168 148.727 219.24 147.671 220.04C146.615 220.824 145.303 221.216 143.735 221.216C142.471 221.216 141.351 220.936 140.375 220.376C139.399 219.8 138.631 219 138.071 217.976C137.527 216.936 137.255 215.736 137.255 214.376ZM159.398 207.56C160.406 207.56 161.302 207.776 162.086 208.208C162.886 208.64 163.51 209.28 163.958 210.128C164.422 210.976 164.654 212 164.654 213.2V221H161.942V213.608C161.942 212.424 161.646 211.52 161.054 210.896C160.462 210.256 159.654 209.936 158.63 209.936C157.606 209.936 156.79 210.256 156.182 210.896C155.59 211.52 155.294 212.424 155.294 213.608V221H152.558V203.24H155.294V209.312C155.758 208.752 156.342 208.32 157.046 208.016C157.766 207.712 158.55 207.56 159.398 207.56ZM173.88 221.216C172.632 221.216 171.504 220.936 170.496 220.376C169.488 219.8 168.696 219 168.12 217.976C167.544 216.936 167.256 215.736 167.256 214.376C167.256 213.032 167.552 211.84 168.144 210.8C168.736 209.76 169.544 208.96 170.568 208.4C171.592 207.84 172.736 207.56 174 207.56C175.264 207.56 176.408 207.84 177.432 208.4C178.456 208.96 179.264 209.76 179.856 210.8C180.448 211.84 180.744 213.032 180.744 214.376C180.744 215.72 180.44 216.912 179.832 217.952C179.224 218.992 178.392 219.8 177.336 220.376C176.296 220.936 175.144 221.216 173.88 221.216ZM173.88 218.84C174.584 218.84 175.24 218.672 175.848 218.336C176.472 218 176.976 217.496 177.36 216.824C177.744 216.152 177.936 215.336 177.936 214.376C177.936 213.416 177.752 212.608 177.384 211.952C177.016 211.28 176.528 210.776 175.92 210.44C175.312 210.104 174.656 209.936 173.952 209.936C173.248 209.936 172.592 210.104 171.984 210.44C171.392 210.776 170.92 211.28 170.568 211.952C170.216 212.608 170.04 213.416 170.04 214.376C170.04 215.8 170.4 216.904 171.12 217.688C171.856 218.456 172.776 218.84 173.88 218.84ZM186.184 209.696C186.584 209.024 187.112 208.504 187.768 208.136C188.44 207.752 189.232 207.56 190.144 207.56V210.392H189.448C188.376 210.392 187.56 210.664 187 211.208C186.456 211.752 186.184 212.696 186.184 214.04V221H183.448V207.776H186.184V209.696ZM195.395 209.696C195.795 209.024 196.323 208.504 196.979 208.136C197.651 207.752 198.443 207.56 199.355 207.56V210.392H198.659C197.587 210.392 196.771 210.664 196.211 211.208C195.667 211.752 195.395 212.696 195.395 214.04V221H192.659V207.776H195.395V209.696ZM207.606 221.216C206.358 221.216 205.23 220.936 204.222 220.376C203.214 219.8 202.422 219 201.846 217.976C201.27 216.936 200.982 215.736 200.982 214.376C200.982 213.032 201.278 211.84 201.87 210.8C202.462 209.76 203.27 208.96 204.294 208.4C205.318 207.84 206.462 207.56 207.726 207.56C208.99 207.56 210.134 207.84 211.158 208.4C212.182 208.96 212.99 209.76 213.582 210.8C214.174 211.84 214.47 213.032 214.47 214.376C214.47 215.72 214.166 216.912 213.558 217.952C212.95 218.992 212.118 219.8 211.062 220.376C210.022 220.936 208.87 221.216 207.606 221.216ZM207.606 218.84C208.31 218.84 208.966 218.672 209.574 218.336C210.198 218 210.702 217.496 211.086 216.824C211.47 216.152 211.662 215.336 211.662 214.376C211.662 213.416 211.478 212.608 211.11 211.952C210.742 211.28 210.254 210.776 209.646 210.44C209.038 210.104 208.382 209.936 207.678 209.936C206.974 209.936 206.318 210.104 205.71 210.44C205.118 210.776 204.646 211.28 204.294 211.952C203.942 212.608 203.766 213.416 203.766 214.376C203.766 215.8 204.126 216.904 204.846 217.688C205.582 218.456 206.502 218.84 207.606 218.84ZM221.975 221.216C220.935 221.216 219.999 221.032 219.167 220.664C218.351 220.28 217.703 219.768 217.223 219.128C216.743 218.472 216.487 217.744 216.455 216.944H219.287C219.335 217.504 219.599 217.976 220.079 218.36C220.575 218.728 221.191 218.912 221.927 218.912C222.695 218.912 223.287 218.768 223.703 218.48C224.135 218.176 224.351 217.792 224.351 217.328C224.351 216.832 224.111 216.464 223.631 216.224C223.167 215.984 222.423 215.72 221.399 215.432C220.407 215.16 219.599 214.896 218.975 214.64C218.351 214.384 217.807 213.992 217.343 213.464C216.895 212.936 216.671 212.24 216.671 211.376C216.671 210.672 216.879 210.032 217.295 209.456C217.711 208.864 218.303 208.4 219.071 208.064C219.855 207.728 220.751 207.56 221.759 207.56C223.263 207.56 224.471 207.944 225.383 208.712C226.311 209.464 226.807 210.496 226.871 211.808H224.135C224.087 211.216 223.847 210.744 223.415 210.392C222.983 210.04 222.399 209.864 221.663 209.864C220.943 209.864 220.391 210 220.007 210.272C219.623 210.544 219.431 210.904 219.431 211.352C219.431 211.704 219.559 212 219.815 212.24C220.071 212.48 220.383 212.672 220.751 212.816C221.119 212.944 221.663 213.112 222.383 213.32C223.343 213.576 224.127 213.84 224.735 214.112C225.359 214.368 225.895 214.752 226.343 215.264C226.791 215.776 227.023 216.456 227.039 217.304C227.039 218.056 226.831 218.728 226.415 219.32C225.999 219.912 225.407 220.376 224.639 220.712C223.887 221.048 222.999 221.216 221.975 221.216ZM238.966 209.72C239.43 209.112 240.062 208.6 240.862 208.184C241.662 207.768 242.566 207.56 243.574 207.56C244.726 207.56 245.774 207.848 246.718 208.424C247.678 208.984 248.43 209.776 248.974 210.8C249.518 211.824 249.79 213 249.79 214.328C249.79 215.656 249.518 216.848 248.974 217.904C248.43 218.944 247.678 219.76 246.718 220.352C245.774 220.928 244.726 221.216 243.574 221.216C242.566 221.216 241.67 221.016 240.886 220.616C240.102 220.2 239.462 219.688 238.966 219.08V227.288H236.23V207.776H238.966V209.72ZM247.006 214.328C247.006 213.416 246.814 212.632 246.43 211.976C246.062 211.304 245.566 210.8 244.942 210.464C244.334 210.112 243.678 209.936 242.974 209.936C242.286 209.936 241.63 210.112 241.006 210.464C240.398 210.816 239.902 211.328 239.518 212C239.15 212.672 238.966 213.464 238.966 214.376C238.966 215.288 239.15 216.088 239.518 216.776C239.902 217.448 240.398 217.96 241.006 218.312C241.63 218.664 242.286 218.84 242.974 218.84C243.678 218.84 244.334 218.664 244.942 218.312C245.566 217.944 246.062 217.416 246.43 216.728C246.814 216.04 247.006 215.24 247.006 214.328ZM255.231 209.696C255.631 209.024 256.159 208.504 256.815 208.136C257.487 207.752 258.279 207.56 259.191 207.56V210.392H258.495C257.423 210.392 256.607 210.664 256.047 211.208C255.503 211.752 255.231 212.696 255.231 214.04V221H252.495V207.776H255.231V209.696ZM273.826 214.064C273.826 214.56 273.794 215.008 273.73 215.408H263.626C263.706 216.464 264.098 217.312 264.802 217.952C265.506 218.592 266.37 218.912 267.394 218.912C268.866 218.912 269.906 218.296 270.514 217.064H273.466C273.066 218.28 272.338 219.28 271.282 220.064C270.242 220.832 268.946 221.216 267.394 221.216C266.13 221.216 264.994 220.936 263.986 220.376C262.994 219.8 262.21 219 261.634 217.976C261.074 216.936 260.794 215.736 260.794 214.376C260.794 213.016 261.066 211.824 261.61 210.8C262.17 209.76 262.946 208.96 263.938 208.4C264.946 207.84 266.098 207.56 267.394 207.56C268.642 207.56 269.754 207.832 270.73 208.376C271.706 208.92 272.466 209.688 273.01 210.68C273.554 211.656 273.826 212.784 273.826 214.064ZM270.97 213.2C270.954 212.192 270.594 211.384 269.89 210.776C269.186 210.168 268.314 209.864 267.274 209.864C266.33 209.864 265.522 210.168 264.85 210.776C264.178 211.368 263.778 212.176 263.65 213.2H270.97ZM275.607 214.376C275.607 213.016 275.879 211.824 276.423 210.8C276.983 209.76 277.751 208.96 278.727 208.4C279.703 207.84 280.823 207.56 282.087 207.56C283.687 207.56 285.007 207.944 286.047 208.712C287.103 209.464 287.815 210.544 288.183 211.952H285.231C284.991 211.296 284.607 210.784 284.079 210.416C283.551 210.048 282.887 209.864 282.087 209.864C280.967 209.864 280.071 210.264 279.399 211.064C278.743 211.848 278.415 212.952 278.415 214.376C278.415 215.8 278.743 216.912 279.399 217.712C280.071 218.512 280.967 218.912 282.087 218.912C283.671 218.912 284.719 218.216 285.231 216.824H288.183C287.799 218.168 287.079 219.24 286.023 220.04C284.967 220.824 283.655 221.216 282.087 221.216C280.823 221.216 279.703 220.936 278.727 220.376C277.751 219.8 276.983 219 276.423 217.976C275.879 216.936 275.607 215.736 275.607 214.376ZM292.301 206.024C291.805 206.024 291.389 205.856 291.053 205.52C290.717 205.184 290.549 204.768 290.549 204.272C290.549 203.776 290.717 203.36 291.053 203.024C291.389 202.688 291.805 202.52 292.301 202.52C292.781 202.52 293.189 202.688 293.525 203.024C293.861 203.36 294.029 203.776 294.029 204.272C294.029 204.768 293.861 205.184 293.525 205.52C293.189 205.856 292.781 206.024 292.301 206.024ZM293.645 207.776V221H290.909V207.776H293.645ZM302.038 221.216C300.998 221.216 300.062 221.032 299.23 220.664C298.414 220.28 297.766 219.768 297.286 219.128C296.806 218.472 296.55 217.744 296.518 216.944H299.35C299.398 217.504 299.662 217.976 300.142 218.36C300.638 218.728 301.254 218.912 301.99 218.912C302.758 218.912 303.35 218.768 303.766 218.48C304.198 218.176 304.414 217.792 304.414 217.328C304.414 216.832 304.174 216.464 303.694 216.224C303.23 215.984 302.486 215.72 301.462 215.432C300.47 215.16 299.662 214.896 299.038 214.64C298.414 214.384 297.87 213.992 297.406 213.464C296.958 212.936 296.734 212.24 296.734 211.376C296.734 210.672 296.942 210.032 297.358 209.456C297.774 208.864 298.366 208.4 299.134 208.064C299.918 207.728 300.814 207.56 301.822 207.56C303.326 207.56 304.534 207.944 305.446 208.712C306.374 209.464 306.87 210.496 306.934 211.808H304.198C304.15 211.216 303.91 210.744 303.478 210.392C303.046 210.04 302.462 209.864 301.726 209.864C301.006 209.864 300.454 210 300.07 210.272C299.686 210.544 299.494 210.904 299.494 211.352C299.494 211.704 299.622 212 299.878 212.24C300.134 212.48 300.446 212.672 300.814 212.816C301.182 212.944 301.726 213.112 302.446 213.32C303.406 213.576 304.19 213.84 304.798 214.112C305.422 214.368 305.958 214.752 306.406 215.264C306.854 215.776 307.086 216.456 307.102 217.304C307.102 218.056 306.894 218.728 306.478 219.32C306.062 219.912 305.47 220.376 304.702 220.712C303.95 221.048 303.062 221.216 302.038 221.216ZM309.146 214.328C309.146 213 309.418 211.824 309.962 210.8C310.522 209.776 311.274 208.984 312.218 208.424C313.178 207.848 314.234 207.56 315.386 207.56C316.426 207.56 317.33 207.768 318.098 208.184C318.882 208.584 319.506 209.088 319.97 209.696V207.776H322.73V221H319.97V219.032C319.506 219.656 318.874 220.176 318.074 220.592C317.274 221.008 316.362 221.216 315.338 221.216C314.202 221.216 313.162 220.928 312.218 220.352C311.274 219.76 310.522 218.944 309.962 217.904C309.418 216.848 309.146 215.656 309.146 214.328ZM319.97 214.376C319.97 213.464 319.778 212.672 319.394 212C319.026 211.328 318.538 210.816 317.93 210.464C317.322 210.112 316.666 209.936 315.962 209.936C315.258 209.936 314.602 210.112 313.994 210.464C313.386 210.8 312.89 211.304 312.506 211.976C312.138 212.632 311.954 213.416 311.954 214.328C311.954 215.24 312.138 216.04 312.506 216.728C312.89 217.416 313.386 217.944 313.994 218.312C314.618 218.664 315.274 218.84 315.962 218.84C316.666 218.84 317.322 218.664 317.93 218.312C318.538 217.96 319.026 217.448 319.394 216.776C319.778 216.088 319.97 215.288 319.97 214.376ZM342.331 207.56C343.371 207.56 344.299 207.776 345.115 208.208C345.947 208.64 346.595 209.28 347.059 210.128C347.539 210.976 347.779 212 347.779 213.2V221H345.067V213.608C345.067 212.424 344.771 211.52 344.179 210.896C343.587 210.256 342.779 209.936 341.755 209.936C340.731 209.936 339.915 210.256 339.307 210.896C338.715 211.52 338.419 212.424 338.419 213.608V221H335.707V213.608C335.707 212.424 335.411 211.52 334.819 210.896C334.227 210.256 333.419 209.936 332.395 209.936C331.371 209.936 330.555 210.256 329.947 210.896C329.355 211.52 329.059 212.424 329.059 213.608V221H326.323V207.776H329.059V209.288C329.507 208.744 330.075 208.32 330.763 208.016C331.451 207.712 332.187 207.56 332.971 207.56C334.027 207.56 334.971 207.784 335.803 208.232C336.635 208.68 337.275 209.328 337.723 210.176C338.123 209.376 338.747 208.744 339.595 208.28C340.443 207.8 341.355 207.56 342.331 207.56ZM108.959 257.216C107.919 257.216 106.983 257.032 106.151 256.664C105.335 256.28 104.687 255.768 104.207 255.128C103.727 254.472 103.471 253.744 103.439 252.944H106.271C106.319 253.504 106.583 253.976 107.063 254.36C107.559 254.728 108.175 254.912 108.911 254.912C109.679 254.912 110.271 254.768 110.687 254.48C111.119 254.176 111.335 253.792 111.335 253.328C111.335 252.832 111.095 252.464 110.615 252.224C110.151 251.984 109.407 251.72 108.383 251.432C107.391 251.16 106.583 250.896 105.959 250.64C105.335 250.384 104.791 249.992 104.327 249.464C103.879 248.936 103.655 248.24 103.655 247.376C103.655 246.672 103.863 246.032 104.279 245.456C104.695 244.864 105.287 244.4 106.055 244.064C106.839 243.728 107.735 243.56 108.743 243.56C110.247 243.56 111.455 243.944 112.367 244.712C113.295 245.464 113.791 246.496 113.855 247.808H111.119C111.071 247.216 110.831 246.744 110.399 246.392C109.967 246.04 109.383 245.864 108.647 245.864C107.927 245.864 107.375 246 106.991 246.272C106.607 246.544 106.415 246.904 106.415 247.352C106.415 247.704 106.543 248 106.799 248.24C107.055 248.48 107.367 248.672 107.735 248.816C108.103 248.944 108.647 249.112 109.367 249.32C110.327 249.576 111.111 249.84 111.719 250.112C112.343 250.368 112.879 250.752 113.327 251.264C113.775 251.776 114.007 252.456 114.023 253.304C114.023 254.056 113.815 254.728 113.399 255.32C112.983 255.912 112.391 256.376 111.623 256.712C110.871 257.048 109.983 257.216 108.959 257.216ZM129.1 250.064C129.1 250.56 129.068 251.008 129.004 251.408H118.9C118.98 252.464 119.372 253.312 120.076 253.952C120.78 254.592 121.644 254.912 122.668 254.912C124.14 254.912 125.18 254.296 125.788 253.064H128.74C128.34 254.28 127.612 255.28 126.556 256.064C125.516 256.832 124.22 257.216 122.668 257.216C121.404 257.216 120.268 256.936 119.26 256.376C118.268 255.8 117.484 255 116.908 253.976C116.348 252.936 116.068 251.736 116.068 250.376C116.068 249.016 116.34 247.824 116.884 246.8C117.444 245.76 118.22 244.96 119.212 244.4C120.22 243.84 121.372 243.56 122.668 243.56C123.916 243.56 125.028 243.832 126.004 244.376C126.98 244.92 127.74 245.688 128.284 246.68C128.828 247.656 129.1 248.784 129.1 250.064ZM126.244 249.2C126.228 248.192 125.868 247.384 125.164 246.776C124.46 246.168 123.588 245.864 122.548 245.864C121.604 245.864 120.796 246.168 120.124 246.776C119.452 247.368 119.052 248.176 118.924 249.2H126.244ZM134.528 245.696C134.928 245.024 135.456 244.504 136.112 244.136C136.784 243.752 137.576 243.56 138.488 243.56V246.392H137.792C136.72 246.392 135.904 246.664 135.344 247.208C134.8 247.752 134.528 248.696 134.528 250.04V257H131.792V243.776H134.528V245.696ZM146.326 250.328C146.326 249 146.598 247.824 147.142 246.8C147.702 245.776 148.454 244.984 149.398 244.424C150.358 243.848 151.414 243.56 152.566 243.56C153.606 243.56 154.51 243.768 155.278 244.184C156.062 244.584 156.686 245.088 157.15 245.696V243.776H159.91V257H157.15V255.032C156.686 255.656 156.054 256.176 155.254 256.592C154.454 257.008 153.542 257.216 152.518 257.216C151.382 257.216 150.342 256.928 149.398 256.352C148.454 255.76 147.702 254.944 147.142 253.904C146.598 252.848 146.326 251.656 146.326 250.328ZM157.15 250.376C157.15 249.464 156.958 248.672 156.574 248C156.206 247.328 155.718 246.816 155.11 246.464C154.502 246.112 153.846 245.936 153.142 245.936C152.438 245.936 151.782 246.112 151.174 246.464C150.566 246.8 150.07 247.304 149.686 247.976C149.318 248.632 149.134 249.416 149.134 250.328C149.134 251.24 149.318 252.04 149.686 252.728C150.07 253.416 150.566 253.944 151.174 254.312C151.798 254.664 152.454 254.84 153.142 254.84C153.846 254.84 154.502 254.664 155.11 254.312C155.718 253.96 156.206 253.448 156.574 252.776C156.958 252.088 157.15 251.288 157.15 250.376ZM162.591 250.328C162.591 249 162.863 247.824 163.407 246.8C163.967 245.776 164.719 244.984 165.663 244.424C166.623 243.848 167.687 243.56 168.855 243.56C169.719 243.56 170.567 243.752 171.399 244.136C172.247 244.504 172.919 245 173.415 245.624V239.24H176.175V257H173.415V255.008C172.967 255.648 172.343 256.176 171.543 256.592C170.759 257.008 169.855 257.216 168.831 257.216C167.679 257.216 166.623 256.928 165.663 256.352C164.719 255.76 163.967 254.944 163.407 253.904C162.863 252.848 162.591 251.656 162.591 250.328ZM173.415 250.376C173.415 249.464 173.223 248.672 172.839 248C172.471 247.328 171.983 246.816 171.375 246.464C170.767 246.112 170.111 245.936 169.407 245.936C168.703 245.936 168.047 246.112 167.439 246.464C166.831 246.8 166.335 247.304 165.951 247.976C165.583 248.632 165.399 249.416 165.399 250.328C165.399 251.24 165.583 252.04 165.951 252.728C166.335 253.416 166.831 253.944 167.439 254.312C168.063 254.664 168.719 254.84 169.407 254.84C170.111 254.84 170.767 254.664 171.375 254.312C171.983 253.96 172.471 253.448 172.839 252.776C173.223 252.088 173.415 251.288 173.415 250.376ZM191.889 250.064C191.889 250.56 191.857 251.008 191.793 251.408H181.689C181.769 252.464 182.161 253.312 182.865 253.952C183.569 254.592 184.433 254.912 185.457 254.912C186.929 254.912 187.969 254.296 188.577 253.064H191.529C191.129 254.28 190.401 255.28 189.345 256.064C188.305 256.832 187.009 257.216 185.457 257.216C184.193 257.216 183.057 256.936 182.049 256.376C181.057 255.8 180.273 255 179.697 253.976C179.137 252.936 178.857 251.736 178.857 250.376C178.857 249.016 179.129 247.824 179.673 246.8C180.233 245.76 181.009 244.96 182.001 244.4C183.009 243.84 184.161 243.56 185.457 243.56C186.705 243.56 187.817 243.832 188.793 244.376C189.769 244.92 190.529 245.688 191.073 246.68C191.617 247.656 191.889 248.784 191.889 250.064ZM189.033 249.2C189.017 248.192 188.657 247.384 187.953 246.776C187.249 246.168 186.377 245.864 185.337 245.864C184.393 245.864 183.585 246.168 182.913 246.776C182.241 247.368 181.841 248.176 181.713 249.2H189.033ZM199.381 257.216C198.341 257.216 197.405 257.032 196.573 256.664C195.757 256.28 195.109 255.768 194.629 255.128C194.149 254.472 193.893 253.744 193.861 252.944H196.693C196.741 253.504 197.005 253.976 197.485 254.36C197.981 254.728 198.597 254.912 199.333 254.912C200.101 254.912 200.693 254.768 201.109 254.48C201.541 254.176 201.757 253.792 201.757 253.328C201.757 252.832 201.517 252.464 201.037 252.224C200.573 251.984 199.829 251.72 198.805 251.432C197.813 251.16 197.005 250.896 196.381 250.64C195.757 250.384 195.213 249.992 194.749 249.464C194.301 248.936 194.077 248.24 194.077 247.376C194.077 246.672 194.285 246.032 194.701 245.456C195.117 244.864 195.709 244.4 196.477 244.064C197.261 243.728 198.157 243.56 199.165 243.56C200.669 243.56 201.877 243.944 202.789 244.712C203.717 245.464 204.213 246.496 204.277 247.808H201.541C201.493 247.216 201.253 246.744 200.821 246.392C200.389 246.04 199.805 245.864 199.069 245.864C198.349 245.864 197.797 246 197.413 246.272C197.029 246.544 196.837 246.904 196.837 247.352C196.837 247.704 196.965 248 197.221 248.24C197.477 248.48 197.789 248.672 198.157 248.816C198.525 248.944 199.069 249.112 199.789 249.32C200.749 249.576 201.533 249.84 202.141 250.112C202.765 250.368 203.301 250.752 203.749 251.264C204.197 251.776 204.429 252.456 204.445 253.304C204.445 254.056 204.237 254.728 203.821 255.32C203.405 255.912 202.813 256.376 202.045 256.712C201.293 257.048 200.405 257.216 199.381 257.216ZM210.594 246.008V253.328C210.594 253.824 210.706 254.184 210.93 254.408C211.17 254.616 211.57 254.72 212.13 254.72H213.81V257H211.65C210.418 257 209.474 256.712 208.818 256.136C208.162 255.56 207.834 254.624 207.834 253.328V246.008H206.274V243.776H207.834V240.488H210.594V243.776H213.81V246.008H210.594ZM219.067 245.696C219.467 245.024 219.995 244.504 220.651 244.136C221.323 243.752 222.115 243.56 223.027 243.56V246.392H222.331C221.259 246.392 220.443 246.664 219.883 247.208C219.339 247.752 219.067 248.696 219.067 250.04V257H216.331V243.776H219.067V245.696ZM224.63 250.328C224.63 249 224.902 247.824 225.446 246.8C226.006 245.776 226.758 244.984 227.702 244.424C228.662 243.848 229.718 243.56 230.87 243.56C231.91 243.56 232.814 243.768 233.582 244.184C234.366 244.584 234.99 245.088 235.454 245.696V243.776H238.214V257H235.454V255.032C234.99 255.656 234.358 256.176 233.558 256.592C232.758 257.008 231.846 257.216 230.822 257.216C229.686 257.216 228.646 256.928 227.702 256.352C226.758 255.76 226.006 254.944 225.446 253.904C224.902 252.848 224.63 251.656 224.63 250.328ZM235.454 250.376C235.454 249.464 235.262 248.672 234.878 248C234.51 247.328 234.022 246.816 233.414 246.464C232.806 246.112 232.15 245.936 231.446 245.936C230.742 245.936 230.086 246.112 229.478 246.464C228.87 246.8 228.374 247.304 227.99 247.976C227.622 248.632 227.438 249.416 227.438 250.328C227.438 251.24 227.622 252.04 227.99 252.728C228.374 253.416 228.87 253.944 229.478 254.312C230.102 254.664 230.758 254.84 231.446 254.84C232.15 254.84 232.806 254.664 233.414 254.312C234.022 253.96 234.51 253.448 234.878 252.776C235.262 252.088 235.454 251.288 235.454 250.376ZM240.896 250.328C240.896 249 241.168 247.824 241.712 246.8C242.272 245.776 243.024 244.984 243.968 244.424C244.928 243.848 245.992 243.56 247.16 243.56C248.024 243.56 248.872 243.752 249.704 244.136C250.552 244.504 251.224 245 251.72 245.624V239.24H254.48V257H251.72V255.008C251.272 255.648 250.648 256.176 249.848 256.592C249.064 257.008 248.16 257.216 247.136 257.216C245.984 257.216 244.928 256.928 243.968 256.352C243.024 255.76 242.272 254.944 241.712 253.904C241.168 252.848 240.896 251.656 240.896 250.328ZM251.72 250.376C251.72 249.464 251.528 248.672 251.144 248C250.776 247.328 250.288 246.816 249.68 246.464C249.072 246.112 248.416 245.936 247.712 245.936C247.008 245.936 246.352 246.112 245.744 246.464C245.136 246.8 244.64 247.304 244.256 247.976C243.888 248.632 243.704 249.416 243.704 250.328C243.704 251.24 243.888 252.04 244.256 252.728C244.64 253.416 245.136 253.944 245.744 254.312C246.368 254.664 247.024 254.84 247.712 254.84C248.416 254.84 249.072 254.664 249.68 254.312C250.288 253.96 250.776 253.448 251.144 252.776C251.528 252.088 251.72 251.288 251.72 250.376ZM263.809 257.216C262.561 257.216 261.433 256.936 260.425 256.376C259.417 255.8 258.625 255 258.049 253.976C257.473 252.936 257.185 251.736 257.185 250.376C257.185 249.032 257.481 247.84 258.073 246.8C258.665 245.76 259.473 244.96 260.497 244.4C261.521 243.84 262.665 243.56 263.929 243.56C265.193 243.56 266.337 243.84 267.361 244.4C268.385 244.96 269.193 245.76 269.785 246.8C270.377 247.84 270.673 249.032 270.673 250.376C270.673 251.72 270.369 252.912 269.761 253.952C269.153 254.992 268.321 255.8 267.265 256.376C266.225 256.936 265.073 257.216 263.809 257.216ZM263.809 254.84C264.513 254.84 265.169 254.672 265.777 254.336C266.401 254 266.905 253.496 267.289 252.824C267.673 252.152 267.865 251.336 267.865 250.376C267.865 249.416 267.681 248.608 267.313 247.952C266.945 247.28 266.457 246.776 265.849 246.44C265.241 246.104 264.585 245.936 263.881 245.936C263.177 245.936 262.521 246.104 261.913 246.44C261.321 246.776 260.849 247.28 260.497 247.952C260.145 248.608 259.969 249.416 259.969 250.376C259.969 251.8 260.329 252.904 261.049 253.688C261.785 254.456 262.705 254.84 263.809 254.84ZM278.178 257.216C277.138 257.216 276.202 257.032 275.37 256.664C274.554 256.28 273.906 255.768 273.426 255.128C272.946 254.472 272.69 253.744 272.658 252.944H275.49C275.538 253.504 275.802 253.976 276.282 254.36C276.778 254.728 277.394 254.912 278.13 254.912C278.898 254.912 279.49 254.768 279.906 254.48C280.338 254.176 280.554 253.792 280.554 253.328C280.554 252.832 280.314 252.464 279.834 252.224C279.37 251.984 278.626 251.72 277.602 251.432C276.61 251.16 275.802 250.896 275.178 250.64C274.554 250.384 274.01 249.992 273.546 249.464C273.098 248.936 272.874 248.24 272.874 247.376C272.874 246.672 273.082 246.032 273.498 245.456C273.914 244.864 274.506 244.4 275.274 244.064C276.058 243.728 276.954 243.56 277.962 243.56C279.466 243.56 280.674 243.944 281.586 244.712C282.514 245.464 283.01 246.496 283.074 247.808H280.338C280.29 247.216 280.05 246.744 279.618 246.392C279.186 246.04 278.602 245.864 277.866 245.864C277.146 245.864 276.594 246 276.21 246.272C275.826 246.544 275.634 246.904 275.634 247.352C275.634 247.704 275.762 248 276.018 248.24C276.274 248.48 276.586 248.672 276.954 248.816C277.322 248.944 277.866 249.112 278.586 249.32C279.546 249.576 280.33 249.84 280.938 250.112C281.562 250.368 282.098 250.752 282.546 251.264C282.994 251.776 283.226 252.456 283.242 253.304C283.242 254.056 283.034 254.728 282.618 255.32C282.202 255.912 281.61 256.376 280.842 256.712C280.09 257.048 279.202 257.216 278.178 257.216ZM295.169 245.72C295.633 245.112 296.265 244.6 297.065 244.184C297.865 243.768 298.769 243.56 299.777 243.56C300.929 243.56 301.977 243.848 302.921 244.424C303.881 244.984 304.633 245.776 305.177 246.8C305.721 247.824 305.993 249 305.993 250.328C305.993 251.656 305.721 252.848 305.177 253.904C304.633 254.944 303.881 255.76 302.921 256.352C301.977 256.928 300.929 257.216 299.777 257.216C298.769 257.216 297.873 257.016 297.089 256.616C296.305 256.2 295.665 255.688 295.169 255.08V263.288H292.433V243.776H295.169V245.72ZM303.209 250.328C303.209 249.416 303.017 248.632 302.633 247.976C302.265 247.304 301.769 246.8 301.145 246.464C300.537 246.112 299.881 245.936 299.177 245.936C298.489 245.936 297.833 246.112 297.209 246.464C296.601 246.816 296.105 247.328 295.721 248C295.353 248.672 295.169 249.464 295.169 250.376C295.169 251.288 295.353 252.088 295.721 252.776C296.105 253.448 296.601 253.96 297.209 254.312C297.833 254.664 298.489 254.84 299.177 254.84C299.881 254.84 300.537 254.664 301.145 254.312C301.769 253.944 302.265 253.416 302.633 252.728C303.017 252.04 303.209 251.24 303.209 250.328ZM307.786 250.328C307.786 249 308.058 247.824 308.602 246.8C309.162 245.776 309.914 244.984 310.858 244.424C311.818 243.848 312.874 243.56 314.026 243.56C315.066 243.56 315.97 243.768 316.738 244.184C317.522 244.584 318.146 245.088 318.61 245.696V243.776H321.37V257H318.61V255.032C318.146 255.656 317.514 256.176 316.714 256.592C315.914 257.008 315.002 257.216 313.978 257.216C312.842 257.216 311.802 256.928 310.858 256.352C309.914 255.76 309.162 254.944 308.602 253.904C308.058 252.848 307.786 251.656 307.786 250.328ZM318.61 250.376C318.61 249.464 318.418 248.672 318.034 248C317.666 247.328 317.178 246.816 316.57 246.464C315.962 246.112 315.306 245.936 314.602 245.936C313.898 245.936 313.242 246.112 312.634 246.464C312.026 246.8 311.53 247.304 311.146 247.976C310.778 248.632 310.594 249.416 310.594 250.328C310.594 251.24 310.778 252.04 311.146 252.728C311.53 253.416 312.026 253.944 312.634 254.312C313.258 254.664 313.914 254.84 314.602 254.84C315.306 254.84 315.962 254.664 316.57 254.312C317.178 253.96 317.666 253.448 318.034 252.776C318.418 252.088 318.61 251.288 318.61 250.376ZM327.7 245.696C328.1 245.024 328.628 244.504 329.284 244.136C329.956 243.752 330.748 243.56 331.66 243.56V246.392H330.964C329.892 246.392 329.076 246.664 328.516 247.208C327.972 247.752 327.7 248.696 327.7 250.04V257H324.964V243.776H327.7V245.696ZM333.263 250.328C333.263 249 333.535 247.824 334.079 246.8C334.639 245.776 335.391 244.984 336.335 244.424C337.295 243.848 338.351 243.56 339.503 243.56C340.543 243.56 341.447 243.768 342.215 244.184C342.999 244.584 343.623 245.088 344.087 245.696V243.776H346.847V257H344.087V255.032C343.623 255.656 342.991 256.176 342.191 256.592C341.391 257.008 340.479 257.216 339.455 257.216C338.319 257.216 337.279 256.928 336.335 256.352C335.391 255.76 334.639 254.944 334.079 253.904C333.535 252.848 333.263 251.656 333.263 250.328ZM344.087 250.376C344.087 249.464 343.895 248.672 343.511 248C343.143 247.328 342.655 246.816 342.047 246.464C341.439 246.112 340.783 245.936 340.079 245.936C339.375 245.936 338.719 246.112 338.111 246.464C337.503 246.8 337.007 247.304 336.623 247.976C336.255 248.632 336.071 249.416 336.071 250.328C336.071 251.24 336.255 252.04 336.623 252.728C337.007 253.416 337.503 253.944 338.111 254.312C338.735 254.664 339.391 254.84 340.079 254.84C340.783 254.84 341.439 254.664 342.047 254.312C342.655 253.96 343.143 253.448 343.511 252.776C343.895 252.088 344.087 251.288 344.087 250.376ZM143.757 279.56C144.797 279.56 145.725 279.776 146.541 280.208C147.373 280.64 148.021 281.28 148.485 282.128C148.965 282.976 149.205 284 149.205 285.2V293H146.493V285.608C146.493 284.424 146.197 283.52 145.605 282.896C145.013 282.256 144.205 281.936 143.181 281.936C142.157 281.936 141.341 282.256 140.733 282.896C140.141 283.52 139.845 284.424 139.845 285.608V293H137.133V285.608C137.133 284.424 136.837 283.52 136.245 282.896C135.653 282.256 134.845 281.936 133.821 281.936C132.797 281.936 131.981 282.256 131.373 282.896C130.781 283.52 130.485 284.424 130.485 285.608V293H127.749V279.776H130.485V281.288C130.933 280.744 131.501 280.32 132.189 280.016C132.877 279.712 133.613 279.56 134.397 279.56C135.453 279.56 136.397 279.784 137.229 280.232C138.061 280.68 138.701 281.328 139.149 282.176C139.549 281.376 140.173 280.744 141.021 280.28C141.869 279.8 142.781 279.56 143.757 279.56ZM164.807 286.064C164.807 286.56 164.775 287.008 164.711 287.408H154.607C154.687 288.464 155.079 289.312 155.783 289.952C156.487 290.592 157.351 290.912 158.375 290.912C159.847 290.912 160.887 290.296 161.495 289.064H164.447C164.047 290.28 163.319 291.28 162.263 292.064C161.223 292.832 159.927 293.216 158.375 293.216C157.111 293.216 155.975 292.936 154.967 292.376C153.975 291.8 153.191 291 152.615 289.976C152.055 288.936 151.775 287.736 151.775 286.376C151.775 285.016 152.047 283.824 152.591 282.8C153.151 281.76 153.927 280.96 154.919 280.4C155.927 279.84 157.079 279.56 158.375 279.56C159.623 279.56 160.735 279.832 161.711 280.376C162.687 280.92 163.447 281.688 163.991 282.68C164.535 283.656 164.807 284.784 164.807 286.064ZM161.951 285.2C161.935 284.192 161.575 283.384 160.871 282.776C160.167 282.168 159.295 281.864 158.255 281.864C157.311 281.864 156.503 282.168 155.831 282.776C155.159 283.368 154.759 284.176 154.631 285.2H161.951ZM170.235 275.24V293H167.499V275.24H170.235ZM180.667 279.56C181.675 279.56 182.571 279.776 183.355 280.208C184.155 280.64 184.779 281.28 185.227 282.128C185.691 282.976 185.923 284 185.923 285.2V293H183.211V285.608C183.211 284.424 182.915 283.52 182.323 282.896C181.731 282.256 180.923 281.936 179.899 281.936C178.875 281.936 178.059 282.256 177.451 282.896C176.859 283.52 176.563 284.424 176.563 285.608V293H173.827V275.24H176.563V281.312C177.027 280.752 177.611 280.32 178.315 280.016C179.035 279.712 179.819 279.56 180.667 279.56ZM195.149 293.216C193.901 293.216 192.773 292.936 191.765 292.376C190.757 291.8 189.965 291 189.389 289.976C188.813 288.936 188.525 287.736 188.525 286.376C188.525 285.032 188.821 283.84 189.413 282.8C190.005 281.76 190.813 280.96 191.837 280.4C192.861 279.84 194.005 279.56 195.269 279.56C196.533 279.56 197.677 279.84 198.701 280.4C199.725 280.96 200.533 281.76 201.125 282.8C201.717 283.84 202.013 285.032 202.013 286.376C202.013 287.72 201.709 288.912 201.101 289.952C200.493 290.992 199.661 291.8 198.605 292.376C197.565 292.936 196.413 293.216 195.149 293.216ZM195.149 290.84C195.853 290.84 196.509 290.672 197.117 290.336C197.741 290 198.245 289.496 198.629 288.824C199.013 288.152 199.205 287.336 199.205 286.376C199.205 285.416 199.021 284.608 198.653 283.952C198.285 283.28 197.797 282.776 197.189 282.44C196.581 282.104 195.925 281.936 195.221 281.936C194.517 281.936 193.861 282.104 193.253 282.44C192.661 282.776 192.189 283.28 191.837 283.952C191.485 284.608 191.309 285.416 191.309 286.376C191.309 287.8 191.669 288.904 192.389 289.688C193.125 290.456 194.045 290.84 195.149 290.84ZM207.454 281.696C207.854 281.024 208.382 280.504 209.038 280.136C209.71 279.752 210.502 279.56 211.414 279.56V282.392H210.718C209.646 282.392 208.83 282.664 208.27 283.208C207.726 283.752 207.454 284.696 207.454 286.04V293H204.718V279.776H207.454V281.696ZM219.251 286.376C219.251 285.016 219.523 283.824 220.067 282.8C220.627 281.76 221.395 280.96 222.371 280.4C223.347 279.84 224.467 279.56 225.731 279.56C227.331 279.56 228.651 279.944 229.691 280.712C230.747 281.464 231.459 282.544 231.827 283.952H228.875C228.635 283.296 228.251 282.784 227.723 282.416C227.195 282.048 226.531 281.864 225.731 281.864C224.611 281.864 223.715 282.264 223.043 283.064C222.387 283.848 222.059 284.952 222.059 286.376C222.059 287.8 222.387 288.912 223.043 289.712C223.715 290.512 224.611 290.912 225.731 290.912C227.315 290.912 228.363 290.216 228.875 288.824H231.827C231.443 290.168 230.723 291.24 229.667 292.04C228.611 292.824 227.299 293.216 225.731 293.216C224.467 293.216 223.347 292.936 222.371 292.376C221.395 291.8 220.627 291 220.067 289.976C219.523 288.936 219.251 287.736 219.251 286.376ZM240.29 293.216C239.042 293.216 237.914 292.936 236.906 292.376C235.898 291.8 235.106 291 234.53 289.976C233.954 288.936 233.666 287.736 233.666 286.376C233.666 285.032 233.962 283.84 234.554 282.8C235.146 281.76 235.954 280.96 236.978 280.4C238.002 279.84 239.146 279.56 240.41 279.56C241.674 279.56 242.818 279.84 243.842 280.4C244.866 280.96 245.674 281.76 246.266 282.8C246.858 283.84 247.154 285.032 247.154 286.376C247.154 287.72 246.85 288.912 246.242 289.952C245.634 290.992 244.802 291.8 243.746 292.376C242.706 292.936 241.554 293.216 240.29 293.216ZM240.29 290.84C240.994 290.84 241.65 290.672 242.258 290.336C242.882 290 243.386 289.496 243.77 288.824C244.154 288.152 244.346 287.336 244.346 286.376C244.346 285.416 244.162 284.608 243.794 283.952C243.426 283.28 242.938 282.776 242.33 282.44C241.722 282.104 241.066 281.936 240.362 281.936C239.658 281.936 239.002 282.104 238.394 282.44C237.802 282.776 237.33 283.28 236.978 283.952C236.626 284.608 236.45 285.416 236.45 286.376C236.45 287.8 236.81 288.904 237.53 289.688C238.266 290.456 239.186 290.84 240.29 290.84ZM256.531 279.56C257.571 279.56 258.499 279.776 259.315 280.208C260.147 280.64 260.795 281.28 261.259 282.128C261.723 282.976 261.955 284 261.955 285.2V293H259.243V285.608C259.243 284.424 258.947 283.52 258.355 282.896C257.763 282.256 256.955 281.936 255.931 281.936C254.907 281.936 254.091 282.256 253.483 282.896C252.891 283.52 252.595 284.424 252.595 285.608V293H249.859V279.776H252.595V281.288C253.043 280.744 253.611 280.32 254.299 280.016C255.003 279.712 255.747 279.56 256.531 279.56ZM270.557 290.552L274.301 279.776H277.205L272.165 293H268.901L263.885 279.776H266.813L270.557 290.552ZM282.009 279.776V293H279.273V279.776H282.009ZM283.113 276.224L277.809 278.84V276.824L283.113 273.896V276.224ZM290.713 290.552L294.457 279.776H297.361L292.321 293H289.057L284.041 279.776H286.969L290.713 290.552ZM300.821 278.024C300.325 278.024 299.909 277.856 299.573 277.52C299.237 277.184 299.069 276.768 299.069 276.272C299.069 275.776 299.237 275.36 299.573 275.024C299.909 274.688 300.325 274.52 300.821 274.52C301.301 274.52 301.709 274.688 302.045 275.024C302.381 275.36 302.549 275.776 302.549 276.272C302.549 276.768 302.381 277.184 302.045 277.52C301.709 277.856 301.301 278.024 300.821 278.024ZM302.165 279.776V293H299.429V279.776H302.165ZM311.493 293.216C310.245 293.216 309.117 292.936 308.109 292.376C307.101 291.8 306.309 291 305.733 289.976C305.157 288.936 304.869 287.736 304.869 286.376C304.869 285.032 305.165 283.84 305.757 282.8C306.349 281.76 307.157 280.96 308.181 280.4C309.205 279.84 310.349 279.56 311.613 279.56C312.877 279.56 314.021 279.84 315.045 280.4C316.069 280.96 316.877 281.76 317.469 282.8C318.061 283.84 318.357 285.032 318.357 286.376C318.357 287.72 318.053 288.912 317.445 289.952C316.837 290.992 316.005 291.8 314.949 292.376C313.909 292.936 312.757 293.216 311.493 293.216ZM311.493 290.84C312.197 290.84 312.853 290.672 313.461 290.336C314.085 290 314.589 289.496 314.973 288.824C315.357 288.152 315.549 287.336 315.549 286.376C315.549 285.416 315.365 284.608 314.997 283.952C314.629 283.28 314.141 282.776 313.533 282.44C312.925 282.104 312.269 281.936 311.565 281.936C310.861 281.936 310.205 282.104 309.597 282.44C309.005 282.776 308.533 283.28 308.181 283.952C307.829 284.608 307.653 285.416 307.653 286.376C307.653 287.8 308.013 288.904 308.733 289.688C309.469 290.456 310.389 290.84 311.493 290.84ZM322.166 293.168C321.67 293.168 321.254 293 320.918 292.664C320.582 292.328 320.414 291.912 320.414 291.416C320.414 290.92 320.582 290.504 320.918 290.168C321.254 289.832 321.67 289.664 322.166 289.664C322.646 289.664 323.054 289.832 323.39 290.168C323.726 290.504 323.894 290.92 323.894 291.416C323.894 291.912 323.726 292.328 323.39 292.664C323.054 293 322.646 293.168 322.166 293.168Z" fill="#FFEBEB"/>
</svg>
