<svg width="456" height="456" viewBox="0 0 456 456" fill="none" xmlns="http://www.w3.org/2000/svg">
<rect width="456" height="456" fill="#8CCDD0"/>
<path d="M86.271 136.088C86.271 134.147 86.6723 132.42 87.475 130.908C88.2963 129.377 89.4537 128.192 90.947 127.352C92.4403 126.493 94.1577 126.064 96.099 126.064C98.563 126.064 100.635 126.727 102.315 128.052C103.995 129.359 105.078 131.141 105.563 133.4H99.655C99.3003 132.653 98.8057 132.084 98.171 131.692C97.555 131.3 96.8363 131.104 96.015 131.104C94.7457 131.104 93.7283 131.561 92.963 132.476C92.2163 133.372 91.843 134.576 91.843 136.088C91.843 137.619 92.2163 138.841 92.963 139.756C93.7283 140.652 94.7457 141.1 96.015 141.1C96.8363 141.1 97.555 140.904 98.171 140.512C98.8057 140.12 99.3003 139.551 99.655 138.804H105.563C105.078 141.063 103.995 142.855 102.315 144.18C100.635 145.487 98.563 146.14 96.099 146.14C94.1577 146.14 92.4403 145.72 90.947 144.88C89.4537 144.021 88.2963 142.836 87.475 141.324C86.6723 139.793 86.271 138.048 86.271 136.088ZM107.266 138.132C107.266 136.508 107.555 135.089 108.134 133.876C108.731 132.663 109.534 131.729 110.542 131.076C111.568 130.423 112.707 130.096 113.958 130.096C115.04 130.096 115.974 130.311 116.758 130.74C117.542 131.169 118.148 131.748 118.578 132.476V130.292H124.066V146H118.578V143.816C118.148 144.544 117.532 145.123 116.73 145.552C115.946 145.981 115.022 146.196 113.958 146.196C112.707 146.196 111.568 145.869 110.542 145.216C109.534 144.563 108.731 143.629 108.134 142.416C107.555 141.184 107.266 139.756 107.266 138.132ZM118.578 138.132C118.578 137.124 118.298 136.331 117.738 135.752C117.196 135.173 116.524 134.884 115.722 134.884C114.9 134.884 114.219 135.173 113.678 135.752C113.136 136.312 112.866 137.105 112.866 138.132C112.866 139.14 113.136 139.943 113.678 140.54C114.219 141.119 114.9 141.408 115.722 141.408C116.524 141.408 117.196 141.119 117.738 140.54C118.298 139.961 118.578 139.159 118.578 138.132ZM126.297 138.132C126.297 136.508 126.633 135.089 127.305 133.876C127.977 132.663 128.91 131.729 130.105 131.076C131.318 130.423 132.7 130.096 134.249 130.096C136.246 130.096 137.926 130.647 139.289 131.748C140.652 132.831 141.529 134.352 141.921 136.312H136.097C135.761 135.285 135.108 134.772 134.137 134.772C133.446 134.772 132.896 135.061 132.485 135.64C132.093 136.2 131.897 137.031 131.897 138.132C131.897 139.233 132.093 140.073 132.485 140.652C132.896 141.231 133.446 141.52 134.137 141.52C135.126 141.52 135.78 141.007 136.097 139.98H141.921C141.529 141.921 140.652 143.443 139.289 144.544C137.926 145.645 136.246 146.196 134.249 146.196C132.7 146.196 131.318 145.869 130.105 145.216C128.91 144.563 127.977 143.629 127.305 142.416C126.633 141.203 126.297 139.775 126.297 138.132ZM154.533 130.152C156.325 130.152 157.743 130.759 158.789 131.972C159.853 133.167 160.385 134.791 160.385 136.844V146H154.897V137.572C154.897 136.676 154.663 135.976 154.197 135.472C153.73 134.949 153.105 134.688 152.321 134.688C151.499 134.688 150.855 134.949 150.389 135.472C149.922 135.976 149.689 136.676 149.689 137.572V146H144.201V125.28H149.689V132.532C150.174 131.823 150.827 131.253 151.649 130.824C152.489 130.376 153.45 130.152 154.533 130.152ZM170.704 146.196C169.136 146.196 167.727 145.869 166.476 145.216C165.244 144.563 164.273 143.629 163.564 142.416C162.855 141.203 162.5 139.775 162.5 138.132C162.5 136.508 162.855 135.089 163.564 133.876C164.292 132.663 165.272 131.729 166.504 131.076C167.755 130.423 169.164 130.096 170.732 130.096C172.3 130.096 173.7 130.423 174.932 131.076C176.183 131.729 177.163 132.663 177.872 133.876C178.6 135.089 178.964 136.508 178.964 138.132C178.964 139.756 178.6 141.184 177.872 142.416C177.163 143.629 176.183 144.563 174.932 145.216C173.681 145.869 172.272 146.196 170.704 146.196ZM170.704 141.436C171.469 141.436 172.104 141.156 172.608 140.596C173.131 140.017 173.392 139.196 173.392 138.132C173.392 137.068 173.131 136.256 172.608 135.696C172.104 135.136 171.479 134.856 170.732 134.856C169.985 134.856 169.36 135.136 168.856 135.696C168.352 136.256 168.1 137.068 168.1 138.132C168.1 139.215 168.343 140.036 168.828 140.596C169.313 141.156 169.939 141.436 170.704 141.436ZM186.685 133.064C187.301 132.168 188.048 131.459 188.925 130.936C189.802 130.413 190.745 130.152 191.753 130.152V136.004H190.213C189.018 136.004 188.132 136.237 187.553 136.704C186.974 137.171 186.685 137.983 186.685 139.14V146H181.197V130.292H186.685V133.064ZM199.208 133.064C199.824 132.168 200.571 131.459 201.448 130.936C202.326 130.413 203.268 130.152 204.276 130.152V136.004H202.736C201.542 136.004 200.655 136.237 200.076 136.704C199.498 137.171 199.208 137.983 199.208 139.14V146H193.72V130.292H199.208V133.064ZM213.552 146.196C211.984 146.196 210.574 145.869 209.324 145.216C208.092 144.563 207.121 143.629 206.412 142.416C205.702 141.203 205.348 139.775 205.348 138.132C205.348 136.508 205.702 135.089 206.412 133.876C207.14 132.663 208.12 131.729 209.352 131.076C210.602 130.423 212.012 130.096 213.58 130.096C215.148 130.096 216.548 130.423 217.78 131.076C219.03 131.729 220.01 132.663 220.72 133.876C221.448 135.089 221.812 136.508 221.812 138.132C221.812 139.756 221.448 141.184 220.72 142.416C220.01 143.629 219.03 144.563 217.78 145.216C216.529 145.869 215.12 146.196 213.552 146.196ZM213.552 141.436C214.317 141.436 214.952 141.156 215.456 140.596C215.978 140.017 216.24 139.196 216.24 138.132C216.24 137.068 215.978 136.256 215.456 135.696C214.952 135.136 214.326 134.856 213.58 134.856C212.833 134.856 212.208 135.136 211.704 135.696C211.2 136.256 210.948 137.068 210.948 138.132C210.948 139.215 211.19 140.036 211.676 140.596C212.161 141.156 212.786 141.436 213.552 141.436ZM230.737 146.196C229.318 146.196 228.049 145.963 226.929 145.496C225.827 145.011 224.95 144.357 224.297 143.536C223.662 142.696 223.307 141.753 223.233 140.708H228.553C228.627 141.212 228.861 141.604 229.253 141.884C229.645 142.164 230.13 142.304 230.709 142.304C231.157 142.304 231.511 142.211 231.773 142.024C232.034 141.837 232.165 141.595 232.165 141.296C232.165 140.904 231.95 140.615 231.521 140.428C231.091 140.241 230.382 140.036 229.393 139.812C228.273 139.588 227.339 139.336 226.593 139.056C225.846 138.776 225.193 138.319 224.633 137.684C224.091 137.049 223.821 136.191 223.821 135.108C223.821 134.175 224.073 133.335 224.577 132.588C225.081 131.823 225.818 131.216 226.789 130.768C227.778 130.32 228.963 130.096 230.345 130.096C232.398 130.096 234.013 130.6 235.189 131.608C236.365 132.616 237.046 133.941 237.233 135.584H232.277C232.183 135.08 231.959 134.697 231.605 134.436C231.269 134.156 230.811 134.016 230.233 134.016C229.785 134.016 229.439 134.1 229.197 134.268C228.973 134.436 228.861 134.669 228.861 134.968C228.861 135.341 229.075 135.631 229.505 135.836C229.934 136.023 230.625 136.219 231.577 136.424C232.715 136.667 233.658 136.937 234.405 137.236C235.17 137.535 235.833 138.02 236.393 138.692C236.971 139.345 237.261 140.241 237.261 141.38C237.261 142.295 236.99 143.116 236.449 143.844C235.926 144.572 235.17 145.151 234.181 145.58C233.21 145.991 232.062 146.196 230.737 146.196ZM254.586 141.324V146H252.206C248.193 146 246.186 144.012 246.186 140.036V134.856H244.254V130.292H246.186V126.484H251.702V130.292H254.558V134.856H251.702V140.12C251.702 140.549 251.795 140.857 251.982 141.044C252.187 141.231 252.523 141.324 252.99 141.324H254.586ZM256.207 138.132C256.207 136.508 256.496 135.089 257.075 133.876C257.672 132.663 258.475 131.729 259.483 131.076C260.51 130.423 261.648 130.096 262.899 130.096C263.982 130.096 264.915 130.311 265.699 130.74C266.483 131.169 267.09 131.748 267.519 132.476V130.292H273.007V146H267.519V143.816C267.09 144.544 266.474 145.123 265.671 145.552C264.887 145.981 263.963 146.196 262.899 146.196C261.648 146.196 260.51 145.869 259.483 145.216C258.475 144.563 257.672 143.629 257.075 142.416C256.496 141.184 256.207 139.756 256.207 138.132ZM267.519 138.132C267.519 137.124 267.239 136.331 266.679 135.752C266.138 135.173 265.466 134.884 264.663 134.884C263.842 134.884 263.16 135.173 262.619 135.752C262.078 136.312 261.807 137.105 261.807 138.132C261.807 139.14 262.078 139.943 262.619 140.54C263.16 141.119 263.842 141.408 264.663 141.408C265.466 141.408 266.138 141.119 266.679 140.54C267.239 139.961 267.519 139.159 267.519 138.132ZM296.658 130.152C298.637 130.152 300.186 130.749 301.306 131.944C302.445 133.139 303.014 134.772 303.014 136.844V146H297.526V137.572C297.526 136.732 297.293 136.079 296.826 135.612C296.36 135.145 295.725 134.912 294.922 134.912C294.12 134.912 293.485 135.145 293.018 135.612C292.552 136.079 292.318 136.732 292.318 137.572V146H286.83V137.572C286.83 136.732 286.597 136.079 286.13 135.612C285.682 135.145 285.057 134.912 284.254 134.912C283.433 134.912 282.789 135.145 282.322 135.612C281.856 136.079 281.622 136.732 281.622 137.572V146H276.134V130.292H281.622V132.364C282.108 131.692 282.733 131.16 283.498 130.768C284.282 130.357 285.178 130.152 286.186 130.152C287.344 130.152 288.37 130.404 289.266 130.908C290.181 131.412 290.9 132.121 291.422 133.036C291.982 132.177 292.72 131.487 293.634 130.964C294.549 130.423 295.557 130.152 296.658 130.152ZM311.509 132.476C311.938 131.729 312.545 131.151 313.329 130.74C314.113 130.311 315.037 130.096 316.101 130.096C317.352 130.096 318.481 130.423 319.489 131.076C320.516 131.729 321.318 132.663 321.897 133.876C322.494 135.089 322.793 136.508 322.793 138.132C322.793 139.756 322.494 141.184 321.897 142.416C321.318 143.629 320.516 144.563 319.489 145.216C318.481 145.869 317.352 146.196 316.101 146.196C315.037 146.196 314.113 145.991 313.329 145.58C312.545 145.151 311.938 144.563 311.509 143.816V146H306.021V125.28H311.509V132.476ZM317.221 138.132C317.221 137.105 316.941 136.312 316.381 135.752C315.84 135.173 315.168 134.884 314.365 134.884C313.562 134.884 312.881 135.173 312.321 135.752C311.78 136.331 311.509 137.124 311.509 138.132C311.509 139.159 311.78 139.961 312.321 140.54C312.881 141.119 313.562 141.408 314.365 141.408C315.168 141.408 315.84 141.119 316.381 140.54C316.941 139.943 317.221 139.14 317.221 138.132ZM340.06 137.964C340.06 138.393 340.032 138.823 339.976 139.252H329.588C329.644 140.111 329.878 140.755 330.288 141.184C330.718 141.595 331.259 141.8 331.912 141.8C332.827 141.8 333.48 141.389 333.872 140.568H339.724C339.482 141.651 339.006 142.621 338.296 143.48C337.606 144.32 336.728 144.983 335.664 145.468C334.6 145.953 333.424 146.196 332.136 146.196C330.587 146.196 329.206 145.869 327.992 145.216C326.798 144.563 325.855 143.629 325.164 142.416C324.492 141.203 324.156 139.775 324.156 138.132C324.156 136.489 324.492 135.071 325.164 133.876C325.836 132.663 326.77 131.729 327.964 131.076C329.178 130.423 330.568 130.096 332.136 130.096C333.686 130.096 335.058 130.413 336.252 131.048C337.447 131.683 338.38 132.597 339.052 133.792C339.724 134.968 340.06 136.359 340.06 137.964ZM334.46 136.592C334.46 135.92 334.236 135.397 333.788 135.024C333.34 134.632 332.78 134.436 332.108 134.436C331.436 134.436 330.886 134.623 330.456 134.996C330.027 135.351 329.747 135.883 329.616 136.592H334.46ZM335.524 126.344L328.524 129.088V125.364L335.524 122.2V126.344ZM362.83 130.152C364.809 130.152 366.358 130.749 367.478 131.944C368.617 133.139 369.186 134.772 369.186 136.844V146H363.698V137.572C363.698 136.732 363.465 136.079 362.998 135.612C362.532 135.145 361.897 134.912 361.094 134.912C360.292 134.912 359.657 135.145 359.19 135.612C358.724 136.079 358.49 136.732 358.49 137.572V146H353.002V137.572C353.002 136.732 352.769 136.079 352.302 135.612C351.854 135.145 351.229 134.912 350.426 134.912C349.605 134.912 348.961 135.145 348.494 135.612C348.028 136.079 347.794 136.732 347.794 137.572V146H342.306V130.292H347.794V132.364C348.28 131.692 348.905 131.16 349.67 130.768C350.454 130.357 351.35 130.152 352.358 130.152C353.516 130.152 354.542 130.404 355.438 130.908C356.353 131.412 357.072 132.121 357.594 133.036C358.154 132.177 358.892 131.487 359.806 130.964C360.721 130.423 361.729 130.152 362.83 130.152ZM135.8 176.856H133.336V188H127.82V176.856H126.112V172.292H127.82V172.152C127.82 170.136 128.408 168.596 129.584 167.532C130.779 166.449 132.487 165.908 134.708 165.908C135.156 165.908 135.501 165.917 135.744 165.936V170.612C135.595 170.593 135.389 170.584 135.128 170.584C134.531 170.584 134.092 170.724 133.812 171.004C133.532 171.265 133.373 171.695 133.336 172.292H135.8V176.856ZM140.533 170.836C139.563 170.836 138.779 170.575 138.181 170.052C137.603 169.511 137.313 168.839 137.313 168.036C137.313 167.215 137.603 166.533 138.181 165.992C138.779 165.451 139.563 165.18 140.533 165.18C141.485 165.18 142.251 165.451 142.829 165.992C143.427 166.533 143.725 167.215 143.725 168.036C143.725 168.839 143.427 169.511 142.829 170.052C142.251 170.575 141.485 170.836 140.533 170.836ZM143.249 172.292V188H137.761V172.292H143.249ZM145.479 180.132C145.479 178.508 145.815 177.089 146.487 175.876C147.159 174.663 148.092 173.729 149.287 173.076C150.5 172.423 151.881 172.096 153.431 172.096C155.428 172.096 157.108 172.647 158.471 173.748C159.833 174.831 160.711 176.352 161.103 178.312H155.279C154.943 177.285 154.289 176.772 153.319 176.772C152.628 176.772 152.077 177.061 151.667 177.64C151.275 178.2 151.079 179.031 151.079 180.132C151.079 181.233 151.275 182.073 151.667 182.652C152.077 183.231 152.628 183.52 153.319 183.52C154.308 183.52 154.961 183.007 155.279 181.98H161.103C160.711 183.921 159.833 185.443 158.471 186.544C157.108 187.645 155.428 188.196 153.431 188.196C151.881 188.196 150.5 187.869 149.287 187.216C148.092 186.563 147.159 185.629 146.487 184.416C145.815 183.203 145.479 181.775 145.479 180.132ZM162.486 180.132C162.486 178.508 162.776 177.089 163.354 175.876C163.952 174.663 164.754 173.729 165.762 173.076C166.789 172.423 167.928 172.096 169.178 172.096C170.261 172.096 171.194 172.311 171.978 172.74C172.762 173.169 173.369 173.748 173.798 174.476V172.292H179.286V188H173.798V185.816C173.369 186.544 172.753 187.123 171.95 187.552C171.166 187.981 170.242 188.196 169.178 188.196C167.928 188.196 166.789 187.869 165.762 187.216C164.754 186.563 163.952 185.629 163.354 184.416C162.776 183.184 162.486 181.756 162.486 180.132ZM173.798 180.132C173.798 179.124 173.518 178.331 172.958 177.752C172.417 177.173 171.745 176.884 170.942 176.884C170.121 176.884 169.44 177.173 168.898 177.752C168.357 178.312 168.086 179.105 168.086 180.132C168.086 181.14 168.357 181.943 168.898 182.54C169.44 183.119 170.121 183.408 170.942 183.408C171.745 183.408 172.417 183.119 172.958 182.54C173.518 181.961 173.798 181.159 173.798 180.132ZM202.938 172.152C204.916 172.152 206.466 172.749 207.586 173.944C208.724 175.139 209.294 176.772 209.294 178.844V188H203.806V179.572C203.806 178.732 203.572 178.079 203.106 177.612C202.639 177.145 202.004 176.912 201.202 176.912C200.399 176.912 199.764 177.145 199.298 177.612C198.831 178.079 198.598 178.732 198.598 179.572V188H193.11V179.572C193.11 178.732 192.876 178.079 192.41 177.612C191.962 177.145 191.336 176.912 190.534 176.912C189.712 176.912 189.068 177.145 188.602 177.612C188.135 178.079 187.902 178.732 187.902 179.572V188H182.414V172.292H187.902V174.364C188.387 173.692 189.012 173.16 189.778 172.768C190.562 172.357 191.458 172.152 192.466 172.152C193.623 172.152 194.65 172.404 195.546 172.908C196.46 173.412 197.179 174.121 197.702 175.036C198.262 174.177 198.999 173.487 199.914 172.964C200.828 172.423 201.836 172.152 202.938 172.152ZM216.764 180.132C216.764 178.508 217.053 177.089 217.632 175.876C218.229 174.663 219.041 173.729 220.068 173.076C221.094 172.423 222.233 172.096 223.484 172.096C224.492 172.096 225.388 172.311 226.172 172.74C226.974 173.151 227.6 173.72 228.048 174.448V167.28H233.564V188H228.048V185.816C227.618 186.544 227.012 187.123 226.228 187.552C225.444 187.981 224.52 188.196 223.456 188.196C222.205 188.196 221.066 187.869 220.04 187.216C219.032 186.563 218.229 185.629 217.632 184.416C217.053 183.184 216.764 181.756 216.764 180.132ZM228.076 180.132C228.076 179.124 227.796 178.331 227.236 177.752C226.694 177.173 226.022 176.884 225.22 176.884C224.398 176.884 223.717 177.173 223.176 177.752C222.634 178.312 222.364 179.105 222.364 180.132C222.364 181.14 222.634 181.943 223.176 182.54C223.717 183.119 224.398 183.408 225.22 183.408C226.022 183.408 226.694 183.119 227.236 182.54C227.796 181.961 228.076 181.159 228.076 180.132ZM243.999 188.196C242.431 188.196 241.022 187.869 239.771 187.216C238.539 186.563 237.568 185.629 236.859 184.416C236.15 183.203 235.795 181.775 235.795 180.132C235.795 178.508 236.15 177.089 236.859 175.876C237.587 174.663 238.567 173.729 239.799 173.076C241.05 172.423 242.459 172.096 244.027 172.096C245.595 172.096 246.995 172.423 248.227 173.076C249.478 173.729 250.458 174.663 251.167 175.876C251.895 177.089 252.259 178.508 252.259 180.132C252.259 181.756 251.895 183.184 251.167 184.416C250.458 185.629 249.478 186.563 248.227 187.216C246.976 187.869 245.567 188.196 243.999 188.196ZM243.999 183.436C244.764 183.436 245.399 183.156 245.903 182.596C246.426 182.017 246.687 181.196 246.687 180.132C246.687 179.068 246.426 178.256 245.903 177.696C245.399 177.136 244.774 176.856 244.027 176.856C243.28 176.856 242.655 177.136 242.151 177.696C241.647 178.256 241.395 179.068 241.395 180.132C241.395 181.215 241.638 182.036 242.123 182.596C242.608 183.156 243.234 183.436 243.999 183.436ZM269.5 179.964C269.5 180.393 269.472 180.823 269.416 181.252H259.028C259.084 182.111 259.317 182.755 259.728 183.184C260.157 183.595 260.698 183.8 261.352 183.8C262.266 183.8 262.92 183.389 263.312 182.568H269.164C268.921 183.651 268.445 184.621 267.736 185.48C267.045 186.32 266.168 186.983 265.104 187.468C264.04 187.953 262.864 188.196 261.576 188.196C260.026 188.196 258.645 187.869 257.432 187.216C256.237 186.563 255.294 185.629 254.604 184.416C253.932 183.203 253.596 181.775 253.596 180.132C253.596 178.489 253.932 177.071 254.604 175.876C255.276 174.663 256.209 173.729 257.404 173.076C258.617 172.423 260.008 172.096 261.576 172.096C263.125 172.096 264.497 172.413 265.692 173.048C266.886 173.683 267.82 174.597 268.492 175.792C269.164 176.968 269.5 178.359 269.5 179.964ZM263.9 178.592C263.9 177.92 263.676 177.397 263.228 177.024C262.78 176.632 262.22 176.436 261.548 176.436C260.876 176.436 260.325 176.623 259.896 176.996C259.466 177.351 259.186 177.883 259.056 178.592H263.9ZM282.022 172.152C283.832 172.152 285.27 172.759 286.334 173.972C287.398 175.167 287.93 176.791 287.93 178.844V188H282.442V179.572C282.442 178.676 282.208 177.976 281.742 177.472C281.275 176.949 280.65 176.688 279.866 176.688C279.044 176.688 278.4 176.949 277.934 177.472C277.467 177.976 277.234 178.676 277.234 179.572V188H271.746V172.292H277.234V174.532C277.719 173.823 278.372 173.253 279.194 172.824C280.015 172.376 280.958 172.152 282.022 172.152ZM300.209 183.324V188H297.829C293.816 188 291.809 186.012 291.809 182.036V176.856H289.877V172.292H291.809V168.484H297.325V172.292H300.181V176.856H297.325V182.12C297.325 182.549 297.418 182.857 297.605 183.044C297.81 183.231 298.146 183.324 298.613 183.324H300.209ZM317.734 179.964C317.734 180.393 317.706 180.823 317.65 181.252H307.262C307.318 182.111 307.552 182.755 307.962 183.184C308.392 183.595 308.933 183.8 309.586 183.8C310.501 183.8 311.154 183.389 311.546 182.568H317.398C317.156 183.651 316.68 184.621 315.97 185.48C315.28 186.32 314.402 186.983 313.338 187.468C312.274 187.953 311.098 188.196 309.81 188.196C308.261 188.196 306.88 187.869 305.666 187.216C304.472 186.563 303.529 185.629 302.838 184.416C302.166 183.203 301.83 181.775 301.83 180.132C301.83 178.489 302.166 177.071 302.838 175.876C303.51 174.663 304.444 173.729 305.638 173.076C306.852 172.423 308.242 172.096 309.81 172.096C311.36 172.096 312.732 172.413 313.926 173.048C315.121 173.683 316.054 174.597 316.726 175.792C317.398 176.968 317.734 178.359 317.734 179.964ZM312.134 178.592C312.134 177.92 311.91 177.397 311.462 177.024C311.014 176.632 310.454 176.436 309.782 176.436C309.11 176.436 308.56 176.623 308.13 176.996C307.701 177.351 307.421 177.883 307.29 178.592H312.134ZM327.316 167.252L326.672 180.608H321.996L321.352 167.252H327.316ZM324.348 188.224C323.377 188.224 322.593 187.963 321.996 187.44C321.417 186.899 321.128 186.217 321.128 185.396C321.128 184.575 321.417 183.893 321.996 183.352C322.593 182.811 323.377 182.54 324.348 182.54C325.3 182.54 326.065 182.811 326.644 183.352C327.241 183.893 327.54 184.575 327.54 185.396C327.54 186.199 327.241 186.871 326.644 187.412C326.065 187.953 325.3 188.224 324.348 188.224ZM98.2708 215.624C98.2708 213.992 98.6468 212.528 99.3988 211.232C100.167 209.936 101.199 208.928 102.495 208.208C103.807 207.472 105.239 207.104 106.791 207.104C108.567 207.104 110.143 207.544 111.519 208.424C112.911 209.288 113.919 210.52 114.543 212.12H111.255C110.823 211.24 110.223 210.584 109.455 210.152C108.687 209.72 107.799 209.504 106.791 209.504C105.687 209.504 104.703 209.752 103.839 210.248C102.975 210.744 102.295 211.456 101.799 212.384C101.319 213.312 101.079 214.392 101.079 215.624C101.079 216.856 101.319 217.936 101.799 218.864C102.295 219.792 102.975 220.512 103.839 221.024C104.703 221.52 105.687 221.768 106.791 221.768C107.799 221.768 108.687 221.552 109.455 221.12C110.223 220.688 110.823 220.032 111.255 219.152H114.543C113.919 220.752 112.911 221.984 111.519 222.848C110.143 223.712 108.567 224.144 106.791 224.144C105.223 224.144 103.791 223.784 102.495 223.064C101.199 222.328 100.167 221.312 99.3988 220.016C98.6468 218.72 98.2708 217.256 98.2708 215.624ZM123.481 224.216C122.233 224.216 121.105 223.936 120.097 223.376C119.089 222.8 118.297 222 117.721 220.976C117.145 219.936 116.857 218.736 116.857 217.376C116.857 216.032 117.153 214.84 117.745 213.8C118.337 212.76 119.145 211.96 120.169 211.4C121.193 210.84 122.337 210.56 123.601 210.56C124.865 210.56 126.009 210.84 127.033 211.4C128.057 211.96 128.865 212.76 129.457 213.8C130.049 214.84 130.345 216.032 130.345 217.376C130.345 218.72 130.041 219.912 129.433 220.952C128.825 221.992 127.993 222.8 126.937 223.376C125.897 223.936 124.745 224.216 123.481 224.216ZM123.481 221.84C124.185 221.84 124.841 221.672 125.449 221.336C126.073 221 126.577 220.496 126.961 219.824C127.345 219.152 127.537 218.336 127.537 217.376C127.537 216.416 127.353 215.608 126.985 214.952C126.617 214.28 126.129 213.776 125.521 213.44C124.913 213.104 124.257 212.936 123.553 212.936C122.849 212.936 122.193 213.104 121.585 213.44C120.993 213.776 120.521 214.28 120.169 214.952C119.817 215.608 119.641 216.416 119.641 217.376C119.641 218.8 120.001 219.904 120.721 220.688C121.457 221.456 122.377 221.84 123.481 221.84ZM149.058 210.56C150.098 210.56 151.026 210.776 151.842 211.208C152.674 211.64 153.322 212.28 153.786 213.128C154.266 213.976 154.506 215 154.506 216.2V224H151.794V216.608C151.794 215.424 151.498 214.52 150.906 213.896C150.314 213.256 149.506 212.936 148.482 212.936C147.458 212.936 146.642 213.256 146.034 213.896C145.442 214.52 145.146 215.424 145.146 216.608V224H142.434V216.608C142.434 215.424 142.138 214.52 141.546 213.896C140.954 213.256 140.146 212.936 139.122 212.936C138.098 212.936 137.282 213.256 136.674 213.896C136.082 214.52 135.786 215.424 135.786 216.608V224H133.05V210.776H135.786V212.288C136.234 211.744 136.802 211.32 137.49 211.016C138.178 210.712 138.914 210.56 139.698 210.56C140.754 210.56 141.698 210.784 142.53 211.232C143.362 211.68 144.002 212.328 144.45 213.176C144.85 212.376 145.474 211.744 146.322 211.28C147.17 210.8 148.082 210.56 149.058 210.56ZM163.724 224.216C162.476 224.216 161.348 223.936 160.34 223.376C159.332 222.8 158.54 222 157.964 220.976C157.388 219.936 157.1 218.736 157.1 217.376C157.1 216.032 157.396 214.84 157.988 213.8C158.58 212.76 159.388 211.96 160.412 211.4C161.436 210.84 162.58 210.56 163.844 210.56C165.108 210.56 166.252 210.84 167.276 211.4C168.3 211.96 169.108 212.76 169.7 213.8C170.292 214.84 170.588 216.032 170.588 217.376C170.588 218.72 170.284 219.912 169.676 220.952C169.068 221.992 168.236 222.8 167.18 223.376C166.14 223.936 164.988 224.216 163.724 224.216ZM163.724 221.84C164.428 221.84 165.084 221.672 165.692 221.336C166.316 221 166.82 220.496 167.204 219.824C167.588 219.152 167.78 218.336 167.78 217.376C167.78 216.416 167.596 215.608 167.228 214.952C166.86 214.28 166.372 213.776 165.764 213.44C165.156 213.104 164.5 212.936 163.796 212.936C163.092 212.936 162.436 213.104 161.828 213.44C161.236 213.776 160.764 214.28 160.412 214.952C160.06 215.608 159.884 216.416 159.884 217.376C159.884 218.8 160.244 219.904 160.964 220.688C161.7 221.456 162.62 221.84 163.724 221.84ZM178.615 217.328C178.615 216 178.887 214.824 179.431 213.8C179.991 212.776 180.743 211.984 181.687 211.424C182.647 210.848 183.711 210.56 184.879 210.56C185.903 210.56 186.807 210.768 187.591 211.184C188.391 211.6 189.007 212.104 189.439 212.696V210.776H192.199V230.288H189.439V222.08C189.007 222.672 188.383 223.176 187.567 223.592C186.751 224.008 185.823 224.216 184.783 224.216C183.647 224.216 182.607 223.928 181.663 223.352C180.735 222.76 179.991 221.944 179.431 220.904C178.887 219.848 178.615 218.656 178.615 217.328ZM189.439 217.376C189.439 216.464 189.247 215.672 188.863 215C188.495 214.328 188.007 213.816 187.399 213.464C186.791 213.112 186.135 212.936 185.431 212.936C184.727 212.936 184.071 213.112 183.463 213.464C182.855 213.8 182.359 214.304 181.975 214.976C181.607 215.632 181.423 216.416 181.423 217.328C181.423 218.24 181.607 219.04 181.975 219.728C182.359 220.416 182.855 220.944 183.463 221.312C184.087 221.664 184.743 221.84 185.431 221.84C186.135 221.84 186.791 221.664 187.399 221.312C188.007 220.96 188.495 220.448 188.863 219.776C189.247 219.088 189.439 218.288 189.439 217.376ZM207.768 210.776V224H205.032V222.44C204.6 222.984 204.032 223.416 203.328 223.736C202.64 224.04 201.904 224.192 201.12 224.192C200.08 224.192 199.144 223.976 198.312 223.544C197.496 223.112 196.848 222.472 196.368 221.624C195.904 220.776 195.672 219.752 195.672 218.552V210.776H198.384V218.144C198.384 219.328 198.68 220.24 199.272 220.88C199.864 221.504 200.672 221.816 201.696 221.816C202.72 221.816 203.528 221.504 204.12 220.88C204.728 220.24 205.032 219.328 205.032 218.144V210.776H207.768ZM210.466 217.328C210.466 216 210.738 214.824 211.282 213.8C211.842 212.776 212.594 211.984 213.538 211.424C214.498 210.848 215.554 210.56 216.706 210.56C217.746 210.56 218.65 210.768 219.418 211.184C220.202 211.584 220.826 212.088 221.29 212.696V210.776H224.05V224H221.29V222.032C220.826 222.656 220.194 223.176 219.394 223.592C218.594 224.008 217.682 224.216 216.658 224.216C215.522 224.216 214.482 223.928 213.538 223.352C212.594 222.76 211.842 221.944 211.282 220.904C210.738 219.848 210.466 218.656 210.466 217.328ZM221.29 217.376C221.29 216.464 221.098 215.672 220.714 215C220.346 214.328 219.858 213.816 219.25 213.464C218.642 213.112 217.986 212.936 217.282 212.936C216.578 212.936 215.922 213.112 215.314 213.464C214.706 213.8 214.21 214.304 213.826 214.976C213.458 215.632 213.274 216.416 213.274 217.328C213.274 218.24 213.458 219.04 213.826 219.728C214.21 220.416 214.706 220.944 215.314 221.312C215.938 221.664 216.594 221.84 217.282 221.84C217.986 221.84 218.642 221.664 219.25 221.312C219.858 220.96 220.346 220.448 220.714 219.776C221.098 219.088 221.29 218.288 221.29 217.376ZM230.38 206.24V224H227.644V206.24H230.38ZM233.06 217.328C233.06 216 233.332 214.824 233.876 213.8C234.436 212.776 235.188 211.984 236.132 211.424C237.092 210.848 238.156 210.56 239.324 210.56C240.348 210.56 241.252 210.768 242.036 211.184C242.836 211.6 243.452 212.104 243.884 212.696V210.776H246.644V230.288H243.884V222.08C243.452 222.672 242.828 223.176 242.012 223.592C241.196 224.008 240.268 224.216 239.228 224.216C238.092 224.216 237.052 223.928 236.108 223.352C235.18 222.76 234.436 221.944 233.876 220.904C233.332 219.848 233.06 218.656 233.06 217.328ZM243.884 217.376C243.884 216.464 243.692 215.672 243.308 215C242.94 214.328 242.452 213.816 241.844 213.464C241.236 213.112 240.58 212.936 239.876 212.936C239.172 212.936 238.516 213.112 237.908 213.464C237.3 213.8 236.804 214.304 236.42 214.976C236.052 215.632 235.868 216.416 235.868 217.328C235.868 218.24 236.052 219.04 236.42 219.728C236.804 220.416 237.3 220.944 237.908 221.312C238.532 221.664 239.188 221.84 239.876 221.84C240.58 221.84 241.236 221.664 241.844 221.312C242.452 220.96 242.94 220.448 243.308 219.776C243.692 219.088 243.884 218.288 243.884 217.376ZM262.214 210.776V224H259.478V222.44C259.046 222.984 258.478 223.416 257.774 223.736C257.086 224.04 256.35 224.192 255.566 224.192C254.526 224.192 253.59 223.976 252.758 223.544C251.942 223.112 251.294 222.472 250.814 221.624C250.35 220.776 250.118 219.752 250.118 218.552V210.776H252.83V218.144C252.83 219.328 253.126 220.24 253.718 220.88C254.31 221.504 255.118 221.816 256.142 221.816C257.166 221.816 257.974 221.504 258.566 220.88C259.174 220.24 259.478 219.328 259.478 218.144V210.776H262.214ZM277.943 217.064C277.943 217.56 277.911 218.008 277.847 218.408H267.743C267.823 219.464 268.215 220.312 268.919 220.952C269.623 221.592 270.487 221.912 271.511 221.912C272.983 221.912 274.023 221.296 274.631 220.064H277.583C277.183 221.28 276.455 222.28 275.399 223.064C274.359 223.832 273.063 224.216 271.511 224.216C270.247 224.216 269.111 223.936 268.103 223.376C267.111 222.8 266.327 222 265.751 220.976C265.191 219.936 264.911 218.736 264.911 217.376C264.911 216.016 265.183 214.824 265.727 213.8C266.287 212.76 267.063 211.96 268.055 211.4C269.063 210.84 270.215 210.56 271.511 210.56C272.759 210.56 273.871 210.832 274.847 211.376C275.823 211.92 276.583 212.688 277.127 213.68C277.671 214.656 277.943 215.784 277.943 217.064ZM275.087 216.2C275.071 215.192 274.711 214.384 274.007 213.776C273.303 213.168 272.431 212.864 271.391 212.864C270.447 212.864 269.639 213.168 268.967 213.776C268.295 214.368 267.895 215.176 267.767 216.2H275.087ZM283.372 212.696C283.772 212.024 284.3 211.504 284.956 211.136C285.628 210.752 286.42 210.56 287.332 210.56V213.392H286.636C285.564 213.392 284.748 213.664 284.188 214.208C283.644 214.752 283.372 215.696 283.372 217.04V224H280.636V210.776H283.372V212.696ZM301.817 224.216C300.569 224.216 299.441 223.936 298.433 223.376C297.425 222.8 296.633 222 296.057 220.976C295.481 219.936 295.193 218.736 295.193 217.376C295.193 216.032 295.489 214.84 296.081 213.8C296.673 212.76 297.481 211.96 298.505 211.4C299.529 210.84 300.673 210.56 301.937 210.56C303.201 210.56 304.345 210.84 305.369 211.4C306.393 211.96 307.201 212.76 307.793 213.8C308.385 214.84 308.681 216.032 308.681 217.376C308.681 218.72 308.377 219.912 307.769 220.952C307.161 221.992 306.329 222.8 305.273 223.376C304.233 223.936 303.081 224.216 301.817 224.216ZM301.817 221.84C302.521 221.84 303.177 221.672 303.785 221.336C304.409 221 304.913 220.496 305.297 219.824C305.681 219.152 305.873 218.336 305.873 217.376C305.873 216.416 305.689 215.608 305.321 214.952C304.953 214.28 304.465 213.776 303.857 213.44C303.249 213.104 302.593 212.936 301.889 212.936C301.185 212.936 300.529 213.104 299.921 213.44C299.329 213.776 298.857 214.28 298.505 214.952C298.153 215.608 297.977 216.416 297.977 217.376C297.977 218.8 298.337 219.904 299.057 220.688C299.793 221.456 300.713 221.84 301.817 221.84ZM323.362 210.776V224H320.626V222.44C320.194 222.984 319.626 223.416 318.922 223.736C318.234 224.04 317.498 224.192 316.714 224.192C315.674 224.192 314.738 223.976 313.906 223.544C313.09 223.112 312.442 222.472 311.962 221.624C311.498 220.776 311.266 219.752 311.266 218.552V210.776H313.978V218.144C313.978 219.328 314.274 220.24 314.866 220.88C315.458 221.504 316.266 221.816 317.29 221.816C318.314 221.816 319.122 221.504 319.714 220.88C320.322 220.24 320.626 219.328 320.626 218.144V210.776H323.362ZM330.164 213.008V220.328C330.164 220.824 330.276 221.184 330.5 221.408C330.74 221.616 331.14 221.72 331.7 221.72H333.38V224H331.22C329.988 224 329.044 223.712 328.388 223.136C327.732 222.56 327.404 221.624 327.404 220.328V213.008H325.844V210.776H327.404V207.488H330.164V210.776H333.38V213.008H330.164ZM338.638 212.696C339.038 212.024 339.566 211.504 340.222 211.136C340.894 210.752 341.686 210.56 342.598 210.56V213.392H341.902C340.83 213.392 340.014 213.664 339.454 214.208C338.91 214.752 338.638 215.696 338.638 217.04V224H335.902V210.776H338.638V212.696ZM350.849 224.216C349.601 224.216 348.473 223.936 347.465 223.376C346.457 222.8 345.665 222 345.089 220.976C344.513 219.936 344.225 218.736 344.225 217.376C344.225 216.032 344.521 214.84 345.113 213.8C345.705 212.76 346.513 211.96 347.537 211.4C348.561 210.84 349.705 210.56 350.969 210.56C352.233 210.56 353.377 210.84 354.401 211.4C355.425 211.96 356.233 212.76 356.825 213.8C357.417 214.84 357.713 216.032 357.713 217.376C357.713 218.72 357.409 219.912 356.801 220.952C356.193 221.992 355.361 222.8 354.305 223.376C353.265 223.936 352.113 224.216 350.849 224.216ZM350.849 221.84C351.553 221.84 352.209 221.672 352.817 221.336C353.441 221 353.945 220.496 354.329 219.824C354.713 219.152 354.905 218.336 354.905 217.376C354.905 216.416 354.721 215.608 354.353 214.952C353.985 214.28 353.497 213.776 352.889 213.44C352.281 213.104 351.625 212.936 350.921 212.936C350.217 212.936 349.561 213.104 348.953 213.44C348.361 213.776 347.889 214.28 347.537 214.952C347.185 215.608 347.009 216.416 347.009 217.376C347.009 218.8 347.369 219.904 348.089 220.688C348.825 221.456 349.745 221.84 350.849 221.84ZM80.3997 253.328C80.3997 252 80.6717 250.824 81.2157 249.8C81.7757 248.776 82.5277 247.984 83.4717 247.424C84.4317 246.848 85.4877 246.56 86.6397 246.56C87.6797 246.56 88.5837 246.768 89.3517 247.184C90.1357 247.584 90.7597 248.088 91.2237 248.696V246.776H93.9837V260H91.2237V258.032C90.7597 258.656 90.1277 259.176 89.3277 259.592C88.5277 260.008 87.6157 260.216 86.5917 260.216C85.4557 260.216 84.4157 259.928 83.4717 259.352C82.5277 258.76 81.7757 257.944 81.2157 256.904C80.6717 255.848 80.3997 254.656 80.3997 253.328ZM91.2237 253.376C91.2237 252.464 91.0317 251.672 90.6477 251C90.2797 250.328 89.7917 249.816 89.1837 249.464C88.5757 249.112 87.9197 248.936 87.2157 248.936C86.5117 248.936 85.8557 249.112 85.2477 249.464C84.6397 249.8 84.1437 250.304 83.7597 250.976C83.3917 251.632 83.2077 252.416 83.2077 253.328C83.2077 254.24 83.3917 255.04 83.7597 255.728C84.1437 256.416 84.6397 256.944 85.2477 257.312C85.8717 257.664 86.5277 257.84 87.2157 257.84C87.9197 257.84 88.5757 257.664 89.1837 257.312C89.7917 256.96 90.2797 256.448 90.6477 255.776C91.0317 255.088 91.2237 254.288 91.2237 253.376ZM104.249 246.56C105.289 246.56 106.217 246.776 107.033 247.208C107.865 247.64 108.513 248.28 108.977 249.128C109.441 249.976 109.673 251 109.673 252.2V260H106.961V252.608C106.961 251.424 106.665 250.52 106.073 249.896C105.481 249.256 104.673 248.936 103.649 248.936C102.625 248.936 101.809 249.256 101.201 249.896C100.609 250.52 100.313 251.424 100.313 252.608V260H97.5773V246.776H100.313V248.288C100.761 247.744 101.329 247.32 102.017 247.016C102.721 246.712 103.465 246.56 104.249 246.56ZM114.555 245.024C114.059 245.024 113.643 244.856 113.307 244.52C112.971 244.184 112.803 243.768 112.803 243.272C112.803 242.776 112.971 242.36 113.307 242.024C113.643 241.688 114.059 241.52 114.555 241.52C115.035 241.52 115.443 241.688 115.779 242.024C116.115 242.36 116.283 242.776 116.283 243.272C116.283 243.768 116.115 244.184 115.779 244.52C115.443 244.856 115.035 245.024 114.555 245.024ZM115.899 246.776V260H113.163V246.776H115.899ZM135.499 246.56C136.539 246.56 137.467 246.776 138.283 247.208C139.115 247.64 139.763 248.28 140.227 249.128C140.707 249.976 140.947 251 140.947 252.2V260H138.235V252.608C138.235 251.424 137.939 250.52 137.347 249.896C136.755 249.256 135.947 248.936 134.923 248.936C133.899 248.936 133.083 249.256 132.475 249.896C131.883 250.52 131.587 251.424 131.587 252.608V260H128.875V252.608C128.875 251.424 128.579 250.52 127.987 249.896C127.395 249.256 126.587 248.936 125.563 248.936C124.539 248.936 123.723 249.256 123.115 249.896C122.523 250.52 122.227 251.424 122.227 252.608V260H119.491V246.776H122.227V248.288C122.675 247.744 123.243 247.32 123.931 247.016C124.619 246.712 125.355 246.56 126.139 246.56C127.195 246.56 128.139 246.784 128.971 247.232C129.803 247.68 130.443 248.328 130.891 249.176C131.291 248.376 131.915 247.744 132.763 247.28C133.611 246.8 134.523 246.56 135.499 246.56ZM143.517 253.328C143.517 252 143.789 250.824 144.333 249.8C144.893 248.776 145.645 247.984 146.589 247.424C147.549 246.848 148.605 246.56 149.757 246.56C150.797 246.56 151.701 246.768 152.469 247.184C153.253 247.584 153.877 248.088 154.341 248.696V246.776H157.101V260H154.341V258.032C153.877 258.656 153.245 259.176 152.445 259.592C151.645 260.008 150.733 260.216 149.709 260.216C148.573 260.216 147.533 259.928 146.589 259.352C145.645 258.76 144.893 257.944 144.333 256.904C143.789 255.848 143.517 254.656 143.517 253.328ZM154.341 253.376C154.341 252.464 154.149 251.672 153.765 251C153.397 250.328 152.909 249.816 152.301 249.464C151.693 249.112 151.037 248.936 150.333 248.936C149.629 248.936 148.973 249.112 148.365 249.464C147.757 249.8 147.261 250.304 146.877 250.976C146.509 251.632 146.325 252.416 146.325 253.328C146.325 254.24 146.509 255.04 146.877 255.728C147.261 256.416 147.757 256.944 148.365 257.312C148.989 257.664 149.645 257.84 150.333 257.84C151.037 257.84 151.693 257.664 152.301 257.312C152.909 256.96 153.397 256.448 153.765 255.776C154.149 255.088 154.341 254.288 154.341 253.376ZM163.431 242.24V260H160.695V242.24H163.431ZM178.993 260.216C177.745 260.216 176.617 259.936 175.609 259.376C174.601 258.8 173.809 258 173.233 256.976C172.657 255.936 172.369 254.736 172.369 253.376C172.369 252.032 172.665 250.84 173.257 249.8C173.849 248.76 174.657 247.96 175.681 247.4C176.705 246.84 177.849 246.56 179.113 246.56C180.377 246.56 181.521 246.84 182.545 247.4C183.569 247.96 184.377 248.76 184.969 249.8C185.561 250.84 185.857 252.032 185.857 253.376C185.857 254.72 185.553 255.912 184.945 256.952C184.337 257.992 183.505 258.8 182.449 259.376C181.409 259.936 180.257 260.216 178.993 260.216ZM178.993 257.84C179.697 257.84 180.353 257.672 180.961 257.336C181.585 257 182.089 256.496 182.473 255.824C182.857 255.152 183.049 254.336 183.049 253.376C183.049 252.416 182.865 251.608 182.497 250.952C182.129 250.28 181.641 249.776 181.033 249.44C180.425 249.104 179.769 248.936 179.065 248.936C178.361 248.936 177.705 249.104 177.097 249.44C176.505 249.776 176.033 250.28 175.681 250.952C175.329 251.608 175.153 252.416 175.153 253.376C175.153 254.8 175.513 255.904 176.233 256.688C176.969 257.456 177.889 257.84 178.993 257.84ZM193.362 260.216C192.322 260.216 191.386 260.032 190.554 259.664C189.738 259.28 189.09 258.768 188.61 258.128C188.13 257.472 187.874 256.744 187.842 255.944H190.674C190.722 256.504 190.986 256.976 191.466 257.36C191.962 257.728 192.578 257.912 193.314 257.912C194.082 257.912 194.674 257.768 195.09 257.48C195.522 257.176 195.738 256.792 195.738 256.328C195.738 255.832 195.498 255.464 195.018 255.224C194.554 254.984 193.81 254.72 192.786 254.432C191.794 254.16 190.986 253.896 190.362 253.64C189.738 253.384 189.194 252.992 188.73 252.464C188.282 251.936 188.058 251.24 188.058 250.376C188.058 249.672 188.266 249.032 188.682 248.456C189.098 247.864 189.69 247.4 190.458 247.064C191.242 246.728 192.138 246.56 193.146 246.56C194.65 246.56 195.858 246.944 196.77 247.712C197.698 248.464 198.194 249.496 198.258 250.808H195.522C195.474 250.216 195.234 249.744 194.802 249.392C194.37 249.04 193.786 248.864 193.05 248.864C192.33 248.864 191.778 249 191.394 249.272C191.01 249.544 190.818 249.904 190.818 250.352C190.818 250.704 190.946 251 191.202 251.24C191.458 251.48 191.77 251.672 192.138 251.816C192.506 251.944 193.05 252.112 193.77 252.32C194.73 252.576 195.514 252.84 196.122 253.112C196.746 253.368 197.282 253.752 197.73 254.264C198.178 254.776 198.41 255.456 198.426 256.304C198.426 257.056 198.218 257.728 197.802 258.32C197.386 258.912 196.794 259.376 196.026 259.712C195.274 260.048 194.386 260.216 193.362 260.216ZM206.704 253.376C206.704 252.016 206.976 250.824 207.52 249.8C208.08 248.76 208.848 247.96 209.824 247.4C210.8 246.84 211.92 246.56 213.184 246.56C214.784 246.56 216.104 246.944 217.144 247.712C218.2 248.464 218.912 249.544 219.28 250.952H216.328C216.088 250.296 215.704 249.784 215.176 249.416C214.648 249.048 213.984 248.864 213.184 248.864C212.064 248.864 211.168 249.264 210.496 250.064C209.84 250.848 209.512 251.952 209.512 253.376C209.512 254.8 209.84 255.912 210.496 256.712C211.168 257.512 212.064 257.912 213.184 257.912C214.768 257.912 215.816 257.216 216.328 255.824H219.28C218.896 257.168 218.176 258.24 217.12 259.04C216.064 259.824 214.752 260.216 213.184 260.216C211.92 260.216 210.8 259.936 209.824 259.376C208.848 258.8 208.08 258 207.52 256.976C206.976 255.936 206.704 254.736 206.704 253.376ZM221.095 253.328C221.095 252 221.367 250.824 221.911 249.8C222.471 248.776 223.223 247.984 224.167 247.424C225.127 246.848 226.183 246.56 227.335 246.56C228.375 246.56 229.279 246.768 230.047 247.184C230.831 247.584 231.455 248.088 231.919 248.696V246.776H234.679V260H231.919V258.032C231.455 258.656 230.823 259.176 230.023 259.592C229.223 260.008 228.311 260.216 227.287 260.216C226.151 260.216 225.111 259.928 224.167 259.352C223.223 258.76 222.471 257.944 221.911 256.904C221.367 255.848 221.095 254.656 221.095 253.328ZM231.919 253.376C231.919 252.464 231.727 251.672 231.343 251C230.975 250.328 230.487 249.816 229.879 249.464C229.271 249.112 228.615 248.936 227.911 248.936C227.207 248.936 226.551 249.112 225.943 249.464C225.335 249.8 224.839 250.304 224.455 250.976C224.087 251.632 223.903 252.416 223.903 253.328C223.903 254.24 224.087 255.04 224.455 255.728C224.839 256.416 225.335 256.944 225.943 257.312C226.567 257.664 227.223 257.84 227.911 257.84C228.615 257.84 229.271 257.664 229.879 257.312C230.487 256.96 230.975 256.448 231.343 255.776C231.727 255.088 231.919 254.288 231.919 253.376ZM224.431 245.408C224.559 244.48 224.863 243.784 225.343 243.32C225.823 242.84 226.423 242.6 227.143 242.6C227.447 242.6 227.711 242.648 227.935 242.744C228.159 242.84 228.431 242.984 228.751 243.176C228.991 243.336 229.191 243.456 229.351 243.536C229.527 243.616 229.719 243.656 229.927 243.656C230.199 243.656 230.423 243.576 230.599 243.416C230.791 243.24 230.911 242.984 230.959 242.648H232.495C232.367 243.576 232.063 244.28 231.583 244.76C231.103 245.224 230.503 245.456 229.783 245.456C229.479 245.456 229.207 245.408 228.967 245.312C228.727 245.2 228.463 245.048 228.175 244.856C227.887 244.68 227.663 244.56 227.503 244.496C227.359 244.416 227.191 244.376 226.999 244.376C226.727 244.376 226.495 244.464 226.303 244.64C226.127 244.816 226.015 245.072 225.967 245.408H224.431ZM250.393 253.064C250.393 253.56 250.361 254.008 250.297 254.408H240.193C240.273 255.464 240.665 256.312 241.369 256.952C242.073 257.592 242.937 257.912 243.961 257.912C245.433 257.912 246.473 257.296 247.081 256.064H250.033C249.633 257.28 248.905 258.28 247.849 259.064C246.809 259.832 245.513 260.216 243.961 260.216C242.697 260.216 241.561 259.936 240.553 259.376C239.561 258.8 238.777 258 238.201 256.976C237.641 255.936 237.361 254.736 237.361 253.376C237.361 252.016 237.633 250.824 238.177 249.8C238.737 248.76 239.513 247.96 240.505 247.4C241.513 246.84 242.665 246.56 243.961 246.56C245.209 246.56 246.321 246.832 247.297 247.376C248.273 247.92 249.033 248.688 249.577 249.68C250.121 250.656 250.393 251.784 250.393 253.064ZM247.537 252.2C247.521 251.192 247.161 250.384 246.457 249.776C245.753 249.168 244.881 248.864 243.841 248.864C242.897 248.864 242.089 249.168 241.417 249.776C240.745 250.368 240.345 251.176 240.217 252.2H247.537ZM257.885 260.216C256.845 260.216 255.909 260.032 255.077 259.664C254.261 259.28 253.613 258.768 253.133 258.128C252.653 257.472 252.397 256.744 252.365 255.944H255.197C255.245 256.504 255.509 256.976 255.989 257.36C256.485 257.728 257.101 257.912 257.837 257.912C258.605 257.912 259.197 257.768 259.613 257.48C260.045 257.176 260.261 256.792 260.261 256.328C260.261 255.832 260.021 255.464 259.541 255.224C259.077 254.984 258.333 254.72 257.309 254.432C256.317 254.16 255.509 253.896 254.885 253.64C254.261 253.384 253.717 252.992 253.253 252.464C252.805 251.936 252.581 251.24 252.581 250.376C252.581 249.672 252.789 249.032 253.205 248.456C253.621 247.864 254.213 247.4 254.981 247.064C255.765 246.728 256.661 246.56 257.669 246.56C259.173 246.56 260.381 246.944 261.293 247.712C262.221 248.464 262.717 249.496 262.781 250.808H260.045C259.997 250.216 259.757 249.744 259.325 249.392C258.893 249.04 258.309 248.864 257.573 248.864C256.853 248.864 256.301 249 255.917 249.272C255.533 249.544 255.341 249.904 255.341 250.352C255.341 250.704 255.469 251 255.725 251.24C255.981 251.48 256.293 251.672 256.661 251.816C257.029 251.944 257.573 252.112 258.293 252.32C259.253 252.576 260.037 252.84 260.645 253.112C261.269 253.368 261.805 253.752 262.253 254.264C262.701 254.776 262.933 255.456 262.949 256.304C262.949 257.056 262.741 257.728 262.325 258.32C261.909 258.912 261.317 259.376 260.549 259.712C259.797 260.048 258.909 260.216 257.885 260.216ZM275.332 249.008V256.328C275.332 256.824 275.444 257.184 275.668 257.408C275.908 257.616 276.308 257.72 276.868 257.72H278.548V260H276.388C275.156 260 274.212 259.712 273.556 259.136C272.9 258.56 272.572 257.624 272.572 256.328V249.008H271.012V246.776H272.572V243.488H275.332V246.776H278.548V249.008H275.332ZM280.158 253.328C280.158 252 280.43 250.824 280.974 249.8C281.534 248.776 282.286 247.984 283.23 247.424C284.19 246.848 285.246 246.56 286.398 246.56C287.438 246.56 288.342 246.768 289.11 247.184C289.894 247.584 290.518 248.088 290.982 248.696V246.776H293.742V260H290.982V258.032C290.518 258.656 289.886 259.176 289.086 259.592C288.286 260.008 287.374 260.216 286.35 260.216C285.214 260.216 284.174 259.928 283.23 259.352C282.286 258.76 281.534 257.944 280.974 256.904C280.43 255.848 280.158 254.656 280.158 253.328ZM290.982 253.376C290.982 252.464 290.79 251.672 290.406 251C290.038 250.328 289.55 249.816 288.942 249.464C288.334 249.112 287.678 248.936 286.974 248.936C286.27 248.936 285.614 249.112 285.006 249.464C284.398 249.8 283.902 250.304 283.518 250.976C283.15 251.632 282.966 252.416 282.966 253.328C282.966 254.24 283.15 255.04 283.518 255.728C283.902 256.416 284.398 256.944 285.006 257.312C285.63 257.664 286.286 257.84 286.974 257.84C287.678 257.84 288.334 257.664 288.942 257.312C289.55 256.96 290.038 256.448 290.406 255.776C290.79 255.088 290.982 254.288 290.982 253.376ZM313.343 246.56C314.383 246.56 315.311 246.776 316.127 247.208C316.959 247.64 317.607 248.28 318.071 249.128C318.551 249.976 318.791 251 318.791 252.2V260H316.079V252.608C316.079 251.424 315.783 250.52 315.191 249.896C314.599 249.256 313.791 248.936 312.767 248.936C311.743 248.936 310.927 249.256 310.319 249.896C309.727 250.52 309.431 251.424 309.431 252.608V260H306.719V252.608C306.719 251.424 306.423 250.52 305.831 249.896C305.239 249.256 304.431 248.936 303.407 248.936C302.383 248.936 301.567 249.256 300.959 249.896C300.367 250.52 300.071 251.424 300.071 252.608V260H297.335V246.776H300.071V248.288C300.519 247.744 301.087 247.32 301.775 247.016C302.463 246.712 303.199 246.56 303.983 246.56C305.039 246.56 305.983 246.784 306.815 247.232C307.647 247.68 308.287 248.328 308.735 249.176C309.135 248.376 309.759 247.744 310.607 247.28C311.455 246.8 312.367 246.56 313.343 246.56ZM325.009 248.744C325.473 248.104 326.105 247.584 326.905 247.184C327.721 246.768 328.625 246.56 329.617 246.56C330.785 246.56 331.841 246.84 332.785 247.4C333.729 247.96 334.473 248.76 335.017 249.8C335.561 250.824 335.833 252 335.833 253.328C335.833 254.656 335.561 255.848 335.017 256.904C334.473 257.944 333.721 258.76 332.761 259.352C331.817 259.928 330.769 260.216 329.617 260.216C328.593 260.216 327.681 260.016 326.881 259.616C326.097 259.216 325.473 258.704 325.009 258.08V260H322.273V242.24H325.009V248.744ZM333.049 253.328C333.049 252.416 332.857 251.632 332.473 250.976C332.105 250.304 331.609 249.8 330.985 249.464C330.377 249.112 329.721 248.936 329.017 248.936C328.329 248.936 327.673 249.112 327.049 249.464C326.441 249.816 325.945 250.328 325.561 251C325.193 251.672 325.009 252.464 325.009 253.376C325.009 254.288 325.193 255.088 325.561 255.776C325.945 256.448 326.441 256.96 327.049 257.312C327.673 257.664 328.329 257.84 329.017 257.84C329.721 257.84 330.377 257.664 330.985 257.312C331.609 256.944 332.105 256.416 332.473 255.728C332.857 255.04 333.049 254.24 333.049 253.328ZM350.658 253.064C350.658 253.56 350.626 254.008 350.562 254.408H340.458C340.538 255.464 340.93 256.312 341.634 256.952C342.338 257.592 343.202 257.912 344.226 257.912C345.698 257.912 346.738 257.296 347.346 256.064H350.298C349.898 257.28 349.17 258.28 348.114 259.064C347.074 259.832 345.778 260.216 344.226 260.216C342.962 260.216 341.826 259.936 340.818 259.376C339.826 258.8 339.042 258 338.466 256.976C337.906 255.936 337.626 254.736 337.626 253.376C337.626 252.016 337.898 250.824 338.442 249.8C339.002 248.76 339.778 247.96 340.77 247.4C341.778 246.84 342.93 246.56 344.226 246.56C345.474 246.56 346.586 246.832 347.562 247.376C348.538 247.92 349.298 248.688 349.842 249.68C350.386 250.656 350.658 251.784 350.658 253.064ZM347.802 252.2C347.786 251.192 347.426 250.384 346.722 249.776C346.018 249.168 345.146 248.864 344.106 248.864C343.162 248.864 342.354 249.168 341.682 249.776C341.01 250.368 340.61 251.176 340.482 252.2H347.802ZM346.626 243.224L341.322 245.84V243.824L346.626 240.896V243.224ZM369.359 246.56C370.399 246.56 371.327 246.776 372.143 247.208C372.975 247.64 373.623 248.28 374.087 249.128C374.567 249.976 374.807 251 374.807 252.2V260H372.095V252.608C372.095 251.424 371.799 250.52 371.207 249.896C370.615 249.256 369.807 248.936 368.783 248.936C367.759 248.936 366.943 249.256 366.335 249.896C365.743 250.52 365.447 251.424 365.447 252.608V260H362.735V252.608C362.735 251.424 362.439 250.52 361.847 249.896C361.255 249.256 360.447 248.936 359.423 248.936C358.399 248.936 357.583 249.256 356.975 249.896C356.383 250.52 356.087 251.424 356.087 252.608V260H353.351V246.776H356.087V248.288C356.535 247.744 357.103 247.32 357.791 247.016C358.479 246.712 359.215 246.56 359.999 246.56C361.055 246.56 361.999 246.784 362.831 247.232C363.663 247.68 364.303 248.328 364.751 249.176C365.151 248.376 365.775 247.744 366.623 247.28C367.471 246.8 368.383 246.56 369.359 246.56ZM89.3049 285.008H86.8569V296H84.0969V285.008H82.5369V282.776H84.0969V281.84C84.0969 280.32 84.4969 279.216 85.2969 278.528C86.1129 277.824 87.3849 277.472 89.1129 277.472V279.752C88.2809 279.752 87.6969 279.912 87.3609 280.232C87.0249 280.536 86.8569 281.072 86.8569 281.84V282.776H89.3049V285.008ZM93.1217 281.024C92.6257 281.024 92.2097 280.856 91.8737 280.52C91.5377 280.184 91.3697 279.768 91.3697 279.272C91.3697 278.776 91.5377 278.36 91.8737 278.024C92.2097 277.688 92.6257 277.52 93.1217 277.52C93.6017 277.52 94.0097 277.688 94.3457 278.024C94.6817 278.36 94.8497 278.776 94.8497 279.272C94.8497 279.768 94.6817 280.184 94.3457 280.52C94.0097 280.856 93.6017 281.024 93.1217 281.024ZM94.4657 282.776V296H91.7297V282.776H94.4657ZM97.1458 289.376C97.1458 288.016 97.4178 286.824 97.9618 285.8C98.5218 284.76 99.2898 283.96 100.266 283.4C101.242 282.84 102.362 282.56 103.626 282.56C105.226 282.56 106.546 282.944 107.586 283.712C108.642 284.464 109.354 285.544 109.722 286.952H106.77C106.53 286.296 106.146 285.784 105.618 285.416C105.09 285.048 104.426 284.864 103.626 284.864C102.506 284.864 101.61 285.264 100.938 286.064C100.282 286.848 99.9538 287.952 99.9538 289.376C99.9538 290.8 100.282 291.912 100.938 292.712C101.61 293.512 102.506 293.912 103.626 293.912C105.21 293.912 106.258 293.216 106.77 291.824H109.722C109.338 293.168 108.618 294.24 107.562 295.04C106.506 295.824 105.194 296.216 103.626 296.216C102.362 296.216 101.242 295.936 100.266 295.376C99.2898 294.8 98.5218 294 97.9618 292.976C97.4178 291.936 97.1458 290.736 97.1458 289.376ZM111.536 289.328C111.536 288 111.808 286.824 112.352 285.8C112.912 284.776 113.664 283.984 114.608 283.424C115.568 282.848 116.624 282.56 117.776 282.56C118.816 282.56 119.72 282.768 120.488 283.184C121.272 283.584 121.896 284.088 122.36 284.696V282.776H125.12V296H122.36V294.032C121.896 294.656 121.264 295.176 120.464 295.592C119.664 296.008 118.752 296.216 117.728 296.216C116.592 296.216 115.552 295.928 114.608 295.352C113.664 294.76 112.912 293.944 112.352 292.904C111.808 291.848 111.536 290.656 111.536 289.328ZM122.36 289.376C122.36 288.464 122.168 287.672 121.784 287C121.416 286.328 120.928 285.816 120.32 285.464C119.712 285.112 119.056 284.936 118.352 284.936C117.648 284.936 116.992 285.112 116.384 285.464C115.776 285.8 115.28 286.304 114.896 286.976C114.528 287.632 114.344 288.416 114.344 289.328C114.344 290.24 114.528 291.04 114.896 291.728C115.28 292.416 115.776 292.944 116.384 293.312C117.008 293.664 117.664 293.84 118.352 293.84C119.056 293.84 119.712 293.664 120.32 293.312C120.928 292.96 121.416 292.448 121.784 291.776C122.168 291.088 122.36 290.288 122.36 289.376ZM144.722 282.56C145.762 282.56 146.69 282.776 147.506 283.208C148.338 283.64 148.986 284.28 149.45 285.128C149.93 285.976 150.17 287 150.17 288.2V296H147.458V288.608C147.458 287.424 147.162 286.52 146.57 285.896C145.978 285.256 145.17 284.936 144.146 284.936C143.122 284.936 142.306 285.256 141.698 285.896C141.106 286.52 140.81 287.424 140.81 288.608V296H138.098V288.608C138.098 287.424 137.802 286.52 137.21 285.896C136.618 285.256 135.81 284.936 134.786 284.936C133.762 284.936 132.946 285.256 132.338 285.896C131.746 286.52 131.45 287.424 131.45 288.608V296H128.714V282.776H131.45V284.288C131.898 283.744 132.466 283.32 133.154 283.016C133.842 282.712 134.578 282.56 135.362 282.56C136.418 282.56 137.362 282.784 138.194 283.232C139.026 283.68 139.666 284.328 140.114 285.176C140.514 284.376 141.138 283.744 141.986 283.28C142.834 282.8 143.746 282.56 144.722 282.56ZM158.974 289.328C158.974 288 159.246 286.824 159.79 285.8C160.35 284.776 161.102 283.984 162.046 283.424C163.006 282.848 164.07 282.56 165.238 282.56C166.102 282.56 166.95 282.752 167.782 283.136C168.63 283.504 169.302 284 169.798 284.624V278.24H172.558V296H169.798V294.008C169.35 294.648 168.726 295.176 167.926 295.592C167.142 296.008 166.238 296.216 165.214 296.216C164.062 296.216 163.006 295.928 162.046 295.352C161.102 294.76 160.35 293.944 159.79 292.904C159.246 291.848 158.974 290.656 158.974 289.328ZM169.798 289.376C169.798 288.464 169.606 287.672 169.222 287C168.854 286.328 168.366 285.816 167.758 285.464C167.15 285.112 166.494 284.936 165.79 284.936C165.086 284.936 164.43 285.112 163.822 285.464C163.214 285.8 162.718 286.304 162.334 286.976C161.966 287.632 161.782 288.416 161.782 289.328C161.782 290.24 161.966 291.04 162.334 291.728C162.718 292.416 163.214 292.944 163.822 293.312C164.446 293.664 165.102 293.84 165.79 293.84C166.494 293.84 167.15 293.664 167.758 293.312C168.366 292.96 168.854 292.448 169.222 291.776C169.606 291.088 169.798 290.288 169.798 289.376ZM181.888 296.216C180.64 296.216 179.512 295.936 178.504 295.376C177.496 294.8 176.704 294 176.128 292.976C175.552 291.936 175.264 290.736 175.264 289.376C175.264 288.032 175.56 286.84 176.152 285.8C176.744 284.76 177.552 283.96 178.576 283.4C179.6 282.84 180.744 282.56 182.008 282.56C183.272 282.56 184.416 282.84 185.44 283.4C186.464 283.96 187.272 284.76 187.864 285.8C188.456 286.84 188.752 288.032 188.752 289.376C188.752 290.72 188.448 291.912 187.84 292.952C187.232 293.992 186.4 294.8 185.344 295.376C184.304 295.936 183.152 296.216 181.888 296.216ZM181.888 293.84C182.592 293.84 183.248 293.672 183.856 293.336C184.48 293 184.984 292.496 185.368 291.824C185.752 291.152 185.944 290.336 185.944 289.376C185.944 288.416 185.76 287.608 185.392 286.952C185.024 286.28 184.536 285.776 183.928 285.44C183.32 285.104 182.664 284.936 181.96 284.936C181.256 284.936 180.6 285.104 179.992 285.44C179.4 285.776 178.928 286.28 178.576 286.952C178.224 287.608 178.048 288.416 178.048 289.376C178.048 290.8 178.408 291.904 179.128 292.688C179.864 293.456 180.784 293.84 181.888 293.84ZM203.576 289.064C203.576 289.56 203.544 290.008 203.48 290.408H193.376C193.456 291.464 193.848 292.312 194.552 292.952C195.256 293.592 196.12 293.912 197.144 293.912C198.616 293.912 199.656 293.296 200.264 292.064H203.216C202.816 293.28 202.088 294.28 201.032 295.064C199.992 295.832 198.696 296.216 197.144 296.216C195.88 296.216 194.744 295.936 193.736 295.376C192.744 294.8 191.96 294 191.384 292.976C190.824 291.936 190.544 290.736 190.544 289.376C190.544 288.016 190.816 286.824 191.36 285.8C191.92 284.76 192.696 283.96 193.688 283.4C194.696 282.84 195.848 282.56 197.144 282.56C198.392 282.56 199.504 282.832 200.48 283.376C201.456 283.92 202.216 284.688 202.76 285.68C203.304 286.656 203.576 287.784 203.576 289.064ZM200.72 288.2C200.704 287.192 200.344 286.384 199.64 285.776C198.936 285.168 198.064 284.864 197.024 284.864C196.08 284.864 195.272 285.168 194.6 285.776C193.928 286.368 193.528 287.176 193.4 288.2H200.72ZM212.941 282.56C213.981 282.56 214.909 282.776 215.725 283.208C216.557 283.64 217.205 284.28 217.669 285.128C218.133 285.976 218.365 287 218.365 288.2V296H215.653V288.608C215.653 287.424 215.357 286.52 214.765 285.896C214.173 285.256 213.365 284.936 212.341 284.936C211.317 284.936 210.501 285.256 209.893 285.896C209.301 286.52 209.005 287.424 209.005 288.608V296H206.269V282.776H209.005V284.288C209.453 283.744 210.021 283.32 210.709 283.016C211.413 282.712 212.157 282.56 212.941 282.56ZM225.047 285.008V292.328C225.047 292.824 225.159 293.184 225.383 293.408C225.623 293.616 226.023 293.72 226.583 293.72H228.263V296H226.103C224.871 296 223.927 295.712 223.271 295.136C222.615 294.56 222.287 293.624 222.287 292.328V285.008H220.727V282.776H222.287V279.488H225.047V282.776H228.263V285.008H225.047ZM242.904 289.064C242.904 289.56 242.872 290.008 242.808 290.408H232.704C232.784 291.464 233.176 292.312 233.88 292.952C234.584 293.592 235.448 293.912 236.472 293.912C237.944 293.912 238.984 293.296 239.592 292.064H242.544C242.144 293.28 241.416 294.28 240.36 295.064C239.32 295.832 238.024 296.216 236.472 296.216C235.208 296.216 234.072 295.936 233.064 295.376C232.072 294.8 231.288 294 230.712 292.976C230.152 291.936 229.872 290.736 229.872 289.376C229.872 288.016 230.144 286.824 230.688 285.8C231.248 284.76 232.024 283.96 233.016 283.4C234.024 282.84 235.176 282.56 236.472 282.56C237.72 282.56 238.832 282.832 239.808 283.376C240.784 283.92 241.544 284.688 242.088 285.68C242.632 286.656 242.904 287.784 242.904 289.064ZM240.048 288.2C240.032 287.192 239.672 286.384 238.968 285.776C238.264 285.168 237.392 284.864 236.352 284.864C235.408 284.864 234.6 285.168 233.928 285.776C233.256 286.368 232.856 287.176 232.728 288.2H240.048ZM250.397 296.216C249.357 296.216 248.421 296.032 247.589 295.664C246.773 295.28 246.125 294.768 245.645 294.128C245.165 293.472 244.909 292.744 244.877 291.944H247.709C247.757 292.504 248.021 292.976 248.501 293.36C248.997 293.728 249.613 293.912 250.349 293.912C251.117 293.912 251.709 293.768 252.125 293.48C252.557 293.176 252.773 292.792 252.773 292.328C252.773 291.832 252.533 291.464 252.053 291.224C251.589 290.984 250.845 290.72 249.821 290.432C248.829 290.16 248.021 289.896 247.397 289.64C246.773 289.384 246.229 288.992 245.765 288.464C245.317 287.936 245.093 287.24 245.093 286.376C245.093 285.672 245.301 285.032 245.717 284.456C246.133 283.864 246.725 283.4 247.493 283.064C248.277 282.728 249.173 282.56 250.181 282.56C251.685 282.56 252.893 282.944 253.805 283.712C254.733 284.464 255.229 285.496 255.293 286.808H252.557C252.509 286.216 252.269 285.744 251.837 285.392C251.405 285.04 250.821 284.864 250.085 284.864C249.365 284.864 248.813 285 248.429 285.272C248.045 285.544 247.853 285.904 247.853 286.352C247.853 286.704 247.981 287 248.237 287.24C248.493 287.48 248.805 287.672 249.173 287.816C249.541 287.944 250.085 288.112 250.805 288.32C251.765 288.576 252.549 288.84 253.157 289.112C253.781 289.368 254.317 289.752 254.765 290.264C255.213 290.776 255.445 291.456 255.461 292.304C255.461 293.056 255.253 293.728 254.837 294.32C254.421 294.912 253.829 295.376 253.061 295.712C252.309 296.048 251.421 296.216 250.397 296.216ZM261.417 292.712L258.513 299.336H256.737L258.441 292.712H261.417ZM272.778 284.72C273.242 284.112 273.874 283.6 274.674 283.184C275.474 282.768 276.378 282.56 277.386 282.56C278.538 282.56 279.586 282.848 280.53 283.424C281.49 283.984 282.242 284.776 282.786 285.8C283.33 286.824 283.602 288 283.602 289.328C283.602 290.656 283.33 291.848 282.786 292.904C282.242 293.944 281.49 294.76 280.53 295.352C279.586 295.928 278.538 296.216 277.386 296.216C276.378 296.216 275.482 296.016 274.698 295.616C273.914 295.2 273.274 294.688 272.778 294.08V302.288H270.042V282.776H272.778V284.72ZM280.818 289.328C280.818 288.416 280.626 287.632 280.242 286.976C279.874 286.304 279.378 285.8 278.754 285.464C278.146 285.112 277.49 284.936 276.786 284.936C276.098 284.936 275.442 285.112 274.818 285.464C274.21 285.816 273.714 286.328 273.33 287C272.962 287.672 272.778 288.464 272.778 289.376C272.778 290.288 272.962 291.088 273.33 291.776C273.714 292.448 274.21 292.96 274.818 293.312C275.442 293.664 276.098 293.84 276.786 293.84C277.49 293.84 278.146 293.664 278.754 293.312C279.378 292.944 279.874 292.416 280.242 291.728C280.626 291.04 280.818 290.24 280.818 289.328ZM292.044 296.216C290.796 296.216 289.668 295.936 288.66 295.376C287.652 294.8 286.86 294 286.284 292.976C285.708 291.936 285.42 290.736 285.42 289.376C285.42 288.032 285.716 286.84 286.308 285.8C286.9 284.76 287.708 283.96 288.732 283.4C289.756 282.84 290.9 282.56 292.164 282.56C293.428 282.56 294.572 282.84 295.596 283.4C296.62 283.96 297.428 284.76 298.02 285.8C298.612 286.84 298.908 288.032 298.908 289.376C298.908 290.72 298.604 291.912 297.996 292.952C297.388 293.992 296.556 294.8 295.5 295.376C294.46 295.936 293.308 296.216 292.044 296.216ZM292.044 293.84C292.748 293.84 293.404 293.672 294.012 293.336C294.636 293 295.14 292.496 295.524 291.824C295.908 291.152 296.1 290.336 296.1 289.376C296.1 288.416 295.916 287.608 295.548 286.952C295.18 286.28 294.692 285.776 294.084 285.44C293.476 285.104 292.82 284.936 292.116 284.936C291.412 284.936 290.756 285.104 290.148 285.44C289.556 285.776 289.084 286.28 288.732 286.952C288.38 287.608 288.204 288.416 288.204 289.376C288.204 290.8 288.564 291.904 289.284 292.688C290.02 293.456 290.94 293.84 292.044 293.84ZM304.349 284.696C304.749 284.024 305.277 283.504 305.933 283.136C306.605 282.752 307.397 282.56 308.309 282.56V285.392H307.613C306.541 285.392 305.725 285.664 305.165 286.208C304.621 286.752 304.349 287.696 304.349 289.04V296H301.613V282.776H304.349V284.696ZM314.015 285.008V292.328C314.015 292.824 314.127 293.184 314.351 293.408C314.591 293.616 314.991 293.72 315.551 293.72H317.231V296H315.071C313.839 296 312.895 295.712 312.239 295.136C311.583 294.56 311.255 293.624 311.255 292.328V285.008H309.695V282.776H311.255V279.488H314.015V282.776H317.231V285.008H314.015ZM318.841 289.328C318.841 288 319.113 286.824 319.657 285.8C320.217 284.776 320.969 283.984 321.913 283.424C322.873 282.848 323.929 282.56 325.081 282.56C326.121 282.56 327.025 282.768 327.793 283.184C328.577 283.584 329.201 284.088 329.665 284.696V282.776H332.425V296H329.665V294.032C329.201 294.656 328.569 295.176 327.769 295.592C326.969 296.008 326.057 296.216 325.033 296.216C323.897 296.216 322.857 295.928 321.913 295.352C320.969 294.76 320.217 293.944 319.657 292.904C319.113 291.848 318.841 290.656 318.841 289.328ZM329.665 289.376C329.665 288.464 329.473 287.672 329.089 287C328.721 286.328 328.233 285.816 327.625 285.464C327.017 285.112 326.361 284.936 325.657 284.936C324.953 284.936 324.297 285.112 323.689 285.464C323.081 285.8 322.585 286.304 322.201 286.976C321.833 287.632 321.649 288.416 321.649 289.328C321.649 290.24 321.833 291.04 322.201 291.728C322.585 292.416 323.081 292.944 323.689 293.312C324.313 293.664 324.969 293.84 325.657 293.84C326.361 293.84 327.017 293.664 327.625 293.312C328.233 292.96 328.721 292.448 329.089 291.776C329.473 291.088 329.665 290.288 329.665 289.376ZM342.691 282.56C343.731 282.56 344.659 282.776 345.475 283.208C346.307 283.64 346.955 284.28 347.419 285.128C347.883 285.976 348.115 287 348.115 288.2V296H345.403V288.608C345.403 287.424 345.107 286.52 344.515 285.896C343.923 285.256 343.115 284.936 342.091 284.936C341.067 284.936 340.251 285.256 339.643 285.896C339.051 286.52 338.755 287.424 338.755 288.608V296H336.019V282.776H338.755V284.288C339.203 283.744 339.771 283.32 340.459 283.016C341.163 282.712 341.907 282.56 342.691 282.56ZM354.797 285.008V292.328C354.797 292.824 354.909 293.184 355.133 293.408C355.373 293.616 355.773 293.72 356.333 293.72H358.013V296H355.853C354.621 296 353.677 295.712 353.021 295.136C352.365 294.56 352.037 293.624 352.037 292.328V285.008H350.477V282.776H352.037V279.488H354.797V282.776H358.013V285.008H354.797ZM366.27 296.216C365.022 296.216 363.894 295.936 362.886 295.376C361.878 294.8 361.086 294 360.51 292.976C359.934 291.936 359.646 290.736 359.646 289.376C359.646 288.032 359.942 286.84 360.534 285.8C361.126 284.76 361.934 283.96 362.958 283.4C363.982 282.84 365.126 282.56 366.39 282.56C367.654 282.56 368.798 282.84 369.822 283.4C370.846 283.96 371.654 284.76 372.246 285.8C372.838 286.84 373.134 288.032 373.134 289.376C373.134 290.72 372.83 291.912 372.222 292.952C371.614 293.992 370.782 294.8 369.726 295.376C368.686 295.936 367.534 296.216 366.27 296.216ZM366.27 293.84C366.974 293.84 367.63 293.672 368.238 293.336C368.862 293 369.366 292.496 369.75 291.824C370.134 291.152 370.326 290.336 370.326 289.376C370.326 288.416 370.142 287.608 369.774 286.952C369.406 286.28 368.918 285.776 368.31 285.44C367.702 285.104 367.046 284.936 366.342 284.936C365.638 284.936 364.982 285.104 364.374 285.44C363.782 285.776 363.31 286.28 362.958 286.952C362.606 287.608 362.43 288.416 362.43 289.376C362.43 290.8 362.79 291.904 363.51 292.688C364.246 293.456 365.166 293.84 366.27 293.84ZM170.33 329.552L174.074 318.776H176.978L171.938 332H168.674L163.658 318.776H166.586L170.33 329.552ZM178.134 325.328C178.134 324 178.406 322.824 178.95 321.8C179.51 320.776 180.262 319.984 181.206 319.424C182.166 318.848 183.222 318.56 184.374 318.56C185.414 318.56 186.318 318.768 187.086 319.184C187.87 319.584 188.494 320.088 188.958 320.696V318.776H191.718V332H188.958V330.032C188.494 330.656 187.862 331.176 187.062 331.592C186.262 332.008 185.35 332.216 184.326 332.216C183.19 332.216 182.15 331.928 181.206 331.352C180.262 330.76 179.51 329.944 178.95 328.904C178.406 327.848 178.134 326.656 178.134 325.328ZM188.958 325.376C188.958 324.464 188.766 323.672 188.382 323C188.014 322.328 187.526 321.816 186.918 321.464C186.31 321.112 185.654 320.936 184.95 320.936C184.246 320.936 183.59 321.112 182.982 321.464C182.374 321.8 181.878 322.304 181.494 322.976C181.126 323.632 180.942 324.416 180.942 325.328C180.942 326.24 181.126 327.04 181.494 327.728C181.878 328.416 182.374 328.944 182.982 329.312C183.606 329.664 184.262 329.84 184.95 329.84C185.654 329.84 186.31 329.664 186.918 329.312C187.526 328.96 188.014 328.448 188.382 327.776C188.766 327.088 188.958 326.288 188.958 325.376ZM194.4 325.376C194.4 324.016 194.672 322.824 195.216 321.8C195.776 320.76 196.544 319.96 197.52 319.4C198.496 318.84 199.616 318.56 200.88 318.56C202.48 318.56 203.8 318.944 204.84 319.712C205.896 320.464 206.608 321.544 206.976 322.952H204.024C203.784 322.296 203.4 321.784 202.872 321.416C202.344 321.048 201.68 320.864 200.88 320.864C199.76 320.864 198.864 321.264 198.192 322.064C197.536 322.848 197.208 323.952 197.208 325.376C197.208 326.8 197.536 327.912 198.192 328.712C198.864 329.512 199.76 329.912 200.88 329.912C202.464 329.912 203.512 329.216 204.024 327.824H206.976C206.592 329.168 205.872 330.24 204.816 331.04C203.76 331.824 202.448 332.216 200.88 332.216C199.616 332.216 198.496 331.936 197.52 331.376C196.544 330.8 195.776 330 195.216 328.976C194.672 327.936 194.4 326.736 194.4 325.376ZM211.094 317.024C210.598 317.024 210.182 316.856 209.846 316.52C209.51 316.184 209.342 315.768 209.342 315.272C209.342 314.776 209.51 314.36 209.846 314.024C210.182 313.688 210.598 313.52 211.094 313.52C211.574 313.52 211.982 313.688 212.318 314.024C212.654 314.36 212.822 314.776 212.822 315.272C212.822 315.768 212.654 316.184 212.318 316.52C211.982 316.856 211.574 317.024 211.094 317.024ZM212.438 318.776V332H209.702V318.776H212.438ZM222.702 318.56C223.742 318.56 224.67 318.776 225.486 319.208C226.318 319.64 226.966 320.28 227.43 321.128C227.894 321.976 228.126 323 228.126 324.2V332H225.414V324.608C225.414 323.424 225.118 322.52 224.526 321.896C223.934 321.256 223.126 320.936 222.102 320.936C221.078 320.936 220.262 321.256 219.654 321.896C219.062 322.52 218.766 323.424 218.766 324.608V332H216.03V318.776H218.766V320.288C219.214 319.744 219.782 319.32 220.47 319.016C221.174 318.712 221.918 318.56 222.702 318.56ZM243.736 325.064C243.736 325.56 243.704 326.008 243.64 326.408H233.536C233.616 327.464 234.008 328.312 234.712 328.952C235.416 329.592 236.28 329.912 237.304 329.912C238.776 329.912 239.816 329.296 240.424 328.064H243.376C242.976 329.28 242.248 330.28 241.192 331.064C240.152 331.832 238.856 332.216 237.304 332.216C236.04 332.216 234.904 331.936 233.896 331.376C232.904 330.8 232.12 330 231.544 328.976C230.984 327.936 230.704 326.736 230.704 325.376C230.704 324.016 230.976 322.824 231.52 321.8C232.08 320.76 232.856 319.96 233.848 319.4C234.856 318.84 236.008 318.56 237.304 318.56C238.552 318.56 239.664 318.832 240.64 319.376C241.616 319.92 242.376 320.688 242.92 321.68C243.464 322.656 243.736 323.784 243.736 325.064ZM240.88 324.2C240.864 323.192 240.504 322.384 239.8 321.776C239.096 321.168 238.224 320.864 237.184 320.864C236.24 320.864 235.432 321.168 234.76 321.776C234.088 322.368 233.688 323.176 233.56 324.2H240.88ZM256.581 322.16V324.464H246.717V322.16H256.581ZM266.204 332.216C264.956 332.216 263.828 331.936 262.82 331.376C261.812 330.8 261.02 330 260.444 328.976C259.868 327.936 259.58 326.736 259.58 325.376C259.58 324.032 259.876 322.84 260.468 321.8C261.06 320.76 261.868 319.96 262.892 319.4C263.916 318.84 265.06 318.56 266.324 318.56C267.588 318.56 268.732 318.84 269.756 319.4C270.78 319.96 271.588 320.76 272.18 321.8C272.772 322.84 273.068 324.032 273.068 325.376C273.068 326.72 272.764 327.912 272.156 328.952C271.548 329.992 270.716 330.8 269.66 331.376C268.62 331.936 267.468 332.216 266.204 332.216ZM266.204 329.84C266.908 329.84 267.564 329.672 268.172 329.336C268.796 329 269.3 328.496 269.684 327.824C270.068 327.152 270.26 326.336 270.26 325.376C270.26 324.416 270.076 323.608 269.708 322.952C269.34 322.28 268.852 321.776 268.244 321.44C267.636 321.104 266.98 320.936 266.276 320.936C265.572 320.936 264.916 321.104 264.308 321.44C263.716 321.776 263.244 322.28 262.892 322.952C262.54 323.608 262.364 324.416 262.364 325.376C262.364 326.8 262.724 327.904 263.444 328.688C264.18 329.456 265.1 329.84 266.204 329.84ZM280.573 332.216C279.533 332.216 278.597 332.032 277.765 331.664C276.949 331.28 276.301 330.768 275.821 330.128C275.341 329.472 275.085 328.744 275.053 327.944H277.885C277.933 328.504 278.197 328.976 278.677 329.36C279.173 329.728 279.789 329.912 280.525 329.912C281.293 329.912 281.885 329.768 282.301 329.48C282.733 329.176 282.949 328.792 282.949 328.328C282.949 327.832 282.709 327.464 282.229 327.224C281.765 326.984 281.021 326.72 279.997 326.432C279.005 326.16 278.197 325.896 277.573 325.64C276.949 325.384 276.405 324.992 275.941 324.464C275.493 323.936 275.269 323.24 275.269 322.376C275.269 321.672 275.477 321.032 275.893 320.456C276.309 319.864 276.901 319.4 277.669 319.064C278.453 318.728 279.349 318.56 280.357 318.56C281.861 318.56 283.069 318.944 283.981 319.712C284.909 320.464 285.405 321.496 285.469 322.808H282.733C282.685 322.216 282.445 321.744 282.013 321.392C281.581 321.04 280.997 320.864 280.261 320.864C279.541 320.864 278.989 321 278.605 321.272C278.221 321.544 278.029 321.904 278.029 322.352C278.029 322.704 278.157 323 278.413 323.24C278.669 323.48 278.981 323.672 279.349 323.816C279.717 323.944 280.261 324.112 280.981 324.32C281.941 324.576 282.725 324.84 283.333 325.112C283.957 325.368 284.493 325.752 284.941 326.264C285.389 326.776 285.621 327.456 285.637 328.304C285.637 329.056 285.429 329.728 285.013 330.32C284.597 330.912 284.005 331.376 283.237 331.712C282.485 332.048 281.597 332.216 280.573 332.216ZM289.697 332.168C289.201 332.168 288.785 332 288.449 331.664C288.113 331.328 287.945 330.912 287.945 330.416C287.945 329.92 288.113 329.504 288.449 329.168C288.785 328.832 289.201 328.664 289.697 328.664C290.177 328.664 290.585 328.832 290.921 329.168C291.257 329.504 291.425 329.92 291.425 330.416C291.425 330.912 291.257 331.328 290.921 331.664C290.585 332 290.177 332.168 289.697 332.168Z" fill="#FFEBEB"/>
</svg>
