<svg width="456" height="456" viewBox="0 0 456 456" fill="none" xmlns="http://www.w3.org/2000/svg">
<rect width="456" height="456" fill="#F8A98A"/>
<path d="M116.814 118.088C116.814 116.147 117.215 114.42 118.018 112.908C118.839 111.377 119.997 110.192 121.49 109.352C122.983 108.493 124.701 108.064 126.642 108.064C129.106 108.064 131.178 108.727 132.858 110.052C134.538 111.359 135.621 113.141 136.106 115.4H130.198C129.843 114.653 129.349 114.084 128.714 113.692C128.098 113.3 127.379 113.104 126.558 113.104C125.289 113.104 124.271 113.561 123.506 114.476C122.759 115.372 122.386 116.576 122.386 118.088C122.386 119.619 122.759 120.841 123.506 121.756C124.271 122.652 125.289 123.1 126.558 123.1C127.379 123.1 128.098 122.904 128.714 122.512C129.349 122.12 129.843 121.551 130.198 120.804H136.106C135.621 123.063 134.538 124.855 132.858 126.18C131.178 127.487 129.106 128.14 126.642 128.14C124.701 128.14 122.983 127.72 121.49 126.88C119.997 126.021 118.839 124.836 118.018 123.324C117.215 121.793 116.814 120.048 116.814 118.088ZM137.809 120.132C137.809 118.508 138.098 117.089 138.677 115.876C139.274 114.663 140.077 113.729 141.085 113.076C142.111 112.423 143.25 112.096 144.501 112.096C145.583 112.096 146.517 112.311 147.301 112.74C148.085 113.169 148.691 113.748 149.121 114.476V112.292H154.609V128H149.121V125.816C148.691 126.544 148.075 127.123 147.273 127.552C146.489 127.981 145.565 128.196 144.501 128.196C143.25 128.196 142.111 127.869 141.085 127.216C140.077 126.563 139.274 125.629 138.677 124.416C138.098 123.184 137.809 121.756 137.809 120.132ZM149.121 120.132C149.121 119.124 148.841 118.331 148.281 117.752C147.739 117.173 147.067 116.884 146.265 116.884C145.443 116.884 144.762 117.173 144.221 117.752C143.679 118.312 143.409 119.105 143.409 120.132C143.409 121.14 143.679 121.943 144.221 122.54C144.762 123.119 145.443 123.408 146.265 123.408C147.067 123.408 147.739 123.119 148.281 122.54C148.841 121.961 149.121 121.159 149.121 120.132ZM140.693 111.116C141.215 108.073 142.615 106.552 144.893 106.552C145.322 106.552 145.705 106.617 146.041 106.748C146.395 106.879 146.797 107.065 147.245 107.308C147.562 107.476 147.833 107.607 148.057 107.7C148.281 107.793 148.505 107.84 148.729 107.84C149.419 107.84 149.83 107.411 149.961 106.552H152.733C152.471 108.139 151.977 109.296 151.249 110.024C150.539 110.733 149.634 111.088 148.533 111.088C148.122 111.088 147.749 111.032 147.413 110.92C147.077 110.789 146.666 110.603 146.181 110.36C145.863 110.192 145.593 110.061 145.369 109.968C145.145 109.875 144.921 109.828 144.697 109.828C144.025 109.828 143.605 110.257 143.437 111.116H140.693ZM172.744 119.964C172.744 120.393 172.716 120.823 172.66 121.252H162.272C162.328 122.111 162.561 122.755 162.972 123.184C163.401 123.595 163.943 123.8 164.596 123.8C165.511 123.8 166.164 123.389 166.556 122.568H172.408C172.165 123.651 171.689 124.621 170.98 125.48C170.289 126.32 169.412 126.983 168.348 127.468C167.284 127.953 166.108 128.196 164.82 128.196C163.271 128.196 161.889 127.869 160.676 127.216C159.481 126.563 158.539 125.629 157.848 124.416C157.176 123.203 156.84 121.775 156.84 120.132C156.84 118.489 157.176 117.071 157.848 115.876C158.52 114.663 159.453 113.729 160.648 113.076C161.861 112.423 163.252 112.096 164.82 112.096C166.369 112.096 167.741 112.413 168.936 113.048C170.131 113.683 171.064 114.597 171.736 115.792C172.408 116.968 172.744 118.359 172.744 119.964ZM167.144 118.592C167.144 117.92 166.92 117.397 166.472 117.024C166.024 116.632 165.464 116.436 164.792 116.436C164.12 116.436 163.569 116.623 163.14 116.996C162.711 117.351 162.431 117.883 162.3 118.592H167.144ZM181.682 128.196C180.263 128.196 178.994 127.963 177.874 127.496C176.773 127.011 175.895 126.357 175.242 125.536C174.607 124.696 174.253 123.753 174.178 122.708H179.498C179.573 123.212 179.806 123.604 180.198 123.884C180.59 124.164 181.075 124.304 181.654 124.304C182.102 124.304 182.457 124.211 182.718 124.024C182.979 123.837 183.11 123.595 183.11 123.296C183.11 122.904 182.895 122.615 182.466 122.428C182.037 122.241 181.327 122.036 180.338 121.812C179.218 121.588 178.285 121.336 177.538 121.056C176.791 120.776 176.138 120.319 175.578 119.684C175.037 119.049 174.766 118.191 174.766 117.108C174.766 116.175 175.018 115.335 175.522 114.588C176.026 113.823 176.763 113.216 177.734 112.768C178.723 112.32 179.909 112.096 181.29 112.096C183.343 112.096 184.958 112.6 186.134 113.608C187.31 114.616 187.991 115.941 188.178 117.584H183.222C183.129 117.08 182.905 116.697 182.55 116.436C182.214 116.156 181.757 116.016 181.178 116.016C180.73 116.016 180.385 116.1 180.142 116.268C179.918 116.436 179.806 116.669 179.806 116.968C179.806 117.341 180.021 117.631 180.45 117.836C180.879 118.023 181.57 118.219 182.522 118.424C183.661 118.667 184.603 118.937 185.35 119.236C186.115 119.535 186.778 120.02 187.338 120.692C187.917 121.345 188.206 122.241 188.206 123.38C188.206 124.295 187.935 125.116 187.394 125.844C186.871 126.572 186.115 127.151 185.126 127.58C184.155 127.991 183.007 128.196 181.682 128.196ZM202.955 128.196C201.537 128.196 200.267 127.963 199.147 127.496C198.046 127.011 197.169 126.357 196.515 125.536C195.881 124.696 195.526 123.753 195.451 122.708H200.771C200.846 123.212 201.079 123.604 201.471 123.884C201.863 124.164 202.349 124.304 202.927 124.304C203.375 124.304 203.73 124.211 203.991 124.024C204.253 123.837 204.383 123.595 204.383 123.296C204.383 122.904 204.169 122.615 203.739 122.428C203.31 122.241 202.601 122.036 201.611 121.812C200.491 121.588 199.558 121.336 198.811 121.056C198.065 120.776 197.411 120.319 196.851 119.684C196.31 119.049 196.039 118.191 196.039 117.108C196.039 116.175 196.291 115.335 196.795 114.588C197.299 113.823 198.037 113.216 199.007 112.768C199.997 112.32 201.182 112.096 202.563 112.096C204.617 112.096 206.231 112.6 207.407 113.608C208.583 114.616 209.265 115.941 209.451 117.584H204.495C204.402 117.08 204.178 116.697 203.823 116.436C203.487 116.156 203.03 116.016 202.451 116.016C202.003 116.016 201.658 116.1 201.415 116.268C201.191 116.436 201.079 116.669 201.079 116.968C201.079 117.341 201.294 117.631 201.723 117.836C202.153 118.023 202.843 118.219 203.795 118.424C204.934 118.667 205.877 118.937 206.623 119.236C207.389 119.535 208.051 120.02 208.611 120.692C209.19 121.345 209.479 122.241 209.479 123.38C209.479 124.295 209.209 125.116 208.667 125.844C208.145 126.572 207.389 127.151 206.399 127.58C205.429 127.991 204.281 128.196 202.955 128.196ZM211.281 120.132C211.281 118.508 211.571 117.089 212.149 115.876C212.747 114.663 213.549 113.729 214.557 113.076C215.584 112.423 216.723 112.096 217.973 112.096C219.056 112.096 219.989 112.311 220.773 112.74C221.557 113.169 222.164 113.748 222.593 114.476V112.292H228.081V128H222.593V125.816C222.164 126.544 221.548 127.123 220.745 127.552C219.961 127.981 219.037 128.196 217.973 128.196C216.723 128.196 215.584 127.869 214.557 127.216C213.549 126.563 212.747 125.629 212.149 124.416C211.571 123.184 211.281 121.756 211.281 120.132ZM222.593 120.132C222.593 119.124 222.313 118.331 221.753 117.752C221.212 117.173 220.54 116.884 219.737 116.884C218.916 116.884 218.235 117.173 217.693 117.752C217.152 118.312 216.881 119.105 216.881 120.132C216.881 121.14 217.152 121.943 217.693 122.54C218.235 123.119 218.916 123.408 219.737 123.408C220.54 123.408 221.212 123.119 221.753 122.54C222.313 121.961 222.593 121.159 222.593 120.132ZM214.165 111.116C214.688 108.073 216.088 106.552 218.365 106.552C218.795 106.552 219.177 106.617 219.513 106.748C219.868 106.879 220.269 107.065 220.717 107.308C221.035 107.476 221.305 107.607 221.529 107.7C221.753 107.793 221.977 107.84 222.201 107.84C222.892 107.84 223.303 107.411 223.433 106.552H226.205C225.944 108.139 225.449 109.296 224.721 110.024C224.012 110.733 223.107 111.088 222.005 111.088C221.595 111.088 221.221 111.032 220.885 110.92C220.549 110.789 220.139 110.603 219.653 110.36C219.336 110.192 219.065 110.061 218.841 109.968C218.617 109.875 218.393 109.828 218.169 109.828C217.497 109.828 217.077 110.257 216.909 111.116H214.165ZM238.517 128.196C236.949 128.196 235.539 127.869 234.289 127.216C233.057 126.563 232.086 125.629 231.377 124.416C230.667 123.203 230.313 121.775 230.313 120.132C230.313 118.508 230.667 117.089 231.377 115.876C232.105 114.663 233.085 113.729 234.317 113.076C235.567 112.423 236.977 112.096 238.545 112.096C240.113 112.096 241.513 112.423 242.745 113.076C243.995 113.729 244.975 114.663 245.685 115.876C246.413 117.089 246.777 118.508 246.777 120.132C246.777 121.756 246.413 123.184 245.685 124.416C244.975 125.629 243.995 126.563 242.745 127.216C241.494 127.869 240.085 128.196 238.517 128.196ZM238.517 123.436C239.282 123.436 239.917 123.156 240.421 122.596C240.943 122.017 241.205 121.196 241.205 120.132C241.205 119.068 240.943 118.256 240.421 117.696C239.917 117.136 239.291 116.856 238.545 116.856C237.798 116.856 237.173 117.136 236.669 117.696C236.165 118.256 235.913 119.068 235.913 120.132C235.913 121.215 236.155 122.036 236.641 122.596C237.126 123.156 237.751 123.436 238.517 123.436ZM274.893 112.152C276.871 112.152 278.421 112.749 279.541 113.944C280.679 115.139 281.249 116.772 281.249 118.844V128H275.761V119.572C275.761 118.732 275.527 118.079 275.061 117.612C274.594 117.145 273.959 116.912 273.157 116.912C272.354 116.912 271.719 117.145 271.253 117.612C270.786 118.079 270.553 118.732 270.553 119.572V128H265.065V119.572C265.065 118.732 264.831 118.079 264.365 117.612C263.917 117.145 263.291 116.912 262.489 116.912C261.667 116.912 261.023 117.145 260.557 117.612C260.09 118.079 259.857 118.732 259.857 119.572V128H254.369V112.292H259.857V114.364C260.342 113.692 260.967 113.16 261.733 112.768C262.517 112.357 263.413 112.152 264.421 112.152C265.578 112.152 266.605 112.404 267.501 112.908C268.415 113.412 269.134 114.121 269.657 115.036C270.217 114.177 270.954 113.487 271.869 112.964C272.783 112.423 273.791 112.152 274.893 112.152ZM300.328 112.292V128H294.812V125.76C294.345 126.469 293.701 127.048 292.88 127.496C292.058 127.925 291.116 128.14 290.052 128.14C288.222 128.14 286.776 127.543 285.712 126.348C284.666 125.135 284.144 123.492 284.144 121.42V112.292H289.604V120.72C289.604 121.616 289.837 122.325 290.304 122.848C290.789 123.352 291.424 123.604 292.208 123.604C293.01 123.604 293.645 123.352 294.112 122.848C294.578 122.325 294.812 121.616 294.812 120.72V112.292H300.328ZM306.223 110.836C305.252 110.836 304.468 110.575 303.871 110.052C303.292 109.511 303.003 108.839 303.003 108.036C303.003 107.215 303.292 106.533 303.871 105.992C304.468 105.451 305.252 105.18 306.223 105.18C307.175 105.18 307.94 105.451 308.519 105.992C309.116 106.533 309.415 107.215 309.415 108.036C309.415 108.839 309.116 109.511 308.519 110.052C307.94 110.575 307.175 110.836 306.223 110.836ZM308.939 112.292V128H303.451V112.292H308.939ZM321.332 123.324V128H318.952C314.939 128 312.932 126.012 312.932 122.036V116.856H311V112.292H312.932V108.484H318.448V112.292H321.304V116.856H318.448V122.12C318.448 122.549 318.541 122.857 318.728 123.044C318.933 123.231 319.269 123.324 319.736 123.324H321.332ZM331.157 128.196C329.589 128.196 328.18 127.869 326.929 127.216C325.697 126.563 324.727 125.629 324.017 124.416C323.308 123.203 322.953 121.775 322.953 120.132C322.953 118.508 323.308 117.089 324.017 115.876C324.745 114.663 325.725 113.729 326.957 113.076C328.208 112.423 329.617 112.096 331.185 112.096C332.753 112.096 334.153 112.423 335.385 113.076C336.636 113.729 337.616 114.663 338.325 115.876C339.053 117.089 339.417 118.508 339.417 120.132C339.417 121.756 339.053 123.184 338.325 124.416C337.616 125.629 336.636 126.563 335.385 127.216C334.135 127.869 332.725 128.196 331.157 128.196ZM331.157 123.436C331.923 123.436 332.557 123.156 333.061 122.596C333.584 122.017 333.845 121.196 333.845 120.132C333.845 119.068 333.584 118.256 333.061 117.696C332.557 117.136 331.932 116.856 331.185 116.856C330.439 116.856 329.813 117.136 329.309 117.696C328.805 118.256 328.553 119.068 328.553 120.132C328.553 121.215 328.796 122.036 329.281 122.596C329.767 123.156 330.392 123.436 331.157 123.436ZM142.046 156.476C142.476 155.729 143.082 155.151 143.866 154.74C144.65 154.311 145.574 154.096 146.638 154.096C147.889 154.096 149.018 154.423 150.026 155.076C151.053 155.729 151.856 156.663 152.434 157.876C153.032 159.089 153.33 160.508 153.33 162.132C153.33 163.756 153.032 165.184 152.434 166.416C151.856 167.629 151.053 168.563 150.026 169.216C149.018 169.869 147.889 170.196 146.638 170.196C145.574 170.196 144.65 169.991 143.866 169.58C143.082 169.151 142.476 168.563 142.046 167.816V170H136.558V149.28H142.046V156.476ZM147.758 162.132C147.758 161.105 147.478 160.312 146.918 159.752C146.377 159.173 145.705 158.884 144.902 158.884C144.1 158.884 143.418 159.173 142.858 159.752C142.317 160.331 142.046 161.124 142.046 162.132C142.046 163.159 142.317 163.961 142.858 164.54C143.418 165.119 144.1 165.408 144.902 165.408C145.705 165.408 146.377 165.119 146.918 164.54C147.478 163.943 147.758 163.14 147.758 162.132ZM161.077 157.064C161.693 156.168 162.44 155.459 163.317 154.936C164.195 154.413 165.137 154.152 166.145 154.152V160.004H164.605C163.411 160.004 162.524 160.237 161.945 160.704C161.367 161.171 161.077 161.983 161.077 163.14V170H155.589V154.292H161.077V157.064ZM170.885 152.836C169.914 152.836 169.13 152.575 168.533 152.052C167.954 151.511 167.665 150.839 167.665 150.036C167.665 149.215 167.954 148.533 168.533 147.992C169.13 147.451 169.914 147.18 170.885 147.18C171.837 147.18 172.602 147.451 173.181 147.992C173.778 148.533 174.077 149.215 174.077 150.036C174.077 150.839 173.778 151.511 173.181 152.052C172.602 152.575 171.837 152.836 170.885 152.836ZM173.601 154.292V170H168.113V154.292H173.601ZM187.002 154.152C188.813 154.152 190.25 154.759 191.314 155.972C192.378 157.167 192.91 158.791 192.91 160.844V170H187.422V161.572C187.422 160.676 187.189 159.976 186.722 159.472C186.256 158.949 185.63 158.688 184.846 158.688C184.025 158.688 183.381 158.949 182.914 159.472C182.448 159.976 182.214 160.676 182.214 161.572V170H176.726V154.292H182.214V156.532C182.7 155.823 183.353 155.253 184.174 154.824C184.996 154.376 185.938 154.152 187.002 154.152ZM195.026 162.132C195.026 160.508 195.362 159.089 196.034 157.876C196.706 156.663 197.639 155.729 198.834 155.076C200.047 154.423 201.428 154.096 202.978 154.096C204.975 154.096 206.655 154.647 208.018 155.748C209.38 156.831 210.258 158.352 210.65 160.312H204.826C204.49 159.285 203.836 158.772 202.866 158.772C202.175 158.772 201.624 159.061 201.214 159.64C200.822 160.2 200.626 161.031 200.626 162.132C200.626 163.233 200.822 164.073 201.214 164.652C201.624 165.231 202.175 165.52 202.866 165.52C203.855 165.52 204.508 165.007 204.826 163.98H210.65C210.258 165.921 209.38 167.443 208.018 168.544C206.655 169.645 204.975 170.196 202.978 170.196C201.428 170.196 200.047 169.869 198.834 169.216C197.639 168.563 196.706 167.629 196.034 166.416C195.362 165.203 195.026 163.775 195.026 162.132ZM212.033 162.132C212.033 160.508 212.323 159.089 212.901 157.876C213.499 156.663 214.301 155.729 215.309 155.076C216.336 154.423 217.475 154.096 218.725 154.096C219.808 154.096 220.741 154.311 221.525 154.74C222.309 155.169 222.916 155.748 223.345 156.476V154.292H228.833V170H223.345V167.816C222.916 168.544 222.3 169.123 221.497 169.552C220.713 169.981 219.789 170.196 218.725 170.196C217.475 170.196 216.336 169.869 215.309 169.216C214.301 168.563 213.499 167.629 212.901 166.416C212.323 165.184 212.033 163.756 212.033 162.132ZM223.345 162.132C223.345 161.124 223.065 160.331 222.505 159.752C221.964 159.173 221.292 158.884 220.489 158.884C219.668 158.884 218.987 159.173 218.445 159.752C217.904 160.312 217.633 161.105 217.633 162.132C217.633 163.14 217.904 163.943 218.445 164.54C218.987 165.119 219.668 165.408 220.489 165.408C221.292 165.408 221.964 165.119 222.505 164.54C223.065 163.961 223.345 163.159 223.345 162.132ZM237.449 149.28V170H231.961V149.28H237.449ZM250.906 154.152C252.698 154.152 254.117 154.759 255.162 155.972C256.226 157.167 256.758 158.791 256.758 160.844V170H251.27V161.572C251.27 160.676 251.037 159.976 250.57 159.472C250.103 158.949 249.478 158.688 248.694 158.688C247.873 158.688 247.229 158.949 246.762 159.472C246.295 159.976 246.062 160.676 246.062 161.572V170H240.574V149.28H246.062V156.532C246.547 155.823 247.201 155.253 248.022 154.824C248.862 154.376 249.823 154.152 250.906 154.152ZM267.077 170.196C265.509 170.196 264.1 169.869 262.849 169.216C261.617 168.563 260.647 167.629 259.937 166.416C259.228 165.203 258.873 163.775 258.873 162.132C258.873 160.508 259.228 159.089 259.937 157.876C260.665 156.663 261.645 155.729 262.877 155.076C264.128 154.423 265.537 154.096 267.105 154.096C268.673 154.096 270.073 154.423 271.305 155.076C272.556 155.729 273.536 156.663 274.245 157.876C274.973 159.089 275.337 160.508 275.337 162.132C275.337 163.756 274.973 165.184 274.245 166.416C273.536 167.629 272.556 168.563 271.305 169.216C270.055 169.869 268.645 170.196 267.077 170.196ZM267.077 165.436C267.843 165.436 268.477 165.156 268.981 164.596C269.504 164.017 269.765 163.196 269.765 162.132C269.765 161.068 269.504 160.256 268.981 159.696C268.477 159.136 267.852 158.856 267.105 158.856C266.359 158.856 265.733 159.136 265.229 159.696C264.725 160.256 264.473 161.068 264.473 162.132C264.473 163.215 264.716 164.036 265.201 164.596C265.687 165.156 266.312 165.436 267.077 165.436ZM261.561 153.06C262.084 150.017 263.484 148.496 265.761 148.496C266.191 148.496 266.573 148.561 266.909 148.692C267.264 148.823 267.665 149.009 268.113 149.252C268.431 149.42 268.701 149.551 268.925 149.644C269.149 149.737 269.373 149.784 269.597 149.784C270.288 149.784 270.699 149.355 270.829 148.496H273.601C273.34 150.083 272.845 151.24 272.117 151.968C271.408 152.677 270.503 153.032 269.401 153.032C268.991 153.032 268.617 152.976 268.281 152.864C267.945 152.733 267.535 152.547 267.049 152.304C266.732 152.136 266.461 152.005 266.237 151.912C266.013 151.819 265.789 151.772 265.565 151.772C264.893 151.772 264.473 152.201 264.305 153.06H261.561ZM292.578 161.964C292.578 162.393 292.55 162.823 292.494 163.252H282.106C282.162 164.111 282.395 164.755 282.806 165.184C283.235 165.595 283.777 165.8 284.43 165.8C285.345 165.8 285.998 165.389 286.39 164.568H292.242C291.999 165.651 291.523 166.621 290.814 167.48C290.123 168.32 289.246 168.983 288.182 169.468C287.118 169.953 285.942 170.196 284.654 170.196C283.105 170.196 281.723 169.869 280.51 169.216C279.315 168.563 278.373 167.629 277.682 166.416C277.01 165.203 276.674 163.775 276.674 162.132C276.674 160.489 277.01 159.071 277.682 157.876C278.354 156.663 279.287 155.729 280.482 155.076C281.695 154.423 283.086 154.096 284.654 154.096C286.203 154.096 287.575 154.413 288.77 155.048C289.965 155.683 290.898 156.597 291.57 157.792C292.242 158.968 292.578 160.359 292.578 161.964ZM286.978 160.592C286.978 159.92 286.754 159.397 286.306 159.024C285.858 158.632 285.298 158.436 284.626 158.436C283.954 158.436 283.403 158.623 282.974 158.996C282.545 159.351 282.265 159.883 282.134 160.592H286.978ZM301.516 170.196C300.097 170.196 298.828 169.963 297.708 169.496C296.607 169.011 295.729 168.357 295.076 167.536C294.441 166.696 294.087 165.753 294.012 164.708H299.332C299.407 165.212 299.64 165.604 300.032 165.884C300.424 166.164 300.909 166.304 301.488 166.304C301.936 166.304 302.291 166.211 302.552 166.024C302.813 165.837 302.944 165.595 302.944 165.296C302.944 164.904 302.729 164.615 302.3 164.428C301.871 164.241 301.161 164.036 300.172 163.812C299.052 163.588 298.119 163.336 297.372 163.056C296.625 162.776 295.972 162.319 295.412 161.684C294.871 161.049 294.6 160.191 294.6 159.108C294.6 158.175 294.852 157.335 295.356 156.588C295.86 155.823 296.597 155.216 297.568 154.768C298.557 154.32 299.743 154.096 301.124 154.096C303.177 154.096 304.792 154.6 305.968 155.608C307.144 156.616 307.825 157.941 308.012 159.584H303.056C302.963 159.08 302.739 158.697 302.384 158.436C302.048 158.156 301.591 158.016 301.012 158.016C300.564 158.016 300.219 158.1 299.976 158.268C299.752 158.436 299.64 158.669 299.64 158.968C299.64 159.341 299.855 159.631 300.284 159.836C300.713 160.023 301.404 160.219 302.356 160.424C303.495 160.667 304.437 160.937 305.184 161.236C305.949 161.535 306.612 162.02 307.172 162.692C307.751 163.345 308.04 164.241 308.04 165.38C308.04 166.295 307.769 167.116 307.228 167.844C306.705 168.572 305.949 169.151 304.96 169.58C303.989 169.991 302.841 170.196 301.516 170.196ZM318.074 149.252L317.43 162.608H312.754L312.11 149.252H318.074ZM315.106 170.224C314.135 170.224 313.351 169.963 312.754 169.44C312.175 168.899 311.886 168.217 311.886 167.396C311.886 166.575 312.175 165.893 312.754 165.352C313.351 164.811 314.135 164.54 315.106 164.54C316.058 164.54 316.823 164.811 317.402 165.352C317.999 165.893 318.298 166.575 318.298 167.396C318.298 168.199 317.999 168.871 317.402 169.412C316.823 169.953 316.058 170.224 315.106 170.224ZM121.24 197.624C121.24 195.992 121.616 194.528 122.368 193.232C123.136 191.936 124.168 190.928 125.464 190.208C126.776 189.472 128.208 189.104 129.76 189.104C131.536 189.104 133.112 189.544 134.488 190.424C135.88 191.288 136.888 192.52 137.512 194.12H134.224C133.792 193.24 133.192 192.584 132.424 192.152C131.656 191.72 130.768 191.504 129.76 191.504C128.656 191.504 127.672 191.752 126.808 192.248C125.944 192.744 125.264 193.456 124.768 194.384C124.288 195.312 124.048 196.392 124.048 197.624C124.048 198.856 124.288 199.936 124.768 200.864C125.264 201.792 125.944 202.512 126.808 203.024C127.672 203.52 128.656 203.768 129.76 203.768C130.768 203.768 131.656 203.552 132.424 203.12C133.192 202.688 133.792 202.032 134.224 201.152H137.512C136.888 202.752 135.88 203.984 134.488 204.848C133.112 205.712 131.536 206.144 129.76 206.144C128.192 206.144 126.76 205.784 125.464 205.064C124.168 204.328 123.136 203.312 122.368 202.016C121.616 200.72 121.24 199.256 121.24 197.624ZM139.802 199.328C139.802 198 140.074 196.824 140.618 195.8C141.178 194.776 141.93 193.984 142.874 193.424C143.834 192.848 144.89 192.56 146.042 192.56C147.082 192.56 147.986 192.768 148.754 193.184C149.538 193.584 150.162 194.088 150.626 194.696V192.776H153.386V206H150.626V204.032C150.162 204.656 149.53 205.176 148.73 205.592C147.93 206.008 147.018 206.216 145.994 206.216C144.858 206.216 143.818 205.928 142.874 205.352C141.93 204.76 141.178 203.944 140.618 202.904C140.074 201.848 139.802 200.656 139.802 199.328ZM150.626 199.376C150.626 198.464 150.434 197.672 150.05 197C149.682 196.328 149.194 195.816 148.586 195.464C147.978 195.112 147.322 194.936 146.618 194.936C145.914 194.936 145.258 195.112 144.65 195.464C144.042 195.8 143.546 196.304 143.162 196.976C142.794 197.632 142.61 198.416 142.61 199.328C142.61 200.24 142.794 201.04 143.162 201.728C143.546 202.416 144.042 202.944 144.65 203.312C145.274 203.664 145.93 203.84 146.618 203.84C147.322 203.84 147.978 203.664 148.586 203.312C149.194 202.96 149.682 202.448 150.05 201.776C150.434 201.088 150.626 200.288 150.626 199.376ZM156.068 199.376C156.068 198.016 156.34 196.824 156.884 195.8C157.444 194.76 158.212 193.96 159.188 193.4C160.164 192.84 161.284 192.56 162.548 192.56C164.148 192.56 165.468 192.944 166.508 193.712C167.564 194.464 168.276 195.544 168.644 196.952H165.692C165.452 196.296 165.068 195.784 164.54 195.416C164.012 195.048 163.348 194.864 162.548 194.864C161.428 194.864 160.532 195.264 159.86 196.064C159.204 196.848 158.876 197.952 158.876 199.376C158.876 200.8 159.204 201.912 159.86 202.712C160.532 203.512 161.428 203.912 162.548 203.912C164.132 203.912 165.18 203.216 165.692 201.824H168.644C168.26 203.168 167.54 204.24 166.484 205.04C165.428 205.824 164.116 206.216 162.548 206.216C161.284 206.216 160.164 205.936 159.188 205.376C158.212 204.8 157.444 204 156.884 202.976C156.34 201.936 156.068 200.736 156.068 199.376ZM178.21 192.56C179.218 192.56 180.114 192.776 180.898 193.208C181.698 193.64 182.322 194.28 182.77 195.128C183.234 195.976 183.466 197 183.466 198.2V206H180.754V198.608C180.754 197.424 180.458 196.52 179.866 195.896C179.274 195.256 178.466 194.936 177.442 194.936C176.418 194.936 175.602 195.256 174.994 195.896C174.402 196.52 174.106 197.424 174.106 198.608V206H171.37V188.24H174.106V194.312C174.57 193.752 175.154 193.32 175.858 193.016C176.578 192.712 177.362 192.56 178.21 192.56ZM192.692 206.216C191.444 206.216 190.316 205.936 189.308 205.376C188.3 204.8 187.508 204 186.932 202.976C186.356 201.936 186.068 200.736 186.068 199.376C186.068 198.032 186.364 196.84 186.956 195.8C187.548 194.76 188.356 193.96 189.38 193.4C190.404 192.84 191.548 192.56 192.812 192.56C194.076 192.56 195.22 192.84 196.244 193.4C197.268 193.96 198.076 194.76 198.668 195.8C199.26 196.84 199.556 198.032 199.556 199.376C199.556 200.72 199.252 201.912 198.644 202.952C198.036 203.992 197.204 204.8 196.148 205.376C195.108 205.936 193.956 206.216 192.692 206.216ZM192.692 203.84C193.396 203.84 194.052 203.672 194.66 203.336C195.284 203 195.788 202.496 196.172 201.824C196.556 201.152 196.748 200.336 196.748 199.376C196.748 198.416 196.564 197.608 196.196 196.952C195.828 196.28 195.34 195.776 194.732 195.44C194.124 195.104 193.468 194.936 192.764 194.936C192.06 194.936 191.404 195.104 190.796 195.44C190.204 195.776 189.732 196.28 189.38 196.952C189.028 197.608 188.852 198.416 188.852 199.376C188.852 200.8 189.212 201.904 189.932 202.688C190.668 203.456 191.588 203.84 192.692 203.84ZM204.997 194.696C205.397 194.024 205.925 193.504 206.581 193.136C207.253 192.752 208.045 192.56 208.957 192.56V195.392H208.261C207.189 195.392 206.373 195.664 205.813 196.208C205.269 196.752 204.997 197.696 204.997 199.04V206H202.261V192.776H204.997V194.696ZM214.208 194.696C214.608 194.024 215.136 193.504 215.792 193.136C216.464 192.752 217.256 192.56 218.168 192.56V195.392H217.472C216.4 195.392 215.584 195.664 215.024 196.208C214.48 196.752 214.208 197.696 214.208 199.04V206H211.472V192.776H214.208V194.696ZM226.419 206.216C225.171 206.216 224.043 205.936 223.035 205.376C222.027 204.8 221.235 204 220.659 202.976C220.083 201.936 219.795 200.736 219.795 199.376C219.795 198.032 220.091 196.84 220.683 195.8C221.275 194.76 222.083 193.96 223.107 193.4C224.131 192.84 225.275 192.56 226.539 192.56C227.803 192.56 228.947 192.84 229.971 193.4C230.995 193.96 231.803 194.76 232.395 195.8C232.987 196.84 233.283 198.032 233.283 199.376C233.283 200.72 232.979 201.912 232.371 202.952C231.763 203.992 230.931 204.8 229.875 205.376C228.835 205.936 227.683 206.216 226.419 206.216ZM226.419 203.84C227.123 203.84 227.779 203.672 228.387 203.336C229.011 203 229.515 202.496 229.899 201.824C230.283 201.152 230.475 200.336 230.475 199.376C230.475 198.416 230.291 197.608 229.923 196.952C229.555 196.28 229.067 195.776 228.459 195.44C227.851 195.104 227.195 194.936 226.491 194.936C225.787 194.936 225.131 195.104 224.523 195.44C223.931 195.776 223.459 196.28 223.107 196.952C222.755 197.608 222.579 198.416 222.579 199.376C222.579 200.8 222.939 201.904 223.659 202.688C224.395 203.456 225.315 203.84 226.419 203.84ZM240.788 206.216C239.748 206.216 238.812 206.032 237.98 205.664C237.164 205.28 236.516 204.768 236.036 204.128C235.556 203.472 235.3 202.744 235.268 201.944H238.1C238.148 202.504 238.412 202.976 238.892 203.36C239.388 203.728 240.004 203.912 240.74 203.912C241.508 203.912 242.1 203.768 242.516 203.48C242.948 203.176 243.164 202.792 243.164 202.328C243.164 201.832 242.924 201.464 242.444 201.224C241.98 200.984 241.236 200.72 240.212 200.432C239.22 200.16 238.412 199.896 237.788 199.64C237.164 199.384 236.62 198.992 236.156 198.464C235.708 197.936 235.484 197.24 235.484 196.376C235.484 195.672 235.692 195.032 236.108 194.456C236.524 193.864 237.116 193.4 237.884 193.064C238.668 192.728 239.564 192.56 240.572 192.56C242.076 192.56 243.284 192.944 244.196 193.712C245.124 194.464 245.62 195.496 245.684 196.808H242.948C242.9 196.216 242.66 195.744 242.228 195.392C241.796 195.04 241.212 194.864 240.476 194.864C239.756 194.864 239.204 195 238.82 195.272C238.436 195.544 238.244 195.904 238.244 196.352C238.244 196.704 238.372 197 238.628 197.24C238.884 197.48 239.196 197.672 239.564 197.816C239.932 197.944 240.476 198.112 241.196 198.32C242.156 198.576 242.94 198.84 243.548 199.112C244.172 199.368 244.708 199.752 245.156 200.264C245.604 200.776 245.836 201.456 245.852 202.304C245.852 203.056 245.644 203.728 245.228 204.32C244.812 204.912 244.22 205.376 243.452 205.712C242.7 206.048 241.812 206.216 240.788 206.216ZM254.13 199.328C254.13 198 254.402 196.824 254.946 195.8C255.506 194.776 256.258 193.984 257.202 193.424C258.162 192.848 259.218 192.56 260.37 192.56C261.41 192.56 262.314 192.768 263.082 193.184C263.866 193.584 264.49 194.088 264.954 194.696V192.776H267.714V206H264.954V204.032C264.49 204.656 263.858 205.176 263.058 205.592C262.258 206.008 261.346 206.216 260.322 206.216C259.186 206.216 258.146 205.928 257.202 205.352C256.258 204.76 255.506 203.944 254.946 202.904C254.402 201.848 254.13 200.656 254.13 199.328ZM264.954 199.376C264.954 198.464 264.762 197.672 264.378 197C264.01 196.328 263.522 195.816 262.914 195.464C262.306 195.112 261.65 194.936 260.946 194.936C260.242 194.936 259.586 195.112 258.978 195.464C258.37 195.8 257.874 196.304 257.49 196.976C257.122 197.632 256.938 198.416 256.938 199.328C256.938 200.24 257.122 201.04 257.49 201.728C257.874 202.416 258.37 202.944 258.978 203.312C259.602 203.664 260.258 203.84 260.946 203.84C261.65 203.84 262.306 203.664 262.914 203.312C263.522 202.96 264.01 202.448 264.378 201.776C264.762 201.088 264.954 200.288 264.954 199.376ZM287.316 192.56C288.356 192.56 289.284 192.776 290.1 193.208C290.932 193.64 291.58 194.28 292.044 195.128C292.524 195.976 292.764 197 292.764 198.2V206H290.052V198.608C290.052 197.424 289.756 196.52 289.164 195.896C288.572 195.256 287.764 194.936 286.74 194.936C285.716 194.936 284.9 195.256 284.292 195.896C283.7 196.52 283.404 197.424 283.404 198.608V206H280.692V198.608C280.692 197.424 280.396 196.52 279.804 195.896C279.212 195.256 278.404 194.936 277.38 194.936C276.356 194.936 275.54 195.256 274.932 195.896C274.34 196.52 274.044 197.424 274.044 198.608V206H271.308V192.776H274.044V194.288C274.492 193.744 275.06 193.32 275.748 193.016C276.436 192.712 277.172 192.56 277.956 192.56C279.012 192.56 279.956 192.784 280.788 193.232C281.62 193.68 282.26 194.328 282.708 195.176C283.108 194.376 283.732 193.744 284.58 193.28C285.428 192.8 286.34 192.56 287.316 192.56ZM295.333 199.328C295.333 198 295.605 196.824 296.149 195.8C296.709 194.776 297.461 193.984 298.405 193.424C299.365 192.848 300.421 192.56 301.573 192.56C302.613 192.56 303.517 192.768 304.285 193.184C305.069 193.584 305.693 194.088 306.157 194.696V192.776H308.917V206H306.157V204.032C305.693 204.656 305.061 205.176 304.261 205.592C303.461 206.008 302.549 206.216 301.525 206.216C300.389 206.216 299.349 205.928 298.405 205.352C297.461 204.76 296.709 203.944 296.149 202.904C295.605 201.848 295.333 200.656 295.333 199.328ZM306.157 199.376C306.157 198.464 305.965 197.672 305.581 197C305.213 196.328 304.725 195.816 304.117 195.464C303.509 195.112 302.853 194.936 302.149 194.936C301.445 194.936 300.789 195.112 300.181 195.464C299.573 195.8 299.077 196.304 298.693 196.976C298.325 197.632 298.141 198.416 298.141 199.328C298.141 200.24 298.325 201.04 298.693 201.728C299.077 202.416 299.573 202.944 300.181 203.312C300.805 203.664 301.461 203.84 302.149 203.84C302.853 203.84 303.509 203.664 304.117 203.312C304.725 202.96 305.213 202.448 305.581 201.776C305.965 201.088 306.157 200.288 306.157 199.376ZM328.519 192.56C329.559 192.56 330.487 192.776 331.303 193.208C332.135 193.64 332.783 194.28 333.247 195.128C333.727 195.976 333.967 197 333.967 198.2V206H331.255V198.608C331.255 197.424 330.959 196.52 330.367 195.896C329.775 195.256 328.967 194.936 327.943 194.936C326.919 194.936 326.103 195.256 325.495 195.896C324.903 196.52 324.607 197.424 324.607 198.608V206H321.895V198.608C321.895 197.424 321.599 196.52 321.007 195.896C320.415 195.256 319.607 194.936 318.583 194.936C317.559 194.936 316.743 195.256 316.135 195.896C315.543 196.52 315.247 197.424 315.247 198.608V206H312.511V192.776H315.247V194.288C315.695 193.744 316.263 193.32 316.951 193.016C317.639 192.712 318.375 192.56 319.159 192.56C320.215 192.56 321.159 192.784 321.991 193.232C322.823 193.68 323.463 194.328 323.911 195.176C324.311 194.376 324.935 193.744 325.783 193.28C326.631 192.8 327.543 192.56 328.519 192.56ZM83.8837 230.744C84.3477 230.104 84.9797 229.584 85.7797 229.184C86.5957 228.768 87.4997 228.56 88.4917 228.56C89.6597 228.56 90.7157 228.84 91.6597 229.4C92.6037 229.96 93.3477 230.76 93.8917 231.8C94.4357 232.824 94.7077 234 94.7077 235.328C94.7077 236.656 94.4357 237.848 93.8917 238.904C93.3477 239.944 92.5957 240.76 91.6357 241.352C90.6917 241.928 89.6437 242.216 88.4917 242.216C87.4677 242.216 86.5557 242.016 85.7557 241.616C84.9717 241.216 84.3477 240.704 83.8837 240.08V242H81.1477V224.24H83.8837V230.744ZM91.9237 235.328C91.9237 234.416 91.7317 233.632 91.3477 232.976C90.9797 232.304 90.4837 231.8 89.8597 231.464C89.2517 231.112 88.5957 230.936 87.8917 230.936C87.2037 230.936 86.5477 231.112 85.9237 231.464C85.3157 231.816 84.8197 232.328 84.4357 233C84.0677 233.672 83.8837 234.464 83.8837 235.376C83.8837 236.288 84.0677 237.088 84.4357 237.776C84.8197 238.448 85.3157 238.96 85.9237 239.312C86.5477 239.664 87.2037 239.84 87.8917 239.84C88.5957 239.84 89.2517 239.664 89.8597 239.312C90.4837 238.944 90.9797 238.416 91.3477 237.728C91.7317 237.04 91.9237 236.24 91.9237 235.328ZM100.149 230.696C100.549 230.024 101.077 229.504 101.733 229.136C102.405 228.752 103.197 228.56 104.109 228.56V231.392H103.413C102.341 231.392 101.525 231.664 100.965 232.208C100.421 232.752 100.149 233.696 100.149 235.04V242H97.4133V228.776H100.149V230.696ZM108.016 227.024C107.52 227.024 107.104 226.856 106.768 226.52C106.432 226.184 106.264 225.768 106.264 225.272C106.264 224.776 106.432 224.36 106.768 224.024C107.104 223.688 107.52 223.52 108.016 223.52C108.496 223.52 108.904 223.688 109.24 224.024C109.576 224.36 109.744 224.776 109.744 225.272C109.744 225.768 109.576 226.184 109.24 226.52C108.904 226.856 108.496 227.024 108.016 227.024ZM109.36 228.776V242H106.624V228.776H109.36ZM119.624 228.56C120.664 228.56 121.592 228.776 122.408 229.208C123.24 229.64 123.888 230.28 124.352 231.128C124.816 231.976 125.048 233 125.048 234.2V242H122.336V234.608C122.336 233.424 122.04 232.52 121.448 231.896C120.856 231.256 120.048 230.936 119.024 230.936C118 230.936 117.184 231.256 116.576 231.896C115.984 232.52 115.688 233.424 115.688 234.608V242H112.952V228.776H115.688V230.288C116.136 229.744 116.704 229.32 117.392 229.016C118.096 228.712 118.84 228.56 119.624 228.56ZM127.626 235.376C127.626 234.016 127.898 232.824 128.442 231.8C129.002 230.76 129.77 229.96 130.746 229.4C131.722 228.84 132.842 228.56 134.106 228.56C135.706 228.56 137.026 228.944 138.066 229.712C139.122 230.464 139.834 231.544 140.202 232.952H137.25C137.01 232.296 136.626 231.784 136.098 231.416C135.57 231.048 134.906 230.864 134.106 230.864C132.986 230.864 132.09 231.264 131.418 232.064C130.762 232.848 130.434 233.952 130.434 235.376C130.434 236.8 130.762 237.912 131.418 238.712C132.09 239.512 132.986 239.912 134.106 239.912C135.69 239.912 136.738 239.216 137.25 237.824H140.202C139.818 239.168 139.098 240.24 138.042 241.04C136.986 241.824 135.674 242.216 134.106 242.216C132.842 242.216 131.722 241.936 130.746 241.376C129.77 240.8 129.002 240 128.442 238.976C127.898 237.936 127.626 236.736 127.626 235.376ZM142.017 235.328C142.017 234 142.289 232.824 142.833 231.8C143.393 230.776 144.145 229.984 145.089 229.424C146.049 228.848 147.105 228.56 148.257 228.56C149.297 228.56 150.201 228.768 150.969 229.184C151.753 229.584 152.377 230.088 152.841 230.696V228.776H155.601V242H152.841V240.032C152.377 240.656 151.745 241.176 150.945 241.592C150.145 242.008 149.233 242.216 148.209 242.216C147.073 242.216 146.033 241.928 145.089 241.352C144.145 240.76 143.393 239.944 142.833 238.904C142.289 237.848 142.017 236.656 142.017 235.328ZM152.841 235.376C152.841 234.464 152.649 233.672 152.265 233C151.897 232.328 151.409 231.816 150.801 231.464C150.193 231.112 149.537 230.936 148.833 230.936C148.129 230.936 147.473 231.112 146.865 231.464C146.257 231.8 145.761 232.304 145.377 232.976C145.009 233.632 144.825 234.416 144.825 235.328C144.825 236.24 145.009 237.04 145.377 237.728C145.761 238.416 146.257 238.944 146.865 239.312C147.489 239.664 148.145 239.84 148.833 239.84C149.537 239.84 150.193 239.664 150.801 239.312C151.409 238.96 151.897 238.448 152.265 237.776C152.649 237.088 152.841 236.288 152.841 235.376ZM161.931 230.696C162.331 230.024 162.859 229.504 163.515 229.136C164.187 228.752 164.979 228.56 165.891 228.56V231.392H165.195C164.123 231.392 163.307 231.664 162.747 232.208C162.203 232.752 161.931 233.696 161.931 235.04V242H159.195V228.776H161.931V230.696ZM173.728 235.376C173.728 234.016 174 232.824 174.544 231.8C175.104 230.76 175.872 229.96 176.848 229.4C177.824 228.84 178.944 228.56 180.208 228.56C181.808 228.56 183.128 228.944 184.168 229.712C185.224 230.464 185.936 231.544 186.304 232.952H183.352C183.112 232.296 182.728 231.784 182.2 231.416C181.672 231.048 181.008 230.864 180.208 230.864C179.088 230.864 178.192 231.264 177.52 232.064C176.864 232.848 176.536 233.952 176.536 235.376C176.536 236.8 176.864 237.912 177.52 238.712C178.192 239.512 179.088 239.912 180.208 239.912C181.792 239.912 182.84 239.216 183.352 237.824H186.304C185.92 239.168 185.2 240.24 184.144 241.04C183.088 241.824 181.776 242.216 180.208 242.216C178.944 242.216 177.824 241.936 176.848 241.376C175.872 240.8 175.104 240 174.544 238.976C174 237.936 173.728 236.736 173.728 235.376ZM194.766 242.216C193.518 242.216 192.39 241.936 191.382 241.376C190.374 240.8 189.582 240 189.006 238.976C188.43 237.936 188.142 236.736 188.142 235.376C188.142 234.032 188.438 232.84 189.03 231.8C189.622 230.76 190.43 229.96 191.454 229.4C192.478 228.84 193.622 228.56 194.886 228.56C196.15 228.56 197.294 228.84 198.318 229.4C199.342 229.96 200.15 230.76 200.742 231.8C201.334 232.84 201.63 234.032 201.63 235.376C201.63 236.72 201.326 237.912 200.718 238.952C200.11 239.992 199.278 240.8 198.222 241.376C197.182 241.936 196.03 242.216 194.766 242.216ZM194.766 239.84C195.47 239.84 196.126 239.672 196.734 239.336C197.358 239 197.862 238.496 198.246 237.824C198.63 237.152 198.822 236.336 198.822 235.376C198.822 234.416 198.638 233.608 198.27 232.952C197.902 232.28 197.414 231.776 196.806 231.44C196.198 231.104 195.542 230.936 194.838 230.936C194.134 230.936 193.478 231.104 192.87 231.44C192.278 231.776 191.806 232.28 191.454 232.952C191.102 233.608 190.926 234.416 190.926 235.376C190.926 236.8 191.286 237.904 192.006 238.688C192.742 239.456 193.662 239.84 194.766 239.84ZM220.343 228.56C221.383 228.56 222.311 228.776 223.127 229.208C223.959 229.64 224.607 230.28 225.071 231.128C225.551 231.976 225.791 233 225.791 234.2V242H223.079V234.608C223.079 233.424 222.783 232.52 222.191 231.896C221.599 231.256 220.791 230.936 219.767 230.936C218.743 230.936 217.927 231.256 217.319 231.896C216.727 232.52 216.431 233.424 216.431 234.608V242H213.719V234.608C213.719 233.424 213.423 232.52 212.831 231.896C212.239 231.256 211.431 230.936 210.407 230.936C209.383 230.936 208.567 231.256 207.959 231.896C207.367 232.52 207.071 233.424 207.071 234.608V242H204.335V228.776H207.071V230.288C207.519 229.744 208.087 229.32 208.775 229.016C209.463 228.712 210.199 228.56 210.983 228.56C212.039 228.56 212.983 228.784 213.815 229.232C214.647 229.68 215.287 230.328 215.735 231.176C216.135 230.376 216.759 229.744 217.607 229.28C218.455 228.8 219.367 228.56 220.343 228.56ZM240.307 242.216C239.267 242.216 238.331 242.032 237.499 241.664C236.683 241.28 236.035 240.768 235.555 240.128C235.075 239.472 234.819 238.744 234.787 237.944H237.619C237.667 238.504 237.931 238.976 238.411 239.36C238.907 239.728 239.523 239.912 240.259 239.912C241.027 239.912 241.619 239.768 242.035 239.48C242.467 239.176 242.683 238.792 242.683 238.328C242.683 237.832 242.443 237.464 241.963 237.224C241.499 236.984 240.755 236.72 239.731 236.432C238.739 236.16 237.931 235.896 237.307 235.64C236.683 235.384 236.139 234.992 235.675 234.464C235.227 233.936 235.003 233.24 235.003 232.376C235.003 231.672 235.211 231.032 235.627 230.456C236.043 229.864 236.635 229.4 237.403 229.064C238.187 228.728 239.083 228.56 240.091 228.56C241.595 228.56 242.803 228.944 243.715 229.712C244.643 230.464 245.139 231.496 245.203 232.808H242.467C242.419 232.216 242.179 231.744 241.747 231.392C241.315 231.04 240.731 230.864 239.995 230.864C239.275 230.864 238.723 231 238.339 231.272C237.955 231.544 237.763 231.904 237.763 232.352C237.763 232.704 237.891 233 238.147 233.24C238.403 233.48 238.715 233.672 239.083 233.816C239.451 233.944 239.995 234.112 240.715 234.32C241.675 234.576 242.459 234.84 243.067 235.112C243.691 235.368 244.227 235.752 244.675 236.264C245.123 236.776 245.355 237.456 245.371 238.304C245.371 239.056 245.163 239.728 244.747 240.32C244.331 240.912 243.739 241.376 242.971 241.712C242.219 242.048 241.331 242.216 240.307 242.216ZM260.447 235.064C260.447 235.56 260.415 236.008 260.351 236.408H250.247C250.327 237.464 250.719 238.312 251.423 238.952C252.127 239.592 252.991 239.912 254.015 239.912C255.487 239.912 256.527 239.296 257.135 238.064H260.087C259.687 239.28 258.959 240.28 257.903 241.064C256.863 241.832 255.567 242.216 254.015 242.216C252.751 242.216 251.615 241.936 250.607 241.376C249.615 240.8 248.831 240 248.255 238.976C247.695 237.936 247.415 236.736 247.415 235.376C247.415 234.016 247.687 232.824 248.231 231.8C248.791 230.76 249.567 229.96 250.559 229.4C251.567 228.84 252.719 228.56 254.015 228.56C255.263 228.56 256.375 228.832 257.351 229.376C258.327 229.92 259.087 230.688 259.631 231.68C260.175 232.656 260.447 233.784 260.447 235.064ZM257.591 234.2C257.575 233.192 257.215 232.384 256.511 231.776C255.807 231.168 254.935 230.864 253.895 230.864C252.951 230.864 252.143 231.168 251.471 231.776C250.799 232.368 250.399 233.176 250.271 234.2H257.591ZM275.116 228.776V242H272.38V240.44C271.948 240.984 271.38 241.416 270.676 241.736C269.988 242.04 269.252 242.192 268.468 242.192C267.428 242.192 266.492 241.976 265.66 241.544C264.844 241.112 264.196 240.472 263.716 239.624C263.252 238.776 263.02 237.752 263.02 236.552V228.776H265.732V236.144C265.732 237.328 266.028 238.24 266.62 238.88C267.212 239.504 268.02 239.816 269.044 239.816C270.068 239.816 270.876 239.504 271.468 238.88C272.076 238.24 272.38 237.328 272.38 236.144V228.776H275.116ZM283.526 242.216C282.486 242.216 281.55 242.032 280.718 241.664C279.902 241.28 279.254 240.768 278.774 240.128C278.294 239.472 278.038 238.744 278.006 237.944H280.838C280.886 238.504 281.15 238.976 281.63 239.36C282.126 239.728 282.742 239.912 283.478 239.912C284.246 239.912 284.838 239.768 285.254 239.48C285.686 239.176 285.902 238.792 285.902 238.328C285.902 237.832 285.662 237.464 285.182 237.224C284.718 236.984 283.974 236.72 282.95 236.432C281.958 236.16 281.15 235.896 280.526 235.64C279.902 235.384 279.358 234.992 278.894 234.464C278.446 233.936 278.222 233.24 278.222 232.376C278.222 231.672 278.43 231.032 278.846 230.456C279.262 229.864 279.854 229.4 280.622 229.064C281.406 228.728 282.302 228.56 283.31 228.56C284.814 228.56 286.022 228.944 286.934 229.712C287.862 230.464 288.358 231.496 288.422 232.808H285.686C285.638 232.216 285.398 231.744 284.966 231.392C284.534 231.04 283.95 230.864 283.214 230.864C282.494 230.864 281.942 231 281.558 231.272C281.174 231.544 280.982 231.904 280.982 232.352C280.982 232.704 281.11 233 281.366 233.24C281.622 233.48 281.934 233.672 282.302 233.816C282.67 233.944 283.214 234.112 283.934 234.32C284.894 234.576 285.678 234.84 286.286 235.112C286.91 235.368 287.446 235.752 287.894 236.264C288.342 236.776 288.574 237.456 288.59 238.304C288.59 239.056 288.382 239.728 287.966 240.32C287.55 240.912 286.958 241.376 286.19 241.712C285.438 242.048 284.55 242.216 283.526 242.216ZM296.868 235.328C296.868 234 297.14 232.824 297.684 231.8C298.244 230.776 298.996 229.984 299.94 229.424C300.9 228.848 301.964 228.56 303.132 228.56C303.996 228.56 304.844 228.752 305.676 229.136C306.524 229.504 307.196 230 307.692 230.624V224.24H310.452V242H307.692V240.008C307.244 240.648 306.62 241.176 305.82 241.592C305.036 242.008 304.132 242.216 303.108 242.216C301.956 242.216 300.9 241.928 299.94 241.352C298.996 240.76 298.244 239.944 297.684 238.904C297.14 237.848 296.868 236.656 296.868 235.328ZM307.692 235.376C307.692 234.464 307.5 233.672 307.116 233C306.748 232.328 306.26 231.816 305.652 231.464C305.044 231.112 304.388 230.936 303.684 230.936C302.98 230.936 302.324 231.112 301.716 231.464C301.108 231.8 300.612 232.304 300.228 232.976C299.86 233.632 299.676 234.416 299.676 235.328C299.676 236.24 299.86 237.04 300.228 237.728C300.612 238.416 301.108 238.944 301.716 239.312C302.34 239.664 302.996 239.84 303.684 239.84C304.388 239.84 305.044 239.664 305.652 239.312C306.26 238.96 306.748 238.448 307.116 237.776C307.5 237.088 307.692 236.288 307.692 235.376ZM319.782 242.216C318.534 242.216 317.406 241.936 316.398 241.376C315.39 240.8 314.598 240 314.022 238.976C313.446 237.936 313.158 236.736 313.158 235.376C313.158 234.032 313.454 232.84 314.046 231.8C314.638 230.76 315.446 229.96 316.47 229.4C317.494 228.84 318.638 228.56 319.902 228.56C321.166 228.56 322.31 228.84 323.334 229.4C324.358 229.96 325.166 230.76 325.758 231.8C326.35 232.84 326.646 234.032 326.646 235.376C326.646 236.72 326.342 237.912 325.734 238.952C325.126 239.992 324.294 240.8 323.238 241.376C322.198 241.936 321.046 242.216 319.782 242.216ZM319.782 239.84C320.486 239.84 321.142 239.672 321.75 239.336C322.374 239 322.878 238.496 323.262 237.824C323.646 237.152 323.838 236.336 323.838 235.376C323.838 234.416 323.654 233.608 323.286 232.952C322.918 232.28 322.43 231.776 321.822 231.44C321.214 231.104 320.558 230.936 319.854 230.936C319.15 230.936 318.494 231.104 317.886 231.44C317.294 231.776 316.822 232.28 316.47 232.952C316.118 233.608 315.942 234.416 315.942 235.376C315.942 236.8 316.302 237.904 317.022 238.688C317.758 239.456 318.678 239.84 319.782 239.84ZM336.023 228.56C337.063 228.56 337.991 228.776 338.807 229.208C339.639 229.64 340.287 230.28 340.751 231.128C341.215 231.976 341.447 233 341.447 234.2V242H338.735V234.608C338.735 233.424 338.439 232.52 337.847 231.896C337.255 231.256 336.447 230.936 335.423 230.936C334.399 230.936 333.583 231.256 332.975 231.896C332.383 232.52 332.087 233.424 332.087 234.608V242H329.351V228.776H332.087V230.288C332.535 229.744 333.103 229.32 333.791 229.016C334.495 228.712 335.239 228.56 336.023 228.56ZM350.673 242.216C349.425 242.216 348.297 241.936 347.289 241.376C346.281 240.8 345.489 240 344.913 238.976C344.337 237.936 344.049 236.736 344.049 235.376C344.049 234.032 344.345 232.84 344.937 231.8C345.529 230.76 346.337 229.96 347.361 229.4C348.385 228.84 349.529 228.56 350.793 228.56C352.057 228.56 353.201 228.84 354.225 229.4C355.249 229.96 356.057 230.76 356.649 231.8C357.241 232.84 357.537 234.032 357.537 235.376C357.537 236.72 357.233 237.912 356.625 238.952C356.017 239.992 355.185 240.8 354.129 241.376C353.089 241.936 351.937 242.216 350.673 242.216ZM350.673 239.84C351.377 239.84 352.033 239.672 352.641 239.336C353.265 239 353.769 238.496 354.153 237.824C354.537 237.152 354.729 236.336 354.729 235.376C354.729 234.416 354.545 233.608 354.177 232.952C353.809 232.28 353.321 231.776 352.713 231.44C352.105 231.104 351.449 230.936 350.745 230.936C350.041 230.936 349.385 231.104 348.777 231.44C348.185 231.776 347.713 232.28 347.361 232.952C347.009 233.608 346.833 234.416 346.833 235.376C346.833 236.8 347.193 237.904 347.913 238.688C348.649 239.456 349.569 239.84 350.673 239.84ZM365.041 242.216C364.001 242.216 363.065 242.032 362.233 241.664C361.417 241.28 360.769 240.768 360.289 240.128C359.809 239.472 359.553 238.744 359.521 237.944H362.353C362.401 238.504 362.665 238.976 363.145 239.36C363.641 239.728 364.257 239.912 364.993 239.912C365.761 239.912 366.353 239.768 366.769 239.48C367.201 239.176 367.417 238.792 367.417 238.328C367.417 237.832 367.177 237.464 366.697 237.224C366.233 236.984 365.489 236.72 364.465 236.432C363.473 236.16 362.665 235.896 362.041 235.64C361.417 235.384 360.873 234.992 360.409 234.464C359.961 233.936 359.737 233.24 359.737 232.376C359.737 231.672 359.945 231.032 360.361 230.456C360.777 229.864 361.369 229.4 362.137 229.064C362.921 228.728 363.817 228.56 364.825 228.56C366.329 228.56 367.537 228.944 368.449 229.712C369.377 230.464 369.873 231.496 369.937 232.808H367.201C367.153 232.216 366.913 231.744 366.481 231.392C366.049 231.04 365.465 230.864 364.729 230.864C364.009 230.864 363.457 231 363.073 231.272C362.689 231.544 362.497 231.904 362.497 232.352C362.497 232.704 362.625 233 362.881 233.24C363.137 233.48 363.449 233.672 363.817 233.816C364.185 233.944 364.729 234.112 365.449 234.32C366.409 234.576 367.193 234.84 367.801 235.112C368.425 235.368 368.961 235.752 369.409 236.264C369.857 236.776 370.089 237.456 370.105 238.304C370.105 239.056 369.897 239.728 369.481 240.32C369.065 240.912 368.473 241.376 367.705 241.712C366.953 242.048 366.065 242.216 365.041 242.216ZM376.062 238.712L373.158 245.336H371.382L373.086 238.712H376.062ZM129.059 266.72C129.523 266.112 130.155 265.6 130.955 265.184C131.755 264.768 132.659 264.56 133.667 264.56C134.819 264.56 135.867 264.848 136.811 265.424C137.771 265.984 138.523 266.776 139.067 267.8C139.611 268.824 139.883 270 139.883 271.328C139.883 272.656 139.611 273.848 139.067 274.904C138.523 275.944 137.771 276.76 136.811 277.352C135.867 277.928 134.819 278.216 133.667 278.216C132.659 278.216 131.763 278.016 130.979 277.616C130.195 277.2 129.555 276.688 129.059 276.08V284.288H126.323V264.776H129.059V266.72ZM137.099 271.328C137.099 270.416 136.907 269.632 136.523 268.976C136.155 268.304 135.659 267.8 135.035 267.464C134.427 267.112 133.771 266.936 133.067 266.936C132.379 266.936 131.723 267.112 131.099 267.464C130.491 267.816 129.995 268.328 129.611 269C129.243 269.672 129.059 270.464 129.059 271.376C129.059 272.288 129.243 273.088 129.611 273.776C129.995 274.448 130.491 274.96 131.099 275.312C131.723 275.664 132.379 275.84 133.067 275.84C133.771 275.84 134.427 275.664 135.035 275.312C135.659 274.944 136.155 274.416 136.523 273.728C136.907 273.04 137.099 272.24 137.099 271.328ZM148.325 278.216C147.077 278.216 145.949 277.936 144.941 277.376C143.933 276.8 143.141 276 142.565 274.976C141.989 273.936 141.701 272.736 141.701 271.376C141.701 270.032 141.997 268.84 142.589 267.8C143.181 266.76 143.989 265.96 145.013 265.4C146.037 264.84 147.181 264.56 148.445 264.56C149.709 264.56 150.853 264.84 151.877 265.4C152.901 265.96 153.709 266.76 154.301 267.8C154.893 268.84 155.189 270.032 155.189 271.376C155.189 272.72 154.885 273.912 154.277 274.952C153.669 275.992 152.837 276.8 151.781 277.376C150.741 277.936 149.589 278.216 148.325 278.216ZM148.325 275.84C149.029 275.84 149.685 275.672 150.293 275.336C150.917 275 151.421 274.496 151.805 273.824C152.189 273.152 152.381 272.336 152.381 271.376C152.381 270.416 152.197 269.608 151.829 268.952C151.461 268.28 150.973 267.776 150.365 267.44C149.757 267.104 149.101 266.936 148.397 266.936C147.693 266.936 147.037 267.104 146.429 267.44C145.837 267.776 145.365 268.28 145.013 268.952C144.661 269.608 144.485 270.416 144.485 271.376C144.485 272.8 144.845 273.904 145.565 274.688C146.301 275.456 147.221 275.84 148.325 275.84ZM160.63 266.696C161.03 266.024 161.558 265.504 162.214 265.136C162.886 264.752 163.678 264.56 164.59 264.56V267.392H163.894C162.822 267.392 162.006 267.664 161.446 268.208C160.902 268.752 160.63 269.696 160.63 271.04V278H157.894V264.776H160.63V266.696ZM170.297 267.008V274.328C170.297 274.824 170.409 275.184 170.633 275.408C170.873 275.616 171.273 275.72 171.833 275.72H173.513V278H171.353C170.121 278 169.177 277.712 168.521 277.136C167.865 276.56 167.537 275.624 167.537 274.328V267.008H165.977V264.776H167.537V261.488H170.297V264.776H173.513V267.008H170.297ZM175.122 271.328C175.122 270 175.394 268.824 175.938 267.8C176.498 266.776 177.25 265.984 178.194 265.424C179.154 264.848 180.21 264.56 181.362 264.56C182.402 264.56 183.306 264.768 184.074 265.184C184.858 265.584 185.482 266.088 185.946 266.696V264.776H188.706V278H185.946V276.032C185.482 276.656 184.85 277.176 184.05 277.592C183.25 278.008 182.338 278.216 181.314 278.216C180.178 278.216 179.138 277.928 178.194 277.352C177.25 276.76 176.498 275.944 175.938 274.904C175.394 273.848 175.122 272.656 175.122 271.328ZM185.946 271.376C185.946 270.464 185.754 269.672 185.37 269C185.002 268.328 184.514 267.816 183.906 267.464C183.298 267.112 182.642 266.936 181.938 266.936C181.234 266.936 180.578 267.112 179.97 267.464C179.362 267.8 178.866 268.304 178.482 268.976C178.114 269.632 177.93 270.416 177.93 271.328C177.93 272.24 178.114 273.04 178.482 273.728C178.866 274.416 179.362 274.944 179.97 275.312C180.594 275.664 181.25 275.84 181.938 275.84C182.642 275.84 183.298 275.664 183.906 275.312C184.514 274.96 185.002 274.448 185.37 273.776C185.754 273.088 185.946 272.288 185.946 271.376ZM198.972 264.56C200.012 264.56 200.94 264.776 201.756 265.208C202.588 265.64 203.236 266.28 203.7 267.128C204.164 267.976 204.396 269 204.396 270.2V278H201.684V270.608C201.684 269.424 201.388 268.52 200.796 267.896C200.204 267.256 199.396 266.936 198.372 266.936C197.348 266.936 196.532 267.256 195.924 267.896C195.332 268.52 195.036 269.424 195.036 270.608V278H192.3V264.776H195.036V266.288C195.484 265.744 196.052 265.32 196.74 265.016C197.444 264.712 198.188 264.56 198.972 264.56ZM211.078 267.008V274.328C211.078 274.824 211.19 275.184 211.414 275.408C211.654 275.616 212.054 275.72 212.614 275.72H214.294V278H212.134C210.902 278 209.958 277.712 209.302 277.136C208.646 276.56 208.318 275.624 208.318 274.328V267.008H206.758V264.776H208.318V261.488H211.078V264.776H214.294V267.008H211.078ZM222.552 278.216C221.304 278.216 220.176 277.936 219.168 277.376C218.16 276.8 217.368 276 216.792 274.976C216.216 273.936 215.928 272.736 215.928 271.376C215.928 270.032 216.224 268.84 216.816 267.8C217.408 266.76 218.216 265.96 219.24 265.4C220.264 264.84 221.408 264.56 222.672 264.56C223.936 264.56 225.08 264.84 226.104 265.4C227.128 265.96 227.936 266.76 228.528 267.8C229.12 268.84 229.416 270.032 229.416 271.376C229.416 272.72 229.112 273.912 228.504 274.952C227.896 275.992 227.064 276.8 226.008 277.376C224.968 277.936 223.816 278.216 222.552 278.216ZM222.552 275.84C223.256 275.84 223.912 275.672 224.52 275.336C225.144 275 225.648 274.496 226.032 273.824C226.416 273.152 226.608 272.336 226.608 271.376C226.608 270.416 226.424 269.608 226.056 268.952C225.688 268.28 225.2 267.776 224.592 267.44C223.984 267.104 223.328 266.936 222.624 266.936C221.92 266.936 221.264 267.104 220.656 267.44C220.064 267.776 219.592 268.28 219.24 268.952C218.888 269.608 218.712 270.416 218.712 271.376C218.712 272.8 219.072 273.904 219.792 274.688C220.528 275.456 221.448 275.84 222.552 275.84ZM237.443 271.376C237.443 270.016 237.715 268.824 238.259 267.8C238.819 266.76 239.587 265.96 240.563 265.4C241.539 264.84 242.659 264.56 243.923 264.56C245.523 264.56 246.843 264.944 247.883 265.712C248.939 266.464 249.651 267.544 250.019 268.952H247.067C246.827 268.296 246.443 267.784 245.915 267.416C245.387 267.048 244.723 266.864 243.923 266.864C242.803 266.864 241.907 267.264 241.235 268.064C240.579 268.848 240.251 269.952 240.251 271.376C240.251 272.8 240.579 273.912 241.235 274.712C241.907 275.512 242.803 275.912 243.923 275.912C245.507 275.912 246.555 275.216 247.067 273.824H250.019C249.635 275.168 248.915 276.24 247.859 277.04C246.803 277.824 245.491 278.216 243.923 278.216C242.659 278.216 241.539 277.936 240.563 277.376C239.587 276.8 238.819 276 238.259 274.976C237.715 273.936 237.443 272.736 237.443 271.376ZM258.481 278.216C257.233 278.216 256.105 277.936 255.097 277.376C254.089 276.8 253.297 276 252.721 274.976C252.145 273.936 251.857 272.736 251.857 271.376C251.857 270.032 252.153 268.84 252.745 267.8C253.337 266.76 254.145 265.96 255.169 265.4C256.193 264.84 257.337 264.56 258.601 264.56C259.865 264.56 261.009 264.84 262.033 265.4C263.057 265.96 263.865 266.76 264.457 267.8C265.049 268.84 265.345 270.032 265.345 271.376C265.345 272.72 265.041 273.912 264.433 274.952C263.825 275.992 262.993 276.8 261.937 277.376C260.897 277.936 259.745 278.216 258.481 278.216ZM258.481 275.84C259.185 275.84 259.841 275.672 260.449 275.336C261.073 275 261.577 274.496 261.961 273.824C262.345 273.152 262.537 272.336 262.537 271.376C262.537 270.416 262.353 269.608 261.985 268.952C261.617 268.28 261.129 267.776 260.521 267.44C259.913 267.104 259.257 266.936 258.553 266.936C257.849 266.936 257.193 267.104 256.585 267.44C255.993 267.776 255.521 268.28 255.169 268.952C254.817 269.608 254.641 270.416 254.641 271.376C254.641 272.8 255.001 273.904 255.721 274.688C256.457 275.456 257.377 275.84 258.481 275.84ZM284.058 264.56C285.098 264.56 286.026 264.776 286.842 265.208C287.674 265.64 288.322 266.28 288.786 267.128C289.266 267.976 289.506 269 289.506 270.2V278H286.794V270.608C286.794 269.424 286.498 268.52 285.906 267.896C285.314 267.256 284.506 266.936 283.482 266.936C282.458 266.936 281.642 267.256 281.034 267.896C280.442 268.52 280.146 269.424 280.146 270.608V278H277.434V270.608C277.434 269.424 277.138 268.52 276.546 267.896C275.954 267.256 275.146 266.936 274.122 266.936C273.098 266.936 272.282 267.256 271.674 267.896C271.082 268.52 270.786 269.424 270.786 270.608V278H268.05V264.776H270.786V266.288C271.234 265.744 271.802 265.32 272.49 265.016C273.178 264.712 273.914 264.56 274.698 264.56C275.754 264.56 276.698 264.784 277.53 265.232C278.362 265.68 279.002 266.328 279.45 267.176C279.85 266.376 280.474 265.744 281.322 265.28C282.17 264.8 283.082 264.56 284.058 264.56ZM295.724 266.72C296.188 266.112 296.82 265.6 297.62 265.184C298.42 264.768 299.324 264.56 300.332 264.56C301.484 264.56 302.532 264.848 303.476 265.424C304.436 265.984 305.188 266.776 305.732 267.8C306.276 268.824 306.548 270 306.548 271.328C306.548 272.656 306.276 273.848 305.732 274.904C305.188 275.944 304.436 276.76 303.476 277.352C302.532 277.928 301.484 278.216 300.332 278.216C299.324 278.216 298.428 278.016 297.644 277.616C296.86 277.2 296.22 276.688 295.724 276.08V284.288H292.988V264.776H295.724V266.72ZM303.764 271.328C303.764 270.416 303.572 269.632 303.188 268.976C302.82 268.304 302.324 267.8 301.7 267.464C301.092 267.112 300.436 266.936 299.732 266.936C299.044 266.936 298.388 267.112 297.764 267.464C297.156 267.816 296.66 268.328 296.276 269C295.908 269.672 295.724 270.464 295.724 271.376C295.724 272.288 295.908 273.088 296.276 273.776C296.66 274.448 297.156 274.96 297.764 275.312C298.388 275.664 299.044 275.84 299.732 275.84C300.436 275.84 301.092 275.664 301.7 275.312C302.324 274.944 302.82 274.416 303.188 273.728C303.572 273.04 303.764 272.24 303.764 271.328ZM311.989 266.696C312.389 266.024 312.917 265.504 313.573 265.136C314.245 264.752 315.037 264.56 315.949 264.56V267.392H315.253C314.181 267.392 313.365 267.664 312.805 268.208C312.261 268.752 311.989 269.696 311.989 271.04V278H309.253V264.776H311.989V266.696ZM330.584 271.064C330.584 271.56 330.552 272.008 330.488 272.408H320.384C320.464 273.464 320.856 274.312 321.56 274.952C322.264 275.592 323.128 275.912 324.152 275.912C325.624 275.912 326.664 275.296 327.272 274.064H330.224C329.824 275.28 329.096 276.28 328.04 277.064C327 277.832 325.704 278.216 324.152 278.216C322.888 278.216 321.752 277.936 320.744 277.376C319.752 276.8 318.968 276 318.392 274.976C317.832 273.936 317.552 272.736 317.552 271.376C317.552 270.016 317.824 268.824 318.368 267.8C318.928 266.76 319.704 265.96 320.696 265.4C321.704 264.84 322.856 264.56 324.152 264.56C325.4 264.56 326.512 264.832 327.488 265.376C328.464 265.92 329.224 266.688 329.768 267.68C330.312 268.656 330.584 269.784 330.584 271.064ZM327.728 270.2C327.712 269.192 327.352 268.384 326.648 267.776C325.944 267.168 325.072 266.864 324.032 266.864C323.088 266.864 322.28 267.168 321.608 267.776C320.936 268.368 320.536 269.176 320.408 270.2H327.728ZM105.974 302.744C106.438 302.104 107.07 301.584 107.87 301.184C108.686 300.768 109.59 300.56 110.582 300.56C111.75 300.56 112.806 300.84 113.75 301.4C114.694 301.96 115.438 302.76 115.982 303.8C116.526 304.824 116.798 306 116.798 307.328C116.798 308.656 116.526 309.848 115.982 310.904C115.438 311.944 114.686 312.76 113.726 313.352C112.782 313.928 111.734 314.216 110.582 314.216C109.558 314.216 108.646 314.016 107.846 313.616C107.062 313.216 106.438 312.704 105.974 312.08V314H103.238V296.24H105.974V302.744ZM114.014 307.328C114.014 306.416 113.822 305.632 113.438 304.976C113.07 304.304 112.574 303.8 111.95 303.464C111.342 303.112 110.686 302.936 109.982 302.936C109.294 302.936 108.638 303.112 108.014 303.464C107.406 303.816 106.91 304.328 106.526 305C106.158 305.672 105.974 306.464 105.974 307.376C105.974 308.288 106.158 309.088 106.526 309.776C106.91 310.448 107.406 310.96 108.014 311.312C108.638 311.664 109.294 311.84 109.982 311.84C110.686 311.84 111.342 311.664 111.95 311.312C112.574 310.944 113.07 310.416 113.438 309.728C113.822 309.04 114.014 308.24 114.014 307.328ZM122.239 302.696C122.639 302.024 123.167 301.504 123.823 301.136C124.495 300.752 125.287 300.56 126.199 300.56V303.392H125.503C124.431 303.392 123.615 303.664 123.055 304.208C122.511 304.752 122.239 305.696 122.239 307.04V314H119.503V300.776H122.239V302.696ZM130.106 299.024C129.61 299.024 129.194 298.856 128.858 298.52C128.522 298.184 128.354 297.768 128.354 297.272C128.354 296.776 128.522 296.36 128.858 296.024C129.194 295.688 129.61 295.52 130.106 295.52C130.586 295.52 130.994 295.688 131.33 296.024C131.666 296.36 131.834 296.776 131.834 297.272C131.834 297.768 131.666 298.184 131.33 298.52C130.994 298.856 130.586 299.024 130.106 299.024ZM131.45 300.776V314H128.714V300.776H131.45ZM141.714 300.56C142.754 300.56 143.682 300.776 144.498 301.208C145.33 301.64 145.978 302.28 146.442 303.128C146.906 303.976 147.138 305 147.138 306.2V314H144.426V306.608C144.426 305.424 144.13 304.52 143.538 303.896C142.946 303.256 142.138 302.936 141.114 302.936C140.09 302.936 139.274 303.256 138.666 303.896C138.074 304.52 137.778 305.424 137.778 306.608V314H135.042V300.776H137.778V302.288C138.226 301.744 138.794 301.32 139.482 301.016C140.186 300.712 140.93 300.56 141.714 300.56ZM149.716 307.328C149.716 306 149.988 304.824 150.532 303.8C151.092 302.776 151.844 301.984 152.788 301.424C153.748 300.848 154.812 300.56 155.98 300.56C157.004 300.56 157.908 300.768 158.692 301.184C159.492 301.6 160.108 302.104 160.54 302.696V300.776H163.3V320.288H160.54V312.08C160.108 312.672 159.484 313.176 158.668 313.592C157.852 314.008 156.924 314.216 155.884 314.216C154.748 314.216 153.708 313.928 152.764 313.352C151.836 312.76 151.092 311.944 150.532 310.904C149.988 309.848 149.716 308.656 149.716 307.328ZM160.54 307.376C160.54 306.464 160.348 305.672 159.964 305C159.596 304.328 159.108 303.816 158.5 303.464C157.892 303.112 157.236 302.936 156.532 302.936C155.828 302.936 155.172 303.112 154.564 303.464C153.956 303.8 153.46 304.304 153.076 304.976C152.708 305.632 152.524 306.416 152.524 307.328C152.524 308.24 152.708 309.04 153.076 309.728C153.46 310.416 153.956 310.944 154.564 311.312C155.188 311.664 155.844 311.84 156.532 311.84C157.236 311.84 157.892 311.664 158.5 311.312C159.108 310.96 159.596 310.448 159.964 309.776C160.348 309.088 160.54 308.288 160.54 307.376ZM178.87 300.776V314H176.134V312.44C175.702 312.984 175.134 313.416 174.43 313.736C173.742 314.04 173.006 314.192 172.222 314.192C171.182 314.192 170.246 313.976 169.414 313.544C168.598 313.112 167.95 312.472 167.47 311.624C167.006 310.776 166.774 309.752 166.774 308.552V300.776H169.486V308.144C169.486 309.328 169.782 310.24 170.374 310.88C170.966 311.504 171.774 311.816 172.798 311.816C173.822 311.816 174.63 311.504 175.222 310.88C175.83 310.24 176.134 309.328 176.134 308.144V300.776H178.87ZM194.6 307.064C194.6 307.56 194.568 308.008 194.504 308.408H184.4C184.48 309.464 184.872 310.312 185.576 310.952C186.28 311.592 187.144 311.912 188.168 311.912C189.64 311.912 190.68 311.296 191.288 310.064H194.24C193.84 311.28 193.112 312.28 192.056 313.064C191.016 313.832 189.72 314.216 188.168 314.216C186.904 314.216 185.768 313.936 184.76 313.376C183.768 312.8 182.984 312 182.408 310.976C181.848 309.936 181.568 308.736 181.568 307.376C181.568 306.016 181.84 304.824 182.384 303.8C182.944 302.76 183.72 301.96 184.712 301.4C185.72 300.84 186.872 300.56 188.168 300.56C189.416 300.56 190.528 300.832 191.504 301.376C192.48 301.92 193.24 302.688 193.784 303.68C194.328 304.656 194.6 305.784 194.6 307.064ZM191.744 306.2C191.728 305.192 191.368 304.384 190.664 303.776C189.96 303.168 189.088 302.864 188.048 302.864C187.104 302.864 186.296 303.168 185.624 303.776C184.952 304.368 184.552 305.176 184.424 306.2H191.744ZM196.38 307.328C196.38 306 196.652 304.824 197.196 303.8C197.756 302.776 198.508 301.984 199.452 301.424C200.412 300.848 201.476 300.56 202.644 300.56C203.508 300.56 204.356 300.752 205.188 301.136C206.036 301.504 206.708 302 207.204 302.624V296.24H209.964V314H207.204V312.008C206.756 312.648 206.132 313.176 205.332 313.592C204.548 314.008 203.644 314.216 202.62 314.216C201.468 314.216 200.412 313.928 199.452 313.352C198.508 312.76 197.756 311.944 197.196 310.904C196.652 309.848 196.38 308.656 196.38 307.328ZM207.204 307.376C207.204 306.464 207.012 305.672 206.628 305C206.26 304.328 205.772 303.816 205.164 303.464C204.556 303.112 203.9 302.936 203.196 302.936C202.492 302.936 201.836 303.112 201.228 303.464C200.62 303.8 200.124 304.304 199.74 304.976C199.372 305.632 199.188 306.416 199.188 307.328C199.188 308.24 199.372 309.04 199.74 309.728C200.124 310.416 200.62 310.944 201.228 311.312C201.852 311.664 202.508 311.84 203.196 311.84C203.9 311.84 204.556 311.664 205.164 311.312C205.772 310.96 206.26 310.448 206.628 309.776C207.012 309.088 207.204 308.288 207.204 307.376ZM219.294 314.216C218.046 314.216 216.918 313.936 215.91 313.376C214.902 312.8 214.11 312 213.534 310.976C212.958 309.936 212.67 308.736 212.67 307.376C212.67 306.032 212.966 304.84 213.558 303.8C214.15 302.76 214.958 301.96 215.982 301.4C217.006 300.84 218.15 300.56 219.414 300.56C220.678 300.56 221.822 300.84 222.846 301.4C223.87 301.96 224.678 302.76 225.27 303.8C225.862 304.84 226.158 306.032 226.158 307.376C226.158 308.72 225.854 309.912 225.246 310.952C224.638 311.992 223.806 312.8 222.75 313.376C221.71 313.936 220.558 314.216 219.294 314.216ZM219.294 311.84C219.998 311.84 220.654 311.672 221.262 311.336C221.886 311 222.39 310.496 222.774 309.824C223.158 309.152 223.35 308.336 223.35 307.376C223.35 306.416 223.166 305.608 222.798 304.952C222.43 304.28 221.942 303.776 221.334 303.44C220.726 303.104 220.07 302.936 219.366 302.936C218.662 302.936 218.006 303.104 217.398 303.44C216.806 303.776 216.334 304.28 215.982 304.952C215.63 305.608 215.454 306.416 215.454 307.376C215.454 308.8 215.814 309.904 216.534 310.688C217.27 311.456 218.19 311.84 219.294 311.84ZM233.663 314.216C232.623 314.216 231.687 314.032 230.855 313.664C230.039 313.28 229.391 312.768 228.911 312.128C228.431 311.472 228.175 310.744 228.143 309.944H230.975C231.023 310.504 231.287 310.976 231.767 311.36C232.263 311.728 232.879 311.912 233.615 311.912C234.383 311.912 234.975 311.768 235.391 311.48C235.823 311.176 236.039 310.792 236.039 310.328C236.039 309.832 235.799 309.464 235.319 309.224C234.855 308.984 234.111 308.72 233.087 308.432C232.095 308.16 231.287 307.896 230.663 307.64C230.039 307.384 229.495 306.992 229.031 306.464C228.583 305.936 228.359 305.24 228.359 304.376C228.359 303.672 228.567 303.032 228.983 302.456C229.399 301.864 229.991 301.4 230.759 301.064C231.543 300.728 232.439 300.56 233.447 300.56C234.951 300.56 236.159 300.944 237.071 301.712C237.999 302.464 238.495 303.496 238.559 304.808H235.823C235.775 304.216 235.535 303.744 235.103 303.392C234.671 303.04 234.087 302.864 233.351 302.864C232.631 302.864 232.079 303 231.695 303.272C231.311 303.544 231.119 303.904 231.119 304.352C231.119 304.704 231.247 305 231.503 305.24C231.759 305.48 232.071 305.672 232.439 305.816C232.807 305.944 233.351 306.112 234.071 306.32C235.031 306.576 235.815 306.84 236.423 307.112C237.047 307.368 237.583 307.752 238.031 308.264C238.479 308.776 238.711 309.456 238.727 310.304C238.727 311.056 238.519 311.728 238.103 312.32C237.687 312.912 237.095 313.376 236.327 313.712C235.575 314.048 234.687 314.216 233.663 314.216ZM253.653 314.216C252.405 314.216 251.277 313.936 250.269 313.376C249.261 312.8 248.469 312 247.893 310.976C247.317 309.936 247.029 308.736 247.029 307.376C247.029 306.032 247.325 304.84 247.917 303.8C248.509 302.76 249.317 301.96 250.341 301.4C251.365 300.84 252.509 300.56 253.773 300.56C255.037 300.56 256.181 300.84 257.205 301.4C258.229 301.96 259.037 302.76 259.629 303.8C260.221 304.84 260.517 306.032 260.517 307.376C260.517 308.72 260.213 309.912 259.605 310.952C258.997 311.992 258.165 312.8 257.109 313.376C256.069 313.936 254.917 314.216 253.653 314.216ZM253.653 311.84C254.357 311.84 255.013 311.672 255.621 311.336C256.245 311 256.749 310.496 257.133 309.824C257.517 309.152 257.709 308.336 257.709 307.376C257.709 306.416 257.525 305.608 257.157 304.952C256.789 304.28 256.301 303.776 255.693 303.44C255.085 303.104 254.429 302.936 253.725 302.936C253.021 302.936 252.365 303.104 251.757 303.44C251.165 303.776 250.693 304.28 250.341 304.952C249.989 305.608 249.813 306.416 249.813 307.376C249.813 308.8 250.173 309.904 250.893 310.688C251.629 311.456 252.549 311.84 253.653 311.84ZM275.198 300.776V314H272.462V312.44C272.03 312.984 271.462 313.416 270.758 313.736C270.07 314.04 269.334 314.192 268.55 314.192C267.51 314.192 266.574 313.976 265.742 313.544C264.926 313.112 264.278 312.472 263.798 311.624C263.334 310.776 263.102 309.752 263.102 308.552V300.776H265.814V308.144C265.814 309.328 266.11 310.24 266.702 310.88C267.294 311.504 268.102 311.816 269.126 311.816C270.15 311.816 270.958 311.504 271.55 310.88C272.158 310.24 272.462 309.328 272.462 308.144V300.776H275.198ZM287.778 296.24V314H285.042V296.24H287.778ZM303.49 307.064C303.49 307.56 303.458 308.008 303.394 308.408H293.29C293.37 309.464 293.762 310.312 294.466 310.952C295.17 311.592 296.034 311.912 297.058 311.912C298.53 311.912 299.57 311.296 300.178 310.064H303.13C302.73 311.28 302.002 312.28 300.946 313.064C299.906 313.832 298.61 314.216 297.058 314.216C295.794 314.216 294.658 313.936 293.65 313.376C292.658 312.8 291.874 312 291.298 310.976C290.738 309.936 290.458 308.736 290.458 307.376C290.458 306.016 290.73 304.824 291.274 303.8C291.834 302.76 292.61 301.96 293.602 301.4C294.61 300.84 295.762 300.56 297.058 300.56C298.306 300.56 299.418 300.832 300.394 301.376C301.37 301.92 302.13 302.688 302.674 303.68C303.218 304.656 303.49 305.784 303.49 307.064ZM300.634 306.2C300.618 305.192 300.258 304.384 299.554 303.776C298.85 303.168 297.978 302.864 296.938 302.864C295.994 302.864 295.186 303.168 294.514 303.776C293.842 304.368 293.442 305.176 293.314 306.2H300.634ZM311.295 311.552L315.039 300.776H317.943L312.903 314H309.639L304.623 300.776H307.551L311.295 311.552ZM332.131 307.064C332.131 307.56 332.099 308.008 332.035 308.408H321.931C322.011 309.464 322.403 310.312 323.107 310.952C323.811 311.592 324.675 311.912 325.699 311.912C327.171 311.912 328.211 311.296 328.819 310.064H331.771C331.371 311.28 330.643 312.28 329.587 313.064C328.547 313.832 327.251 314.216 325.699 314.216C324.435 314.216 323.299 313.936 322.291 313.376C321.299 312.8 320.515 312 319.939 310.976C319.379 309.936 319.099 308.736 319.099 307.376C319.099 306.016 319.371 304.824 319.915 303.8C320.475 302.76 321.251 301.96 322.243 301.4C323.251 300.84 324.403 300.56 325.699 300.56C326.947 300.56 328.059 300.832 329.035 301.376C330.011 301.92 330.771 302.688 331.315 303.68C331.859 304.656 332.131 305.784 332.131 307.064ZM329.275 306.2C329.259 305.192 328.899 304.384 328.195 303.776C327.491 303.168 326.619 302.864 325.579 302.864C324.635 302.864 323.827 303.168 323.155 303.776C322.483 304.368 322.083 305.176 321.955 306.2H329.275ZM346.794 314.216C345.546 314.216 344.418 313.936 343.41 313.376C342.402 312.8 341.61 312 341.034 310.976C340.458 309.936 340.17 308.736 340.17 307.376C340.17 306.032 340.466 304.84 341.058 303.8C341.65 302.76 342.458 301.96 343.482 301.4C344.506 300.84 345.65 300.56 346.914 300.56C348.178 300.56 349.322 300.84 350.346 301.4C351.37 301.96 352.178 302.76 352.77 303.8C353.362 304.84 353.658 306.032 353.658 307.376C353.658 308.72 353.354 309.912 352.746 310.952C352.138 311.992 351.306 312.8 350.25 313.376C349.21 313.936 348.058 314.216 346.794 314.216ZM346.794 311.84C347.498 311.84 348.154 311.672 348.762 311.336C349.386 311 349.89 310.496 350.274 309.824C350.658 309.152 350.85 308.336 350.85 307.376C350.85 306.416 350.666 305.608 350.298 304.952C349.93 304.28 349.442 303.776 348.834 303.44C348.226 303.104 347.57 302.936 346.866 302.936C346.162 302.936 345.506 303.104 344.898 303.44C344.306 303.776 343.834 304.28 343.482 304.952C343.13 305.608 342.954 306.416 342.954 307.376C342.954 308.8 343.314 309.904 344.034 310.688C344.77 311.456 345.69 311.84 346.794 311.84ZM148.29 338.72C148.754 338.112 149.386 337.6 150.186 337.184C150.986 336.768 151.89 336.56 152.898 336.56C154.05 336.56 155.098 336.848 156.042 337.424C157.002 337.984 157.754 338.776 158.298 339.8C158.842 340.824 159.114 342 159.114 343.328C159.114 344.656 158.842 345.848 158.298 346.904C157.754 347.944 157.002 348.76 156.042 349.352C155.098 349.928 154.05 350.216 152.898 350.216C151.89 350.216 150.994 350.016 150.21 349.616C149.426 349.2 148.786 348.688 148.29 348.08V356.288H145.554V336.776H148.29V338.72ZM156.33 343.328C156.33 342.416 156.138 341.632 155.754 340.976C155.386 340.304 154.89 339.8 154.266 339.464C153.658 339.112 153.002 338.936 152.298 338.936C151.61 338.936 150.954 339.112 150.33 339.464C149.722 339.816 149.226 340.328 148.842 341C148.474 341.672 148.29 342.464 148.29 343.376C148.29 344.288 148.474 345.088 148.842 345.776C149.226 346.448 149.722 346.96 150.33 347.312C150.954 347.664 151.61 347.84 152.298 347.84C153.002 347.84 153.658 347.664 154.266 347.312C154.89 346.944 155.386 346.416 155.754 345.728C156.138 345.04 156.33 344.24 156.33 343.328ZM160.908 343.328C160.908 342 161.18 340.824 161.724 339.8C162.284 338.776 163.036 337.984 163.98 337.424C164.94 336.848 165.996 336.56 167.148 336.56C168.188 336.56 169.092 336.768 169.86 337.184C170.644 337.584 171.268 338.088 171.732 338.696V336.776H174.492V350H171.732V348.032C171.268 348.656 170.636 349.176 169.836 349.592C169.036 350.008 168.124 350.216 167.1 350.216C165.964 350.216 164.924 349.928 163.98 349.352C163.036 348.76 162.284 347.944 161.724 346.904C161.18 345.848 160.908 344.656 160.908 343.328ZM171.732 343.376C171.732 342.464 171.54 341.672 171.156 341C170.788 340.328 170.3 339.816 169.692 339.464C169.084 339.112 168.428 338.936 167.724 338.936C167.02 338.936 166.364 339.112 165.756 339.464C165.148 339.8 164.652 340.304 164.268 340.976C163.9 341.632 163.716 342.416 163.716 343.328C163.716 344.24 163.9 345.04 164.268 345.728C164.652 346.416 165.148 346.944 165.756 347.312C166.38 347.664 167.036 347.84 167.724 347.84C168.428 347.84 169.084 347.664 169.692 347.312C170.3 346.96 170.788 346.448 171.156 345.776C171.54 345.088 171.732 344.288 171.732 343.376ZM180.821 338.696C181.221 338.024 181.749 337.504 182.405 337.136C183.077 336.752 183.869 336.56 184.781 336.56V339.392H184.085C183.013 339.392 182.197 339.664 181.637 340.208C181.093 340.752 180.821 341.696 180.821 343.04V350H178.085V336.776H180.821V338.696ZM186.384 343.328C186.384 342 186.656 340.824 187.2 339.8C187.76 338.776 188.512 337.984 189.456 337.424C190.416 336.848 191.472 336.56 192.624 336.56C193.664 336.56 194.568 336.768 195.336 337.184C196.12 337.584 196.744 338.088 197.208 338.696V336.776H199.968V350H197.208V348.032C196.744 348.656 196.112 349.176 195.312 349.592C194.512 350.008 193.6 350.216 192.576 350.216C191.44 350.216 190.4 349.928 189.456 349.352C188.512 348.76 187.76 347.944 187.2 346.904C186.656 345.848 186.384 344.656 186.384 343.328ZM197.208 343.376C197.208 342.464 197.016 341.672 196.632 341C196.264 340.328 195.776 339.816 195.168 339.464C194.56 339.112 193.904 338.936 193.2 338.936C192.496 338.936 191.84 339.112 191.232 339.464C190.624 339.8 190.128 340.304 189.744 340.976C189.376 341.632 189.192 342.416 189.192 343.328C189.192 344.24 189.376 345.04 189.744 345.728C190.128 346.416 190.624 346.944 191.232 347.312C191.856 347.664 192.512 347.84 193.2 347.84C193.904 347.84 194.56 347.664 195.168 347.312C195.776 346.96 196.264 346.448 196.632 345.776C197.016 345.088 197.208 344.288 197.208 343.376ZM212.532 338.72C212.996 338.112 213.628 337.6 214.428 337.184C215.228 336.768 216.132 336.56 217.14 336.56C218.292 336.56 219.34 336.848 220.284 337.424C221.244 337.984 221.996 338.776 222.54 339.8C223.084 340.824 223.356 342 223.356 343.328C223.356 344.656 223.084 345.848 222.54 346.904C221.996 347.944 221.244 348.76 220.284 349.352C219.34 349.928 218.292 350.216 217.14 350.216C216.132 350.216 215.236 350.016 214.452 349.616C213.668 349.2 213.028 348.688 212.532 348.08V356.288H209.796V336.776H212.532V338.72ZM220.572 343.328C220.572 342.416 220.38 341.632 219.996 340.976C219.628 340.304 219.132 339.8 218.508 339.464C217.9 339.112 217.244 338.936 216.54 338.936C215.852 338.936 215.196 339.112 214.572 339.464C213.964 339.816 213.468 340.328 213.084 341C212.716 341.672 212.532 342.464 212.532 343.376C212.532 344.288 212.716 345.088 213.084 345.776C213.468 346.448 213.964 346.96 214.572 347.312C215.196 347.664 215.852 347.84 216.54 347.84C217.244 347.84 217.9 347.664 218.508 347.312C219.132 346.944 219.628 346.416 219.996 345.728C220.38 345.04 220.572 344.24 220.572 343.328ZM225.15 343.328C225.15 342 225.422 340.824 225.966 339.8C226.526 338.776 227.278 337.984 228.222 337.424C229.182 336.848 230.238 336.56 231.39 336.56C232.43 336.56 233.334 336.768 234.102 337.184C234.886 337.584 235.51 338.088 235.974 338.696V336.776H238.734V350H235.974V348.032C235.51 348.656 234.878 349.176 234.078 349.592C233.278 350.008 232.366 350.216 231.342 350.216C230.206 350.216 229.166 349.928 228.222 349.352C227.278 348.76 226.526 347.944 225.966 346.904C225.422 345.848 225.15 344.656 225.15 343.328ZM235.974 343.376C235.974 342.464 235.782 341.672 235.398 341C235.03 340.328 234.542 339.816 233.934 339.464C233.326 339.112 232.67 338.936 231.966 338.936C231.262 338.936 230.606 339.112 229.998 339.464C229.39 339.8 228.894 340.304 228.51 340.976C228.142 341.632 227.958 342.416 227.958 343.328C227.958 344.24 228.142 345.04 228.51 345.728C228.894 346.416 229.39 346.944 229.998 347.312C230.622 347.664 231.278 347.84 231.966 347.84C232.67 347.84 233.326 347.664 233.934 347.312C234.542 346.96 235.03 346.448 235.398 345.776C235.782 345.088 235.974 344.288 235.974 343.376ZM247.127 350.216C246.087 350.216 245.151 350.032 244.319 349.664C243.503 349.28 242.855 348.768 242.375 348.128C241.895 347.472 241.639 346.744 241.607 345.944H244.439C244.487 346.504 244.751 346.976 245.231 347.36C245.727 347.728 246.343 347.912 247.079 347.912C247.847 347.912 248.439 347.768 248.855 347.48C249.287 347.176 249.503 346.792 249.503 346.328C249.503 345.832 249.263 345.464 248.783 345.224C248.319 344.984 247.575 344.72 246.551 344.432C245.559 344.16 244.751 343.896 244.127 343.64C243.503 343.384 242.959 342.992 242.495 342.464C242.047 341.936 241.823 341.24 241.823 340.376C241.823 339.672 242.031 339.032 242.447 338.456C242.863 337.864 243.455 337.4 244.223 337.064C245.007 336.728 245.903 336.56 246.911 336.56C248.415 336.56 249.623 336.944 250.535 337.712C251.463 338.464 251.959 339.496 252.023 340.808H249.287C249.239 340.216 248.999 339.744 248.567 339.392C248.135 339.04 247.551 338.864 246.815 338.864C246.095 338.864 245.543 339 245.159 339.272C244.775 339.544 244.583 339.904 244.583 340.352C244.583 340.704 244.711 341 244.967 341.24C245.223 341.48 245.535 341.672 245.903 341.816C246.271 341.944 246.815 342.112 247.535 342.32C248.495 342.576 249.279 342.84 249.887 343.112C250.511 343.368 251.047 343.752 251.495 344.264C251.943 344.776 252.175 345.456 252.191 346.304C252.191 347.056 251.983 347.728 251.567 348.32C251.151 348.912 250.559 349.376 249.791 349.712C249.039 350.048 248.151 350.216 247.127 350.216ZM259.948 350.216C258.908 350.216 257.972 350.032 257.14 349.664C256.324 349.28 255.676 348.768 255.196 348.128C254.716 347.472 254.46 346.744 254.428 345.944H257.26C257.308 346.504 257.572 346.976 258.052 347.36C258.548 347.728 259.164 347.912 259.9 347.912C260.668 347.912 261.26 347.768 261.676 347.48C262.108 347.176 262.324 346.792 262.324 346.328C262.324 345.832 262.084 345.464 261.604 345.224C261.14 344.984 260.396 344.72 259.372 344.432C258.38 344.16 257.572 343.896 256.948 343.64C256.324 343.384 255.78 342.992 255.316 342.464C254.868 341.936 254.644 341.24 254.644 340.376C254.644 339.672 254.852 339.032 255.268 338.456C255.684 337.864 256.276 337.4 257.044 337.064C257.828 336.728 258.724 336.56 259.732 336.56C261.236 336.56 262.444 336.944 263.356 337.712C264.284 338.464 264.78 339.496 264.844 340.808H262.108C262.06 340.216 261.82 339.744 261.388 339.392C260.956 339.04 260.372 338.864 259.636 338.864C258.916 338.864 258.364 339 257.98 339.272C257.596 339.544 257.404 339.904 257.404 340.352C257.404 340.704 257.532 341 257.788 341.24C258.044 341.48 258.356 341.672 258.724 341.816C259.092 341.944 259.636 342.112 260.356 342.32C261.316 342.576 262.1 342.84 262.708 343.112C263.332 343.368 263.868 343.752 264.316 344.264C264.764 344.776 264.996 345.456 265.012 346.304C265.012 347.056 264.804 347.728 264.388 348.32C263.972 348.912 263.38 349.376 262.612 349.712C261.86 350.048 260.972 350.216 259.948 350.216ZM280.088 343.064C280.088 343.56 280.056 344.008 279.992 344.408H269.888C269.968 345.464 270.36 346.312 271.064 346.952C271.768 347.592 272.632 347.912 273.656 347.912C275.128 347.912 276.168 347.296 276.776 346.064H279.728C279.328 347.28 278.6 348.28 277.544 349.064C276.504 349.832 275.208 350.216 273.656 350.216C272.392 350.216 271.256 349.936 270.248 349.376C269.256 348.8 268.472 348 267.896 346.976C267.336 345.936 267.056 344.736 267.056 343.376C267.056 342.016 267.328 340.824 267.872 339.8C268.432 338.76 269.208 337.96 270.2 337.4C271.208 336.84 272.36 336.56 273.656 336.56C274.904 336.56 276.016 336.832 276.992 337.376C277.968 337.92 278.728 338.688 279.272 339.68C279.816 340.656 280.088 341.784 280.088 343.064ZM277.232 342.2C277.216 341.192 276.856 340.384 276.152 339.776C275.448 339.168 274.576 338.864 273.536 338.864C272.592 338.864 271.784 339.168 271.112 339.776C270.44 340.368 270.04 341.176 269.912 342.2H277.232ZM281.868 343.328C281.868 342 282.14 340.824 282.684 339.8C283.244 338.776 283.996 337.984 284.94 337.424C285.9 336.848 286.956 336.56 288.108 336.56C289.148 336.56 290.052 336.768 290.82 337.184C291.604 337.584 292.228 338.088 292.692 338.696V336.776H295.452V350H292.692V348.032C292.228 348.656 291.596 349.176 290.796 349.592C289.996 350.008 289.084 350.216 288.06 350.216C286.924 350.216 285.884 349.928 284.94 349.352C283.996 348.76 283.244 347.944 282.684 346.904C282.14 345.848 281.868 344.656 281.868 343.328ZM292.692 343.376C292.692 342.464 292.5 341.672 292.116 341C291.748 340.328 291.26 339.816 290.652 339.464C290.044 339.112 289.388 338.936 288.684 338.936C287.98 338.936 287.324 339.112 286.716 339.464C286.108 339.8 285.612 340.304 285.228 340.976C284.86 341.632 284.676 342.416 284.676 343.328C284.676 344.24 284.86 345.04 285.228 345.728C285.612 346.416 286.108 346.944 286.716 347.312C287.34 347.664 287.996 347.84 288.684 347.84C289.388 347.84 290.044 347.664 290.652 347.312C291.26 346.96 291.748 346.448 292.116 345.776C292.5 345.088 292.692 344.288 292.692 343.376ZM301.782 338.696C302.182 338.024 302.71 337.504 303.366 337.136C304.038 336.752 304.83 336.56 305.742 336.56V339.392H305.046C303.974 339.392 303.158 339.664 302.598 340.208C302.054 340.752 301.782 341.696 301.782 343.04V350H299.046V336.776H301.782V338.696ZM309.361 350.168C308.865 350.168 308.449 350 308.113 349.664C307.777 349.328 307.609 348.912 307.609 348.416C307.609 347.92 307.777 347.504 308.113 347.168C308.449 346.832 308.865 346.664 309.361 346.664C309.841 346.664 310.249 346.832 310.585 347.168C310.921 347.504 311.089 347.92 311.089 348.416C311.089 348.912 310.921 349.328 310.585 349.664C310.249 350 309.841 350.168 309.361 350.168Z" fill="#FFEBEB"/>
</svg>
