<svg width="456" height="456" viewBox="0 0 456 456" fill="none" xmlns="http://www.w3.org/2000/svg">
<rect width="456" height="456" fill="#F8A98A"/>
<path d="M141.089 135.088C141.089 133.147 141.491 131.42 142.293 129.908C143.115 128.377 144.272 127.192 145.765 126.352C147.259 125.493 148.976 125.064 150.917 125.064C153.381 125.064 155.453 125.727 157.133 127.052C158.813 128.359 159.896 130.141 160.381 132.4H154.473C154.119 131.653 153.624 131.084 152.989 130.692C152.373 130.3 151.655 130.104 150.833 130.104C149.564 130.104 148.547 130.561 147.781 131.476C147.035 132.372 146.661 133.576 146.661 135.088C146.661 136.619 147.035 137.841 147.781 138.756C148.547 139.652 149.564 140.1 150.833 140.1C151.655 140.1 152.373 139.904 152.989 139.512C153.624 139.12 154.119 138.551 154.473 137.804H160.381C159.896 140.063 158.813 141.855 157.133 143.18C155.453 144.487 153.381 145.14 150.917 145.14C148.976 145.14 147.259 144.72 145.765 143.88C144.272 143.021 143.115 141.836 142.293 140.324C141.491 138.793 141.089 137.048 141.089 135.088ZM162.084 137.132C162.084 135.508 162.373 134.089 162.952 132.876C163.549 131.663 164.352 130.729 165.36 130.076C166.387 129.423 167.525 129.096 168.776 129.096C169.859 129.096 170.792 129.311 171.576 129.74C172.36 130.169 172.967 130.748 173.396 131.476V129.292H178.884V145H173.396V142.816C172.967 143.544 172.351 144.123 171.548 144.552C170.764 144.981 169.84 145.196 168.776 145.196C167.525 145.196 166.387 144.869 165.36 144.216C164.352 143.563 163.549 142.629 162.952 141.416C162.373 140.184 162.084 138.756 162.084 137.132ZM173.396 137.132C173.396 136.124 173.116 135.331 172.556 134.752C172.015 134.173 171.343 133.884 170.54 133.884C169.719 133.884 169.037 134.173 168.496 134.752C167.955 135.312 167.684 136.105 167.684 137.132C167.684 138.14 167.955 138.943 168.496 139.54C169.037 140.119 169.719 140.408 170.54 140.408C171.343 140.408 172.015 140.119 172.556 139.54C173.116 138.961 173.396 138.159 173.396 137.132ZM164.968 128.116C165.491 125.073 166.891 123.552 169.168 123.552C169.597 123.552 169.98 123.617 170.316 123.748C170.671 123.879 171.072 124.065 171.52 124.308C171.837 124.476 172.108 124.607 172.332 124.7C172.556 124.793 172.78 124.84 173.004 124.84C173.695 124.84 174.105 124.411 174.236 123.552H177.008C176.747 125.139 176.252 126.296 175.524 127.024C174.815 127.733 173.909 128.088 172.808 128.088C172.397 128.088 172.024 128.032 171.688 127.92C171.352 127.789 170.941 127.603 170.456 127.36C170.139 127.192 169.868 127.061 169.644 126.968C169.42 126.875 169.196 126.828 168.972 126.828C168.3 126.828 167.88 127.257 167.712 128.116H164.968ZM197.019 136.964C197.019 137.393 196.991 137.823 196.935 138.252H186.547C186.603 139.111 186.837 139.755 187.247 140.184C187.677 140.595 188.218 140.8 188.871 140.8C189.786 140.8 190.439 140.389 190.831 139.568H196.683C196.441 140.651 195.965 141.621 195.255 142.48C194.565 143.32 193.687 143.983 192.623 144.468C191.559 144.953 190.383 145.196 189.095 145.196C187.546 145.196 186.165 144.869 184.951 144.216C183.757 143.563 182.814 142.629 182.123 141.416C181.451 140.203 181.115 138.775 181.115 137.132C181.115 135.489 181.451 134.071 182.123 132.876C182.795 131.663 183.729 130.729 184.923 130.076C186.137 129.423 187.527 129.096 189.095 129.096C190.645 129.096 192.017 129.413 193.211 130.048C194.406 130.683 195.339 131.597 196.011 132.792C196.683 133.968 197.019 135.359 197.019 136.964ZM191.419 135.592C191.419 134.92 191.195 134.397 190.747 134.024C190.299 133.632 189.739 133.436 189.067 133.436C188.395 133.436 187.845 133.623 187.415 133.996C186.986 134.351 186.706 134.883 186.575 135.592H191.419ZM205.957 145.196C204.539 145.196 203.269 144.963 202.149 144.496C201.048 144.011 200.171 143.357 199.517 142.536C198.883 141.696 198.528 140.753 198.453 139.708H203.773C203.848 140.212 204.081 140.604 204.473 140.884C204.865 141.164 205.351 141.304 205.929 141.304C206.377 141.304 206.732 141.211 206.993 141.024C207.255 140.837 207.385 140.595 207.385 140.296C207.385 139.904 207.171 139.615 206.741 139.428C206.312 139.241 205.603 139.036 204.613 138.812C203.493 138.588 202.56 138.336 201.813 138.056C201.067 137.776 200.413 137.319 199.853 136.684C199.312 136.049 199.041 135.191 199.041 134.108C199.041 133.175 199.293 132.335 199.797 131.588C200.301 130.823 201.039 130.216 202.009 129.768C202.999 129.32 204.184 129.096 205.565 129.096C207.619 129.096 209.233 129.6 210.409 130.608C211.585 131.616 212.267 132.941 212.453 134.584H207.497C207.404 134.08 207.18 133.697 206.825 133.436C206.489 133.156 206.032 133.016 205.453 133.016C205.005 133.016 204.66 133.1 204.417 133.268C204.193 133.436 204.081 133.669 204.081 133.968C204.081 134.341 204.296 134.631 204.725 134.836C205.155 135.023 205.845 135.219 206.797 135.424C207.936 135.667 208.879 135.937 209.625 136.236C210.391 136.535 211.053 137.02 211.613 137.692C212.192 138.345 212.481 139.241 212.481 140.38C212.481 141.295 212.211 142.116 211.669 142.844C211.147 143.572 210.391 144.151 209.401 144.58C208.431 144.991 207.283 145.196 205.957 145.196ZM219.643 137.132C219.643 135.508 219.932 134.089 220.511 132.876C221.108 131.663 221.911 130.729 222.919 130.076C223.945 129.423 225.084 129.096 226.335 129.096C227.417 129.096 228.351 129.311 229.135 129.74C229.919 130.169 230.525 130.748 230.955 131.476V129.292H236.443V145H230.955V142.816C230.525 143.544 229.909 144.123 229.107 144.552C228.323 144.981 227.399 145.196 226.335 145.196C225.084 145.196 223.945 144.869 222.919 144.216C221.911 143.563 221.108 142.629 220.511 141.416C219.932 140.184 219.643 138.756 219.643 137.132ZM230.955 137.132C230.955 136.124 230.675 135.331 230.115 134.752C229.573 134.173 228.901 133.884 228.099 133.884C227.277 133.884 226.596 134.173 226.055 134.752C225.513 135.312 225.243 136.105 225.243 137.132C225.243 138.14 225.513 138.943 226.055 139.54C226.596 140.119 227.277 140.408 228.099 140.408C228.901 140.408 229.573 140.119 230.115 139.54C230.675 138.961 230.955 138.159 230.955 137.132ZM260.094 129.152C262.073 129.152 263.622 129.749 264.742 130.944C265.881 132.139 266.45 133.772 266.45 135.844V145H260.962V136.572C260.962 135.732 260.729 135.079 260.262 134.612C259.795 134.145 259.161 133.912 258.358 133.912C257.555 133.912 256.921 134.145 256.454 134.612C255.987 135.079 255.754 135.732 255.754 136.572V145H250.266V136.572C250.266 135.732 250.033 135.079 249.566 134.612C249.118 134.145 248.493 133.912 247.69 133.912C246.869 133.912 246.225 134.145 245.758 134.612C245.291 135.079 245.058 135.732 245.058 136.572V145H239.57V129.292H245.058V131.364C245.543 130.692 246.169 130.16 246.934 129.768C247.718 129.357 248.614 129.152 249.622 129.152C250.779 129.152 251.806 129.404 252.702 129.908C253.617 130.412 254.335 131.121 254.858 132.036C255.418 131.177 256.155 130.487 257.07 129.964C257.985 129.423 258.993 129.152 260.094 129.152ZM268.561 137.132C268.561 135.508 268.85 134.089 269.429 132.876C270.026 131.663 270.829 130.729 271.837 130.076C272.863 129.423 274.002 129.096 275.253 129.096C276.335 129.096 277.269 129.311 278.053 129.74C278.837 130.169 279.443 130.748 279.873 131.476V129.292H285.361V145H279.873V142.816C279.443 143.544 278.827 144.123 278.025 144.552C277.241 144.981 276.317 145.196 275.253 145.196C274.002 145.196 272.863 144.869 271.837 144.216C270.829 143.563 270.026 142.629 269.429 141.416C268.85 140.184 268.561 138.756 268.561 137.132ZM279.873 137.132C279.873 136.124 279.593 135.331 279.033 134.752C278.491 134.173 277.819 133.884 277.017 133.884C276.195 133.884 275.514 134.173 274.973 134.752C274.431 135.312 274.161 136.105 274.161 137.132C274.161 138.14 274.431 138.943 274.973 139.54C275.514 140.119 276.195 140.408 277.017 140.408C277.819 140.408 278.491 140.119 279.033 139.54C279.593 138.961 279.873 138.159 279.873 137.132ZM309.012 129.152C310.991 129.152 312.54 129.749 313.66 130.944C314.799 132.139 315.368 133.772 315.368 135.844V145H309.88V136.572C309.88 135.732 309.647 135.079 309.18 134.612C308.713 134.145 308.079 133.912 307.276 133.912C306.473 133.912 305.839 134.145 305.372 134.612C304.905 135.079 304.672 135.732 304.672 136.572V145H299.184V136.572C299.184 135.732 298.951 135.079 298.484 134.612C298.036 134.145 297.411 133.912 296.608 133.912C295.787 133.912 295.143 134.145 294.676 134.612C294.209 135.079 293.976 135.732 293.976 136.572V145H288.488V129.292H293.976V131.364C294.461 130.692 295.087 130.16 295.852 129.768C296.636 129.357 297.532 129.152 298.54 129.152C299.697 129.152 300.724 129.404 301.62 129.908C302.535 130.412 303.253 131.121 303.776 132.036C304.336 131.177 305.073 130.487 305.988 129.964C306.903 129.423 307.911 129.152 309.012 129.152ZM167.32 173.476C167.749 172.748 168.356 172.169 169.14 171.74C169.924 171.311 170.848 171.096 171.912 171.096C173.162 171.096 174.292 171.423 175.3 172.076C176.326 172.729 177.129 173.663 177.708 174.876C178.305 176.089 178.604 177.508 178.604 179.132C178.604 180.756 178.305 182.184 177.708 183.416C177.129 184.629 176.326 185.563 175.3 186.216C174.292 186.869 173.162 187.196 171.912 187.196C170.848 187.196 169.924 186.981 169.14 186.552C168.374 186.123 167.768 185.544 167.32 184.816V194.504H161.832V171.292H167.32V173.476ZM173.032 179.132C173.032 178.105 172.752 177.312 172.192 176.752C171.65 176.173 170.978 175.884 170.176 175.884C169.373 175.884 168.692 176.173 168.132 176.752C167.59 177.331 167.32 178.124 167.32 179.132C167.32 180.159 167.59 180.961 168.132 181.54C168.692 182.119 169.373 182.408 170.176 182.408C170.978 182.408 171.65 182.119 172.192 181.54C172.752 180.943 173.032 180.14 173.032 179.132ZM179.967 179.132C179.967 177.508 180.256 176.089 180.835 174.876C181.432 173.663 182.235 172.729 183.243 172.076C184.27 171.423 185.408 171.096 186.659 171.096C187.742 171.096 188.675 171.311 189.459 171.74C190.243 172.169 190.85 172.748 191.279 173.476V171.292H196.767V187H191.279V184.816C190.85 185.544 190.234 186.123 189.431 186.552C188.647 186.981 187.723 187.196 186.659 187.196C185.408 187.196 184.27 186.869 183.243 186.216C182.235 185.563 181.432 184.629 180.835 183.416C180.256 182.184 179.967 180.756 179.967 179.132ZM191.279 179.132C191.279 178.124 190.999 177.331 190.439 176.752C189.898 176.173 189.226 175.884 188.423 175.884C187.602 175.884 186.92 176.173 186.379 176.752C185.838 177.312 185.567 178.105 185.567 179.132C185.567 180.14 185.838 180.943 186.379 181.54C186.92 182.119 187.602 182.408 188.423 182.408C189.226 182.408 189.898 182.119 190.439 181.54C190.999 180.961 191.279 180.159 191.279 179.132ZM206.586 187.196C205.168 187.196 203.898 186.963 202.778 186.496C201.677 186.011 200.8 185.357 200.146 184.536C199.512 183.696 199.157 182.753 199.082 181.708H204.402C204.477 182.212 204.71 182.604 205.102 182.884C205.494 183.164 205.98 183.304 206.558 183.304C207.006 183.304 207.361 183.211 207.622 183.024C207.884 182.837 208.014 182.595 208.014 182.296C208.014 181.904 207.8 181.615 207.37 181.428C206.941 181.241 206.232 181.036 205.242 180.812C204.122 180.588 203.189 180.336 202.442 180.056C201.696 179.776 201.042 179.319 200.482 178.684C199.941 178.049 199.67 177.191 199.67 176.108C199.67 175.175 199.922 174.335 200.426 173.588C200.93 172.823 201.668 172.216 202.638 171.768C203.628 171.32 204.813 171.096 206.194 171.096C208.248 171.096 209.862 171.6 211.038 172.608C212.214 173.616 212.896 174.941 213.082 176.584H208.126C208.033 176.08 207.809 175.697 207.454 175.436C207.118 175.156 206.661 175.016 206.082 175.016C205.634 175.016 205.289 175.1 205.046 175.268C204.822 175.436 204.71 175.669 204.71 175.968C204.71 176.341 204.925 176.631 205.354 176.836C205.784 177.023 206.474 177.219 207.426 177.424C208.565 177.667 209.508 177.937 210.254 178.236C211.02 178.535 211.682 179.02 212.242 179.692C212.821 180.345 213.11 181.241 213.11 182.38C213.11 183.295 212.84 184.116 212.298 184.844C211.776 185.572 211.02 186.151 210.03 186.58C209.06 186.991 207.912 187.196 206.586 187.196ZM222.5 187.196C221.082 187.196 219.812 186.963 218.692 186.496C217.591 186.011 216.714 185.357 216.06 184.536C215.426 183.696 215.071 182.753 214.996 181.708H220.316C220.391 182.212 220.624 182.604 221.016 182.884C221.408 183.164 221.894 183.304 222.472 183.304C222.92 183.304 223.275 183.211 223.536 183.024C223.798 182.837 223.928 182.595 223.928 182.296C223.928 181.904 223.714 181.615 223.284 181.428C222.855 181.241 222.146 181.036 221.156 180.812C220.036 180.588 219.103 180.336 218.356 180.056C217.61 179.776 216.956 179.319 216.396 178.684C215.855 178.049 215.584 177.191 215.584 176.108C215.584 175.175 215.836 174.335 216.34 173.588C216.844 172.823 217.582 172.216 218.552 171.768C219.542 171.32 220.727 171.096 222.108 171.096C224.162 171.096 225.776 171.6 226.952 172.608C228.128 173.616 228.81 174.941 228.996 176.584H224.04C223.947 176.08 223.723 175.697 223.368 175.436C223.032 175.156 222.575 175.016 221.996 175.016C221.548 175.016 221.203 175.1 220.96 175.268C220.736 175.436 220.624 175.669 220.624 175.968C220.624 176.341 220.839 176.631 221.268 176.836C221.698 177.023 222.388 177.219 223.34 177.424C224.479 177.667 225.422 177.937 226.168 178.236C226.934 178.535 227.596 179.02 228.156 179.692C228.735 180.345 229.024 181.241 229.024 182.38C229.024 183.295 228.754 184.116 228.212 184.844C227.69 185.572 226.934 186.151 225.944 186.58C224.974 186.991 223.826 187.196 222.5 187.196ZM246.73 178.964C246.73 179.393 246.702 179.823 246.646 180.252H236.258C236.314 181.111 236.548 181.755 236.958 182.184C237.388 182.595 237.929 182.8 238.582 182.8C239.497 182.8 240.15 182.389 240.542 181.568H246.394C246.152 182.651 245.676 183.621 244.966 184.48C244.276 185.32 243.398 185.983 242.334 186.468C241.27 186.953 240.094 187.196 238.806 187.196C237.257 187.196 235.876 186.869 234.662 186.216C233.468 185.563 232.525 184.629 231.834 183.416C231.162 182.203 230.826 180.775 230.826 179.132C230.826 177.489 231.162 176.071 231.834 174.876C232.506 173.663 233.44 172.729 234.634 172.076C235.848 171.423 237.238 171.096 238.806 171.096C240.356 171.096 241.728 171.413 242.922 172.048C244.117 172.683 245.05 173.597 245.722 174.792C246.394 175.968 246.73 177.359 246.73 178.964ZM241.13 177.592C241.13 176.92 240.906 176.397 240.458 176.024C240.01 175.632 239.45 175.436 238.778 175.436C238.106 175.436 237.556 175.623 237.126 175.996C236.697 176.351 236.417 176.883 236.286 177.592H241.13ZM248.08 179.132C248.08 177.508 248.37 176.089 248.948 174.876C249.546 173.663 250.348 172.729 251.356 172.076C252.383 171.423 253.522 171.096 254.772 171.096C255.855 171.096 256.788 171.311 257.572 171.74C258.356 172.169 258.963 172.748 259.392 173.476V171.292H264.88V187H259.392V184.816C258.963 185.544 258.347 186.123 257.544 186.552C256.76 186.981 255.836 187.196 254.772 187.196C253.522 187.196 252.383 186.869 251.356 186.216C250.348 185.563 249.546 184.629 248.948 183.416C248.37 182.184 248.08 180.756 248.08 179.132ZM259.392 179.132C259.392 178.124 259.112 177.331 258.552 176.752C258.011 176.173 257.339 175.884 256.536 175.884C255.715 175.884 255.034 176.173 254.492 176.752C253.951 177.312 253.68 178.105 253.68 179.132C253.68 180.14 253.951 180.943 254.492 181.54C255.034 182.119 255.715 182.408 256.536 182.408C257.339 182.408 258.011 182.119 258.552 181.54C259.112 180.961 259.392 180.159 259.392 179.132ZM273.495 174.064C274.111 173.168 274.858 172.459 275.735 171.936C276.613 171.413 277.555 171.152 278.563 171.152V177.004H277.023C275.829 177.004 274.942 177.237 274.363 177.704C273.785 178.171 273.495 178.983 273.495 180.14V187H268.007V171.292H273.495V174.064ZM287.867 166.252L287.223 179.608H282.547L281.903 166.252H287.867ZM284.899 187.224C283.928 187.224 283.144 186.963 282.547 186.44C281.968 185.899 281.679 185.217 281.679 184.396C281.679 183.575 281.968 182.893 282.547 182.352C283.144 181.811 283.928 181.54 284.899 181.54C285.851 181.54 286.616 181.811 287.195 182.352C287.792 182.893 288.091 183.575 288.091 184.396C288.091 185.199 287.792 185.871 287.195 186.412C286.616 186.953 285.851 187.224 284.899 187.224ZM123.302 220.792H128.942V223H120.566V206.32H123.302V220.792ZM143.35 216.064C143.35 216.56 143.318 217.008 143.254 217.408H133.15C133.23 218.464 133.622 219.312 134.326 219.952C135.03 220.592 135.894 220.912 136.918 220.912C138.39 220.912 139.43 220.296 140.038 219.064H142.99C142.59 220.28 141.862 221.28 140.806 222.064C139.766 222.832 138.47 223.216 136.918 223.216C135.654 223.216 134.518 222.936 133.51 222.376C132.518 221.8 131.734 221 131.158 219.976C130.598 218.936 130.318 217.736 130.318 216.376C130.318 215.016 130.59 213.824 131.134 212.8C131.694 211.76 132.47 210.96 133.462 210.4C134.47 209.84 135.622 209.56 136.918 209.56C138.166 209.56 139.278 209.832 140.254 210.376C141.23 210.92 141.99 211.688 142.534 212.68C143.078 213.656 143.35 214.784 143.35 216.064ZM140.494 215.2C140.478 214.192 140.118 213.384 139.414 212.776C138.71 212.168 137.838 211.864 136.798 211.864C135.854 211.864 135.046 212.168 134.374 212.776C133.702 213.368 133.302 214.176 133.174 215.2H140.494ZM151.154 220.552L154.898 209.776H157.802L152.762 223H149.498L144.482 209.776H147.41L151.154 220.552ZM171.99 216.064C171.99 216.56 171.958 217.008 171.894 217.408H161.79C161.87 218.464 162.262 219.312 162.966 219.952C163.67 220.592 164.534 220.912 165.558 220.912C167.03 220.912 168.07 220.296 168.678 219.064H171.63C171.23 220.28 170.502 221.28 169.446 222.064C168.406 222.832 167.11 223.216 165.558 223.216C164.294 223.216 163.158 222.936 162.15 222.376C161.158 221.8 160.374 221 159.798 219.976C159.238 218.936 158.958 217.736 158.958 216.376C158.958 215.016 159.23 213.824 159.774 212.8C160.334 211.76 161.11 210.96 162.102 210.4C163.11 209.84 164.262 209.56 165.558 209.56C166.806 209.56 167.918 209.832 168.894 210.376C169.87 210.92 170.63 211.688 171.174 212.68C171.718 213.656 171.99 214.784 171.99 216.064ZM169.134 215.2C169.118 214.192 168.758 213.384 168.054 212.776C167.35 212.168 166.478 211.864 165.438 211.864C164.494 211.864 163.686 212.168 163.014 212.776C162.342 213.368 161.942 214.176 161.814 215.2H169.134ZM185.717 223.216C184.677 223.216 183.741 223.032 182.909 222.664C182.093 222.28 181.445 221.768 180.965 221.128C180.485 220.472 180.229 219.744 180.197 218.944H183.029C183.077 219.504 183.341 219.976 183.821 220.36C184.317 220.728 184.933 220.912 185.669 220.912C186.437 220.912 187.029 220.768 187.445 220.48C187.877 220.176 188.093 219.792 188.093 219.328C188.093 218.832 187.853 218.464 187.373 218.224C186.909 217.984 186.165 217.72 185.141 217.432C184.149 217.16 183.341 216.896 182.717 216.64C182.093 216.384 181.549 215.992 181.085 215.464C180.637 214.936 180.413 214.24 180.413 213.376C180.413 212.672 180.621 212.032 181.037 211.456C181.453 210.864 182.045 210.4 182.813 210.064C183.597 209.728 184.493 209.56 185.501 209.56C187.005 209.56 188.213 209.944 189.125 210.712C190.053 211.464 190.549 212.496 190.613 213.808H187.877C187.829 213.216 187.589 212.744 187.157 212.392C186.725 212.04 186.141 211.864 185.405 211.864C184.685 211.864 184.133 212 183.749 212.272C183.365 212.544 183.173 212.904 183.173 213.352C183.173 213.704 183.301 214 183.557 214.24C183.813 214.48 184.125 214.672 184.493 214.816C184.861 214.944 185.405 215.112 186.125 215.32C187.085 215.576 187.869 215.84 188.477 216.112C189.101 216.368 189.637 216.752 190.085 217.264C190.533 217.776 190.765 218.456 190.781 219.304C190.781 220.056 190.573 220.728 190.157 221.32C189.741 221.912 189.149 222.376 188.381 222.712C187.629 223.048 186.741 223.216 185.717 223.216ZM205.858 216.064C205.858 216.56 205.826 217.008 205.762 217.408H195.658C195.738 218.464 196.13 219.312 196.834 219.952C197.538 220.592 198.402 220.912 199.426 220.912C200.898 220.912 201.938 220.296 202.546 219.064H205.497C205.098 220.28 204.37 221.28 203.314 222.064C202.274 222.832 200.978 223.216 199.426 223.216C198.162 223.216 197.026 222.936 196.018 222.376C195.026 221.8 194.242 221 193.666 219.976C193.106 218.936 192.826 217.736 192.826 216.376C192.826 215.016 193.098 213.824 193.642 212.8C194.202 211.76 194.978 210.96 195.97 210.4C196.978 209.84 198.13 209.56 199.426 209.56C200.674 209.56 201.786 209.832 202.762 210.376C203.738 210.92 204.498 211.688 205.042 212.68C205.586 213.656 205.858 214.784 205.858 216.064ZM203.002 215.2C202.986 214.192 202.626 213.384 201.922 212.776C201.218 212.168 200.346 211.864 199.306 211.864C198.362 211.864 197.554 212.168 196.882 212.776C196.21 213.368 195.81 214.176 195.682 215.2H203.002ZM220.526 209.776V223H217.79V221.44C217.358 221.984 216.79 222.416 216.086 222.736C215.398 223.04 214.662 223.192 213.878 223.192C212.838 223.192 211.902 222.976 211.07 222.544C210.254 222.112 209.606 221.472 209.126 220.624C208.662 219.776 208.43 218.752 208.43 217.552V209.776H211.142V217.144C211.142 218.328 211.438 219.24 212.03 219.88C212.622 220.504 213.43 220.816 214.454 220.816C215.478 220.816 216.286 220.504 216.878 219.88C217.486 219.24 217.79 218.328 217.79 217.144V209.776H220.526ZM229.458 216.376C229.458 215.016 229.73 213.824 230.274 212.8C230.834 211.76 231.602 210.96 232.578 210.4C233.554 209.84 234.674 209.56 235.938 209.56C237.538 209.56 238.858 209.944 239.898 210.712C240.954 211.464 241.666 212.544 242.034 213.952H239.082C238.842 213.296 238.458 212.784 237.93 212.416C237.402 212.048 236.738 211.864 235.938 211.864C234.818 211.864 233.922 212.264 233.25 213.064C232.594 213.848 232.266 214.952 232.266 216.376C232.266 217.8 232.594 218.912 233.25 219.712C233.922 220.512 234.818 220.912 235.938 220.912C237.522 220.912 238.57 220.216 239.082 218.824H242.034C241.65 220.168 240.93 221.24 239.874 222.04C238.818 222.824 237.506 223.216 235.938 223.216C234.674 223.216 233.554 222.936 232.578 222.376C231.602 221.8 230.834 221 230.274 219.976C229.73 218.936 229.458 217.736 229.458 216.376ZM243.849 216.328C243.849 215 244.121 213.824 244.665 212.8C245.225 211.776 245.977 210.984 246.921 210.424C247.881 209.848 248.937 209.56 250.089 209.56C251.129 209.56 252.033 209.768 252.801 210.184C253.585 210.584 254.209 211.088 254.673 211.696V209.776H257.433V223H254.673V221.032C254.209 221.656 253.577 222.176 252.777 222.592C251.977 223.008 251.065 223.216 250.041 223.216C248.905 223.216 247.865 222.928 246.921 222.352C245.977 221.76 245.225 220.944 244.665 219.904C244.121 218.848 243.849 217.656 243.849 216.328ZM254.673 216.376C254.673 215.464 254.481 214.672 254.097 214C253.729 213.328 253.241 212.816 252.633 212.464C252.025 212.112 251.369 211.936 250.665 211.936C249.961 211.936 249.305 212.112 248.697 212.464C248.089 212.8 247.593 213.304 247.209 213.976C246.841 214.632 246.657 215.416 246.657 216.328C246.657 217.24 246.841 218.04 247.209 218.728C247.593 219.416 248.089 219.944 248.697 220.312C249.321 220.664 249.977 220.84 250.665 220.84C251.369 220.84 252.025 220.664 252.633 220.312C253.241 219.96 253.729 219.448 254.097 218.776C254.481 218.088 254.673 217.288 254.673 216.376ZM260.115 216.376C260.115 215.016 260.387 213.824 260.931 212.8C261.491 211.76 262.259 210.96 263.235 210.4C264.211 209.84 265.331 209.56 266.595 209.56C268.195 209.56 269.515 209.944 270.555 210.712C271.611 211.464 272.323 212.544 272.691 213.952H269.739C269.499 213.296 269.115 212.784 268.587 212.416C268.059 212.048 267.395 211.864 266.595 211.864C265.475 211.864 264.579 212.264 263.907 213.064C263.251 213.848 262.923 214.952 262.923 216.376C262.923 217.8 263.251 218.912 263.907 219.712C264.579 220.512 265.475 220.912 266.595 220.912C268.179 220.912 269.227 220.216 269.739 218.824H272.691C272.307 220.168 271.587 221.24 270.531 222.04C269.475 222.824 268.163 223.216 266.595 223.216C265.331 223.216 264.211 222.936 263.235 222.376C262.259 221.8 261.491 221 260.931 219.976C260.387 218.936 260.115 217.736 260.115 216.376ZM282.257 209.56C283.265 209.56 284.161 209.776 284.945 210.208C285.745 210.64 286.369 211.28 286.817 212.128C287.281 212.976 287.513 214 287.513 215.2V223H284.801V215.608C284.801 214.424 284.505 213.52 283.913 212.896C283.321 212.256 282.513 211.936 281.489 211.936C280.465 211.936 279.649 212.256 279.041 212.896C278.449 213.52 278.153 214.424 278.153 215.608V223H275.417V205.24H278.153V211.312C278.617 210.752 279.201 210.32 279.905 210.016C280.625 209.712 281.409 209.56 282.257 209.56ZM296.739 223.216C295.491 223.216 294.363 222.936 293.355 222.376C292.347 221.8 291.555 221 290.979 219.976C290.403 218.936 290.115 217.736 290.115 216.376C290.115 215.032 290.411 213.84 291.003 212.8C291.595 211.76 292.403 210.96 293.427 210.4C294.451 209.84 295.595 209.56 296.859 209.56C298.123 209.56 299.267 209.84 300.291 210.4C301.315 210.96 302.123 211.76 302.715 212.8C303.307 213.84 303.603 215.032 303.603 216.376C303.603 217.72 303.299 218.912 302.691 219.952C302.083 220.992 301.251 221.8 300.195 222.376C299.155 222.936 298.003 223.216 296.739 223.216ZM296.739 220.84C297.443 220.84 298.099 220.672 298.707 220.336C299.331 220 299.835 219.496 300.219 218.824C300.603 218.152 300.795 217.336 300.795 216.376C300.795 215.416 300.611 214.608 300.243 213.952C299.875 213.28 299.387 212.776 298.779 212.44C298.171 212.104 297.515 211.936 296.811 211.936C296.107 211.936 295.451 212.104 294.843 212.44C294.251 212.776 293.779 213.28 293.427 213.952C293.075 214.608 292.899 215.416 292.899 216.376C292.899 217.8 293.259 218.904 293.979 219.688C294.715 220.456 295.635 220.84 296.739 220.84ZM309.044 211.696C309.444 211.024 309.972 210.504 310.628 210.136C311.3 209.752 312.092 209.56 313.004 209.56V212.392H312.308C311.236 212.392 310.42 212.664 309.86 213.208C309.316 213.752 309.044 214.696 309.044 216.04V223H306.308V209.776H309.044V211.696ZM318.255 211.696C318.655 211.024 319.183 210.504 319.839 210.136C320.511 209.752 321.303 209.56 322.215 209.56V212.392H321.519C320.447 212.392 319.631 212.664 319.071 213.208C318.527 213.752 318.255 214.696 318.255 216.04V223H315.519V209.776H318.255V211.696ZM330.466 223.216C329.218 223.216 328.09 222.936 327.082 222.376C326.074 221.8 325.282 221 324.706 219.976C324.13 218.936 323.842 217.736 323.842 216.376C323.842 215.032 324.138 213.84 324.73 212.8C325.322 211.76 326.13 210.96 327.154 210.4C328.178 209.84 329.322 209.56 330.586 209.56C331.85 209.56 332.994 209.84 334.018 210.4C335.042 210.96 335.85 211.76 336.442 212.8C337.034 213.84 337.33 215.032 337.33 216.376C337.33 217.72 337.026 218.912 336.418 219.952C335.81 220.992 334.978 221.8 333.922 222.376C332.882 222.936 331.73 223.216 330.466 223.216ZM330.466 220.84C331.17 220.84 331.826 220.672 332.434 220.336C333.058 220 333.562 219.496 333.946 218.824C334.33 218.152 334.522 217.336 334.522 216.376C334.522 215.416 334.338 214.608 333.97 213.952C333.602 213.28 333.114 212.776 332.506 212.44C331.898 212.104 331.242 211.936 330.538 211.936C329.834 211.936 329.178 212.104 328.57 212.44C327.978 212.776 327.506 213.28 327.154 213.952C326.802 214.608 326.626 215.416 326.626 216.376C326.626 217.8 326.986 218.904 327.706 219.688C328.442 220.456 329.362 220.84 330.466 220.84ZM135.829 247.72C136.293 247.112 136.925 246.6 137.725 246.184C138.525 245.768 139.429 245.56 140.437 245.56C141.589 245.56 142.637 245.848 143.581 246.424C144.541 246.984 145.293 247.776 145.837 248.8C146.381 249.824 146.653 251 146.653 252.328C146.653 253.656 146.381 254.848 145.837 255.904C145.293 256.944 144.541 257.76 143.581 258.352C142.637 258.928 141.589 259.216 140.437 259.216C139.429 259.216 138.533 259.016 137.749 258.616C136.965 258.2 136.325 257.688 135.829 257.08V265.288H133.093V245.776H135.829V247.72ZM143.869 252.328C143.869 251.416 143.677 250.632 143.293 249.976C142.925 249.304 142.429 248.8 141.805 248.464C141.197 248.112 140.541 247.936 139.837 247.936C139.149 247.936 138.493 248.112 137.869 248.464C137.261 248.816 136.765 249.328 136.381 250C136.013 250.672 135.829 251.464 135.829 252.376C135.829 253.288 136.013 254.088 136.381 254.776C136.765 255.448 137.261 255.96 137.869 256.312C138.493 256.664 139.149 256.84 139.837 256.84C140.541 256.84 141.197 256.664 141.805 256.312C142.429 255.944 142.925 255.416 143.293 254.728C143.677 254.04 143.869 253.24 143.869 252.328ZM161.479 252.064C161.479 252.56 161.447 253.008 161.383 253.408H151.279C151.359 254.464 151.751 255.312 152.455 255.952C153.159 256.592 154.023 256.912 155.047 256.912C156.519 256.912 157.559 256.296 158.167 255.064H161.119C160.719 256.28 159.991 257.28 158.935 258.064C157.895 258.832 156.599 259.216 155.047 259.216C153.783 259.216 152.647 258.936 151.639 258.376C150.647 257.8 149.863 257 149.287 255.976C148.727 254.936 148.447 253.736 148.447 252.376C148.447 251.016 148.719 249.824 149.263 248.8C149.823 247.76 150.599 246.96 151.591 246.4C152.599 245.84 153.751 245.56 155.047 245.56C156.295 245.56 157.407 245.832 158.383 246.376C159.359 246.92 160.119 247.688 160.663 248.68C161.207 249.656 161.479 250.784 161.479 252.064ZM158.623 251.2C158.607 250.192 158.247 249.384 157.543 248.776C156.839 248.168 155.967 247.864 154.927 247.864C153.983 247.864 153.175 248.168 152.503 248.776C151.831 249.368 151.431 250.176 151.303 251.2H158.623ZM166.907 241.24V259H164.171V241.24H166.907ZM176.235 259.216C174.987 259.216 173.859 258.936 172.851 258.376C171.843 257.8 171.051 257 170.475 255.976C169.899 254.936 169.611 253.736 169.611 252.376C169.611 251.032 169.907 249.84 170.499 248.8C171.091 247.76 171.899 246.96 172.923 246.4C173.947 245.84 175.091 245.56 176.355 245.56C177.619 245.56 178.763 245.84 179.787 246.4C180.811 246.96 181.619 247.76 182.211 248.8C182.803 249.84 183.099 251.032 183.099 252.376C183.099 253.72 182.795 254.912 182.187 255.952C181.579 256.992 180.747 257.8 179.691 258.376C178.651 258.936 177.499 259.216 176.235 259.216ZM176.235 256.84C176.939 256.84 177.595 256.672 178.203 256.336C178.827 256 179.331 255.496 179.715 254.824C180.099 254.152 180.291 253.336 180.291 252.376C180.291 251.416 180.107 250.608 179.739 249.952C179.371 249.28 178.883 248.776 178.275 248.44C177.667 248.104 177.011 247.936 176.307 247.936C175.603 247.936 174.947 248.104 174.339 248.44C173.747 248.776 173.275 249.28 172.923 249.952C172.571 250.608 172.395 251.416 172.395 252.376C172.395 253.8 172.755 254.904 173.475 255.688C174.211 256.456 175.131 256.84 176.235 256.84ZM208.046 245.56C209.086 245.56 210.014 245.776 210.83 246.208C211.662 246.64 212.31 247.28 212.774 248.128C213.254 248.976 213.494 250 213.494 251.2V259H210.782V251.608C210.782 250.424 210.486 249.52 209.894 248.896C209.302 248.256 208.494 247.936 207.47 247.936C206.446 247.936 205.63 248.256 205.022 248.896C204.43 249.52 204.134 250.424 204.134 251.608V259H201.422V251.608C201.422 250.424 201.126 249.52 200.534 248.896C199.942 248.256 199.134 247.936 198.11 247.936C197.086 247.936 196.27 248.256 195.662 248.896C195.07 249.52 194.774 250.424 194.774 251.608V259H192.038V245.776H194.774V247.288C195.222 246.744 195.79 246.32 196.478 246.016C197.166 245.712 197.902 245.56 198.686 245.56C199.742 245.56 200.686 245.784 201.518 246.232C202.35 246.68 202.99 247.328 203.438 248.176C203.838 247.376 204.462 246.744 205.31 246.28C206.158 245.8 207.07 245.56 208.046 245.56ZM229.096 252.064C229.096 252.56 229.064 253.008 229 253.408H218.896C218.976 254.464 219.368 255.312 220.072 255.952C220.776 256.592 221.64 256.912 222.664 256.912C224.136 256.912 225.176 256.296 225.784 255.064H228.736C228.336 256.28 227.608 257.28 226.552 258.064C225.512 258.832 224.216 259.216 222.664 259.216C221.4 259.216 220.264 258.936 219.256 258.376C218.264 257.8 217.48 257 216.904 255.976C216.344 254.936 216.064 253.736 216.064 252.376C216.064 251.016 216.336 249.824 216.88 248.8C217.44 247.76 218.216 246.96 219.208 246.4C220.216 245.84 221.368 245.56 222.664 245.56C223.912 245.56 225.024 245.832 226 246.376C226.976 246.92 227.736 247.688 228.28 248.68C228.824 249.656 229.096 250.784 229.096 252.064ZM226.24 251.2C226.224 250.192 225.864 249.384 225.16 248.776C224.456 248.168 223.584 247.864 222.544 247.864C221.6 247.864 220.792 248.168 220.12 248.776C219.448 249.368 219.048 250.176 218.92 251.2H226.24ZM238.46 245.56C239.5 245.56 240.428 245.776 241.244 246.208C242.076 246.64 242.724 247.28 243.188 248.128C243.652 248.976 243.884 250 243.884 251.2V259H241.172V251.608C241.172 250.424 240.876 249.52 240.284 248.896C239.692 248.256 238.884 247.936 237.86 247.936C236.836 247.936 236.02 248.256 235.412 248.896C234.82 249.52 234.524 250.424 234.524 251.608V259H231.788V245.776H234.524V247.288C234.972 246.744 235.54 246.32 236.228 246.016C236.932 245.712 237.676 245.56 238.46 245.56ZM253.11 259.216C251.862 259.216 250.734 258.936 249.726 258.376C248.718 257.8 247.926 257 247.35 255.976C246.774 254.936 246.486 253.736 246.486 252.376C246.486 251.032 246.782 249.84 247.374 248.8C247.966 247.76 248.774 246.96 249.798 246.4C250.822 245.84 251.966 245.56 253.23 245.56C254.494 245.56 255.638 245.84 256.662 246.4C257.686 246.96 258.494 247.76 259.086 248.8C259.678 249.84 259.974 251.032 259.974 252.376C259.974 253.72 259.67 254.912 259.062 255.952C258.454 256.992 257.622 257.8 256.566 258.376C255.526 258.936 254.374 259.216 253.11 259.216ZM253.11 256.84C253.814 256.84 254.47 256.672 255.078 256.336C255.702 256 256.206 255.496 256.59 254.824C256.974 254.152 257.166 253.336 257.166 252.376C257.166 251.416 256.982 250.608 256.614 249.952C256.246 249.28 255.758 248.776 255.15 248.44C254.542 248.104 253.886 247.936 253.182 247.936C252.478 247.936 251.822 248.104 251.214 248.44C250.622 248.776 250.15 249.28 249.798 249.952C249.446 250.608 249.27 251.416 249.27 252.376C249.27 253.8 249.63 254.904 250.35 255.688C251.086 256.456 252.006 256.84 253.11 256.84ZM267.479 259.216C266.439 259.216 265.503 259.032 264.671 258.664C263.855 258.28 263.207 257.768 262.727 257.128C262.247 256.472 261.991 255.744 261.959 254.944H264.791C264.839 255.504 265.103 255.976 265.583 256.36C266.079 256.728 266.695 256.912 267.431 256.912C268.199 256.912 268.791 256.768 269.207 256.48C269.639 256.176 269.855 255.792 269.855 255.328C269.855 254.832 269.615 254.464 269.135 254.224C268.671 253.984 267.927 253.72 266.903 253.432C265.911 253.16 265.103 252.896 264.479 252.64C263.855 252.384 263.311 251.992 262.847 251.464C262.399 250.936 262.175 250.24 262.175 249.376C262.175 248.672 262.383 248.032 262.799 247.456C263.215 246.864 263.807 246.4 264.575 246.064C265.359 245.728 266.255 245.56 267.263 245.56C268.767 245.56 269.975 245.944 270.887 246.712C271.815 247.464 272.311 248.496 272.375 249.808H269.639C269.591 249.216 269.351 248.744 268.919 248.392C268.487 248.04 267.903 247.864 267.167 247.864C266.447 247.864 265.895 248 265.511 248.272C265.127 248.544 264.935 248.904 264.935 249.352C264.935 249.704 265.063 250 265.319 250.24C265.575 250.48 265.887 250.672 266.255 250.816C266.623 250.944 267.167 251.112 267.887 251.32C268.847 251.576 269.631 251.84 270.239 252.112C270.863 252.368 271.399 252.752 271.847 253.264C272.295 253.776 272.527 254.456 272.543 255.304C272.543 256.056 272.335 256.728 271.919 257.32C271.503 257.912 270.911 258.376 270.143 258.712C269.391 259.048 268.503 259.216 267.479 259.216ZM284.926 248.008V255.328C284.926 255.824 285.038 256.184 285.262 256.408C285.502 256.616 285.902 256.72 286.462 256.72H288.142V259H285.982C284.75 259 283.806 258.712 283.15 258.136C282.494 257.56 282.166 256.624 282.166 255.328V248.008H280.606V245.776H282.166V242.488H284.926V245.776H288.142V248.008H284.926ZM293.399 247.696C293.799 247.024 294.327 246.504 294.983 246.136C295.655 245.752 296.447 245.56 297.359 245.56V248.392H296.663C295.591 248.392 294.775 248.664 294.215 249.208C293.671 249.752 293.399 250.696 293.399 252.04V259H290.663V245.776H293.399V247.696ZM311.994 252.064C311.994 252.56 311.962 253.008 311.898 253.408H301.794C301.874 254.464 302.266 255.312 302.97 255.952C303.674 256.592 304.538 256.912 305.562 256.912C307.034 256.912 308.074 256.296 308.682 255.064H311.634C311.234 256.28 310.506 257.28 309.45 258.064C308.41 258.832 307.114 259.216 305.562 259.216C304.298 259.216 303.162 258.936 302.154 258.376C301.162 257.8 300.378 257 299.802 255.976C299.242 254.936 298.962 253.736 298.962 252.376C298.962 251.016 299.234 249.824 299.778 248.8C300.338 247.76 301.114 246.96 302.106 246.4C303.114 245.84 304.266 245.56 305.562 245.56C306.81 245.56 307.922 245.832 308.898 246.376C309.874 246.92 310.634 247.688 311.178 248.68C311.722 249.656 311.994 250.784 311.994 252.064ZM309.138 251.2C309.122 250.192 308.762 249.384 308.058 248.776C307.354 248.168 306.482 247.864 305.442 247.864C304.498 247.864 303.69 248.168 303.018 248.776C302.346 249.368 301.946 250.176 301.818 251.2H309.138ZM305.49 242.776L302.058 244.84V242.704L305.49 240.712L308.922 242.704V244.84L305.49 242.776ZM319.487 259.216C318.447 259.216 317.511 259.032 316.679 258.664C315.863 258.28 315.215 257.768 314.735 257.128C314.255 256.472 313.999 255.744 313.967 254.944H316.799C316.847 255.504 317.111 255.976 317.591 256.36C318.087 256.728 318.703 256.912 319.439 256.912C320.207 256.912 320.799 256.768 321.215 256.48C321.647 256.176 321.863 255.792 321.863 255.328C321.863 254.832 321.623 254.464 321.143 254.224C320.679 253.984 319.935 253.72 318.911 253.432C317.919 253.16 317.111 252.896 316.487 252.64C315.863 252.384 315.319 251.992 314.855 251.464C314.407 250.936 314.183 250.24 314.183 249.376C314.183 248.672 314.391 248.032 314.807 247.456C315.223 246.864 315.815 246.4 316.583 246.064C317.367 245.728 318.263 245.56 319.271 245.56C320.775 245.56 321.983 245.944 322.895 246.712C323.823 247.464 324.319 248.496 324.383 249.808H321.647C321.599 249.216 321.359 248.744 320.927 248.392C320.495 248.04 319.911 247.864 319.175 247.864C318.455 247.864 317.903 248 317.519 248.272C317.135 248.544 316.943 248.904 316.943 249.352C316.943 249.704 317.071 250 317.327 250.24C317.583 250.48 317.895 250.672 318.263 250.816C318.631 250.944 319.175 251.112 319.895 251.32C320.855 251.576 321.639 251.84 322.247 252.112C322.871 252.368 323.407 252.752 323.855 253.264C324.303 253.776 324.535 254.456 324.551 255.304C324.551 256.056 324.343 256.728 323.927 257.32C323.511 257.912 322.919 258.376 322.151 258.712C321.399 259.048 320.511 259.216 319.487 259.216ZM124.658 292.552L128.402 281.776H131.306L126.266 295H123.002L117.986 281.776H120.914L124.658 292.552ZM145.494 288.064C145.494 288.56 145.462 289.008 145.398 289.408H135.294C135.374 290.464 135.766 291.312 136.47 291.952C137.174 292.592 138.038 292.912 139.062 292.912C140.534 292.912 141.574 292.296 142.182 291.064H145.134C144.734 292.28 144.006 293.28 142.95 294.064C141.91 294.832 140.614 295.216 139.062 295.216C137.798 295.216 136.662 294.936 135.654 294.376C134.662 293.8 133.878 293 133.302 291.976C132.742 290.936 132.462 289.736 132.462 288.376C132.462 287.016 132.734 285.824 133.278 284.8C133.838 283.76 134.614 282.96 135.606 282.4C136.614 281.84 137.766 281.56 139.062 281.56C140.31 281.56 141.422 281.832 142.398 282.376C143.374 282.92 144.134 283.688 144.678 284.68C145.222 285.656 145.494 286.784 145.494 288.064ZM142.638 287.2C142.622 286.192 142.262 285.384 141.558 284.776C140.854 284.168 139.982 283.864 138.942 283.864C137.998 283.864 137.19 284.168 136.518 284.776C135.846 285.368 135.446 286.176 135.318 287.2H142.638ZM150.611 292.768H156.611V295H147.443V292.768L153.467 284.008H147.443V281.776H156.611V284.008L150.611 292.768ZM171.604 288.064C171.604 288.56 171.572 289.008 171.508 289.408H161.404C161.484 290.464 161.876 291.312 162.58 291.952C163.284 292.592 164.148 292.912 165.172 292.912C166.644 292.912 167.684 292.296 168.292 291.064H171.244C170.844 292.28 170.116 293.28 169.06 294.064C168.02 294.832 166.724 295.216 165.172 295.216C163.908 295.216 162.772 294.936 161.764 294.376C160.772 293.8 159.988 293 159.412 291.976C158.852 290.936 158.572 289.736 158.572 288.376C158.572 287.016 158.844 285.824 159.388 284.8C159.948 283.76 160.724 282.96 161.716 282.4C162.724 281.84 163.876 281.56 165.172 281.56C166.42 281.56 167.532 281.832 168.508 282.376C169.484 282.92 170.244 283.688 170.788 284.68C171.332 285.656 171.604 286.784 171.604 288.064ZM168.748 287.2C168.732 286.192 168.372 285.384 167.668 284.776C166.964 284.168 166.092 283.864 165.052 283.864C164.108 283.864 163.3 284.168 162.628 284.776C161.956 285.368 161.556 286.176 161.428 287.2H168.748ZM179.096 295.216C178.056 295.216 177.12 295.032 176.288 294.664C175.472 294.28 174.824 293.768 174.344 293.128C173.864 292.472 173.608 291.744 173.576 290.944H176.408C176.456 291.504 176.72 291.976 177.2 292.36C177.696 292.728 178.312 292.912 179.048 292.912C179.816 292.912 180.408 292.768 180.824 292.48C181.256 292.176 181.472 291.792 181.472 291.328C181.472 290.832 181.232 290.464 180.752 290.224C180.288 289.984 179.544 289.72 178.52 289.432C177.528 289.16 176.72 288.896 176.096 288.64C175.472 288.384 174.928 287.992 174.464 287.464C174.016 286.936 173.792 286.24 173.792 285.376C173.792 284.672 174 284.032 174.416 283.456C174.832 282.864 175.424 282.4 176.192 282.064C176.976 281.728 177.872 281.56 178.88 281.56C180.384 281.56 181.592 281.944 182.504 282.712C183.432 283.464 183.928 284.496 183.992 285.808H181.256C181.208 285.216 180.968 284.744 180.536 284.392C180.104 284.04 179.52 283.864 178.784 283.864C178.064 283.864 177.512 284 177.128 284.272C176.744 284.544 176.552 284.904 176.552 285.352C176.552 285.704 176.68 286 176.936 286.24C177.192 286.48 177.504 286.672 177.872 286.816C178.24 286.944 178.784 287.112 179.504 287.32C180.464 287.576 181.248 287.84 181.856 288.112C182.48 288.368 183.016 288.752 183.464 289.264C183.912 289.776 184.144 290.456 184.16 291.304C184.16 292.056 183.952 292.728 183.536 293.32C183.12 293.912 182.528 294.376 181.76 294.712C181.008 295.048 180.12 295.216 179.096 295.216ZM196.087 283.72C196.551 283.112 197.183 282.6 197.983 282.184C198.783 281.768 199.687 281.56 200.695 281.56C201.847 281.56 202.895 281.848 203.839 282.424C204.799 282.984 205.551 283.776 206.095 284.8C206.639 285.824 206.911 287 206.911 288.328C206.911 289.656 206.639 290.848 206.095 291.904C205.551 292.944 204.799 293.76 203.839 294.352C202.895 294.928 201.847 295.216 200.695 295.216C199.687 295.216 198.791 295.016 198.007 294.616C197.223 294.2 196.583 293.688 196.087 293.08V301.288H193.351V281.776H196.087V283.72ZM204.127 288.328C204.127 287.416 203.935 286.632 203.551 285.976C203.183 285.304 202.687 284.8 202.063 284.464C201.455 284.112 200.799 283.936 200.095 283.936C199.407 283.936 198.751 284.112 198.127 284.464C197.519 284.816 197.023 285.328 196.639 286C196.271 286.672 196.087 287.464 196.087 288.376C196.087 289.288 196.271 290.088 196.639 290.776C197.023 291.448 197.519 291.96 198.127 292.312C198.751 292.664 199.407 292.84 200.095 292.84C200.799 292.84 201.455 292.664 202.063 292.312C202.687 291.944 203.183 291.416 203.551 290.728C203.935 290.04 204.127 289.24 204.127 288.328ZM215.352 295.216C214.104 295.216 212.976 294.936 211.968 294.376C210.96 293.8 210.168 293 209.592 291.976C209.016 290.936 208.728 289.736 208.728 288.376C208.728 287.032 209.024 285.84 209.616 284.8C210.208 283.76 211.016 282.96 212.04 282.4C213.064 281.84 214.208 281.56 215.472 281.56C216.736 281.56 217.88 281.84 218.904 282.4C219.928 282.96 220.736 283.76 221.328 284.8C221.92 285.84 222.216 287.032 222.216 288.376C222.216 289.72 221.912 290.912 221.304 291.952C220.696 292.992 219.864 293.8 218.808 294.376C217.768 294.936 216.616 295.216 215.352 295.216ZM215.352 292.84C216.056 292.84 216.712 292.672 217.32 292.336C217.944 292 218.448 291.496 218.832 290.824C219.216 290.152 219.408 289.336 219.408 288.376C219.408 287.416 219.224 286.608 218.856 285.952C218.488 285.28 218 284.776 217.392 284.44C216.784 284.104 216.128 283.936 215.424 283.936C214.72 283.936 214.064 284.104 213.456 284.44C212.864 284.776 212.392 285.28 212.04 285.952C211.688 286.608 211.512 287.416 211.512 288.376C211.512 289.8 211.872 290.904 212.592 291.688C213.328 292.456 214.248 292.84 215.352 292.84ZM227.657 283.696C228.057 283.024 228.585 282.504 229.241 282.136C229.913 281.752 230.705 281.56 231.617 281.56V284.392H230.921C229.849 284.392 229.033 284.664 228.473 285.208C227.929 285.752 227.657 286.696 227.657 288.04V295H224.921V281.776H227.657V283.696ZM245.166 295.216C244.126 295.216 243.19 295.032 242.358 294.664C241.542 294.28 240.894 293.768 240.414 293.128C239.934 292.472 239.678 291.744 239.646 290.944H242.478C242.526 291.504 242.79 291.976 243.27 292.36C243.766 292.728 244.382 292.912 245.118 292.912C245.886 292.912 246.478 292.768 246.894 292.48C247.326 292.176 247.542 291.792 247.542 291.328C247.542 290.832 247.302 290.464 246.822 290.224C246.358 289.984 245.614 289.72 244.59 289.432C243.598 289.16 242.79 288.896 242.166 288.64C241.542 288.384 240.998 287.992 240.534 287.464C240.086 286.936 239.862 286.24 239.862 285.376C239.862 284.672 240.07 284.032 240.486 283.456C240.902 282.864 241.494 282.4 242.262 282.064C243.046 281.728 243.942 281.56 244.95 281.56C246.454 281.56 247.662 281.944 248.574 282.712C249.502 283.464 249.998 284.496 250.062 285.808H247.326C247.278 285.216 247.038 284.744 246.606 284.392C246.174 284.04 245.59 283.864 244.854 283.864C244.134 283.864 243.582 284 243.198 284.272C242.814 284.544 242.622 284.904 242.622 285.352C242.622 285.704 242.75 286 243.006 286.24C243.262 286.48 243.574 286.672 243.942 286.816C244.31 286.944 244.854 287.112 245.574 287.32C246.534 287.576 247.318 287.84 247.926 288.112C248.55 288.368 249.086 288.752 249.534 289.264C249.982 289.776 250.214 290.456 250.23 291.304C250.23 292.056 250.022 292.728 249.606 293.32C249.19 293.912 248.598 294.376 247.83 294.712C247.078 295.048 246.19 295.216 245.166 295.216ZM265.307 288.064C265.307 288.56 265.275 289.008 265.211 289.408H255.107C255.187 290.464 255.579 291.312 256.283 291.952C256.987 292.592 257.851 292.912 258.875 292.912C260.347 292.912 261.387 292.296 261.995 291.064H264.947C264.547 292.28 263.819 293.28 262.763 294.064C261.723 294.832 260.427 295.216 258.875 295.216C257.611 295.216 256.475 294.936 255.467 294.376C254.475 293.8 253.691 293 253.115 291.976C252.555 290.936 252.275 289.736 252.275 288.376C252.275 287.016 252.547 285.824 253.091 284.8C253.651 283.76 254.427 282.96 255.419 282.4C256.427 281.84 257.579 281.56 258.875 281.56C260.123 281.56 261.235 281.832 262.211 282.376C263.187 282.92 263.947 283.688 264.491 284.68C265.035 285.656 265.307 286.784 265.307 288.064ZM262.451 287.2C262.435 286.192 262.075 285.384 261.371 284.776C260.667 284.168 259.795 283.864 258.755 283.864C257.811 283.864 257.003 284.168 256.331 284.776C255.659 285.368 255.259 286.176 255.131 287.2H262.451ZM284.007 281.56C285.047 281.56 285.975 281.776 286.791 282.208C287.623 282.64 288.271 283.28 288.735 284.128C289.215 284.976 289.455 286 289.455 287.2V295H286.743V287.608C286.743 286.424 286.447 285.52 285.855 284.896C285.263 284.256 284.455 283.936 283.431 283.936C282.407 283.936 281.591 284.256 280.983 284.896C280.391 285.52 280.095 286.424 280.095 287.608V295H277.383V287.608C277.383 286.424 277.087 285.52 276.495 284.896C275.903 284.256 275.095 283.936 274.071 283.936C273.047 283.936 272.231 284.256 271.623 284.896C271.031 285.52 270.735 286.424 270.735 287.608V295H267.999V281.776H270.735V283.288C271.183 282.744 271.751 282.32 272.439 282.016C273.127 281.712 273.863 281.56 274.647 281.56C275.703 281.56 276.647 281.784 277.479 282.232C278.311 282.68 278.951 283.328 279.399 284.176C279.799 283.376 280.423 282.744 281.271 282.28C282.119 281.8 283.031 281.56 284.007 281.56ZM292.025 288.328C292.025 287 292.297 285.824 292.841 284.8C293.401 283.776 294.153 282.984 295.097 282.424C296.057 281.848 297.113 281.56 298.265 281.56C299.305 281.56 300.209 281.768 300.977 282.184C301.761 282.584 302.385 283.088 302.849 283.696V281.776H305.609V295H302.849V293.032C302.385 293.656 301.753 294.176 300.953 294.592C300.153 295.008 299.241 295.216 298.217 295.216C297.081 295.216 296.041 294.928 295.097 294.352C294.153 293.76 293.401 292.944 292.841 291.904C292.297 290.848 292.025 289.656 292.025 288.328ZM302.849 288.376C302.849 287.464 302.657 286.672 302.273 286C301.905 285.328 301.417 284.816 300.809 284.464C300.201 284.112 299.545 283.936 298.841 283.936C298.137 283.936 297.481 284.112 296.873 284.464C296.265 284.8 295.769 285.304 295.385 285.976C295.017 286.632 294.833 287.416 294.833 288.328C294.833 289.24 295.017 290.04 295.385 290.728C295.769 291.416 296.265 291.944 296.873 292.312C297.497 292.664 298.153 292.84 298.841 292.84C299.545 292.84 300.201 292.664 300.809 292.312C301.417 291.96 301.905 291.448 302.273 290.776C302.657 290.088 302.849 289.288 302.849 288.376ZM315.874 281.56C316.914 281.56 317.842 281.776 318.658 282.208C319.49 282.64 320.138 283.28 320.602 284.128C321.066 284.976 321.298 286 321.298 287.2V295H318.586V287.608C318.586 286.424 318.29 285.52 317.698 284.896C317.106 284.256 316.298 283.936 315.274 283.936C314.25 283.936 313.434 284.256 312.826 284.896C312.234 285.52 311.938 286.424 311.938 287.608V295H309.202V281.776H311.938V283.288C312.386 282.744 312.954 282.32 313.642 282.016C314.346 281.712 315.09 281.56 315.874 281.56ZM323.876 288.328C323.876 287 324.148 285.824 324.692 284.8C325.252 283.776 326.004 282.984 326.948 282.424C327.908 281.848 328.964 281.56 330.116 281.56C331.156 281.56 332.06 281.768 332.828 282.184C333.612 282.584 334.236 283.088 334.7 283.696V281.776H337.46V295H334.7V293.032C334.236 293.656 333.604 294.176 332.804 294.592C332.004 295.008 331.092 295.216 330.068 295.216C328.932 295.216 327.892 294.928 326.948 294.352C326.004 293.76 325.252 292.944 324.692 291.904C324.148 290.848 323.876 289.656 323.876 288.328ZM334.7 288.376C334.7 287.464 334.508 286.672 334.124 286C333.756 285.328 333.268 284.816 332.66 284.464C332.052 284.112 331.396 283.936 330.692 283.936C329.988 283.936 329.332 284.112 328.724 284.464C328.116 284.8 327.62 285.304 327.236 285.976C326.868 286.632 326.684 287.416 326.684 288.328C326.684 289.24 326.868 290.04 327.236 290.728C327.62 291.416 328.116 291.944 328.724 292.312C329.348 292.664 330.004 292.84 330.692 292.84C331.396 292.84 332.052 292.664 332.66 292.312C333.268 291.96 333.756 291.448 334.124 290.776C334.508 290.088 334.7 289.288 334.7 288.376ZM148.79 319.72C149.254 319.112 149.886 318.6 150.686 318.184C151.486 317.768 152.39 317.56 153.398 317.56C154.55 317.56 155.598 317.848 156.542 318.424C157.502 318.984 158.254 319.776 158.798 320.8C159.342 321.824 159.614 323 159.614 324.328C159.614 325.656 159.342 326.848 158.798 327.904C158.254 328.944 157.502 329.76 156.542 330.352C155.598 330.928 154.55 331.216 153.398 331.216C152.39 331.216 151.494 331.016 150.71 330.616C149.926 330.2 149.286 329.688 148.79 329.08V337.288H146.054V317.776H148.79V319.72ZM156.83 324.328C156.83 323.416 156.638 322.632 156.254 321.976C155.886 321.304 155.39 320.8 154.766 320.464C154.158 320.112 153.502 319.936 152.798 319.936C152.11 319.936 151.454 320.112 150.83 320.464C150.222 320.816 149.726 321.328 149.342 322C148.974 322.672 148.79 323.464 148.79 324.376C148.79 325.288 148.974 326.088 149.342 326.776C149.726 327.448 150.222 327.96 150.83 328.312C151.454 328.664 152.11 328.84 152.798 328.84C153.502 328.84 154.158 328.664 154.766 328.312C155.39 327.944 155.886 327.416 156.254 326.728C156.638 326.04 156.83 325.24 156.83 324.328ZM161.408 324.328C161.408 323 161.68 321.824 162.224 320.8C162.784 319.776 163.536 318.984 164.48 318.424C165.44 317.848 166.496 317.56 167.648 317.56C168.688 317.56 169.592 317.768 170.36 318.184C171.144 318.584 171.768 319.088 172.232 319.696V317.776H174.992V331H172.232V329.032C171.768 329.656 171.136 330.176 170.336 330.592C169.536 331.008 168.624 331.216 167.6 331.216C166.464 331.216 165.424 330.928 164.48 330.352C163.536 329.76 162.784 328.944 162.224 327.904C161.68 326.848 161.408 325.656 161.408 324.328ZM172.232 324.376C172.232 323.464 172.04 322.672 171.656 322C171.288 321.328 170.8 320.816 170.192 320.464C169.584 320.112 168.928 319.936 168.224 319.936C167.52 319.936 166.864 320.112 166.256 320.464C165.648 320.8 165.152 321.304 164.768 321.976C164.4 322.632 164.216 323.416 164.216 324.328C164.216 325.24 164.4 326.04 164.768 326.728C165.152 327.416 165.648 327.944 166.256 328.312C166.88 328.664 167.536 328.84 168.224 328.84C168.928 328.84 169.584 328.664 170.192 328.312C170.8 327.96 171.288 327.448 171.656 326.776C172.04 326.088 172.232 325.288 172.232 324.376ZM181.321 319.696C181.721 319.024 182.249 318.504 182.905 318.136C183.577 317.752 184.369 317.56 185.281 317.56V320.392H184.585C183.513 320.392 182.697 320.664 182.137 321.208C181.593 321.752 181.321 322.696 181.321 324.04V331H178.585V317.776H181.321V319.696ZM186.884 324.328C186.884 323 187.156 321.824 187.7 320.8C188.26 319.776 189.012 318.984 189.956 318.424C190.916 317.848 191.972 317.56 193.124 317.56C194.164 317.56 195.068 317.768 195.836 318.184C196.62 318.584 197.244 319.088 197.708 319.696V317.776H200.468V331H197.708V329.032C197.244 329.656 196.612 330.176 195.812 330.592C195.012 331.008 194.1 331.216 193.076 331.216C191.94 331.216 190.9 330.928 189.956 330.352C189.012 329.76 188.26 328.944 187.7 327.904C187.156 326.848 186.884 325.656 186.884 324.328ZM197.708 324.376C197.708 323.464 197.516 322.672 197.132 322C196.764 321.328 196.276 320.816 195.668 320.464C195.06 320.112 194.404 319.936 193.7 319.936C192.996 319.936 192.34 320.112 191.732 320.464C191.124 320.8 190.628 321.304 190.244 321.976C189.876 322.632 189.692 323.416 189.692 324.328C189.692 325.24 189.876 326.04 190.244 326.728C190.628 327.416 191.124 327.944 191.732 328.312C192.356 328.664 193.012 328.84 193.7 328.84C194.404 328.84 195.06 328.664 195.668 328.312C196.276 327.96 196.764 327.448 197.132 326.776C197.516 326.088 197.708 325.288 197.708 324.376ZM213.032 319.72C213.496 319.112 214.128 318.6 214.928 318.184C215.728 317.768 216.632 317.56 217.64 317.56C218.792 317.56 219.84 317.848 220.784 318.424C221.744 318.984 222.496 319.776 223.04 320.8C223.584 321.824 223.856 323 223.856 324.328C223.856 325.656 223.584 326.848 223.04 327.904C222.496 328.944 221.744 329.76 220.784 330.352C219.84 330.928 218.792 331.216 217.64 331.216C216.632 331.216 215.736 331.016 214.952 330.616C214.168 330.2 213.528 329.688 213.032 329.08V337.288H210.296V317.776H213.032V319.72ZM221.072 324.328C221.072 323.416 220.88 322.632 220.496 321.976C220.128 321.304 219.632 320.8 219.008 320.464C218.4 320.112 217.744 319.936 217.04 319.936C216.352 319.936 215.696 320.112 215.072 320.464C214.464 320.816 213.968 321.328 213.584 322C213.216 322.672 213.032 323.464 213.032 324.376C213.032 325.288 213.216 326.088 213.584 326.776C213.968 327.448 214.464 327.96 215.072 328.312C215.696 328.664 216.352 328.84 217.04 328.84C217.744 328.84 218.4 328.664 219.008 328.312C219.632 327.944 220.128 327.416 220.496 326.728C220.88 326.04 221.072 325.24 221.072 324.328ZM225.65 324.328C225.65 323 225.922 321.824 226.466 320.8C227.026 319.776 227.778 318.984 228.722 318.424C229.682 317.848 230.738 317.56 231.89 317.56C232.93 317.56 233.834 317.768 234.602 318.184C235.386 318.584 236.01 319.088 236.474 319.696V317.776H239.234V331H236.474V329.032C236.01 329.656 235.378 330.176 234.578 330.592C233.778 331.008 232.866 331.216 231.842 331.216C230.706 331.216 229.666 330.928 228.722 330.352C227.778 329.76 227.026 328.944 226.466 327.904C225.922 326.848 225.65 325.656 225.65 324.328ZM236.474 324.376C236.474 323.464 236.282 322.672 235.898 322C235.53 321.328 235.042 320.816 234.434 320.464C233.826 320.112 233.17 319.936 232.466 319.936C231.762 319.936 231.106 320.112 230.498 320.464C229.89 320.8 229.394 321.304 229.01 321.976C228.642 322.632 228.458 323.416 228.458 324.328C228.458 325.24 228.642 326.04 229.01 326.728C229.394 327.416 229.89 327.944 230.498 328.312C231.122 328.664 231.778 328.84 232.466 328.84C233.17 328.84 233.826 328.664 234.434 328.312C235.042 327.96 235.53 327.448 235.898 326.776C236.282 326.088 236.474 325.288 236.474 324.376ZM247.627 331.216C246.587 331.216 245.651 331.032 244.819 330.664C244.003 330.28 243.355 329.768 242.875 329.128C242.395 328.472 242.139 327.744 242.107 326.944H244.939C244.987 327.504 245.251 327.976 245.731 328.36C246.227 328.728 246.843 328.912 247.579 328.912C248.347 328.912 248.939 328.768 249.355 328.48C249.787 328.176 250.003 327.792 250.003 327.328C250.003 326.832 249.763 326.464 249.283 326.224C248.819 325.984 248.075 325.72 247.051 325.432C246.059 325.16 245.251 324.896 244.627 324.64C244.003 324.384 243.459 323.992 242.995 323.464C242.547 322.936 242.323 322.24 242.323 321.376C242.323 320.672 242.531 320.032 242.947 319.456C243.363 318.864 243.955 318.4 244.723 318.064C245.507 317.728 246.403 317.56 247.411 317.56C248.915 317.56 250.123 317.944 251.035 318.712C251.963 319.464 252.459 320.496 252.523 321.808H249.787C249.739 321.216 249.499 320.744 249.067 320.392C248.635 320.04 248.051 319.864 247.315 319.864C246.595 319.864 246.043 320 245.659 320.272C245.275 320.544 245.083 320.904 245.083 321.352C245.083 321.704 245.211 322 245.467 322.24C245.723 322.48 246.035 322.672 246.403 322.816C246.771 322.944 247.315 323.112 248.035 323.32C248.995 323.576 249.779 323.84 250.387 324.112C251.011 324.368 251.547 324.752 251.995 325.264C252.443 325.776 252.675 326.456 252.691 327.304C252.691 328.056 252.483 328.728 252.067 329.32C251.651 329.912 251.059 330.376 250.291 330.712C249.539 331.048 248.651 331.216 247.627 331.216ZM260.448 331.216C259.408 331.216 258.472 331.032 257.64 330.664C256.824 330.28 256.176 329.768 255.696 329.128C255.216 328.472 254.96 327.744 254.928 326.944H257.76C257.808 327.504 258.072 327.976 258.552 328.36C259.048 328.728 259.664 328.912 260.4 328.912C261.168 328.912 261.76 328.768 262.176 328.48C262.608 328.176 262.824 327.792 262.824 327.328C262.824 326.832 262.584 326.464 262.104 326.224C261.64 325.984 260.896 325.72 259.872 325.432C258.88 325.16 258.072 324.896 257.448 324.64C256.824 324.384 256.28 323.992 255.816 323.464C255.368 322.936 255.144 322.24 255.144 321.376C255.144 320.672 255.352 320.032 255.768 319.456C256.184 318.864 256.776 318.4 257.544 318.064C258.328 317.728 259.224 317.56 260.232 317.56C261.736 317.56 262.944 317.944 263.856 318.712C264.784 319.464 265.28 320.496 265.344 321.808H262.608C262.56 321.216 262.32 320.744 261.888 320.392C261.456 320.04 260.872 319.864 260.136 319.864C259.416 319.864 258.864 320 258.48 320.272C258.096 320.544 257.904 320.904 257.904 321.352C257.904 321.704 258.032 322 258.288 322.24C258.544 322.48 258.856 322.672 259.224 322.816C259.592 322.944 260.136 323.112 260.856 323.32C261.816 323.576 262.6 323.84 263.208 324.112C263.832 324.368 264.368 324.752 264.816 325.264C265.264 325.776 265.496 326.456 265.512 327.304C265.512 328.056 265.304 328.728 264.888 329.32C264.472 329.912 263.88 330.376 263.112 330.712C262.36 331.048 261.472 331.216 260.448 331.216ZM280.588 324.064C280.588 324.56 280.556 325.008 280.492 325.408H270.388C270.468 326.464 270.86 327.312 271.564 327.952C272.268 328.592 273.132 328.912 274.156 328.912C275.628 328.912 276.668 328.296 277.276 327.064H280.228C279.828 328.28 279.1 329.28 278.044 330.064C277.004 330.832 275.708 331.216 274.156 331.216C272.892 331.216 271.756 330.936 270.748 330.376C269.756 329.8 268.972 329 268.396 327.976C267.836 326.936 267.556 325.736 267.556 324.376C267.556 323.016 267.828 321.824 268.372 320.8C268.932 319.76 269.708 318.96 270.7 318.4C271.708 317.84 272.86 317.56 274.156 317.56C275.404 317.56 276.516 317.832 277.492 318.376C278.468 318.92 279.228 319.688 279.772 320.68C280.316 321.656 280.588 322.784 280.588 324.064ZM277.732 323.2C277.716 322.192 277.356 321.384 276.652 320.776C275.948 320.168 275.076 319.864 274.036 319.864C273.092 319.864 272.284 320.168 271.612 320.776C270.94 321.368 270.54 322.176 270.412 323.2H277.732ZM282.368 324.328C282.368 323 282.64 321.824 283.184 320.8C283.744 319.776 284.496 318.984 285.44 318.424C286.4 317.848 287.456 317.56 288.608 317.56C289.648 317.56 290.552 317.768 291.32 318.184C292.104 318.584 292.728 319.088 293.192 319.696V317.776H295.952V331H293.192V329.032C292.728 329.656 292.096 330.176 291.296 330.592C290.496 331.008 289.584 331.216 288.56 331.216C287.424 331.216 286.384 330.928 285.44 330.352C284.496 329.76 283.744 328.944 283.184 327.904C282.64 326.848 282.368 325.656 282.368 324.328ZM293.192 324.376C293.192 323.464 293 322.672 292.616 322C292.248 321.328 291.76 320.816 291.152 320.464C290.544 320.112 289.888 319.936 289.184 319.936C288.48 319.936 287.824 320.112 287.216 320.464C286.608 320.8 286.112 321.304 285.728 321.976C285.36 322.632 285.176 323.416 285.176 324.328C285.176 325.24 285.36 326.04 285.728 326.728C286.112 327.416 286.608 327.944 287.216 328.312C287.84 328.664 288.496 328.84 289.184 328.84C289.888 328.84 290.544 328.664 291.152 328.312C291.76 327.96 292.248 327.448 292.616 326.776C293 326.088 293.192 325.288 293.192 324.376ZM302.282 319.696C302.682 319.024 303.21 318.504 303.866 318.136C304.538 317.752 305.33 317.56 306.242 317.56V320.392H305.546C304.474 320.392 303.658 320.664 303.098 321.208C302.554 321.752 302.282 322.696 302.282 324.04V331H299.546V317.776H302.282V319.696ZM309.861 331.168C309.365 331.168 308.949 331 308.613 330.664C308.277 330.328 308.109 329.912 308.109 329.416C308.109 328.92 308.277 328.504 308.613 328.168C308.949 327.832 309.365 327.664 309.861 327.664C310.341 327.664 310.749 327.832 311.085 328.168C311.421 328.504 311.589 328.92 311.589 329.416C311.589 329.912 311.421 330.328 311.085 330.664C310.749 331 310.341 331.168 309.861 331.168Z" fill="#FFEBEB"/>
</svg>
