<svg width="456" height="456" viewBox="0 0 456 456" fill="none" xmlns="http://www.w3.org/2000/svg">
<rect width="456" height="456" fill="#F8A98A"/>
<path d="M121.03 121.26C123.102 121.26 124.913 121.68 126.462 122.52C128.03 123.341 129.234 124.499 130.074 125.992C130.914 127.485 131.334 129.193 131.334 131.116C131.334 133.02 130.905 134.719 130.046 136.212C129.206 137.705 128.002 138.881 126.434 139.74C124.885 140.58 123.084 141 121.03 141H113.218V121.26H121.03ZM120.61 136.156C122.216 136.156 123.476 135.717 124.39 134.84C125.305 133.963 125.762 132.721 125.762 131.116C125.762 129.492 125.305 128.241 124.39 127.364C123.476 126.468 122.216 126.02 120.61 126.02H118.706V136.156H120.61ZM148.816 132.964C148.816 133.393 148.788 133.823 148.732 134.252H138.344C138.4 135.111 138.634 135.755 139.044 136.184C139.474 136.595 140.015 136.8 140.668 136.8C141.583 136.8 142.236 136.389 142.628 135.568H148.48C148.238 136.651 147.762 137.621 147.052 138.48C146.362 139.32 145.484 139.983 144.42 140.468C143.356 140.953 142.18 141.196 140.892 141.196C139.343 141.196 137.962 140.869 136.748 140.216C135.554 139.563 134.611 138.629 133.92 137.416C133.248 136.203 132.912 134.775 132.912 133.132C132.912 131.489 133.248 130.071 133.92 128.876C134.592 127.663 135.526 126.729 136.72 126.076C137.934 125.423 139.324 125.096 140.892 125.096C142.442 125.096 143.814 125.413 145.008 126.048C146.203 126.683 147.136 127.597 147.808 128.792C148.48 129.968 148.816 131.359 148.816 132.964ZM143.216 131.592C143.216 130.92 142.992 130.397 142.544 130.024C142.096 129.632 141.536 129.436 140.864 129.436C140.192 129.436 139.642 129.623 139.212 129.996C138.783 130.351 138.503 130.883 138.372 131.592H143.216ZM140.892 121.848L136.384 124.088V120.42L140.892 118.264L145.344 120.42V124.088L140.892 121.848ZM176.946 125.152C178.924 125.152 180.474 125.749 181.594 126.944C182.732 128.139 183.302 129.772 183.302 131.844V141H177.814V132.572C177.814 131.732 177.58 131.079 177.114 130.612C176.647 130.145 176.012 129.912 175.21 129.912C174.407 129.912 173.772 130.145 173.306 130.612C172.839 131.079 172.606 131.732 172.606 132.572V141H167.118V132.572C167.118 131.732 166.884 131.079 166.418 130.612C165.97 130.145 165.344 129.912 164.542 129.912C163.72 129.912 163.076 130.145 162.61 130.612C162.143 131.079 161.91 131.732 161.91 132.572V141H156.422V125.292H161.91V127.364C162.395 126.692 163.02 126.16 163.786 125.768C164.57 125.357 165.466 125.152 166.474 125.152C167.631 125.152 168.658 125.404 169.554 125.908C170.468 126.412 171.187 127.121 171.71 128.036C172.27 127.177 173.007 126.487 173.922 125.964C174.836 125.423 175.844 125.152 176.946 125.152ZM202.38 125.292V141H196.864V138.76C196.398 139.469 195.754 140.048 194.932 140.496C194.111 140.925 193.168 141.14 192.104 141.14C190.275 141.14 188.828 140.543 187.764 139.348C186.719 138.135 186.196 136.492 186.196 134.42V125.292H191.656V133.72C191.656 134.616 191.89 135.325 192.356 135.848C192.842 136.352 193.476 136.604 194.26 136.604C195.063 136.604 195.698 136.352 196.164 135.848C196.631 135.325 196.864 134.616 196.864 133.72V125.292H202.38ZM208.276 123.836C207.305 123.836 206.521 123.575 205.924 123.052C205.345 122.511 205.056 121.839 205.056 121.036C205.056 120.215 205.345 119.533 205.924 118.992C206.521 118.451 207.305 118.18 208.276 118.18C209.228 118.18 209.993 118.451 210.572 118.992C211.169 119.533 211.468 120.215 211.468 121.036C211.468 121.839 211.169 122.511 210.572 123.052C209.993 123.575 209.228 123.836 208.276 123.836ZM210.992 125.292V141H205.504V125.292H210.992ZM223.385 136.324V141H221.005C216.991 141 214.985 139.012 214.985 135.036V129.856H213.053V125.292H214.985V121.484H220.501V125.292H223.357V129.856H220.501V135.12C220.501 135.549 220.594 135.857 220.781 136.044C220.986 136.231 221.322 136.324 221.789 136.324H223.385ZM233.21 141.196C231.642 141.196 230.233 140.869 228.982 140.216C227.75 139.563 226.779 138.629 226.07 137.416C225.361 136.203 225.006 134.775 225.006 133.132C225.006 131.508 225.361 130.089 226.07 128.876C226.798 127.663 227.778 126.729 229.01 126.076C230.261 125.423 231.67 125.096 233.238 125.096C234.806 125.096 236.206 125.423 237.438 126.076C238.689 126.729 239.669 127.663 240.378 128.876C241.106 130.089 241.47 131.508 241.47 133.132C241.47 134.756 241.106 136.184 240.378 137.416C239.669 138.629 238.689 139.563 237.438 140.216C236.187 140.869 234.778 141.196 233.21 141.196ZM233.21 136.436C233.975 136.436 234.61 136.156 235.114 135.596C235.637 135.017 235.898 134.196 235.898 133.132C235.898 132.068 235.637 131.256 235.114 130.696C234.61 130.136 233.985 129.856 233.238 129.856C232.491 129.856 231.866 130.136 231.362 130.696C230.858 131.256 230.606 132.068 230.606 133.132C230.606 134.215 230.849 135.036 231.334 135.596C231.819 136.156 232.445 136.436 233.21 136.436ZM248.166 133.132C248.166 131.508 248.455 130.089 249.034 128.876C249.631 127.663 250.434 126.729 251.442 126.076C252.469 125.423 253.607 125.096 254.858 125.096C255.941 125.096 256.874 125.311 257.658 125.74C258.442 126.169 259.049 126.748 259.478 127.476V125.292H264.966V141H259.478V138.816C259.049 139.544 258.433 140.123 257.63 140.552C256.846 140.981 255.922 141.196 254.858 141.196C253.607 141.196 252.469 140.869 251.442 140.216C250.434 139.563 249.631 138.629 249.034 137.416C248.455 136.184 248.166 134.756 248.166 133.132ZM259.478 133.132C259.478 132.124 259.198 131.331 258.638 130.752C258.097 130.173 257.425 129.884 256.622 129.884C255.801 129.884 255.119 130.173 254.578 130.752C254.037 131.312 253.766 132.105 253.766 133.132C253.766 134.14 254.037 134.943 254.578 135.54C255.119 136.119 255.801 136.408 256.622 136.408C257.425 136.408 258.097 136.119 258.638 135.54C259.198 134.961 259.478 134.159 259.478 133.132ZM288.617 125.152C290.596 125.152 292.145 125.749 293.265 126.944C294.404 128.139 294.973 129.772 294.973 131.844V141H289.485V132.572C289.485 131.732 289.252 131.079 288.785 130.612C288.319 130.145 287.684 129.912 286.881 129.912C286.079 129.912 285.444 130.145 284.977 130.612C284.511 131.079 284.277 131.732 284.277 132.572V141H278.789V132.572C278.789 131.732 278.556 131.079 278.089 130.612C277.641 130.145 277.016 129.912 276.213 129.912C275.392 129.912 274.748 130.145 274.281 130.612C273.815 131.079 273.581 131.732 273.581 132.572V141H268.093V125.292H273.581V127.364C274.067 126.692 274.692 126.16 275.457 125.768C276.241 125.357 277.137 125.152 278.145 125.152C279.303 125.152 280.329 125.404 281.225 125.908C282.14 126.412 282.859 127.121 283.381 128.036C283.941 127.177 284.679 126.487 285.593 125.964C286.508 125.423 287.516 125.152 288.617 125.152ZM305.288 141.196C303.72 141.196 302.311 140.869 301.06 140.216C299.828 139.563 298.857 138.629 298.148 137.416C297.439 136.203 297.084 134.775 297.084 133.132C297.084 131.508 297.439 130.089 298.148 128.876C298.876 127.663 299.856 126.729 301.088 126.076C302.339 125.423 303.748 125.096 305.316 125.096C306.884 125.096 308.284 125.423 309.516 126.076C310.767 126.729 311.747 127.663 312.456 128.876C313.184 130.089 313.548 131.508 313.548 133.132C313.548 134.756 313.184 136.184 312.456 137.416C311.747 138.629 310.767 139.563 309.516 140.216C308.265 140.869 306.856 141.196 305.288 141.196ZM305.288 136.436C306.053 136.436 306.688 136.156 307.192 135.596C307.715 135.017 307.976 134.196 307.976 133.132C307.976 132.068 307.715 131.256 307.192 130.696C306.688 130.136 306.063 129.856 305.316 129.856C304.569 129.856 303.944 130.136 303.44 130.696C302.936 131.256 302.684 132.068 302.684 133.132C302.684 134.215 302.927 135.036 303.412 135.596C303.897 136.156 304.523 136.436 305.288 136.436ZM321.269 128.064C321.885 127.168 322.632 126.459 323.509 125.936C324.386 125.413 325.329 125.152 326.337 125.152V131.004H324.797C323.602 131.004 322.716 131.237 322.137 131.704C321.558 132.171 321.269 132.983 321.269 134.14V141H315.781V125.292H321.269V128.064ZM348.672 132.964C348.672 133.393 348.644 133.823 348.588 134.252H338.2C338.256 135.111 338.489 135.755 338.9 136.184C339.329 136.595 339.87 136.8 340.524 136.8C341.438 136.8 342.092 136.389 342.484 135.568H348.336C348.093 136.651 347.617 137.621 346.908 138.48C346.217 139.32 345.34 139.983 344.276 140.468C343.212 140.953 342.036 141.196 340.748 141.196C339.198 141.196 337.817 140.869 336.604 140.216C335.409 139.563 334.466 138.629 333.776 137.416C333.104 136.203 332.768 134.775 332.768 133.132C332.768 131.489 333.104 130.071 333.776 128.876C334.448 127.663 335.381 126.729 336.576 126.076C337.789 125.423 339.18 125.096 340.748 125.096C342.297 125.096 343.669 125.413 344.864 126.048C346.058 126.683 346.992 127.597 347.664 128.792C348.336 129.968 348.672 131.359 348.672 132.964ZM343.072 131.592C343.072 130.92 342.848 130.397 342.4 130.024C341.952 129.632 341.392 129.436 340.72 129.436C340.048 129.436 339.497 129.623 339.068 129.996C338.638 130.351 338.358 130.883 338.228 131.592H343.072ZM165.889 175.132C165.889 173.508 166.225 172.089 166.897 170.876C167.569 169.663 168.502 168.729 169.697 168.076C170.91 167.423 172.291 167.096 173.841 167.096C175.838 167.096 177.518 167.647 178.881 168.748C180.243 169.831 181.121 171.352 181.513 173.312H175.689C175.353 172.285 174.699 171.772 173.729 171.772C173.038 171.772 172.487 172.061 172.077 172.64C171.685 173.2 171.489 174.031 171.489 175.132C171.489 176.233 171.685 177.073 172.077 177.652C172.487 178.231 173.038 178.52 173.729 178.52C174.718 178.52 175.371 178.007 175.689 176.98H181.513C181.121 178.921 180.243 180.443 178.881 181.544C177.518 182.645 175.838 183.196 173.841 183.196C172.291 183.196 170.91 182.869 169.697 182.216C168.502 181.563 167.569 180.629 166.897 179.416C166.225 178.203 165.889 176.775 165.889 175.132ZM182.897 175.132C182.897 173.508 183.186 172.089 183.765 170.876C184.362 169.663 185.165 168.729 186.173 168.076C187.199 167.423 188.338 167.096 189.589 167.096C190.671 167.096 191.605 167.311 192.389 167.74C193.173 168.169 193.779 168.748 194.209 169.476V167.292H199.697V183H194.209V180.816C193.779 181.544 193.163 182.123 192.361 182.552C191.577 182.981 190.653 183.196 189.589 183.196C188.338 183.196 187.199 182.869 186.173 182.216C185.165 181.563 184.362 180.629 183.765 179.416C183.186 178.184 182.897 176.756 182.897 175.132ZM194.209 175.132C194.209 174.124 193.929 173.331 193.369 172.752C192.827 172.173 192.155 171.884 191.353 171.884C190.531 171.884 189.85 172.173 189.309 172.752C188.767 173.312 188.497 174.105 188.497 175.132C188.497 176.14 188.767 176.943 189.309 177.54C189.85 178.119 190.531 178.408 191.353 178.408C192.155 178.408 192.827 178.119 193.369 177.54C193.929 176.961 194.209 176.159 194.209 175.132ZM208.312 170.064C208.928 169.168 209.675 168.459 210.552 167.936C211.429 167.413 212.372 167.152 213.38 167.152V173.004H211.84C210.645 173.004 209.759 173.237 209.18 173.704C208.601 174.171 208.312 174.983 208.312 176.14V183H202.824V167.292H208.312V170.064ZM218.119 165.836C217.149 165.836 216.365 165.575 215.767 165.052C215.189 164.511 214.899 163.839 214.899 163.036C214.899 162.215 215.189 161.533 215.767 160.992C216.365 160.451 217.149 160.18 218.119 160.18C219.071 160.18 219.837 160.451 220.415 160.992C221.013 161.533 221.311 162.215 221.311 163.036C221.311 163.839 221.013 164.511 220.415 165.052C219.837 165.575 219.071 165.836 218.119 165.836ZM220.835 167.292V183H215.347V167.292H220.835ZM234.237 167.152C236.047 167.152 237.485 167.759 238.549 168.972C239.613 170.167 240.145 171.791 240.145 173.844V183H234.657V174.572C234.657 173.676 234.423 172.976 233.957 172.472C233.49 171.949 232.865 171.688 232.081 171.688C231.259 171.688 230.615 171.949 230.149 172.472C229.682 172.976 229.449 173.676 229.449 174.572V183H223.961V167.292H229.449V169.532C229.934 168.823 230.587 168.253 231.409 167.824C232.23 167.376 233.173 167.152 234.237 167.152ZM253.488 167.152C255.28 167.152 256.699 167.759 257.744 168.972C258.808 170.167 259.34 171.791 259.34 173.844V183H253.852V174.572C253.852 173.676 253.619 172.976 253.152 172.472C252.685 171.949 252.06 171.688 251.276 171.688C250.455 171.688 249.811 171.949 249.344 172.472C248.877 172.976 248.644 173.676 248.644 174.572V183H243.156V162.28H248.644V169.532C249.129 168.823 249.783 168.253 250.604 167.824C251.444 167.376 252.405 167.152 253.488 167.152ZM269.659 183.196C268.091 183.196 266.682 182.869 265.431 182.216C264.199 181.563 263.229 180.629 262.519 179.416C261.81 178.203 261.455 176.775 261.455 175.132C261.455 173.508 261.81 172.089 262.519 170.876C263.247 169.663 264.227 168.729 265.459 168.076C266.71 167.423 268.119 167.096 269.687 167.096C271.255 167.096 272.655 167.423 273.887 168.076C275.138 168.729 276.118 169.663 276.827 170.876C277.555 172.089 277.919 173.508 277.919 175.132C277.919 176.756 277.555 178.184 276.827 179.416C276.118 180.629 275.138 181.563 273.887 182.216C272.637 182.869 271.227 183.196 269.659 183.196ZM269.659 178.436C270.425 178.436 271.059 178.156 271.563 177.596C272.086 177.017 272.347 176.196 272.347 175.132C272.347 174.068 272.086 173.256 271.563 172.696C271.059 172.136 270.434 171.856 269.687 171.856C268.941 171.856 268.315 172.136 267.811 172.696C267.307 173.256 267.055 174.068 267.055 175.132C267.055 176.215 267.298 177.036 267.783 177.596C268.269 178.156 268.894 178.436 269.659 178.436ZM287.488 162.252L286.844 175.608H282.168L281.524 162.252H287.488ZM284.52 183.224C283.549 183.224 282.765 182.963 282.168 182.44C281.589 181.899 281.3 181.217 281.3 180.396C281.3 179.575 281.589 178.893 282.168 178.352C282.765 177.811 283.549 177.54 284.52 177.54C285.472 177.54 286.237 177.811 286.816 178.352C287.413 178.893 287.712 179.575 287.712 180.396C287.712 181.199 287.413 181.871 286.816 182.412C286.237 182.953 285.472 183.224 284.52 183.224ZM138.188 207.12C137.756 206.288 137.156 205.664 136.388 205.248C135.62 204.816 134.732 204.6 133.724 204.6C132.62 204.6 131.636 204.848 130.772 205.344C129.908 205.84 129.228 206.544 128.732 207.456C128.252 208.368 128.012 209.424 128.012 210.624C128.012 211.824 128.252 212.888 128.732 213.816C129.228 214.728 129.908 215.432 130.772 215.928C131.636 216.424 132.62 216.672 133.724 216.672C135.212 216.672 136.42 216.256 137.348 215.424C138.276 214.592 138.844 213.464 139.052 212.04H132.788V209.856H141.98V211.992C141.804 213.288 141.34 214.48 140.588 215.568C139.852 216.656 138.884 217.528 137.684 218.184C136.5 218.824 135.18 219.144 133.724 219.144C132.156 219.144 130.724 218.784 129.428 218.064C128.132 217.328 127.1 216.312 126.332 215.016C125.58 213.72 125.204 212.256 125.204 210.624C125.204 208.992 125.58 207.528 126.332 206.232C127.1 204.936 128.132 203.928 129.428 203.208C130.74 202.472 132.172 202.104 133.724 202.104C135.5 202.104 137.076 202.544 138.452 203.424C139.844 204.288 140.852 205.52 141.476 207.12H138.188ZM143.767 212.328C143.767 211 144.039 209.824 144.583 208.8C145.143 207.776 145.895 206.984 146.839 206.424C147.799 205.848 148.855 205.56 150.007 205.56C151.047 205.56 151.951 205.768 152.719 206.184C153.503 206.584 154.127 207.088 154.591 207.696V205.776H157.351V219H154.591V217.032C154.127 217.656 153.495 218.176 152.695 218.592C151.895 219.008 150.983 219.216 149.959 219.216C148.823 219.216 147.783 218.928 146.839 218.352C145.895 217.76 145.143 216.944 144.583 215.904C144.039 214.848 143.767 213.656 143.767 212.328ZM154.591 212.376C154.591 211.464 154.399 210.672 154.015 210C153.647 209.328 153.159 208.816 152.551 208.464C151.943 208.112 151.287 207.936 150.583 207.936C149.879 207.936 149.223 208.112 148.615 208.464C148.007 208.8 147.511 209.304 147.127 209.976C146.759 210.632 146.575 211.416 146.575 212.328C146.575 213.24 146.759 214.04 147.127 214.728C147.511 215.416 148.007 215.944 148.615 216.312C149.239 216.664 149.895 216.84 150.583 216.84C151.287 216.84 151.943 216.664 152.551 216.312C153.159 215.96 153.647 215.448 154.015 214.776C154.399 214.088 154.591 213.288 154.591 212.376ZM164.137 208.008V215.328C164.137 215.824 164.249 216.184 164.473 216.408C164.713 216.616 165.113 216.72 165.673 216.72H167.353V219H165.193C163.961 219 163.017 218.712 162.361 218.136C161.705 217.56 161.377 216.624 161.377 215.328V208.008H159.817V205.776H161.377V202.488H164.137V205.776H167.353V208.008H164.137ZM175.61 219.216C174.362 219.216 173.234 218.936 172.226 218.376C171.218 217.8 170.426 217 169.85 215.976C169.274 214.936 168.986 213.736 168.986 212.376C168.986 211.032 169.282 209.84 169.874 208.8C170.466 207.76 171.274 206.96 172.298 206.4C173.322 205.84 174.466 205.56 175.73 205.56C176.994 205.56 178.138 205.84 179.162 206.4C180.186 206.96 180.994 207.76 181.586 208.8C182.178 209.84 182.474 211.032 182.474 212.376C182.474 213.72 182.17 214.912 181.562 215.952C180.954 216.992 180.122 217.8 179.066 218.376C178.026 218.936 176.874 219.216 175.61 219.216ZM175.61 216.84C176.314 216.84 176.97 216.672 177.578 216.336C178.202 216 178.706 215.496 179.09 214.824C179.474 214.152 179.666 213.336 179.666 212.376C179.666 211.416 179.482 210.608 179.114 209.952C178.746 209.28 178.258 208.776 177.65 208.44C177.042 208.104 176.386 207.936 175.682 207.936C174.978 207.936 174.322 208.104 173.714 208.44C173.122 208.776 172.65 209.28 172.298 209.952C171.946 210.608 171.77 211.416 171.77 212.376C171.77 213.8 172.13 214.904 172.85 215.688C173.586 216.456 174.506 216.84 175.61 216.84ZM189.979 219.216C188.939 219.216 188.003 219.032 187.171 218.664C186.355 218.28 185.707 217.768 185.227 217.128C184.747 216.472 184.491 215.744 184.459 214.944H187.291C187.339 215.504 187.603 215.976 188.083 216.36C188.579 216.728 189.195 216.912 189.931 216.912C190.699 216.912 191.291 216.768 191.707 216.48C192.139 216.176 192.355 215.792 192.355 215.328C192.355 214.832 192.115 214.464 191.635 214.224C191.171 213.984 190.427 213.72 189.403 213.432C188.411 213.16 187.603 212.896 186.979 212.64C186.355 212.384 185.811 211.992 185.347 211.464C184.899 210.936 184.675 210.24 184.675 209.376C184.675 208.672 184.883 208.032 185.299 207.456C185.715 206.864 186.307 206.4 187.075 206.064C187.859 205.728 188.755 205.56 189.763 205.56C191.267 205.56 192.475 205.944 193.387 206.712C194.315 207.464 194.811 208.496 194.875 209.808H192.139C192.091 209.216 191.851 208.744 191.419 208.392C190.987 208.04 190.403 207.864 189.667 207.864C188.947 207.864 188.395 208 188.011 208.272C187.627 208.544 187.435 208.904 187.435 209.352C187.435 209.704 187.563 210 187.819 210.24C188.075 210.48 188.387 210.672 188.755 210.816C189.123 210.944 189.667 211.112 190.387 211.32C191.347 211.576 192.131 211.84 192.739 212.112C193.363 212.368 193.899 212.752 194.347 213.264C194.795 213.776 195.027 214.456 195.043 215.304C195.043 216.056 194.835 216.728 194.419 217.32C194.003 217.912 193.411 218.376 192.643 218.712C191.891 219.048 191.003 219.216 189.979 219.216ZM209.034 219.216C207.994 219.216 207.058 219.032 206.226 218.664C205.41 218.28 204.762 217.768 204.282 217.128C203.802 216.472 203.546 215.744 203.514 214.944H206.346C206.394 215.504 206.658 215.976 207.138 216.36C207.634 216.728 208.25 216.912 208.986 216.912C209.754 216.912 210.346 216.768 210.762 216.48C211.194 216.176 211.41 215.792 211.41 215.328C211.41 214.832 211.17 214.464 210.69 214.224C210.226 213.984 209.482 213.72 208.458 213.432C207.466 213.16 206.658 212.896 206.034 212.64C205.41 212.384 204.866 211.992 204.402 211.464C203.954 210.936 203.73 210.24 203.73 209.376C203.73 208.672 203.938 208.032 204.354 207.456C204.77 206.864 205.362 206.4 206.13 206.064C206.914 205.728 207.81 205.56 208.818 205.56C210.322 205.56 211.53 205.944 212.442 206.712C213.37 207.464 213.866 208.496 213.93 209.808H211.194C211.146 209.216 210.906 208.744 210.474 208.392C210.042 208.04 209.458 207.864 208.722 207.864C208.002 207.864 207.45 208 207.066 208.272C206.682 208.544 206.49 208.904 206.49 209.352C206.49 209.704 206.618 210 206.874 210.24C207.13 210.48 207.442 210.672 207.81 210.816C208.178 210.944 208.722 211.112 209.442 211.32C210.402 211.576 211.186 211.84 211.794 212.112C212.418 212.368 212.954 212.752 213.402 213.264C213.85 213.776 214.082 214.456 214.098 215.304C214.098 216.056 213.89 216.728 213.474 217.32C213.058 217.912 212.466 218.376 211.698 218.712C210.946 219.048 210.058 219.216 209.034 219.216ZM216.142 212.328C216.142 211 216.414 209.824 216.958 208.8C217.518 207.776 218.27 206.984 219.214 206.424C220.174 205.848 221.23 205.56 222.382 205.56C223.422 205.56 224.326 205.768 225.094 206.184C225.878 206.584 226.502 207.088 226.966 207.696V205.776H229.726V219H226.966V217.032C226.502 217.656 225.87 218.176 225.07 218.592C224.27 219.008 223.358 219.216 222.334 219.216C221.198 219.216 220.158 218.928 219.214 218.352C218.27 217.76 217.518 216.944 216.958 215.904C216.414 214.848 216.142 213.656 216.142 212.328ZM226.966 212.376C226.966 211.464 226.774 210.672 226.39 210C226.022 209.328 225.534 208.816 224.926 208.464C224.318 208.112 223.662 207.936 222.958 207.936C222.254 207.936 221.598 208.112 220.99 208.464C220.382 208.8 219.886 209.304 219.502 209.976C219.134 210.632 218.95 211.416 218.95 212.328C218.95 213.24 219.134 214.04 219.502 214.728C219.886 215.416 220.382 215.944 220.99 216.312C221.614 216.664 222.27 216.84 222.958 216.84C223.662 216.84 224.318 216.664 224.926 216.312C225.534 215.96 226.022 215.448 226.39 214.776C226.774 214.088 226.966 213.288 226.966 212.376ZM219.478 204.408C219.606 203.48 219.91 202.784 220.39 202.32C220.87 201.84 221.47 201.6 222.19 201.6C222.494 201.6 222.758 201.648 222.982 201.744C223.206 201.84 223.478 201.984 223.798 202.176C224.038 202.336 224.238 202.456 224.398 202.536C224.574 202.616 224.766 202.656 224.974 202.656C225.246 202.656 225.47 202.576 225.646 202.416C225.838 202.24 225.958 201.984 226.006 201.648H227.542C227.414 202.576 227.11 203.28 226.63 203.76C226.15 204.224 225.55 204.456 224.83 204.456C224.526 204.456 224.254 204.408 224.014 204.312C223.774 204.2 223.51 204.048 223.222 203.856C222.934 203.68 222.71 203.56 222.55 203.496C222.406 203.416 222.238 203.376 222.046 203.376C221.774 203.376 221.542 203.464 221.35 203.64C221.174 203.816 221.062 204.072 221.014 204.408H219.478ZM239.056 219.216C237.808 219.216 236.68 218.936 235.672 218.376C234.664 217.8 233.872 217 233.296 215.976C232.72 214.936 232.432 213.736 232.432 212.376C232.432 211.032 232.728 209.84 233.32 208.8C233.912 207.76 234.72 206.96 235.744 206.4C236.768 205.84 237.912 205.56 239.176 205.56C240.44 205.56 241.584 205.84 242.608 206.4C243.632 206.96 244.44 207.76 245.032 208.8C245.624 209.84 245.92 211.032 245.92 212.376C245.92 213.72 245.616 214.912 245.008 215.952C244.4 216.992 243.568 217.8 242.512 218.376C241.472 218.936 240.32 219.216 239.056 219.216ZM239.056 216.84C239.76 216.84 240.416 216.672 241.024 216.336C241.648 216 242.152 215.496 242.536 214.824C242.92 214.152 243.112 213.336 243.112 212.376C243.112 211.416 242.928 210.608 242.56 209.952C242.192 209.28 241.704 208.776 241.096 208.44C240.488 208.104 239.832 207.936 239.128 207.936C238.424 207.936 237.768 208.104 237.16 208.44C236.568 208.776 236.096 209.28 235.744 209.952C235.392 210.608 235.216 211.416 235.216 212.376C235.216 213.8 235.576 214.904 236.296 215.688C237.032 216.456 237.952 216.84 239.056 216.84ZM260.595 219.216C259.347 219.216 258.219 218.936 257.211 218.376C256.203 217.8 255.411 217 254.835 215.976C254.259 214.936 253.971 213.736 253.971 212.376C253.971 211.032 254.267 209.84 254.859 208.8C255.451 207.76 256.259 206.96 257.283 206.4C258.307 205.84 259.451 205.56 260.715 205.56C261.979 205.56 263.123 205.84 264.147 206.4C265.171 206.96 265.979 207.76 266.571 208.8C267.163 209.84 267.459 211.032 267.459 212.376C267.459 213.72 267.155 214.912 266.547 215.952C265.939 216.992 265.107 217.8 264.051 218.376C263.011 218.936 261.859 219.216 260.595 219.216ZM260.595 216.84C261.299 216.84 261.955 216.672 262.563 216.336C263.187 216 263.691 215.496 264.075 214.824C264.459 214.152 264.651 213.336 264.651 212.376C264.651 211.416 264.467 210.608 264.099 209.952C263.731 209.28 263.243 208.776 262.635 208.44C262.027 208.104 261.371 207.936 260.667 207.936C259.963 207.936 259.307 208.104 258.699 208.44C258.107 208.776 257.635 209.28 257.283 209.952C256.931 210.608 256.755 211.416 256.755 212.376C256.755 213.8 257.115 214.904 257.835 215.688C258.571 216.456 259.491 216.84 260.595 216.84ZM263.187 202.008L257.883 204.624V202.608L263.187 199.68V202.008ZM273.355 208.008V215.328C273.355 215.824 273.467 216.184 273.691 216.408C273.931 216.616 274.331 216.72 274.891 216.72H276.571V219H274.411C273.179 219 272.235 218.712 271.579 218.136C270.923 217.56 270.595 216.624 270.595 215.328V208.008H269.035V205.776H270.595V202.488H273.355V205.776H276.571V208.008H273.355ZM280.485 204.024C279.989 204.024 279.573 203.856 279.237 203.52C278.901 203.184 278.733 202.768 278.733 202.272C278.733 201.776 278.901 201.36 279.237 201.024C279.573 200.688 279.989 200.52 280.485 200.52C280.965 200.52 281.373 200.688 281.709 201.024C282.045 201.36 282.213 201.776 282.213 202.272C282.213 202.768 282.045 203.184 281.709 203.52C281.373 203.856 280.965 204.024 280.485 204.024ZM281.829 205.776V219H279.093V205.776H281.829ZM301.429 205.56C302.469 205.56 303.397 205.776 304.213 206.208C305.045 206.64 305.693 207.28 306.157 208.128C306.637 208.976 306.877 210 306.877 211.2V219H304.165V211.608C304.165 210.424 303.869 209.52 303.277 208.896C302.685 208.256 301.877 207.936 300.853 207.936C299.829 207.936 299.013 208.256 298.405 208.896C297.813 209.52 297.517 210.424 297.517 211.608V219H294.805V211.608C294.805 210.424 294.509 209.52 293.917 208.896C293.325 208.256 292.517 207.936 291.493 207.936C290.469 207.936 289.653 208.256 289.045 208.896C288.453 209.52 288.157 210.424 288.157 211.608V219H285.421V205.776H288.157V207.288C288.605 206.744 289.173 206.32 289.861 206.016C290.549 205.712 291.285 205.56 292.069 205.56C293.125 205.56 294.069 205.784 294.901 206.232C295.733 206.68 296.373 207.328 296.821 208.176C297.221 207.376 297.845 206.744 298.693 206.28C299.541 205.8 300.453 205.56 301.429 205.56ZM316.095 219.216C314.847 219.216 313.719 218.936 312.711 218.376C311.703 217.8 310.911 217 310.335 215.976C309.759 214.936 309.471 213.736 309.471 212.376C309.471 211.032 309.767 209.84 310.359 208.8C310.951 207.76 311.759 206.96 312.783 206.4C313.807 205.84 314.951 205.56 316.215 205.56C317.479 205.56 318.623 205.84 319.647 206.4C320.671 206.96 321.479 207.76 322.071 208.8C322.663 209.84 322.959 211.032 322.959 212.376C322.959 213.72 322.655 214.912 322.047 215.952C321.439 216.992 320.607 217.8 319.551 218.376C318.511 218.936 317.359 219.216 316.095 219.216ZM316.095 216.84C316.799 216.84 317.455 216.672 318.063 216.336C318.687 216 319.191 215.496 319.575 214.824C319.959 214.152 320.151 213.336 320.151 212.376C320.151 211.416 319.967 210.608 319.599 209.952C319.231 209.28 318.743 208.776 318.135 208.44C317.527 208.104 316.871 207.936 316.167 207.936C315.463 207.936 314.807 208.104 314.199 208.44C313.607 208.776 313.135 209.28 312.783 209.952C312.431 210.608 312.255 211.416 312.255 212.376C312.255 213.8 312.615 214.904 313.335 215.688C314.071 216.456 314.991 216.84 316.095 216.84ZM330.463 219.216C329.423 219.216 328.487 219.032 327.655 218.664C326.839 218.28 326.191 217.768 325.711 217.128C325.231 216.472 324.975 215.744 324.943 214.944H327.775C327.823 215.504 328.087 215.976 328.567 216.36C329.063 216.728 329.679 216.912 330.415 216.912C331.183 216.912 331.775 216.768 332.191 216.48C332.623 216.176 332.839 215.792 332.839 215.328C332.839 214.832 332.599 214.464 332.119 214.224C331.655 213.984 330.911 213.72 329.887 213.432C328.895 213.16 328.087 212.896 327.463 212.64C326.839 212.384 326.295 211.992 325.831 211.464C325.383 210.936 325.159 210.24 325.159 209.376C325.159 208.672 325.367 208.032 325.783 207.456C326.199 206.864 326.791 206.4 327.559 206.064C328.343 205.728 329.239 205.56 330.247 205.56C331.751 205.56 332.959 205.944 333.871 206.712C334.799 207.464 335.295 208.496 335.359 209.808H332.623C332.575 209.216 332.335 208.744 331.903 208.392C331.471 208.04 330.887 207.864 330.151 207.864C329.431 207.864 328.879 208 328.495 208.272C328.111 208.544 327.919 208.904 327.919 209.352C327.919 209.704 328.047 210 328.303 210.24C328.559 210.48 328.871 210.672 329.239 210.816C329.607 210.944 330.151 211.112 330.871 211.32C331.831 211.576 332.615 211.84 333.223 212.112C333.847 212.368 334.383 212.752 334.831 213.264C335.279 213.776 335.511 214.456 335.527 215.304C335.527 216.056 335.319 216.728 334.903 217.32C334.487 217.912 333.895 218.376 333.127 218.712C332.375 219.048 331.487 219.216 330.463 219.216ZM116.533 248.376C116.533 247.016 116.805 245.824 117.349 244.8C117.909 243.76 118.677 242.96 119.653 242.4C120.629 241.84 121.749 241.56 123.013 241.56C124.613 241.56 125.933 241.944 126.973 242.712C128.029 243.464 128.741 244.544 129.109 245.952H126.157C125.917 245.296 125.533 244.784 125.005 244.416C124.477 244.048 123.813 243.864 123.013 243.864C121.893 243.864 120.997 244.264 120.325 245.064C119.669 245.848 119.341 246.952 119.341 248.376C119.341 249.8 119.669 250.912 120.325 251.712C120.997 252.512 121.893 252.912 123.013 252.912C124.597 252.912 125.645 252.216 126.157 250.824H129.109C128.725 252.168 128.005 253.24 126.949 254.04C125.893 254.824 124.581 255.216 123.013 255.216C121.749 255.216 120.629 254.936 119.653 254.376C118.677 253.8 117.909 253 117.349 251.976C116.805 250.936 116.533 249.736 116.533 248.376ZM137.571 255.216C136.323 255.216 135.195 254.936 134.187 254.376C133.179 253.8 132.387 253 131.811 251.976C131.235 250.936 130.947 249.736 130.947 248.376C130.947 247.032 131.243 245.84 131.835 244.8C132.427 243.76 133.235 242.96 134.259 242.4C135.283 241.84 136.427 241.56 137.691 241.56C138.955 241.56 140.099 241.84 141.123 242.4C142.147 242.96 142.955 243.76 143.547 244.8C144.139 245.84 144.435 247.032 144.435 248.376C144.435 249.72 144.131 250.912 143.523 251.952C142.915 252.992 142.083 253.8 141.027 254.376C139.987 254.936 138.835 255.216 137.571 255.216ZM137.571 252.84C138.275 252.84 138.931 252.672 139.539 252.336C140.163 252 140.667 251.496 141.051 250.824C141.435 250.152 141.627 249.336 141.627 248.376C141.627 247.416 141.443 246.608 141.075 245.952C140.707 245.28 140.219 244.776 139.611 244.44C139.003 244.104 138.347 243.936 137.643 243.936C136.939 243.936 136.283 244.104 135.675 244.44C135.083 244.776 134.611 245.28 134.259 245.952C133.907 246.608 133.731 247.416 133.731 248.376C133.731 249.8 134.091 250.904 134.811 251.688C135.547 252.456 136.467 252.84 137.571 252.84ZM163.148 241.56C164.188 241.56 165.116 241.776 165.932 242.208C166.764 242.64 167.412 243.28 167.876 244.128C168.356 244.976 168.596 246 168.596 247.2V255H165.884V247.608C165.884 246.424 165.588 245.52 164.996 244.896C164.404 244.256 163.596 243.936 162.572 243.936C161.548 243.936 160.732 244.256 160.124 244.896C159.532 245.52 159.236 246.424 159.236 247.608V255H156.524V247.608C156.524 246.424 156.228 245.52 155.636 244.896C155.044 244.256 154.236 243.936 153.212 243.936C152.188 243.936 151.372 244.256 150.764 244.896C150.172 245.52 149.876 246.424 149.876 247.608V255H147.14V241.776H149.876V243.288C150.324 242.744 150.892 242.32 151.58 242.016C152.268 241.712 153.004 241.56 153.788 241.56C154.844 241.56 155.788 241.784 156.62 242.232C157.452 242.68 158.092 243.328 158.54 244.176C158.94 243.376 159.564 242.744 160.412 242.28C161.26 241.8 162.172 241.56 163.148 241.56ZM174.813 243.72C175.277 243.112 175.909 242.6 176.709 242.184C177.509 241.768 178.413 241.56 179.421 241.56C180.573 241.56 181.621 241.848 182.565 242.424C183.525 242.984 184.277 243.776 184.821 244.8C185.365 245.824 185.637 247 185.637 248.328C185.637 249.656 185.365 250.848 184.821 251.904C184.277 252.944 183.525 253.76 182.565 254.352C181.621 254.928 180.573 255.216 179.421 255.216C178.413 255.216 177.517 255.016 176.733 254.616C175.949 254.2 175.309 253.688 174.813 253.08V261.288H172.077V241.776H174.813V243.72ZM182.853 248.328C182.853 247.416 182.661 246.632 182.277 245.976C181.909 245.304 181.413 244.8 180.789 244.464C180.181 244.112 179.525 243.936 178.821 243.936C178.133 243.936 177.477 244.112 176.853 244.464C176.245 244.816 175.749 245.328 175.365 246C174.997 246.672 174.813 247.464 174.813 248.376C174.813 249.288 174.997 250.088 175.365 250.776C175.749 251.448 176.245 251.96 176.853 252.312C177.477 252.664 178.133 252.84 178.821 252.84C179.525 252.84 180.181 252.664 180.789 252.312C181.413 251.944 181.909 251.416 182.277 250.728C182.661 250.04 182.853 249.24 182.853 248.328ZM187.431 248.328C187.431 247 187.703 245.824 188.247 244.8C188.807 243.776 189.559 242.984 190.503 242.424C191.463 241.848 192.519 241.56 193.671 241.56C194.711 241.56 195.615 241.768 196.383 242.184C197.167 242.584 197.791 243.088 198.255 243.696V241.776H201.015V255H198.255V253.032C197.791 253.656 197.159 254.176 196.359 254.592C195.559 255.008 194.647 255.216 193.623 255.216C192.487 255.216 191.447 254.928 190.503 254.352C189.559 253.76 188.807 252.944 188.247 251.904C187.703 250.848 187.431 249.656 187.431 248.328ZM198.255 248.376C198.255 247.464 198.063 246.672 197.679 246C197.311 245.328 196.823 244.816 196.215 244.464C195.607 244.112 194.951 243.936 194.247 243.936C193.543 243.936 192.887 244.112 192.279 244.464C191.671 244.8 191.175 245.304 190.791 245.976C190.423 246.632 190.239 247.416 190.239 248.328C190.239 249.24 190.423 250.04 190.791 250.728C191.175 251.416 191.671 251.944 192.279 252.312C192.903 252.664 193.559 252.84 194.247 252.84C194.951 252.84 195.607 252.664 196.215 252.312C196.823 251.96 197.311 251.448 197.679 250.776C198.063 250.088 198.255 249.288 198.255 248.376ZM211.281 241.56C212.321 241.56 213.249 241.776 214.065 242.208C214.897 242.64 215.545 243.28 216.009 244.128C216.473 244.976 216.705 246 216.705 247.2V255H213.993V247.608C213.993 246.424 213.697 245.52 213.105 244.896C212.513 244.256 211.705 243.936 210.681 243.936C209.657 243.936 208.841 244.256 208.233 244.896C207.641 245.52 207.345 246.424 207.345 247.608V255H204.609V241.776H207.345V243.288C207.793 242.744 208.361 242.32 209.049 242.016C209.753 241.712 210.497 241.56 211.281 241.56ZM227.035 241.56C228.043 241.56 228.939 241.776 229.723 242.208C230.523 242.64 231.147 243.28 231.595 244.128C232.059 244.976 232.291 246 232.291 247.2V255H229.579V247.608C229.579 246.424 229.283 245.52 228.691 244.896C228.099 244.256 227.291 243.936 226.267 243.936C225.243 243.936 224.427 244.256 223.819 244.896C223.227 245.52 222.931 246.424 222.931 247.608V255H220.195V237.24H222.931V243.312C223.395 242.752 223.979 242.32 224.683 242.016C225.403 241.712 226.187 241.56 227.035 241.56ZM247.9 248.064C247.9 248.56 247.868 249.008 247.804 249.408H237.7C237.78 250.464 238.172 251.312 238.876 251.952C239.58 252.592 240.444 252.912 241.468 252.912C242.94 252.912 243.98 252.296 244.588 251.064H247.54C247.14 252.28 246.412 253.28 245.356 254.064C244.316 254.832 243.02 255.216 241.468 255.216C240.204 255.216 239.068 254.936 238.06 254.376C237.068 253.8 236.284 253 235.708 251.976C235.148 250.936 234.868 249.736 234.868 248.376C234.868 247.016 235.14 245.824 235.684 244.8C236.244 243.76 237.02 242.96 238.012 242.4C239.02 241.84 240.172 241.56 241.468 241.56C242.716 241.56 243.828 241.832 244.804 242.376C245.78 242.92 246.54 243.688 247.084 244.68C247.628 245.656 247.9 246.784 247.9 248.064ZM245.044 247.2C245.028 246.192 244.668 245.384 243.964 244.776C243.26 244.168 242.388 243.864 241.348 243.864C240.404 243.864 239.596 244.168 238.924 244.776C238.252 245.368 237.852 246.176 237.724 247.2H245.044ZM251.985 240.024C251.489 240.024 251.073 239.856 250.737 239.52C250.401 239.184 250.233 238.768 250.233 238.272C250.233 237.776 250.401 237.36 250.737 237.024C251.073 236.688 251.489 236.52 251.985 236.52C252.465 236.52 252.873 236.688 253.209 237.024C253.545 237.36 253.713 237.776 253.713 238.272C253.713 238.768 253.545 239.184 253.209 239.52C252.873 239.856 252.465 240.024 251.985 240.024ZM253.329 241.776V255H250.593V241.776H253.329ZM259.657 243.696C260.057 243.024 260.585 242.504 261.241 242.136C261.913 241.752 262.705 241.56 263.617 241.56V244.392H262.921C261.849 244.392 261.033 244.664 260.473 245.208C259.929 245.752 259.657 246.696 259.657 248.04V255H256.921V241.776H259.657V243.696ZM271.868 255.216C270.62 255.216 269.492 254.936 268.484 254.376C267.476 253.8 266.684 253 266.108 251.976C265.532 250.936 265.244 249.736 265.244 248.376C265.244 247.032 265.54 245.84 266.132 244.8C266.724 243.76 267.532 242.96 268.556 242.4C269.58 241.84 270.724 241.56 271.988 241.56C273.252 241.56 274.396 241.84 275.42 242.4C276.444 242.96 277.252 243.76 277.844 244.8C278.436 245.84 278.732 247.032 278.732 248.376C278.732 249.72 278.428 250.912 277.82 251.952C277.212 252.992 276.38 253.8 275.324 254.376C274.284 254.936 273.132 255.216 271.868 255.216ZM271.868 252.84C272.572 252.84 273.228 252.672 273.836 252.336C274.46 252 274.964 251.496 275.348 250.824C275.732 250.152 275.924 249.336 275.924 248.376C275.924 247.416 275.74 246.608 275.372 245.952C275.004 245.28 274.516 244.776 273.908 244.44C273.3 244.104 272.644 243.936 271.94 243.936C271.236 243.936 270.58 244.104 269.972 244.44C269.38 244.776 268.908 245.28 268.556 245.952C268.204 246.608 268.028 247.416 268.028 248.376C268.028 249.8 268.388 250.904 269.108 251.688C269.844 252.456 270.764 252.84 271.868 252.84ZM286.237 255.216C285.197 255.216 284.261 255.032 283.429 254.664C282.613 254.28 281.965 253.768 281.485 253.128C281.005 252.472 280.749 251.744 280.717 250.944H283.549C283.597 251.504 283.861 251.976 284.341 252.36C284.837 252.728 285.453 252.912 286.189 252.912C286.957 252.912 287.549 252.768 287.965 252.48C288.397 252.176 288.613 251.792 288.613 251.328C288.613 250.832 288.373 250.464 287.893 250.224C287.429 249.984 286.685 249.72 285.661 249.432C284.669 249.16 283.861 248.896 283.237 248.64C282.613 248.384 282.069 247.992 281.605 247.464C281.157 246.936 280.933 246.24 280.933 245.376C280.933 244.672 281.141 244.032 281.557 243.456C281.973 242.864 282.565 242.4 283.333 242.064C284.117 241.728 285.013 241.56 286.021 241.56C287.525 241.56 288.733 241.944 289.645 242.712C290.573 243.464 291.069 244.496 291.133 245.808H288.397C288.349 245.216 288.109 244.744 287.677 244.392C287.245 244.04 286.661 243.864 285.925 243.864C285.205 243.864 284.653 244 284.269 244.272C283.885 244.544 283.693 244.904 283.693 245.352C283.693 245.704 283.821 246 284.077 246.24C284.333 246.48 284.645 246.672 285.013 246.816C285.381 246.944 285.925 247.112 286.645 247.32C287.605 247.576 288.389 247.84 288.997 248.112C289.621 248.368 290.157 248.752 290.605 249.264C291.053 249.776 291.285 250.456 291.301 251.304C291.301 252.056 291.093 252.728 290.677 253.32C290.261 253.912 289.669 254.376 288.901 254.712C288.149 255.048 287.261 255.216 286.237 255.216ZM299.579 248.328C299.579 247 299.851 245.824 300.395 244.8C300.955 243.776 301.707 242.984 302.651 242.424C303.611 241.848 304.675 241.56 305.843 241.56C306.867 241.56 307.771 241.768 308.555 242.184C309.355 242.6 309.971 243.104 310.403 243.696V241.776H313.163V261.288H310.403V253.08C309.971 253.672 309.347 254.176 308.531 254.592C307.715 255.008 306.787 255.216 305.747 255.216C304.611 255.216 303.571 254.928 302.627 254.352C301.699 253.76 300.955 252.944 300.395 251.904C299.851 250.848 299.579 249.656 299.579 248.328ZM310.403 248.376C310.403 247.464 310.211 246.672 309.827 246C309.459 245.328 308.971 244.816 308.363 244.464C307.755 244.112 307.099 243.936 306.395 243.936C305.691 243.936 305.035 244.112 304.427 244.464C303.819 244.8 303.323 245.304 302.939 245.976C302.571 246.632 302.387 247.416 302.387 248.328C302.387 249.24 302.571 250.04 302.939 250.728C303.323 251.416 303.819 251.944 304.427 252.312C305.051 252.664 305.707 252.84 306.395 252.84C307.099 252.84 307.755 252.664 308.363 252.312C308.971 251.96 309.459 251.448 309.827 250.776C310.211 250.088 310.403 249.288 310.403 248.376ZM328.733 241.776V255H325.997V253.44C325.565 253.984 324.997 254.416 324.293 254.736C323.605 255.04 322.869 255.192 322.085 255.192C321.045 255.192 320.109 254.976 319.277 254.544C318.461 254.112 317.813 253.472 317.333 252.624C316.869 251.776 316.637 250.752 316.637 249.552V241.776H319.349V249.144C319.349 250.328 319.645 251.24 320.237 251.88C320.829 252.504 321.637 252.816 322.661 252.816C323.685 252.816 324.493 252.504 325.085 251.88C325.693 251.24 325.997 250.328 325.997 249.144V241.776H328.733ZM344.463 248.064C344.463 248.56 344.431 249.008 344.367 249.408H334.263C334.343 250.464 334.735 251.312 335.439 251.952C336.143 252.592 337.007 252.912 338.031 252.912C339.503 252.912 340.543 252.296 341.151 251.064H344.103C343.703 252.28 342.975 253.28 341.919 254.064C340.879 254.832 339.583 255.216 338.031 255.216C336.767 255.216 335.631 254.936 334.623 254.376C333.631 253.8 332.847 253 332.271 251.976C331.711 250.936 331.431 249.736 331.431 248.376C331.431 247.016 331.703 245.824 332.247 244.8C332.807 243.76 333.583 242.96 334.575 242.4C335.583 241.84 336.735 241.56 338.031 241.56C339.279 241.56 340.391 241.832 341.367 242.376C342.343 242.92 343.103 243.688 343.647 244.68C344.191 245.656 344.463 246.784 344.463 248.064ZM341.607 247.2C341.591 246.192 341.231 245.384 340.527 244.776C339.823 244.168 338.951 243.864 337.911 243.864C336.967 243.864 336.159 244.168 335.487 244.776C334.815 245.368 334.415 246.176 334.287 247.2H341.607ZM140.31 284.328C140.31 283 140.582 281.824 141.126 280.8C141.686 279.776 142.438 278.984 143.382 278.424C144.342 277.848 145.398 277.56 146.55 277.56C147.59 277.56 148.494 277.768 149.262 278.184C150.046 278.584 150.67 279.088 151.134 279.696V277.776H153.894V291H151.134V289.032C150.67 289.656 150.038 290.176 149.238 290.592C148.438 291.008 147.526 291.216 146.502 291.216C145.366 291.216 144.326 290.928 143.382 290.352C142.438 289.76 141.686 288.944 141.126 287.904C140.582 286.848 140.31 285.656 140.31 284.328ZM151.134 284.376C151.134 283.464 150.942 282.672 150.558 282C150.19 281.328 149.702 280.816 149.094 280.464C148.486 280.112 147.83 279.936 147.126 279.936C146.422 279.936 145.766 280.112 145.158 280.464C144.55 280.8 144.054 281.304 143.67 281.976C143.302 282.632 143.118 283.416 143.118 284.328C143.118 285.24 143.302 286.04 143.67 286.728C144.054 287.416 144.55 287.944 145.158 288.312C145.782 288.664 146.438 288.84 147.126 288.84C147.83 288.84 148.486 288.664 149.094 288.312C149.702 287.96 150.19 287.448 150.558 286.776C150.942 286.088 151.134 285.288 151.134 284.376ZM173.496 277.56C174.536 277.56 175.464 277.776 176.28 278.208C177.112 278.64 177.76 279.28 178.224 280.128C178.704 280.976 178.944 282 178.944 283.2V291H176.232V283.608C176.232 282.424 175.936 281.52 175.344 280.896C174.752 280.256 173.944 279.936 172.92 279.936C171.896 279.936 171.08 280.256 170.472 280.896C169.88 281.52 169.584 282.424 169.584 283.608V291H166.872V283.608C166.872 282.424 166.576 281.52 165.984 280.896C165.392 280.256 164.584 279.936 163.56 279.936C162.536 279.936 161.72 280.256 161.112 280.896C160.52 281.52 160.224 282.424 160.224 283.608V291H157.488V277.776H160.224V279.288C160.672 278.744 161.24 278.32 161.928 278.016C162.616 277.712 163.352 277.56 164.136 277.56C165.192 277.56 166.136 277.784 166.968 278.232C167.8 278.68 168.44 279.328 168.888 280.176C169.288 279.376 169.912 278.744 170.76 278.28C171.608 277.8 172.52 277.56 173.496 277.56ZM181.513 284.328C181.513 283 181.785 281.824 182.329 280.8C182.889 279.776 183.641 278.984 184.585 278.424C185.545 277.848 186.601 277.56 187.753 277.56C188.793 277.56 189.697 277.768 190.465 278.184C191.249 278.584 191.873 279.088 192.337 279.696V277.776H195.097V291H192.337V289.032C191.873 289.656 191.241 290.176 190.441 290.592C189.641 291.008 188.729 291.216 187.705 291.216C186.569 291.216 185.529 290.928 184.585 290.352C183.641 289.76 182.889 288.944 182.329 287.904C181.785 286.848 181.513 285.656 181.513 284.328ZM192.337 284.376C192.337 283.464 192.145 282.672 191.761 282C191.393 281.328 190.905 280.816 190.297 280.464C189.689 280.112 189.033 279.936 188.329 279.936C187.625 279.936 186.969 280.112 186.361 280.464C185.753 280.8 185.257 281.304 184.873 281.976C184.505 282.632 184.321 283.416 184.321 284.328C184.321 285.24 184.505 286.04 184.873 286.728C185.257 287.416 185.753 287.944 186.361 288.312C186.985 288.664 187.641 288.84 188.329 288.84C189.033 288.84 189.689 288.664 190.297 288.312C190.905 287.96 191.393 287.448 191.761 286.776C192.145 286.088 192.337 285.288 192.337 284.376ZM214.699 277.56C215.739 277.56 216.667 277.776 217.483 278.208C218.315 278.64 218.963 279.28 219.427 280.128C219.907 280.976 220.147 282 220.147 283.2V291H217.435V283.608C217.435 282.424 217.139 281.52 216.547 280.896C215.955 280.256 215.147 279.936 214.123 279.936C213.099 279.936 212.283 280.256 211.675 280.896C211.083 281.52 210.787 282.424 210.787 283.608V291H208.075V283.608C208.075 282.424 207.779 281.52 207.187 280.896C206.595 280.256 205.787 279.936 204.763 279.936C203.739 279.936 202.923 280.256 202.315 280.896C201.723 281.52 201.427 282.424 201.427 283.608V291H198.691V277.776H201.427V279.288C201.875 278.744 202.443 278.32 203.131 278.016C203.819 277.712 204.555 277.56 205.339 277.56C206.395 277.56 207.339 277.784 208.171 278.232C209.003 278.68 209.643 279.328 210.091 280.176C210.491 279.376 211.115 278.744 211.963 278.28C212.811 277.8 213.723 277.56 214.699 277.56ZM232.599 279.696C232.999 279.024 233.527 278.504 234.183 278.136C234.855 277.752 235.647 277.56 236.559 277.56V280.392H235.863C234.791 280.392 233.975 280.664 233.415 281.208C232.871 281.752 232.599 282.696 232.599 284.04V291H229.863V277.776H232.599V279.696ZM251.193 284.064C251.193 284.56 251.161 285.008 251.097 285.408H240.993C241.073 286.464 241.465 287.312 242.169 287.952C242.873 288.592 243.737 288.912 244.761 288.912C246.233 288.912 247.273 288.296 247.881 287.064H250.833C250.433 288.28 249.705 289.28 248.649 290.064C247.609 290.832 246.313 291.216 244.761 291.216C243.497 291.216 242.361 290.936 241.353 290.376C240.361 289.8 239.577 289 239.001 287.976C238.441 286.936 238.161 285.736 238.161 284.376C238.161 283.016 238.433 281.824 238.977 280.8C239.537 279.76 240.313 278.96 241.305 278.4C242.313 277.84 243.465 277.56 244.761 277.56C246.009 277.56 247.121 277.832 248.097 278.376C249.073 278.92 249.833 279.688 250.377 280.68C250.921 281.656 251.193 282.784 251.193 284.064ZM248.337 283.2C248.321 282.192 247.961 281.384 247.257 280.776C246.553 280.168 245.681 279.864 244.641 279.864C243.697 279.864 242.889 280.168 242.217 280.776C241.545 281.368 241.145 282.176 241.017 283.2H248.337ZM252.974 284.376C252.974 283.016 253.246 281.824 253.79 280.8C254.35 279.76 255.118 278.96 256.094 278.4C257.07 277.84 258.19 277.56 259.454 277.56C261.054 277.56 262.374 277.944 263.414 278.712C264.47 279.464 265.182 280.544 265.55 281.952H262.598C262.358 281.296 261.974 280.784 261.446 280.416C260.918 280.048 260.254 279.864 259.454 279.864C258.334 279.864 257.438 280.264 256.766 281.064C256.11 281.848 255.782 282.952 255.782 284.376C255.782 285.8 256.11 286.912 256.766 287.712C257.438 288.512 258.334 288.912 259.454 288.912C261.038 288.912 262.086 288.216 262.598 286.824H265.55C265.166 288.168 264.446 289.24 263.39 290.04C262.334 290.824 261.022 291.216 259.454 291.216C258.19 291.216 257.07 290.936 256.094 290.376C255.118 289.8 254.35 289 253.79 287.976C253.246 286.936 252.974 285.736 252.974 284.376ZM280.397 284.064C280.397 284.56 280.365 285.008 280.301 285.408H270.197C270.277 286.464 270.669 287.312 271.373 287.952C272.077 288.592 272.941 288.912 273.965 288.912C275.437 288.912 276.477 288.296 277.085 287.064H280.037C279.637 288.28 278.909 289.28 277.853 290.064C276.813 290.832 275.517 291.216 273.965 291.216C272.701 291.216 271.565 290.936 270.557 290.376C269.565 289.8 268.781 289 268.205 287.976C267.645 286.936 267.365 285.736 267.365 284.376C267.365 283.016 267.637 281.824 268.181 280.8C268.741 279.76 269.517 278.96 270.509 278.4C271.517 277.84 272.669 277.56 273.965 277.56C275.213 277.56 276.325 277.832 277.301 278.376C278.277 278.92 279.037 279.688 279.581 280.68C280.125 281.656 280.397 282.784 280.397 284.064ZM277.541 283.2C277.525 282.192 277.165 281.384 276.461 280.776C275.757 280.168 274.885 279.864 273.845 279.864C272.901 279.864 272.093 280.168 271.421 280.776C270.749 281.368 270.349 282.176 270.221 283.2H277.541ZM285.825 279.744C286.289 279.104 286.921 278.584 287.721 278.184C288.537 277.768 289.441 277.56 290.433 277.56C291.601 277.56 292.657 277.84 293.601 278.4C294.545 278.96 295.289 279.76 295.833 280.8C296.377 281.824 296.649 283 296.649 284.328C296.649 285.656 296.377 286.848 295.833 287.904C295.289 288.944 294.537 289.76 293.577 290.352C292.633 290.928 291.585 291.216 290.433 291.216C289.409 291.216 288.497 291.016 287.697 290.616C286.913 290.216 286.289 289.704 285.825 289.08V291H283.089V273.24H285.825V279.744ZM293.865 284.328C293.865 283.416 293.673 282.632 293.289 281.976C292.921 281.304 292.425 280.8 291.801 280.464C291.193 280.112 290.537 279.936 289.833 279.936C289.145 279.936 288.489 280.112 287.865 280.464C287.257 280.816 286.761 281.328 286.377 282C286.009 282.672 285.825 283.464 285.825 284.376C285.825 285.288 286.009 286.088 286.377 286.776C286.761 287.448 287.257 287.96 287.865 288.312C288.489 288.664 289.145 288.84 289.833 288.84C290.537 288.84 291.193 288.664 291.801 288.312C292.425 287.944 292.921 287.416 293.289 286.728C293.673 286.04 293.865 285.24 293.865 284.328ZM311.475 284.064C311.475 284.56 311.443 285.008 311.379 285.408H301.275C301.355 286.464 301.747 287.312 302.451 287.952C303.155 288.592 304.019 288.912 305.043 288.912C306.515 288.912 307.555 288.296 308.163 287.064H311.115C310.715 288.28 309.987 289.28 308.931 290.064C307.891 290.832 306.595 291.216 305.043 291.216C303.779 291.216 302.643 290.936 301.635 290.376C300.643 289.8 299.859 289 299.283 287.976C298.723 286.936 298.443 285.736 298.443 284.376C298.443 283.016 298.715 281.824 299.259 280.8C299.819 279.76 300.595 278.96 301.587 278.4C302.595 277.84 303.747 277.56 305.043 277.56C306.291 277.56 307.403 277.832 308.379 278.376C309.355 278.92 310.115 279.688 310.659 280.68C311.203 281.656 311.475 282.784 311.475 284.064ZM308.619 283.2C308.603 282.192 308.243 281.384 307.539 280.776C306.835 280.168 305.963 279.864 304.923 279.864C303.979 279.864 303.171 280.168 302.499 280.776C301.827 281.368 301.427 282.176 301.299 283.2H308.619ZM316.903 279.696C317.303 279.024 317.831 278.504 318.487 278.136C319.159 277.752 319.951 277.56 320.863 277.56V280.392H320.167C319.095 280.392 318.279 280.664 317.719 281.208C317.175 281.752 316.903 282.696 316.903 284.04V291H314.167V277.776H316.903V279.696ZM117.74 320.328C117.74 319 118.012 317.824 118.556 316.8C119.116 315.776 119.868 314.984 120.812 314.424C121.772 313.848 122.828 313.56 123.98 313.56C125.02 313.56 125.924 313.768 126.692 314.184C127.476 314.584 128.1 315.088 128.564 315.696V313.776H131.324V327H128.564V325.032C128.1 325.656 127.468 326.176 126.668 326.592C125.868 327.008 124.956 327.216 123.932 327.216C122.796 327.216 121.756 326.928 120.812 326.352C119.868 325.76 119.116 324.944 118.556 323.904C118.012 322.848 117.74 321.656 117.74 320.328ZM128.564 320.376C128.564 319.464 128.372 318.672 127.988 318C127.62 317.328 127.132 316.816 126.524 316.464C125.916 316.112 125.26 315.936 124.556 315.936C123.852 315.936 123.196 316.112 122.588 316.464C121.98 316.8 121.484 317.304 121.1 317.976C120.732 318.632 120.548 319.416 120.548 320.328C120.548 321.24 120.732 322.04 121.1 322.728C121.484 323.416 121.98 323.944 122.588 324.312C123.212 324.664 123.868 324.84 124.556 324.84C125.26 324.84 125.916 324.664 126.524 324.312C127.132 323.96 127.62 323.448 127.988 322.776C128.372 322.088 128.564 321.288 128.564 320.376ZM138.109 316.008V323.328C138.109 323.824 138.221 324.184 138.445 324.408C138.685 324.616 139.085 324.72 139.645 324.72H141.325V327H139.165C137.933 327 136.989 326.712 136.333 326.136C135.677 325.56 135.349 324.624 135.349 323.328V316.008H133.789V313.776H135.349V310.488H138.109V313.776H141.325V316.008H138.109ZM155.967 320.064C155.967 320.56 155.935 321.008 155.871 321.408H145.767C145.847 322.464 146.239 323.312 146.943 323.952C147.647 324.592 148.511 324.912 149.535 324.912C151.007 324.912 152.047 324.296 152.655 323.064H155.607C155.207 324.28 154.479 325.28 153.423 326.064C152.383 326.832 151.087 327.216 149.535 327.216C148.271 327.216 147.135 326.936 146.127 326.376C145.135 325.8 144.351 325 143.775 323.976C143.215 322.936 142.935 321.736 142.935 320.376C142.935 319.016 143.207 317.824 143.751 316.8C144.311 315.76 145.087 314.96 146.079 314.4C147.087 313.84 148.239 313.56 149.535 313.56C150.783 313.56 151.895 313.832 152.871 314.376C153.847 314.92 154.607 315.688 155.151 316.68C155.695 317.656 155.967 318.784 155.967 320.064ZM153.111 319.2C153.095 318.192 152.735 317.384 152.031 316.776C151.327 316.168 150.455 315.864 149.415 315.864C148.471 315.864 147.663 316.168 146.991 316.776C146.319 317.368 145.919 318.176 145.791 319.2H153.111ZM165.331 313.56C166.371 313.56 167.299 313.776 168.115 314.208C168.947 314.64 169.595 315.28 170.059 316.128C170.523 316.976 170.755 318 170.755 319.2V327H168.043V319.608C168.043 318.424 167.747 317.52 167.155 316.896C166.563 316.256 165.755 315.936 164.731 315.936C163.707 315.936 162.891 316.256 162.283 316.896C161.691 317.52 161.395 318.424 161.395 319.608V327H158.659V313.776H161.395V315.288C161.843 314.744 162.411 314.32 163.099 314.016C163.803 313.712 164.547 313.56 165.331 313.56ZM179.813 324.912C181.397 324.912 182.445 324.216 182.957 322.824H185.909C185.557 324.04 184.925 325.04 184.013 325.824C183.117 326.592 181.989 327.04 180.629 327.168V328.152C181.557 328.152 182.309 328.368 182.885 328.8C183.461 329.248 183.749 329.872 183.749 330.672C183.749 331.472 183.461 332.104 182.885 332.568C182.309 333.048 181.581 333.288 180.701 333.288H177.533V331.56H180.149C180.597 331.56 180.933 331.496 181.157 331.368C181.381 331.24 181.493 331.008 181.493 330.672C181.493 330.336 181.381 330.104 181.157 329.976C180.933 329.848 180.597 329.784 180.149 329.784H178.829V327.144C177.741 327.016 176.781 326.656 175.949 326.064C175.117 325.456 174.469 324.672 174.005 323.712C173.557 322.736 173.333 321.624 173.333 320.376C173.333 319.016 173.605 317.824 174.149 316.8C174.709 315.76 175.477 314.96 176.453 314.4C177.429 313.84 178.549 313.56 179.813 313.56C181.413 313.56 182.733 313.944 183.773 314.712C184.829 315.464 185.541 316.544 185.909 317.952H182.957C182.717 317.296 182.333 316.784 181.805 316.416C181.277 316.048 180.613 315.864 179.813 315.864C178.693 315.864 177.797 316.264 177.125 317.064C176.469 317.848 176.141 318.952 176.141 320.376C176.141 321.8 176.469 322.912 177.125 323.712C177.797 324.512 178.693 324.912 179.813 324.912ZM187.724 320.328C187.724 319 187.996 317.824 188.54 316.8C189.1 315.776 189.852 314.984 190.796 314.424C191.756 313.848 192.812 313.56 193.964 313.56C195.004 313.56 195.908 313.768 196.676 314.184C197.46 314.584 198.084 315.088 198.548 315.696V313.776H201.308V327H198.548V325.032C198.084 325.656 197.452 326.176 196.652 326.592C195.852 327.008 194.94 327.216 193.916 327.216C192.78 327.216 191.74 326.928 190.796 326.352C189.852 325.76 189.1 324.944 188.54 323.904C187.996 322.848 187.724 321.656 187.724 320.328ZM198.548 320.376C198.548 319.464 198.356 318.672 197.972 318C197.604 317.328 197.116 316.816 196.508 316.464C195.9 316.112 195.244 315.936 194.54 315.936C193.836 315.936 193.18 316.112 192.572 316.464C191.964 316.8 191.468 317.304 191.084 317.976C190.716 318.632 190.532 319.416 190.532 320.328C190.532 321.24 190.716 322.04 191.084 322.728C191.468 323.416 191.964 323.944 192.572 324.312C193.196 324.664 193.852 324.84 194.54 324.84C195.244 324.84 195.9 324.664 196.508 324.312C197.116 323.96 197.604 323.448 197.972 322.776C198.356 322.088 198.548 321.288 198.548 320.376ZM191.06 312.408C191.188 311.48 191.492 310.784 191.972 310.32C192.452 309.84 193.052 309.6 193.772 309.6C194.076 309.6 194.34 309.648 194.564 309.744C194.788 309.84 195.06 309.984 195.38 310.176C195.62 310.336 195.82 310.456 195.98 310.536C196.156 310.616 196.348 310.656 196.556 310.656C196.828 310.656 197.052 310.576 197.228 310.416C197.42 310.24 197.54 309.984 197.588 309.648H199.124C198.996 310.576 198.692 311.28 198.212 311.76C197.732 312.224 197.132 312.456 196.412 312.456C196.108 312.456 195.836 312.408 195.596 312.312C195.356 312.2 195.092 312.048 194.804 311.856C194.516 311.68 194.292 311.56 194.132 311.496C193.988 311.416 193.82 311.376 193.628 311.376C193.356 311.376 193.124 311.464 192.932 311.64C192.756 311.816 192.644 312.072 192.596 312.408H191.06ZM210.638 327.216C209.39 327.216 208.262 326.936 207.254 326.376C206.246 325.8 205.454 325 204.878 323.976C204.302 322.936 204.014 321.736 204.014 320.376C204.014 319.032 204.31 317.84 204.902 316.8C205.494 315.76 206.302 314.96 207.326 314.4C208.35 313.84 209.494 313.56 210.758 313.56C212.022 313.56 213.166 313.84 214.19 314.4C215.214 314.96 216.022 315.76 216.614 316.8C217.206 317.84 217.502 319.032 217.502 320.376C217.502 321.72 217.198 322.912 216.59 323.952C215.982 324.992 215.15 325.8 214.094 326.376C213.054 326.936 211.902 327.216 210.638 327.216ZM210.638 324.84C211.342 324.84 211.998 324.672 212.606 324.336C213.23 324 213.734 323.496 214.118 322.824C214.502 322.152 214.694 321.336 214.694 320.376C214.694 319.416 214.51 318.608 214.142 317.952C213.774 317.28 213.286 316.776 212.678 316.44C212.07 316.104 211.414 315.936 210.71 315.936C210.006 315.936 209.35 316.104 208.742 316.44C208.15 316.776 207.678 317.28 207.326 317.952C206.974 318.608 206.798 319.416 206.798 320.376C206.798 321.8 207.158 322.904 207.878 323.688C208.614 324.456 209.534 324.84 210.638 324.84ZM238.561 320.064C238.561 320.56 238.529 321.008 238.465 321.408H228.361C228.441 322.464 228.833 323.312 229.537 323.952C230.241 324.592 231.105 324.912 232.129 324.912C233.601 324.912 234.641 324.296 235.249 323.064H238.201C237.801 324.28 237.073 325.28 236.017 326.064C234.977 326.832 233.681 327.216 232.129 327.216C230.865 327.216 229.729 326.936 228.721 326.376C227.729 325.8 226.945 325 226.369 323.976C225.809 322.936 225.529 321.736 225.529 320.376C225.529 319.016 225.801 317.824 226.345 316.8C226.905 315.76 227.681 314.96 228.673 314.4C229.681 313.84 230.833 313.56 232.129 313.56C233.377 313.56 234.489 313.832 235.465 314.376C236.441 314.92 237.201 315.688 237.745 316.68C238.289 317.656 238.561 318.784 238.561 320.064ZM235.705 319.2C235.689 318.192 235.329 317.384 234.625 316.776C233.921 316.168 233.049 315.864 232.009 315.864C231.065 315.864 230.257 316.168 229.585 316.776C228.913 317.368 228.513 318.176 228.385 319.2H235.705ZM246.576 320.376C246.576 319.016 246.848 317.824 247.392 316.8C247.952 315.76 248.72 314.96 249.696 314.4C250.672 313.84 251.792 313.56 253.056 313.56C254.656 313.56 255.976 313.944 257.016 314.712C258.072 315.464 258.784 316.544 259.152 317.952H256.2C255.96 317.296 255.576 316.784 255.048 316.416C254.52 316.048 253.856 315.864 253.056 315.864C251.936 315.864 251.04 316.264 250.368 317.064C249.712 317.848 249.384 318.952 249.384 320.376C249.384 321.8 249.712 322.912 250.368 323.712C251.04 324.512 251.936 324.912 253.056 324.912C254.64 324.912 255.688 324.216 256.2 322.824H259.152C258.768 324.168 258.048 325.24 256.992 326.04C255.936 326.824 254.624 327.216 253.056 327.216C251.792 327.216 250.672 326.936 249.696 326.376C248.72 325.8 247.952 325 247.392 323.976C246.848 322.936 246.576 321.736 246.576 320.376ZM260.966 320.328C260.966 319 261.238 317.824 261.782 316.8C262.342 315.776 263.094 314.984 264.038 314.424C264.998 313.848 266.054 313.56 267.206 313.56C268.246 313.56 269.15 313.768 269.918 314.184C270.702 314.584 271.326 315.088 271.79 315.696V313.776H274.55V327H271.79V325.032C271.326 325.656 270.694 326.176 269.894 326.592C269.094 327.008 268.182 327.216 267.158 327.216C266.022 327.216 264.982 326.928 264.038 326.352C263.094 325.76 262.342 324.944 261.782 323.904C261.238 322.848 260.966 321.656 260.966 320.328ZM271.79 320.376C271.79 319.464 271.598 318.672 271.214 318C270.846 317.328 270.358 316.816 269.75 316.464C269.142 316.112 268.486 315.936 267.782 315.936C267.078 315.936 266.422 316.112 265.814 316.464C265.206 316.8 264.71 317.304 264.326 317.976C263.958 318.632 263.774 319.416 263.774 320.328C263.774 321.24 263.958 322.04 264.326 322.728C264.71 323.416 265.206 323.944 265.814 324.312C266.438 324.664 267.094 324.84 267.782 324.84C268.486 324.84 269.142 324.664 269.75 324.312C270.358 323.96 270.846 323.448 271.214 322.776C271.598 322.088 271.79 321.288 271.79 320.376ZM280.88 315.696C281.28 315.024 281.808 314.504 282.464 314.136C283.136 313.752 283.928 313.56 284.84 313.56V316.392H284.144C283.072 316.392 282.256 316.664 281.696 317.208C281.152 317.752 280.88 318.696 280.88 320.04V327H278.144V313.776H280.88V315.696ZM288.747 312.024C288.251 312.024 287.835 311.856 287.499 311.52C287.163 311.184 286.995 310.768 286.995 310.272C286.995 309.776 287.163 309.36 287.499 309.024C287.835 308.688 288.251 308.52 288.747 308.52C289.227 308.52 289.635 308.688 289.971 309.024C290.307 309.36 290.475 309.776 290.475 310.272C290.475 310.768 290.307 311.184 289.971 311.52C289.635 311.856 289.227 312.024 288.747 312.024ZM290.091 313.776V327H287.355V313.776H290.091ZM300.355 313.56C301.395 313.56 302.323 313.776 303.139 314.208C303.971 314.64 304.619 315.28 305.083 316.128C305.547 316.976 305.779 318 305.779 319.2V327H303.067V319.608C303.067 318.424 302.771 317.52 302.179 316.896C301.587 316.256 300.779 315.936 299.755 315.936C298.731 315.936 297.915 316.256 297.307 316.896C296.715 317.52 296.419 318.424 296.419 319.608V327H293.683V313.776H296.419V315.288C296.867 314.744 297.435 314.32 298.123 314.016C298.827 313.712 299.571 313.56 300.355 313.56ZM316.109 313.56C317.117 313.56 318.013 313.776 318.797 314.208C319.597 314.64 320.221 315.28 320.669 316.128C321.133 316.976 321.365 318 321.365 319.2V327H318.653V319.608C318.653 318.424 318.357 317.52 317.765 316.896C317.173 316.256 316.365 315.936 315.341 315.936C314.317 315.936 313.501 316.256 312.893 316.896C312.301 317.52 312.005 318.424 312.005 319.608V327H309.269V309.24H312.005V315.312C312.469 314.752 313.053 314.32 313.757 314.016C314.477 313.712 315.261 313.56 316.109 313.56ZM330.591 327.216C329.343 327.216 328.215 326.936 327.207 326.376C326.199 325.8 325.407 325 324.831 323.976C324.255 322.936 323.967 321.736 323.967 320.376C323.967 319.032 324.263 317.84 324.855 316.8C325.447 315.76 326.255 314.96 327.279 314.4C328.303 313.84 329.447 313.56 330.711 313.56C331.975 313.56 333.119 313.84 334.143 314.4C335.167 314.96 335.975 315.76 336.567 316.8C337.159 317.84 337.455 319.032 337.455 320.376C337.455 321.72 337.151 322.912 336.543 323.952C335.935 324.992 335.103 325.8 334.047 326.376C333.007 326.936 331.855 327.216 330.591 327.216ZM330.591 324.84C331.295 324.84 331.951 324.672 332.559 324.336C333.183 324 333.687 323.496 334.071 322.824C334.455 322.152 334.647 321.336 334.647 320.376C334.647 319.416 334.463 318.608 334.095 317.952C333.727 317.28 333.239 316.776 332.631 316.44C332.023 316.104 331.367 315.936 330.663 315.936C329.959 315.936 329.303 316.104 328.695 316.44C328.103 316.776 327.631 317.28 327.279 317.952C326.927 318.608 326.751 319.416 326.751 320.376C326.751 321.8 327.111 322.904 327.831 323.688C328.567 324.456 329.487 324.84 330.591 324.84ZM341.263 327.168C340.767 327.168 340.351 327 340.015 326.664C339.679 326.328 339.511 325.912 339.511 325.416C339.511 324.92 339.679 324.504 340.015 324.168C340.351 323.832 340.767 323.664 341.263 323.664C341.743 323.664 342.151 323.832 342.487 324.168C342.823 324.504 342.991 324.92 342.991 325.416C342.991 325.912 342.823 326.328 342.487 326.664C342.151 327 341.743 327.168 341.263 327.168Z" fill="#FFEBEB"/>
</svg>
