<svg width="450" height="456" viewBox="0 0 450 456" fill="none" xmlns="http://www.w3.org/2000/svg">
<rect width="450" height="456" fill="#F8A98A"/>
<path d="M83.918 154.756C83.6007 154.233 83.162 153.832 82.602 153.552C82.0607 153.272 81.4167 153.132 80.67 153.132C79.2887 153.132 78.1967 153.58 77.394 154.476C76.61 155.372 76.218 156.576 76.218 158.088C76.218 159.787 76.638 161.084 77.478 161.98C78.3367 162.857 79.578 163.296 81.202 163.296C83.1247 163.296 84.4967 162.428 85.318 160.692H79.802V156.744H90.05V162.064C89.6207 163.109 88.986 164.089 88.146 165.004C87.3247 165.919 86.2793 166.675 85.01 167.272C83.7407 167.851 82.294 168.14 80.67 168.14C78.6913 168.14 76.9367 167.72 75.406 166.88C73.894 166.021 72.718 164.836 71.878 163.324C71.0567 161.793 70.646 160.048 70.646 158.088C70.646 156.147 71.0567 154.42 71.878 152.908C72.718 151.377 73.894 150.192 75.406 149.352C76.918 148.493 78.6633 148.064 80.642 148.064C83.1247 148.064 85.178 148.661 86.802 149.856C88.426 151.051 89.434 152.684 89.826 154.756H83.918ZM91.6134 160.132C91.6134 158.508 91.9027 157.089 92.4814 155.876C93.0787 154.663 93.8814 153.729 94.8894 153.076C95.9161 152.423 97.0547 152.096 98.3054 152.096C99.3881 152.096 100.321 152.311 101.105 152.74C101.889 153.169 102.496 153.748 102.925 154.476V152.292H108.413V168H102.925V165.816C102.496 166.544 101.88 167.123 101.077 167.552C100.293 167.981 99.3694 168.196 98.3054 168.196C97.0547 168.196 95.9161 167.869 94.8894 167.216C93.8814 166.563 93.0787 165.629 92.4814 164.416C91.9027 163.184 91.6134 161.756 91.6134 160.132ZM102.925 160.132C102.925 159.124 102.645 158.331 102.085 157.752C101.544 157.173 100.872 156.884 100.069 156.884C99.2481 156.884 98.5667 157.173 98.0254 157.752C97.4841 158.312 97.2134 159.105 97.2134 160.132C97.2134 161.14 97.4841 161.943 98.0254 162.54C98.5667 163.119 99.2481 163.408 100.069 163.408C100.872 163.408 101.544 163.119 102.085 162.54C102.645 161.961 102.925 161.159 102.925 160.132ZM120.809 163.324V168H118.429C114.415 168 112.409 166.012 112.409 162.036V156.856H110.477V152.292H112.409V148.484H117.925V152.292H120.781V156.856H117.925V162.12C117.925 162.549 118.018 162.857 118.205 163.044C118.41 163.231 118.746 163.324 119.213 163.324H120.809ZM130.634 168.196C129.066 168.196 127.656 167.869 126.406 167.216C125.174 166.563 124.203 165.629 123.494 164.416C122.784 163.203 122.43 161.775 122.43 160.132C122.43 158.508 122.784 157.089 123.494 155.876C124.222 154.663 125.202 153.729 126.434 153.076C127.684 152.423 129.094 152.096 130.662 152.096C132.23 152.096 133.63 152.423 134.862 153.076C136.112 153.729 137.092 154.663 137.802 155.876C138.53 157.089 138.894 158.508 138.894 160.132C138.894 161.756 138.53 163.184 137.802 164.416C137.092 165.629 136.112 166.563 134.862 167.216C133.611 167.869 132.202 168.196 130.634 168.196ZM130.634 163.436C131.399 163.436 132.034 163.156 132.538 162.596C133.06 162.017 133.322 161.196 133.322 160.132C133.322 159.068 133.06 158.256 132.538 157.696C132.034 157.136 131.408 156.856 130.662 156.856C129.915 156.856 129.29 157.136 128.786 157.696C128.282 158.256 128.03 159.068 128.03 160.132C128.03 161.215 128.272 162.036 128.758 162.596C129.243 163.156 129.868 163.436 130.634 163.436ZM147.819 168.196C146.4 168.196 145.131 167.963 144.011 167.496C142.909 167.011 142.032 166.357 141.379 165.536C140.744 164.696 140.389 163.753 140.315 162.708H145.635C145.709 163.212 145.943 163.604 146.335 163.884C146.727 164.164 147.212 164.304 147.791 164.304C148.239 164.304 148.593 164.211 148.855 164.024C149.116 163.837 149.247 163.595 149.247 163.296C149.247 162.904 149.032 162.615 148.603 162.428C148.173 162.241 147.464 162.036 146.475 161.812C145.355 161.588 144.421 161.336 143.675 161.056C142.928 160.776 142.275 160.319 141.715 159.684C141.173 159.049 140.903 158.191 140.903 157.108C140.903 156.175 141.155 155.335 141.659 154.588C142.163 153.823 142.9 153.216 143.871 152.768C144.86 152.32 146.045 152.096 147.427 152.096C149.48 152.096 151.095 152.6 152.271 153.608C153.447 154.616 154.128 155.941 154.315 157.584H149.359C149.265 157.08 149.041 156.697 148.687 156.436C148.351 156.156 147.893 156.016 147.315 156.016C146.867 156.016 146.521 156.1 146.279 156.268C146.055 156.436 145.943 156.669 145.943 156.968C145.943 157.341 146.157 157.631 146.587 157.836C147.016 158.023 147.707 158.219 148.659 158.424C149.797 158.667 150.74 158.937 151.487 159.236C152.252 159.535 152.915 160.02 153.475 160.692C154.053 161.345 154.343 162.241 154.343 163.38C154.343 164.295 154.072 165.116 153.531 165.844C153.008 166.572 152.252 167.151 151.263 167.58C150.292 167.991 149.144 168.196 147.819 168.196ZM170.884 156.856H168.42V168H162.904V156.856H161.196V152.292H162.904V152.152C162.904 150.136 163.492 148.596 164.668 147.532C165.863 146.449 167.571 145.908 169.792 145.908C170.24 145.908 170.585 145.917 170.828 145.936V150.612C170.679 150.593 170.473 150.584 170.212 150.584C169.615 150.584 169.176 150.724 168.896 151.004C168.616 151.265 168.457 151.695 168.42 152.292H170.884V156.856ZM175.617 150.836C174.647 150.836 173.863 150.575 173.265 150.052C172.687 149.511 172.397 148.839 172.397 148.036C172.397 147.215 172.687 146.533 173.265 145.992C173.863 145.451 174.647 145.18 175.617 145.18C176.569 145.18 177.335 145.451 177.913 145.992C178.511 146.533 178.809 147.215 178.809 148.036C178.809 148.839 178.511 149.511 177.913 150.052C177.335 150.575 176.569 150.836 175.617 150.836ZM178.333 152.292V168H172.845V152.292H178.333ZM180.563 160.132C180.563 158.508 180.899 157.089 181.571 155.876C182.243 154.663 183.176 153.729 184.371 153.076C185.584 152.423 186.965 152.096 188.515 152.096C190.512 152.096 192.192 152.647 193.555 153.748C194.917 154.831 195.795 156.352 196.187 158.312H190.363C190.027 157.285 189.373 156.772 188.403 156.772C187.712 156.772 187.161 157.061 186.751 157.64C186.359 158.2 186.163 159.031 186.163 160.132C186.163 161.233 186.359 162.073 186.751 162.652C187.161 163.231 187.712 163.52 188.403 163.52C189.392 163.52 190.045 163.007 190.363 161.98H196.187C195.795 163.921 194.917 165.443 193.555 166.544C192.192 167.645 190.512 168.196 188.515 168.196C186.965 168.196 185.584 167.869 184.371 167.216C183.176 166.563 182.243 165.629 181.571 164.416C180.899 163.203 180.563 161.775 180.563 160.132ZM197.57 160.132C197.57 158.508 197.86 157.089 198.438 155.876C199.036 154.663 199.838 153.729 200.846 153.076C201.873 152.423 203.012 152.096 204.262 152.096C205.345 152.096 206.278 152.311 207.062 152.74C207.846 153.169 208.453 153.748 208.882 154.476V152.292H214.37V168H208.882V165.816C208.453 166.544 207.837 167.123 207.034 167.552C206.25 167.981 205.326 168.196 204.262 168.196C203.012 168.196 201.873 167.869 200.846 167.216C199.838 166.563 199.036 165.629 198.438 164.416C197.86 163.184 197.57 161.756 197.57 160.132ZM208.882 160.132C208.882 159.124 208.602 158.331 208.042 157.752C207.501 157.173 206.829 156.884 206.026 156.884C205.205 156.884 204.524 157.173 203.982 157.752C203.441 158.312 203.17 159.105 203.17 160.132C203.17 161.14 203.441 161.943 203.982 162.54C204.524 163.119 205.205 163.408 206.026 163.408C206.829 163.408 207.501 163.119 208.042 162.54C208.602 161.961 208.882 161.159 208.882 160.132ZM238.022 152.152C240 152.152 241.55 152.749 242.67 153.944C243.808 155.139 244.378 156.772 244.378 158.844V168H238.89V159.572C238.89 158.732 238.656 158.079 238.19 157.612C237.723 157.145 237.088 156.912 236.286 156.912C235.483 156.912 234.848 157.145 234.382 157.612C233.915 158.079 233.682 158.732 233.682 159.572V168H228.194V159.572C228.194 158.732 227.96 158.079 227.494 157.612C227.046 157.145 226.42 156.912 225.618 156.912C224.796 156.912 224.152 157.145 223.686 157.612C223.219 158.079 222.986 158.732 222.986 159.572V168H217.498V152.292H222.986V154.364C223.471 153.692 224.096 153.16 224.862 152.768C225.646 152.357 226.542 152.152 227.55 152.152C228.707 152.152 229.734 152.404 230.63 152.908C231.544 153.412 232.263 154.121 232.786 155.036C233.346 154.177 234.083 153.487 234.998 152.964C235.912 152.423 236.92 152.152 238.022 152.152ZM251.848 160.132C251.848 158.508 252.137 157.089 252.716 155.876C253.313 154.663 254.125 153.729 255.152 153.076C256.178 152.423 257.317 152.096 258.568 152.096C259.576 152.096 260.472 152.311 261.256 152.74C262.058 153.151 262.684 153.72 263.132 154.448V147.28H268.648V168H263.132V165.816C262.702 166.544 262.096 167.123 261.312 167.552C260.528 167.981 259.604 168.196 258.54 168.196C257.289 168.196 256.15 167.869 255.124 167.216C254.116 166.563 253.313 165.629 252.716 164.416C252.137 163.184 251.848 161.756 251.848 160.132ZM263.16 160.132C263.16 159.124 262.88 158.331 262.32 157.752C261.778 157.173 261.106 156.884 260.304 156.884C259.482 156.884 258.801 157.173 258.26 157.752C257.718 158.312 257.448 159.105 257.448 160.132C257.448 161.14 257.718 161.943 258.26 162.54C258.801 163.119 259.482 163.408 260.304 163.408C261.106 163.408 261.778 163.119 262.32 162.54C262.88 161.961 263.16 161.159 263.16 160.132ZM279.083 168.196C277.515 168.196 276.106 167.869 274.855 167.216C273.623 166.563 272.652 165.629 271.943 164.416C271.234 163.203 270.879 161.775 270.879 160.132C270.879 158.508 271.234 157.089 271.943 155.876C272.671 154.663 273.651 153.729 274.883 153.076C276.134 152.423 277.543 152.096 279.111 152.096C280.679 152.096 282.079 152.423 283.311 153.076C284.562 153.729 285.542 154.663 286.251 155.876C286.979 157.089 287.343 158.508 287.343 160.132C287.343 161.756 286.979 163.184 286.251 164.416C285.542 165.629 284.562 166.563 283.311 167.216C282.06 167.869 280.651 168.196 279.083 168.196ZM279.083 163.436C279.848 163.436 280.483 163.156 280.987 162.596C281.51 162.017 281.771 161.196 281.771 160.132C281.771 159.068 281.51 158.256 280.987 157.696C280.483 157.136 279.858 156.856 279.111 156.856C278.364 156.856 277.739 157.136 277.235 157.696C276.731 158.256 276.479 159.068 276.479 160.132C276.479 161.215 276.722 162.036 277.207 162.596C277.692 163.156 278.318 163.436 279.083 163.436ZM304.584 159.964C304.584 160.393 304.556 160.823 304.5 161.252H294.112C294.168 162.111 294.401 162.755 294.812 163.184C295.241 163.595 295.782 163.8 296.436 163.8C297.35 163.8 298.004 163.389 298.396 162.568H304.248C304.005 163.651 303.529 164.621 302.82 165.48C302.129 166.32 301.252 166.983 300.188 167.468C299.124 167.953 297.948 168.196 296.66 168.196C295.11 168.196 293.729 167.869 292.516 167.216C291.321 166.563 290.378 165.629 289.688 164.416C289.016 163.203 288.68 161.775 288.68 160.132C288.68 158.489 289.016 157.071 289.688 155.876C290.36 154.663 291.293 153.729 292.488 153.076C293.701 152.423 295.092 152.096 296.66 152.096C298.209 152.096 299.581 152.413 300.776 153.048C301.97 153.683 302.904 154.597 303.576 155.792C304.248 156.968 304.584 158.359 304.584 159.964ZM298.984 158.592C298.984 157.92 298.76 157.397 298.312 157.024C297.864 156.632 297.304 156.436 296.632 156.436C295.96 156.436 295.409 156.623 294.98 156.996C294.55 157.351 294.27 157.883 294.14 158.592H298.984ZM317.106 152.152C318.916 152.152 320.354 152.759 321.418 153.972C322.482 155.167 323.014 156.791 323.014 158.844V168H317.526V159.572C317.526 158.676 317.292 157.976 316.826 157.472C316.359 156.949 315.734 156.688 314.95 156.688C314.128 156.688 313.484 156.949 313.018 157.472C312.551 157.976 312.318 158.676 312.318 159.572V168H306.83V152.292H312.318V154.532C312.803 153.823 313.456 153.253 314.278 152.824C315.099 152.376 316.042 152.152 317.106 152.152ZM335.293 163.324V168H332.913C328.9 168 326.893 166.012 326.893 162.036V156.856H324.961V152.292H326.893V148.484H332.409V152.292H335.265V156.856H332.409V162.12C332.409 162.549 332.502 162.857 332.689 163.044C332.894 163.231 333.23 163.324 333.697 163.324H335.293ZM352.818 159.964C352.818 160.393 352.79 160.823 352.734 161.252H342.346C342.402 162.111 342.636 162.755 343.046 163.184C343.476 163.595 344.017 163.8 344.67 163.8C345.585 163.8 346.238 163.389 346.63 162.568H352.482C352.24 163.651 351.764 164.621 351.054 165.48C350.364 166.32 349.486 166.983 348.422 167.468C347.358 167.953 346.182 168.196 344.894 168.196C343.345 168.196 341.964 167.869 340.75 167.216C339.556 166.563 338.613 165.629 337.922 164.416C337.25 163.203 336.914 161.775 336.914 160.132C336.914 158.489 337.25 157.071 337.922 155.876C338.594 154.663 339.528 153.729 340.722 153.076C341.936 152.423 343.326 152.096 344.894 152.096C346.444 152.096 347.816 152.413 349.01 153.048C350.205 153.683 351.138 154.597 351.81 155.792C352.482 156.968 352.818 158.359 352.818 159.964ZM347.218 158.592C347.218 157.92 346.994 157.397 346.546 157.024C346.098 156.632 345.538 156.436 344.866 156.436C344.194 156.436 343.644 156.623 343.214 156.996C342.785 157.351 342.505 157.883 342.374 158.592H347.218ZM361.756 168.196C360.337 168.196 359.068 167.963 357.948 167.496C356.847 167.011 355.969 166.357 355.316 165.536C354.681 164.696 354.327 163.753 354.252 162.708H359.572C359.647 163.212 359.88 163.604 360.272 163.884C360.664 164.164 361.149 164.304 361.728 164.304C362.176 164.304 362.531 164.211 362.792 164.024C363.053 163.837 363.184 163.595 363.184 163.296C363.184 162.904 362.969 162.615 362.54 162.428C362.111 162.241 361.401 162.036 360.412 161.812C359.292 161.588 358.359 161.336 357.612 161.056C356.865 160.776 356.212 160.319 355.652 159.684C355.111 159.049 354.84 158.191 354.84 157.108C354.84 156.175 355.092 155.335 355.596 154.588C356.1 153.823 356.837 153.216 357.808 152.768C358.797 152.32 359.983 152.096 361.364 152.096C363.417 152.096 365.032 152.6 366.208 153.608C367.384 154.616 368.065 155.941 368.252 157.584H363.296C363.203 157.08 362.979 156.697 362.624 156.436C362.288 156.156 361.831 156.016 361.252 156.016C360.804 156.016 360.459 156.1 360.216 156.268C359.992 156.436 359.88 156.669 359.88 156.968C359.88 157.341 360.095 157.631 360.524 157.836C360.953 158.023 361.644 158.219 362.596 158.424C363.735 158.667 364.677 158.937 365.424 159.236C366.189 159.535 366.852 160.02 367.412 160.692C367.991 161.345 368.28 162.241 368.28 163.38C368.28 164.295 368.009 165.116 367.468 165.844C366.945 166.572 366.189 167.151 365.2 167.58C364.229 167.991 363.081 168.196 361.756 168.196ZM378.314 147.252L377.67 160.608H372.994L372.35 147.252H378.314ZM375.346 168.224C374.375 168.224 373.591 167.963 372.994 167.44C372.415 166.899 372.126 166.217 372.126 165.396C372.126 164.575 372.415 163.893 372.994 163.352C373.591 162.811 374.375 162.54 375.346 162.54C376.298 162.54 377.063 162.811 377.642 163.352C378.239 163.893 378.538 164.575 378.538 165.396C378.538 166.199 378.239 166.871 377.642 167.412C377.063 167.953 376.298 168.224 375.346 168.224ZM95.7708 195.624C95.7708 193.992 96.1468 192.528 96.8988 191.232C97.6668 189.936 98.6988 188.928 99.9948 188.208C101.307 187.472 102.739 187.104 104.291 187.104C106.067 187.104 107.643 187.544 109.019 188.424C110.411 189.288 111.419 190.52 112.043 192.12H108.755C108.323 191.24 107.723 190.584 106.955 190.152C106.187 189.72 105.299 189.504 104.291 189.504C103.187 189.504 102.203 189.752 101.339 190.248C100.475 190.744 99.7948 191.456 99.2988 192.384C98.8188 193.312 98.5788 194.392 98.5788 195.624C98.5788 196.856 98.8188 197.936 99.2988 198.864C99.7948 199.792 100.475 200.512 101.339 201.024C102.203 201.52 103.187 201.768 104.291 201.768C105.299 201.768 106.187 201.552 106.955 201.12C107.723 200.688 108.323 200.032 108.755 199.152H112.043C111.419 200.752 110.411 201.984 109.019 202.848C107.643 203.712 106.067 204.144 104.291 204.144C102.723 204.144 101.291 203.784 99.9948 203.064C98.6988 202.328 97.6668 201.312 96.8988 200.016C96.1468 198.72 95.7708 197.256 95.7708 195.624ZM120.981 204.216C119.733 204.216 118.605 203.936 117.597 203.376C116.589 202.8 115.797 202 115.221 200.976C114.645 199.936 114.357 198.736 114.357 197.376C114.357 196.032 114.653 194.84 115.245 193.8C115.837 192.76 116.645 191.96 117.669 191.4C118.693 190.84 119.837 190.56 121.101 190.56C122.365 190.56 123.509 190.84 124.533 191.4C125.557 191.96 126.365 192.76 126.957 193.8C127.549 194.84 127.845 196.032 127.845 197.376C127.845 198.72 127.541 199.912 126.933 200.952C126.325 201.992 125.493 202.8 124.437 203.376C123.397 203.936 122.245 204.216 120.981 204.216ZM120.981 201.84C121.685 201.84 122.341 201.672 122.949 201.336C123.573 201 124.077 200.496 124.461 199.824C124.845 199.152 125.037 198.336 125.037 197.376C125.037 196.416 124.853 195.608 124.485 194.952C124.117 194.28 123.629 193.776 123.021 193.44C122.413 193.104 121.757 192.936 121.053 192.936C120.349 192.936 119.693 193.104 119.085 193.44C118.493 193.776 118.021 194.28 117.669 194.952C117.317 195.608 117.141 196.416 117.141 197.376C117.141 198.8 117.501 199.904 118.221 200.688C118.957 201.456 119.877 201.84 120.981 201.84ZM146.558 190.56C147.598 190.56 148.526 190.776 149.342 191.208C150.174 191.64 150.822 192.28 151.286 193.128C151.766 193.976 152.006 195 152.006 196.2V204H149.294V196.608C149.294 195.424 148.998 194.52 148.406 193.896C147.814 193.256 147.006 192.936 145.982 192.936C144.958 192.936 144.142 193.256 143.534 193.896C142.942 194.52 142.646 195.424 142.646 196.608V204H139.934V196.608C139.934 195.424 139.638 194.52 139.046 193.896C138.454 193.256 137.646 192.936 136.622 192.936C135.598 192.936 134.782 193.256 134.174 193.896C133.582 194.52 133.286 195.424 133.286 196.608V204H130.55V190.776H133.286V192.288C133.734 191.744 134.302 191.32 134.99 191.016C135.678 190.712 136.414 190.56 137.198 190.56C138.254 190.56 139.198 190.784 140.03 191.232C140.862 191.68 141.502 192.328 141.95 193.176C142.35 192.376 142.974 191.744 143.822 191.28C144.67 190.8 145.582 190.56 146.558 190.56ZM161.224 204.216C159.976 204.216 158.848 203.936 157.84 203.376C156.832 202.8 156.04 202 155.464 200.976C154.888 199.936 154.6 198.736 154.6 197.376C154.6 196.032 154.896 194.84 155.488 193.8C156.08 192.76 156.888 191.96 157.912 191.4C158.936 190.84 160.08 190.56 161.344 190.56C162.608 190.56 163.752 190.84 164.776 191.4C165.8 191.96 166.608 192.76 167.2 193.8C167.792 194.84 168.088 196.032 168.088 197.376C168.088 198.72 167.784 199.912 167.176 200.952C166.568 201.992 165.736 202.8 164.68 203.376C163.64 203.936 162.488 204.216 161.224 204.216ZM161.224 201.84C161.928 201.84 162.584 201.672 163.192 201.336C163.816 201 164.32 200.496 164.704 199.824C165.088 199.152 165.28 198.336 165.28 197.376C165.28 196.416 165.096 195.608 164.728 194.952C164.36 194.28 163.872 193.776 163.264 193.44C162.656 193.104 162 192.936 161.296 192.936C160.592 192.936 159.936 193.104 159.328 193.44C158.736 193.776 158.264 194.28 157.912 194.952C157.56 195.608 157.384 196.416 157.384 197.376C157.384 198.8 157.744 199.904 158.464 200.688C159.2 201.456 160.12 201.84 161.224 201.84ZM176.115 197.328C176.115 196 176.387 194.824 176.931 193.8C177.491 192.776 178.243 191.984 179.187 191.424C180.147 190.848 181.211 190.56 182.379 190.56C183.403 190.56 184.307 190.768 185.091 191.184C185.891 191.6 186.507 192.104 186.939 192.696V190.776H189.699V210.288H186.939V202.08C186.507 202.672 185.883 203.176 185.067 203.592C184.251 204.008 183.323 204.216 182.283 204.216C181.147 204.216 180.107 203.928 179.163 203.352C178.235 202.76 177.491 201.944 176.931 200.904C176.387 199.848 176.115 198.656 176.115 197.328ZM186.939 197.376C186.939 196.464 186.747 195.672 186.363 195C185.995 194.328 185.507 193.816 184.899 193.464C184.291 193.112 183.635 192.936 182.931 192.936C182.227 192.936 181.571 193.112 180.963 193.464C180.355 193.8 179.859 194.304 179.475 194.976C179.107 195.632 178.923 196.416 178.923 197.328C178.923 198.24 179.107 199.04 179.475 199.728C179.859 200.416 180.355 200.944 180.963 201.312C181.587 201.664 182.243 201.84 182.931 201.84C183.635 201.84 184.291 201.664 184.899 201.312C185.507 200.96 185.995 200.448 186.363 199.776C186.747 199.088 186.939 198.288 186.939 197.376ZM205.268 190.776V204H202.532V202.44C202.1 202.984 201.532 203.416 200.828 203.736C200.14 204.04 199.404 204.192 198.62 204.192C197.58 204.192 196.644 203.976 195.812 203.544C194.996 203.112 194.348 202.472 193.868 201.624C193.404 200.776 193.172 199.752 193.172 198.552V190.776H195.884V198.144C195.884 199.328 196.18 200.24 196.772 200.88C197.364 201.504 198.172 201.816 199.196 201.816C200.22 201.816 201.028 201.504 201.62 200.88C202.228 200.24 202.532 199.328 202.532 198.144V190.776H205.268ZM207.966 197.328C207.966 196 208.238 194.824 208.782 193.8C209.342 192.776 210.094 191.984 211.038 191.424C211.998 190.848 213.054 190.56 214.206 190.56C215.246 190.56 216.15 190.768 216.918 191.184C217.702 191.584 218.326 192.088 218.79 192.696V190.776H221.55V204H218.79V202.032C218.326 202.656 217.694 203.176 216.894 203.592C216.094 204.008 215.182 204.216 214.158 204.216C213.022 204.216 211.982 203.928 211.038 203.352C210.094 202.76 209.342 201.944 208.782 200.904C208.238 199.848 207.966 198.656 207.966 197.328ZM218.79 197.376C218.79 196.464 218.598 195.672 218.214 195C217.846 194.328 217.358 193.816 216.75 193.464C216.142 193.112 215.486 192.936 214.782 192.936C214.078 192.936 213.422 193.112 212.814 193.464C212.206 193.8 211.71 194.304 211.326 194.976C210.958 195.632 210.774 196.416 210.774 197.328C210.774 198.24 210.958 199.04 211.326 199.728C211.71 200.416 212.206 200.944 212.814 201.312C213.438 201.664 214.094 201.84 214.782 201.84C215.486 201.84 216.142 201.664 216.75 201.312C217.358 200.96 217.846 200.448 218.214 199.776C218.598 199.088 218.79 198.288 218.79 197.376ZM227.88 186.24V204H225.144V186.24H227.88ZM230.56 197.328C230.56 196 230.832 194.824 231.376 193.8C231.936 192.776 232.688 191.984 233.632 191.424C234.592 190.848 235.656 190.56 236.824 190.56C237.848 190.56 238.752 190.768 239.536 191.184C240.336 191.6 240.952 192.104 241.384 192.696V190.776H244.144V210.288H241.384V202.08C240.952 202.672 240.328 203.176 239.512 203.592C238.696 204.008 237.768 204.216 236.728 204.216C235.592 204.216 234.552 203.928 233.608 203.352C232.68 202.76 231.936 201.944 231.376 200.904C230.832 199.848 230.56 198.656 230.56 197.328ZM241.384 197.376C241.384 196.464 241.192 195.672 240.808 195C240.44 194.328 239.952 193.816 239.344 193.464C238.736 193.112 238.08 192.936 237.376 192.936C236.672 192.936 236.016 193.112 235.408 193.464C234.8 193.8 234.304 194.304 233.92 194.976C233.552 195.632 233.368 196.416 233.368 197.328C233.368 198.24 233.552 199.04 233.92 199.728C234.304 200.416 234.8 200.944 235.408 201.312C236.032 201.664 236.688 201.84 237.376 201.84C238.08 201.84 238.736 201.664 239.344 201.312C239.952 200.96 240.44 200.448 240.808 199.776C241.192 199.088 241.384 198.288 241.384 197.376ZM259.714 190.776V204H256.978V202.44C256.546 202.984 255.978 203.416 255.274 203.736C254.586 204.04 253.85 204.192 253.066 204.192C252.026 204.192 251.09 203.976 250.258 203.544C249.442 203.112 248.794 202.472 248.314 201.624C247.85 200.776 247.618 199.752 247.618 198.552V190.776H250.33V198.144C250.33 199.328 250.626 200.24 251.218 200.88C251.81 201.504 252.618 201.816 253.642 201.816C254.666 201.816 255.474 201.504 256.066 200.88C256.674 200.24 256.978 199.328 256.978 198.144V190.776H259.714ZM275.443 197.064C275.443 197.56 275.411 198.008 275.347 198.408H265.243C265.323 199.464 265.715 200.312 266.419 200.952C267.123 201.592 267.987 201.912 269.011 201.912C270.483 201.912 271.523 201.296 272.131 200.064H275.083C274.683 201.28 273.955 202.28 272.899 203.064C271.859 203.832 270.563 204.216 269.011 204.216C267.747 204.216 266.611 203.936 265.603 203.376C264.611 202.8 263.827 202 263.251 200.976C262.691 199.936 262.411 198.736 262.411 197.376C262.411 196.016 262.683 194.824 263.227 193.8C263.787 192.76 264.563 191.96 265.555 191.4C266.563 190.84 267.715 190.56 269.011 190.56C270.259 190.56 271.371 190.832 272.347 191.376C273.323 191.92 274.083 192.688 274.627 193.68C275.171 194.656 275.443 195.784 275.443 197.064ZM272.587 196.2C272.571 195.192 272.211 194.384 271.507 193.776C270.803 193.168 269.931 192.864 268.891 192.864C267.947 192.864 267.139 193.168 266.467 193.776C265.795 194.368 265.395 195.176 265.267 196.2H272.587ZM280.872 192.696C281.272 192.024 281.8 191.504 282.456 191.136C283.128 190.752 283.92 190.56 284.832 190.56V193.392H284.136C283.064 193.392 282.248 193.664 281.688 194.208C281.144 194.752 280.872 195.696 280.872 197.04V204H278.136V190.776H280.872V192.696ZM299.317 204.216C298.069 204.216 296.941 203.936 295.933 203.376C294.925 202.8 294.133 202 293.557 200.976C292.981 199.936 292.693 198.736 292.693 197.376C292.693 196.032 292.989 194.84 293.581 193.8C294.173 192.76 294.981 191.96 296.005 191.4C297.029 190.84 298.173 190.56 299.437 190.56C300.701 190.56 301.845 190.84 302.869 191.4C303.893 191.96 304.701 192.76 305.293 193.8C305.885 194.84 306.181 196.032 306.181 197.376C306.181 198.72 305.877 199.912 305.269 200.952C304.661 201.992 303.829 202.8 302.773 203.376C301.733 203.936 300.581 204.216 299.317 204.216ZM299.317 201.84C300.021 201.84 300.677 201.672 301.285 201.336C301.909 201 302.413 200.496 302.797 199.824C303.181 199.152 303.373 198.336 303.373 197.376C303.373 196.416 303.189 195.608 302.821 194.952C302.453 194.28 301.965 193.776 301.357 193.44C300.749 193.104 300.093 192.936 299.389 192.936C298.685 192.936 298.029 193.104 297.421 193.44C296.829 193.776 296.357 194.28 296.005 194.952C295.653 195.608 295.477 196.416 295.477 197.376C295.477 198.8 295.837 199.904 296.557 200.688C297.293 201.456 298.213 201.84 299.317 201.84ZM320.862 190.776V204H318.126V202.44C317.694 202.984 317.126 203.416 316.422 203.736C315.734 204.04 314.998 204.192 314.214 204.192C313.174 204.192 312.238 203.976 311.406 203.544C310.59 203.112 309.942 202.472 309.462 201.624C308.998 200.776 308.766 199.752 308.766 198.552V190.776H311.478V198.144C311.478 199.328 311.774 200.24 312.366 200.88C312.958 201.504 313.766 201.816 314.79 201.816C315.814 201.816 316.622 201.504 317.214 200.88C317.822 200.24 318.126 199.328 318.126 198.144V190.776H320.862ZM327.664 193.008V200.328C327.664 200.824 327.776 201.184 328 201.408C328.24 201.616 328.64 201.72 329.2 201.72H330.88V204H328.72C327.488 204 326.544 203.712 325.888 203.136C325.232 202.56 324.904 201.624 324.904 200.328V193.008H323.344V190.776H324.904V187.488H327.664V190.776H330.88V193.008H327.664ZM336.138 192.696C336.538 192.024 337.066 191.504 337.722 191.136C338.394 190.752 339.186 190.56 340.098 190.56V193.392H339.402C338.33 193.392 337.514 193.664 336.954 194.208C336.41 194.752 336.138 195.696 336.138 197.04V204H333.402V190.776H336.138V192.696ZM348.349 204.216C347.101 204.216 345.973 203.936 344.965 203.376C343.957 202.8 343.165 202 342.589 200.976C342.013 199.936 341.725 198.736 341.725 197.376C341.725 196.032 342.021 194.84 342.613 193.8C343.205 192.76 344.013 191.96 345.037 191.4C346.061 190.84 347.205 190.56 348.469 190.56C349.733 190.56 350.877 190.84 351.901 191.4C352.925 191.96 353.733 192.76 354.325 193.8C354.917 194.84 355.213 196.032 355.213 197.376C355.213 198.72 354.909 199.912 354.301 200.952C353.693 201.992 352.861 202.8 351.805 203.376C350.765 203.936 349.613 204.216 348.349 204.216ZM348.349 201.84C349.053 201.84 349.709 201.672 350.317 201.336C350.941 201 351.445 200.496 351.829 199.824C352.213 199.152 352.405 198.336 352.405 197.376C352.405 196.416 352.221 195.608 351.853 194.952C351.485 194.28 350.997 193.776 350.389 193.44C349.781 193.104 349.125 192.936 348.421 192.936C347.717 192.936 347.061 193.104 346.453 193.44C345.861 193.776 345.389 194.28 345.037 194.952C344.685 195.608 344.509 196.416 344.509 197.376C344.509 198.8 344.869 199.904 345.589 200.688C346.325 201.456 347.245 201.84 348.349 201.84ZM72.2513 233.328C72.2513 232 72.5233 230.824 73.0673 229.8C73.6273 228.776 74.3793 227.984 75.3233 227.424C76.2833 226.848 77.3393 226.56 78.4913 226.56C79.5313 226.56 80.4353 226.768 81.2033 227.184C81.9873 227.584 82.6113 228.088 83.0753 228.696V226.776H85.8353V240H83.0753V238.032C82.6113 238.656 81.9793 239.176 81.1793 239.592C80.3793 240.008 79.4673 240.216 78.4433 240.216C77.3073 240.216 76.2673 239.928 75.3233 239.352C74.3793 238.76 73.6273 237.944 73.0673 236.904C72.5233 235.848 72.2513 234.656 72.2513 233.328ZM83.0753 233.376C83.0753 232.464 82.8833 231.672 82.4993 231C82.1313 230.328 81.6433 229.816 81.0353 229.464C80.4273 229.112 79.7713 228.936 79.0673 228.936C78.3633 228.936 77.7073 229.112 77.0993 229.464C76.4913 229.8 75.9953 230.304 75.6113 230.976C75.2433 231.632 75.0593 232.416 75.0593 233.328C75.0593 234.24 75.2433 235.04 75.6113 235.728C75.9953 236.416 76.4913 236.944 77.0993 237.312C77.7233 237.664 78.3793 237.84 79.0673 237.84C79.7713 237.84 80.4273 237.664 81.0353 237.312C81.6433 236.96 82.1313 236.448 82.4993 235.776C82.8833 235.088 83.0753 234.288 83.0753 233.376ZM96.1009 226.56C97.1409 226.56 98.0689 226.776 98.8849 227.208C99.7169 227.64 100.365 228.28 100.829 229.128C101.293 229.976 101.525 231 101.525 232.2V240H98.8129V232.608C98.8129 231.424 98.5169 230.52 97.9249 229.896C97.3329 229.256 96.5249 228.936 95.5009 228.936C94.4769 228.936 93.6609 229.256 93.0529 229.896C92.4609 230.52 92.1649 231.424 92.1649 232.608V240H89.4289V226.776H92.1649V228.288C92.6129 227.744 93.1809 227.32 93.8689 227.016C94.5729 226.712 95.3169 226.56 96.1009 226.56ZM106.407 225.024C105.911 225.024 105.495 224.856 105.159 224.52C104.823 224.184 104.655 223.768 104.655 223.272C104.655 222.776 104.823 222.36 105.159 222.024C105.495 221.688 105.911 221.52 106.407 221.52C106.887 221.52 107.295 221.688 107.631 222.024C107.967 222.36 108.135 222.776 108.135 223.272C108.135 223.768 107.967 224.184 107.631 224.52C107.295 224.856 106.887 225.024 106.407 225.024ZM107.751 226.776V240H105.015V226.776H107.751ZM127.351 226.56C128.391 226.56 129.319 226.776 130.135 227.208C130.967 227.64 131.615 228.28 132.079 229.128C132.559 229.976 132.799 231 132.799 232.2V240H130.087V232.608C130.087 231.424 129.791 230.52 129.199 229.896C128.607 229.256 127.799 228.936 126.775 228.936C125.751 228.936 124.935 229.256 124.327 229.896C123.735 230.52 123.439 231.424 123.439 232.608V240H120.727V232.608C120.727 231.424 120.431 230.52 119.839 229.896C119.247 229.256 118.439 228.936 117.415 228.936C116.391 228.936 115.575 229.256 114.967 229.896C114.375 230.52 114.079 231.424 114.079 232.608V240H111.343V226.776H114.079V228.288C114.527 227.744 115.095 227.32 115.783 227.016C116.471 226.712 117.207 226.56 117.991 226.56C119.047 226.56 119.991 226.784 120.823 227.232C121.655 227.68 122.295 228.328 122.743 229.176C123.143 228.376 123.767 227.744 124.615 227.28C125.463 226.8 126.375 226.56 127.351 226.56ZM135.368 233.328C135.368 232 135.64 230.824 136.184 229.8C136.744 228.776 137.496 227.984 138.44 227.424C139.4 226.848 140.456 226.56 141.608 226.56C142.648 226.56 143.552 226.768 144.32 227.184C145.104 227.584 145.728 228.088 146.192 228.696V226.776H148.952V240H146.192V238.032C145.728 238.656 145.096 239.176 144.296 239.592C143.496 240.008 142.584 240.216 141.56 240.216C140.424 240.216 139.384 239.928 138.44 239.352C137.496 238.76 136.744 237.944 136.184 236.904C135.64 235.848 135.368 234.656 135.368 233.328ZM146.192 233.376C146.192 232.464 146 231.672 145.616 231C145.248 230.328 144.76 229.816 144.152 229.464C143.544 229.112 142.888 228.936 142.184 228.936C141.48 228.936 140.824 229.112 140.216 229.464C139.608 229.8 139.112 230.304 138.728 230.976C138.36 231.632 138.176 232.416 138.176 233.328C138.176 234.24 138.36 235.04 138.728 235.728C139.112 236.416 139.608 236.944 140.216 237.312C140.84 237.664 141.496 237.84 142.184 237.84C142.888 237.84 143.544 237.664 144.152 237.312C144.76 236.96 145.248 236.448 145.616 235.776C146 235.088 146.192 234.288 146.192 233.376ZM155.282 222.24V240H152.546V222.24H155.282ZM170.845 240.216C169.597 240.216 168.469 239.936 167.461 239.376C166.453 238.8 165.661 238 165.085 236.976C164.509 235.936 164.221 234.736 164.221 233.376C164.221 232.032 164.517 230.84 165.109 229.8C165.701 228.76 166.509 227.96 167.533 227.4C168.557 226.84 169.701 226.56 170.965 226.56C172.229 226.56 173.373 226.84 174.397 227.4C175.421 227.96 176.229 228.76 176.821 229.8C177.413 230.84 177.709 232.032 177.709 233.376C177.709 234.72 177.405 235.912 176.797 236.952C176.189 237.992 175.357 238.8 174.301 239.376C173.261 239.936 172.109 240.216 170.845 240.216ZM170.845 237.84C171.549 237.84 172.205 237.672 172.813 237.336C173.437 237 173.941 236.496 174.325 235.824C174.709 235.152 174.901 234.336 174.901 233.376C174.901 232.416 174.717 231.608 174.349 230.952C173.981 230.28 173.493 229.776 172.885 229.44C172.277 229.104 171.621 228.936 170.917 228.936C170.213 228.936 169.557 229.104 168.949 229.44C168.357 229.776 167.885 230.28 167.533 230.952C167.181 231.608 167.005 232.416 167.005 233.376C167.005 234.8 167.365 235.904 168.085 236.688C168.821 237.456 169.741 237.84 170.845 237.84ZM185.213 240.216C184.173 240.216 183.237 240.032 182.405 239.664C181.589 239.28 180.941 238.768 180.461 238.128C179.981 237.472 179.725 236.744 179.693 235.944H182.525C182.573 236.504 182.837 236.976 183.317 237.36C183.813 237.728 184.429 237.912 185.165 237.912C185.933 237.912 186.525 237.768 186.941 237.48C187.373 237.176 187.589 236.792 187.589 236.328C187.589 235.832 187.349 235.464 186.869 235.224C186.405 234.984 185.661 234.72 184.637 234.432C183.645 234.16 182.837 233.896 182.213 233.64C181.589 233.384 181.045 232.992 180.581 232.464C180.133 231.936 179.909 231.24 179.909 230.376C179.909 229.672 180.117 229.032 180.533 228.456C180.949 227.864 181.541 227.4 182.309 227.064C183.093 226.728 183.989 226.56 184.997 226.56C186.501 226.56 187.709 226.944 188.621 227.712C189.549 228.464 190.045 229.496 190.109 230.808H187.373C187.325 230.216 187.085 229.744 186.653 229.392C186.221 229.04 185.637 228.864 184.901 228.864C184.181 228.864 183.629 229 183.245 229.272C182.861 229.544 182.669 229.904 182.669 230.352C182.669 230.704 182.797 231 183.053 231.24C183.309 231.48 183.621 231.672 183.989 231.816C184.357 231.944 184.901 232.112 185.621 232.32C186.581 232.576 187.365 232.84 187.973 233.112C188.597 233.368 189.133 233.752 189.581 234.264C190.029 234.776 190.261 235.456 190.277 236.304C190.277 237.056 190.069 237.728 189.653 238.32C189.237 238.912 188.645 239.376 187.877 239.712C187.125 240.048 186.237 240.216 185.213 240.216ZM204.796 226.56C205.82 226.56 206.724 226.768 207.508 227.184C208.308 227.584 208.932 228.088 209.38 228.696V226.776H212.14V240.216C212.14 241.432 211.884 242.512 211.372 243.456C210.86 244.416 210.116 245.168 209.14 245.712C208.18 246.256 207.028 246.528 205.684 246.528C203.892 246.528 202.404 246.104 201.22 245.256C200.036 244.424 199.364 243.288 199.204 241.848H201.916C202.124 242.536 202.564 243.088 203.236 243.504C203.924 243.936 204.74 244.152 205.684 244.152C206.788 244.152 207.676 243.816 208.348 243.144C209.036 242.472 209.38 241.496 209.38 240.216V238.008C208.916 238.632 208.284 239.16 207.484 239.592C206.7 240.008 205.804 240.216 204.796 240.216C203.644 240.216 202.588 239.928 201.628 239.352C200.684 238.76 199.932 237.944 199.372 236.904C198.828 235.848 198.556 234.656 198.556 233.328C198.556 232 198.828 230.824 199.372 229.8C199.932 228.776 200.684 227.984 201.628 227.424C202.588 226.848 203.644 226.56 204.796 226.56ZM209.38 233.376C209.38 232.464 209.188 231.672 208.804 231C208.436 230.328 207.948 229.816 207.34 229.464C206.732 229.112 206.076 228.936 205.372 228.936C204.668 228.936 204.012 229.112 203.404 229.464C202.796 229.8 202.3 230.304 201.916 230.976C201.548 231.632 201.364 232.416 201.364 233.328C201.364 234.24 201.548 235.04 201.916 235.728C202.3 236.416 202.796 236.944 203.404 237.312C204.028 237.664 204.684 237.84 205.372 237.84C206.076 237.84 206.732 237.664 207.34 237.312C207.948 236.96 208.436 236.448 208.804 235.776C209.188 235.088 209.38 234.288 209.38 233.376ZM214.822 233.328C214.822 232 215.094 230.824 215.638 229.8C216.198 228.776 216.95 227.984 217.894 227.424C218.854 226.848 219.91 226.56 221.062 226.56C222.102 226.56 223.006 226.768 223.774 227.184C224.558 227.584 225.182 228.088 225.646 228.696V226.776H228.406V240H225.646V238.032C225.182 238.656 224.55 239.176 223.75 239.592C222.95 240.008 222.038 240.216 221.014 240.216C219.878 240.216 218.838 239.928 217.894 239.352C216.95 238.76 216.198 237.944 215.638 236.904C215.094 235.848 214.822 234.656 214.822 233.328ZM225.646 233.376C225.646 232.464 225.454 231.672 225.07 231C224.702 230.328 224.214 229.816 223.606 229.464C222.998 229.112 222.342 228.936 221.638 228.936C220.934 228.936 220.278 229.112 219.67 229.464C219.062 229.8 218.566 230.304 218.182 230.976C217.814 231.632 217.63 232.416 217.63 233.328C217.63 234.24 217.814 235.04 218.182 235.728C218.566 236.416 219.062 236.944 219.67 237.312C220.294 237.664 220.95 237.84 221.638 237.84C222.342 237.84 222.998 237.664 223.606 237.312C224.214 236.96 224.702 236.448 225.07 235.776C225.454 235.088 225.646 234.288 225.646 233.376ZM235.191 229.008V236.328C235.191 236.824 235.303 237.184 235.527 237.408C235.767 237.616 236.167 237.72 236.727 237.72H238.407V240H236.247C235.015 240 234.071 239.712 233.415 239.136C232.759 238.56 232.431 237.624 232.431 236.328V229.008H230.871V226.776H232.431V223.488H235.191V226.776H238.407V229.008H235.191ZM246.665 240.216C245.417 240.216 244.289 239.936 243.281 239.376C242.273 238.8 241.481 238 240.905 236.976C240.329 235.936 240.041 234.736 240.041 233.376C240.041 232.032 240.337 230.84 240.929 229.8C241.521 228.76 242.329 227.96 243.353 227.4C244.377 226.84 245.521 226.56 246.785 226.56C248.049 226.56 249.193 226.84 250.217 227.4C251.241 227.96 252.049 228.76 252.641 229.8C253.233 230.84 253.529 232.032 253.529 233.376C253.529 234.72 253.225 235.912 252.617 236.952C252.009 237.992 251.177 238.8 250.121 239.376C249.081 239.936 247.929 240.216 246.665 240.216ZM246.665 237.84C247.369 237.84 248.025 237.672 248.633 237.336C249.257 237 249.761 236.496 250.145 235.824C250.529 235.152 250.721 234.336 250.721 233.376C250.721 232.416 250.537 231.608 250.169 230.952C249.801 230.28 249.313 229.776 248.705 229.44C248.097 229.104 247.441 228.936 246.737 228.936C246.033 228.936 245.377 229.104 244.769 229.44C244.177 229.776 243.705 230.28 243.353 230.952C243.001 231.608 242.825 232.416 242.825 233.376C242.825 234.8 243.185 235.904 243.905 236.688C244.641 237.456 245.561 237.84 246.665 237.84ZM261.034 240.216C259.994 240.216 259.058 240.032 258.226 239.664C257.41 239.28 256.762 238.768 256.282 238.128C255.802 237.472 255.546 236.744 255.514 235.944H258.346C258.394 236.504 258.658 236.976 259.138 237.36C259.634 237.728 260.25 237.912 260.986 237.912C261.754 237.912 262.346 237.768 262.762 237.48C263.194 237.176 263.41 236.792 263.41 236.328C263.41 235.832 263.17 235.464 262.69 235.224C262.226 234.984 261.482 234.72 260.458 234.432C259.466 234.16 258.658 233.896 258.034 233.64C257.41 233.384 256.866 232.992 256.402 232.464C255.954 231.936 255.73 231.24 255.73 230.376C255.73 229.672 255.938 229.032 256.354 228.456C256.77 227.864 257.362 227.4 258.13 227.064C258.914 226.728 259.81 226.56 260.818 226.56C262.322 226.56 263.53 226.944 264.442 227.712C265.37 228.464 265.866 229.496 265.93 230.808H263.194C263.146 230.216 262.906 229.744 262.474 229.392C262.042 229.04 261.458 228.864 260.722 228.864C260.002 228.864 259.45 229 259.066 229.272C258.682 229.544 258.49 229.904 258.49 230.352C258.49 230.704 258.618 231 258.874 231.24C259.13 231.48 259.442 231.672 259.81 231.816C260.178 231.944 260.722 232.112 261.442 232.32C262.402 232.576 263.186 232.84 263.794 233.112C264.418 233.368 264.954 233.752 265.402 234.264C265.85 234.776 266.082 235.456 266.098 236.304C266.098 237.056 265.89 237.728 265.474 238.32C265.058 238.912 264.466 239.376 263.698 239.712C262.946 240.048 262.058 240.216 261.034 240.216ZM278.48 229.008V236.328C278.48 236.824 278.592 237.184 278.816 237.408C279.056 237.616 279.456 237.72 280.016 237.72H281.696V240H279.536C278.304 240 277.36 239.712 276.704 239.136C276.048 238.56 275.72 237.624 275.72 236.328V229.008H274.16V226.776H275.72V223.488H278.48V226.776H281.696V229.008H278.48ZM283.306 233.328C283.306 232 283.578 230.824 284.122 229.8C284.682 228.776 285.434 227.984 286.378 227.424C287.338 226.848 288.394 226.56 289.546 226.56C290.586 226.56 291.49 226.768 292.258 227.184C293.042 227.584 293.666 228.088 294.13 228.696V226.776H296.89V240H294.13V238.032C293.666 238.656 293.034 239.176 292.234 239.592C291.434 240.008 290.522 240.216 289.498 240.216C288.362 240.216 287.322 239.928 286.378 239.352C285.434 238.76 284.682 237.944 284.122 236.904C283.578 235.848 283.306 234.656 283.306 233.328ZM294.13 233.376C294.13 232.464 293.938 231.672 293.554 231C293.186 230.328 292.698 229.816 292.09 229.464C291.482 229.112 290.826 228.936 290.122 228.936C289.418 228.936 288.762 229.112 288.154 229.464C287.546 229.8 287.05 230.304 286.666 230.976C286.298 231.632 286.114 232.416 286.114 233.328C286.114 234.24 286.298 235.04 286.666 235.728C287.05 236.416 287.546 236.944 288.154 237.312C288.778 237.664 289.434 237.84 290.122 237.84C290.826 237.84 291.482 237.664 292.09 237.312C292.698 236.96 293.186 236.448 293.554 235.776C293.938 235.088 294.13 234.288 294.13 233.376ZM316.492 226.56C317.532 226.56 318.46 226.776 319.276 227.208C320.108 227.64 320.756 228.28 321.22 229.128C321.7 229.976 321.94 231 321.94 232.2V240H319.228V232.608C319.228 231.424 318.932 230.52 318.34 229.896C317.748 229.256 316.94 228.936 315.916 228.936C314.892 228.936 314.076 229.256 313.468 229.896C312.876 230.52 312.58 231.424 312.58 232.608V240H309.868V232.608C309.868 231.424 309.572 230.52 308.98 229.896C308.388 229.256 307.58 228.936 306.556 228.936C305.532 228.936 304.716 229.256 304.108 229.896C303.516 230.52 303.22 231.424 303.22 232.608V240H300.484V226.776H303.22V228.288C303.668 227.744 304.236 227.32 304.924 227.016C305.612 226.712 306.348 226.56 307.132 226.56C308.188 226.56 309.132 226.784 309.964 227.232C310.796 227.68 311.436 228.328 311.884 229.176C312.284 228.376 312.908 227.744 313.756 227.28C314.604 226.8 315.516 226.56 316.492 226.56ZM328.157 228.744C328.621 228.104 329.253 227.584 330.053 227.184C330.869 226.768 331.773 226.56 332.765 226.56C333.933 226.56 334.989 226.84 335.933 227.4C336.877 227.96 337.621 228.76 338.165 229.8C338.709 230.824 338.981 232 338.981 233.328C338.981 234.656 338.709 235.848 338.165 236.904C337.621 237.944 336.869 238.76 335.909 239.352C334.965 239.928 333.917 240.216 332.765 240.216C331.741 240.216 330.829 240.016 330.029 239.616C329.245 239.216 328.621 238.704 328.157 238.08V240H325.421V222.24H328.157V228.744ZM336.197 233.328C336.197 232.416 336.005 231.632 335.621 230.976C335.253 230.304 334.757 229.8 334.133 229.464C333.525 229.112 332.869 228.936 332.165 228.936C331.477 228.936 330.821 229.112 330.197 229.464C329.589 229.816 329.093 230.328 328.709 231C328.341 231.672 328.157 232.464 328.157 233.376C328.157 234.288 328.341 235.088 328.709 235.776C329.093 236.448 329.589 236.96 330.197 237.312C330.821 237.664 331.477 237.84 332.165 237.84C332.869 237.84 333.525 237.664 334.133 237.312C334.757 236.944 335.253 236.416 335.621 235.728C336.005 235.04 336.197 234.24 336.197 233.328ZM353.807 233.064C353.807 233.56 353.775 234.008 353.711 234.408H343.607C343.687 235.464 344.079 236.312 344.783 236.952C345.487 237.592 346.351 237.912 347.375 237.912C348.847 237.912 349.887 237.296 350.495 236.064H353.447C353.047 237.28 352.319 238.28 351.263 239.064C350.223 239.832 348.927 240.216 347.375 240.216C346.111 240.216 344.975 239.936 343.967 239.376C342.975 238.8 342.191 238 341.615 236.976C341.055 235.936 340.775 234.736 340.775 233.376C340.775 232.016 341.047 230.824 341.591 229.8C342.151 228.76 342.927 227.96 343.919 227.4C344.927 226.84 346.079 226.56 347.375 226.56C348.623 226.56 349.735 226.832 350.711 227.376C351.687 227.92 352.447 228.688 352.991 229.68C353.535 230.656 353.807 231.784 353.807 233.064ZM350.951 232.2C350.935 231.192 350.575 230.384 349.871 229.776C349.167 229.168 348.295 228.864 347.255 228.864C346.311 228.864 345.503 229.168 344.831 229.776C344.159 230.368 343.759 231.176 343.631 232.2H350.951ZM349.775 223.224L344.471 225.84V223.824L349.775 220.896V223.224ZM372.507 226.56C373.547 226.56 374.475 226.776 375.291 227.208C376.123 227.64 376.771 228.28 377.235 229.128C377.715 229.976 377.955 231 377.955 232.2V240H375.243V232.608C375.243 231.424 374.947 230.52 374.355 229.896C373.763 229.256 372.955 228.936 371.931 228.936C370.907 228.936 370.091 229.256 369.483 229.896C368.891 230.52 368.595 231.424 368.595 232.608V240H365.883V232.608C365.883 231.424 365.587 230.52 364.995 229.896C364.403 229.256 363.595 228.936 362.571 228.936C361.547 228.936 360.731 229.256 360.123 229.896C359.531 230.52 359.235 231.424 359.235 232.608V240H356.499V226.776H359.235V228.288C359.683 227.744 360.251 227.32 360.939 227.016C361.627 226.712 362.363 226.56 363.147 226.56C364.203 226.56 365.147 226.784 365.979 227.232C366.811 227.68 367.451 228.328 367.899 229.176C368.299 228.376 368.923 227.744 369.771 227.28C370.619 226.8 371.531 226.56 372.507 226.56ZM89.5471 265.008H87.0991V276H84.3391V265.008H82.7791V262.776H84.3391V261.84C84.3391 260.32 84.7391 259.216 85.5391 258.528C86.3551 257.824 87.6271 257.472 89.3551 257.472V259.752C88.5231 259.752 87.9391 259.912 87.6031 260.232C87.2671 260.536 87.0991 261.072 87.0991 261.84V262.776H89.5471V265.008ZM93.3639 261.024C92.8679 261.024 92.4519 260.856 92.1159 260.52C91.7799 260.184 91.6119 259.768 91.6119 259.272C91.6119 258.776 91.7799 258.36 92.1159 258.024C92.4519 257.688 92.8679 257.52 93.3639 257.52C93.8439 257.52 94.2519 257.688 94.5879 258.024C94.9239 258.36 95.0919 258.776 95.0919 259.272C95.0919 259.768 94.9239 260.184 94.5879 260.52C94.2519 260.856 93.8439 261.024 93.3639 261.024ZM94.7079 262.776V276H91.9719V262.776H94.7079ZM97.388 269.376C97.388 268.016 97.66 266.824 98.204 265.8C98.764 264.76 99.532 263.96 100.508 263.4C101.484 262.84 102.604 262.56 103.868 262.56C105.468 262.56 106.788 262.944 107.828 263.712C108.884 264.464 109.596 265.544 109.964 266.952H107.012C106.772 266.296 106.388 265.784 105.86 265.416C105.332 265.048 104.668 264.864 103.868 264.864C102.748 264.864 101.852 265.264 101.18 266.064C100.524 266.848 100.196 267.952 100.196 269.376C100.196 270.8 100.524 271.912 101.18 272.712C101.852 273.512 102.748 273.912 103.868 273.912C105.452 273.912 106.5 273.216 107.012 271.824H109.964C109.58 273.168 108.86 274.24 107.804 275.04C106.748 275.824 105.436 276.216 103.868 276.216C102.604 276.216 101.484 275.936 100.508 275.376C99.532 274.8 98.764 274 98.204 272.976C97.66 271.936 97.388 270.736 97.388 269.376ZM111.779 269.328C111.779 268 112.051 266.824 112.595 265.8C113.155 264.776 113.907 263.984 114.851 263.424C115.811 262.848 116.867 262.56 118.019 262.56C119.059 262.56 119.963 262.768 120.731 263.184C121.515 263.584 122.139 264.088 122.603 264.696V262.776H125.363V276H122.603V274.032C122.139 274.656 121.507 275.176 120.707 275.592C119.907 276.008 118.995 276.216 117.971 276.216C116.835 276.216 115.795 275.928 114.851 275.352C113.907 274.76 113.155 273.944 112.595 272.904C112.051 271.848 111.779 270.656 111.779 269.328ZM122.603 269.376C122.603 268.464 122.411 267.672 122.027 267C121.659 266.328 121.171 265.816 120.563 265.464C119.955 265.112 119.299 264.936 118.595 264.936C117.891 264.936 117.235 265.112 116.627 265.464C116.019 265.8 115.523 266.304 115.139 266.976C114.771 267.632 114.587 268.416 114.587 269.328C114.587 270.24 114.771 271.04 115.139 271.728C115.523 272.416 116.019 272.944 116.627 273.312C117.251 273.664 117.907 273.84 118.595 273.84C119.299 273.84 119.955 273.664 120.563 273.312C121.171 272.96 121.659 272.448 122.027 271.776C122.411 271.088 122.603 270.288 122.603 269.376ZM144.964 262.56C146.004 262.56 146.932 262.776 147.748 263.208C148.58 263.64 149.228 264.28 149.692 265.128C150.172 265.976 150.412 267 150.412 268.2V276H147.7V268.608C147.7 267.424 147.404 266.52 146.812 265.896C146.22 265.256 145.412 264.936 144.388 264.936C143.364 264.936 142.548 265.256 141.94 265.896C141.348 266.52 141.052 267.424 141.052 268.608V276H138.34V268.608C138.34 267.424 138.044 266.52 137.452 265.896C136.86 265.256 136.052 264.936 135.028 264.936C134.004 264.936 133.188 265.256 132.58 265.896C131.988 266.52 131.692 267.424 131.692 268.608V276H128.956V262.776H131.692V264.288C132.14 263.744 132.708 263.32 133.396 263.016C134.084 262.712 134.82 262.56 135.604 262.56C136.66 262.56 137.604 262.784 138.436 263.232C139.268 263.68 139.908 264.328 140.356 265.176C140.756 264.376 141.38 263.744 142.228 263.28C143.076 262.8 143.988 262.56 144.964 262.56ZM159.216 269.328C159.216 268 159.488 266.824 160.032 265.8C160.592 264.776 161.344 263.984 162.288 263.424C163.248 262.848 164.312 262.56 165.48 262.56C166.344 262.56 167.192 262.752 168.024 263.136C168.872 263.504 169.544 264 170.04 264.624V258.24H172.8V276H170.04V274.008C169.592 274.648 168.968 275.176 168.168 275.592C167.384 276.008 166.48 276.216 165.456 276.216C164.304 276.216 163.248 275.928 162.288 275.352C161.344 274.76 160.592 273.944 160.032 272.904C159.488 271.848 159.216 270.656 159.216 269.328ZM170.04 269.376C170.04 268.464 169.848 267.672 169.464 267C169.096 266.328 168.608 265.816 168 265.464C167.392 265.112 166.736 264.936 166.032 264.936C165.328 264.936 164.672 265.112 164.064 265.464C163.456 265.8 162.96 266.304 162.576 266.976C162.208 267.632 162.024 268.416 162.024 269.328C162.024 270.24 162.208 271.04 162.576 271.728C162.96 272.416 163.456 272.944 164.064 273.312C164.688 273.664 165.344 273.84 166.032 273.84C166.736 273.84 167.392 273.664 168 273.312C168.608 272.96 169.096 272.448 169.464 271.776C169.848 271.088 170.04 270.288 170.04 269.376ZM182.13 276.216C180.882 276.216 179.754 275.936 178.746 275.376C177.738 274.8 176.946 274 176.37 272.976C175.794 271.936 175.506 270.736 175.506 269.376C175.506 268.032 175.802 266.84 176.394 265.8C176.986 264.76 177.794 263.96 178.818 263.4C179.842 262.84 180.986 262.56 182.25 262.56C183.514 262.56 184.658 262.84 185.682 263.4C186.706 263.96 187.514 264.76 188.106 265.8C188.698 266.84 188.994 268.032 188.994 269.376C188.994 270.72 188.69 271.912 188.082 272.952C187.474 273.992 186.642 274.8 185.586 275.376C184.546 275.936 183.394 276.216 182.13 276.216ZM182.13 273.84C182.834 273.84 183.49 273.672 184.098 273.336C184.722 273 185.226 272.496 185.61 271.824C185.994 271.152 186.186 270.336 186.186 269.376C186.186 268.416 186.002 267.608 185.634 266.952C185.266 266.28 184.778 265.776 184.17 265.44C183.562 265.104 182.906 264.936 182.202 264.936C181.498 264.936 180.842 265.104 180.234 265.44C179.642 265.776 179.17 266.28 178.818 266.952C178.466 267.608 178.29 268.416 178.29 269.376C178.29 270.8 178.65 271.904 179.37 272.688C180.106 273.456 181.026 273.84 182.13 273.84ZM203.818 269.064C203.818 269.56 203.786 270.008 203.722 270.408H193.618C193.698 271.464 194.09 272.312 194.794 272.952C195.498 273.592 196.362 273.912 197.386 273.912C198.858 273.912 199.898 273.296 200.506 272.064H203.458C203.058 273.28 202.33 274.28 201.274 275.064C200.234 275.832 198.938 276.216 197.386 276.216C196.122 276.216 194.986 275.936 193.978 275.376C192.986 274.8 192.202 274 191.626 272.976C191.066 271.936 190.786 270.736 190.786 269.376C190.786 268.016 191.058 266.824 191.602 265.8C192.162 264.76 192.938 263.96 193.93 263.4C194.938 262.84 196.09 262.56 197.386 262.56C198.634 262.56 199.746 262.832 200.722 263.376C201.698 263.92 202.458 264.688 203.002 265.68C203.546 266.656 203.818 267.784 203.818 269.064ZM200.962 268.2C200.946 267.192 200.586 266.384 199.882 265.776C199.178 265.168 198.306 264.864 197.266 264.864C196.322 264.864 195.514 265.168 194.842 265.776C194.17 266.368 193.77 267.176 193.642 268.2H200.962ZM213.183 262.56C214.223 262.56 215.151 262.776 215.967 263.208C216.799 263.64 217.447 264.28 217.911 265.128C218.375 265.976 218.607 267 218.607 268.2V276H215.895V268.608C215.895 267.424 215.599 266.52 215.007 265.896C214.415 265.256 213.607 264.936 212.583 264.936C211.559 264.936 210.743 265.256 210.135 265.896C209.543 266.52 209.247 267.424 209.247 268.608V276H206.511V262.776H209.247V264.288C209.695 263.744 210.263 263.32 210.951 263.016C211.655 262.712 212.399 262.56 213.183 262.56ZM225.289 265.008V272.328C225.289 272.824 225.401 273.184 225.625 273.408C225.865 273.616 226.265 273.72 226.825 273.72H228.505V276H226.345C225.113 276 224.169 275.712 223.513 275.136C222.857 274.56 222.529 273.624 222.529 272.328V265.008H220.969V262.776H222.529V259.488H225.289V262.776H228.505V265.008H225.289ZM243.147 269.064C243.147 269.56 243.115 270.008 243.051 270.408H232.947C233.027 271.464 233.419 272.312 234.123 272.952C234.827 273.592 235.691 273.912 236.715 273.912C238.187 273.912 239.227 273.296 239.835 272.064H242.787C242.387 273.28 241.659 274.28 240.603 275.064C239.563 275.832 238.267 276.216 236.715 276.216C235.451 276.216 234.315 275.936 233.307 275.376C232.315 274.8 231.531 274 230.955 272.976C230.395 271.936 230.115 270.736 230.115 269.376C230.115 268.016 230.387 266.824 230.931 265.8C231.491 264.76 232.267 263.96 233.259 263.4C234.267 262.84 235.419 262.56 236.715 262.56C237.963 262.56 239.075 262.832 240.051 263.376C241.027 263.92 241.787 264.688 242.331 265.68C242.875 266.656 243.147 267.784 243.147 269.064ZM240.291 268.2C240.275 267.192 239.915 266.384 239.211 265.776C238.507 265.168 237.635 264.864 236.595 264.864C235.651 264.864 234.843 265.168 234.171 265.776C233.499 266.368 233.099 267.176 232.971 268.2H240.291ZM248.839 272.712L245.935 279.336H244.159L245.863 272.712H248.839ZM260.2 264.72C260.664 264.112 261.296 263.6 262.096 263.184C262.896 262.768 263.8 262.56 264.808 262.56C265.96 262.56 267.008 262.848 267.952 263.424C268.912 263.984 269.664 264.776 270.208 265.8C270.752 266.824 271.024 268 271.024 269.328C271.024 270.656 270.752 271.848 270.208 272.904C269.664 273.944 268.912 274.76 267.952 275.352C267.008 275.928 265.96 276.216 264.808 276.216C263.8 276.216 262.904 276.016 262.12 275.616C261.336 275.2 260.696 274.688 260.2 274.08V282.288H257.464V262.776H260.2V264.72ZM268.24 269.328C268.24 268.416 268.048 267.632 267.664 266.976C267.296 266.304 266.8 265.8 266.176 265.464C265.568 265.112 264.912 264.936 264.208 264.936C263.52 264.936 262.864 265.112 262.24 265.464C261.632 265.816 261.136 266.328 260.752 267C260.384 267.672 260.2 268.464 260.2 269.376C260.2 270.288 260.384 271.088 260.752 271.776C261.136 272.448 261.632 272.96 262.24 273.312C262.864 273.664 263.52 273.84 264.208 273.84C264.912 273.84 265.568 273.664 266.176 273.312C266.8 272.944 267.296 272.416 267.664 271.728C268.048 271.04 268.24 270.24 268.24 269.328ZM279.466 276.216C278.218 276.216 277.09 275.936 276.082 275.376C275.074 274.8 274.282 274 273.706 272.976C273.13 271.936 272.842 270.736 272.842 269.376C272.842 268.032 273.138 266.84 273.73 265.8C274.322 264.76 275.13 263.96 276.154 263.4C277.178 262.84 278.322 262.56 279.586 262.56C280.85 262.56 281.994 262.84 283.018 263.4C284.042 263.96 284.85 264.76 285.442 265.8C286.034 266.84 286.33 268.032 286.33 269.376C286.33 270.72 286.026 271.912 285.418 272.952C284.81 273.992 283.978 274.8 282.922 275.376C281.882 275.936 280.73 276.216 279.466 276.216ZM279.466 273.84C280.17 273.84 280.826 273.672 281.434 273.336C282.058 273 282.562 272.496 282.946 271.824C283.33 271.152 283.522 270.336 283.522 269.376C283.522 268.416 283.338 267.608 282.97 266.952C282.602 266.28 282.114 265.776 281.506 265.44C280.898 265.104 280.242 264.936 279.538 264.936C278.834 264.936 278.178 265.104 277.57 265.44C276.978 265.776 276.506 266.28 276.154 266.952C275.802 267.608 275.626 268.416 275.626 269.376C275.626 270.8 275.986 271.904 276.706 272.688C277.442 273.456 278.362 273.84 279.466 273.84ZM291.77 264.696C292.17 264.024 292.698 263.504 293.354 263.136C294.026 262.752 294.818 262.56 295.73 262.56V265.392H295.034C293.962 265.392 293.146 265.664 292.586 266.208C292.042 266.752 291.77 267.696 291.77 269.04V276H289.034V262.776H291.77V264.696ZM301.437 265.008V272.328C301.437 272.824 301.549 273.184 301.773 273.408C302.013 273.616 302.413 273.72 302.973 273.72H304.653V276H302.493C301.261 276 300.317 275.712 299.661 275.136C299.005 274.56 298.677 273.624 298.677 272.328V265.008H297.117V262.776H298.677V259.488H301.437V262.776H304.653V265.008H301.437ZM306.263 269.328C306.263 268 306.535 266.824 307.079 265.8C307.639 264.776 308.391 263.984 309.335 263.424C310.295 262.848 311.351 262.56 312.503 262.56C313.543 262.56 314.447 262.768 315.215 263.184C315.999 263.584 316.623 264.088 317.087 264.696V262.776H319.847V276H317.087V274.032C316.623 274.656 315.991 275.176 315.191 275.592C314.391 276.008 313.479 276.216 312.455 276.216C311.319 276.216 310.279 275.928 309.335 275.352C308.391 274.76 307.639 273.944 307.079 272.904C306.535 271.848 306.263 270.656 306.263 269.328ZM317.087 269.376C317.087 268.464 316.895 267.672 316.511 267C316.143 266.328 315.655 265.816 315.047 265.464C314.439 265.112 313.783 264.936 313.079 264.936C312.375 264.936 311.719 265.112 311.111 265.464C310.503 265.8 310.007 266.304 309.623 266.976C309.255 267.632 309.071 268.416 309.071 269.328C309.071 270.24 309.255 271.04 309.623 271.728C310.007 272.416 310.503 272.944 311.111 273.312C311.735 273.664 312.391 273.84 313.079 273.84C313.783 273.84 314.439 273.664 315.047 273.312C315.655 272.96 316.143 272.448 316.511 271.776C316.895 271.088 317.087 270.288 317.087 269.376ZM330.113 262.56C331.153 262.56 332.081 262.776 332.897 263.208C333.729 263.64 334.377 264.28 334.841 265.128C335.305 265.976 335.537 267 335.537 268.2V276H332.825V268.608C332.825 267.424 332.529 266.52 331.937 265.896C331.345 265.256 330.537 264.936 329.513 264.936C328.489 264.936 327.673 265.256 327.065 265.896C326.473 266.52 326.177 267.424 326.177 268.608V276H323.441V262.776H326.177V264.288C326.625 263.744 327.193 263.32 327.881 263.016C328.585 262.712 329.329 262.56 330.113 262.56ZM338.115 269.328C338.115 268 338.387 266.824 338.931 265.8C339.491 264.776 340.243 263.984 341.187 263.424C342.147 262.848 343.211 262.56 344.379 262.56C345.243 262.56 346.091 262.752 346.923 263.136C347.771 263.504 348.443 264 348.939 264.624V258.24H351.699V276H348.939V274.008C348.491 274.648 347.867 275.176 347.067 275.592C346.283 276.008 345.379 276.216 344.355 276.216C343.203 276.216 342.147 275.928 341.187 275.352C340.243 274.76 339.491 273.944 338.931 272.904C338.387 271.848 338.115 270.656 338.115 269.328ZM348.939 269.376C348.939 268.464 348.747 267.672 348.363 267C347.995 266.328 347.507 265.816 346.899 265.464C346.291 265.112 345.635 264.936 344.931 264.936C344.227 264.936 343.571 265.112 342.963 265.464C342.355 265.8 341.859 266.304 341.475 266.976C341.107 267.632 340.923 268.416 340.923 269.328C340.923 270.24 341.107 271.04 341.475 271.728C341.859 272.416 342.355 272.944 342.963 273.312C343.587 273.664 344.243 273.84 344.931 273.84C345.635 273.84 346.291 273.664 346.899 273.312C347.507 272.96 347.995 272.448 348.363 271.776C348.747 271.088 348.939 270.288 348.939 269.376ZM361.028 276.216C359.78 276.216 358.652 275.936 357.644 275.376C356.636 274.8 355.844 274 355.268 272.976C354.692 271.936 354.404 270.736 354.404 269.376C354.404 268.032 354.7 266.84 355.292 265.8C355.884 264.76 356.692 263.96 357.716 263.4C358.74 262.84 359.884 262.56 361.148 262.56C362.412 262.56 363.556 262.84 364.58 263.4C365.604 263.96 366.412 264.76 367.004 265.8C367.596 266.84 367.892 268.032 367.892 269.376C367.892 270.72 367.588 271.912 366.98 272.952C366.372 273.992 365.54 274.8 364.484 275.376C363.444 275.936 362.292 276.216 361.028 276.216ZM361.028 273.84C361.732 273.84 362.388 273.672 362.996 273.336C363.62 273 364.124 272.496 364.508 271.824C364.892 271.152 365.084 270.336 365.084 269.376C365.084 268.416 364.9 267.608 364.532 266.952C364.164 266.28 363.676 265.776 363.068 265.44C362.46 265.104 361.804 264.936 361.1 264.936C360.396 264.936 359.74 265.104 359.132 265.44C358.54 265.776 358.068 266.28 357.716 266.952C357.364 267.608 357.188 268.416 357.188 269.376C357.188 270.8 357.548 271.904 358.268 272.688C359.004 273.456 359.924 273.84 361.028 273.84ZM164.713 309.552L168.457 298.776H171.361L166.321 312H163.057L158.041 298.776H160.969L164.713 309.552ZM172.517 305.328C172.517 304 172.789 302.824 173.333 301.8C173.893 300.776 174.645 299.984 175.589 299.424C176.549 298.848 177.605 298.56 178.757 298.56C179.797 298.56 180.701 298.768 181.469 299.184C182.253 299.584 182.877 300.088 183.341 300.696V298.776H186.101V312H183.341V310.032C182.877 310.656 182.245 311.176 181.445 311.592C180.645 312.008 179.733 312.216 178.709 312.216C177.573 312.216 176.533 311.928 175.589 311.352C174.645 310.76 173.893 309.944 173.333 308.904C172.789 307.848 172.517 306.656 172.517 305.328ZM183.341 305.376C183.341 304.464 183.149 303.672 182.765 303C182.397 302.328 181.909 301.816 181.301 301.464C180.693 301.112 180.037 300.936 179.333 300.936C178.629 300.936 177.973 301.112 177.365 301.464C176.757 301.8 176.261 302.304 175.877 302.976C175.509 303.632 175.325 304.416 175.325 305.328C175.325 306.24 175.509 307.04 175.877 307.728C176.261 308.416 176.757 308.944 177.365 309.312C177.989 309.664 178.645 309.84 179.333 309.84C180.037 309.84 180.693 309.664 181.301 309.312C181.909 308.96 182.397 308.448 182.765 307.776C183.149 307.088 183.341 306.288 183.341 305.376ZM188.783 305.376C188.783 304.016 189.055 302.824 189.599 301.8C190.159 300.76 190.927 299.96 191.903 299.4C192.879 298.84 193.999 298.56 195.263 298.56C196.863 298.56 198.183 298.944 199.223 299.712C200.279 300.464 200.991 301.544 201.359 302.952H198.407C198.167 302.296 197.783 301.784 197.255 301.416C196.727 301.048 196.063 300.864 195.263 300.864C194.143 300.864 193.247 301.264 192.575 302.064C191.919 302.848 191.591 303.952 191.591 305.376C191.591 306.8 191.919 307.912 192.575 308.712C193.247 309.512 194.143 309.912 195.263 309.912C196.847 309.912 197.895 309.216 198.407 307.824H201.359C200.975 309.168 200.255 310.24 199.199 311.04C198.143 311.824 196.831 312.216 195.263 312.216C193.999 312.216 192.879 311.936 191.903 311.376C190.927 310.8 190.159 310 189.599 308.976C189.055 307.936 188.783 306.736 188.783 305.376ZM205.477 297.024C204.981 297.024 204.565 296.856 204.229 296.52C203.893 296.184 203.725 295.768 203.725 295.272C203.725 294.776 203.893 294.36 204.229 294.024C204.565 293.688 204.981 293.52 205.477 293.52C205.957 293.52 206.365 293.688 206.701 294.024C207.037 294.36 207.205 294.776 207.205 295.272C207.205 295.768 207.037 296.184 206.701 296.52C206.365 296.856 205.957 297.024 205.477 297.024ZM206.821 298.776V312H204.085V298.776H206.821ZM217.085 298.56C218.125 298.56 219.053 298.776 219.869 299.208C220.701 299.64 221.349 300.28 221.813 301.128C222.277 301.976 222.509 303 222.509 304.2V312H219.797V304.608C219.797 303.424 219.501 302.52 218.909 301.896C218.317 301.256 217.509 300.936 216.485 300.936C215.461 300.936 214.645 301.256 214.037 301.896C213.445 302.52 213.149 303.424 213.149 304.608V312H210.413V298.776H213.149V300.288C213.597 299.744 214.165 299.32 214.853 299.016C215.557 298.712 216.301 298.56 217.085 298.56ZM238.119 305.064C238.119 305.56 238.087 306.008 238.023 306.408H227.919C227.999 307.464 228.391 308.312 229.095 308.952C229.799 309.592 230.663 309.912 231.687 309.912C233.159 309.912 234.199 309.296 234.807 308.064H237.759C237.359 309.28 236.631 310.28 235.575 311.064C234.535 311.832 233.239 312.216 231.687 312.216C230.423 312.216 229.287 311.936 228.279 311.376C227.287 310.8 226.503 310 225.927 308.976C225.367 307.936 225.087 306.736 225.087 305.376C225.087 304.016 225.359 302.824 225.903 301.8C226.463 300.76 227.239 299.96 228.231 299.4C229.239 298.84 230.391 298.56 231.687 298.56C232.935 298.56 234.047 298.832 235.023 299.376C235.999 299.92 236.759 300.688 237.303 301.68C237.847 302.656 238.119 303.784 238.119 305.064ZM235.263 304.2C235.247 303.192 234.887 302.384 234.183 301.776C233.479 301.168 232.607 300.864 231.567 300.864C230.623 300.864 229.815 301.168 229.143 301.776C228.471 302.368 228.071 303.176 227.943 304.2H235.263ZM250.964 302.16V304.464H241.1V302.16H250.964ZM260.587 312.216C259.339 312.216 258.211 311.936 257.203 311.376C256.195 310.8 255.403 310 254.827 308.976C254.251 307.936 253.963 306.736 253.963 305.376C253.963 304.032 254.259 302.84 254.851 301.8C255.443 300.76 256.251 299.96 257.275 299.4C258.299 298.84 259.443 298.56 260.707 298.56C261.971 298.56 263.115 298.84 264.139 299.4C265.163 299.96 265.971 300.76 266.563 301.8C267.155 302.84 267.451 304.032 267.451 305.376C267.451 306.72 267.147 307.912 266.539 308.952C265.931 309.992 265.099 310.8 264.043 311.376C263.003 311.936 261.851 312.216 260.587 312.216ZM260.587 309.84C261.291 309.84 261.947 309.672 262.555 309.336C263.179 309 263.683 308.496 264.067 307.824C264.451 307.152 264.643 306.336 264.643 305.376C264.643 304.416 264.459 303.608 264.091 302.952C263.723 302.28 263.235 301.776 262.627 301.44C262.019 301.104 261.363 300.936 260.659 300.936C259.955 300.936 259.299 301.104 258.691 301.44C258.099 301.776 257.627 302.28 257.275 302.952C256.923 303.608 256.747 304.416 256.747 305.376C256.747 306.8 257.107 307.904 257.827 308.688C258.563 309.456 259.483 309.84 260.587 309.84ZM274.955 312.216C273.915 312.216 272.979 312.032 272.147 311.664C271.331 311.28 270.683 310.768 270.203 310.128C269.723 309.472 269.467 308.744 269.435 307.944H272.267C272.315 308.504 272.579 308.976 273.059 309.36C273.555 309.728 274.171 309.912 274.907 309.912C275.675 309.912 276.267 309.768 276.683 309.48C277.115 309.176 277.331 308.792 277.331 308.328C277.331 307.832 277.091 307.464 276.611 307.224C276.147 306.984 275.403 306.72 274.379 306.432C273.387 306.16 272.579 305.896 271.955 305.64C271.331 305.384 270.787 304.992 270.323 304.464C269.875 303.936 269.651 303.24 269.651 302.376C269.651 301.672 269.859 301.032 270.275 300.456C270.691 299.864 271.283 299.4 272.051 299.064C272.835 298.728 273.731 298.56 274.739 298.56C276.243 298.56 277.451 298.944 278.363 299.712C279.291 300.464 279.787 301.496 279.851 302.808H277.115C277.067 302.216 276.827 301.744 276.395 301.392C275.963 301.04 275.379 300.864 274.643 300.864C273.923 300.864 273.371 301 272.987 301.272C272.603 301.544 272.411 301.904 272.411 302.352C272.411 302.704 272.539 303 272.795 303.24C273.051 303.48 273.363 303.672 273.731 303.816C274.099 303.944 274.643 304.112 275.363 304.32C276.323 304.576 277.107 304.84 277.715 305.112C278.339 305.368 278.875 305.752 279.323 306.264C279.771 306.776 280.003 307.456 280.019 308.304C280.019 309.056 279.811 309.728 279.395 310.32C278.979 310.912 278.387 311.376 277.619 311.712C276.867 312.048 275.979 312.216 274.955 312.216ZM284.08 312.168C283.584 312.168 283.168 312 282.832 311.664C282.496 311.328 282.328 310.912 282.328 310.416C282.328 309.92 282.496 309.504 282.832 309.168C283.168 308.832 283.584 308.664 284.08 308.664C284.56 308.664 284.968 308.832 285.304 309.168C285.64 309.504 285.808 309.92 285.808 310.416C285.808 310.912 285.64 311.328 285.304 311.664C284.968 312 284.56 312.168 284.08 312.168Z" fill="#FFEBEB"/>
</svg>
