<svg width="450" height="456" viewBox="0 0 450 456" fill="none" xmlns="http://www.w3.org/2000/svg">
<rect width="450" height="456" fill="#8CCDD0"/>
<path d="M125.389 113.26V117.628H120.125V133H114.637V117.628H109.429V113.26H125.389ZM142.428 124.964C142.428 125.393 142.4 125.823 142.344 126.252H131.956C132.012 127.111 132.245 127.755 132.656 128.184C133.085 128.595 133.626 128.8 134.28 128.8C135.194 128.8 135.848 128.389 136.24 127.568H142.092C141.849 128.651 141.373 129.621 140.664 130.48C139.973 131.32 139.096 131.983 138.032 132.468C136.968 132.953 135.792 133.196 134.504 133.196C132.954 133.196 131.573 132.869 130.36 132.216C129.165 131.563 128.222 130.629 127.532 129.416C126.86 128.203 126.524 126.775 126.524 125.132C126.524 123.489 126.86 122.071 127.532 120.876C128.204 119.663 129.137 118.729 130.332 118.076C131.545 117.423 132.936 117.096 134.504 117.096C136.053 117.096 137.425 117.413 138.62 118.048C139.814 118.683 140.748 119.597 141.42 120.792C142.092 121.968 142.428 123.359 142.428 124.964ZM136.828 123.592C136.828 122.92 136.604 122.397 136.156 122.024C135.708 121.632 135.148 121.436 134.476 121.436C133.804 121.436 133.253 121.623 132.824 121.996C132.394 122.351 132.114 122.883 131.984 123.592H136.828ZM150.161 112.28V133H144.673V112.28H150.161ZM168.295 124.964C168.295 125.393 168.267 125.823 168.211 126.252H157.823C157.879 127.111 158.112 127.755 158.523 128.184C158.952 128.595 159.493 128.8 160.147 128.8C161.061 128.8 161.715 128.389 162.107 127.568H167.959C167.716 128.651 167.24 129.621 166.531 130.48C165.84 131.32 164.963 131.983 163.899 132.468C162.835 132.953 161.659 133.196 160.371 133.196C158.821 133.196 157.44 132.869 156.227 132.216C155.032 131.563 154.089 130.629 153.399 129.416C152.727 128.203 152.391 126.775 152.391 125.132C152.391 123.489 152.727 122.071 153.399 120.876C154.071 119.663 155.004 118.729 156.199 118.076C157.412 117.423 158.803 117.096 160.371 117.096C161.92 117.096 163.292 117.413 164.487 118.048C165.681 118.683 166.615 119.597 167.287 120.792C167.959 121.968 168.295 123.359 168.295 124.964ZM162.695 123.592C162.695 122.92 162.471 122.397 162.023 122.024C161.575 121.632 161.015 121.436 160.343 121.436C159.671 121.436 159.12 121.623 158.691 121.996C158.261 122.351 157.981 122.883 157.851 123.592H162.695ZM175.004 125.132C175.004 123.508 175.293 122.089 175.872 120.876C176.469 119.663 177.272 118.729 178.28 118.076C179.307 117.423 180.445 117.096 181.696 117.096C182.779 117.096 183.712 117.311 184.496 117.74C185.28 118.169 185.887 118.748 186.316 119.476V117.292H191.804V133H186.316V130.816C185.887 131.544 185.271 132.123 184.468 132.552C183.684 132.981 182.76 133.196 181.696 133.196C180.445 133.196 179.307 132.869 178.28 132.216C177.272 131.563 176.469 130.629 175.872 129.416C175.293 128.184 175.004 126.756 175.004 125.132ZM186.316 125.132C186.316 124.124 186.036 123.331 185.476 122.752C184.935 122.173 184.263 121.884 183.46 121.884C182.639 121.884 181.957 122.173 181.416 122.752C180.875 123.312 180.604 124.105 180.604 125.132C180.604 126.14 180.875 126.943 181.416 127.54C181.957 128.119 182.639 128.408 183.46 128.408C184.263 128.408 184.935 128.119 185.476 127.54C186.036 126.961 186.316 126.159 186.316 125.132ZM206.983 133.196C205.564 133.196 204.295 132.963 203.175 132.496C202.073 132.011 201.196 131.357 200.543 130.536C199.908 129.696 199.553 128.753 199.479 127.708H204.799C204.873 128.212 205.107 128.604 205.499 128.884C205.891 129.164 206.376 129.304 206.955 129.304C207.403 129.304 207.757 129.211 208.019 129.024C208.28 128.837 208.411 128.595 208.411 128.296C208.411 127.904 208.196 127.615 207.767 127.428C207.337 127.241 206.628 127.036 205.639 126.812C204.519 126.588 203.585 126.336 202.839 126.056C202.092 125.776 201.439 125.319 200.879 124.684C200.337 124.049 200.067 123.191 200.067 122.108C200.067 121.175 200.319 120.335 200.823 119.588C201.327 118.823 202.064 118.216 203.035 117.768C204.024 117.32 205.209 117.096 206.591 117.096C208.644 117.096 210.259 117.6 211.435 118.608C212.611 119.616 213.292 120.941 213.479 122.584H208.523C208.429 122.08 208.205 121.697 207.851 121.436C207.515 121.156 207.057 121.016 206.479 121.016C206.031 121.016 205.685 121.1 205.443 121.268C205.219 121.436 205.107 121.669 205.107 121.968C205.107 122.341 205.321 122.631 205.751 122.836C206.18 123.023 206.871 123.219 207.823 123.424C208.961 123.667 209.904 123.937 210.651 124.236C211.416 124.535 212.079 125.02 212.639 125.692C213.217 126.345 213.507 127.241 213.507 128.38C213.507 129.295 213.236 130.116 212.695 130.844C212.172 131.572 211.416 132.151 210.427 132.58C209.456 132.991 208.308 133.196 206.983 133.196ZM232.277 117.292V133H226.761V130.76C226.294 131.469 225.65 132.048 224.829 132.496C224.007 132.925 223.065 133.14 222.001 133.14C220.171 133.14 218.725 132.543 217.661 131.348C216.615 130.135 216.093 128.492 216.093 126.42V117.292H221.553V125.72C221.553 126.616 221.786 127.325 222.253 127.848C222.738 128.352 223.373 128.604 224.157 128.604C224.959 128.604 225.594 128.352 226.061 127.848C226.527 127.325 226.761 126.616 226.761 125.72V117.292H232.277ZM234.504 125.132C234.504 123.508 234.793 122.089 235.372 120.876C235.969 119.663 236.772 118.729 237.78 118.076C238.807 117.423 239.945 117.096 241.196 117.096C242.279 117.096 243.212 117.311 243.996 117.74C244.78 118.169 245.387 118.748 245.816 119.476V117.292H251.304V133H245.816V130.816C245.387 131.544 244.771 132.123 243.968 132.552C243.184 132.981 242.26 133.196 241.196 133.196C239.945 133.196 238.807 132.869 237.78 132.216C236.772 131.563 235.969 130.629 235.372 129.416C234.793 128.184 234.504 126.756 234.504 125.132ZM245.816 125.132C245.816 124.124 245.536 123.331 244.976 122.752C244.435 122.173 243.763 121.884 242.96 121.884C242.139 121.884 241.457 122.173 240.916 122.752C240.375 123.312 240.104 124.105 240.104 125.132C240.104 126.14 240.375 126.943 240.916 127.54C241.457 128.119 242.139 128.408 242.96 128.408C243.763 128.408 244.435 128.119 244.976 127.54C245.536 126.961 245.816 126.159 245.816 125.132ZM258.895 125.132C258.895 123.508 259.231 122.089 259.903 120.876C260.575 119.663 261.508 118.729 262.703 118.076C263.916 117.423 265.297 117.096 266.847 117.096C268.844 117.096 270.524 117.647 271.887 118.748C273.249 119.831 274.127 121.352 274.519 123.312H268.695C268.359 122.285 267.705 121.772 266.735 121.772C266.044 121.772 265.493 122.061 265.083 122.64C264.691 123.2 264.495 124.031 264.495 125.132C264.495 126.233 264.691 127.073 265.083 127.652C265.493 128.231 266.044 128.52 266.735 128.52C267.724 128.52 268.377 128.007 268.695 126.98H274.519C274.127 128.921 273.249 130.443 271.887 131.544C270.524 132.645 268.844 133.196 266.847 133.196C265.297 133.196 263.916 132.869 262.703 132.216C261.508 131.563 260.575 130.629 259.903 129.416C259.231 128.203 258.895 126.775 258.895 125.132ZM275.902 125.132C275.902 123.508 276.192 122.089 276.77 120.876C277.368 119.663 278.17 118.729 279.178 118.076C280.205 117.423 281.344 117.096 282.594 117.096C283.677 117.096 284.61 117.311 285.394 117.74C286.178 118.169 286.785 118.748 287.214 119.476V117.292H292.702V133H287.214V130.816C286.785 131.544 286.169 132.123 285.366 132.552C284.582 132.981 283.658 133.196 282.594 133.196C281.344 133.196 280.205 132.869 279.178 132.216C278.17 131.563 277.368 130.629 276.77 129.416C276.192 128.184 275.902 126.756 275.902 125.132ZM287.214 125.132C287.214 124.124 286.934 123.331 286.374 122.752C285.833 122.173 285.161 121.884 284.358 121.884C283.537 121.884 282.856 122.173 282.314 122.752C281.773 123.312 281.502 124.105 281.502 125.132C281.502 126.14 281.773 126.943 282.314 127.54C282.856 128.119 283.537 128.408 284.358 128.408C285.161 128.408 285.833 128.119 286.374 127.54C286.934 126.961 287.214 126.159 287.214 125.132ZM302.522 133.196C301.103 133.196 299.834 132.963 298.714 132.496C297.612 132.011 296.735 131.357 296.082 130.536C295.447 129.696 295.092 128.753 295.018 127.708H300.338C300.412 128.212 300.646 128.604 301.038 128.884C301.43 129.164 301.915 129.304 302.494 129.304C302.942 129.304 303.296 129.211 303.558 129.024C303.819 128.837 303.95 128.595 303.95 128.296C303.95 127.904 303.735 127.615 303.306 127.428C302.876 127.241 302.167 127.036 301.178 126.812C300.058 126.588 299.124 126.336 298.378 126.056C297.631 125.776 296.978 125.319 296.418 124.684C295.876 124.049 295.606 123.191 295.606 122.108C295.606 121.175 295.858 120.335 296.362 119.588C296.866 118.823 297.603 118.216 298.574 117.768C299.563 117.32 300.748 117.096 302.13 117.096C304.183 117.096 305.798 117.6 306.974 118.608C308.15 119.616 308.831 120.941 309.018 122.584H304.062C303.968 122.08 303.744 121.697 303.39 121.436C303.054 121.156 302.596 121.016 302.018 121.016C301.57 121.016 301.224 121.1 300.982 121.268C300.758 121.436 300.646 121.669 300.646 121.968C300.646 122.341 300.86 122.631 301.29 122.836C301.719 123.023 302.41 123.219 303.362 123.424C304.5 123.667 305.443 123.937 306.19 124.236C306.955 124.535 307.618 125.02 308.178 125.692C308.756 126.345 309.046 127.241 309.046 128.38C309.046 129.295 308.775 130.116 308.234 130.844C307.711 131.572 306.955 132.151 305.966 132.58C304.995 132.991 303.847 133.196 302.522 133.196ZM310.848 125.132C310.848 123.508 311.137 122.089 311.716 120.876C312.313 119.663 313.116 118.729 314.124 118.076C315.15 117.423 316.289 117.096 317.54 117.096C318.622 117.096 319.556 117.311 320.34 117.74C321.124 118.169 321.73 118.748 322.16 119.476V117.292H327.648V133H322.16V130.816C321.73 131.544 321.114 132.123 320.312 132.552C319.528 132.981 318.604 133.196 317.54 133.196C316.289 133.196 315.15 132.869 314.124 132.216C313.116 131.563 312.313 130.629 311.716 129.416C311.137 128.184 310.848 126.756 310.848 125.132ZM322.16 125.132C322.16 124.124 321.88 123.331 321.32 122.752C320.778 122.173 320.106 121.884 319.304 121.884C318.482 121.884 317.801 122.173 317.26 122.752C316.718 123.312 316.448 124.105 316.448 125.132C316.448 126.14 316.718 126.943 317.26 127.54C317.801 128.119 318.482 128.408 319.304 128.408C320.106 128.408 320.778 128.119 321.32 127.54C321.88 126.961 322.16 126.159 322.16 125.132ZM338.111 112.252L337.467 125.608H332.791L332.147 112.252H338.111ZM335.143 133.224C334.172 133.224 333.388 132.963 332.791 132.44C332.212 131.899 331.923 131.217 331.923 130.396C331.923 129.575 332.212 128.893 332.791 128.352C333.388 127.811 334.172 127.54 335.143 127.54C336.095 127.54 336.86 127.811 337.439 128.352C338.036 128.893 338.335 129.575 338.335 130.396C338.335 131.199 338.036 131.871 337.439 132.412C336.86 132.953 336.095 133.224 335.143 133.224ZM116.658 160.624C116.658 158.992 117.034 157.528 117.786 156.232C118.554 154.936 119.586 153.928 120.882 153.208C122.194 152.472 123.626 152.104 125.178 152.104C126.954 152.104 128.53 152.544 129.906 153.424C131.298 154.288 132.306 155.52 132.93 157.12H129.642C129.21 156.24 128.61 155.584 127.842 155.152C127.074 154.72 126.186 154.504 125.178 154.504C124.074 154.504 123.09 154.752 122.226 155.248C121.362 155.744 120.682 156.456 120.186 157.384C119.706 158.312 119.466 159.392 119.466 160.624C119.466 161.856 119.706 162.936 120.186 163.864C120.682 164.792 121.362 165.512 122.226 166.024C123.09 166.52 124.074 166.768 125.178 166.768C126.186 166.768 127.074 166.552 127.842 166.12C128.61 165.688 129.21 165.032 129.642 164.152H132.93C132.306 165.752 131.298 166.984 129.906 167.848C128.53 168.712 126.954 169.144 125.178 169.144C123.61 169.144 122.178 168.784 120.882 168.064C119.586 167.328 118.554 166.312 117.786 165.016C117.034 163.72 116.658 162.256 116.658 160.624ZM141.868 169.216C140.62 169.216 139.492 168.936 138.484 168.376C137.476 167.8 136.684 167 136.108 165.976C135.532 164.936 135.244 163.736 135.244 162.376C135.244 161.032 135.54 159.84 136.132 158.8C136.724 157.76 137.532 156.96 138.556 156.4C139.58 155.84 140.724 155.56 141.988 155.56C143.252 155.56 144.396 155.84 145.42 156.4C146.444 156.96 147.252 157.76 147.844 158.8C148.436 159.84 148.732 161.032 148.732 162.376C148.732 163.72 148.428 164.912 147.82 165.952C147.212 166.992 146.38 167.8 145.324 168.376C144.284 168.936 143.132 169.216 141.868 169.216ZM141.868 166.84C142.572 166.84 143.228 166.672 143.836 166.336C144.46 166 144.964 165.496 145.348 164.824C145.732 164.152 145.924 163.336 145.924 162.376C145.924 161.416 145.74 160.608 145.372 159.952C145.004 159.28 144.516 158.776 143.908 158.44C143.3 158.104 142.644 157.936 141.94 157.936C141.236 157.936 140.58 158.104 139.972 158.44C139.38 158.776 138.908 159.28 138.556 159.952C138.204 160.608 138.028 161.416 138.028 162.376C138.028 163.8 138.388 164.904 139.108 165.688C139.844 166.456 140.764 166.84 141.868 166.84ZM154.173 151.24V169H151.437V151.24H154.173ZM163.501 169.216C162.253 169.216 161.125 168.936 160.117 168.376C159.109 167.8 158.317 167 157.741 165.976C157.165 164.936 156.877 163.736 156.877 162.376C156.877 161.032 157.173 159.84 157.765 158.8C158.357 157.76 159.165 156.96 160.189 156.4C161.213 155.84 162.357 155.56 163.621 155.56C164.885 155.56 166.029 155.84 167.053 156.4C168.077 156.96 168.885 157.76 169.477 158.8C170.069 159.84 170.365 161.032 170.365 162.376C170.365 163.72 170.061 164.912 169.453 165.952C168.845 166.992 168.013 167.8 166.957 168.376C165.917 168.936 164.765 169.216 163.501 169.216ZM163.501 166.84C164.205 166.84 164.861 166.672 165.469 166.336C166.093 166 166.597 165.496 166.981 164.824C167.365 164.152 167.557 163.336 167.557 162.376C167.557 161.416 167.373 160.608 167.005 159.952C166.637 159.28 166.149 158.776 165.541 158.44C164.933 158.104 164.277 157.936 163.573 157.936C162.869 157.936 162.213 158.104 161.605 158.44C161.013 158.776 160.541 159.28 160.189 159.952C159.837 160.608 159.661 161.416 159.661 162.376C159.661 163.8 160.021 164.904 160.741 165.688C161.477 166.456 162.397 166.84 163.501 166.84ZM172.158 162.328C172.158 161 172.43 159.824 172.974 158.8C173.534 157.776 174.286 156.984 175.23 156.424C176.19 155.848 177.254 155.56 178.422 155.56C179.446 155.56 180.35 155.768 181.134 156.184C181.934 156.6 182.55 157.104 182.982 157.696V155.776H185.742V175.288H182.982V167.08C182.55 167.672 181.926 168.176 181.11 168.592C180.294 169.008 179.366 169.216 178.326 169.216C177.19 169.216 176.15 168.928 175.206 168.352C174.278 167.76 173.534 166.944 172.974 165.904C172.43 164.848 172.158 163.656 172.158 162.328ZM182.982 162.376C182.982 161.464 182.79 160.672 182.406 160C182.038 159.328 181.55 158.816 180.942 158.464C180.334 158.112 179.678 157.936 178.974 157.936C178.27 157.936 177.614 158.112 177.006 158.464C176.398 158.8 175.902 159.304 175.518 159.976C175.15 160.632 174.966 161.416 174.966 162.328C174.966 163.24 175.15 164.04 175.518 164.728C175.902 165.416 176.398 165.944 177.006 166.312C177.63 166.664 178.286 166.84 178.974 166.84C179.678 166.84 180.334 166.664 180.942 166.312C181.55 165.96 182.038 165.448 182.406 164.776C182.79 164.088 182.982 163.288 182.982 162.376ZM201.311 155.776V169H198.575V167.44C198.143 167.984 197.575 168.416 196.871 168.736C196.183 169.04 195.447 169.192 194.663 169.192C193.623 169.192 192.687 168.976 191.855 168.544C191.039 168.112 190.391 167.472 189.911 166.624C189.447 165.776 189.215 164.752 189.215 163.552V155.776H191.927V163.144C191.927 164.328 192.223 165.24 192.815 165.88C193.407 166.504 194.215 166.816 195.239 166.816C196.263 166.816 197.071 166.504 197.663 165.88C198.271 165.24 198.575 164.328 198.575 163.144V155.776H201.311ZM217.041 162.064C217.041 162.56 217.009 163.008 216.945 163.408H206.841C206.921 164.464 207.313 165.312 208.017 165.952C208.721 166.592 209.585 166.912 210.609 166.912C212.081 166.912 213.121 166.296 213.729 165.064H216.681C216.281 166.28 215.553 167.28 214.497 168.064C213.457 168.832 212.161 169.216 210.609 169.216C209.345 169.216 208.209 168.936 207.201 168.376C206.209 167.8 205.425 167 204.849 165.976C204.289 164.936 204.009 163.736 204.009 162.376C204.009 161.016 204.281 159.824 204.825 158.8C205.385 157.76 206.161 156.96 207.153 156.4C208.161 155.84 209.313 155.56 210.609 155.56C211.857 155.56 212.969 155.832 213.945 156.376C214.921 156.92 215.681 157.688 216.225 158.68C216.769 159.656 217.041 160.784 217.041 162.064ZM214.185 161.2C214.169 160.192 213.809 159.384 213.105 158.776C212.401 158.168 211.529 157.864 210.489 157.864C209.545 157.864 208.737 158.168 208.065 158.776C207.393 159.368 206.993 160.176 206.865 161.2H214.185ZM229.16 158.008V165.328C229.16 165.824 229.272 166.184 229.496 166.408C229.736 166.616 230.136 166.72 230.696 166.72H232.376V169H230.216C228.984 169 228.04 168.712 227.384 168.136C226.728 167.56 226.4 166.624 226.4 165.328V158.008H224.84V155.776H226.4V152.488H229.16V155.776H232.376V158.008H229.16ZM247.018 162.064C247.018 162.56 246.986 163.008 246.922 163.408H236.818C236.898 164.464 237.29 165.312 237.994 165.952C238.698 166.592 239.562 166.912 240.586 166.912C242.058 166.912 243.098 166.296 243.706 165.064H246.658C246.258 166.28 245.53 167.28 244.474 168.064C243.434 168.832 242.138 169.216 240.586 169.216C239.322 169.216 238.186 168.936 237.178 168.376C236.186 167.8 235.402 167 234.826 165.976C234.266 164.936 233.986 163.736 233.986 162.376C233.986 161.016 234.258 159.824 234.802 158.8C235.362 157.76 236.138 156.96 237.13 156.4C238.138 155.84 239.29 155.56 240.586 155.56C241.834 155.56 242.946 155.832 243.922 156.376C244.898 156.92 245.658 157.688 246.202 158.68C246.746 159.656 247.018 160.784 247.018 162.064ZM244.162 161.2C244.146 160.192 243.786 159.384 243.082 158.776C242.378 158.168 241.506 157.864 240.466 157.864C239.522 157.864 238.714 158.168 238.042 158.776C237.37 159.368 236.97 160.176 236.842 161.2H244.162ZM252.446 151.24V169H249.71V151.24H252.446ZM255.126 162.328C255.126 161 255.398 159.824 255.942 158.8C256.502 157.776 257.254 156.984 258.198 156.424C259.158 155.848 260.214 155.56 261.366 155.56C262.406 155.56 263.31 155.768 264.078 156.184C264.862 156.584 265.486 157.088 265.95 157.696V155.776H268.71V169H265.95V167.032C265.486 167.656 264.854 168.176 264.054 168.592C263.254 169.008 262.342 169.216 261.318 169.216C260.182 169.216 259.142 168.928 258.198 168.352C257.254 167.76 256.502 166.944 255.942 165.904C255.398 164.848 255.126 163.656 255.126 162.328ZM265.95 162.376C265.95 161.464 265.758 160.672 265.374 160C265.006 159.328 264.518 158.816 263.91 158.464C263.302 158.112 262.646 157.936 261.942 157.936C261.238 157.936 260.582 158.112 259.974 158.464C259.366 158.8 258.87 159.304 258.486 159.976C258.118 160.632 257.934 161.416 257.934 162.328C257.934 163.24 258.118 164.04 258.486 164.728C258.87 165.416 259.366 165.944 259.974 166.312C260.598 166.664 261.254 166.84 261.942 166.84C262.646 166.84 263.302 166.664 263.91 166.312C264.518 165.96 265.006 165.448 265.374 164.776C265.758 164.088 265.95 163.288 265.95 162.376ZM277.104 169.216C276.064 169.216 275.128 169.032 274.296 168.664C273.48 168.28 272.832 167.768 272.352 167.128C271.872 166.472 271.616 165.744 271.584 164.944H274.416C274.464 165.504 274.728 165.976 275.208 166.36C275.704 166.728 276.32 166.912 277.056 166.912C277.824 166.912 278.416 166.768 278.832 166.48C279.264 166.176 279.48 165.792 279.48 165.328C279.48 164.832 279.24 164.464 278.76 164.224C278.296 163.984 277.552 163.72 276.528 163.432C275.536 163.16 274.728 162.896 274.104 162.64C273.48 162.384 272.936 161.992 272.472 161.464C272.024 160.936 271.8 160.24 271.8 159.376C271.8 158.672 272.008 158.032 272.424 157.456C272.84 156.864 273.432 156.4 274.2 156.064C274.984 155.728 275.88 155.56 276.888 155.56C278.392 155.56 279.6 155.944 280.512 156.712C281.44 157.464 281.936 158.496 282 159.808H279.264C279.216 159.216 278.976 158.744 278.544 158.392C278.112 158.04 277.528 157.864 276.792 157.864C276.072 157.864 275.52 158 275.136 158.272C274.752 158.544 274.56 158.904 274.56 159.352C274.56 159.704 274.688 160 274.944 160.24C275.2 160.48 275.512 160.672 275.88 160.816C276.248 160.944 276.792 161.112 277.512 161.32C278.472 161.576 279.256 161.84 279.864 162.112C280.488 162.368 281.024 162.752 281.472 163.264C281.92 163.776 282.152 164.456 282.168 165.304C282.168 166.056 281.96 166.728 281.544 167.32C281.128 167.912 280.536 168.376 279.768 168.712C279.016 169.048 278.128 169.216 277.104 169.216ZM298.031 155.56C299.071 155.56 299.999 155.776 300.815 156.208C301.647 156.64 302.295 157.28 302.759 158.128C303.223 158.976 303.455 160 303.455 161.2V169H300.743V161.608C300.743 160.424 300.447 159.52 299.855 158.896C299.263 158.256 298.455 157.936 297.431 157.936C296.407 157.936 295.591 158.256 294.983 158.896C294.391 159.52 294.095 160.424 294.095 161.608V169H291.359V155.776H294.095V157.288C294.543 156.744 295.111 156.32 295.799 156.016C296.503 155.712 297.247 155.56 298.031 155.56ZM306.033 162.328C306.033 161 306.305 159.824 306.849 158.8C307.409 157.776 308.161 156.984 309.105 156.424C310.065 155.848 311.121 155.56 312.273 155.56C313.313 155.56 314.217 155.768 314.985 156.184C315.769 156.584 316.393 157.088 316.857 157.696V155.776H319.617V169H316.857V167.032C316.393 167.656 315.761 168.176 314.961 168.592C314.161 169.008 313.249 169.216 312.225 169.216C311.089 169.216 310.049 168.928 309.105 168.352C308.161 167.76 307.409 166.944 306.849 165.904C306.305 164.848 306.033 163.656 306.033 162.328ZM316.857 162.376C316.857 161.464 316.665 160.672 316.281 160C315.913 159.328 315.425 158.816 314.817 158.464C314.209 158.112 313.553 157.936 312.849 157.936C312.145 157.936 311.489 158.112 310.881 158.464C310.273 158.8 309.777 159.304 309.393 159.976C309.025 160.632 308.841 161.416 308.841 162.328C308.841 163.24 309.025 164.04 309.393 164.728C309.777 165.416 310.273 165.944 310.881 166.312C311.505 166.664 312.161 166.84 312.849 166.84C313.553 166.84 314.209 166.664 314.817 166.312C315.425 165.96 315.913 165.448 316.281 164.776C316.665 164.088 316.857 163.288 316.857 162.376ZM328.01 169.216C326.97 169.216 326.034 169.032 325.202 168.664C324.386 168.28 323.738 167.768 323.258 167.128C322.778 166.472 322.522 165.744 322.49 164.944H325.322C325.37 165.504 325.634 165.976 326.114 166.36C326.61 166.728 327.226 166.912 327.962 166.912C328.73 166.912 329.322 166.768 329.738 166.48C330.17 166.176 330.386 165.792 330.386 165.328C330.386 164.832 330.146 164.464 329.666 164.224C329.202 163.984 328.458 163.72 327.434 163.432C326.442 163.16 325.634 162.896 325.01 162.64C324.386 162.384 323.842 161.992 323.378 161.464C322.93 160.936 322.706 160.24 322.706 159.376C322.706 158.672 322.914 158.032 323.33 157.456C323.746 156.864 324.338 156.4 325.106 156.064C325.89 155.728 326.786 155.56 327.794 155.56C329.298 155.56 330.506 155.944 331.418 156.712C332.346 157.464 332.842 158.496 332.906 159.808H330.17C330.122 159.216 329.882 158.744 329.45 158.392C329.018 158.04 328.434 157.864 327.698 157.864C326.978 157.864 326.426 158 326.042 158.272C325.658 158.544 325.466 158.904 325.466 159.352C325.466 159.704 325.594 160 325.85 160.24C326.106 160.48 326.418 160.672 326.786 160.816C327.154 160.944 327.698 161.112 328.418 161.32C329.378 161.576 330.162 161.84 330.77 162.112C331.394 162.368 331.93 162.752 332.378 163.264C332.826 163.776 333.058 164.456 333.074 165.304C333.074 166.056 332.866 166.728 332.45 167.32C332.034 167.912 331.442 168.376 330.674 168.712C329.922 169.048 329.034 169.216 328.01 169.216ZM74.0436 190.024C73.5476 190.024 73.1316 189.856 72.7956 189.52C72.4596 189.184 72.2916 188.768 72.2916 188.272C72.2916 187.776 72.4596 187.36 72.7956 187.024C73.1316 186.688 73.5476 186.52 74.0436 186.52C74.5236 186.52 74.9316 186.688 75.2676 187.024C75.6036 187.36 75.7716 187.776 75.7716 188.272C75.7716 188.768 75.6036 189.184 75.2676 189.52C74.9316 189.856 74.5236 190.024 74.0436 190.024ZM75.3876 207.592C75.3876 208.888 75.0596 209.824 74.4036 210.4C73.7636 210.992 72.8276 211.288 71.5956 211.288H70.1796V208.984H71.1156C71.6756 208.984 72.0676 208.872 72.2916 208.648C72.5316 208.44 72.6516 208.088 72.6516 207.592V191.776H75.3876V207.592ZM78.0677 198.328C78.0677 197 78.3397 195.824 78.8837 194.8C79.4437 193.776 80.1957 192.984 81.1397 192.424C82.0997 191.848 83.1557 191.56 84.3077 191.56C85.3477 191.56 86.2517 191.768 87.0197 192.184C87.8037 192.584 88.4277 193.088 88.8917 193.696V191.776H91.6517V205H88.8917V203.032C88.4277 203.656 87.7957 204.176 86.9957 204.592C86.1957 205.008 85.2837 205.216 84.2597 205.216C83.1237 205.216 82.0837 204.928 81.1397 204.352C80.1957 203.76 79.4437 202.944 78.8837 201.904C78.3397 200.848 78.0677 199.656 78.0677 198.328ZM88.8917 198.376C88.8917 197.464 88.6997 196.672 88.3157 196C87.9477 195.328 87.4597 194.816 86.8517 194.464C86.2437 194.112 85.5877 193.936 84.8837 193.936C84.1797 193.936 83.5237 194.112 82.9157 194.464C82.3077 194.8 81.8117 195.304 81.4277 195.976C81.0597 196.632 80.8757 197.416 80.8757 198.328C80.8757 199.24 81.0597 200.04 81.4277 200.728C81.8117 201.416 82.3077 201.944 82.9157 202.312C83.5397 202.664 84.1957 202.84 84.8837 202.84C85.5877 202.84 86.2437 202.664 86.8517 202.312C87.4597 201.96 87.9477 201.448 88.3157 200.776C88.6997 200.088 88.8917 199.288 88.8917 198.376ZM101.917 191.56C102.957 191.56 103.885 191.776 104.701 192.208C105.533 192.64 106.181 193.28 106.645 194.128C107.109 194.976 107.341 196 107.341 197.2V205H104.629V197.608C104.629 196.424 104.333 195.52 103.741 194.896C103.149 194.256 102.341 193.936 101.317 193.936C100.293 193.936 99.4773 194.256 98.8693 194.896C98.2773 195.52 97.9813 196.424 97.9813 197.608V205H95.2453V191.776H97.9813V193.288C98.4293 192.744 98.9973 192.32 99.6853 192.016C100.389 191.712 101.133 191.56 101.917 191.56ZM122.951 198.064C122.951 198.56 122.919 199.008 122.855 199.408H112.751C112.831 200.464 113.223 201.312 113.927 201.952C114.631 202.592 115.495 202.912 116.519 202.912C117.991 202.912 119.031 202.296 119.639 201.064H122.591C122.191 202.28 121.463 203.28 120.407 204.064C119.367 204.832 118.071 205.216 116.519 205.216C115.255 205.216 114.119 204.936 113.111 204.376C112.119 203.8 111.335 203 110.759 201.976C110.199 200.936 109.919 199.736 109.919 198.376C109.919 197.016 110.191 195.824 110.735 194.8C111.295 193.76 112.071 192.96 113.063 192.4C114.071 191.84 115.223 191.56 116.519 191.56C117.767 191.56 118.879 191.832 119.855 192.376C120.831 192.92 121.591 193.688 122.135 194.68C122.679 195.656 122.951 196.784 122.951 198.064ZM120.095 197.2C120.079 196.192 119.719 195.384 119.015 194.776C118.311 194.168 117.439 193.864 116.399 193.864C115.455 193.864 114.647 194.168 113.975 194.776C113.303 195.368 112.903 196.176 112.775 197.2H120.095ZM128.38 187.24V205H125.644V187.24H128.38ZM131.06 198.328C131.06 197 131.332 195.824 131.876 194.8C132.436 193.776 133.188 192.984 134.132 192.424C135.092 191.848 136.148 191.56 137.3 191.56C138.34 191.56 139.244 191.768 140.012 192.184C140.796 192.584 141.42 193.088 141.884 193.696V191.776H144.644V205H141.884V203.032C141.42 203.656 140.788 204.176 139.988 204.592C139.188 205.008 138.276 205.216 137.252 205.216C136.116 205.216 135.076 204.928 134.132 204.352C133.188 203.76 132.436 202.944 131.876 201.904C131.332 200.848 131.06 199.656 131.06 198.328ZM141.884 198.376C141.884 197.464 141.692 196.672 141.308 196C140.94 195.328 140.452 194.816 139.844 194.464C139.236 194.112 138.58 193.936 137.876 193.936C137.172 193.936 136.516 194.112 135.908 194.464C135.3 194.8 134.804 195.304 134.42 195.976C134.052 196.632 133.868 197.416 133.868 198.328C133.868 199.24 134.052 200.04 134.42 200.728C134.804 201.416 135.3 201.944 135.908 202.312C136.532 202.664 137.188 202.84 137.876 202.84C138.58 202.84 139.236 202.664 139.844 202.312C140.452 201.96 140.94 201.448 141.308 200.776C141.692 200.088 141.884 199.288 141.884 198.376ZM153.038 205.216C151.998 205.216 151.062 205.032 150.23 204.664C149.414 204.28 148.766 203.768 148.286 203.128C147.806 202.472 147.55 201.744 147.518 200.944H150.35C150.398 201.504 150.662 201.976 151.142 202.36C151.638 202.728 152.254 202.912 152.99 202.912C153.758 202.912 154.35 202.768 154.766 202.48C155.198 202.176 155.414 201.792 155.414 201.328C155.414 200.832 155.174 200.464 154.694 200.224C154.23 199.984 153.486 199.72 152.462 199.432C151.47 199.16 150.662 198.896 150.038 198.64C149.414 198.384 148.87 197.992 148.406 197.464C147.958 196.936 147.734 196.24 147.734 195.376C147.734 194.672 147.942 194.032 148.358 193.456C148.774 192.864 149.366 192.4 150.134 192.064C150.918 191.728 151.814 191.56 152.822 191.56C154.326 191.56 155.534 191.944 156.446 192.712C157.374 193.464 157.87 194.496 157.934 195.808H155.198C155.15 195.216 154.91 194.744 154.478 194.392C154.046 194.04 153.462 193.864 152.726 193.864C152.006 193.864 151.454 194 151.07 194.272C150.686 194.544 150.494 194.904 150.494 195.352C150.494 195.704 150.622 196 150.878 196.24C151.134 196.48 151.446 196.672 151.814 196.816C152.182 196.944 152.726 197.112 153.446 197.32C154.406 197.576 155.19 197.84 155.798 198.112C156.422 198.368 156.958 198.752 157.406 199.264C157.854 199.776 158.086 200.456 158.102 201.304C158.102 202.056 157.894 202.728 157.478 203.32C157.062 203.912 156.47 204.376 155.702 204.712C154.95 205.048 154.062 205.216 153.038 205.216ZM166.38 198.328C166.38 197 166.652 195.824 167.196 194.8C167.756 193.776 168.508 192.984 169.452 192.424C170.412 191.848 171.476 191.56 172.644 191.56C173.508 191.56 174.356 191.752 175.188 192.136C176.036 192.504 176.708 193 177.204 193.624V187.24H179.964V205H177.204V203.008C176.756 203.648 176.132 204.176 175.332 204.592C174.548 205.008 173.644 205.216 172.62 205.216C171.468 205.216 170.412 204.928 169.452 204.352C168.508 203.76 167.756 202.944 167.196 201.904C166.652 200.848 166.38 199.656 166.38 198.328ZM177.204 198.376C177.204 197.464 177.012 196.672 176.628 196C176.26 195.328 175.772 194.816 175.164 194.464C174.556 194.112 173.9 193.936 173.196 193.936C172.492 193.936 171.836 194.112 171.228 194.464C170.62 194.8 170.124 195.304 169.74 195.976C169.372 196.632 169.188 197.416 169.188 198.328C169.188 199.24 169.372 200.04 169.74 200.728C170.124 201.416 170.62 201.944 171.228 202.312C171.852 202.664 172.508 202.84 173.196 202.84C173.9 202.84 174.556 202.664 175.164 202.312C175.772 201.96 176.26 201.448 176.628 200.776C177.012 200.088 177.204 199.288 177.204 198.376ZM182.646 198.328C182.646 197 182.918 195.824 183.462 194.8C184.022 193.776 184.774 192.984 185.718 192.424C186.678 191.848 187.734 191.56 188.886 191.56C189.926 191.56 190.83 191.768 191.598 192.184C192.382 192.584 193.006 193.088 193.47 193.696V191.776H196.23V205H193.47V203.032C193.006 203.656 192.374 204.176 191.574 204.592C190.774 205.008 189.862 205.216 188.838 205.216C187.702 205.216 186.662 204.928 185.718 204.352C184.774 203.76 184.022 202.944 183.462 201.904C182.918 200.848 182.646 199.656 182.646 198.328ZM193.47 198.376C193.47 197.464 193.278 196.672 192.894 196C192.526 195.328 192.038 194.816 191.43 194.464C190.822 194.112 190.166 193.936 189.462 193.936C188.758 193.936 188.102 194.112 187.494 194.464C186.886 194.8 186.39 195.304 186.006 195.976C185.638 196.632 185.454 197.416 185.454 198.328C185.454 199.24 185.638 200.04 186.006 200.728C186.39 201.416 186.886 201.944 187.494 202.312C188.118 202.664 188.774 202.84 189.462 202.84C190.166 202.84 190.822 202.664 191.43 202.312C192.038 201.96 192.526 201.448 192.894 200.776C193.278 200.088 193.47 199.288 193.47 198.376ZM210.858 205.216C209.818 205.216 208.882 205.032 208.05 204.664C207.234 204.28 206.586 203.768 206.106 203.128C205.626 202.472 205.37 201.744 205.338 200.944H208.17C208.218 201.504 208.482 201.976 208.962 202.36C209.458 202.728 210.074 202.912 210.81 202.912C211.578 202.912 212.17 202.768 212.586 202.48C213.018 202.176 213.234 201.792 213.234 201.328C213.234 200.832 212.994 200.464 212.514 200.224C212.05 199.984 211.306 199.72 210.282 199.432C209.29 199.16 208.482 198.896 207.858 198.64C207.234 198.384 206.69 197.992 206.226 197.464C205.778 196.936 205.554 196.24 205.554 195.376C205.554 194.672 205.762 194.032 206.178 193.456C206.594 192.864 207.186 192.4 207.954 192.064C208.738 191.728 209.634 191.56 210.642 191.56C212.146 191.56 213.354 191.944 214.266 192.712C215.194 193.464 215.69 194.496 215.754 195.808H213.018C212.97 195.216 212.73 194.744 212.298 194.392C211.866 194.04 211.282 193.864 210.546 193.864C209.826 193.864 209.274 194 208.89 194.272C208.506 194.544 208.314 194.904 208.314 195.352C208.314 195.704 208.442 196 208.698 196.24C208.954 196.48 209.266 196.672 209.634 196.816C210.002 196.944 210.546 197.112 211.266 197.32C212.226 197.576 213.01 197.84 213.618 198.112C214.242 198.368 214.778 198.752 215.226 199.264C215.674 199.776 215.906 200.456 215.922 201.304C215.922 202.056 215.714 202.728 215.298 203.32C214.882 203.912 214.29 204.376 213.522 204.712C212.77 205.048 211.882 205.216 210.858 205.216ZM230.854 191.776V205H228.118V203.44C227.686 203.984 227.118 204.416 226.414 204.736C225.726 205.04 224.99 205.192 224.206 205.192C223.166 205.192 222.23 204.976 221.398 204.544C220.582 204.112 219.934 203.472 219.454 202.624C218.99 201.776 218.758 200.752 218.758 199.552V191.776H221.47V199.144C221.47 200.328 221.766 201.24 222.358 201.88C222.95 202.504 223.758 202.816 224.782 202.816C225.806 202.816 226.614 202.504 227.206 201.88C227.814 201.24 228.118 200.328 228.118 199.144V191.776H230.854ZM233.552 198.328C233.552 197 233.824 195.824 234.368 194.8C234.928 193.776 235.68 192.984 236.624 192.424C237.584 191.848 238.64 191.56 239.792 191.56C240.832 191.56 241.736 191.768 242.504 192.184C243.288 192.584 243.912 193.088 244.376 193.696V191.776H247.136V205H244.376V203.032C243.912 203.656 243.28 204.176 242.48 204.592C241.68 205.008 240.768 205.216 239.744 205.216C238.608 205.216 237.568 204.928 236.624 204.352C235.68 203.76 234.928 202.944 234.368 201.904C233.824 200.848 233.552 199.656 233.552 198.328ZM244.376 198.376C244.376 197.464 244.184 196.672 243.8 196C243.432 195.328 242.944 194.816 242.336 194.464C241.728 194.112 241.072 193.936 240.368 193.936C239.664 193.936 239.008 194.112 238.4 194.464C237.792 194.8 237.296 195.304 236.912 195.976C236.544 196.632 236.36 197.416 236.36 198.328C236.36 199.24 236.544 200.04 236.912 200.728C237.296 201.416 237.792 201.944 238.4 202.312C239.024 202.664 239.68 202.84 240.368 202.84C241.072 202.84 241.728 202.664 242.336 202.312C242.944 201.96 243.432 201.448 243.8 200.776C244.184 200.088 244.376 199.288 244.376 198.376ZM256.052 198.376C256.052 197.016 256.324 195.824 256.868 194.8C257.428 193.76 258.196 192.96 259.172 192.4C260.148 191.84 261.268 191.56 262.532 191.56C264.132 191.56 265.452 191.944 266.492 192.712C267.548 193.464 268.26 194.544 268.628 195.952H265.676C265.436 195.296 265.052 194.784 264.524 194.416C263.996 194.048 263.332 193.864 262.532 193.864C261.412 193.864 260.516 194.264 259.844 195.064C259.188 195.848 258.86 196.952 258.86 198.376C258.86 199.8 259.188 200.912 259.844 201.712C260.516 202.512 261.412 202.912 262.532 202.912C264.116 202.912 265.164 202.216 265.676 200.824H268.628C268.244 202.168 267.524 203.24 266.468 204.04C265.412 204.824 264.1 205.216 262.532 205.216C261.268 205.216 260.148 204.936 259.172 204.376C258.196 203.8 257.428 203 256.868 201.976C256.324 200.936 256.052 199.736 256.052 198.376ZM270.443 198.328C270.443 197 270.715 195.824 271.259 194.8C271.819 193.776 272.571 192.984 273.515 192.424C274.475 191.848 275.531 191.56 276.683 191.56C277.723 191.56 278.627 191.768 279.395 192.184C280.179 192.584 280.803 193.088 281.267 193.696V191.776H284.027V205H281.267V203.032C280.803 203.656 280.171 204.176 279.371 204.592C278.571 205.008 277.659 205.216 276.635 205.216C275.499 205.216 274.459 204.928 273.515 204.352C272.571 203.76 271.819 202.944 271.259 201.904C270.715 200.848 270.443 199.656 270.443 198.328ZM281.267 198.376C281.267 197.464 281.075 196.672 280.691 196C280.323 195.328 279.835 194.816 279.227 194.464C278.619 194.112 277.963 193.936 277.259 193.936C276.555 193.936 275.899 194.112 275.291 194.464C274.683 194.8 274.187 195.304 273.803 195.976C273.435 196.632 273.251 197.416 273.251 198.328C273.251 199.24 273.435 200.04 273.803 200.728C274.187 201.416 274.683 201.944 275.291 202.312C275.915 202.664 276.571 202.84 277.259 202.84C277.963 202.84 278.619 202.664 279.227 202.312C279.835 201.96 280.323 201.448 280.691 200.776C281.075 200.088 281.267 199.288 281.267 198.376ZM292.42 205.216C291.38 205.216 290.444 205.032 289.612 204.664C288.796 204.28 288.148 203.768 287.668 203.128C287.188 202.472 286.932 201.744 286.9 200.944H289.732C289.78 201.504 290.044 201.976 290.524 202.36C291.02 202.728 291.636 202.912 292.372 202.912C293.14 202.912 293.732 202.768 294.148 202.48C294.58 202.176 294.796 201.792 294.796 201.328C294.796 200.832 294.556 200.464 294.076 200.224C293.612 199.984 292.868 199.72 291.844 199.432C290.852 199.16 290.044 198.896 289.42 198.64C288.796 198.384 288.252 197.992 287.788 197.464C287.34 196.936 287.116 196.24 287.116 195.376C287.116 194.672 287.324 194.032 287.74 193.456C288.156 192.864 288.748 192.4 289.516 192.064C290.3 191.728 291.196 191.56 292.204 191.56C293.708 191.56 294.916 191.944 295.828 192.712C296.756 193.464 297.252 194.496 297.316 195.808H294.58C294.532 195.216 294.292 194.744 293.86 194.392C293.428 194.04 292.844 193.864 292.108 193.864C291.388 193.864 290.836 194 290.452 194.272C290.068 194.544 289.876 194.904 289.876 195.352C289.876 195.704 290.004 196 290.26 196.24C290.516 196.48 290.828 196.672 291.196 196.816C291.564 196.944 292.108 197.112 292.828 197.32C293.788 197.576 294.572 197.84 295.18 198.112C295.804 198.368 296.34 198.752 296.788 199.264C297.236 199.776 297.468 200.456 297.484 201.304C297.484 202.056 297.276 202.728 296.86 203.32C296.444 203.912 295.852 204.376 295.084 204.712C294.332 205.048 293.444 205.216 292.42 205.216ZM299.529 198.328C299.529 197 299.801 195.824 300.345 194.8C300.905 193.776 301.657 192.984 302.601 192.424C303.561 191.848 304.617 191.56 305.769 191.56C306.809 191.56 307.713 191.768 308.481 192.184C309.265 192.584 309.889 193.088 310.353 193.696V191.776H313.113V205H310.353V203.032C309.889 203.656 309.257 204.176 308.457 204.592C307.657 205.008 306.745 205.216 305.721 205.216C304.585 205.216 303.545 204.928 302.601 204.352C301.657 203.76 300.905 202.944 300.345 201.904C299.801 200.848 299.529 199.656 299.529 198.328ZM310.353 198.376C310.353 197.464 310.161 196.672 309.777 196C309.409 195.328 308.921 194.816 308.313 194.464C307.705 194.112 307.049 193.936 306.345 193.936C305.641 193.936 304.985 194.112 304.377 194.464C303.769 194.8 303.273 195.304 302.889 195.976C302.521 196.632 302.337 197.416 302.337 198.328C302.337 199.24 302.521 200.04 302.889 200.728C303.273 201.416 303.769 201.944 304.377 202.312C305.001 202.664 305.657 202.84 306.345 202.84C307.049 202.84 307.705 202.664 308.313 202.312C308.921 201.96 309.409 201.448 309.777 200.776C310.161 200.088 310.353 199.288 310.353 198.376ZM325.677 193.72C326.141 193.112 326.773 192.6 327.573 192.184C328.373 191.768 329.277 191.56 330.285 191.56C331.437 191.56 332.485 191.848 333.429 192.424C334.389 192.984 335.141 193.776 335.685 194.8C336.229 195.824 336.501 197 336.501 198.328C336.501 199.656 336.229 200.848 335.685 201.904C335.141 202.944 334.389 203.76 333.429 204.352C332.485 204.928 331.437 205.216 330.285 205.216C329.277 205.216 328.381 205.016 327.597 204.616C326.813 204.2 326.173 203.688 325.677 203.08V211.288H322.941V191.776H325.677V193.72ZM333.717 198.328C333.717 197.416 333.525 196.632 333.141 195.976C332.773 195.304 332.277 194.8 331.653 194.464C331.045 194.112 330.389 193.936 329.685 193.936C328.997 193.936 328.341 194.112 327.717 194.464C327.109 194.816 326.613 195.328 326.229 196C325.861 196.672 325.677 197.464 325.677 198.376C325.677 199.288 325.861 200.088 326.229 200.776C326.613 201.448 327.109 201.96 327.717 202.312C328.341 202.664 328.997 202.84 329.685 202.84C330.389 202.84 331.045 202.664 331.653 202.312C332.277 201.944 332.773 201.416 333.141 200.728C333.525 200.04 333.717 199.24 333.717 198.328ZM338.294 198.328C338.294 197 338.566 195.824 339.11 194.8C339.67 193.776 340.422 192.984 341.366 192.424C342.326 191.848 343.382 191.56 344.534 191.56C345.574 191.56 346.478 191.768 347.246 192.184C348.03 192.584 348.654 193.088 349.118 193.696V191.776H351.878V205H349.118V203.032C348.654 203.656 348.022 204.176 347.222 204.592C346.422 205.008 345.51 205.216 344.486 205.216C343.35 205.216 342.31 204.928 341.366 204.352C340.422 203.76 339.67 202.944 339.11 201.904C338.566 200.848 338.294 199.656 338.294 198.328ZM349.118 198.376C349.118 197.464 348.926 196.672 348.542 196C348.174 195.328 347.686 194.816 347.078 194.464C346.47 194.112 345.814 193.936 345.11 193.936C344.406 193.936 343.75 194.112 343.142 194.464C342.534 194.8 342.038 195.304 341.654 195.976C341.286 196.632 341.102 197.416 341.102 198.328C341.102 199.24 341.286 200.04 341.654 200.728C342.038 201.416 342.534 201.944 343.142 202.312C343.766 202.664 344.422 202.84 345.11 202.84C345.814 202.84 346.47 202.664 347.078 202.312C347.686 201.96 348.174 201.448 348.542 200.776C348.926 200.088 349.118 199.288 349.118 198.376ZM358.208 193.696C358.608 193.024 359.136 192.504 359.792 192.136C360.464 191.752 361.256 191.56 362.168 191.56V194.392H361.472C360.4 194.392 359.584 194.664 359.024 195.208C358.48 195.752 358.208 196.696 358.208 198.04V205H355.472V191.776H358.208V193.696ZM363.771 198.328C363.771 197 364.043 195.824 364.587 194.8C365.147 193.776 365.899 192.984 366.843 192.424C367.803 191.848 368.859 191.56 370.011 191.56C371.051 191.56 371.955 191.768 372.723 192.184C373.507 192.584 374.131 193.088 374.595 193.696V191.776H377.355V205H374.595V203.032C374.131 203.656 373.499 204.176 372.699 204.592C371.899 205.008 370.987 205.216 369.963 205.216C368.827 205.216 367.787 204.928 366.843 204.352C365.899 203.76 365.147 202.944 364.587 201.904C364.043 200.848 363.771 199.656 363.771 198.328ZM374.595 198.376C374.595 197.464 374.403 196.672 374.019 196C373.651 195.328 373.163 194.816 372.555 194.464C371.947 194.112 371.291 193.936 370.587 193.936C369.883 193.936 369.227 194.112 368.619 194.464C368.011 194.8 367.515 195.304 367.131 195.976C366.763 196.632 366.579 197.416 366.579 198.328C366.579 199.24 366.763 200.04 367.131 200.728C367.515 201.416 368.011 201.944 368.619 202.312C369.243 202.664 369.899 202.84 370.587 202.84C371.291 202.84 371.947 202.664 372.555 202.312C373.163 201.96 373.651 201.448 374.019 200.776C374.403 200.088 374.595 199.288 374.595 198.376ZM84.2257 227.56C85.2497 227.56 86.1537 227.768 86.9377 228.184C87.7377 228.584 88.3617 229.088 88.8097 229.696V227.776H91.5697V241.216C91.5697 242.432 91.3137 243.512 90.8017 244.456C90.2897 245.416 89.5457 246.168 88.5697 246.712C87.6097 247.256 86.4577 247.528 85.1137 247.528C83.3217 247.528 81.8337 247.104 80.6497 246.256C79.4657 245.424 78.7937 244.288 78.6337 242.848H81.3457C81.5537 243.536 81.9937 244.088 82.6657 244.504C83.3537 244.936 84.1697 245.152 85.1137 245.152C86.2177 245.152 87.1057 244.816 87.7777 244.144C88.4657 243.472 88.8097 242.496 88.8097 241.216V239.008C88.3457 239.632 87.7137 240.16 86.9137 240.592C86.1297 241.008 85.2337 241.216 84.2257 241.216C83.0737 241.216 82.0177 240.928 81.0577 240.352C80.1137 239.76 79.3617 238.944 78.8017 237.904C78.2577 236.848 77.9857 235.656 77.9857 234.328C77.9857 233 78.2577 231.824 78.8017 230.8C79.3617 229.776 80.1137 228.984 81.0577 228.424C82.0177 227.848 83.0737 227.56 84.2257 227.56ZM88.8097 234.376C88.8097 233.464 88.6177 232.672 88.2337 232C87.8657 231.328 87.3777 230.816 86.7697 230.464C86.1617 230.112 85.5057 229.936 84.8017 229.936C84.0977 229.936 83.4417 230.112 82.8337 230.464C82.2257 230.8 81.7297 231.304 81.3457 231.976C80.9777 232.632 80.7937 233.416 80.7937 234.328C80.7937 235.24 80.9777 236.04 81.3457 236.728C81.7297 237.416 82.2257 237.944 82.8337 238.312C83.4577 238.664 84.1137 238.84 84.8017 238.84C85.5057 238.84 86.1617 238.664 86.7697 238.312C87.3777 237.96 87.8657 237.448 88.2337 236.776C88.6177 236.088 88.8097 235.288 88.8097 234.376ZM94.2513 234.328C94.2513 233 94.5233 231.824 95.0673 230.8C95.6273 229.776 96.3793 228.984 97.3233 228.424C98.2833 227.848 99.3393 227.56 100.491 227.56C101.531 227.56 102.435 227.768 103.203 228.184C103.987 228.584 104.611 229.088 105.075 229.696V227.776H107.835V241H105.075V239.032C104.611 239.656 103.979 240.176 103.179 240.592C102.379 241.008 101.467 241.216 100.443 241.216C99.3073 241.216 98.2673 240.928 97.3233 240.352C96.3793 239.76 95.6273 238.944 95.0673 237.904C94.5233 236.848 94.2513 235.656 94.2513 234.328ZM105.075 234.376C105.075 233.464 104.883 232.672 104.499 232C104.131 231.328 103.643 230.816 103.035 230.464C102.427 230.112 101.771 229.936 101.067 229.936C100.363 229.936 99.7073 230.112 99.0993 230.464C98.4913 230.8 97.9953 231.304 97.6113 231.976C97.2433 232.632 97.0593 233.416 97.0593 234.328C97.0593 235.24 97.2433 236.04 97.6113 236.728C97.9953 237.416 98.4913 237.944 99.0993 238.312C99.7233 238.664 100.379 238.84 101.067 238.84C101.771 238.84 102.427 238.664 103.035 238.312C103.643 237.96 104.131 237.448 104.499 236.776C104.883 236.088 105.075 235.288 105.075 234.376ZM114.165 229.696C114.565 229.024 115.093 228.504 115.749 228.136C116.421 227.752 117.213 227.56 118.125 227.56V230.392H117.429C116.357 230.392 115.541 230.664 114.981 231.208C114.437 231.752 114.165 232.696 114.165 234.04V241H111.429V227.776H114.165V229.696ZM119.728 234.328C119.728 233 120 231.824 120.544 230.8C121.104 229.776 121.856 228.984 122.8 228.424C123.76 227.848 124.816 227.56 125.968 227.56C127.008 227.56 127.912 227.768 128.68 228.184C129.464 228.584 130.088 229.088 130.552 229.696V227.776H133.312V241H130.552V239.032C130.088 239.656 129.456 240.176 128.656 240.592C127.856 241.008 126.944 241.216 125.92 241.216C124.784 241.216 123.744 240.928 122.8 240.352C121.856 239.76 121.104 238.944 120.544 237.904C120 236.848 119.728 235.656 119.728 234.328ZM130.552 234.376C130.552 233.464 130.36 232.672 129.976 232C129.608 231.328 129.12 230.816 128.512 230.464C127.904 230.112 127.248 229.936 126.544 229.936C125.84 229.936 125.184 230.112 124.576 230.464C123.968 230.8 123.472 231.304 123.088 231.976C122.72 232.632 122.536 233.416 122.536 234.328C122.536 235.24 122.72 236.04 123.088 236.728C123.472 237.416 123.968 237.944 124.576 238.312C125.2 238.664 125.856 238.84 126.544 238.84C127.248 238.84 127.904 238.664 128.512 238.312C129.12 237.96 129.608 237.448 129.976 236.776C130.36 236.088 130.552 235.288 130.552 234.376ZM143.577 227.56C144.617 227.56 145.545 227.776 146.361 228.208C147.193 228.64 147.841 229.28 148.305 230.128C148.769 230.976 149.001 232 149.001 233.2V241H146.289V233.608C146.289 232.424 145.993 231.52 145.401 230.896C144.809 230.256 144.001 229.936 142.977 229.936C141.953 229.936 141.137 230.256 140.529 230.896C139.937 231.52 139.641 232.424 139.641 233.608V241H136.905V227.776H139.641V229.288C140.089 228.744 140.657 228.32 141.345 228.016C142.049 227.712 142.793 227.56 143.577 227.56ZM155.683 230.008V237.328C155.683 237.824 155.795 238.184 156.019 238.408C156.259 238.616 156.659 238.72 157.219 238.72H158.899V241H156.739C155.507 241 154.563 240.712 153.907 240.136C153.251 239.56 152.923 238.624 152.923 237.328V230.008H151.363V227.776H152.923V224.488H155.683V227.776H158.899V230.008H155.683ZM162.813 226.024C162.317 226.024 161.901 225.856 161.565 225.52C161.229 225.184 161.061 224.768 161.061 224.272C161.061 223.776 161.229 223.36 161.565 223.024C161.901 222.688 162.317 222.52 162.813 222.52C163.293 222.52 163.701 222.688 164.037 223.024C164.373 223.36 164.541 223.776 164.541 224.272C164.541 224.768 164.373 225.184 164.037 225.52C163.701 225.856 163.293 226.024 162.813 226.024ZM164.157 227.776V241H161.421V227.776H164.157ZM170.485 229.696C170.885 229.024 171.413 228.504 172.069 228.136C172.741 227.752 173.533 227.56 174.445 227.56V230.392H173.749C172.677 230.392 171.861 230.664 171.301 231.208C170.757 231.752 170.485 232.696 170.485 234.04V241H167.749V227.776H170.485V229.696ZM182.283 234.328C182.283 233 182.555 231.824 183.099 230.8C183.659 229.776 184.411 228.984 185.355 228.424C186.315 227.848 187.371 227.56 188.523 227.56C189.563 227.56 190.467 227.768 191.235 228.184C192.019 228.584 192.643 229.088 193.107 229.696V227.776H195.867V241H193.107V239.032C192.643 239.656 192.011 240.176 191.211 240.592C190.411 241.008 189.499 241.216 188.475 241.216C187.339 241.216 186.299 240.928 185.355 240.352C184.411 239.76 183.659 238.944 183.099 237.904C182.555 236.848 182.283 235.656 182.283 234.328ZM193.107 234.376C193.107 233.464 192.915 232.672 192.531 232C192.163 231.328 191.675 230.816 191.067 230.464C190.459 230.112 189.803 229.936 189.099 229.936C188.395 229.936 187.739 230.112 187.131 230.464C186.523 230.8 186.027 231.304 185.643 231.976C185.275 232.632 185.091 233.416 185.091 234.328C185.091 235.24 185.275 236.04 185.643 236.728C186.027 237.416 186.523 237.944 187.131 238.312C187.755 238.664 188.411 238.84 189.099 238.84C189.803 238.84 190.459 238.664 191.067 238.312C191.675 237.96 192.163 237.448 192.531 236.776C192.915 236.088 193.107 235.288 193.107 234.376ZM210.495 241.216C209.455 241.216 208.519 241.032 207.687 240.664C206.871 240.28 206.223 239.768 205.743 239.128C205.263 238.472 205.007 237.744 204.975 236.944H207.807C207.855 237.504 208.119 237.976 208.599 238.36C209.095 238.728 209.711 238.912 210.447 238.912C211.215 238.912 211.807 238.768 212.223 238.48C212.655 238.176 212.871 237.792 212.871 237.328C212.871 236.832 212.631 236.464 212.151 236.224C211.687 235.984 210.943 235.72 209.919 235.432C208.927 235.16 208.119 234.896 207.495 234.64C206.871 234.384 206.327 233.992 205.863 233.464C205.415 232.936 205.191 232.24 205.191 231.376C205.191 230.672 205.399 230.032 205.815 229.456C206.231 228.864 206.823 228.4 207.591 228.064C208.375 227.728 209.271 227.56 210.279 227.56C211.783 227.56 212.991 227.944 213.903 228.712C214.831 229.464 215.327 230.496 215.391 231.808H212.655C212.607 231.216 212.367 230.744 211.935 230.392C211.503 230.04 210.919 229.864 210.183 229.864C209.463 229.864 208.911 230 208.527 230.272C208.143 230.544 207.951 230.904 207.951 231.352C207.951 231.704 208.079 232 208.335 232.24C208.591 232.48 208.903 232.672 209.271 232.816C209.639 232.944 210.183 233.112 210.903 233.32C211.863 233.576 212.647 233.84 213.255 234.112C213.879 234.368 214.415 234.752 214.863 235.264C215.311 235.776 215.543 236.456 215.559 237.304C215.559 238.056 215.351 238.728 214.935 239.32C214.519 239.912 213.927 240.376 213.159 240.712C212.407 241.048 211.519 241.216 210.495 241.216ZM230.635 234.064C230.635 234.56 230.603 235.008 230.539 235.408H220.435C220.515 236.464 220.907 237.312 221.611 237.952C222.315 238.592 223.179 238.912 224.203 238.912C225.675 238.912 226.715 238.296 227.323 237.064H230.275C229.875 238.28 229.147 239.28 228.091 240.064C227.051 240.832 225.755 241.216 224.203 241.216C222.939 241.216 221.803 240.936 220.795 240.376C219.803 239.8 219.019 239 218.443 237.976C217.883 236.936 217.603 235.736 217.603 234.376C217.603 233.016 217.875 231.824 218.419 230.8C218.979 229.76 219.755 228.96 220.747 228.4C221.755 227.84 222.907 227.56 224.203 227.56C225.451 227.56 226.563 227.832 227.539 228.376C228.515 228.92 229.275 229.688 229.819 230.68C230.363 231.656 230.635 232.784 230.635 234.064ZM227.779 233.2C227.763 232.192 227.403 231.384 226.699 230.776C225.995 230.168 225.123 229.864 224.083 229.864C223.139 229.864 222.331 230.168 221.659 230.776C220.987 231.368 220.587 232.176 220.459 233.2H227.779ZM238.655 227.56C239.679 227.56 240.583 227.768 241.367 228.184C242.167 228.584 242.791 229.088 243.239 229.696V227.776H245.999V241.216C245.999 242.432 245.743 243.512 245.231 244.456C244.719 245.416 243.975 246.168 242.999 246.712C242.039 247.256 240.887 247.528 239.543 247.528C237.751 247.528 236.263 247.104 235.079 246.256C233.895 245.424 233.223 244.288 233.063 242.848H235.775C235.983 243.536 236.423 244.088 237.095 244.504C237.783 244.936 238.599 245.152 239.543 245.152C240.647 245.152 241.535 244.816 242.207 244.144C242.895 243.472 243.239 242.496 243.239 241.216V239.008C242.775 239.632 242.143 240.16 241.343 240.592C240.559 241.008 239.663 241.216 238.655 241.216C237.503 241.216 236.447 240.928 235.487 240.352C234.543 239.76 233.791 238.944 233.231 237.904C232.687 236.848 232.415 235.656 232.415 234.328C232.415 233 232.687 231.824 233.231 230.8C233.791 229.776 234.543 228.984 235.487 228.424C236.447 227.848 237.503 227.56 238.655 227.56ZM243.239 234.376C243.239 233.464 243.047 232.672 242.663 232C242.295 231.328 241.807 230.816 241.199 230.464C240.591 230.112 239.935 229.936 239.231 229.936C238.527 229.936 237.871 230.112 237.263 230.464C236.655 230.8 236.159 231.304 235.775 231.976C235.407 232.632 235.223 233.416 235.223 234.328C235.223 235.24 235.407 236.04 235.775 236.728C236.159 237.416 236.655 237.944 237.263 238.312C237.887 238.664 238.543 238.84 239.231 238.84C239.935 238.84 240.591 238.664 241.199 238.312C241.807 237.96 242.295 237.448 242.663 236.776C243.047 236.088 243.239 235.288 243.239 234.376ZM261.569 227.776V241H258.833V239.44C258.401 239.984 257.833 240.416 257.129 240.736C256.441 241.04 255.705 241.192 254.921 241.192C253.881 241.192 252.945 240.976 252.113 240.544C251.297 240.112 250.649 239.472 250.169 238.624C249.705 237.776 249.473 236.752 249.473 235.552V227.776H252.185V235.144C252.185 236.328 252.481 237.24 253.073 237.88C253.665 238.504 254.473 238.816 255.497 238.816C256.521 238.816 257.329 238.504 257.921 237.88C258.529 237.24 258.833 236.328 258.833 235.144V227.776H261.569ZM267.915 229.696C268.315 229.024 268.843 228.504 269.499 228.136C270.171 227.752 270.963 227.56 271.875 227.56V230.392H271.179C270.107 230.392 269.291 230.664 268.731 231.208C268.187 231.752 267.915 232.696 267.915 234.04V241H265.179V227.776H267.915V229.696ZM273.478 234.328C273.478 233 273.75 231.824 274.294 230.8C274.854 229.776 275.606 228.984 276.55 228.424C277.51 227.848 278.566 227.56 279.718 227.56C280.758 227.56 281.662 227.768 282.43 228.184C283.214 228.584 283.838 229.088 284.302 229.696V227.776H287.062V241H284.302V239.032C283.838 239.656 283.206 240.176 282.406 240.592C281.606 241.008 280.694 241.216 279.67 241.216C278.534 241.216 277.494 240.928 276.55 240.352C275.606 239.76 274.854 238.944 274.294 237.904C273.75 236.848 273.478 235.656 273.478 234.328ZM284.302 234.376C284.302 233.464 284.11 232.672 283.726 232C283.358 231.328 282.87 230.816 282.262 230.464C281.654 230.112 280.998 229.936 280.294 229.936C279.59 229.936 278.934 230.112 278.326 230.464C277.718 230.8 277.222 231.304 276.838 231.976C276.47 232.632 276.286 233.416 276.286 234.328C276.286 235.24 276.47 236.04 276.838 236.728C277.222 237.416 277.718 237.944 278.326 238.312C278.95 238.664 279.606 238.84 280.294 238.84C280.998 238.84 281.654 238.664 282.262 238.312C282.87 237.96 283.358 237.448 283.726 236.776C284.11 236.088 284.302 235.288 284.302 234.376ZM297.327 227.56C298.367 227.56 299.295 227.776 300.111 228.208C300.943 228.64 301.591 229.28 302.055 230.128C302.519 230.976 302.751 232 302.751 233.2V241H300.039V233.608C300.039 232.424 299.743 231.52 299.151 230.896C298.559 230.256 297.751 229.936 296.727 229.936C295.703 229.936 294.887 230.256 294.279 230.896C293.687 231.52 293.391 232.424 293.391 233.608V241H290.655V227.776H293.391V229.288C293.839 228.744 294.407 228.32 295.095 228.016C295.799 227.712 296.543 227.56 297.327 227.56ZM311.809 238.912C313.393 238.912 314.441 238.216 314.953 236.824H317.905C317.553 238.04 316.921 239.04 316.009 239.824C315.113 240.592 313.985 241.04 312.625 241.168V242.152C313.553 242.152 314.305 242.368 314.881 242.8C315.457 243.248 315.745 243.872 315.745 244.672C315.745 245.472 315.457 246.104 314.881 246.568C314.305 247.048 313.577 247.288 312.697 247.288H309.529V245.56H312.145C312.593 245.56 312.929 245.496 313.153 245.368C313.377 245.24 313.489 245.008 313.489 244.672C313.489 244.336 313.377 244.104 313.153 243.976C312.929 243.848 312.593 243.784 312.145 243.784H310.825V241.144C309.737 241.016 308.777 240.656 307.945 240.064C307.113 239.456 306.465 238.672 306.001 237.712C305.553 236.736 305.329 235.624 305.329 234.376C305.329 233.016 305.601 231.824 306.145 230.8C306.705 229.76 307.473 228.96 308.449 228.4C309.425 227.84 310.545 227.56 311.809 227.56C313.409 227.56 314.729 227.944 315.769 228.712C316.825 229.464 317.537 230.544 317.905 231.952H314.953C314.713 231.296 314.329 230.784 313.801 230.416C313.273 230.048 312.609 229.864 311.809 229.864C310.689 229.864 309.793 230.264 309.121 231.064C308.465 231.848 308.137 232.952 308.137 234.376C308.137 235.8 308.465 236.912 309.121 237.712C309.793 238.512 310.689 238.912 311.809 238.912ZM319.72 234.328C319.72 233 319.992 231.824 320.536 230.8C321.096 229.776 321.848 228.984 322.792 228.424C323.752 227.848 324.808 227.56 325.96 227.56C327 227.56 327.904 227.768 328.672 228.184C329.456 228.584 330.08 229.088 330.544 229.696V227.776H333.304V241H330.544V239.032C330.08 239.656 329.448 240.176 328.648 240.592C327.848 241.008 326.936 241.216 325.912 241.216C324.776 241.216 323.736 240.928 322.792 240.352C321.848 239.76 321.096 238.944 320.536 237.904C319.992 236.848 319.72 235.656 319.72 234.328ZM330.544 234.376C330.544 233.464 330.352 232.672 329.968 232C329.6 231.328 329.112 230.816 328.504 230.464C327.896 230.112 327.24 229.936 326.536 229.936C325.832 229.936 325.176 230.112 324.568 230.464C323.96 230.8 323.464 231.304 323.08 231.976C322.712 232.632 322.528 233.416 322.528 234.328C322.528 235.24 322.712 236.04 323.08 236.728C323.464 237.416 323.96 237.944 324.568 238.312C325.192 238.664 325.848 238.84 326.536 238.84C327.24 238.84 327.896 238.664 328.504 238.312C329.112 237.96 329.6 237.448 329.968 236.776C330.352 236.088 330.544 235.288 330.544 234.376ZM342.22 234.328C342.22 233 342.492 231.824 343.036 230.8C343.596 229.776 344.348 228.984 345.292 228.424C346.252 227.848 347.316 227.56 348.484 227.56C349.348 227.56 350.196 227.752 351.028 228.136C351.876 228.504 352.548 229 353.044 229.624V223.24H355.804V241H353.044V239.008C352.596 239.648 351.972 240.176 351.172 240.592C350.388 241.008 349.484 241.216 348.46 241.216C347.308 241.216 346.252 240.928 345.292 240.352C344.348 239.76 343.596 238.944 343.036 237.904C342.492 236.848 342.22 235.656 342.22 234.328ZM353.044 234.376C353.044 233.464 352.852 232.672 352.468 232C352.1 231.328 351.612 230.816 351.004 230.464C350.396 230.112 349.74 229.936 349.036 229.936C348.332 229.936 347.676 230.112 347.068 230.464C346.46 230.8 345.964 231.304 345.58 231.976C345.212 232.632 345.028 233.416 345.028 234.328C345.028 235.24 345.212 236.04 345.58 236.728C345.964 237.416 346.46 237.944 347.068 238.312C347.692 238.664 348.348 238.84 349.036 238.84C349.74 238.84 350.396 238.664 351.004 238.312C351.612 237.96 352.1 237.448 352.468 236.776C352.852 236.088 353.044 235.288 353.044 234.376ZM365.134 241.216C363.886 241.216 362.758 240.936 361.75 240.376C360.742 239.8 359.95 239 359.374 237.976C358.798 236.936 358.51 235.736 358.51 234.376C358.51 233.032 358.806 231.84 359.398 230.8C359.99 229.76 360.798 228.96 361.822 228.4C362.846 227.84 363.99 227.56 365.254 227.56C366.518 227.56 367.662 227.84 368.686 228.4C369.71 228.96 370.518 229.76 371.11 230.8C371.702 231.84 371.998 233.032 371.998 234.376C371.998 235.72 371.694 236.912 371.086 237.952C370.478 238.992 369.646 239.8 368.59 240.376C367.55 240.936 366.398 241.216 365.134 241.216ZM365.134 238.84C365.838 238.84 366.494 238.672 367.102 238.336C367.726 238 368.23 237.496 368.614 236.824C368.998 236.152 369.19 235.336 369.19 234.376C369.19 233.416 369.006 232.608 368.638 231.952C368.27 231.28 367.782 230.776 367.174 230.44C366.566 230.104 365.91 229.936 365.206 229.936C364.502 229.936 363.846 230.104 363.238 230.44C362.646 230.776 362.174 231.28 361.822 231.952C361.47 232.608 361.294 233.416 361.294 234.376C361.294 235.8 361.654 236.904 362.374 237.688C363.11 238.456 364.03 238.84 365.134 238.84ZM101.065 277.216C100.025 277.216 99.0888 277.032 98.2568 276.664C97.4408 276.28 96.7928 275.768 96.3128 275.128C95.8328 274.472 95.5768 273.744 95.5448 272.944H98.3768C98.4248 273.504 98.6888 273.976 99.1688 274.36C99.6648 274.728 100.281 274.912 101.017 274.912C101.785 274.912 102.377 274.768 102.793 274.48C103.225 274.176 103.441 273.792 103.441 273.328C103.441 272.832 103.201 272.464 102.721 272.224C102.257 271.984 101.513 271.72 100.489 271.432C99.4968 271.16 98.6888 270.896 98.0648 270.64C97.4408 270.384 96.8968 269.992 96.4328 269.464C95.9848 268.936 95.7608 268.24 95.7608 267.376C95.7608 266.672 95.9688 266.032 96.3848 265.456C96.8008 264.864 97.3928 264.4 98.1608 264.064C98.9448 263.728 99.8408 263.56 100.849 263.56C102.353 263.56 103.561 263.944 104.473 264.712C105.401 265.464 105.897 266.496 105.961 267.808H103.225C103.177 267.216 102.937 266.744 102.505 266.392C102.073 266.04 101.489 265.864 100.753 265.864C100.033 265.864 99.4808 266 99.0968 266.272C98.7128 266.544 98.5208 266.904 98.5208 267.352C98.5208 267.704 98.6488 268 98.9048 268.24C99.1608 268.48 99.4728 268.672 99.8408 268.816C100.209 268.944 100.753 269.112 101.473 269.32C102.433 269.576 103.217 269.84 103.825 270.112C104.449 270.368 104.985 270.752 105.433 271.264C105.881 271.776 106.113 272.456 106.129 273.304C106.129 274.056 105.921 274.728 105.505 275.32C105.089 275.912 104.497 276.376 103.729 276.712C102.977 277.048 102.089 277.216 101.065 277.216ZM121.205 270.064C121.205 270.56 121.173 271.008 121.109 271.408H111.005C111.085 272.464 111.477 273.312 112.181 273.952C112.885 274.592 113.749 274.912 114.773 274.912C116.245 274.912 117.285 274.296 117.893 273.064H120.845C120.445 274.28 119.717 275.28 118.661 276.064C117.621 276.832 116.325 277.216 114.773 277.216C113.509 277.216 112.373 276.936 111.365 276.376C110.373 275.8 109.589 275 109.013 273.976C108.453 272.936 108.173 271.736 108.173 270.376C108.173 269.016 108.445 267.824 108.989 266.8C109.549 265.76 110.325 264.96 111.317 264.4C112.325 263.84 113.477 263.56 114.773 263.56C116.021 263.56 117.133 263.832 118.109 264.376C119.085 264.92 119.845 265.688 120.389 266.68C120.933 267.656 121.205 268.784 121.205 270.064ZM118.349 269.2C118.333 268.192 117.973 267.384 117.269 266.776C116.565 266.168 115.693 265.864 114.653 265.864C113.709 265.864 112.901 266.168 112.229 266.776C111.557 267.368 111.157 268.176 111.029 269.2H118.349ZM135.874 263.776V277H133.138V275.44C132.706 275.984 132.138 276.416 131.434 276.736C130.746 277.04 130.01 277.192 129.226 277.192C128.186 277.192 127.25 276.976 126.418 276.544C125.602 276.112 124.954 275.472 124.474 274.624C124.01 273.776 123.778 272.752 123.778 271.552V263.776H126.49V271.144C126.49 272.328 126.786 273.24 127.378 273.88C127.97 274.504 128.778 274.816 129.802 274.816C130.826 274.816 131.634 274.504 132.226 273.88C132.834 273.24 133.138 272.328 133.138 271.144V263.776H135.874ZM151.046 263.56C152.07 263.56 152.974 263.768 153.758 264.184C154.558 264.584 155.182 265.088 155.63 265.696V263.776H158.39V277.216C158.39 278.432 158.134 279.512 157.622 280.456C157.11 281.416 156.366 282.168 155.39 282.712C154.43 283.256 153.278 283.528 151.934 283.528C150.142 283.528 148.654 283.104 147.47 282.256C146.286 281.424 145.614 280.288 145.454 278.848H148.166C148.374 279.536 148.814 280.088 149.486 280.504C150.174 280.936 150.99 281.152 151.934 281.152C153.038 281.152 153.926 280.816 154.598 280.144C155.286 279.472 155.63 278.496 155.63 277.216V275.008C155.166 275.632 154.534 276.16 153.734 276.592C152.95 277.008 152.054 277.216 151.046 277.216C149.894 277.216 148.838 276.928 147.878 276.352C146.934 275.76 146.182 274.944 145.622 273.904C145.078 272.848 144.806 271.656 144.806 270.328C144.806 269 145.078 267.824 145.622 266.8C146.182 265.776 146.934 264.984 147.878 264.424C148.838 263.848 149.894 263.56 151.046 263.56ZM155.63 270.376C155.63 269.464 155.438 268.672 155.054 268C154.686 267.328 154.198 266.816 153.59 266.464C152.982 266.112 152.326 265.936 151.622 265.936C150.918 265.936 150.262 266.112 149.654 266.464C149.046 266.8 148.55 267.304 148.166 267.976C147.798 268.632 147.614 269.416 147.614 270.328C147.614 271.24 147.798 272.04 148.166 272.728C148.55 273.416 149.046 273.944 149.654 274.312C150.278 274.664 150.934 274.84 151.622 274.84C152.326 274.84 152.982 274.664 153.59 274.312C154.198 273.96 154.686 273.448 155.054 272.776C155.438 272.088 155.63 271.288 155.63 270.376ZM161.072 270.328C161.072 269 161.344 267.824 161.888 266.8C162.448 265.776 163.2 264.984 164.144 264.424C165.104 263.848 166.16 263.56 167.312 263.56C168.352 263.56 169.256 263.768 170.024 264.184C170.808 264.584 171.432 265.088 171.896 265.696V263.776H174.656V277H171.896V275.032C171.432 275.656 170.8 276.176 170 276.592C169.2 277.008 168.288 277.216 167.264 277.216C166.128 277.216 165.088 276.928 164.144 276.352C163.2 275.76 162.448 274.944 161.888 273.904C161.344 272.848 161.072 271.656 161.072 270.328ZM171.896 270.376C171.896 269.464 171.704 268.672 171.32 268C170.952 267.328 170.464 266.816 169.856 266.464C169.248 266.112 168.592 265.936 167.888 265.936C167.184 265.936 166.528 266.112 165.92 266.464C165.312 266.8 164.816 267.304 164.432 267.976C164.064 268.632 163.88 269.416 163.88 270.328C163.88 271.24 164.064 272.04 164.432 272.728C164.816 273.416 165.312 273.944 165.92 274.312C166.544 274.664 167.2 274.84 167.888 274.84C168.592 274.84 169.248 274.664 169.856 274.312C170.464 273.96 170.952 273.448 171.32 272.776C171.704 272.088 171.896 271.288 171.896 270.376ZM181.441 266.008V273.328C181.441 273.824 181.553 274.184 181.777 274.408C182.017 274.616 182.417 274.72 182.977 274.72H184.657V277H182.497C181.265 277 180.321 276.712 179.665 276.136C179.009 275.56 178.681 274.624 178.681 273.328V266.008H177.121V263.776H178.681V260.488H181.441V263.776H184.657V266.008H181.441ZM188.571 262.024C188.075 262.024 187.659 261.856 187.323 261.52C186.987 261.184 186.819 260.768 186.819 260.272C186.819 259.776 186.987 259.36 187.323 259.024C187.659 258.688 188.075 258.52 188.571 258.52C189.051 258.52 189.459 258.688 189.795 259.024C190.131 259.36 190.299 259.776 190.299 260.272C190.299 260.768 190.131 261.184 189.795 261.52C189.459 261.856 189.051 262.024 188.571 262.024ZM189.915 263.776V277H187.179V263.776H189.915ZM200.179 263.56C201.219 263.56 202.147 263.776 202.963 264.208C203.795 264.64 204.443 265.28 204.907 266.128C205.371 266.976 205.603 268 205.603 269.2V277H202.891V269.608C202.891 268.424 202.595 267.52 202.003 266.896C201.411 266.256 200.603 265.936 199.579 265.936C198.555 265.936 197.739 266.256 197.131 266.896C196.539 267.52 196.243 268.424 196.243 269.608V277H193.507V263.776H196.243V265.288C196.691 264.744 197.259 264.32 197.947 264.016C198.651 263.712 199.395 263.56 200.179 263.56ZM215.933 263.56C216.941 263.56 217.837 263.776 218.621 264.208C219.421 264.64 220.045 265.28 220.493 266.128C220.957 266.976 221.189 268 221.189 269.2V277H218.477V269.608C218.477 268.424 218.181 267.52 217.589 266.896C216.997 266.256 216.189 265.936 215.165 265.936C214.141 265.936 213.325 266.256 212.717 266.896C212.125 267.52 211.829 268.424 211.829 269.608V277H209.093V259.24H211.829V265.312C212.293 264.752 212.877 264.32 213.581 264.016C214.301 263.712 215.085 263.56 215.933 263.56ZM230.415 277.216C229.167 277.216 228.039 276.936 227.031 276.376C226.023 275.8 225.231 275 224.655 273.976C224.079 272.936 223.791 271.736 223.791 270.376C223.791 269.032 224.087 267.84 224.679 266.8C225.271 265.76 226.079 264.96 227.103 264.4C228.127 263.84 229.271 263.56 230.535 263.56C231.799 263.56 232.943 263.84 233.967 264.4C234.991 264.96 235.799 265.76 236.391 266.8C236.983 267.84 237.279 269.032 237.279 270.376C237.279 271.72 236.975 272.912 236.367 273.952C235.759 274.992 234.927 275.8 233.871 276.376C232.831 276.936 231.679 277.216 230.415 277.216ZM230.415 274.84C231.119 274.84 231.775 274.672 232.383 274.336C233.007 274 233.511 273.496 233.895 272.824C234.279 272.152 234.471 271.336 234.471 270.376C234.471 269.416 234.287 268.608 233.919 267.952C233.551 267.28 233.063 266.776 232.455 266.44C231.847 266.104 231.191 265.936 230.487 265.936C229.783 265.936 229.127 266.104 228.519 266.44C227.927 266.776 227.455 267.28 227.103 267.952C226.751 268.608 226.575 269.416 226.575 270.376C226.575 271.8 226.935 272.904 227.655 273.688C228.391 274.456 229.311 274.84 230.415 274.84ZM242.984 273.712L240.08 280.336H238.304L240.008 273.712H242.984ZM254.345 265.72C254.809 265.112 255.441 264.6 256.241 264.184C257.041 263.768 257.945 263.56 258.953 263.56C260.105 263.56 261.153 263.848 262.097 264.424C263.057 264.984 263.809 265.776 264.353 266.8C264.897 267.824 265.169 269 265.169 270.328C265.169 271.656 264.897 272.848 264.353 273.904C263.809 274.944 263.057 275.76 262.097 276.352C261.153 276.928 260.105 277.216 258.953 277.216C257.945 277.216 257.049 277.016 256.265 276.616C255.481 276.2 254.841 275.688 254.345 275.08V283.288H251.609V263.776H254.345V265.72ZM262.385 270.328C262.385 269.416 262.193 268.632 261.809 267.976C261.441 267.304 260.945 266.8 260.321 266.464C259.713 266.112 259.057 265.936 258.353 265.936C257.665 265.936 257.009 266.112 256.385 266.464C255.777 266.816 255.281 267.328 254.897 268C254.529 268.672 254.345 269.464 254.345 270.376C254.345 271.288 254.529 272.088 254.897 272.776C255.281 273.448 255.777 273.96 256.385 274.312C257.009 274.664 257.665 274.84 258.353 274.84C259.057 274.84 259.713 274.664 260.321 274.312C260.945 273.944 261.441 273.416 261.809 272.728C262.193 272.04 262.385 271.24 262.385 270.328ZM273.61 277.216C272.362 277.216 271.234 276.936 270.226 276.376C269.218 275.8 268.426 275 267.85 273.976C267.274 272.936 266.986 271.736 266.986 270.376C266.986 269.032 267.282 267.84 267.874 266.8C268.466 265.76 269.274 264.96 270.298 264.4C271.322 263.84 272.466 263.56 273.73 263.56C274.994 263.56 276.138 263.84 277.162 264.4C278.186 264.96 278.994 265.76 279.586 266.8C280.178 267.84 280.474 269.032 280.474 270.376C280.474 271.72 280.17 272.912 279.562 273.952C278.954 274.992 278.122 275.8 277.066 276.376C276.026 276.936 274.874 277.216 273.61 277.216ZM273.61 274.84C274.314 274.84 274.97 274.672 275.578 274.336C276.202 274 276.706 273.496 277.09 272.824C277.474 272.152 277.666 271.336 277.666 270.376C277.666 269.416 277.482 268.608 277.114 267.952C276.746 267.28 276.258 266.776 275.65 266.44C275.042 266.104 274.386 265.936 273.682 265.936C272.978 265.936 272.322 266.104 271.714 266.44C271.122 266.776 270.65 267.28 270.298 267.952C269.946 268.608 269.77 269.416 269.77 270.376C269.77 271.8 270.13 272.904 270.85 273.688C271.586 274.456 272.506 274.84 273.61 274.84ZM284.571 262.024C284.075 262.024 283.659 261.856 283.323 261.52C282.987 261.184 282.819 260.768 282.819 260.272C282.819 259.776 282.987 259.36 283.323 259.024C283.659 258.688 284.075 258.52 284.571 258.52C285.051 258.52 285.459 258.688 285.795 259.024C286.131 259.36 286.299 259.776 286.299 260.272C286.299 260.768 286.131 261.184 285.795 261.52C285.459 261.856 285.051 262.024 284.571 262.024ZM285.915 263.776V277H283.179V263.776H285.915ZM294.307 277.216C293.267 277.216 292.331 277.032 291.499 276.664C290.683 276.28 290.035 275.768 289.555 275.128C289.075 274.472 288.819 273.744 288.787 272.944H291.619C291.667 273.504 291.931 273.976 292.411 274.36C292.907 274.728 293.523 274.912 294.259 274.912C295.027 274.912 295.619 274.768 296.035 274.48C296.467 274.176 296.683 273.792 296.683 273.328C296.683 272.832 296.443 272.464 295.963 272.224C295.499 271.984 294.755 271.72 293.731 271.432C292.739 271.16 291.931 270.896 291.307 270.64C290.683 270.384 290.139 269.992 289.675 269.464C289.227 268.936 289.003 268.24 289.003 267.376C289.003 266.672 289.211 266.032 289.627 265.456C290.043 264.864 290.635 264.4 291.403 264.064C292.187 263.728 293.083 263.56 294.091 263.56C295.595 263.56 296.803 263.944 297.715 264.712C298.643 265.464 299.139 266.496 299.203 267.808H296.467C296.419 267.216 296.179 266.744 295.747 266.392C295.315 266.04 294.731 265.864 293.995 265.864C293.275 265.864 292.723 266 292.339 266.272C291.955 266.544 291.763 266.904 291.763 267.352C291.763 267.704 291.891 268 292.147 268.24C292.403 268.48 292.715 268.672 293.083 268.816C293.451 268.944 293.995 269.112 294.715 269.32C295.675 269.576 296.459 269.84 297.067 270.112C297.691 270.368 298.227 270.752 298.675 271.264C299.123 271.776 299.355 272.456 299.371 273.304C299.371 274.056 299.163 274.728 298.747 275.32C298.331 275.912 297.739 276.376 296.971 276.712C296.219 277.048 295.331 277.216 294.307 277.216ZM320.682 270.064C320.682 270.56 320.65 271.008 320.586 271.408H310.482C310.562 272.464 310.954 273.312 311.658 273.952C312.362 274.592 313.226 274.912 314.25 274.912C315.722 274.912 316.762 274.296 317.37 273.064H320.322C319.922 274.28 319.194 275.28 318.138 276.064C317.098 276.832 315.802 277.216 314.25 277.216C312.986 277.216 311.85 276.936 310.842 276.376C309.85 275.8 309.066 275 308.49 273.976C307.93 272.936 307.65 271.736 307.65 270.376C307.65 269.016 307.922 267.824 308.466 266.8C309.026 265.76 309.802 264.96 310.794 264.4C311.802 263.84 312.954 263.56 314.25 263.56C315.498 263.56 316.61 263.832 317.586 264.376C318.562 264.92 319.322 265.688 319.866 266.68C320.41 267.656 320.682 268.784 320.682 270.064ZM317.826 269.2C317.81 268.192 317.45 267.384 316.746 266.776C316.042 266.168 315.17 265.864 314.13 265.864C313.186 265.864 312.378 266.168 311.706 266.776C311.034 267.368 310.634 268.176 310.506 269.2H317.826ZM326.11 259.24V277H323.374V259.24H326.11ZM341.822 270.064C341.822 270.56 341.79 271.008 341.726 271.408H331.622C331.702 272.464 332.094 273.312 332.798 273.952C333.502 274.592 334.366 274.912 335.39 274.912C336.862 274.912 337.902 274.296 338.51 273.064H341.462C341.062 274.28 340.334 275.28 339.278 276.064C338.238 276.832 336.942 277.216 335.39 277.216C334.126 277.216 332.99 276.936 331.982 276.376C330.99 275.8 330.206 275 329.63 273.976C329.07 272.936 328.79 271.736 328.79 270.376C328.79 269.016 329.062 267.824 329.606 266.8C330.166 265.76 330.942 264.96 331.934 264.4C332.942 263.84 334.094 263.56 335.39 263.56C336.638 263.56 337.75 263.832 338.726 264.376C339.702 264.92 340.462 265.688 341.006 266.68C341.55 267.656 341.822 268.784 341.822 270.064ZM338.966 269.2C338.95 268.192 338.59 267.384 337.886 266.776C337.182 266.168 336.31 265.864 335.27 265.864C334.326 265.864 333.518 266.168 332.846 266.776C332.174 267.368 331.774 268.176 331.646 269.2H338.966ZM349.315 277.216C348.275 277.216 347.339 277.032 346.507 276.664C345.691 276.28 345.043 275.768 344.563 275.128C344.083 274.472 343.827 273.744 343.795 272.944H346.627C346.675 273.504 346.939 273.976 347.419 274.36C347.915 274.728 348.531 274.912 349.267 274.912C350.035 274.912 350.627 274.768 351.043 274.48C351.475 274.176 351.691 273.792 351.691 273.328C351.691 272.832 351.451 272.464 350.971 272.224C350.507 271.984 349.763 271.72 348.739 271.432C347.747 271.16 346.939 270.896 346.315 270.64C345.691 270.384 345.147 269.992 344.683 269.464C344.235 268.936 344.011 268.24 344.011 267.376C344.011 266.672 344.219 266.032 344.635 265.456C345.051 264.864 345.643 264.4 346.411 264.064C347.195 263.728 348.091 263.56 349.099 263.56C350.603 263.56 351.811 263.944 352.723 264.712C353.651 265.464 354.147 266.496 354.211 267.808H351.475C351.427 267.216 351.187 266.744 350.755 266.392C350.323 266.04 349.739 265.864 349.003 265.864C348.283 265.864 347.731 266 347.347 266.272C346.963 266.544 346.771 266.904 346.771 267.352C346.771 267.704 346.899 268 347.155 268.24C347.411 268.48 347.723 268.672 348.091 268.816C348.459 268.944 349.003 269.112 349.723 269.32C350.683 269.576 351.467 269.84 352.075 270.112C352.699 270.368 353.235 270.752 353.683 271.264C354.131 271.776 354.363 272.456 354.379 273.304C354.379 274.056 354.171 274.728 353.755 275.32C353.339 275.912 352.747 276.376 351.979 276.712C351.227 277.048 350.339 277.216 349.315 277.216ZM115.966 306.328C115.966 305 116.238 303.824 116.782 302.8C117.342 301.776 118.094 300.984 119.038 300.424C119.998 299.848 121.054 299.56 122.206 299.56C123.246 299.56 124.15 299.768 124.918 300.184C125.702 300.584 126.326 301.088 126.79 301.696V299.776H129.55V313H126.79V311.032C126.326 311.656 125.694 312.176 124.894 312.592C124.094 313.008 123.182 313.216 122.158 313.216C121.022 313.216 119.982 312.928 119.038 312.352C118.094 311.76 117.342 310.944 116.782 309.904C116.238 308.848 115.966 307.656 115.966 306.328ZM126.79 306.376C126.79 305.464 126.598 304.672 126.214 304C125.846 303.328 125.358 302.816 124.75 302.464C124.142 302.112 123.486 301.936 122.782 301.936C122.078 301.936 121.422 302.112 120.814 302.464C120.206 302.8 119.71 303.304 119.326 303.976C118.958 304.632 118.774 305.416 118.774 306.328C118.774 307.24 118.958 308.04 119.326 308.728C119.71 309.416 120.206 309.944 120.814 310.312C121.438 310.664 122.094 310.84 122.782 310.84C123.486 310.84 124.142 310.664 124.75 310.312C125.358 309.96 125.846 309.448 126.214 308.776C126.598 308.088 126.79 307.288 126.79 306.376ZM149.152 299.56C150.192 299.56 151.12 299.776 151.936 300.208C152.768 300.64 153.416 301.28 153.88 302.128C154.36 302.976 154.6 304 154.6 305.2V313H151.888V305.608C151.888 304.424 151.592 303.52 151 302.896C150.408 302.256 149.6 301.936 148.576 301.936C147.552 301.936 146.736 302.256 146.128 302.896C145.536 303.52 145.24 304.424 145.24 305.608V313H142.528V305.608C142.528 304.424 142.232 303.52 141.64 302.896C141.048 302.256 140.24 301.936 139.216 301.936C138.192 301.936 137.376 302.256 136.768 302.896C136.176 303.52 135.88 304.424 135.88 305.608V313H133.144V299.776H135.88V301.288C136.328 300.744 136.896 300.32 137.584 300.016C138.272 299.712 139.008 299.56 139.792 299.56C140.848 299.56 141.792 299.784 142.624 300.232C143.456 300.68 144.096 301.328 144.544 302.176C144.944 301.376 145.568 300.744 146.416 300.28C147.264 299.8 148.176 299.56 149.152 299.56ZM157.169 306.328C157.169 305 157.441 303.824 157.985 302.8C158.545 301.776 159.297 300.984 160.241 300.424C161.201 299.848 162.257 299.56 163.409 299.56C164.449 299.56 165.353 299.768 166.121 300.184C166.905 300.584 167.529 301.088 167.993 301.696V299.776H170.753V313H167.993V311.032C167.529 311.656 166.897 312.176 166.097 312.592C165.297 313.008 164.385 313.216 163.361 313.216C162.225 313.216 161.185 312.928 160.241 312.352C159.297 311.76 158.545 310.944 157.985 309.904C157.441 308.848 157.169 307.656 157.169 306.328ZM167.993 306.376C167.993 305.464 167.801 304.672 167.417 304C167.049 303.328 166.561 302.816 165.953 302.464C165.345 302.112 164.689 301.936 163.985 301.936C163.281 301.936 162.625 302.112 162.017 302.464C161.409 302.8 160.913 303.304 160.529 303.976C160.161 304.632 159.977 305.416 159.977 306.328C159.977 307.24 160.161 308.04 160.529 308.728C160.913 309.416 161.409 309.944 162.017 310.312C162.641 310.664 163.297 310.84 163.985 310.84C164.689 310.84 165.345 310.664 165.953 310.312C166.561 309.96 167.049 309.448 167.417 308.776C167.801 308.088 167.993 307.288 167.993 306.376ZM190.355 299.56C191.395 299.56 192.323 299.776 193.139 300.208C193.971 300.64 194.619 301.28 195.083 302.128C195.563 302.976 195.803 304 195.803 305.2V313H193.091V305.608C193.091 304.424 192.795 303.52 192.203 302.896C191.611 302.256 190.803 301.936 189.779 301.936C188.755 301.936 187.939 302.256 187.331 302.896C186.739 303.52 186.443 304.424 186.443 305.608V313H183.731V305.608C183.731 304.424 183.435 303.52 182.843 302.896C182.251 302.256 181.443 301.936 180.419 301.936C179.395 301.936 178.579 302.256 177.971 302.896C177.379 303.52 177.083 304.424 177.083 305.608V313H174.347V299.776H177.083V301.288C177.531 300.744 178.099 300.32 178.787 300.016C179.475 299.712 180.211 299.56 180.995 299.56C182.051 299.56 182.995 299.784 183.827 300.232C184.659 300.68 185.299 301.328 185.747 302.176C186.147 301.376 186.771 300.744 187.619 300.28C188.467 299.8 189.379 299.56 190.355 299.56ZM204.607 306.328C204.607 305 204.879 303.824 205.423 302.8C205.983 301.776 206.735 300.984 207.679 300.424C208.639 299.848 209.703 299.56 210.871 299.56C211.735 299.56 212.583 299.752 213.415 300.136C214.263 300.504 214.935 301 215.431 301.624V295.24H218.191V313H215.431V311.008C214.983 311.648 214.359 312.176 213.559 312.592C212.775 313.008 211.871 313.216 210.847 313.216C209.695 313.216 208.639 312.928 207.679 312.352C206.735 311.76 205.983 310.944 205.423 309.904C204.879 308.848 204.607 307.656 204.607 306.328ZM215.431 306.376C215.431 305.464 215.239 304.672 214.855 304C214.487 303.328 213.999 302.816 213.391 302.464C212.783 302.112 212.127 301.936 211.423 301.936C210.719 301.936 210.063 302.112 209.455 302.464C208.847 302.8 208.351 303.304 207.967 303.976C207.599 304.632 207.415 305.416 207.415 306.328C207.415 307.24 207.599 308.04 207.967 308.728C208.351 309.416 208.847 309.944 209.455 310.312C210.079 310.664 210.735 310.84 211.423 310.84C212.127 310.84 212.783 310.664 213.391 310.312C213.999 309.96 214.487 309.448 214.855 308.776C215.239 308.088 215.431 307.288 215.431 306.376ZM227.52 313.216C226.272 313.216 225.144 312.936 224.136 312.376C223.128 311.8 222.336 311 221.76 309.976C221.184 308.936 220.896 307.736 220.896 306.376C220.896 305.032 221.192 303.84 221.784 302.8C222.376 301.76 223.184 300.96 224.208 300.4C225.232 299.84 226.376 299.56 227.64 299.56C228.904 299.56 230.048 299.84 231.072 300.4C232.096 300.96 232.904 301.76 233.496 302.8C234.088 303.84 234.384 305.032 234.384 306.376C234.384 307.72 234.08 308.912 233.472 309.952C232.864 310.992 232.032 311.8 230.976 312.376C229.936 312.936 228.784 313.216 227.52 313.216ZM227.52 310.84C228.224 310.84 228.88 310.672 229.488 310.336C230.112 310 230.616 309.496 231 308.824C231.384 308.152 231.576 307.336 231.576 306.376C231.576 305.416 231.392 304.608 231.024 303.952C230.656 303.28 230.168 302.776 229.56 302.44C228.952 302.104 228.296 301.936 227.592 301.936C226.888 301.936 226.232 302.104 225.624 302.44C225.032 302.776 224.56 303.28 224.208 303.952C223.856 304.608 223.68 305.416 223.68 306.376C223.68 307.8 224.04 308.904 224.76 309.688C225.496 310.456 226.416 310.84 227.52 310.84ZM239.825 301.696C240.225 301.024 240.753 300.504 241.409 300.136C242.081 299.752 242.873 299.56 243.785 299.56V302.392H243.089C242.017 302.392 241.201 302.664 240.641 303.208C240.097 303.752 239.825 304.696 239.825 306.04V313H237.089V299.776H239.825V301.696ZM262.308 299.56C263.348 299.56 264.276 299.776 265.092 300.208C265.924 300.64 266.572 301.28 267.036 302.128C267.516 302.976 267.756 304 267.756 305.2V313H265.044V305.608C265.044 304.424 264.748 303.52 264.156 302.896C263.564 302.256 262.756 301.936 261.732 301.936C260.708 301.936 259.892 302.256 259.284 302.896C258.692 303.52 258.396 304.424 258.396 305.608V313H255.684V305.608C255.684 304.424 255.388 303.52 254.796 302.896C254.204 302.256 253.396 301.936 252.372 301.936C251.348 301.936 250.532 302.256 249.924 302.896C249.332 303.52 249.036 304.424 249.036 305.608V313H246.3V299.776H249.036V301.288C249.484 300.744 250.052 300.32 250.74 300.016C251.428 299.712 252.164 299.56 252.948 299.56C254.004 299.56 254.948 299.784 255.78 300.232C256.612 300.68 257.252 301.328 257.7 302.176C258.1 301.376 258.724 300.744 259.572 300.28C260.42 299.8 261.332 299.56 262.308 299.56ZM272.63 298.024C272.134 298.024 271.718 297.856 271.382 297.52C271.046 297.184 270.878 296.768 270.878 296.272C270.878 295.776 271.046 295.36 271.382 295.024C271.718 294.688 272.134 294.52 272.63 294.52C273.11 294.52 273.518 294.688 273.854 295.024C274.19 295.36 274.358 295.776 274.358 296.272C274.358 296.768 274.19 297.184 273.854 297.52C273.518 297.856 273.11 298.024 272.63 298.024ZM273.974 299.776V313H271.238V299.776H273.974ZM280.302 301.696C280.702 301.024 281.23 300.504 281.886 300.136C282.558 299.752 283.35 299.56 284.262 299.56V302.392H283.566C282.494 302.392 281.678 302.664 281.118 303.208C280.574 303.752 280.302 304.696 280.302 306.04V313H277.566V299.776H280.302V301.696ZM299.683 299.56C300.723 299.56 301.651 299.776 302.467 300.208C303.299 300.64 303.947 301.28 304.411 302.128C304.875 302.976 305.107 304 305.107 305.2V313H302.395V305.608C302.395 304.424 302.099 303.52 301.507 302.896C300.915 302.256 300.107 301.936 299.083 301.936C298.059 301.936 297.243 302.256 296.635 302.896C296.043 303.52 295.747 304.424 295.747 305.608V313H293.011V299.776H295.747V301.288C296.195 300.744 296.763 300.32 297.451 300.016C298.155 299.712 298.899 299.56 299.683 299.56ZM314.333 313.216C313.085 313.216 311.957 312.936 310.949 312.376C309.941 311.8 309.149 311 308.573 309.976C307.997 308.936 307.709 307.736 307.709 306.376C307.709 305.032 308.005 303.84 308.597 302.8C309.189 301.76 309.997 300.96 311.021 300.4C312.045 299.84 313.189 299.56 314.453 299.56C315.717 299.56 316.861 299.84 317.885 300.4C318.909 300.96 319.717 301.76 320.309 302.8C320.901 303.84 321.197 305.032 321.197 306.376C321.197 307.72 320.893 308.912 320.285 309.952C319.677 310.992 318.845 311.8 317.789 312.376C316.749 312.936 315.597 313.216 314.333 313.216ZM314.333 310.84C315.037 310.84 315.693 310.672 316.301 310.336C316.925 310 317.429 309.496 317.813 308.824C318.197 308.152 318.389 307.336 318.389 306.376C318.389 305.416 318.205 304.608 317.837 303.952C317.469 303.28 316.981 302.776 316.373 302.44C315.765 302.104 315.109 301.936 314.405 301.936C313.701 301.936 313.045 302.104 312.437 302.44C311.845 302.776 311.373 303.28 311.021 303.952C310.669 304.608 310.493 305.416 310.493 306.376C310.493 307.8 310.853 308.904 311.573 309.688C312.309 310.456 313.229 310.84 314.333 310.84ZM328.702 313.216C327.662 313.216 326.726 313.032 325.894 312.664C325.078 312.28 324.43 311.768 323.95 311.128C323.47 310.472 323.214 309.744 323.182 308.944H326.014C326.062 309.504 326.326 309.976 326.806 310.36C327.302 310.728 327.918 310.912 328.654 310.912C329.422 310.912 330.014 310.768 330.43 310.48C330.862 310.176 331.078 309.792 331.078 309.328C331.078 308.832 330.838 308.464 330.358 308.224C329.894 307.984 329.15 307.72 328.126 307.432C327.134 307.16 326.326 306.896 325.702 306.64C325.078 306.384 324.534 305.992 324.07 305.464C323.622 304.936 323.398 304.24 323.398 303.376C323.398 302.672 323.606 302.032 324.022 301.456C324.438 300.864 325.03 300.4 325.798 300.064C326.582 299.728 327.478 299.56 328.486 299.56C329.99 299.56 331.198 299.944 332.11 300.712C333.038 301.464 333.534 302.496 333.598 303.808H330.862C330.814 303.216 330.574 302.744 330.142 302.392C329.71 302.04 329.126 301.864 328.39 301.864C327.67 301.864 327.118 302 326.734 302.272C326.35 302.544 326.158 302.904 326.158 303.352C326.158 303.704 326.286 304 326.542 304.24C326.798 304.48 327.11 304.672 327.478 304.816C327.846 304.944 328.39 305.112 329.11 305.32C330.07 305.576 330.854 305.84 331.462 306.112C332.086 306.368 332.622 306.752 333.07 307.264C333.518 307.776 333.75 308.456 333.766 309.304C333.766 310.056 333.558 310.728 333.142 311.32C332.726 311.912 332.134 312.376 331.366 312.712C330.614 313.048 329.726 313.216 328.702 313.216ZM160.407 337.72C160.871 337.112 161.503 336.6 162.303 336.184C163.103 335.768 164.007 335.56 165.015 335.56C166.167 335.56 167.215 335.848 168.159 336.424C169.119 336.984 169.871 337.776 170.415 338.8C170.959 339.824 171.231 341 171.231 342.328C171.231 343.656 170.959 344.848 170.415 345.904C169.871 346.944 169.119 347.76 168.159 348.352C167.215 348.928 166.167 349.216 165.015 349.216C164.007 349.216 163.111 349.016 162.327 348.616C161.543 348.2 160.903 347.688 160.407 347.08V355.288H157.671V335.776H160.407V337.72ZM168.447 342.328C168.447 341.416 168.255 340.632 167.871 339.976C167.503 339.304 167.007 338.8 166.383 338.464C165.775 338.112 165.119 337.936 164.415 337.936C163.727 337.936 163.071 338.112 162.447 338.464C161.839 338.816 161.343 339.328 160.959 340C160.591 340.672 160.407 341.464 160.407 342.376C160.407 343.288 160.591 344.088 160.959 344.776C161.343 345.448 161.839 345.96 162.447 346.312C163.071 346.664 163.727 346.84 164.415 346.84C165.119 346.84 165.775 346.664 166.383 346.312C167.007 345.944 167.503 345.416 167.871 344.728C168.255 344.04 168.447 343.24 168.447 342.328ZM173.025 342.328C173.025 341 173.297 339.824 173.841 338.8C174.401 337.776 175.153 336.984 176.097 336.424C177.057 335.848 178.113 335.56 179.265 335.56C180.305 335.56 181.209 335.768 181.977 336.184C182.761 336.584 183.385 337.088 183.849 337.696V335.776H186.609V349H183.849V347.032C183.385 347.656 182.753 348.176 181.953 348.592C181.153 349.008 180.241 349.216 179.217 349.216C178.081 349.216 177.041 348.928 176.097 348.352C175.153 347.76 174.401 346.944 173.841 345.904C173.297 344.848 173.025 343.656 173.025 342.328ZM183.849 342.376C183.849 341.464 183.657 340.672 183.273 340C182.905 339.328 182.417 338.816 181.809 338.464C181.201 338.112 180.545 337.936 179.841 337.936C179.137 337.936 178.481 338.112 177.873 338.464C177.265 338.8 176.769 339.304 176.385 339.976C176.017 340.632 175.833 341.416 175.833 342.328C175.833 343.24 176.017 344.04 176.385 344.728C176.769 345.416 177.265 345.944 177.873 346.312C178.497 346.664 179.153 346.84 179.841 346.84C180.545 346.84 181.201 346.664 181.809 346.312C182.417 345.96 182.905 345.448 183.273 344.776C183.657 344.088 183.849 343.288 183.849 342.376ZM192.938 337.696C193.338 337.024 193.866 336.504 194.522 336.136C195.194 335.752 195.986 335.56 196.898 335.56V338.392H196.202C195.13 338.392 194.314 338.664 193.754 339.208C193.21 339.752 192.938 340.696 192.938 342.04V349H190.202V335.776H192.938V337.696ZM198.501 342.328C198.501 341 198.773 339.824 199.317 338.8C199.877 337.776 200.629 336.984 201.573 336.424C202.533 335.848 203.589 335.56 204.741 335.56C205.781 335.56 206.685 335.768 207.453 336.184C208.237 336.584 208.861 337.088 209.325 337.696V335.776H212.085V349H209.325V347.032C208.861 347.656 208.229 348.176 207.429 348.592C206.629 349.008 205.717 349.216 204.693 349.216C203.557 349.216 202.517 348.928 201.573 348.352C200.629 347.76 199.877 346.944 199.317 345.904C198.773 344.848 198.501 343.656 198.501 342.328ZM209.325 342.376C209.325 341.464 209.133 340.672 208.749 340C208.381 339.328 207.893 338.816 207.285 338.464C206.677 338.112 206.021 337.936 205.317 337.936C204.613 337.936 203.957 338.112 203.349 338.464C202.741 338.8 202.245 339.304 201.861 339.976C201.493 340.632 201.309 341.416 201.309 342.328C201.309 343.24 201.493 344.04 201.861 344.728C202.245 345.416 202.741 345.944 203.349 346.312C203.973 346.664 204.629 346.84 205.317 346.84C206.021 346.84 206.677 346.664 207.285 346.312C207.893 345.96 208.381 345.448 208.749 344.776C209.133 344.088 209.325 343.288 209.325 342.376ZM218.415 337.72C218.879 337.112 219.511 336.6 220.311 336.184C221.111 335.768 222.015 335.56 223.023 335.56C224.175 335.56 225.223 335.848 226.167 336.424C227.127 336.984 227.879 337.776 228.423 338.8C228.967 339.824 229.239 341 229.239 342.328C229.239 343.656 228.967 344.848 228.423 345.904C227.879 346.944 227.127 347.76 226.167 348.352C225.223 348.928 224.175 349.216 223.023 349.216C222.015 349.216 221.119 349.016 220.335 348.616C219.551 348.2 218.911 347.688 218.415 347.08V355.288H215.679V335.776H218.415V337.72ZM226.455 342.328C226.455 341.416 226.263 340.632 225.879 339.976C225.511 339.304 225.015 338.8 224.391 338.464C223.783 338.112 223.127 337.936 222.423 337.936C221.735 337.936 221.079 338.112 220.455 338.464C219.847 338.816 219.351 339.328 218.967 340C218.599 340.672 218.415 341.464 218.415 342.376C218.415 343.288 218.599 344.088 218.967 344.776C219.351 345.448 219.847 345.96 220.455 346.312C221.079 346.664 221.735 346.84 222.423 346.84C223.127 346.84 223.783 346.664 224.391 346.312C225.015 345.944 225.511 345.416 225.879 344.728C226.263 344.04 226.455 343.24 226.455 342.328ZM244.065 342.064C244.065 342.56 244.033 343.008 243.969 343.408H233.865C233.945 344.464 234.337 345.312 235.041 345.952C235.745 346.592 236.609 346.912 237.633 346.912C239.105 346.912 240.145 346.296 240.753 345.064H243.705C243.305 346.28 242.577 347.28 241.521 348.064C240.481 348.832 239.185 349.216 237.633 349.216C236.369 349.216 235.233 348.936 234.225 348.376C233.233 347.8 232.449 347 231.873 345.976C231.313 344.936 231.033 343.736 231.033 342.376C231.033 341.016 231.305 339.824 231.849 338.8C232.409 337.76 233.185 336.96 234.177 336.4C235.185 335.84 236.337 335.56 237.633 335.56C238.881 335.56 239.993 335.832 240.969 336.376C241.945 336.92 242.705 337.688 243.249 338.68C243.793 339.656 244.065 340.784 244.065 342.064ZM241.209 341.2C241.193 340.192 240.833 339.384 240.129 338.776C239.425 338.168 238.553 337.864 237.513 337.864C236.569 337.864 235.761 338.168 235.089 338.776C234.417 339.368 234.017 340.176 233.889 341.2H241.209ZM248.149 334.024C247.653 334.024 247.237 333.856 246.901 333.52C246.565 333.184 246.397 332.768 246.397 332.272C246.397 331.776 246.565 331.36 246.901 331.024C247.237 330.688 247.653 330.52 248.149 330.52C248.629 330.52 249.037 330.688 249.373 331.024C249.709 331.36 249.877 331.776 249.877 332.272C249.877 332.768 249.709 333.184 249.373 333.52C249.037 333.856 248.629 334.024 248.149 334.024ZM249.493 335.776V349H246.757V335.776H249.493ZM256.277 338.008V345.328C256.277 345.824 256.389 346.184 256.613 346.408C256.853 346.616 257.253 346.72 257.813 346.72H259.493V349H257.333C256.101 349 255.157 348.712 254.501 348.136C253.845 347.56 253.517 346.624 253.517 345.328V338.008H251.957V335.776H253.517V332.488H256.277V335.776H259.493V338.008H256.277ZM267.751 349.216C266.503 349.216 265.375 348.936 264.367 348.376C263.359 347.8 262.567 347 261.991 345.976C261.415 344.936 261.127 343.736 261.127 342.376C261.127 341.032 261.423 339.84 262.015 338.8C262.607 337.76 263.415 336.96 264.439 336.4C265.463 335.84 266.607 335.56 267.871 335.56C269.135 335.56 270.279 335.84 271.303 336.4C272.327 336.96 273.135 337.76 273.727 338.8C274.319 339.84 274.615 341.032 274.615 342.376C274.615 343.72 274.311 344.912 273.703 345.952C273.095 346.992 272.263 347.8 271.207 348.376C270.167 348.936 269.015 349.216 267.751 349.216ZM267.751 346.84C268.455 346.84 269.111 346.672 269.719 346.336C270.343 346 270.847 345.496 271.231 344.824C271.615 344.152 271.807 343.336 271.807 342.376C271.807 341.416 271.623 340.608 271.255 339.952C270.887 339.28 270.399 338.776 269.791 338.44C269.183 338.104 268.527 337.936 267.823 337.936C267.119 337.936 266.463 338.104 265.855 338.44C265.263 338.776 264.791 339.28 264.439 339.952C264.087 340.608 263.911 341.416 263.911 342.376C263.911 343.8 264.271 344.904 264.991 345.688C265.727 346.456 266.647 346.84 267.751 346.84ZM282.12 349.216C281.08 349.216 280.144 349.032 279.312 348.664C278.496 348.28 277.848 347.768 277.368 347.128C276.888 346.472 276.632 345.744 276.6 344.944H279.432C279.48 345.504 279.744 345.976 280.224 346.36C280.72 346.728 281.336 346.912 282.072 346.912C282.84 346.912 283.432 346.768 283.848 346.48C284.28 346.176 284.496 345.792 284.496 345.328C284.496 344.832 284.256 344.464 283.776 344.224C283.312 343.984 282.568 343.72 281.544 343.432C280.552 343.16 279.744 342.896 279.12 342.64C278.496 342.384 277.952 341.992 277.488 341.464C277.04 340.936 276.816 340.24 276.816 339.376C276.816 338.672 277.024 338.032 277.44 337.456C277.856 336.864 278.448 336.4 279.216 336.064C280 335.728 280.896 335.56 281.904 335.56C283.408 335.56 284.616 335.944 285.528 336.712C286.456 337.464 286.952 338.496 287.016 339.808H284.28C284.232 339.216 283.992 338.744 283.56 338.392C283.128 338.04 282.544 337.864 281.808 337.864C281.088 337.864 280.536 338 280.152 338.272C279.768 338.544 279.576 338.904 279.576 339.352C279.576 339.704 279.704 340 279.96 340.24C280.216 340.48 280.528 340.672 280.896 340.816C281.264 340.944 281.808 341.112 282.528 341.32C283.488 341.576 284.272 341.84 284.88 342.112C285.504 342.368 286.04 342.752 286.488 343.264C286.936 343.776 287.168 344.456 287.184 345.304C287.184 346.056 286.976 346.728 286.56 347.32C286.144 347.912 285.552 348.376 284.784 348.712C284.032 349.048 283.144 349.216 282.12 349.216ZM291.244 349.168C290.748 349.168 290.332 349 289.996 348.664C289.66 348.328 289.492 347.912 289.492 347.416C289.492 346.92 289.66 346.504 289.996 346.168C290.332 345.832 290.748 345.664 291.244 345.664C291.724 345.664 292.132 345.832 292.468 346.168C292.804 346.504 292.972 346.92 292.972 347.416C292.972 347.912 292.804 348.328 292.468 348.664C292.132 349 291.724 349.168 291.244 349.168Z" fill="#FFEBEB"/>
</svg>
