<svg width="400" height="417" viewBox="0 0 400 417" fill="none" xmlns="http://www.w3.org/2000/svg">
<g clip-path="url(#clip0_497_2)">
<path d="M400 142.267C400 122.447 386.742 101.498 369.534 93.4574C369.534 93.3869 369.534 93.2458 369.534 93.1753C372.426 64.1153 370.239 43.1667 335.119 27.0145C318.335 19.2558 296.543 20.3843 281.733 28.9189C271.789 10.8622 252.325 0 223.058 0C178.558 0 128.769 50.7139 128.134 88.379L-3.60222 179.015L-6 416.15L236.599 294.197C249.857 296.172 265.372 296.666 281.874 296.666C329.971 296.666 363.61 269.581 368.97 237.205C371.297 223.381 371.579 206.029 367.418 190.724C385.19 182.471 400 161.805 400 142.196V142.267Z" fill="#CED0D0"/>
<path d="M268.737 202.598C286.06 185.272 282.778 153.898 261.406 132.523C240.035 111.148 208.666 107.866 191.343 125.192C174.02 142.518 177.302 173.891 198.673 195.266C220.045 216.641 251.414 219.924 268.737 202.598Z" fill="#7A7A79"/>
<path d="M203.651 86.1841C212.512 93.0516 226.457 89.8954 234.796 79.1346C243.135 68.3738 242.711 54.0832 233.849 47.2157C224.987 40.3482 211.043 43.5044 202.704 54.2652C194.365 65.0261 194.789 79.3166 203.651 86.1841Z" fill="#7A7A79"/>
<path d="M274.527 110.356C283.362 118.494 298.661 116.257 308.698 105.36C318.735 94.4629 319.709 79.0319 310.873 70.894C302.038 62.7561 286.739 64.9928 276.702 75.89C266.665 86.7871 265.691 102.218 274.527 110.356Z" fill="#7A7A79"/>
<path d="M304.639 158.503C310.551 169.417 325.904 172.543 338.931 165.486C351.957 158.429 357.724 143.861 351.811 132.947C345.899 122.033 330.546 118.907 317.519 125.964C304.493 133.02 298.726 147.589 304.639 158.503Z" fill="#7A7A79"/>
<path d="M288.477 241.098C295.53 249.808 309.497 250.189 319.674 241.948C329.85 233.707 332.382 219.966 325.329 211.256C318.276 202.546 304.309 202.165 294.132 210.406C283.956 218.646 281.424 232.388 288.477 241.098Z" fill="#7A7A79"/>
</g>
<defs>
<clipPath id="clip0_497_2">
<rect width="406" height="416.15" fill="white" transform="translate(-6)"/>
</clipPath>
</defs>
</svg>
