<svg width="389" height="410" viewBox="0 0 389 410" fill="none" xmlns="http://www.w3.org/2000/svg">
<g clip-path="url(#clip0_158_374)">
<path d="M389 140.164C389 120.637 375.938 99.9983 358.984 92.0763C358.984 92.0068 358.984 91.8678 358.984 91.7983C361.833 63.1678 359.679 42.5288 325.078 26.6153C308.541 18.9712 287.072 20.083 272.481 28.4915C262.684 10.7017 243.508 0 214.673 0C170.831 0 121.777 49.9644 121.152 87.0729L-8.63766 176.369L-11 410L228.013 289.849C241.076 291.795 256.361 292.281 272.62 292.281C320.006 292.281 353.148 265.597 358.429 233.7C360.721 220.08 360.999 202.985 356.9 187.905C374.409 179.775 389 159.414 389 140.095V140.164Z" fill="#4D382E"/>
<path d="M259.677 199.604C276.744 182.534 273.511 151.624 252.455 130.565C231.399 109.506 200.494 106.272 183.427 123.342C166.36 140.411 169.593 171.321 190.649 192.38C211.705 213.439 242.61 216.673 259.677 199.604Z" fill="#EFDBDB"/>
<path d="M210.296 89.5745C221.578 89.5745 230.723 80.0541 230.723 68.3101C230.723 56.5661 221.578 47.0457 210.296 47.0457C199.014 47.0457 189.869 56.5661 189.869 68.3101C189.869 80.0541 199.014 89.5745 210.296 89.5745Z" fill="#EFDBDB"/>
<path d="M282.973 115.008C294.868 115.008 304.512 104.99 304.512 92.6321C304.512 80.2741 294.868 70.2559 282.973 70.2559C271.077 70.2559 261.434 80.2741 261.434 92.6321C261.434 104.99 271.077 115.008 282.973 115.008Z" fill="#EFDBDB"/>
<path d="M318.547 169.49C330.788 169.49 340.711 159.845 340.711 147.947C340.711 136.05 330.788 126.405 318.547 126.405C306.306 126.405 296.382 136.05 296.382 147.947C296.382 159.845 306.306 169.49 318.547 169.49Z" fill="#EFDBDB"/>
<path d="M296.66 244.61C309.899 244.61 320.631 234.468 320.631 221.956C320.631 209.444 309.899 199.302 296.66 199.302C283.422 199.302 272.689 209.444 272.689 221.956C272.689 234.468 283.422 244.61 296.66 244.61Z" fill="#EFDBDB"/>
</g>
<defs>
<clipPath id="clip0_158_374">
<rect width="400" height="410" fill="white" transform="translate(-11)"/>
</clipPath>
</defs>
</svg>
