<svg width="395" height="417" viewBox="0 0 395 417" fill="none" xmlns="http://www.w3.org/2000/svg">
<g clip-path="url(#clip0_158_434)">
<path d="M-1.33514e-05 142.267C-1.33514e-05 122.447 13.2583 101.498 30.4659 93.4574C30.4659 93.3869 30.4659 93.2458 30.4659 93.1753C27.5744 64.1153 29.7607 43.1667 64.881 27.0145C81.6655 19.2558 103.457 20.3843 118.267 28.9189C128.211 10.8622 147.675 0 176.942 0C221.442 0 271.231 50.7139 271.866 88.379L403.602 179.015L406 416.15L163.401 294.197C150.143 296.172 134.628 296.666 118.126 296.666C70.0292 296.666 36.3898 269.581 31.0301 237.205C28.7028 223.381 28.4207 206.029 32.5815 190.724C14.8098 182.471 -1.33514e-05 161.805 -1.33514e-05 142.196V142.267Z" fill="#F6BD6F"/>
<path d="M131.263 202.598C113.94 185.272 117.222 153.898 138.594 132.523C159.965 111.148 191.334 107.866 208.657 125.192C225.98 142.518 222.698 173.891 201.327 195.266C179.955 216.641 148.586 219.924 131.263 202.598Z" fill="#FFEBCA"/>
<path d="M196.349 86.1841C187.488 93.0516 173.543 89.8954 165.204 79.1346C156.865 68.3738 157.289 54.0832 166.151 47.2157C175.013 40.3482 188.957 43.5044 197.296 54.2652C205.635 65.0261 205.211 79.3166 196.349 86.1841Z" fill="#FFEBCA"/>
<path d="M125.473 110.356C116.638 118.494 101.339 116.257 91.3019 105.36C81.2651 94.4629 80.2913 79.0319 89.1268 70.894C97.9624 62.7561 113.261 64.9928 123.298 75.89C133.335 86.7871 134.309 102.218 125.473 110.356Z" fill="#FFEBCA"/>
<path d="M95.3613 158.503C89.4488 169.417 74.0958 172.543 61.0695 165.486C48.0431 158.429 42.2763 143.861 48.1889 132.947C54.1014 122.033 69.4545 118.907 82.4808 125.964C95.5071 133.02 101.274 147.589 95.3613 158.503Z" fill="#FFEBCA"/>
<path d="M111.523 241.098C104.47 249.808 90.5028 250.189 80.3262 241.948C70.1496 233.707 67.6175 219.966 74.6706 211.256C81.7237 202.546 95.6912 202.165 105.868 210.406C116.044 218.646 118.576 232.388 111.523 241.098Z" fill="#FFEBCA"/>
</g>
<defs>
<clipPath id="clip0_158_434">
<rect width="406" height="416.15" fill="white" transform="matrix(-1 0 0 1 406 0)"/>
</clipPath>
</defs>
</svg>
