<svg width="395" height="417" viewBox="0 0 395 417" fill="none" xmlns="http://www.w3.org/2000/svg">
<g clip-path="url(#clip0_158_411)">
<path d="M0 142.411C0 122.571 13.2583 101.601 30.4659 93.5524C30.4659 93.4818 30.4659 93.3406 30.4659 93.27C27.5744 64.1805 29.7607 43.2106 64.881 27.0419C81.6655 19.2753 103.457 20.405 118.267 28.9483C128.211 10.8733 147.675 0 176.942 0C221.442 0 271.231 50.7654 271.866 88.4688L403.602 179.197L406 416.573L163.401 294.496C150.143 296.473 134.628 296.967 118.126 296.967C70.0292 296.967 36.3898 269.855 31.0301 237.447C28.7028 223.608 28.4207 206.239 32.5815 190.917C14.8098 182.657 0 161.969 0 142.341V142.411Z" fill="#CED0D0"/>
<path d="M131.263 202.804C113.94 185.46 117.222 154.055 138.594 132.658C159.965 111.261 191.334 107.975 208.657 125.319C225.98 142.662 222.698 174.068 201.326 195.465C179.955 216.861 148.586 220.147 131.263 202.804Z" fill="#7A7A79"/>
<path d="M181.385 91.0107C169.934 91.0107 160.651 81.3376 160.651 69.4054C160.651 57.4731 169.934 47.8 181.385 47.8C192.836 47.8 202.119 57.4731 202.119 69.4054C202.119 81.3376 192.836 91.0107 181.385 91.0107Z" fill="#7A7A79"/>
<path d="M107.618 116.852C95.5438 116.852 85.7558 106.674 85.7558 94.1173C85.7558 81.5611 95.5438 71.3823 107.618 71.3823C119.692 71.3823 129.48 81.5611 129.48 94.1173C129.48 106.674 119.692 116.852 107.618 116.852Z" fill="#7A7A79"/>
<path d="M71.5101 172.207C59.0854 172.207 49.0133 162.408 49.0133 150.319C49.0133 138.231 59.0854 128.432 71.5101 128.432C83.9347 128.432 94.0068 138.231 94.0068 150.319C94.0068 162.408 83.9347 172.207 71.5101 172.207Z" fill="#7A7A79"/>
<path d="M93.7248 248.532C80.2875 248.532 69.3944 238.226 69.3944 225.514C69.3944 212.802 80.2875 202.497 93.7248 202.497C107.162 202.497 118.055 212.802 118.055 225.514C118.055 238.226 107.162 248.532 93.7248 248.532Z" fill="#7A7A79"/>
</g>
<defs>
<clipPath id="clip0_158_411">
<rect width="406" height="416.573" fill="white" transform="matrix(-1 0 0 1 406 0)"/>
</clipPath>
</defs>
</svg>
