<svg width="258" height="138" viewBox="0 0 258 138" fill="none" xmlns="http://www.w3.org/2000/svg">
<path d="M1.73162 38.696C1.73162 35.0907 2.51163 31.884 4.07163 29.076C5.63163 26.2333 7.79829 24.032 10.5716 22.472C13.3796 20.8773 16.5516 20.08 20.0876 20.08C24.421 20.08 28.1303 21.224 31.2156 23.512C34.301 25.8 36.3636 28.92 37.4036 32.872H27.6276C26.8996 31.3467 25.8596 30.1853 24.5076 29.388C23.1903 28.5907 21.6823 28.192 19.9836 28.192C17.245 28.192 15.0263 29.1453 13.3276 31.052C11.629 32.9587 10.7796 35.5067 10.7796 38.696C10.7796 41.8853 11.629 44.4333 13.3276 46.34C15.0263 48.2467 17.245 49.2 19.9836 49.2C21.6823 49.2 23.1903 48.8013 24.5076 48.004C25.8596 47.2067 26.8996 46.0453 27.6276 44.52H37.4036C36.3636 48.472 34.301 51.592 31.2156 53.88C28.1303 56.1333 24.421 57.26 20.0876 57.26C16.5516 57.26 13.3796 56.48 10.5716 54.92C7.79829 53.3253 5.63163 51.124 4.07163 48.316C2.51163 45.508 1.73162 42.3013 1.73162 38.696ZM71.501 27.984V57H62.609V53.048C61.7077 54.3307 60.477 55.3707 58.917 56.168C57.3917 56.9307 55.693 57.312 53.821 57.312C51.6023 57.312 49.6437 56.8267 47.945 55.856C46.2463 54.8507 44.929 53.412 43.993 51.54C43.057 49.668 42.589 47.4667 42.589 44.936V27.984H51.429V43.74C51.429 45.6813 51.9317 47.1893 52.937 48.264C53.9423 49.3387 55.2943 49.876 56.993 49.876C58.7263 49.876 60.0957 49.3387 61.101 48.264C62.1063 47.1893 62.609 45.6813 62.609 43.74V27.984H71.501ZM82.3601 24.968C80.8001 24.968 79.5174 24.5173 78.5121 23.616C77.5414 22.68 77.0561 21.536 77.0561 20.184C77.0561 18.7973 77.5414 17.6533 78.5121 16.752C79.5174 15.816 80.8001 15.348 82.3601 15.348C83.8854 15.348 85.1334 15.816 86.1041 16.752C87.1094 17.6533 87.6121 18.7973 87.6121 20.184C87.6121 21.536 87.1094 22.68 86.1041 23.616C85.1334 24.5173 83.8854 24.968 82.3601 24.968ZM86.7801 27.984V57H77.8881V27.984H86.7801ZM91.456 42.44C91.456 39.4587 92.0107 36.8413 93.12 34.588C94.264 32.3347 95.8067 30.6013 97.748 29.388C99.6893 28.1747 101.856 27.568 104.248 27.568C106.155 27.568 107.888 27.9667 109.448 28.764C111.043 29.5613 112.291 30.636 113.192 31.988V18.52H122.084V57H113.192V52.84C112.36 54.2267 111.164 55.336 109.604 56.168C108.079 57 106.293 57.416 104.248 57.416C101.856 57.416 99.6893 56.8093 97.748 55.596C95.8067 54.348 94.264 52.5973 93.12 50.344C92.0107 48.056 91.456 45.4213 91.456 42.44ZM113.192 42.492C113.192 40.2733 112.568 38.5227 111.32 37.24C110.107 35.9573 108.616 35.316 106.848 35.316C105.08 35.316 103.572 35.9573 102.324 37.24C101.111 38.488 100.504 40.2213 100.504 42.44C100.504 44.6587 101.111 46.4267 102.324 47.744C103.572 49.0267 105.08 49.668 106.848 49.668C108.616 49.668 110.107 49.0267 111.32 47.744C112.568 46.4613 113.192 44.7107 113.192 42.492ZM126.749 42.44C126.749 39.4587 127.304 36.8413 128.413 34.588C129.557 32.3347 131.1 30.6013 133.041 29.388C134.982 28.1747 137.149 27.568 139.541 27.568C141.586 27.568 143.372 27.984 144.897 28.816C146.457 29.648 147.653 30.74 148.485 32.092V27.984H157.377V57H148.485V52.892C147.618 54.244 146.405 55.336 144.845 56.168C143.32 57 141.534 57.416 139.489 57.416C137.132 57.416 134.982 56.8093 133.041 55.596C131.1 54.348 129.557 52.5973 128.413 50.344C127.304 48.056 126.749 45.4213 126.749 42.44ZM148.485 42.492C148.485 40.2733 147.861 38.5227 146.613 37.24C145.4 35.9573 143.909 35.316 142.141 35.316C140.373 35.316 138.865 35.9573 137.617 37.24C136.404 38.488 135.797 40.2213 135.797 42.44C135.797 44.6587 136.404 46.4267 137.617 47.744C138.865 49.0267 140.373 49.668 142.141 49.668C143.909 49.668 145.4 49.0267 146.613 47.744C147.861 46.4613 148.485 44.7107 148.485 42.492ZM162.042 42.44C162.042 39.4587 162.597 36.8413 163.706 34.588C164.85 32.3347 166.393 30.6013 168.334 29.388C170.275 28.1747 172.442 27.568 174.834 27.568C176.741 27.568 178.474 27.9667 180.034 28.764C181.629 29.5613 182.877 30.636 183.778 31.988V18.52H192.67V57H183.778V52.84C182.946 54.2267 181.75 55.336 180.19 56.168C178.665 57 176.879 57.416 174.834 57.416C172.442 57.416 170.275 56.8093 168.334 55.596C166.393 54.348 164.85 52.5973 163.706 50.344C162.597 48.056 162.042 45.4213 162.042 42.44ZM183.778 42.492C183.778 40.2733 183.154 38.5227 181.906 37.24C180.693 35.9573 179.202 35.316 177.434 35.316C175.666 35.316 174.158 35.9573 172.91 37.24C171.697 38.488 171.09 40.2213 171.09 42.44C171.09 44.6587 171.697 46.4267 172.91 47.744C174.158 49.0267 175.666 49.668 177.434 49.668C179.202 49.668 180.693 49.0267 181.906 47.744C183.154 46.4613 183.778 44.7107 183.778 42.492ZM212.311 57.416C209.468 57.416 206.903 56.8093 204.615 55.596C202.362 54.3827 200.576 52.6493 199.259 50.396C197.976 48.1427 197.335 45.508 197.335 42.492C197.335 39.5107 197.994 36.8933 199.311 34.64C200.628 32.352 202.431 30.6013 204.719 29.388C207.007 28.1747 209.572 27.568 212.415 27.568C215.258 27.568 217.823 28.1747 220.111 29.388C222.399 30.6013 224.202 32.352 225.519 34.64C226.836 36.8933 227.495 39.5107 227.495 42.492C227.495 45.4733 226.819 48.108 225.467 50.396C224.15 52.6493 222.33 54.3827 220.007 55.596C217.719 56.8093 215.154 57.416 212.311 57.416ZM212.311 49.72C214.01 49.72 215.448 49.096 216.627 47.848C217.84 46.6 218.447 44.8147 218.447 42.492C218.447 40.1693 217.858 38.384 216.679 37.136C215.535 35.888 214.114 35.264 212.415 35.264C210.682 35.264 209.243 35.888 208.099 37.136C206.955 38.3493 206.383 40.1347 206.383 42.492C206.383 44.8147 206.938 46.6 208.047 47.848C209.191 49.096 210.612 49.72 212.311 49.72ZM244.016 57.416C241.486 57.416 239.232 56.9827 237.256 56.116C235.28 55.2493 233.72 54.0707 232.576 52.58C231.432 51.0547 230.791 49.356 230.652 47.484H239.44C239.544 48.4893 240.012 49.304 240.844 49.928C241.676 50.552 242.699 50.864 243.912 50.864C245.022 50.864 245.871 50.656 246.46 50.24C247.084 49.7893 247.396 49.2173 247.396 48.524C247.396 47.692 246.963 47.0853 246.096 46.704C245.23 46.288 243.826 45.8373 241.884 45.352C239.804 44.8667 238.071 44.364 236.684 43.844C235.298 43.2893 234.102 42.44 233.096 41.296C232.091 40.1173 231.588 38.54 231.588 36.564C231.588 34.9 232.039 33.392 232.94 32.04C233.876 30.6533 235.228 29.5613 236.996 28.764C238.799 27.9667 240.931 27.568 243.392 27.568C247.032 27.568 249.892 28.4693 251.972 30.272C254.087 32.0747 255.3 34.4667 255.612 37.448H247.396C247.258 36.4427 246.807 35.6453 246.044 35.056C245.316 34.4667 244.346 34.172 243.132 34.172C242.092 34.172 241.295 34.38 240.74 34.796C240.186 35.1773 239.908 35.7147 239.908 36.408C239.908 37.24 240.342 37.864 241.208 38.28C242.11 38.696 243.496 39.112 245.368 39.528C247.518 40.0827 249.268 40.6373 250.62 41.192C251.972 41.712 253.151 42.5787 254.156 43.792C255.196 44.9707 255.734 46.5653 255.768 48.576C255.768 50.2747 255.283 51.8 254.312 53.152C253.376 54.4693 252.007 55.5093 250.204 56.272C248.436 57.0347 246.374 57.416 244.016 57.416Z" fill="#FFEBEB"/>
<path d="M6.67425 103.808C6.67425 100.619 7.36425 97.782 8.74425 95.298C10.1243 92.7833 12.0409 90.836 14.4943 89.456C16.9783 88.0453 19.7843 87.34 22.9123 87.34C26.7456 87.34 30.0269 88.352 32.7563 90.376C35.4856 92.4 37.3103 95.16 38.2303 98.656H29.5823C28.9383 97.3067 28.0183 96.2793 26.8223 95.574C25.6569 94.8687 24.3229 94.516 22.8203 94.516C20.3976 94.516 18.4349 95.3593 16.9323 97.046C15.4296 98.7327 14.6783 100.987 14.6783 103.808C14.6783 106.629 15.4296 108.883 16.9323 110.57C18.4349 112.257 20.3976 113.1 22.8203 113.1C24.3229 113.1 25.6569 112.747 26.8223 112.042C28.0183 111.337 28.9383 110.309 29.5823 108.96H38.2303C37.3103 112.456 35.4856 115.216 32.7563 117.24C30.0269 119.233 26.7456 120.23 22.9123 120.23C19.7843 120.23 16.9783 119.54 14.4943 118.16C12.0409 116.749 10.1243 114.802 8.74425 112.318C7.36425 109.834 6.67425 106.997 6.67425 103.808ZM41.4833 107.12C41.4833 104.483 41.974 102.167 42.9553 100.174C43.9673 98.1807 45.332 96.6473 47.0493 95.574C48.7666 94.5007 50.6833 93.964 52.7993 93.964C54.6086 93.964 56.188 94.332 57.5373 95.068C58.9173 95.804 59.9753 96.77 60.7113 97.966V94.332H68.5773V120H60.7113V116.366C59.9446 117.562 58.8713 118.528 57.4913 119.264C56.142 120 54.5626 120.368 52.7533 120.368C50.668 120.368 48.7666 119.831 47.0493 118.758C45.332 117.654 43.9673 116.105 42.9553 114.112C41.974 112.088 41.4833 109.757 41.4833 107.12ZM60.7113 107.166C60.7113 105.203 60.1593 103.655 59.0553 102.52C57.982 101.385 56.6633 100.818 55.0993 100.818C53.5353 100.818 52.2013 101.385 51.0973 102.52C50.024 103.624 49.4873 105.157 49.4873 107.12C49.4873 109.083 50.024 110.647 51.0973 111.812C52.2013 112.947 53.5353 113.514 55.0993 113.514C56.6633 113.514 57.982 112.947 59.0553 111.812C60.1593 110.677 60.7113 109.129 60.7113 107.166ZM72.704 107.166C72.704 104.498 73.2407 102.167 74.314 100.174C75.418 98.1807 76.936 96.6473 78.868 95.574C80.8307 94.5007 83.0693 93.964 85.584 93.964C88.804 93.964 91.4873 94.8073 93.634 96.494C95.8113 98.1807 97.2374 100.557 97.912 103.624H89.54C88.8347 101.661 87.47 100.68 85.446 100.68C84.0047 100.68 82.8547 101.247 81.996 102.382C81.1373 103.486 80.708 105.081 80.708 107.166C80.708 109.251 81.1373 110.861 81.996 111.996C82.8547 113.1 84.0047 113.652 85.446 113.652C87.47 113.652 88.8347 112.671 89.54 110.708H97.912C97.2374 113.713 95.8113 116.075 93.634 117.792C91.4567 119.509 88.7734 120.368 85.584 120.368C83.0693 120.368 80.8307 119.831 78.868 118.758C76.936 117.685 75.418 116.151 74.314 114.158C73.2407 112.165 72.704 109.834 72.704 107.166ZM117.898 94.056C120.842 94.056 123.203 95.0373 124.982 97C126.76 98.932 127.65 101.6 127.65 105.004V120H119.83V106.062C119.83 104.345 119.385 103.011 118.496 102.06C117.606 101.109 116.41 100.634 114.908 100.634C113.405 100.634 112.209 101.109 111.32 102.06C110.43 103.011 109.986 104.345 109.986 106.062V120H102.12V85.96H109.986V97.782C110.783 96.6473 111.872 95.7427 113.252 95.068C114.632 94.3933 116.18 94.056 117.898 94.056ZM144.8 120.368C142.285 120.368 140.016 119.831 137.992 118.758C135.998 117.685 134.419 116.151 133.254 114.158C132.119 112.165 131.552 109.834 131.552 107.166C131.552 104.529 132.134 102.213 133.3 100.22C134.465 98.196 136.06 96.6473 138.084 95.574C140.108 94.5007 142.377 93.964 144.892 93.964C147.406 93.964 149.676 94.5007 151.7 95.574C153.724 96.6473 155.318 98.196 156.484 100.22C157.649 102.213 158.232 104.529 158.232 107.166C158.232 109.803 157.634 112.134 156.438 114.158C155.272 116.151 153.662 117.685 151.608 118.758C149.584 119.831 147.314 120.368 144.8 120.368ZM144.8 113.56C146.302 113.56 147.575 113.008 148.618 111.904C149.691 110.8 150.228 109.221 150.228 107.166C150.228 105.111 149.706 103.532 148.664 102.428C147.652 101.324 146.394 100.772 144.892 100.772C143.358 100.772 142.086 101.324 141.074 102.428C140.062 103.501 139.556 105.081 139.556 107.166C139.556 109.221 140.046 110.8 141.028 111.904C142.04 113.008 143.297 113.56 144.8 113.56ZM170.271 98.61C171.191 97.1993 172.341 96.0953 173.721 95.298C175.101 94.47 176.634 94.056 178.321 94.056V102.382H176.159C174.196 102.382 172.724 102.811 171.743 103.67C170.761 104.498 170.271 105.97 170.271 108.086V120H162.405V94.332H170.271V98.61ZM189.947 98.61C190.867 97.1993 192.017 96.0953 193.397 95.298C194.777 94.47 196.31 94.056 197.997 94.056V102.382H195.835C193.872 102.382 192.4 102.811 191.419 103.67C190.437 104.498 189.947 105.97 189.947 108.086V120H182.081V94.332H189.947V98.61ZM213.44 120.368C210.926 120.368 208.656 119.831 206.632 118.758C204.639 117.685 203.06 116.151 201.894 114.158C200.76 112.165 200.192 109.834 200.192 107.166C200.192 104.529 200.775 102.213 201.94 100.22C203.106 98.196 204.7 96.6473 206.724 95.574C208.748 94.5007 211.018 93.964 213.532 93.964C216.047 93.964 218.316 94.5007 220.34 95.574C222.364 96.6473 223.959 98.196 225.124 100.22C226.29 102.213 226.872 104.529 226.872 107.166C226.872 109.803 226.274 112.134 225.078 114.158C223.913 116.151 222.303 117.685 220.248 118.758C218.224 119.831 215.955 120.368 213.44 120.368ZM213.44 113.56C214.943 113.56 216.216 113.008 217.258 111.904C218.332 110.8 218.868 109.221 218.868 107.166C218.868 105.111 218.347 103.532 217.304 102.428C216.292 101.324 215.035 100.772 213.532 100.772C211.999 100.772 210.726 101.324 209.714 102.428C208.702 103.501 208.196 105.081 208.196 107.166C208.196 109.221 208.687 110.8 209.668 111.904C210.68 113.008 211.938 113.56 213.44 113.56ZM241.487 120.368C239.249 120.368 237.255 119.985 235.507 119.218C233.759 118.451 232.379 117.409 231.367 116.09C230.355 114.741 229.788 113.238 229.665 111.582H237.439C237.531 112.471 237.945 113.192 238.681 113.744C239.417 114.296 240.322 114.572 241.395 114.572C242.377 114.572 243.128 114.388 243.649 114.02C244.201 113.621 244.477 113.115 244.477 112.502C244.477 111.766 244.094 111.229 243.327 110.892C242.561 110.524 241.319 110.125 239.601 109.696C237.761 109.267 236.228 108.822 235.001 108.362C233.775 107.871 232.717 107.12 231.827 106.108C230.938 105.065 230.493 103.67 230.493 101.922C230.493 100.45 230.892 99.116 231.689 97.92C232.517 96.6933 233.713 95.7273 235.277 95.022C236.872 94.3167 238.758 93.964 240.935 93.964C244.155 93.964 246.685 94.7613 248.525 96.356C250.396 97.9507 251.469 100.067 251.745 102.704H244.477C244.355 101.815 243.956 101.109 243.281 100.588C242.637 100.067 241.779 99.806 240.705 99.806C239.785 99.806 239.08 99.99 238.589 100.358C238.099 100.695 237.853 101.171 237.853 101.784C237.853 102.52 238.237 103.072 239.003 103.44C239.801 103.808 241.027 104.176 242.683 104.544C244.585 105.035 246.133 105.525 247.329 106.016C248.525 106.476 249.568 107.243 250.457 108.316C251.377 109.359 251.853 110.769 251.883 112.548C251.883 114.051 251.454 115.4 250.595 116.596C249.767 117.761 248.556 118.681 246.961 119.356C245.397 120.031 243.573 120.368 241.487 120.368Z" fill="#FFEBEB"/>
</svg>
