<svg width="258" height="134" viewBox="0 0 258 134" fill="none" xmlns="http://www.w3.org/2000/svg">
<path d="M1.73162 38.696C1.73162 35.0907 2.51163 31.884 4.07163 29.076C5.63163 26.2333 7.79829 24.032 10.5716 22.472C13.3796 20.8773 16.5516 20.08 20.0876 20.08C24.421 20.08 28.1303 21.224 31.2156 23.512C34.301 25.8 36.3636 28.92 37.4036 32.872H27.6276C26.8996 31.3467 25.8596 30.1853 24.5076 29.388C23.1903 28.5907 21.6823 28.192 19.9836 28.192C17.245 28.192 15.0263 29.1453 13.3276 31.052C11.629 32.9587 10.7796 35.5067 10.7796 38.696C10.7796 41.8853 11.629 44.4333 13.3276 46.34C15.0263 48.2467 17.245 49.2 19.9836 49.2C21.6823 49.2 23.1903 48.8013 24.5076 48.004C25.8596 47.2067 26.8996 46.0453 27.6276 44.52H37.4036C36.3636 48.472 34.301 51.592 31.2156 53.88C28.1303 56.1333 24.421 57.26 20.0876 57.26C16.5516 57.26 13.3796 56.48 10.5716 54.92C7.79829 53.3253 5.63163 51.124 4.07163 48.316C2.51163 45.508 1.73162 42.3013 1.73162 38.696ZM71.501 27.984V57H62.609V53.048C61.7077 54.3307 60.477 55.3707 58.917 56.168C57.3917 56.9307 55.693 57.312 53.821 57.312C51.6023 57.312 49.6437 56.8267 47.945 55.856C46.2463 54.8507 44.929 53.412 43.993 51.54C43.057 49.668 42.589 47.4667 42.589 44.936V27.984H51.429V43.74C51.429 45.6813 51.9317 47.1893 52.937 48.264C53.9423 49.3387 55.2943 49.876 56.993 49.876C58.7263 49.876 60.0957 49.3387 61.101 48.264C62.1063 47.1893 62.609 45.6813 62.609 43.74V27.984H71.501ZM82.3601 24.968C80.8001 24.968 79.5174 24.5173 78.5121 23.616C77.5414 22.68 77.0561 21.536 77.0561 20.184C77.0561 18.7973 77.5414 17.6533 78.5121 16.752C79.5174 15.816 80.8001 15.348 82.3601 15.348C83.8854 15.348 85.1334 15.816 86.1041 16.752C87.1094 17.6533 87.6121 18.7973 87.6121 20.184C87.6121 21.536 87.1094 22.68 86.1041 23.616C85.1334 24.5173 83.8854 24.968 82.3601 24.968ZM86.7801 27.984V57H77.8881V27.984H86.7801ZM91.456 42.44C91.456 39.4587 92.0107 36.8413 93.12 34.588C94.264 32.3347 95.8067 30.6013 97.748 29.388C99.6893 28.1747 101.856 27.568 104.248 27.568C106.155 27.568 107.888 27.9667 109.448 28.764C111.043 29.5613 112.291 30.636 113.192 31.988V18.52H122.084V57H113.192V52.84C112.36 54.2267 111.164 55.336 109.604 56.168C108.079 57 106.293 57.416 104.248 57.416C101.856 57.416 99.6893 56.8093 97.748 55.596C95.8067 54.348 94.264 52.5973 93.12 50.344C92.0107 48.056 91.456 45.4213 91.456 42.44ZM113.192 42.492C113.192 40.2733 112.568 38.5227 111.32 37.24C110.107 35.9573 108.616 35.316 106.848 35.316C105.08 35.316 103.572 35.9573 102.324 37.24C101.111 38.488 100.504 40.2213 100.504 42.44C100.504 44.6587 101.111 46.4267 102.324 47.744C103.572 49.0267 105.08 49.668 106.848 49.668C108.616 49.668 110.107 49.0267 111.32 47.744C112.568 46.4613 113.192 44.7107 113.192 42.492ZM126.749 42.44C126.749 39.4587 127.304 36.8413 128.413 34.588C129.557 32.3347 131.1 30.6013 133.041 29.388C134.982 28.1747 137.149 27.568 139.541 27.568C141.586 27.568 143.372 27.984 144.897 28.816C146.457 29.648 147.653 30.74 148.485 32.092V27.984H157.377V57H148.485V52.892C147.618 54.244 146.405 55.336 144.845 56.168C143.32 57 141.534 57.416 139.489 57.416C137.132 57.416 134.982 56.8093 133.041 55.596C131.1 54.348 129.557 52.5973 128.413 50.344C127.304 48.056 126.749 45.4213 126.749 42.44ZM148.485 42.492C148.485 40.2733 147.861 38.5227 146.613 37.24C145.4 35.9573 143.909 35.316 142.141 35.316C140.373 35.316 138.865 35.9573 137.617 37.24C136.404 38.488 135.797 40.2213 135.797 42.44C135.797 44.6587 136.404 46.4267 137.617 47.744C138.865 49.0267 140.373 49.668 142.141 49.668C143.909 49.668 145.4 49.0267 146.613 47.744C147.861 46.4613 148.485 44.7107 148.485 42.492ZM162.042 42.44C162.042 39.4587 162.597 36.8413 163.706 34.588C164.85 32.3347 166.393 30.6013 168.334 29.388C170.275 28.1747 172.442 27.568 174.834 27.568C176.741 27.568 178.474 27.9667 180.034 28.764C181.629 29.5613 182.877 30.636 183.778 31.988V18.52H192.67V57H183.778V52.84C182.946 54.2267 181.75 55.336 180.19 56.168C178.665 57 176.879 57.416 174.834 57.416C172.442 57.416 170.275 56.8093 168.334 55.596C166.393 54.348 164.85 52.5973 163.706 50.344C162.597 48.056 162.042 45.4213 162.042 42.44ZM183.778 42.492C183.778 40.2733 183.154 38.5227 181.906 37.24C180.693 35.9573 179.202 35.316 177.434 35.316C175.666 35.316 174.158 35.9573 172.91 37.24C171.697 38.488 171.09 40.2213 171.09 42.44C171.09 44.6587 171.697 46.4267 172.91 47.744C174.158 49.0267 175.666 49.668 177.434 49.668C179.202 49.668 180.693 49.0267 181.906 47.744C183.154 46.4613 183.778 44.7107 183.778 42.492ZM212.311 57.416C209.468 57.416 206.903 56.8093 204.615 55.596C202.362 54.3827 200.576 52.6493 199.259 50.396C197.976 48.1427 197.335 45.508 197.335 42.492C197.335 39.5107 197.994 36.8933 199.311 34.64C200.628 32.352 202.431 30.6013 204.719 29.388C207.007 28.1747 209.572 27.568 212.415 27.568C215.258 27.568 217.823 28.1747 220.111 29.388C222.399 30.6013 224.202 32.352 225.519 34.64C226.836 36.8933 227.495 39.5107 227.495 42.492C227.495 45.4733 226.819 48.108 225.467 50.396C224.15 52.6493 222.33 54.3827 220.007 55.596C217.719 56.8093 215.154 57.416 212.311 57.416ZM212.311 49.72C214.01 49.72 215.448 49.096 216.627 47.848C217.84 46.6 218.447 44.8147 218.447 42.492C218.447 40.1693 217.858 38.384 216.679 37.136C215.535 35.888 214.114 35.264 212.415 35.264C210.682 35.264 209.243 35.888 208.099 37.136C206.955 38.3493 206.383 40.1347 206.383 42.492C206.383 44.8147 206.938 46.6 208.047 47.848C209.191 49.096 210.612 49.72 212.311 49.72ZM244.016 57.416C241.486 57.416 239.232 56.9827 237.256 56.116C235.28 55.2493 233.72 54.0707 232.576 52.58C231.432 51.0547 230.791 49.356 230.652 47.484H239.44C239.544 48.4893 240.012 49.304 240.844 49.928C241.676 50.552 242.699 50.864 243.912 50.864C245.022 50.864 245.871 50.656 246.46 50.24C247.084 49.7893 247.396 49.2173 247.396 48.524C247.396 47.692 246.963 47.0853 246.096 46.704C245.23 46.288 243.826 45.8373 241.884 45.352C239.804 44.8667 238.071 44.364 236.684 43.844C235.298 43.2893 234.102 42.44 233.096 41.296C232.091 40.1173 231.588 38.54 231.588 36.564C231.588 34.9 232.039 33.392 232.94 32.04C233.876 30.6533 235.228 29.5613 236.996 28.764C238.799 27.9667 240.931 27.568 243.392 27.568C247.032 27.568 249.892 28.4693 251.972 30.272C254.087 32.0747 255.3 34.4667 255.612 37.448H247.396C247.258 36.4427 246.807 35.6453 246.044 35.056C245.316 34.4667 244.346 34.172 243.132 34.172C242.092 34.172 241.295 34.38 240.74 34.796C240.186 35.1773 239.908 35.7147 239.908 36.408C239.908 37.24 240.342 37.864 241.208 38.28C242.11 38.696 243.496 39.112 245.368 39.528C247.518 40.0827 249.268 40.6373 250.62 41.192C251.972 41.712 253.151 42.5787 254.156 43.792C255.196 44.9707 255.734 46.5653 255.768 48.576C255.768 50.2747 255.283 51.8 254.312 53.152C253.376 54.4693 252.007 55.5093 250.204 56.272C248.436 57.0347 246.374 57.416 244.016 57.416Z" fill="#FFEBEB"/>
<path d="M83.3446 93.92C82.762 92.8467 81.9186 92.034 80.8146 91.482C79.7413 90.8993 78.4686 90.608 76.9966 90.608C74.4513 90.608 72.412 91.4513 70.8786 93.138C69.3453 94.794 68.5786 97.0173 68.5786 99.808C68.5786 102.783 69.376 105.113 70.9706 106.8C72.596 108.456 74.8193 109.284 77.6406 109.284C79.5726 109.284 81.198 108.793 82.5166 107.812C83.866 106.831 84.8473 105.42 85.4606 103.58H75.4786V97.784H92.5906V105.098C92.008 107.061 91.0113 108.885 89.6006 110.572C88.2206 112.259 86.4573 113.623 84.3106 114.666C82.164 115.709 79.7413 116.23 77.0426 116.23C73.8533 116.23 71.0013 115.54 68.4866 114.16C66.0026 112.749 64.0553 110.802 62.6446 108.318C61.2646 105.834 60.5746 102.997 60.5746 99.808C60.5746 96.6187 61.2646 93.782 62.6446 91.298C64.0553 88.7833 66.0026 86.836 68.4866 85.456C70.9706 84.0453 73.8073 83.34 76.9966 83.34C80.8606 83.34 84.1113 84.2753 86.7486 86.146C89.4166 88.0167 91.18 90.608 92.0386 93.92H83.3446ZM95.3837 103.12C95.3837 100.483 95.8744 98.1673 96.8557 96.174C97.8677 94.1807 99.2324 92.6473 100.95 91.574C102.667 90.5007 104.584 89.964 106.7 89.964C108.509 89.964 110.088 90.332 111.438 91.068C112.818 91.804 113.876 92.77 114.612 93.966V90.332H122.478V116H114.612V112.366C113.845 113.562 112.772 114.528 111.392 115.264C110.042 116 108.463 116.368 106.654 116.368C104.568 116.368 102.667 115.831 100.95 114.758C99.2324 113.654 97.8677 112.105 96.8557 110.112C95.8744 108.088 95.3837 105.757 95.3837 103.12ZM114.612 103.166C114.612 101.203 114.06 99.6547 112.956 98.52C111.882 97.3853 110.564 96.818 109 96.818C107.436 96.818 106.102 97.3853 104.998 98.52C103.924 99.624 103.388 101.157 103.388 103.12C103.388 105.083 103.924 106.647 104.998 107.812C106.102 108.947 107.436 109.514 109 109.514C110.564 109.514 111.882 108.947 112.956 107.812C114.06 106.677 114.612 105.129 114.612 103.166ZM142.474 109.33V116H138.472C135.62 116 133.397 115.31 131.802 113.93C130.208 112.519 129.41 110.235 129.41 107.076V96.864H126.282V90.332H129.41V84.076H137.276V90.332H142.428V96.864H137.276V107.168C137.276 107.935 137.46 108.487 137.828 108.824C138.196 109.161 138.81 109.33 139.668 109.33H142.474ZM158.54 116.368C156.025 116.368 153.756 115.831 151.732 114.758C149.739 113.685 148.159 112.151 146.994 110.158C145.859 108.165 145.292 105.834 145.292 103.166C145.292 100.529 145.875 98.2133 147.04 96.22C148.205 94.196 149.8 92.6473 151.824 91.574C153.848 90.5007 156.117 89.964 158.632 89.964C161.147 89.964 163.416 90.5007 165.44 91.574C167.464 92.6473 169.059 94.196 170.224 96.22C171.389 98.2133 171.972 100.529 171.972 103.166C171.972 105.803 171.374 108.134 170.178 110.158C169.013 112.151 167.403 113.685 165.348 114.758C163.324 115.831 161.055 116.368 158.54 116.368ZM158.54 109.56C160.043 109.56 161.315 109.008 162.358 107.904C163.431 106.8 163.968 105.221 163.968 103.166C163.968 101.111 163.447 99.532 162.404 98.428C161.392 97.324 160.135 96.772 158.632 96.772C157.099 96.772 155.826 97.324 154.814 98.428C153.802 99.5013 153.296 101.081 153.296 103.166C153.296 105.221 153.787 106.8 154.768 107.904C155.78 109.008 157.037 109.56 158.54 109.56ZM186.587 116.368C184.348 116.368 182.355 115.985 180.607 115.218C178.859 114.451 177.479 113.409 176.467 112.09C175.455 110.741 174.888 109.238 174.765 107.582H182.539C182.631 108.471 183.045 109.192 183.781 109.744C184.517 110.296 185.422 110.572 186.495 110.572C187.476 110.572 188.228 110.388 188.749 110.02C189.301 109.621 189.577 109.115 189.577 108.502C189.577 107.766 189.194 107.229 188.427 106.892C187.66 106.524 186.418 106.125 184.701 105.696C182.861 105.267 181.328 104.822 180.101 104.362C178.874 103.871 177.816 103.12 176.927 102.108C176.038 101.065 175.593 99.67 175.593 97.922C175.593 96.45 175.992 95.116 176.789 93.92C177.617 92.6933 178.813 91.7273 180.377 91.022C181.972 90.3167 183.858 89.964 186.035 89.964C189.255 89.964 191.785 90.7613 193.625 92.356C195.496 93.9507 196.569 96.0667 196.845 98.704H189.577C189.454 97.8147 189.056 97.1093 188.381 96.588C187.737 96.0667 186.878 95.806 185.805 95.806C184.885 95.806 184.18 95.99 183.689 96.358C183.198 96.6953 182.953 97.1707 182.953 97.784C182.953 98.52 183.336 99.072 184.103 99.44C184.9 99.808 186.127 100.176 187.783 100.544C189.684 101.035 191.233 101.525 192.429 102.016C193.625 102.476 194.668 103.243 195.557 104.316C196.477 105.359 196.952 106.769 196.983 108.548C196.983 110.051 196.554 111.4 195.695 112.596C194.867 113.761 193.656 114.681 192.061 115.356C190.497 116.031 188.672 116.368 186.587 116.368Z" fill="#FFEBEB"/>
</svg>
