<svg width="271" height="349" viewBox="0 0 271 349" fill="none" xmlns="http://www.w3.org/2000/svg">
<path d="M86.4288 330.536H76.9968L75.4848 335H69.0408L78.1848 309.728H85.3128L94.4568 335H87.9408L86.4288 330.536ZM84.8448 325.784L81.7128 316.532L78.6168 325.784H84.8448ZM103.396 308.36V335H97.2398V308.36H103.396ZM117.937 320.024H114.625V335H108.469V320.024H106.237V314.912H108.469V314.336C108.469 311.864 109.177 309.992 110.593 308.72C112.009 307.424 114.085 306.776 116.821 306.776C117.277 306.776 117.613 306.788 117.829 306.812V312.032C116.653 311.96 115.825 312.128 115.345 312.536C114.865 312.944 114.625 313.676 114.625 314.732V314.912H117.937V320.024ZM126.986 318.26C127.706 317.156 128.606 316.292 129.686 315.668C130.766 315.02 131.966 314.696 133.286 314.696V321.212H131.594C130.058 321.212 128.906 321.548 128.138 322.22C127.37 322.868 126.986 324.02 126.986 325.676V335H120.83V314.912H126.986V318.26ZM155.164 324.632C155.164 325.208 155.128 325.808 155.056 326.432H141.124C141.22 327.68 141.616 328.64 142.312 329.312C143.032 329.96 143.908 330.284 144.94 330.284C146.476 330.284 147.544 329.636 148.144 328.34H154.696C154.36 329.66 153.748 330.848 152.86 331.904C151.996 332.96 150.904 333.788 149.584 334.388C148.264 334.988 146.788 335.288 145.156 335.288C143.188 335.288 141.436 334.868 139.9 334.028C138.364 333.188 137.164 331.988 136.3 330.428C135.436 328.868 135.004 327.044 135.004 324.956C135.004 322.868 135.424 321.044 136.264 319.484C137.128 317.924 138.328 316.724 139.864 315.884C141.4 315.044 143.164 314.624 145.156 314.624C147.1 314.624 148.828 315.032 150.34 315.848C151.852 316.664 153.028 317.828 153.868 319.34C154.732 320.852 155.164 322.616 155.164 324.632ZM148.864 323.012C148.864 321.956 148.504 321.116 147.784 320.492C147.064 319.868 146.164 319.556 145.084 319.556C144.052 319.556 143.176 319.856 142.456 320.456C141.76 321.056 141.328 321.908 141.16 323.012H148.864ZM157.188 324.92C157.188 322.856 157.572 321.044 158.34 319.484C159.132 317.924 160.2 316.724 161.544 315.884C162.888 315.044 164.388 314.624 166.044 314.624C167.364 314.624 168.564 314.9 169.644 315.452C170.748 316.004 171.612 316.748 172.236 317.684V308.36H178.392V335H172.236V332.12C171.66 333.08 170.832 333.848 169.752 334.424C168.696 335 167.46 335.288 166.044 335.288C164.388 335.288 162.888 334.868 161.544 334.028C160.2 333.164 159.132 331.952 158.34 330.392C157.572 328.808 157.188 326.984 157.188 324.92ZM172.236 324.956C172.236 323.42 171.804 322.208 170.94 321.32C170.1 320.432 169.068 319.988 167.844 319.988C166.62 319.988 165.576 320.432 164.712 321.32C163.872 322.184 163.452 323.384 163.452 324.92C163.452 326.456 163.872 327.68 164.712 328.592C165.576 329.48 166.62 329.924 167.844 329.924C169.068 329.924 170.1 329.48 170.94 328.592C171.804 327.704 172.236 326.492 172.236 324.956ZM191.989 335.288C190.021 335.288 188.245 334.868 186.661 334.028C185.101 333.188 183.865 331.988 182.953 330.428C182.065 328.868 181.621 327.044 181.621 324.956C181.621 322.892 182.077 321.08 182.989 319.52C183.901 317.936 185.149 316.724 186.733 315.884C188.317 315.044 190.093 314.624 192.061 314.624C194.029 314.624 195.805 315.044 197.389 315.884C198.973 316.724 200.221 317.936 201.133 319.52C202.045 321.08 202.501 322.892 202.501 324.956C202.501 327.02 202.033 328.844 201.097 330.428C200.185 331.988 198.925 333.188 197.317 334.028C195.733 334.868 193.957 335.288 191.989 335.288ZM191.989 329.96C193.165 329.96 194.161 329.528 194.977 328.664C195.817 327.8 196.237 326.564 196.237 324.956C196.237 323.348 195.829 322.112 195.013 321.248C194.221 320.384 193.237 319.952 192.061 319.952C190.861 319.952 189.865 320.384 189.073 321.248C188.281 322.088 187.885 323.324 187.885 324.956C187.885 326.564 188.269 327.8 189.037 328.664C189.829 329.528 190.813 329.96 191.989 329.96Z" fill="#FFEBEB"/>
<circle cx="135.5" cy="135.5" r="135.5" fill="#F8A98A"/>
<g clip-path="url(#clip0_323_21)">
<path d="M216.558 135.362C240.064 200.257 182.639 222.86 136.152 221.751C57.651 219.865 41.4371 183.645 55.4136 135.667C56.3804 132.312 57.2643 133.282 54.8888 128.706C46.6023 112.76 51.9609 59.2075 61.5456 52.0524C71.1304 44.8972 112.894 78.1214 112.894 78.1214C112.894 78.1214 126.291 76.3742 136.29 76.5961C148.001 76.8457 156.619 78.7315 156.619 78.7315C156.619 78.7315 201.007 43.3719 209.156 51.1094C215.73 57.3771 222.193 76.2355 219.845 103.026C216.531 140.77 213.63 127.292 216.558 135.362Z" fill="#CED0D0"/>
<path d="M96.5701 167.005C105.723 167.005 113.143 159.556 113.143 150.366C113.143 141.176 105.723 133.726 96.5701 133.726C87.4171 133.726 79.9971 141.176 79.9971 150.366C79.9971 159.556 87.4171 167.005 96.5701 167.005Z" fill="#5C2F17"/>
<path d="M100.685 149.783C103.416 149.783 105.63 147.561 105.63 144.819C105.63 142.078 103.416 139.855 100.685 139.855C97.9548 139.855 95.7412 142.078 95.7412 144.819C95.7412 147.561 97.9548 149.783 100.685 149.783Z" fill="white"/>
<path d="M174.85 166.867C184.003 166.867 191.423 159.417 191.423 150.227C191.423 141.037 184.003 133.587 174.85 133.587C165.697 133.587 158.277 141.037 158.277 150.227C158.277 159.417 165.697 166.867 174.85 166.867Z" fill="#5C2F17"/>
<path d="M170.596 149.312C173.326 149.312 175.54 147.089 175.54 144.348C175.54 141.606 173.326 139.383 170.596 139.383C167.865 139.383 165.651 141.606 165.651 144.348C165.651 147.089 167.865 149.312 170.596 149.312Z" fill="white"/>
<path d="M113.779 118.196C110.243 118.473 106.956 117.253 104.443 114.59C100.658 110.597 97.9792 105.244 98.7526 94.2897C99.4707 84.084 107.343 73.8228 107.343 73.8228L112.619 77.844L129.44 76.5961C129.44 76.5961 127.949 85.8034 127.092 94.8998C126.623 99.864 127.203 103.941 126.291 108.434C125.159 114.174 116.928 117.974 113.806 118.196H113.779Z" fill="#7A7A79"/>
<path d="M156.509 118.223C160.045 118.5 163.332 117.28 165.846 114.618C169.63 110.624 172.309 105.272 171.536 94.3173C170.817 84.1115 162.945 73.8503 162.945 73.8503L157.67 77.8716L140.82 76.7346C140.82 76.7346 142.34 85.831 143.223 94.8997C143.693 99.8639 143.113 103.941 144.024 108.433C145.157 114.174 153.388 117.974 156.509 118.195V118.223Z" fill="#7A7A79"/>
<path d="M220.453 88.0497C221.641 113.509 217.305 124.103 217.305 124.103L204.847 105.078C203.798 103.497 202.582 102.027 201.229 100.696L188.661 88.4935C185.788 85.7202 186.534 82.4477 188.329 79.813L195.566 72.547C195.953 72.131 197.527 70.2174 198.964 68.387C200.621 66.3348 202.002 64.0884 203.107 61.7034L208.3 50.4993C208.3 50.4993 219.017 57.1829 220.426 88.0497H220.453Z" fill="#ED7D80"/>
<path d="M50.1933 88.9095C49.0055 114.368 53.3421 124.962 53.3421 124.962L65.7995 105.938C66.8491 104.357 68.0645 102.887 69.4179 101.556L81.9858 89.3532C84.8584 86.5799 84.1127 83.3074 82.3173 80.6728L75.0804 73.4067C74.6937 72.9907 73.1192 71.0771 71.6829 69.2468C70.0256 67.1945 68.6445 64.9482 67.5397 62.5631L62.3468 51.3867C62.3468 51.3867 51.6296 58.0704 50.1933 88.9095Z" fill="#ED7D80"/>
<path d="M217.305 185.476C213.907 192.437 209.377 197.706 204.433 201.727C175.182 225.411 136.346 221.806 136.346 221.806C136.346 221.806 84.3893 222.693 63.1206 198.538C52.1272 186.058 51.1328 170.916 51.1328 170.916C51.1328 170.916 62.3196 180.927 81.9033 181.538C93.4216 181.898 102.564 172.663 105.271 169.668C112.011 162.263 124.662 155.801 136.29 155.69C145.019 155.607 156.04 159.601 167.586 169.945C170.845 172.857 176.176 180.345 190.954 181.177C204.654 181.981 221.641 170.278 221.641 170.278C221.641 170.278 220.398 179.125 217.332 185.448L217.305 185.476Z" fill="white"/>
<path d="M125.297 173.523C122.783 171.526 124.137 167.366 127.313 167.338L133.5 166.312C134.799 166.09 136.124 166.09 137.423 166.257L144.273 167.172C147.615 167.144 149.107 171.443 146.51 173.606L145.267 174.632L141.815 177.489C138.5 180.234 133.777 180.29 130.407 177.6L126.899 174.799L125.269 173.495L125.297 173.523Z" fill="#5C2F17"/>
</g>
<defs>
<clipPath id="clip0_323_21">
<rect width="172" height="172" fill="white" transform="translate(50 50)"/>
</clipPath>
</defs>
</svg>
