<svg width="271" height="349" viewBox="0 0 271 349" fill="none" xmlns="http://www.w3.org/2000/svg">
<path d="M45.5108 335.252C43.6628 335.252 42.0068 334.952 40.5428 334.352C39.0788 333.752 37.9028 332.864 37.0148 331.688C36.1508 330.512 35.6948 329.096 35.6468 327.44H42.1988C42.2948 328.376 42.6188 329.096 43.1708 329.6C43.7228 330.08 44.4428 330.32 45.3308 330.32C46.2428 330.32 46.9628 330.116 47.4908 329.708C48.0188 329.276 48.2828 328.688 48.2828 327.944C48.2828 327.32 48.0668 326.804 47.6348 326.396C47.2268 325.988 46.7108 325.652 46.0868 325.388C45.4868 325.124 44.6228 324.824 43.4948 324.488C41.8628 323.984 40.5308 323.48 39.4988 322.976C38.4668 322.472 37.5788 321.728 36.8348 320.744C36.0908 319.76 35.7188 318.476 35.7188 316.892C35.7188 314.54 36.5708 312.704 38.2748 311.384C39.9788 310.04 42.1988 309.368 44.9348 309.368C47.7188 309.368 49.9628 310.04 51.6668 311.384C53.3708 312.704 54.2828 314.552 54.4028 316.928H47.7428C47.6948 316.112 47.3948 315.476 46.8428 315.02C46.2908 314.54 45.5828 314.3 44.7188 314.3C43.9748 314.3 43.3748 314.504 42.9188 314.912C42.4628 315.296 42.2348 315.86 42.2348 316.604C42.2348 317.42 42.6188 318.056 43.3868 318.512C44.1548 318.968 45.3548 319.46 46.9868 319.988C48.6188 320.54 49.9388 321.068 50.9468 321.572C51.9788 322.076 52.8668 322.808 53.6108 323.768C54.3548 324.728 54.7268 325.964 54.7268 327.476C54.7268 328.916 54.3548 330.224 53.6108 331.4C52.8908 332.576 51.8348 333.512 50.4428 334.208C49.0508 334.904 47.4068 335.252 45.5108 335.252ZM64.6712 318.26C65.3912 317.156 66.2912 316.292 67.3712 315.668C68.4512 315.02 69.6512 314.696 70.9712 314.696V321.212H69.2792C67.7432 321.212 66.5912 321.548 65.8232 322.22C65.0552 322.868 64.6712 324.02 64.6712 325.676V335H58.5152V314.912H64.6712V318.26ZM76.7936 335.288C75.7136 335.288 74.8256 334.976 74.1296 334.352C73.4576 333.704 73.1216 332.912 73.1216 331.976C73.1216 331.016 73.4576 330.212 74.1296 329.564C74.8256 328.916 75.7136 328.592 76.7936 328.592C77.8496 328.592 78.7136 328.916 79.3856 329.564C80.0816 330.212 80.4296 331.016 80.4296 331.976C80.4296 332.912 80.0816 333.704 79.3856 334.352C78.7136 334.976 77.8496 335.288 76.7936 335.288ZM107.003 322.04C108.467 322.352 109.643 323.084 110.531 324.236C111.419 325.364 111.863 326.66 111.863 328.124C111.863 330.236 111.119 331.916 109.631 333.164C108.167 334.388 106.115 335 103.475 335H91.7027V309.728H103.079C105.647 309.728 107.651 310.316 109.091 311.492C110.555 312.668 111.287 314.264 111.287 316.28C111.287 317.768 110.891 319.004 110.099 319.988C109.331 320.972 108.299 321.656 107.003 322.04ZM97.8587 319.952H101.891C102.899 319.952 103.667 319.736 104.195 319.304C104.747 318.848 105.023 318.188 105.023 317.324C105.023 316.46 104.747 315.8 104.195 315.344C103.667 314.888 102.899 314.66 101.891 314.66H97.8587V319.952ZM102.395 330.032C103.427 330.032 104.219 329.804 104.771 329.348C105.347 328.868 105.635 328.184 105.635 327.296C105.635 326.408 105.335 325.712 104.735 325.208C104.159 324.704 103.355 324.452 102.323 324.452H97.8587V330.032H102.395ZM118.529 312.824C117.449 312.824 116.561 312.512 115.865 311.888C115.193 311.24 114.857 310.448 114.857 309.512C114.857 308.552 115.193 307.76 115.865 307.136C116.561 306.488 117.449 306.164 118.529 306.164C119.585 306.164 120.449 306.488 121.121 307.136C121.817 307.76 122.165 308.552 122.165 309.512C122.165 310.448 121.817 311.24 121.121 311.888C120.449 312.512 119.585 312.824 118.529 312.824ZM121.589 314.912V335H115.433V314.912H121.589ZM133.682 314.624C135.098 314.624 136.334 314.912 137.39 315.488C138.47 316.064 139.298 316.82 139.874 317.756V314.912H146.03V334.964C146.03 336.812 145.658 338.48 144.914 339.968C144.194 341.48 143.078 342.68 141.566 343.568C140.078 344.456 138.218 344.9 135.986 344.9C133.01 344.9 130.598 344.192 128.75 342.776C126.902 341.384 125.846 339.488 125.582 337.088H131.666C131.858 337.856 132.314 338.456 133.034 338.888C133.754 339.344 134.642 339.572 135.698 339.572C136.97 339.572 137.978 339.2 138.722 338.456C139.49 337.736 139.874 336.572 139.874 334.964V332.12C139.274 333.056 138.446 333.824 137.39 334.424C136.334 335 135.098 335.288 133.682 335.288C132.026 335.288 130.526 334.868 129.182 334.028C127.838 333.164 126.77 331.952 125.978 330.392C125.21 328.808 124.826 326.984 124.826 324.92C124.826 322.856 125.21 321.044 125.978 319.484C126.77 317.924 127.838 316.724 129.182 315.884C130.526 315.044 132.026 314.624 133.682 314.624ZM139.874 324.956C139.874 323.42 139.442 322.208 138.578 321.32C137.738 320.432 136.706 319.988 135.482 319.988C134.258 319.988 133.214 320.432 132.35 321.32C131.51 322.184 131.09 323.384 131.09 324.92C131.09 326.456 131.51 327.68 132.35 328.592C133.214 329.48 134.258 329.924 135.482 329.924C136.706 329.924 137.738 329.48 138.578 328.592C139.442 327.704 139.874 326.492 139.874 324.956ZM159.628 335.288C157.66 335.288 155.884 334.868 154.3 334.028C152.74 333.188 151.504 331.988 150.592 330.428C149.704 328.868 149.26 327.044 149.26 324.956C149.26 322.892 149.716 321.08 150.628 319.52C151.54 317.936 152.788 316.724 154.372 315.884C155.956 315.044 157.732 314.624 159.7 314.624C161.668 314.624 163.444 315.044 165.028 315.884C166.612 316.724 167.86 317.936 168.772 319.52C169.684 321.08 170.14 322.892 170.14 324.956C170.14 327.02 169.672 328.844 168.736 330.428C167.824 331.988 166.564 333.188 164.956 334.028C163.372 334.868 161.596 335.288 159.628 335.288ZM159.628 329.96C160.804 329.96 161.8 329.528 162.616 328.664C163.456 327.8 163.876 326.564 163.876 324.956C163.876 323.348 163.468 322.112 162.652 321.248C161.86 320.384 160.876 319.952 159.7 319.952C158.5 319.952 157.504 320.384 156.712 321.248C155.92 322.088 155.524 323.324 155.524 324.956C155.524 326.564 155.908 327.8 156.676 328.664C157.468 329.528 158.452 329.96 159.628 329.96ZM172.182 324.92C172.182 322.856 172.566 321.044 173.334 319.484C174.126 317.924 175.194 316.724 176.538 315.884C177.882 315.044 179.382 314.624 181.038 314.624C182.358 314.624 183.558 314.9 184.638 315.452C185.742 316.004 186.606 316.748 187.23 317.684V308.36H193.386V335H187.23V332.12C186.654 333.08 185.826 333.848 184.746 334.424C183.69 335 182.454 335.288 181.038 335.288C179.382 335.288 177.882 334.868 176.538 334.028C175.194 333.164 174.126 331.952 173.334 330.392C172.566 328.808 172.182 326.984 172.182 324.92ZM187.23 324.956C187.23 323.42 186.798 322.208 185.934 321.32C185.094 320.432 184.062 319.988 182.838 319.988C181.614 319.988 180.57 320.432 179.706 321.32C178.866 322.184 178.446 323.384 178.446 324.92C178.446 326.456 178.866 327.68 179.706 328.592C180.57 329.48 181.614 329.924 182.838 329.924C184.062 329.924 185.094 329.48 185.934 328.592C186.798 327.704 187.23 326.492 187.23 324.956ZM216.775 324.632C216.775 325.208 216.739 325.808 216.667 326.432H202.735C202.831 327.68 203.227 328.64 203.923 329.312C204.643 329.96 205.519 330.284 206.551 330.284C208.087 330.284 209.155 329.636 209.755 328.34H216.307C215.971 329.66 215.359 330.848 214.471 331.904C213.607 332.96 212.515 333.788 211.195 334.388C209.875 334.988 208.399 335.288 206.767 335.288C204.799 335.288 203.047 334.868 201.511 334.028C199.975 333.188 198.775 331.988 197.911 330.428C197.047 328.868 196.615 327.044 196.615 324.956C196.615 322.868 197.035 321.044 197.875 319.484C198.739 317.924 199.939 316.724 201.475 315.884C203.011 315.044 204.775 314.624 206.767 314.624C208.711 314.624 210.439 315.032 211.951 315.848C213.463 316.664 214.639 317.828 215.479 319.34C216.343 320.852 216.775 322.616 216.775 324.632ZM210.475 323.012C210.475 321.956 210.115 321.116 209.395 320.492C208.675 319.868 207.775 319.556 206.695 319.556C205.663 319.556 204.787 319.856 204.067 320.456C203.371 321.056 202.939 321.908 202.771 323.012H210.475ZM228.195 335.288C226.443 335.288 224.883 334.988 223.515 334.388C222.147 333.788 221.067 332.972 220.275 331.94C219.483 330.884 219.039 329.708 218.943 328.412H225.027C225.099 329.108 225.423 329.672 225.999 330.104C226.575 330.536 227.283 330.752 228.123 330.752C228.891 330.752 229.479 330.608 229.887 330.32C230.319 330.008 230.535 329.612 230.535 329.132C230.535 328.556 230.235 328.136 229.635 327.872C229.035 327.584 228.063 327.272 226.719 326.936C225.279 326.6 224.079 326.252 223.119 325.892C222.159 325.508 221.331 324.92 220.635 324.128C219.939 323.312 219.591 322.22 219.591 320.852C219.591 319.7 219.903 318.656 220.527 317.72C221.175 316.76 222.111 316.004 223.335 315.452C224.583 314.9 226.059 314.624 227.763 314.624C230.283 314.624 232.263 315.248 233.703 316.496C235.167 317.744 236.007 319.4 236.223 321.464H230.535C230.439 320.768 230.127 320.216 229.599 319.808C229.095 319.4 228.423 319.196 227.583 319.196C226.863 319.196 226.311 319.34 225.927 319.628C225.543 319.892 225.351 320.264 225.351 320.744C225.351 321.32 225.651 321.752 226.251 322.04C226.875 322.328 227.835 322.616 229.131 322.904C230.619 323.288 231.831 323.672 232.767 324.056C233.703 324.416 234.519 325.016 235.215 325.856C235.935 326.672 236.307 327.776 236.331 329.168C236.331 330.344 235.995 331.4 235.323 332.336C234.675 333.248 233.727 333.968 232.479 334.496C231.255 335.024 229.827 335.288 228.195 335.288Z" fill="#FFEBEB"/>
<circle cx="135.5" cy="135.5" r="135.5" fill="#F8A98A"/>
<g clip-path="url(#clip0_323_20)">
<path d="M226.162 148.82C236.633 203.67 185.566 215.247 135.48 215.247C85.3947 215.247 37.4565 204.811 44.819 148.82C49.6047 112.437 85.4152 82.3926 135.501 82.3926C185.587 82.3926 219.291 112.783 226.183 148.82H226.162Z" fill="#4D382E"/>
<path d="M110.489 151.205C110.182 168.122 97.9109 174.176 86.458 174.176C75.0052 174.176 63.3479 165.065 65.7202 148.983C67.8472 134.593 76.1914 126.684 86.458 123.79C97.4814 120.692 110.693 140.015 110.489 151.205Z" fill="#FFFCC3"/>
<path d="M160.656 150.002C160.962 166.92 173.233 172.973 184.686 172.973C196.139 172.973 207.796 163.862 205.424 147.78C203.297 133.39 194.953 125.482 184.686 122.587C173.663 119.489 160.451 138.812 160.656 150.002Z" fill="#FFFCC3"/>
<path d="M109.139 89.7305C109.139 104.793 96.275 119.591 79.9547 119.591C63.6344 119.591 53.8586 141.727 48.439 125.849C43.5716 111.581 42.7535 59.3602 61.8756 55.9971C77.9709 53.1843 109.159 74.6473 109.159 89.7305H109.139Z" fill="#4D382E"/>
<path d="M160.656 91.6668C160.656 106.73 173.52 121.527 189.84 121.527C206.161 121.527 215.937 143.663 221.356 127.785C226.224 113.517 227.042 61.2965 207.92 57.9334C191.824 55.1206 160.636 76.5836 160.636 91.6668H160.656Z" fill="#4D382E"/>
<path d="M91.0799 163.373C94.6378 163.373 97.5221 157.442 97.5221 150.125C97.5221 142.807 94.6378 136.876 91.0799 136.876C87.522 136.876 84.6377 142.807 84.6377 150.125C84.6377 157.442 87.522 163.373 91.0799 163.373Z" fill="#4D382E"/>
<path d="M177.855 162.069C181.413 162.069 184.298 156.137 184.298 148.82C184.298 141.503 181.413 135.571 177.855 135.571C174.297 135.571 171.413 141.503 171.413 148.82C171.413 156.137 174.297 162.069 177.855 162.069Z" fill="#4D382E"/>
<path d="M144.132 161.62C144.132 165.106 140.369 170.12 135.583 170.12C130.797 170.12 127.034 165.004 127.034 161.518C127.034 158.033 130.695 156.606 135.481 156.606C140.266 156.606 144.132 158.135 144.132 161.62Z" fill="#F8D2DC"/>
<path d="M86.9493 84.5735C93.8823 89.3839 89.9761 90.1992 87.4401 90.9941C79.1573 93.6235 67.684 103.774 62.3666 112.498C60.7305 115.168 57.8264 115.739 57.9491 110.643L59.667 76.5427C59.8715 73.5669 62.2234 70.856 66.2933 73.0981C72.6537 76.5835 82.5113 81.4957 86.9288 84.5939L86.9493 84.5735Z" fill="#B57B82"/>
<path d="M183.009 86.1633C176.24 91.2183 180.187 91.8909 182.744 92.6043C191.129 94.9483 202.929 104.691 208.553 113.232C210.271 115.841 213.196 116.309 212.889 111.234L210.005 77.2153C209.699 74.2394 207.244 71.6305 203.256 73.9949C197.019 77.7045 187.345 82.9429 183.03 86.1837L183.009 86.1633Z" fill="#B57B82"/>
<path d="M38.3563 172.973H59.544H37.0679" fill="black"/>
<path d="M38.3563 172.973H59.544H37.0679" stroke="#4D382E" stroke-width="5.40843" stroke-linecap="round" stroke-linejoin="round"/>
<path d="M42.242 188.444L61.1187 178.864L41.0967 189.015" fill="black"/>
<path d="M42.242 188.444L61.1187 178.864L41.0967 189.015" stroke="#4D382E" stroke-width="5.40843" stroke-linecap="round" stroke-linejoin="round"/>
<path d="M233.443 172.994L212.255 173.259L234.731 172.973" fill="black"/>
<path d="M233.443 172.994L212.255 173.259L234.731 172.973" stroke="#4D382E" stroke-width="5.40843" stroke-linecap="round" stroke-linejoin="round"/>
<path d="M229.761 188.505L210.762 179.17L230.927 189.076" fill="black"/>
<path d="M229.761 188.505L210.762 179.17L230.927 189.076" stroke="#4D382E" stroke-width="5.40843" stroke-linecap="round" stroke-linejoin="round"/>
</g>
<defs>
<clipPath id="clip0_323_20">
<rect width="203.799" height="159.495" fill="white" transform="translate(34 55.7524)"/>
</clipPath>
</defs>
</svg>
