<svg width="720" height="186" viewBox="0 0 720 186" fill="none" xmlns="http://www.w3.org/2000/svg">
<path d="M0 0H670C697.614 0 720 22.3858 720 50V136C720 163.614 697.614 186 670 186H0V0Z" fill="#F8A98A"/>
<path d="M207.254 115H196.31L178.006 87.288V115H167.062V70.072H178.006L196.31 97.912V70.072H207.254V115ZM231.443 115.512C227.944 115.512 224.787 114.765 221.971 113.272C219.197 111.779 217 109.645 215.379 106.872C213.8 104.099 213.011 100.856 213.011 97.144C213.011 93.4747 213.821 90.2533 215.443 87.48C217.064 84.664 219.283 82.5093 222.099 81.016C224.915 79.5227 228.072 78.776 231.571 78.776C235.069 78.776 238.227 79.5227 241.043 81.016C243.859 82.5093 246.077 84.664 247.699 87.48C249.32 90.2533 250.131 93.4747 250.131 97.144C250.131 100.813 249.299 104.056 247.635 106.872C246.013 109.645 243.773 111.779 240.915 113.272C238.099 114.765 234.941 115.512 231.443 115.512ZM231.443 106.04C233.533 106.04 235.304 105.272 236.755 103.736C238.248 102.2 238.995 100.003 238.995 97.144C238.995 94.2853 238.269 92.088 236.819 90.552C235.411 89.016 233.661 88.248 231.571 88.248C229.437 88.248 227.667 89.016 226.259 90.552C224.851 92.0453 224.147 94.2427 224.147 97.144C224.147 100.003 224.829 102.2 226.195 103.736C227.603 105.272 229.352 106.04 231.443 106.04ZM270.465 115.512C267.35 115.512 264.577 114.979 262.145 113.912C259.713 112.845 257.793 111.395 256.385 109.56C254.977 107.683 254.187 105.592 254.017 103.288H264.833C264.961 104.525 265.537 105.528 266.561 106.296C267.585 107.064 268.843 107.448 270.337 107.448C271.702 107.448 272.747 107.192 273.473 106.68C274.241 106.125 274.625 105.421 274.625 104.568C274.625 103.544 274.091 102.797 273.025 102.328C271.958 101.816 270.23 101.261 267.841 100.664C265.281 100.067 263.147 99.448 261.441 98.808C259.734 98.1253 258.262 97.08 257.025 95.672C255.787 94.2213 255.169 92.28 255.169 89.848C255.169 87.8 255.723 85.944 256.833 84.28C257.985 82.5733 259.649 81.2293 261.825 80.248C264.043 79.2667 266.667 78.776 269.697 78.776C274.177 78.776 277.697 79.8853 280.257 82.104C282.859 84.3227 284.353 87.2667 284.737 90.936H274.625C274.454 89.6987 273.899 88.7173 272.961 87.992C272.065 87.2667 270.87 86.904 269.377 86.904C268.097 86.904 267.115 87.16 266.433 87.672C265.75 88.1413 265.409 88.8027 265.409 89.656C265.409 90.68 265.942 91.448 267.009 91.96C268.118 92.472 269.825 92.984 272.129 93.496C274.774 94.1787 276.929 94.8613 278.593 95.544C280.257 96.184 281.707 97.2507 282.945 98.744C284.225 100.195 284.886 102.157 284.929 104.632C284.929 106.723 284.331 108.6 283.137 110.264C281.985 111.885 280.299 113.165 278.081 114.104C275.905 115.043 273.366 115.512 270.465 115.512ZM306.152 115.512C303.038 115.512 300.264 114.979 297.832 113.912C295.4 112.845 293.48 111.395 292.072 109.56C290.664 107.683 289.875 105.592 289.704 103.288H300.52C300.648 104.525 301.224 105.528 302.248 106.296C303.272 107.064 304.531 107.448 306.024 107.448C307.39 107.448 308.435 107.192 309.16 106.68C309.928 106.125 310.312 105.421 310.312 104.568C310.312 103.544 309.779 102.797 308.712 102.328C307.646 101.816 305.918 101.261 303.528 100.664C300.968 100.067 298.835 99.448 297.128 98.808C295.422 98.1253 293.95 97.08 292.712 95.672C291.475 94.2213 290.856 92.28 290.856 89.848C290.856 87.8 291.411 85.944 292.52 84.28C293.672 82.5733 295.336 81.2293 297.512 80.248C299.731 79.2667 302.355 78.776 305.384 78.776C309.864 78.776 313.384 79.8853 315.944 82.104C318.547 84.3227 320.04 87.2667 320.424 90.936H310.312C310.142 89.6987 309.587 88.7173 308.648 87.992C307.752 87.2667 306.558 86.904 305.064 86.904C303.784 86.904 302.803 87.16 302.12 87.672C301.438 88.1413 301.096 88.8027 301.096 89.656C301.096 90.68 301.63 91.448 302.696 91.96C303.806 92.472 305.512 92.984 307.816 93.496C310.462 94.1787 312.616 94.8613 314.28 95.544C315.944 96.184 317.395 97.2507 318.632 98.744C319.912 100.195 320.574 102.157 320.616 104.632C320.616 106.723 320.019 108.6 318.824 110.264C317.672 111.885 315.987 113.165 313.768 114.104C311.592 115.043 309.054 115.512 306.152 115.512ZM343.568 115.512C340.069 115.512 336.912 114.765 334.096 113.272C331.322 111.779 329.125 109.645 327.504 106.872C325.925 104.099 325.136 100.856 325.136 97.144C325.136 93.4747 325.946 90.2533 327.568 87.48C329.189 84.664 331.408 82.5093 334.224 81.016C337.04 79.5227 340.197 78.776 343.696 78.776C347.194 78.776 350.352 79.5227 353.168 81.016C355.984 82.5093 358.202 84.664 359.824 87.48C361.445 90.2533 362.256 93.4747 362.256 97.144C362.256 100.813 361.424 104.056 359.76 106.872C358.138 109.645 355.898 111.779 353.04 113.272C350.224 114.765 347.066 115.512 343.568 115.512ZM343.568 106.04C345.658 106.04 347.429 105.272 348.88 103.736C350.373 102.2 351.12 100.003 351.12 97.144C351.12 94.2853 350.394 92.088 348.944 90.552C347.536 89.016 345.786 88.248 343.696 88.248C341.562 88.248 339.792 89.016 338.384 90.552C336.976 92.0453 336.272 94.2427 336.272 97.144C336.272 100.003 336.954 102.2 338.32 103.736C339.728 105.272 341.477 106.04 343.568 106.04ZM382.59 115.512C379.475 115.512 376.702 114.979 374.27 113.912C371.838 112.845 369.918 111.395 368.51 109.56C367.102 107.683 366.312 105.592 366.142 103.288H376.958C377.086 104.525 377.662 105.528 378.686 106.296C379.71 107.064 380.968 107.448 382.462 107.448C383.827 107.448 384.872 107.192 385.598 106.68C386.366 106.125 386.75 105.421 386.75 104.568C386.75 103.544 386.216 102.797 385.15 102.328C384.083 101.816 382.355 101.261 379.966 100.664C377.406 100.067 375.272 99.448 373.566 98.808C371.859 98.1253 370.387 97.08 369.15 95.672C367.912 94.2213 367.294 92.28 367.294 89.848C367.294 87.8 367.848 85.944 368.958 84.28C370.11 82.5733 371.774 81.2293 373.95 80.248C376.168 79.2667 378.792 78.776 381.822 78.776C386.302 78.776 389.822 79.8853 392.382 82.104C394.984 84.3227 396.478 87.2667 396.862 90.936H386.75C386.579 89.6987 386.024 88.7173 385.086 87.992C384.19 87.2667 382.995 86.904 381.502 86.904C380.222 86.904 379.24 87.16 378.558 87.672C377.875 88.1413 377.534 88.8027 377.534 89.656C377.534 90.68 378.067 91.448 379.134 91.96C380.243 92.472 381.95 92.984 384.254 93.496C386.899 94.1787 389.054 94.8613 390.718 95.544C392.382 96.184 393.832 97.2507 395.07 98.744C396.35 100.195 397.011 102.157 397.054 104.632C397.054 106.723 396.456 108.6 395.262 110.264C394.11 111.885 392.424 113.165 390.206 114.104C388.03 115.043 385.491 115.512 382.59 115.512ZM428.256 84.344C429.322 82.68 430.794 81.336 432.672 80.312C434.549 79.288 436.746 78.776 439.264 78.776C442.208 78.776 444.874 79.5227 447.264 81.016C449.653 82.5093 451.53 84.6427 452.896 87.416C454.304 90.1893 455.008 93.4107 455.008 97.08C455.008 100.749 454.304 103.992 452.896 106.808C451.53 109.581 449.653 111.736 447.264 113.272C444.874 114.765 442.208 115.512 439.264 115.512C436.789 115.512 434.592 115 432.672 113.976C430.794 112.952 429.322 111.629 428.256 110.008V132.024H417.312V79.288H428.256V84.344ZM443.872 97.08C443.872 94.3493 443.104 92.216 441.568 90.68C440.074 89.1013 438.218 88.312 436 88.312C433.824 88.312 431.968 89.1013 430.432 90.68C428.938 92.2587 428.192 94.4133 428.192 97.144C428.192 99.8747 428.938 102.029 430.432 103.608C431.968 105.187 433.824 105.976 436 105.976C438.176 105.976 440.032 105.187 441.568 103.608C443.104 101.987 443.872 99.8107 443.872 97.08ZM494.413 96.568C494.413 97.592 494.349 98.6587 494.221 99.768H469.453C469.624 101.987 470.328 103.693 471.565 104.888C472.845 106.04 474.403 106.616 476.237 106.616C478.968 106.616 480.867 105.464 481.933 103.16H493.581C492.984 105.507 491.896 107.619 490.317 109.496C488.781 111.373 486.84 112.845 484.493 113.912C482.147 114.979 479.523 115.512 476.621 115.512C473.123 115.512 470.008 114.765 467.277 113.272C464.547 111.779 462.413 109.645 460.877 106.872C459.341 104.099 458.573 100.856 458.573 97.144C458.573 93.432 459.32 90.1893 460.813 87.416C462.349 84.6427 464.483 82.5093 467.213 81.016C469.944 79.5227 473.08 78.776 476.621 78.776C480.077 78.776 483.149 79.5013 485.837 80.952C488.525 82.4027 490.616 84.472 492.109 87.16C493.645 89.848 494.413 92.984 494.413 96.568ZM483.213 93.688C483.213 91.8107 482.573 90.3173 481.293 89.208C480.013 88.0987 478.413 87.544 476.493 87.544C474.659 87.544 473.101 88.0773 471.821 89.144C470.584 90.2107 469.816 91.7253 469.517 93.688H483.213ZM520.091 105.72V115H514.523C510.555 115 507.461 114.04 505.243 112.12C503.024 110.157 501.915 106.979 501.915 102.584V88.376H497.563V79.288H501.915V70.584H512.859V79.288H520.027V88.376H512.859V102.712C512.859 103.779 513.115 104.547 513.627 105.016C514.139 105.485 514.992 105.72 516.187 105.72H520.091ZM540.715 115.512C537.6 115.512 534.827 114.979 532.395 113.912C529.963 112.845 528.043 111.395 526.635 109.56C525.227 107.683 524.437 105.592 524.267 103.288H535.083C535.211 104.525 535.787 105.528 536.811 106.296C537.835 107.064 539.093 107.448 540.587 107.448C541.952 107.448 542.997 107.192 543.723 106.68C544.491 106.125 544.875 105.421 544.875 104.568C544.875 103.544 544.341 102.797 543.275 102.328C542.208 101.816 540.48 101.261 538.091 100.664C535.531 100.067 533.397 99.448 531.691 98.808C529.984 98.1253 528.512 97.08 527.275 95.672C526.037 94.2213 525.419 92.28 525.419 89.848C525.419 87.8 525.973 85.944 527.083 84.28C528.235 82.5733 529.899 81.2293 532.075 80.248C534.293 79.2667 536.917 78.776 539.947 78.776C544.427 78.776 547.947 79.8853 550.507 82.104C553.109 84.3227 554.603 87.2667 554.987 90.936H544.875C544.704 89.6987 544.149 88.7173 543.211 87.992C542.315 87.2667 541.12 86.904 539.627 86.904C538.347 86.904 537.365 87.16 536.683 87.672C536 88.1413 535.659 88.8027 535.659 89.656C535.659 90.68 536.192 91.448 537.259 91.96C538.368 92.472 540.075 92.984 542.379 93.496C545.024 94.1787 547.179 94.8613 548.843 95.544C550.507 96.184 551.957 97.2507 553.195 98.744C554.475 100.195 555.136 102.157 555.179 104.632C555.179 106.723 554.581 108.6 553.387 110.264C552.235 111.885 550.549 113.165 548.331 114.104C546.155 115.043 543.616 115.512 540.715 115.512Z" fill="#FFEBEB"/>
</svg>
