<svg width="147" height="135" viewBox="0 0 147 135" fill="none" xmlns="http://www.w3.org/2000/svg">
<path d="M64.4237 108.204C66.3997 108.204 68.1071 108.568 69.5457 109.296C70.9844 110.024 72.0764 111.047 72.8217 112.364C73.5844 113.664 73.9657 115.181 73.9657 116.914C73.9657 118.301 73.7231 119.627 73.2377 120.892C72.7697 122.157 72.0851 123.189 71.1837 123.986C70.2997 124.783 69.2511 125.182 68.0377 125.182C67.1537 125.182 66.4604 124.991 65.9577 124.61C65.4551 124.211 65.1431 123.657 65.0217 122.946C64.4844 123.639 63.8084 124.185 62.9937 124.584C62.1791 124.983 61.3297 125.182 60.4457 125.182C59.1111 125.182 58.0624 124.783 57.2997 123.986C56.5544 123.171 56.1817 122.071 56.1817 120.684C56.1817 119.367 56.4504 118.136 56.9877 116.992C57.5424 115.848 58.3137 114.938 59.3017 114.262C60.2897 113.569 61.3991 113.222 62.6297 113.222C64.1377 113.222 65.1951 113.733 65.8017 114.756L66.0357 113.456H68.6097L67.3097 120.892C67.2577 121.256 67.2317 121.577 67.2317 121.854C67.2317 122.305 67.3184 122.643 67.4917 122.868C67.6824 123.093 68.0117 123.206 68.4797 123.206C69.1384 123.206 69.7017 122.885 70.1697 122.244C70.6377 121.585 70.9844 120.779 71.2097 119.826C71.4524 118.873 71.5737 117.945 71.5737 117.044C71.5737 114.843 70.9324 113.161 69.6497 112C68.3671 110.839 66.5037 110.258 64.0597 110.258C62.0144 110.258 60.1771 110.743 58.5477 111.714C56.9357 112.685 55.6704 114.019 54.7517 115.718C53.8331 117.417 53.3737 119.306 53.3737 121.386C53.3737 123.605 54.0324 125.295 55.3497 126.456C56.6671 127.617 58.5477 128.198 60.9917 128.198C62.6384 128.198 64.0771 127.895 65.3077 127.288L65.6977 129.264C64.1204 129.94 62.3524 130.278 60.3937 130.278C58.5044 130.278 56.8491 129.923 55.4277 129.212C54.0064 128.501 52.9057 127.487 52.1257 126.17C51.3457 124.87 50.9557 123.353 50.9557 121.62C50.9557 119.141 51.5277 116.879 52.6717 114.834C53.8331 112.789 55.4364 111.177 57.4817 109.998C59.5271 108.802 61.8411 108.204 64.4237 108.204ZM61.3557 122.894C62.0837 122.894 62.7424 122.686 63.3317 122.27C63.9384 121.837 64.4151 121.273 64.7617 120.58C65.1084 119.869 65.2817 119.115 65.2817 118.318C65.2817 117.486 65.0477 116.81 64.5797 116.29C64.1291 115.753 63.4877 115.484 62.6557 115.484C61.9104 115.484 61.2517 115.718 60.6797 116.186C60.1251 116.637 59.6917 117.226 59.3797 117.954C59.0851 118.682 58.9377 119.445 58.9377 120.242C58.9377 121.057 59.1371 121.707 59.5357 122.192C59.9344 122.66 60.5411 122.894 61.3557 122.894ZM96.7779 106.93V125H93.8139V112.624L88.3019 125H86.2479L80.7099 112.624V125H77.7459V106.93H80.9439L87.2879 121.1L93.6059 106.93H96.7779ZM102.182 108.776C101.644 108.776 101.194 108.594 100.83 108.23C100.466 107.866 100.284 107.415 100.284 106.878C100.284 106.341 100.466 105.89 100.83 105.526C101.194 105.162 101.644 104.98 102.182 104.98C102.702 104.98 103.144 105.162 103.508 105.526C103.872 105.89 104.054 106.341 104.054 106.878C104.054 107.415 103.872 107.866 103.508 108.23C103.144 108.594 102.702 108.776 102.182 108.776ZM103.638 110.674V125H100.674V110.674H103.638ZM108.725 125.182C108.188 125.182 107.737 125 107.373 124.636C107.009 124.272 106.827 123.821 106.827 123.284C106.827 122.747 107.009 122.296 107.373 121.932C107.737 121.568 108.188 121.386 108.725 121.386C109.245 121.386 109.687 121.568 110.051 121.932C110.415 122.296 110.597 122.747 110.597 123.284C110.597 123.821 110.415 124.272 110.051 124.636C109.687 125 109.245 125.182 108.725 125.182ZM124.695 121.308H117.129L115.829 125H112.735L119.209 106.904H122.641L129.115 125H125.995L124.695 121.308ZM123.863 118.89L120.925 110.492L117.961 118.89H123.863ZM144.903 110.674V125H141.939V123.31C141.471 123.899 140.856 124.367 140.093 124.714C139.348 125.043 138.551 125.208 137.701 125.208C136.575 125.208 135.561 124.974 134.659 124.506C133.775 124.038 133.073 123.345 132.553 122.426C132.051 121.507 131.799 120.398 131.799 119.098V110.674H134.737V118.656C134.737 119.939 135.058 120.927 135.699 121.62C136.341 122.296 137.216 122.634 138.325 122.634C139.435 122.634 140.31 122.296 140.951 121.62C141.61 120.927 141.939 119.939 141.939 118.656V110.674H144.903Z" fill="#FFEBEB"/>
<path d="M70.4478 10.93V29H67.4838V16.624L61.9718 29H59.9178L54.3798 16.624V29H51.4158V10.93H54.6138L60.9578 25.1L67.2758 10.93H70.4478ZM75.8516 12.776C75.3142 12.776 74.8636 12.594 74.4996 12.23C74.1356 11.866 73.9536 11.4153 73.9536 10.878C73.9536 10.3407 74.1356 9.89 74.4996 9.526C74.8636 9.162 75.3142 8.98 75.8516 8.98C76.3716 8.98 76.8136 9.162 77.1776 9.526C77.5416 9.89 77.7236 10.3407 77.7236 10.878C77.7236 11.4153 77.5416 11.866 77.1776 12.23C76.8136 12.594 76.3716 12.776 75.8516 12.776ZM77.3076 14.674V29H74.3436V14.674H77.3076ZM82.395 29.182C81.8577 29.182 81.407 29 81.043 28.636C80.679 28.272 80.497 27.8213 80.497 27.284C80.497 26.7467 80.679 26.296 81.043 25.932C81.407 25.568 81.8577 25.386 82.395 25.386C82.915 25.386 83.357 25.568 83.721 25.932C84.085 26.296 84.267 26.7467 84.267 27.284C84.267 27.8213 84.085 28.272 83.721 28.636C83.357 29 82.915 29.182 82.395 29.182ZM98.3645 25.308H90.7985L89.4985 29H86.4045L92.8785 10.904H96.3105L102.785 29H99.6645L98.3645 25.308ZM97.5325 22.89L94.5945 14.492L91.6305 22.89H97.5325ZM118.573 14.674V29H115.609V27.31C115.141 27.8993 114.526 28.3673 113.763 28.714C113.018 29.0433 112.221 29.208 111.371 29.208C110.245 29.208 109.231 28.974 108.329 28.506C107.445 28.038 106.743 27.3447 106.223 26.426C105.721 25.5073 105.469 24.398 105.469 23.098V14.674H108.407V22.656C108.407 23.9387 108.728 24.9267 109.369 25.62C110.011 26.296 110.886 26.634 111.995 26.634C113.105 26.634 113.98 26.296 114.621 25.62C115.28 24.9267 115.609 23.9387 115.609 22.656V14.674H118.573Z" fill="#FFEBEB"/>
<path d="M64.4237 59.204C66.3997 59.204 68.1071 59.568 69.5457 60.296C70.9844 61.024 72.0764 62.0467 72.8217 63.364C73.5844 64.664 73.9657 66.1807 73.9657 67.914C73.9657 69.3007 73.7231 70.6267 73.2377 71.892C72.7697 73.1573 72.0851 74.1887 71.1837 74.986C70.2997 75.7833 69.2511 76.182 68.0377 76.182C67.1537 76.182 66.4604 75.9913 65.9577 75.61C65.4551 75.2113 65.1431 74.6567 65.0217 73.946C64.4844 74.6393 63.8084 75.1853 62.9937 75.584C62.1791 75.9827 61.3297 76.182 60.4457 76.182C59.1111 76.182 58.0624 75.7833 57.2997 74.986C56.5544 74.1713 56.1817 73.0707 56.1817 71.684C56.1817 70.3667 56.4504 69.136 56.9877 67.992C57.5424 66.848 58.3137 65.938 59.3017 65.262C60.2897 64.5687 61.3991 64.222 62.6297 64.222C64.1377 64.222 65.1951 64.7333 65.8017 65.756L66.0357 64.456H68.6097L67.3097 71.892C67.2577 72.256 67.2317 72.5767 67.2317 72.854C67.2317 73.3047 67.3184 73.6427 67.4917 73.868C67.6824 74.0933 68.0117 74.206 68.4797 74.206C69.1384 74.206 69.7017 73.8853 70.1697 73.244C70.6377 72.5853 70.9844 71.7793 71.2097 70.826C71.4524 69.8727 71.5737 68.9453 71.5737 68.044C71.5737 65.8427 70.9324 64.1613 69.6497 63C68.3671 61.8387 66.5037 61.258 64.0597 61.258C62.0144 61.258 60.1771 61.7433 58.5477 62.714C56.9357 63.6847 55.6704 65.0193 54.7517 66.718C53.8331 68.4167 53.3737 70.306 53.3737 72.386C53.3737 74.6047 54.0324 76.2947 55.3497 77.456C56.6671 78.6173 58.5477 79.198 60.9917 79.198C62.6384 79.198 64.0771 78.8947 65.3077 78.288L65.6977 80.264C64.1204 80.94 62.3524 81.278 60.3937 81.278C58.5044 81.278 56.8491 80.9227 55.4277 80.212C54.0064 79.5013 52.9057 78.4873 52.1257 77.17C51.3457 75.87 50.9557 74.3533 50.9557 72.62C50.9557 70.1413 51.5277 67.8793 52.6717 65.834C53.8331 63.7887 55.4364 62.1767 57.4817 60.998C59.5271 59.802 61.8411 59.204 64.4237 59.204ZM61.3557 73.894C62.0837 73.894 62.7424 73.686 63.3317 73.27C63.9384 72.8367 64.4151 72.2733 64.7617 71.58C65.1084 70.8693 65.2817 70.1153 65.2817 69.318C65.2817 68.486 65.0477 67.81 64.5797 67.29C64.1291 66.7527 63.4877 66.484 62.6557 66.484C61.9104 66.484 61.2517 66.718 60.6797 67.186C60.1251 67.6367 59.6917 68.226 59.3797 68.954C59.0851 69.682 58.9377 70.4447 58.9377 71.242C58.9377 72.0567 59.1371 72.7067 59.5357 73.192C59.9344 73.66 60.5411 73.894 61.3557 73.894ZM96.7779 57.93V76H93.8139V63.624L88.3019 76H86.2479L80.7099 63.624V76H77.7459V57.93H80.9439L87.2879 72.1L93.6059 57.93H96.7779ZM102.182 59.776C101.644 59.776 101.194 59.594 100.83 59.23C100.466 58.866 100.284 58.4153 100.284 57.878C100.284 57.3407 100.466 56.89 100.83 56.526C101.194 56.162 101.644 55.98 102.182 55.98C102.702 55.98 103.144 56.162 103.508 56.526C103.872 56.89 104.054 57.3407 104.054 57.878C104.054 58.4153 103.872 58.866 103.508 59.23C103.144 59.594 102.702 59.776 102.182 59.776ZM103.638 61.674V76H100.674V61.674H103.638ZM108.725 76.182C108.188 76.182 107.737 76 107.373 75.636C107.009 75.272 106.827 74.8213 106.827 74.284C106.827 73.7467 107.009 73.296 107.373 72.932C107.737 72.568 108.188 72.386 108.725 72.386C109.245 72.386 109.687 72.568 110.051 72.932C110.415 73.296 110.597 73.7467 110.597 74.284C110.597 74.8213 110.415 75.272 110.051 75.636C109.687 76 109.245 76.182 108.725 76.182ZM124.695 72.308H117.129L115.829 76H112.735L119.209 57.904H122.641L129.115 76H125.995L124.695 72.308ZM123.863 69.89L120.925 61.492L117.961 69.89H123.863ZM144.903 61.674V76H141.939V74.31C141.471 74.8993 140.856 75.3673 140.093 75.714C139.348 76.0433 138.551 76.208 137.701 76.208C136.575 76.208 135.561 75.974 134.659 75.506C133.775 75.038 133.073 74.3447 132.553 73.426C132.051 72.5073 131.799 71.398 131.799 70.098V61.674H134.737V69.656C134.737 70.9387 135.058 71.9267 135.699 72.62C136.341 73.296 137.216 73.634 138.325 73.634C139.435 73.634 140.31 73.296 140.951 72.62C141.61 71.9267 141.939 70.9387 141.939 69.656V61.674H144.903Z" fill="#FFEBEB"/>
<g clip-path="url(#clip0_384_114)">
<path d="M28.75 54.75C27.553 55.5943 26.2276 56.2401 24.825 56.6625C24.0722 55.7969 23.0717 55.1834 21.9588 54.9049C20.8459 54.6264 19.6744 54.6965 18.6026 55.1056C17.5308 55.5146 16.6106 56.243 15.9662 57.1921C15.3219 58.1413 14.9846 59.2654 15 60.4125V61.6625C12.8033 61.7195 10.6266 61.2323 8.66376 60.2443C6.70093 59.2563 5.0129 57.7983 3.75 56C3.75 56 -1.25 67.25 10 72.25C7.42566 73.9975 4.35895 74.8737 1.25 74.75C12.5 81 26.25 74.75 26.25 60.375C26.2488 60.0268 26.2154 59.6795 26.15 59.3375C27.4258 58.0794 28.326 56.4909 28.75 54.75V54.75Z" stroke="#FFEBEB" stroke-width="3" stroke-linecap="round"/>
</g>
<path d="M22.5 7.5H18.75C17.0924 7.5 15.5027 8.15848 14.3306 9.33058C13.1585 10.5027 12.5 12.0924 12.5 13.75V17.5H8.75V22.5H12.5V32.5H17.5V22.5H21.25L22.5 17.5H17.5V13.75C17.5 13.4185 17.6317 13.1005 17.8661 12.8661C18.1005 12.6317 18.4185 12.5 18.75 12.5H22.5V7.5Z" stroke="#FFEBEB" stroke-width="3" stroke-linecap="round" stroke-linejoin="round"/>
<path d="M21.25 103.5H8.75C5.29822 103.5 2.5 106.298 2.5 109.75V122.25C2.5 125.702 5.29822 128.5 8.75 128.5H21.25C24.7018 128.5 27.5 125.702 27.5 122.25V109.75C27.5 106.298 24.7018 103.5 21.25 103.5Z" stroke="#FFEBEB" stroke-width="3" stroke-linecap="round" stroke-linejoin="round"/>
<path d="M19.9996 115.213C20.1539 116.253 19.9762 117.315 19.4918 118.249C19.0075 119.182 18.2411 119.939 17.3017 120.412C16.3623 120.885 15.2977 121.05 14.2594 120.882C13.221 120.715 12.2618 120.225 11.5182 119.481C10.7745 118.738 10.2843 117.779 10.1172 116.74C9.95014 115.702 10.1147 114.637 10.5875 113.698C11.0604 112.759 11.8174 111.992 12.7509 111.508C13.6844 111.023 14.7468 110.846 15.7871 111C16.8483 111.157 17.8307 111.652 18.5893 112.41C19.3478 113.169 19.8423 114.151 19.9996 115.213Z" stroke="#FFEBEB" stroke-width="3" stroke-linecap="round" stroke-linejoin="round"/>
<path d="M21.875 109.125H21.8875" stroke="#FFEBEB" stroke-width="3" stroke-linecap="round" stroke-linejoin="round"/>
<defs>
<clipPath id="clip0_384_114">
<rect width="30" height="30" fill="white" transform="translate(0 51)"/>
</clipPath>
</defs>
</svg>
