<svg width="222" height="216" viewBox="0 0 222 216" fill="none" xmlns="http://www.w3.org/2000/svg">
<g clip-path="url(#clip0_142_9)">
<path d="M205.231 85.399C204.018 73.5016 194.75 61.7369 183.894 57.9618C183.89 57.9194 183.881 57.8348 183.877 57.7924C183.839 40.1718 181.24 27.7305 159.099 20.181C148.515 16.5493 135.46 18.5584 127.063 24.5866C119.969 14.3553 107.581 9.02444 89.9543 10.813C63.1535 13.5324 36.2721 47.0172 38.196 69.6653L-35.5955 132.122L-22.5207 274.615L116.122 186.584C124.228 186.959 133.602 186.308 143.541 185.299C172.508 182.36 191.11 164.046 192.355 144.284C192.911 135.844 192.018 125.411 188.575 116.477C198.773 110.438 206.427 97.1271 205.227 85.3567L205.231 85.399Z" fill="#F6BD6F"/>
<path d="M129.869 129.635C139.242 118.176 135.344 99.5445 121.164 88.0196C106.984 76.4947 87.8908 76.4413 78.5183 87.9002C69.1459 99.3591 73.0434 117.991 87.2236 129.516C101.404 141.041 120.497 141.094 129.869 129.635Z" fill="#FFEBCA"/>
<path d="M83.5427 63.733C89.3004 67.3138 97.5053 64.5671 101.869 57.5981C106.232 50.629 105.102 42.0767 99.3444 38.4959C93.5867 34.915 85.3819 37.6617 81.0183 44.6308C76.6548 51.5998 77.785 60.1522 83.5427 63.733Z" fill="#FFEBCA"/>
<path d="M127.709 73.9116C133.529 78.2567 142.606 75.9791 147.983 68.8244C153.361 61.6698 153.003 52.3475 147.183 48.0024C141.363 43.6574 132.286 45.935 126.909 53.0896C121.531 60.2442 121.889 69.5666 127.709 73.9116Z" fill="#FFEBCA"/>
<path d="M148.792 100.973C153.021 107.163 162.459 108.101 169.873 103.069C177.286 98.037 179.867 88.9396 175.638 82.7495C171.409 76.5595 161.971 75.6209 154.558 80.653C147.144 85.6851 144.563 94.7825 148.792 100.973Z" fill="#FFEBCA"/>
<path d="M144.115 151.54C148.897 156.337 157.332 155.712 162.956 150.144C168.581 144.575 169.265 136.172 164.483 131.375C159.702 126.577 151.267 127.202 145.642 132.771C140.018 138.339 139.334 146.742 144.115 151.54Z" fill="#FFEBCA"/>
</g>
<defs>
<clipPath id="clip0_142_9">
<rect width="245.776" height="251.1" fill="white" transform="matrix(0.994892 -0.100949 0.101471 0.994838 -48 24.8108)"/>
</clipPath>
</defs>
</svg>
